G04 #@! TF.GenerationSoftware,KiCad,Pcbnew,5.0.1-33cea8e~68~ubuntu18.04.1*
G04 #@! TF.CreationDate,2018-10-29T17:39:43+09:00*
G04 #@! TF.ProjectId,spacer_pcb,7370616365725F7063622E6B69636164,rev?*
G04 #@! TF.SameCoordinates,Original*
G04 #@! TF.FileFunction,Legend,Top*
G04 #@! TF.FilePolarity,Positive*
%FSLAX46Y46*%
G04 Gerber Fmt 4.6, Leading zero omitted, Abs format (unit mm)*
G04 Created by KiCad (PCBNEW 5.0.1-33cea8e~68~ubuntu18.04.1) date 2018年10月29日 17時39分43秒*
%MOMM*%
%LPD*%
G01*
G04 APERTURE LIST*
%ADD10C,0.150000*%
%ADD11C,0.120000*%
G04 APERTURE END LIST*
D10*
X135647142Y-68860742D02*
X135618571Y-68917885D01*
X135618571Y-69032171D01*
X135647142Y-69089314D01*
X135704285Y-69117885D01*
X135732857Y-69117885D01*
X135790000Y-69089314D01*
X135818571Y-69032171D01*
X135818571Y-68946457D01*
X135847142Y-68889314D01*
X135904285Y-68860742D01*
X135932857Y-68860742D01*
X135990000Y-68889314D01*
X136018571Y-68946457D01*
X136018571Y-69032171D01*
X135990000Y-69089314D01*
X136018571Y-69375028D02*
X135418571Y-69375028D01*
X135990000Y-69375028D02*
X136018571Y-69432171D01*
X136018571Y-69546457D01*
X135990000Y-69603600D01*
X135961428Y-69632171D01*
X135904285Y-69660742D01*
X135732857Y-69660742D01*
X135675714Y-69632171D01*
X135647142Y-69603600D01*
X135618571Y-69546457D01*
X135618571Y-69432171D01*
X135647142Y-69375028D01*
X135618571Y-70175028D02*
X135932857Y-70175028D01*
X135990000Y-70146457D01*
X136018571Y-70089314D01*
X136018571Y-69975028D01*
X135990000Y-69917885D01*
X135647142Y-70175028D02*
X135618571Y-70117885D01*
X135618571Y-69975028D01*
X135647142Y-69917885D01*
X135704285Y-69889314D01*
X135761428Y-69889314D01*
X135818571Y-69917885D01*
X135847142Y-69975028D01*
X135847142Y-70117885D01*
X135875714Y-70175028D01*
X135647142Y-70717885D02*
X135618571Y-70660742D01*
X135618571Y-70546457D01*
X135647142Y-70489314D01*
X135675714Y-70460742D01*
X135732857Y-70432171D01*
X135904285Y-70432171D01*
X135961428Y-70460742D01*
X135990000Y-70489314D01*
X136018571Y-70546457D01*
X136018571Y-70660742D01*
X135990000Y-70717885D01*
X135647142Y-71203600D02*
X135618571Y-71146457D01*
X135618571Y-71032171D01*
X135647142Y-70975028D01*
X135704285Y-70946457D01*
X135932857Y-70946457D01*
X135990000Y-70975028D01*
X136018571Y-71032171D01*
X136018571Y-71146457D01*
X135990000Y-71203600D01*
X135932857Y-71232171D01*
X135875714Y-71232171D01*
X135818571Y-70946457D01*
X135618571Y-71489314D02*
X136018571Y-71489314D01*
X135904285Y-71489314D02*
X135961428Y-71517885D01*
X135990000Y-71546457D01*
X136018571Y-71603600D01*
X136018571Y-71660742D01*
X135618571Y-72660742D02*
X135904285Y-72460742D01*
X135618571Y-72317885D02*
X136218571Y-72317885D01*
X136218571Y-72546457D01*
X136190000Y-72603600D01*
X136161428Y-72632171D01*
X136104285Y-72660742D01*
X136018571Y-72660742D01*
X135961428Y-72632171D01*
X135932857Y-72603600D01*
X135904285Y-72546457D01*
X135904285Y-72317885D01*
X135932857Y-72917885D02*
X135932857Y-73117885D01*
X135618571Y-73203600D02*
X135618571Y-72917885D01*
X136218571Y-72917885D01*
X136218571Y-73203600D01*
X136218571Y-73375028D02*
X135618571Y-73575028D01*
X136218571Y-73775028D01*
X135618571Y-74289314D02*
X135618571Y-73946457D01*
X135618571Y-74117885D02*
X136218571Y-74117885D01*
X136132857Y-74060742D01*
X136075714Y-74003600D01*
X136047142Y-73946457D01*
X135675714Y-74546457D02*
X135647142Y-74575028D01*
X135618571Y-74546457D01*
X135647142Y-74517885D01*
X135675714Y-74546457D01*
X135618571Y-74546457D01*
X135618571Y-75146457D02*
X135618571Y-74803600D01*
X135618571Y-74975028D02*
X136218571Y-74975028D01*
X136132857Y-74917885D01*
X136075714Y-74860742D01*
X136047142Y-74803600D01*
X136018571Y-75775028D02*
X136018571Y-76003600D01*
X135618571Y-75860742D02*
X136132857Y-75860742D01*
X136190000Y-75889314D01*
X136218571Y-75946457D01*
X136218571Y-76003600D01*
X135618571Y-76289314D02*
X135647142Y-76232171D01*
X135675714Y-76203600D01*
X135732857Y-76175028D01*
X135904285Y-76175028D01*
X135961428Y-76203600D01*
X135990000Y-76232171D01*
X136018571Y-76289314D01*
X136018571Y-76375028D01*
X135990000Y-76432171D01*
X135961428Y-76460742D01*
X135904285Y-76489314D01*
X135732857Y-76489314D01*
X135675714Y-76460742D01*
X135647142Y-76432171D01*
X135618571Y-76375028D01*
X135618571Y-76289314D01*
X135618571Y-76746457D02*
X136018571Y-76746457D01*
X135904285Y-76746457D02*
X135961428Y-76775028D01*
X135990000Y-76803600D01*
X136018571Y-76860742D01*
X136018571Y-76917885D01*
X135618571Y-77575028D02*
X136218571Y-77575028D01*
X135790000Y-77775028D01*
X136218571Y-77975028D01*
X135618571Y-77975028D01*
X136218571Y-78546457D02*
X136218571Y-78260742D01*
X135932857Y-78232171D01*
X135961428Y-78260742D01*
X135990000Y-78317885D01*
X135990000Y-78460742D01*
X135961428Y-78517885D01*
X135932857Y-78546457D01*
X135875714Y-78575028D01*
X135732857Y-78575028D01*
X135675714Y-78546457D01*
X135647142Y-78517885D01*
X135618571Y-78460742D01*
X135618571Y-78317885D01*
X135647142Y-78260742D01*
X135675714Y-78232171D01*
X135647142Y-78803600D02*
X135618571Y-78889314D01*
X135618571Y-79032171D01*
X135647142Y-79089314D01*
X135675714Y-79117885D01*
X135732857Y-79146457D01*
X135790000Y-79146457D01*
X135847142Y-79117885D01*
X135875714Y-79089314D01*
X135904285Y-79032171D01*
X135932857Y-78917885D01*
X135961428Y-78860742D01*
X135990000Y-78832171D01*
X136047142Y-78803600D01*
X136104285Y-78803600D01*
X136161428Y-78832171D01*
X136190000Y-78860742D01*
X136218571Y-78917885D01*
X136218571Y-79060742D01*
X136190000Y-79146457D01*
X136018571Y-79317885D02*
X136018571Y-79546457D01*
X136218571Y-79403600D02*
X135704285Y-79403600D01*
X135647142Y-79432171D01*
X135618571Y-79489314D01*
X135618571Y-79546457D01*
X135618571Y-80003600D02*
X135932857Y-80003600D01*
X135990000Y-79975028D01*
X136018571Y-79917885D01*
X136018571Y-79803600D01*
X135990000Y-79746457D01*
X135647142Y-80003600D02*
X135618571Y-79946457D01*
X135618571Y-79803600D01*
X135647142Y-79746457D01*
X135704285Y-79717885D01*
X135761428Y-79717885D01*
X135818571Y-79746457D01*
X135847142Y-79803600D01*
X135847142Y-79946457D01*
X135875714Y-80003600D01*
X135647142Y-80546457D02*
X135618571Y-80489314D01*
X135618571Y-80375028D01*
X135647142Y-80317885D01*
X135675714Y-80289314D01*
X135732857Y-80260742D01*
X135904285Y-80260742D01*
X135961428Y-80289314D01*
X135990000Y-80317885D01*
X136018571Y-80375028D01*
X136018571Y-80489314D01*
X135990000Y-80546457D01*
X135618571Y-80803600D02*
X136218571Y-80803600D01*
X135847142Y-80860742D02*
X135618571Y-81032171D01*
X136018571Y-81032171D02*
X135790000Y-80803600D01*
X135647142Y-81260742D02*
X135618571Y-81346457D01*
X135618571Y-81489314D01*
X135647142Y-81546457D01*
X135675714Y-81575028D01*
X135732857Y-81603600D01*
X135790000Y-81603600D01*
X135847142Y-81575028D01*
X135875714Y-81546457D01*
X135904285Y-81489314D01*
X135932857Y-81375028D01*
X135961428Y-81317885D01*
X135990000Y-81289314D01*
X136047142Y-81260742D01*
X136104285Y-81260742D01*
X136161428Y-81289314D01*
X136190000Y-81317885D01*
X136218571Y-81375028D01*
X136218571Y-81517885D01*
X136190000Y-81603600D01*
X135618571Y-81860742D02*
X136018571Y-81860742D01*
X136218571Y-81860742D02*
X136190000Y-81832171D01*
X136161428Y-81860742D01*
X136190000Y-81889314D01*
X136218571Y-81860742D01*
X136161428Y-81860742D01*
X135618571Y-82403600D02*
X136218571Y-82403600D01*
X135647142Y-82403600D02*
X135618571Y-82346457D01*
X135618571Y-82232171D01*
X135647142Y-82175028D01*
X135675714Y-82146457D01*
X135732857Y-82117885D01*
X135904285Y-82117885D01*
X135961428Y-82146457D01*
X135990000Y-82175028D01*
X136018571Y-82232171D01*
X136018571Y-82346457D01*
X135990000Y-82403600D01*
X135647142Y-82917885D02*
X135618571Y-82860742D01*
X135618571Y-82746457D01*
X135647142Y-82689314D01*
X135704285Y-82660742D01*
X135932857Y-82660742D01*
X135990000Y-82689314D01*
X136018571Y-82746457D01*
X136018571Y-82860742D01*
X135990000Y-82917885D01*
X135932857Y-82946457D01*
X135875714Y-82946457D01*
X135818571Y-82660742D01*
X135932857Y-83403600D02*
X135904285Y-83489314D01*
X135875714Y-83517885D01*
X135818571Y-83546457D01*
X135732857Y-83546457D01*
X135675714Y-83517885D01*
X135647142Y-83489314D01*
X135618571Y-83432171D01*
X135618571Y-83203600D01*
X136218571Y-83203600D01*
X136218571Y-83403600D01*
X136190000Y-83460742D01*
X136161428Y-83489314D01*
X136104285Y-83517885D01*
X136047142Y-83517885D01*
X135990000Y-83489314D01*
X135961428Y-83460742D01*
X135932857Y-83403600D01*
X135932857Y-83203600D01*
X135932857Y-84003600D02*
X135904285Y-84089314D01*
X135875714Y-84117885D01*
X135818571Y-84146457D01*
X135732857Y-84146457D01*
X135675714Y-84117885D01*
X135647142Y-84089314D01*
X135618571Y-84032171D01*
X135618571Y-83803600D01*
X136218571Y-83803600D01*
X136218571Y-84003600D01*
X136190000Y-84060742D01*
X136161428Y-84089314D01*
X136104285Y-84117885D01*
X136047142Y-84117885D01*
X135990000Y-84089314D01*
X135961428Y-84060742D01*
X135932857Y-84003600D01*
X135932857Y-83803600D01*
X135618571Y-85203600D02*
X135904285Y-85003600D01*
X135618571Y-84860742D02*
X136218571Y-84860742D01*
X136218571Y-85089314D01*
X136190000Y-85146457D01*
X136161428Y-85175028D01*
X136104285Y-85203600D01*
X136018571Y-85203600D01*
X135961428Y-85175028D01*
X135932857Y-85146457D01*
X135904285Y-85089314D01*
X135904285Y-84860742D01*
X135647142Y-85689314D02*
X135618571Y-85632171D01*
X135618571Y-85517885D01*
X135647142Y-85460742D01*
X135704285Y-85432171D01*
X135932857Y-85432171D01*
X135990000Y-85460742D01*
X136018571Y-85517885D01*
X136018571Y-85632171D01*
X135990000Y-85689314D01*
X135932857Y-85717885D01*
X135875714Y-85717885D01*
X135818571Y-85432171D01*
X136018571Y-85917885D02*
X135618571Y-86060742D01*
X136018571Y-86203600D01*
X136161428Y-86860742D02*
X136190000Y-86889314D01*
X136218571Y-86946457D01*
X136218571Y-87089314D01*
X136190000Y-87146457D01*
X136161428Y-87175028D01*
X136104285Y-87203600D01*
X136047142Y-87203600D01*
X135961428Y-87175028D01*
X135618571Y-86832171D01*
X135618571Y-87203600D01*
X136218571Y-87575028D02*
X136218571Y-87632171D01*
X136190000Y-87689314D01*
X136161428Y-87717885D01*
X136104285Y-87746457D01*
X135990000Y-87775028D01*
X135847142Y-87775028D01*
X135732857Y-87746457D01*
X135675714Y-87717885D01*
X135647142Y-87689314D01*
X135618571Y-87632171D01*
X135618571Y-87575028D01*
X135647142Y-87517885D01*
X135675714Y-87489314D01*
X135732857Y-87460742D01*
X135847142Y-87432171D01*
X135990000Y-87432171D01*
X136104285Y-87460742D01*
X136161428Y-87489314D01*
X136190000Y-87517885D01*
X136218571Y-87575028D01*
X135618571Y-88346457D02*
X135618571Y-88003600D01*
X135618571Y-88175028D02*
X136218571Y-88175028D01*
X136132857Y-88117885D01*
X136075714Y-88060742D01*
X136047142Y-88003600D01*
X135961428Y-88689314D02*
X135990000Y-88632171D01*
X136018571Y-88603600D01*
X136075714Y-88575028D01*
X136104285Y-88575028D01*
X136161428Y-88603600D01*
X136190000Y-88632171D01*
X136218571Y-88689314D01*
X136218571Y-88803600D01*
X136190000Y-88860742D01*
X136161428Y-88889314D01*
X136104285Y-88917885D01*
X136075714Y-88917885D01*
X136018571Y-88889314D01*
X135990000Y-88860742D01*
X135961428Y-88803600D01*
X135961428Y-88689314D01*
X135932857Y-88632171D01*
X135904285Y-88603600D01*
X135847142Y-88575028D01*
X135732857Y-88575028D01*
X135675714Y-88603600D01*
X135647142Y-88632171D01*
X135618571Y-88689314D01*
X135618571Y-88803600D01*
X135647142Y-88860742D01*
X135675714Y-88889314D01*
X135732857Y-88917885D01*
X135847142Y-88917885D01*
X135904285Y-88889314D01*
X135932857Y-88860742D01*
X135961428Y-88803600D01*
X135675714Y-89175028D02*
X135647142Y-89203600D01*
X135618571Y-89175028D01*
X135647142Y-89146457D01*
X135675714Y-89175028D01*
X135618571Y-89175028D01*
X136218571Y-89575028D02*
X136218571Y-89632171D01*
X136190000Y-89689314D01*
X136161428Y-89717885D01*
X136104285Y-89746457D01*
X135990000Y-89775028D01*
X135847142Y-89775028D01*
X135732857Y-89746457D01*
X135675714Y-89717885D01*
X135647142Y-89689314D01*
X135618571Y-89632171D01*
X135618571Y-89575028D01*
X135647142Y-89517885D01*
X135675714Y-89489314D01*
X135732857Y-89460742D01*
X135847142Y-89432171D01*
X135990000Y-89432171D01*
X136104285Y-89460742D01*
X136161428Y-89489314D01*
X136190000Y-89517885D01*
X136218571Y-89575028D01*
X135961428Y-90117885D02*
X135990000Y-90060742D01*
X136018571Y-90032171D01*
X136075714Y-90003600D01*
X136104285Y-90003600D01*
X136161428Y-90032171D01*
X136190000Y-90060742D01*
X136218571Y-90117885D01*
X136218571Y-90232171D01*
X136190000Y-90289314D01*
X136161428Y-90317885D01*
X136104285Y-90346457D01*
X136075714Y-90346457D01*
X136018571Y-90317885D01*
X135990000Y-90289314D01*
X135961428Y-90232171D01*
X135961428Y-90117885D01*
X135932857Y-90060742D01*
X135904285Y-90032171D01*
X135847142Y-90003600D01*
X135732857Y-90003600D01*
X135675714Y-90032171D01*
X135647142Y-90060742D01*
X135618571Y-90117885D01*
X135618571Y-90232171D01*
X135647142Y-90289314D01*
X135675714Y-90317885D01*
X135732857Y-90346457D01*
X135847142Y-90346457D01*
X135904285Y-90317885D01*
X135932857Y-90289314D01*
X135961428Y-90232171D01*
D11*
G04 #@! TO.C,J2*
X133300000Y-62220800D02*
X138500000Y-62220800D01*
X133300000Y-100440800D02*
X138500000Y-100440800D01*
X131860000Y-62790800D02*
X133300000Y-62790800D01*
X133300000Y-62220800D02*
X133300000Y-62790800D01*
X138500000Y-62220800D02*
X138500000Y-62790800D01*
X133300000Y-99870800D02*
X133300000Y-100440800D01*
X138500000Y-99870800D02*
X138500000Y-100440800D01*
X133300000Y-64310800D02*
X133300000Y-65330800D01*
X138500000Y-64310800D02*
X138500000Y-65330800D01*
X133300000Y-66850800D02*
X133300000Y-67870800D01*
X138500000Y-66850800D02*
X138500000Y-67870800D01*
X133300000Y-69390800D02*
X133300000Y-70410800D01*
X138500000Y-69390800D02*
X138500000Y-70410800D01*
X133300000Y-71930800D02*
X133300000Y-72950800D01*
X138500000Y-71930800D02*
X138500000Y-72950800D01*
X133300000Y-74470800D02*
X133300000Y-75490800D01*
X138500000Y-74470800D02*
X138500000Y-75490800D01*
X133300000Y-77010800D02*
X133300000Y-78030800D01*
X138500000Y-77010800D02*
X138500000Y-78030800D01*
X133300000Y-79550800D02*
X133300000Y-80570800D01*
X138500000Y-79550800D02*
X138500000Y-80570800D01*
X133300000Y-82090800D02*
X133300000Y-83110800D01*
X138500000Y-82090800D02*
X138500000Y-83110800D01*
X133300000Y-84630800D02*
X133300000Y-85650800D01*
X138500000Y-84630800D02*
X138500000Y-85650800D01*
X133300000Y-87170800D02*
X133300000Y-88190800D01*
X138500000Y-87170800D02*
X138500000Y-88190800D01*
X133300000Y-89710800D02*
X133300000Y-90730800D01*
X138500000Y-89710800D02*
X138500000Y-90730800D01*
X133300000Y-92250800D02*
X133300000Y-93270800D01*
X138500000Y-92250800D02*
X138500000Y-93270800D01*
X133300000Y-94790800D02*
X133300000Y-95810800D01*
X138500000Y-94790800D02*
X138500000Y-95810800D01*
X133300000Y-97330800D02*
X133300000Y-98350800D01*
X138500000Y-97330800D02*
X138500000Y-98350800D01*
G04 #@! TO.C,J1*
X129890000Y-62220800D02*
X131220000Y-62220800D01*
X129890000Y-63550800D02*
X129890000Y-62220800D01*
X129890000Y-64820800D02*
X132550000Y-64820800D01*
X132550000Y-64820800D02*
X132550000Y-100440800D01*
X129890000Y-64820800D02*
X129890000Y-100440800D01*
X129890000Y-100440800D02*
X132550000Y-100440800D01*
G04 #@! TO.C,J3*
X139250000Y-100440800D02*
X141910000Y-100440800D01*
X139250000Y-64820800D02*
X139250000Y-100440800D01*
X141910000Y-64820800D02*
X141910000Y-100440800D01*
X139250000Y-64820800D02*
X141910000Y-64820800D01*
X139250000Y-63550800D02*
X139250000Y-62220800D01*
X139250000Y-62220800D02*
X140580000Y-62220800D01*
G04 #@! TD*
M02*
