G04 #@! TF.GenerationSoftware,KiCad,Pcbnew,5.0.0-rc3-6a2723a~65~ubuntu17.10.1*
G04 #@! TF.CreationDate,2018-07-07T11:56:26+09:00*
G04 #@! TF.ProjectId,spacer_pcb,7370616365725F7063622E6B69636164,rev?*
G04 #@! TF.SameCoordinates,Original*
G04 #@! TF.FileFunction,Legend,Top*
G04 #@! TF.FilePolarity,Positive*
%FSLAX46Y46*%
G04 Gerber Fmt 4.6, Leading zero omitted, Abs format (unit mm)*
G04 Created by KiCad (PCBNEW 5.0.0-rc3-6a2723a~65~ubuntu17.10.1) date Sat Jul  7 11:56:26 2018*
%MOMM*%
%LPD*%
G01*
G04 APERTURE LIST*
%ADD10C,0.150000*%
%ADD11C,0.120000*%
G04 APERTURE END LIST*
D10*
X135647142Y-62874114D02*
X135618571Y-62931257D01*
X135618571Y-63045542D01*
X135647142Y-63102685D01*
X135704285Y-63131257D01*
X135732857Y-63131257D01*
X135790000Y-63102685D01*
X135818571Y-63045542D01*
X135818571Y-62959828D01*
X135847142Y-62902685D01*
X135904285Y-62874114D01*
X135932857Y-62874114D01*
X135990000Y-62902685D01*
X136018571Y-62959828D01*
X136018571Y-63045542D01*
X135990000Y-63102685D01*
X136018571Y-63388400D02*
X135418571Y-63388400D01*
X135990000Y-63388400D02*
X136018571Y-63445542D01*
X136018571Y-63559828D01*
X135990000Y-63616971D01*
X135961428Y-63645542D01*
X135904285Y-63674114D01*
X135732857Y-63674114D01*
X135675714Y-63645542D01*
X135647142Y-63616971D01*
X135618571Y-63559828D01*
X135618571Y-63445542D01*
X135647142Y-63388400D01*
X135618571Y-64188400D02*
X135932857Y-64188400D01*
X135990000Y-64159828D01*
X136018571Y-64102685D01*
X136018571Y-63988400D01*
X135990000Y-63931257D01*
X135647142Y-64188400D02*
X135618571Y-64131257D01*
X135618571Y-63988400D01*
X135647142Y-63931257D01*
X135704285Y-63902685D01*
X135761428Y-63902685D01*
X135818571Y-63931257D01*
X135847142Y-63988400D01*
X135847142Y-64131257D01*
X135875714Y-64188400D01*
X135647142Y-64731257D02*
X135618571Y-64674114D01*
X135618571Y-64559828D01*
X135647142Y-64502685D01*
X135675714Y-64474114D01*
X135732857Y-64445542D01*
X135904285Y-64445542D01*
X135961428Y-64474114D01*
X135990000Y-64502685D01*
X136018571Y-64559828D01*
X136018571Y-64674114D01*
X135990000Y-64731257D01*
X135647142Y-65216971D02*
X135618571Y-65159828D01*
X135618571Y-65045542D01*
X135647142Y-64988400D01*
X135704285Y-64959828D01*
X135932857Y-64959828D01*
X135990000Y-64988400D01*
X136018571Y-65045542D01*
X136018571Y-65159828D01*
X135990000Y-65216971D01*
X135932857Y-65245542D01*
X135875714Y-65245542D01*
X135818571Y-64959828D01*
X135618571Y-65502685D02*
X136018571Y-65502685D01*
X135904285Y-65502685D02*
X135961428Y-65531257D01*
X135990000Y-65559828D01*
X136018571Y-65616971D01*
X136018571Y-65674114D01*
X135618571Y-66674114D02*
X135904285Y-66474114D01*
X135618571Y-66331257D02*
X136218571Y-66331257D01*
X136218571Y-66559828D01*
X136190000Y-66616971D01*
X136161428Y-66645542D01*
X136104285Y-66674114D01*
X136018571Y-66674114D01*
X135961428Y-66645542D01*
X135932857Y-66616971D01*
X135904285Y-66559828D01*
X135904285Y-66331257D01*
X135932857Y-66931257D02*
X135932857Y-67131257D01*
X135618571Y-67216971D02*
X135618571Y-66931257D01*
X136218571Y-66931257D01*
X136218571Y-67216971D01*
X136218571Y-67388400D02*
X135618571Y-67588400D01*
X136218571Y-67788400D01*
X135618571Y-68302685D02*
X135618571Y-67959828D01*
X135618571Y-68131257D02*
X136218571Y-68131257D01*
X136132857Y-68074114D01*
X136075714Y-68016971D01*
X136047142Y-67959828D01*
X135675714Y-68559828D02*
X135647142Y-68588400D01*
X135618571Y-68559828D01*
X135647142Y-68531257D01*
X135675714Y-68559828D01*
X135618571Y-68559828D01*
X136218571Y-68959828D02*
X136218571Y-69016971D01*
X136190000Y-69074114D01*
X136161428Y-69102685D01*
X136104285Y-69131257D01*
X135990000Y-69159828D01*
X135847142Y-69159828D01*
X135732857Y-69131257D01*
X135675714Y-69102685D01*
X135647142Y-69074114D01*
X135618571Y-69016971D01*
X135618571Y-68959828D01*
X135647142Y-68902685D01*
X135675714Y-68874114D01*
X135732857Y-68845542D01*
X135847142Y-68816971D01*
X135990000Y-68816971D01*
X136104285Y-68845542D01*
X136161428Y-68874114D01*
X136190000Y-68902685D01*
X136218571Y-68959828D01*
X136018571Y-69788400D02*
X136018571Y-70016971D01*
X135618571Y-69874114D02*
X136132857Y-69874114D01*
X136190000Y-69902685D01*
X136218571Y-69959828D01*
X136218571Y-70016971D01*
X135618571Y-70302685D02*
X135647142Y-70245542D01*
X135675714Y-70216971D01*
X135732857Y-70188400D01*
X135904285Y-70188400D01*
X135961428Y-70216971D01*
X135990000Y-70245542D01*
X136018571Y-70302685D01*
X136018571Y-70388400D01*
X135990000Y-70445542D01*
X135961428Y-70474114D01*
X135904285Y-70502685D01*
X135732857Y-70502685D01*
X135675714Y-70474114D01*
X135647142Y-70445542D01*
X135618571Y-70388400D01*
X135618571Y-70302685D01*
X135618571Y-70759828D02*
X136018571Y-70759828D01*
X135904285Y-70759828D02*
X135961428Y-70788400D01*
X135990000Y-70816971D01*
X136018571Y-70874114D01*
X136018571Y-70931257D01*
X135618571Y-71588400D02*
X136218571Y-71588400D01*
X135790000Y-71788400D01*
X136218571Y-71988400D01*
X135618571Y-71988400D01*
X136218571Y-72559828D02*
X136218571Y-72274114D01*
X135932857Y-72245542D01*
X135961428Y-72274114D01*
X135990000Y-72331257D01*
X135990000Y-72474114D01*
X135961428Y-72531257D01*
X135932857Y-72559828D01*
X135875714Y-72588400D01*
X135732857Y-72588400D01*
X135675714Y-72559828D01*
X135647142Y-72531257D01*
X135618571Y-72474114D01*
X135618571Y-72331257D01*
X135647142Y-72274114D01*
X135675714Y-72245542D01*
X135647142Y-72816971D02*
X135618571Y-72902685D01*
X135618571Y-73045542D01*
X135647142Y-73102685D01*
X135675714Y-73131257D01*
X135732857Y-73159828D01*
X135790000Y-73159828D01*
X135847142Y-73131257D01*
X135875714Y-73102685D01*
X135904285Y-73045542D01*
X135932857Y-72931257D01*
X135961428Y-72874114D01*
X135990000Y-72845542D01*
X136047142Y-72816971D01*
X136104285Y-72816971D01*
X136161428Y-72845542D01*
X136190000Y-72874114D01*
X136218571Y-72931257D01*
X136218571Y-73074114D01*
X136190000Y-73159828D01*
X136018571Y-73331257D02*
X136018571Y-73559828D01*
X136218571Y-73416971D02*
X135704285Y-73416971D01*
X135647142Y-73445542D01*
X135618571Y-73502685D01*
X135618571Y-73559828D01*
X135618571Y-74016971D02*
X135932857Y-74016971D01*
X135990000Y-73988400D01*
X136018571Y-73931257D01*
X136018571Y-73816971D01*
X135990000Y-73759828D01*
X135647142Y-74016971D02*
X135618571Y-73959828D01*
X135618571Y-73816971D01*
X135647142Y-73759828D01*
X135704285Y-73731257D01*
X135761428Y-73731257D01*
X135818571Y-73759828D01*
X135847142Y-73816971D01*
X135847142Y-73959828D01*
X135875714Y-74016971D01*
X135647142Y-74559828D02*
X135618571Y-74502685D01*
X135618571Y-74388400D01*
X135647142Y-74331257D01*
X135675714Y-74302685D01*
X135732857Y-74274114D01*
X135904285Y-74274114D01*
X135961428Y-74302685D01*
X135990000Y-74331257D01*
X136018571Y-74388400D01*
X136018571Y-74502685D01*
X135990000Y-74559828D01*
X135618571Y-74816971D02*
X136218571Y-74816971D01*
X135847142Y-74874114D02*
X135618571Y-75045542D01*
X136018571Y-75045542D02*
X135790000Y-74816971D01*
X135647142Y-75274114D02*
X135618571Y-75359828D01*
X135618571Y-75502685D01*
X135647142Y-75559828D01*
X135675714Y-75588400D01*
X135732857Y-75616971D01*
X135790000Y-75616971D01*
X135847142Y-75588400D01*
X135875714Y-75559828D01*
X135904285Y-75502685D01*
X135932857Y-75388400D01*
X135961428Y-75331257D01*
X135990000Y-75302685D01*
X136047142Y-75274114D01*
X136104285Y-75274114D01*
X136161428Y-75302685D01*
X136190000Y-75331257D01*
X136218571Y-75388400D01*
X136218571Y-75531257D01*
X136190000Y-75616971D01*
X135618571Y-75874114D02*
X136018571Y-75874114D01*
X136218571Y-75874114D02*
X136190000Y-75845542D01*
X136161428Y-75874114D01*
X136190000Y-75902685D01*
X136218571Y-75874114D01*
X136161428Y-75874114D01*
X135618571Y-76416971D02*
X136218571Y-76416971D01*
X135647142Y-76416971D02*
X135618571Y-76359828D01*
X135618571Y-76245542D01*
X135647142Y-76188400D01*
X135675714Y-76159828D01*
X135732857Y-76131257D01*
X135904285Y-76131257D01*
X135961428Y-76159828D01*
X135990000Y-76188400D01*
X136018571Y-76245542D01*
X136018571Y-76359828D01*
X135990000Y-76416971D01*
X135647142Y-76931257D02*
X135618571Y-76874114D01*
X135618571Y-76759828D01*
X135647142Y-76702685D01*
X135704285Y-76674114D01*
X135932857Y-76674114D01*
X135990000Y-76702685D01*
X136018571Y-76759828D01*
X136018571Y-76874114D01*
X135990000Y-76931257D01*
X135932857Y-76959828D01*
X135875714Y-76959828D01*
X135818571Y-76674114D01*
X135932857Y-77416971D02*
X135904285Y-77502685D01*
X135875714Y-77531257D01*
X135818571Y-77559828D01*
X135732857Y-77559828D01*
X135675714Y-77531257D01*
X135647142Y-77502685D01*
X135618571Y-77445542D01*
X135618571Y-77216971D01*
X136218571Y-77216971D01*
X136218571Y-77416971D01*
X136190000Y-77474114D01*
X136161428Y-77502685D01*
X136104285Y-77531257D01*
X136047142Y-77531257D01*
X135990000Y-77502685D01*
X135961428Y-77474114D01*
X135932857Y-77416971D01*
X135932857Y-77216971D01*
X135932857Y-78016971D02*
X135904285Y-78102685D01*
X135875714Y-78131257D01*
X135818571Y-78159828D01*
X135732857Y-78159828D01*
X135675714Y-78131257D01*
X135647142Y-78102685D01*
X135618571Y-78045542D01*
X135618571Y-77816971D01*
X136218571Y-77816971D01*
X136218571Y-78016971D01*
X136190000Y-78074114D01*
X136161428Y-78102685D01*
X136104285Y-78131257D01*
X136047142Y-78131257D01*
X135990000Y-78102685D01*
X135961428Y-78074114D01*
X135932857Y-78016971D01*
X135932857Y-77816971D01*
X135618571Y-79216971D02*
X135904285Y-79016971D01*
X135618571Y-78874114D02*
X136218571Y-78874114D01*
X136218571Y-79102685D01*
X136190000Y-79159828D01*
X136161428Y-79188400D01*
X136104285Y-79216971D01*
X136018571Y-79216971D01*
X135961428Y-79188400D01*
X135932857Y-79159828D01*
X135904285Y-79102685D01*
X135904285Y-78874114D01*
X135932857Y-79474114D02*
X135932857Y-79674114D01*
X135618571Y-79759828D02*
X135618571Y-79474114D01*
X136218571Y-79474114D01*
X136218571Y-79759828D01*
X136218571Y-79931257D02*
X135618571Y-80131257D01*
X136218571Y-80331257D01*
X135618571Y-80845542D02*
X135618571Y-80502685D01*
X135618571Y-80674114D02*
X136218571Y-80674114D01*
X136132857Y-80616971D01*
X136075714Y-80559828D01*
X136047142Y-80502685D01*
X135675714Y-81102685D02*
X135647142Y-81131257D01*
X135618571Y-81102685D01*
X135647142Y-81074114D01*
X135675714Y-81102685D01*
X135618571Y-81102685D01*
X135618571Y-81702685D02*
X135618571Y-81359828D01*
X135618571Y-81531257D02*
X136218571Y-81531257D01*
X136132857Y-81474114D01*
X136075714Y-81416971D01*
X136047142Y-81359828D01*
D11*
G04 #@! TO.C,J1*
X129890000Y-62220800D02*
X131220000Y-62220800D01*
X129890000Y-63550800D02*
X129890000Y-62220800D01*
X129890000Y-64820800D02*
X132550000Y-64820800D01*
X132550000Y-64820800D02*
X132550000Y-100440800D01*
X129890000Y-64820800D02*
X129890000Y-100440800D01*
X129890000Y-100440800D02*
X132550000Y-100440800D01*
G04 #@! TO.C,J2*
X133300000Y-62220800D02*
X138500000Y-62220800D01*
X133300000Y-100440800D02*
X138500000Y-100440800D01*
X131860000Y-62790800D02*
X133300000Y-62790800D01*
X133300000Y-62220800D02*
X133300000Y-62790800D01*
X138500000Y-62220800D02*
X138500000Y-62790800D01*
X133300000Y-99870800D02*
X133300000Y-100440800D01*
X138500000Y-99870800D02*
X138500000Y-100440800D01*
X133300000Y-64310800D02*
X133300000Y-65330800D01*
X138500000Y-64310800D02*
X138500000Y-65330800D01*
X133300000Y-66850800D02*
X133300000Y-67870800D01*
X138500000Y-66850800D02*
X138500000Y-67870800D01*
X133300000Y-69390800D02*
X133300000Y-70410800D01*
X138500000Y-69390800D02*
X138500000Y-70410800D01*
X133300000Y-71930800D02*
X133300000Y-72950800D01*
X138500000Y-71930800D02*
X138500000Y-72950800D01*
X133300000Y-74470800D02*
X133300000Y-75490800D01*
X138500000Y-74470800D02*
X138500000Y-75490800D01*
X133300000Y-77010800D02*
X133300000Y-78030800D01*
X138500000Y-77010800D02*
X138500000Y-78030800D01*
X133300000Y-79550800D02*
X133300000Y-80570800D01*
X138500000Y-79550800D02*
X138500000Y-80570800D01*
X133300000Y-82090800D02*
X133300000Y-83110800D01*
X138500000Y-82090800D02*
X138500000Y-83110800D01*
X133300000Y-84630800D02*
X133300000Y-85650800D01*
X138500000Y-84630800D02*
X138500000Y-85650800D01*
X133300000Y-87170800D02*
X133300000Y-88190800D01*
X138500000Y-87170800D02*
X138500000Y-88190800D01*
X133300000Y-89710800D02*
X133300000Y-90730800D01*
X138500000Y-89710800D02*
X138500000Y-90730800D01*
X133300000Y-92250800D02*
X133300000Y-93270800D01*
X138500000Y-92250800D02*
X138500000Y-93270800D01*
X133300000Y-94790800D02*
X133300000Y-95810800D01*
X138500000Y-94790800D02*
X138500000Y-95810800D01*
X133300000Y-97330800D02*
X133300000Y-98350800D01*
X138500000Y-97330800D02*
X138500000Y-98350800D01*
G04 #@! TO.C,J3*
X139250000Y-100440800D02*
X141910000Y-100440800D01*
X139250000Y-64820800D02*
X139250000Y-100440800D01*
X141910000Y-64820800D02*
X141910000Y-100440800D01*
X139250000Y-64820800D02*
X141910000Y-64820800D01*
X139250000Y-63550800D02*
X139250000Y-62220800D01*
X139250000Y-62220800D02*
X140580000Y-62220800D01*
G04 #@! TD*
M02*
