M48
;DRILL file {KiCad 5.0.1-33cea8e~68~ubuntu18.04.1} date 2018年10月29日 17時39分47秒
;FORMAT={-:-/ absolute / inch / decimal}
FMAT,2
INCH,TZ
T1C0.0394
%
G90
G05
M72
T1
X5.5346Y-2.502
X5.5346Y-2.602
X5.5346Y-2.702
X5.5346Y-2.802
X5.5346Y-2.902
X5.5346Y-3.002
X5.5346Y-3.102
X5.5346Y-3.202
X5.5346Y-3.302
X5.5346Y-3.402
X5.5346Y-3.502
X5.5346Y-3.602
X5.5346Y-3.702
X5.5346Y-3.802
X5.5346Y-3.902
X5.1661Y-2.502
X5.1661Y-2.602
X5.1661Y-2.702
X5.1661Y-2.802
X5.1661Y-2.902
X5.1661Y-3.002
X5.1661Y-3.102
X5.1661Y-3.202
X5.1661Y-3.302
X5.1661Y-3.402
X5.1661Y-3.502
X5.1661Y-3.602
X5.1661Y-3.702
X5.1661Y-3.802
X5.1661Y-3.902
T0
M30
