M48
;DRILL file {KiCad 5.0.2-bee76a0~70~ubuntu18.04.1} date 2019年05月05日 14時28分17秒
;FORMAT={-:-/ absolute / metric / decimal}
FMAT,2
METRIC,TZ
T1C1.000
%
G90
G05
T1
X117.565Y-60.452
X117.565Y-62.992
X117.565Y-65.532
X117.565Y-68.052
X117.565Y-70.612
X117.565Y-73.152
X117.565Y-75.692
X117.565Y-78.242
X117.565Y-80.772
X117.565Y-83.312
X117.565Y-85.852
X117.565Y-88.392
X117.565Y-90.932
X117.565Y-93.472
X117.565Y-96.012
X126.325Y-60.452
X126.325Y-62.992
X126.325Y-65.532
X126.325Y-68.072
X126.325Y-70.612
X126.325Y-73.152
X126.325Y-75.682
X126.325Y-78.242
X126.325Y-80.772
X126.325Y-83.312
X126.325Y-85.852
X126.325Y-88.392
X126.325Y-90.932
X126.325Y-93.472
X126.325Y-96.012
T0
M30
