M48
METRIC,TZ
T1C1.000
%
G90
G05
T1
X140580Y-63551
X140580Y-66091
X140580Y-68631
X140580Y-71171
X140580Y-73711
X140580Y-76251
X140580Y-78791
X140580Y-81331
X140580Y-83871
X140580Y-86411
X140580Y-88951
X140580Y-91491
X140580Y-94031
X140580Y-96571
X140580Y-99111
X131220Y-63551
X131220Y-66091
X131220Y-68631
X131220Y-71171
X131220Y-73711
X131220Y-76251
X131220Y-78791
X131220Y-81331
X131220Y-83871
X131220Y-86411
X131220Y-88951
X131220Y-91491
X131220Y-94031
X131220Y-96571
X131220Y-99111
T0
M30
