G04 #@! TF.GenerationSoftware,KiCad,Pcbnew,5.0.2-bee76a0~70~ubuntu18.04.1*
G04 #@! TF.CreationDate,2019-05-05T14:28:11+09:00*
G04 #@! TF.ProjectId,spacer_pcb,73706163-6572-45f7-9063-622e6b696361,rev?*
G04 #@! TF.SameCoordinates,Original*
G04 #@! TF.FileFunction,Soldermask,Top*
G04 #@! TF.FilePolarity,Negative*
%FSLAX46Y46*%
G04 Gerber Fmt 4.6, Leading zero omitted, Abs format (unit mm)*
G04 Created by KiCad (PCBNEW 5.0.2-bee76a0~70~ubuntu18.04.1) date 2019年05月05日 14時28分11秒*
%MOMM*%
%LPD*%
G01*
G04 APERTURE LIST*
%ADD10C,0.100000*%
G04 APERTURE END LIST*
D10*
G36*
X126471718Y-95276411D02*
X126544167Y-95290822D01*
X126589496Y-95309598D01*
X126680657Y-95347358D01*
X126803500Y-95429439D01*
X126907961Y-95533900D01*
X126990042Y-95656743D01*
X127046578Y-95793234D01*
X127075400Y-95938130D01*
X127075400Y-96085870D01*
X127046578Y-96230766D01*
X126990042Y-96367257D01*
X126907961Y-96490100D01*
X126803500Y-96594561D01*
X126680657Y-96676642D01*
X126600703Y-96709760D01*
X126544167Y-96733178D01*
X126471718Y-96747589D01*
X126399270Y-96762000D01*
X126251530Y-96762000D01*
X126106633Y-96733178D01*
X126078476Y-96721515D01*
X126055027Y-96714402D01*
X126030641Y-96712000D01*
X122695400Y-96712000D01*
X122695400Y-95312000D01*
X126030641Y-95312000D01*
X126055027Y-95309598D01*
X126078476Y-95302485D01*
X126106633Y-95290822D01*
X126251530Y-95262000D01*
X126399270Y-95262000D01*
X126471718Y-95276411D01*
X126471718Y-95276411D01*
G37*
G36*
X117784167Y-95290822D02*
X117812324Y-95302485D01*
X117835773Y-95309598D01*
X117860159Y-95312000D01*
X121195400Y-95312000D01*
X121195400Y-96712000D01*
X117860159Y-96712000D01*
X117835773Y-96714402D01*
X117812324Y-96721515D01*
X117784167Y-96733178D01*
X117639270Y-96762000D01*
X117491530Y-96762000D01*
X117419082Y-96747589D01*
X117346633Y-96733178D01*
X117290097Y-96709760D01*
X117210143Y-96676642D01*
X117087300Y-96594561D01*
X116982839Y-96490100D01*
X116900758Y-96367257D01*
X116844222Y-96230766D01*
X116815400Y-96085870D01*
X116815400Y-95938130D01*
X116844222Y-95793234D01*
X116900758Y-95656743D01*
X116982839Y-95533900D01*
X117087300Y-95429439D01*
X117210143Y-95347358D01*
X117301304Y-95309598D01*
X117346633Y-95290822D01*
X117419082Y-95276411D01*
X117491530Y-95262000D01*
X117639270Y-95262000D01*
X117784167Y-95290822D01*
X117784167Y-95290822D01*
G37*
G36*
X117784167Y-92750822D02*
X117812324Y-92762485D01*
X117835773Y-92769598D01*
X117860159Y-92772000D01*
X121195400Y-92772000D01*
X121195400Y-94172000D01*
X117860159Y-94172000D01*
X117835773Y-94174402D01*
X117812324Y-94181515D01*
X117784167Y-94193178D01*
X117639270Y-94222000D01*
X117491530Y-94222000D01*
X117419082Y-94207589D01*
X117346633Y-94193178D01*
X117290097Y-94169760D01*
X117210143Y-94136642D01*
X117087300Y-94054561D01*
X116982839Y-93950100D01*
X116900758Y-93827257D01*
X116844222Y-93690766D01*
X116815400Y-93545870D01*
X116815400Y-93398130D01*
X116844222Y-93253234D01*
X116900758Y-93116743D01*
X116982839Y-92993900D01*
X117087300Y-92889439D01*
X117210143Y-92807358D01*
X117301304Y-92769598D01*
X117346633Y-92750822D01*
X117419082Y-92736411D01*
X117491530Y-92722000D01*
X117639270Y-92722000D01*
X117784167Y-92750822D01*
X117784167Y-92750822D01*
G37*
G36*
X126471718Y-92736411D02*
X126544167Y-92750822D01*
X126589496Y-92769598D01*
X126680657Y-92807358D01*
X126803500Y-92889439D01*
X126907961Y-92993900D01*
X126990042Y-93116743D01*
X127046578Y-93253234D01*
X127075400Y-93398130D01*
X127075400Y-93545870D01*
X127046578Y-93690766D01*
X126990042Y-93827257D01*
X126907961Y-93950100D01*
X126803500Y-94054561D01*
X126680657Y-94136642D01*
X126600703Y-94169760D01*
X126544167Y-94193178D01*
X126471718Y-94207589D01*
X126399270Y-94222000D01*
X126251530Y-94222000D01*
X126106633Y-94193178D01*
X126078476Y-94181515D01*
X126055027Y-94174402D01*
X126030641Y-94172000D01*
X122695400Y-94172000D01*
X122695400Y-92772000D01*
X126030641Y-92772000D01*
X126055027Y-92769598D01*
X126078476Y-92762485D01*
X126106633Y-92750822D01*
X126251530Y-92722000D01*
X126399270Y-92722000D01*
X126471718Y-92736411D01*
X126471718Y-92736411D01*
G37*
G36*
X122093138Y-91568653D02*
X122134998Y-91576979D01*
X122169645Y-91591330D01*
X122253290Y-91625977D01*
X122359754Y-91697114D01*
X122450286Y-91787646D01*
X122466466Y-91811861D01*
X122472056Y-91818673D01*
X122476211Y-91826446D01*
X122521423Y-91894111D01*
X122570421Y-92012403D01*
X122595400Y-92137979D01*
X122595400Y-92266021D01*
X122570421Y-92391597D01*
X122521423Y-92509889D01*
X122476211Y-92577554D01*
X122472056Y-92585328D01*
X122466466Y-92592139D01*
X122450286Y-92616354D01*
X122359754Y-92706886D01*
X122253290Y-92778023D01*
X122169645Y-92812670D01*
X122134998Y-92827021D01*
X122093138Y-92835347D01*
X122009421Y-92852000D01*
X121881379Y-92852000D01*
X121797662Y-92835347D01*
X121755802Y-92827021D01*
X121721155Y-92812670D01*
X121637510Y-92778023D01*
X121531046Y-92706886D01*
X121440514Y-92616354D01*
X121424334Y-92592139D01*
X121418744Y-92585327D01*
X121414589Y-92577554D01*
X121369377Y-92509889D01*
X121320379Y-92391597D01*
X121295400Y-92266021D01*
X121295400Y-92137979D01*
X121320379Y-92012403D01*
X121369377Y-91894111D01*
X121414589Y-91826446D01*
X121418744Y-91818672D01*
X121424334Y-91811861D01*
X121440514Y-91787646D01*
X121531046Y-91697114D01*
X121637510Y-91625977D01*
X121721155Y-91591330D01*
X121755802Y-91576979D01*
X121797662Y-91568653D01*
X121881379Y-91552000D01*
X122009421Y-91552000D01*
X122093138Y-91568653D01*
X122093138Y-91568653D01*
G37*
G36*
X126471718Y-90196411D02*
X126544167Y-90210822D01*
X126589496Y-90229598D01*
X126680657Y-90267358D01*
X126803500Y-90349439D01*
X126907961Y-90453900D01*
X126990042Y-90576743D01*
X127046578Y-90713234D01*
X127075400Y-90858130D01*
X127075400Y-91005870D01*
X127046578Y-91150766D01*
X126990042Y-91287257D01*
X126907961Y-91410100D01*
X126803500Y-91514561D01*
X126680657Y-91596642D01*
X126609833Y-91625978D01*
X126544167Y-91653178D01*
X126471718Y-91667589D01*
X126399270Y-91682000D01*
X126251530Y-91682000D01*
X126106633Y-91653178D01*
X126078476Y-91641515D01*
X126055027Y-91634402D01*
X126030641Y-91632000D01*
X122695400Y-91632000D01*
X122695400Y-90232000D01*
X126030641Y-90232000D01*
X126055027Y-90229598D01*
X126078476Y-90222485D01*
X126106633Y-90210822D01*
X126251530Y-90182000D01*
X126399270Y-90182000D01*
X126471718Y-90196411D01*
X126471718Y-90196411D01*
G37*
G36*
X117784167Y-90210822D02*
X117812324Y-90222485D01*
X117835773Y-90229598D01*
X117860159Y-90232000D01*
X121195400Y-90232000D01*
X121195400Y-91632000D01*
X117860159Y-91632000D01*
X117835773Y-91634402D01*
X117812324Y-91641515D01*
X117784167Y-91653178D01*
X117639270Y-91682000D01*
X117491530Y-91682000D01*
X117419082Y-91667589D01*
X117346633Y-91653178D01*
X117280967Y-91625978D01*
X117210143Y-91596642D01*
X117087300Y-91514561D01*
X116982839Y-91410100D01*
X116900758Y-91287257D01*
X116844222Y-91150766D01*
X116815400Y-91005870D01*
X116815400Y-90858130D01*
X116844222Y-90713234D01*
X116900758Y-90576743D01*
X116982839Y-90453900D01*
X117087300Y-90349439D01*
X117210143Y-90267358D01*
X117301304Y-90229598D01*
X117346633Y-90210822D01*
X117419082Y-90196411D01*
X117491530Y-90182000D01*
X117639270Y-90182000D01*
X117784167Y-90210822D01*
X117784167Y-90210822D01*
G37*
G36*
X126471718Y-87656411D02*
X126544167Y-87670822D01*
X126589496Y-87689598D01*
X126680657Y-87727358D01*
X126803500Y-87809439D01*
X126907961Y-87913900D01*
X126990042Y-88036743D01*
X127046578Y-88173234D01*
X127075400Y-88318130D01*
X127075400Y-88465870D01*
X127046578Y-88610766D01*
X126990042Y-88747257D01*
X126907961Y-88870100D01*
X126803500Y-88974561D01*
X126680657Y-89056642D01*
X126600703Y-89089760D01*
X126544167Y-89113178D01*
X126471718Y-89127589D01*
X126399270Y-89142000D01*
X126251530Y-89142000D01*
X126106633Y-89113178D01*
X126078476Y-89101515D01*
X126055027Y-89094402D01*
X126030641Y-89092000D01*
X122695400Y-89092000D01*
X122695400Y-87692000D01*
X126030641Y-87692000D01*
X126055027Y-87689598D01*
X126078476Y-87682485D01*
X126106633Y-87670822D01*
X126251530Y-87642000D01*
X126399270Y-87642000D01*
X126471718Y-87656411D01*
X126471718Y-87656411D01*
G37*
G36*
X117784167Y-87670822D02*
X117812324Y-87682485D01*
X117835773Y-87689598D01*
X117860159Y-87692000D01*
X121195400Y-87692000D01*
X121195400Y-89092000D01*
X117860159Y-89092000D01*
X117835773Y-89094402D01*
X117812324Y-89101515D01*
X117784167Y-89113178D01*
X117639270Y-89142000D01*
X117491530Y-89142000D01*
X117419082Y-89127589D01*
X117346633Y-89113178D01*
X117290097Y-89089760D01*
X117210143Y-89056642D01*
X117087300Y-88974561D01*
X116982839Y-88870100D01*
X116900758Y-88747257D01*
X116844222Y-88610766D01*
X116815400Y-88465870D01*
X116815400Y-88318130D01*
X116844222Y-88173234D01*
X116900758Y-88036743D01*
X116982839Y-87913900D01*
X117087300Y-87809439D01*
X117210143Y-87727358D01*
X117301304Y-87689598D01*
X117346633Y-87670822D01*
X117419082Y-87656411D01*
X117491530Y-87642000D01*
X117639270Y-87642000D01*
X117784167Y-87670822D01*
X117784167Y-87670822D01*
G37*
G36*
X117784167Y-85130822D02*
X117812324Y-85142485D01*
X117835773Y-85149598D01*
X117860159Y-85152000D01*
X121195400Y-85152000D01*
X121195400Y-86552000D01*
X117860159Y-86552000D01*
X117835773Y-86554402D01*
X117812324Y-86561515D01*
X117784167Y-86573178D01*
X117639270Y-86602000D01*
X117491530Y-86602000D01*
X117419082Y-86587589D01*
X117346633Y-86573178D01*
X117290097Y-86549760D01*
X117210143Y-86516642D01*
X117087300Y-86434561D01*
X116982839Y-86330100D01*
X116900758Y-86207257D01*
X116844222Y-86070766D01*
X116815400Y-85925870D01*
X116815400Y-85778130D01*
X116844222Y-85633234D01*
X116900758Y-85496743D01*
X116982839Y-85373900D01*
X117087300Y-85269439D01*
X117210143Y-85187358D01*
X117301304Y-85149598D01*
X117346633Y-85130822D01*
X117419082Y-85116411D01*
X117491530Y-85102000D01*
X117639270Y-85102000D01*
X117784167Y-85130822D01*
X117784167Y-85130822D01*
G37*
G36*
X126471718Y-85116411D02*
X126544167Y-85130822D01*
X126589496Y-85149598D01*
X126680657Y-85187358D01*
X126803500Y-85269439D01*
X126907961Y-85373900D01*
X126990042Y-85496743D01*
X127046578Y-85633234D01*
X127075400Y-85778130D01*
X127075400Y-85925870D01*
X127046578Y-86070766D01*
X126990042Y-86207257D01*
X126907961Y-86330100D01*
X126803500Y-86434561D01*
X126680657Y-86516642D01*
X126600703Y-86549760D01*
X126544167Y-86573178D01*
X126471718Y-86587589D01*
X126399270Y-86602000D01*
X126251530Y-86602000D01*
X126106633Y-86573178D01*
X126078476Y-86561515D01*
X126055027Y-86554402D01*
X126030641Y-86552000D01*
X122695400Y-86552000D01*
X122695400Y-85152000D01*
X126030641Y-85152000D01*
X126055027Y-85149598D01*
X126078476Y-85142485D01*
X126106633Y-85130822D01*
X126251530Y-85102000D01*
X126399270Y-85102000D01*
X126471718Y-85116411D01*
X126471718Y-85116411D01*
G37*
G36*
X117784167Y-82590822D02*
X117812324Y-82602485D01*
X117835773Y-82609598D01*
X117860159Y-82612000D01*
X121195400Y-82612000D01*
X121195400Y-84012000D01*
X117860159Y-84012000D01*
X117835773Y-84014402D01*
X117812324Y-84021515D01*
X117784167Y-84033178D01*
X117639270Y-84062000D01*
X117491530Y-84062000D01*
X117419082Y-84047589D01*
X117346633Y-84033178D01*
X117290097Y-84009760D01*
X117210143Y-83976642D01*
X117087300Y-83894561D01*
X116982839Y-83790100D01*
X116900758Y-83667257D01*
X116844222Y-83530766D01*
X116815400Y-83385870D01*
X116815400Y-83238130D01*
X116844222Y-83093234D01*
X116900758Y-82956743D01*
X116982839Y-82833900D01*
X117087300Y-82729439D01*
X117210143Y-82647358D01*
X117301304Y-82609598D01*
X117346633Y-82590822D01*
X117419082Y-82576411D01*
X117491530Y-82562000D01*
X117639270Y-82562000D01*
X117784167Y-82590822D01*
X117784167Y-82590822D01*
G37*
G36*
X126471718Y-82576411D02*
X126544167Y-82590822D01*
X126589496Y-82609598D01*
X126680657Y-82647358D01*
X126803500Y-82729439D01*
X126907961Y-82833900D01*
X126990042Y-82956743D01*
X127046578Y-83093234D01*
X127075400Y-83238130D01*
X127075400Y-83385870D01*
X127046578Y-83530766D01*
X126990042Y-83667257D01*
X126907961Y-83790100D01*
X126803500Y-83894561D01*
X126680657Y-83976642D01*
X126600703Y-84009760D01*
X126544167Y-84033178D01*
X126471718Y-84047589D01*
X126399270Y-84062000D01*
X126251530Y-84062000D01*
X126106633Y-84033178D01*
X126078476Y-84021515D01*
X126055027Y-84014402D01*
X126030641Y-84012000D01*
X122695400Y-84012000D01*
X122695400Y-82612000D01*
X126030641Y-82612000D01*
X126055027Y-82609598D01*
X126078476Y-82602485D01*
X126106633Y-82590822D01*
X126251530Y-82562000D01*
X126399270Y-82562000D01*
X126471718Y-82576411D01*
X126471718Y-82576411D01*
G37*
G36*
X126471718Y-80036411D02*
X126544167Y-80050822D01*
X126589496Y-80069598D01*
X126680657Y-80107358D01*
X126803500Y-80189439D01*
X126907961Y-80293900D01*
X126990042Y-80416743D01*
X127046578Y-80553234D01*
X127075400Y-80698130D01*
X127075400Y-80845870D01*
X127046578Y-80990766D01*
X126990042Y-81127257D01*
X126907961Y-81250100D01*
X126803500Y-81354561D01*
X126680657Y-81436642D01*
X126600703Y-81469760D01*
X126544167Y-81493178D01*
X126471718Y-81507589D01*
X126399270Y-81522000D01*
X126251530Y-81522000D01*
X126106633Y-81493178D01*
X126078476Y-81481515D01*
X126055027Y-81474402D01*
X126030641Y-81472000D01*
X122695400Y-81472000D01*
X122695400Y-80072000D01*
X126030641Y-80072000D01*
X126055027Y-80069598D01*
X126078476Y-80062485D01*
X126106633Y-80050822D01*
X126251530Y-80022000D01*
X126399270Y-80022000D01*
X126471718Y-80036411D01*
X126471718Y-80036411D01*
G37*
G36*
X117784167Y-80050822D02*
X117812324Y-80062485D01*
X117835773Y-80069598D01*
X117860159Y-80072000D01*
X121195400Y-80072000D01*
X121195400Y-81472000D01*
X117860159Y-81472000D01*
X117835773Y-81474402D01*
X117812324Y-81481515D01*
X117784167Y-81493178D01*
X117639270Y-81522000D01*
X117491530Y-81522000D01*
X117419082Y-81507589D01*
X117346633Y-81493178D01*
X117290097Y-81469760D01*
X117210143Y-81436642D01*
X117087300Y-81354561D01*
X116982839Y-81250100D01*
X116900758Y-81127257D01*
X116844222Y-80990766D01*
X116815400Y-80845870D01*
X116815400Y-80698130D01*
X116844222Y-80553234D01*
X116900758Y-80416743D01*
X116982839Y-80293900D01*
X117087300Y-80189439D01*
X117210143Y-80107358D01*
X117301304Y-80069598D01*
X117346633Y-80050822D01*
X117419082Y-80036411D01*
X117491530Y-80022000D01*
X117639270Y-80022000D01*
X117784167Y-80050822D01*
X117784167Y-80050822D01*
G37*
G36*
X117675493Y-77499205D02*
X117784167Y-77520822D01*
X117788187Y-77522487D01*
X117811629Y-77529598D01*
X117836016Y-77532000D01*
X121195400Y-77532000D01*
X121195400Y-78932000D01*
X117884301Y-78932000D01*
X117859915Y-78934402D01*
X117836464Y-78941515D01*
X117784167Y-78963178D01*
X117711718Y-78977589D01*
X117639270Y-78992000D01*
X117491530Y-78992000D01*
X117419082Y-78977589D01*
X117346633Y-78963178D01*
X117271363Y-78932000D01*
X117210143Y-78906642D01*
X117087300Y-78824561D01*
X116982839Y-78720100D01*
X116900758Y-78597257D01*
X116844222Y-78460766D01*
X116815400Y-78315870D01*
X116815400Y-78168130D01*
X116844222Y-78023234D01*
X116900758Y-77886743D01*
X116982839Y-77763900D01*
X117087300Y-77659439D01*
X117210143Y-77577358D01*
X117290097Y-77544240D01*
X117346633Y-77520822D01*
X117419082Y-77506411D01*
X117491530Y-77492000D01*
X117639270Y-77492000D01*
X117675493Y-77499205D01*
X117675493Y-77499205D01*
G37*
G36*
X126471718Y-77506411D02*
X126544167Y-77520822D01*
X126600703Y-77544240D01*
X126680657Y-77577358D01*
X126803500Y-77659439D01*
X126907961Y-77763900D01*
X126990042Y-77886743D01*
X127046578Y-78023234D01*
X127075400Y-78168130D01*
X127075400Y-78315870D01*
X127046578Y-78460766D01*
X126990042Y-78597257D01*
X126907961Y-78720100D01*
X126803500Y-78824561D01*
X126680657Y-78906642D01*
X126619437Y-78932000D01*
X126544167Y-78963178D01*
X126471718Y-78977589D01*
X126399270Y-78992000D01*
X126251530Y-78992000D01*
X126179082Y-78977589D01*
X126106633Y-78963178D01*
X126054336Y-78941515D01*
X126030885Y-78934402D01*
X126006499Y-78932000D01*
X122695400Y-78932000D01*
X122695400Y-77532000D01*
X126054784Y-77532000D01*
X126079170Y-77529598D01*
X126102613Y-77522487D01*
X126106633Y-77520822D01*
X126215307Y-77499205D01*
X126251530Y-77492000D01*
X126399270Y-77492000D01*
X126471718Y-77506411D01*
X126471718Y-77506411D01*
G37*
G36*
X117784167Y-74970822D02*
X117812324Y-74982485D01*
X117835773Y-74989598D01*
X117860159Y-74992000D01*
X121195400Y-74992000D01*
X121195400Y-76392000D01*
X117860159Y-76392000D01*
X117835773Y-76394402D01*
X117812324Y-76401515D01*
X117784167Y-76413178D01*
X117639270Y-76442000D01*
X117491530Y-76442000D01*
X117419082Y-76427589D01*
X117346633Y-76413178D01*
X117290097Y-76389760D01*
X117210143Y-76356642D01*
X117087300Y-76274561D01*
X116982839Y-76170100D01*
X116900758Y-76047257D01*
X116844222Y-75910766D01*
X116815400Y-75765870D01*
X116815400Y-75618130D01*
X116844222Y-75473234D01*
X116848365Y-75463233D01*
X116867640Y-75416697D01*
X116900758Y-75336743D01*
X116982839Y-75213900D01*
X117087300Y-75109439D01*
X117210143Y-75027358D01*
X117301304Y-74989598D01*
X117346633Y-74970822D01*
X117419082Y-74956411D01*
X117491530Y-74942000D01*
X117639270Y-74942000D01*
X117784167Y-74970822D01*
X117784167Y-74970822D01*
G37*
G36*
X126471718Y-74946411D02*
X126544167Y-74960822D01*
X126596466Y-74982485D01*
X126680657Y-75017358D01*
X126803500Y-75099439D01*
X126907961Y-75203900D01*
X126990042Y-75326743D01*
X126994184Y-75336743D01*
X127046578Y-75463233D01*
X127075400Y-75608131D01*
X127075400Y-75755869D01*
X127046578Y-75900767D01*
X127023160Y-75957303D01*
X126990042Y-76037257D01*
X126907961Y-76160100D01*
X126803500Y-76264561D01*
X126680657Y-76346642D01*
X126600703Y-76379760D01*
X126544167Y-76403178D01*
X126471718Y-76417589D01*
X126399270Y-76432000D01*
X126251530Y-76432000D01*
X126215306Y-76424794D01*
X126106633Y-76403178D01*
X126102613Y-76401513D01*
X126079171Y-76394402D01*
X126054784Y-76392000D01*
X122695400Y-76392000D01*
X122695400Y-74992000D01*
X126006499Y-74992000D01*
X126030885Y-74989598D01*
X126054334Y-74982485D01*
X126082491Y-74970822D01*
X126106633Y-74960822D01*
X126179082Y-74946411D01*
X126251530Y-74932000D01*
X126399270Y-74932000D01*
X126471718Y-74946411D01*
X126471718Y-74946411D01*
G37*
G36*
X117784167Y-72430822D02*
X117812324Y-72442485D01*
X117835773Y-72449598D01*
X117860159Y-72452000D01*
X121195400Y-72452000D01*
X121195400Y-73852000D01*
X117860159Y-73852000D01*
X117835773Y-73854402D01*
X117812324Y-73861515D01*
X117784167Y-73873178D01*
X117639270Y-73902000D01*
X117491530Y-73902000D01*
X117419082Y-73887589D01*
X117346633Y-73873178D01*
X117290097Y-73849760D01*
X117210143Y-73816642D01*
X117087300Y-73734561D01*
X116982839Y-73630100D01*
X116900758Y-73507257D01*
X116844222Y-73370766D01*
X116815400Y-73225870D01*
X116815400Y-73078130D01*
X116844222Y-72933234D01*
X116900758Y-72796743D01*
X116982839Y-72673900D01*
X117087300Y-72569439D01*
X117210143Y-72487358D01*
X117301304Y-72449598D01*
X117346633Y-72430822D01*
X117419082Y-72416411D01*
X117491530Y-72402000D01*
X117639270Y-72402000D01*
X117784167Y-72430822D01*
X117784167Y-72430822D01*
G37*
G36*
X126471718Y-72416411D02*
X126544167Y-72430822D01*
X126589496Y-72449598D01*
X126680657Y-72487358D01*
X126803500Y-72569439D01*
X126907961Y-72673900D01*
X126990042Y-72796743D01*
X127046578Y-72933234D01*
X127075400Y-73078130D01*
X127075400Y-73225870D01*
X127046578Y-73370766D01*
X126990042Y-73507257D01*
X126907961Y-73630100D01*
X126803500Y-73734561D01*
X126680657Y-73816642D01*
X126600703Y-73849760D01*
X126544167Y-73873178D01*
X126471718Y-73887589D01*
X126399270Y-73902000D01*
X126251530Y-73902000D01*
X126106633Y-73873178D01*
X126078476Y-73861515D01*
X126055027Y-73854402D01*
X126030641Y-73852000D01*
X122695400Y-73852000D01*
X122695400Y-72452000D01*
X126030641Y-72452000D01*
X126055027Y-72449598D01*
X126078476Y-72442485D01*
X126106633Y-72430822D01*
X126251530Y-72402000D01*
X126399270Y-72402000D01*
X126471718Y-72416411D01*
X126471718Y-72416411D01*
G37*
G36*
X126471718Y-69876411D02*
X126544167Y-69890822D01*
X126589496Y-69909598D01*
X126680657Y-69947358D01*
X126803500Y-70029439D01*
X126907961Y-70133900D01*
X126990042Y-70256743D01*
X127046578Y-70393234D01*
X127075400Y-70538130D01*
X127075400Y-70685870D01*
X127046578Y-70830766D01*
X126990042Y-70967257D01*
X126907961Y-71090100D01*
X126803500Y-71194561D01*
X126680657Y-71276642D01*
X126600703Y-71309760D01*
X126544167Y-71333178D01*
X126471718Y-71347589D01*
X126399270Y-71362000D01*
X126251530Y-71362000D01*
X126106633Y-71333178D01*
X126078476Y-71321515D01*
X126055027Y-71314402D01*
X126030641Y-71312000D01*
X122695400Y-71312000D01*
X122695400Y-69912000D01*
X126030641Y-69912000D01*
X126055027Y-69909598D01*
X126078476Y-69902485D01*
X126106633Y-69890822D01*
X126251530Y-69862000D01*
X126399270Y-69862000D01*
X126471718Y-69876411D01*
X126471718Y-69876411D01*
G37*
G36*
X117784167Y-69890822D02*
X117812324Y-69902485D01*
X117835773Y-69909598D01*
X117860159Y-69912000D01*
X121195400Y-69912000D01*
X121195400Y-71312000D01*
X117860159Y-71312000D01*
X117835773Y-71314402D01*
X117812324Y-71321515D01*
X117784167Y-71333178D01*
X117639270Y-71362000D01*
X117491530Y-71362000D01*
X117419082Y-71347589D01*
X117346633Y-71333178D01*
X117290097Y-71309760D01*
X117210143Y-71276642D01*
X117087300Y-71194561D01*
X116982839Y-71090100D01*
X116900758Y-70967257D01*
X116844222Y-70830766D01*
X116815400Y-70685870D01*
X116815400Y-70538130D01*
X116844222Y-70393234D01*
X116900758Y-70256743D01*
X116982839Y-70133900D01*
X117087300Y-70029439D01*
X117210143Y-69947358D01*
X117301304Y-69909598D01*
X117346633Y-69890822D01*
X117419082Y-69876411D01*
X117491530Y-69862000D01*
X117639270Y-69862000D01*
X117784167Y-69890822D01*
X117784167Y-69890822D01*
G37*
G36*
X126471718Y-67336411D02*
X126544167Y-67350822D01*
X126589496Y-67369598D01*
X126680657Y-67407358D01*
X126803500Y-67489439D01*
X126907961Y-67593900D01*
X126990042Y-67716743D01*
X127023160Y-67796697D01*
X127038294Y-67833233D01*
X127046578Y-67853234D01*
X127075400Y-67998130D01*
X127075400Y-68145870D01*
X127046578Y-68290766D01*
X126990042Y-68427257D01*
X126907961Y-68550100D01*
X126803500Y-68654561D01*
X126680657Y-68736642D01*
X126600703Y-68769760D01*
X126544167Y-68793178D01*
X126471718Y-68807589D01*
X126399270Y-68822000D01*
X126251530Y-68822000D01*
X126106633Y-68793178D01*
X126078476Y-68781515D01*
X126055027Y-68774402D01*
X126030641Y-68772000D01*
X122695400Y-68772000D01*
X122695400Y-67372000D01*
X126030641Y-67372000D01*
X126055027Y-67369598D01*
X126078476Y-67362485D01*
X126106633Y-67350822D01*
X126251530Y-67322000D01*
X126399270Y-67322000D01*
X126471718Y-67336411D01*
X126471718Y-67336411D01*
G37*
G36*
X117711718Y-67316411D02*
X117784167Y-67330822D01*
X117832451Y-67350822D01*
X117860608Y-67362485D01*
X117884057Y-67369598D01*
X117908443Y-67372000D01*
X121195400Y-67372000D01*
X121195400Y-68772000D01*
X117802399Y-68772000D01*
X117778014Y-68774402D01*
X117742254Y-68781515D01*
X117639270Y-68802000D01*
X117491530Y-68802000D01*
X117388546Y-68781515D01*
X117346633Y-68773178D01*
X117258428Y-68736642D01*
X117210143Y-68716642D01*
X117087300Y-68634561D01*
X116982839Y-68530100D01*
X116900758Y-68407257D01*
X116867640Y-68327303D01*
X116844222Y-68270767D01*
X116815400Y-68125869D01*
X116815400Y-67978131D01*
X116844222Y-67833233D01*
X116892474Y-67716743D01*
X116900758Y-67696743D01*
X116982839Y-67573900D01*
X117087300Y-67469439D01*
X117210143Y-67387358D01*
X117298349Y-67350822D01*
X117346633Y-67330822D01*
X117419082Y-67316411D01*
X117491530Y-67302000D01*
X117639270Y-67302000D01*
X117711718Y-67316411D01*
X117711718Y-67316411D01*
G37*
G36*
X117784167Y-64810822D02*
X117812324Y-64822485D01*
X117835773Y-64829598D01*
X117860159Y-64832000D01*
X121195400Y-64832000D01*
X121195400Y-66232000D01*
X117860159Y-66232000D01*
X117835773Y-66234402D01*
X117812324Y-66241515D01*
X117784167Y-66253178D01*
X117639270Y-66282000D01*
X117491530Y-66282000D01*
X117419082Y-66267589D01*
X117346633Y-66253178D01*
X117290097Y-66229760D01*
X117210143Y-66196642D01*
X117087300Y-66114561D01*
X116982839Y-66010100D01*
X116900758Y-65887257D01*
X116844222Y-65750766D01*
X116815400Y-65605870D01*
X116815400Y-65458130D01*
X116844222Y-65313234D01*
X116900758Y-65176743D01*
X116982839Y-65053900D01*
X117087300Y-64949439D01*
X117210143Y-64867358D01*
X117301304Y-64829598D01*
X117346633Y-64810822D01*
X117419082Y-64796411D01*
X117491530Y-64782000D01*
X117639270Y-64782000D01*
X117784167Y-64810822D01*
X117784167Y-64810822D01*
G37*
G36*
X126471718Y-64796411D02*
X126544167Y-64810822D01*
X126589496Y-64829598D01*
X126680657Y-64867358D01*
X126803500Y-64949439D01*
X126907961Y-65053900D01*
X126990042Y-65176743D01*
X127046578Y-65313234D01*
X127075400Y-65458130D01*
X127075400Y-65605870D01*
X127046578Y-65750766D01*
X126990042Y-65887257D01*
X126907961Y-66010100D01*
X126803500Y-66114561D01*
X126680657Y-66196642D01*
X126600703Y-66229760D01*
X126544167Y-66253178D01*
X126471718Y-66267589D01*
X126399270Y-66282000D01*
X126251530Y-66282000D01*
X126106633Y-66253178D01*
X126078476Y-66241515D01*
X126055027Y-66234402D01*
X126030641Y-66232000D01*
X122695400Y-66232000D01*
X122695400Y-64832000D01*
X126030641Y-64832000D01*
X126055027Y-64829598D01*
X126078476Y-64822485D01*
X126106633Y-64810822D01*
X126251530Y-64782000D01*
X126399270Y-64782000D01*
X126471718Y-64796411D01*
X126471718Y-64796411D01*
G37*
G36*
X122093138Y-63628653D02*
X122134998Y-63636979D01*
X122169645Y-63651330D01*
X122253290Y-63685977D01*
X122359754Y-63757114D01*
X122450286Y-63847646D01*
X122466466Y-63871861D01*
X122472056Y-63878673D01*
X122476211Y-63886446D01*
X122521423Y-63954111D01*
X122570421Y-64072403D01*
X122595400Y-64197979D01*
X122595400Y-64326021D01*
X122570421Y-64451597D01*
X122521423Y-64569889D01*
X122476211Y-64637554D01*
X122472056Y-64645328D01*
X122466466Y-64652139D01*
X122450286Y-64676354D01*
X122359754Y-64766886D01*
X122253290Y-64838023D01*
X122169645Y-64872670D01*
X122134998Y-64887021D01*
X122093138Y-64895347D01*
X122009421Y-64912000D01*
X121881379Y-64912000D01*
X121797662Y-64895347D01*
X121755802Y-64887021D01*
X121721155Y-64872670D01*
X121637510Y-64838023D01*
X121531046Y-64766886D01*
X121440514Y-64676354D01*
X121424334Y-64652139D01*
X121418744Y-64645327D01*
X121414589Y-64637554D01*
X121369377Y-64569889D01*
X121320379Y-64451597D01*
X121295400Y-64326021D01*
X121295400Y-64197979D01*
X121320379Y-64072403D01*
X121369377Y-63954111D01*
X121414589Y-63886446D01*
X121418744Y-63878672D01*
X121424334Y-63871861D01*
X121440514Y-63847646D01*
X121531046Y-63757114D01*
X121637510Y-63685977D01*
X121721155Y-63651330D01*
X121755802Y-63636979D01*
X121797662Y-63628653D01*
X121881379Y-63612000D01*
X122009421Y-63612000D01*
X122093138Y-63628653D01*
X122093138Y-63628653D01*
G37*
G36*
X126471718Y-62256411D02*
X126544167Y-62270822D01*
X126589496Y-62289598D01*
X126680657Y-62327358D01*
X126803500Y-62409439D01*
X126907961Y-62513900D01*
X126990042Y-62636743D01*
X127046578Y-62773234D01*
X127075400Y-62918130D01*
X127075400Y-63065870D01*
X127046578Y-63210766D01*
X126990042Y-63347257D01*
X126907961Y-63470100D01*
X126803500Y-63574561D01*
X126680657Y-63656642D01*
X126609833Y-63685978D01*
X126544167Y-63713178D01*
X126471718Y-63727589D01*
X126399270Y-63742000D01*
X126251530Y-63742000D01*
X126106633Y-63713178D01*
X126078476Y-63701515D01*
X126055027Y-63694402D01*
X126030641Y-63692000D01*
X122695400Y-63692000D01*
X122695400Y-62292000D01*
X126030641Y-62292000D01*
X126055027Y-62289598D01*
X126078476Y-62282485D01*
X126106633Y-62270822D01*
X126251530Y-62242000D01*
X126399270Y-62242000D01*
X126471718Y-62256411D01*
X126471718Y-62256411D01*
G37*
G36*
X117784167Y-62270822D02*
X117812324Y-62282485D01*
X117835773Y-62289598D01*
X117860159Y-62292000D01*
X121195400Y-62292000D01*
X121195400Y-63692000D01*
X117860159Y-63692000D01*
X117835773Y-63694402D01*
X117812324Y-63701515D01*
X117784167Y-63713178D01*
X117639270Y-63742000D01*
X117491530Y-63742000D01*
X117419082Y-63727589D01*
X117346633Y-63713178D01*
X117280967Y-63685978D01*
X117210143Y-63656642D01*
X117087300Y-63574561D01*
X116982839Y-63470100D01*
X116900758Y-63347257D01*
X116844222Y-63210766D01*
X116815400Y-63065870D01*
X116815400Y-62918130D01*
X116844222Y-62773234D01*
X116900758Y-62636743D01*
X116982839Y-62513900D01*
X117087300Y-62409439D01*
X117210143Y-62327358D01*
X117301304Y-62289598D01*
X117346633Y-62270822D01*
X117419082Y-62256411D01*
X117491530Y-62242000D01*
X117639270Y-62242000D01*
X117784167Y-62270822D01*
X117784167Y-62270822D01*
G37*
G36*
X117784167Y-59730822D02*
X117812324Y-59742485D01*
X117835773Y-59749598D01*
X117860159Y-59752000D01*
X121195400Y-59752000D01*
X121195400Y-61152000D01*
X117860159Y-61152000D01*
X117835773Y-61154402D01*
X117812324Y-61161515D01*
X117784167Y-61173178D01*
X117639270Y-61202000D01*
X117491530Y-61202000D01*
X117419082Y-61187589D01*
X117346633Y-61173178D01*
X117290097Y-61149760D01*
X117210143Y-61116642D01*
X117087300Y-61034561D01*
X116982839Y-60930100D01*
X116900758Y-60807257D01*
X116844222Y-60670766D01*
X116815400Y-60525870D01*
X116815400Y-60378130D01*
X116844222Y-60233234D01*
X116900758Y-60096743D01*
X116982839Y-59973900D01*
X117087300Y-59869439D01*
X117210143Y-59787358D01*
X117301304Y-59749598D01*
X117346633Y-59730822D01*
X117419082Y-59716411D01*
X117491530Y-59702000D01*
X117639270Y-59702000D01*
X117784167Y-59730822D01*
X117784167Y-59730822D01*
G37*
G36*
X126471718Y-59716411D02*
X126544167Y-59730822D01*
X126589496Y-59749598D01*
X126680657Y-59787358D01*
X126803500Y-59869439D01*
X126907961Y-59973900D01*
X126990042Y-60096743D01*
X127046578Y-60233234D01*
X127075400Y-60378130D01*
X127075400Y-60525870D01*
X127046578Y-60670766D01*
X126990042Y-60807257D01*
X126907961Y-60930100D01*
X126803500Y-61034561D01*
X126680657Y-61116642D01*
X126600703Y-61149760D01*
X126544167Y-61173178D01*
X126471718Y-61187589D01*
X126399270Y-61202000D01*
X126251530Y-61202000D01*
X126106633Y-61173178D01*
X126078476Y-61161515D01*
X126055027Y-61154402D01*
X126030641Y-61152000D01*
X122695400Y-61152000D01*
X122695400Y-59752000D01*
X126030641Y-59752000D01*
X126055027Y-59749598D01*
X126078476Y-59742485D01*
X126106633Y-59730822D01*
X126251530Y-59702000D01*
X126399270Y-59702000D01*
X126471718Y-59716411D01*
X126471718Y-59716411D01*
G37*
M02*
