G04 #@! TF.GenerationSoftware,KiCad,Pcbnew,5.0.1-33cea8e~68~ubuntu18.04.1*
G04 #@! TF.CreationDate,2018-10-29T17:39:43+09:00*
G04 #@! TF.ProjectId,spacer_pcb,7370616365725F7063622E6B69636164,rev?*
G04 #@! TF.SameCoordinates,Original*
G04 #@! TF.FileFunction,Soldermask,Top*
G04 #@! TF.FilePolarity,Negative*
%FSLAX46Y46*%
G04 Gerber Fmt 4.6, Leading zero omitted, Abs format (unit mm)*
G04 Created by KiCad (PCBNEW 5.0.1-33cea8e~68~ubuntu18.04.1) date 2018年10月29日 17時39分43秒*
%MOMM*%
%LPD*%
G01*
G04 APERTURE LIST*
%ADD10C,0.100000*%
G04 APERTURE END LIST*
D10*
G36*
X140708707Y-98068396D02*
X140785836Y-98075993D01*
X140917787Y-98116020D01*
X140983763Y-98136033D01*
X141166172Y-98233533D01*
X141326054Y-98364746D01*
X141457267Y-98524628D01*
X141554767Y-98707037D01*
X141554767Y-98707038D01*
X141614807Y-98904964D01*
X141635080Y-99110800D01*
X141614807Y-99316636D01*
X141574780Y-99448587D01*
X141554767Y-99514563D01*
X141457267Y-99696972D01*
X141326054Y-99856854D01*
X141166172Y-99988067D01*
X140983763Y-100085567D01*
X140917787Y-100105580D01*
X140785836Y-100145607D01*
X140708707Y-100153203D01*
X140631580Y-100160800D01*
X140528420Y-100160800D01*
X140451293Y-100153203D01*
X140374164Y-100145607D01*
X140242213Y-100105580D01*
X140176237Y-100085567D01*
X139993828Y-99988067D01*
X139833949Y-99856857D01*
X139833948Y-99856855D01*
X139833946Y-99856854D01*
X139833653Y-99856497D01*
X139816330Y-99839174D01*
X139795955Y-99825560D01*
X139773316Y-99816183D01*
X139749283Y-99811402D01*
X139737030Y-99810800D01*
X136650000Y-99810800D01*
X136650000Y-98410800D01*
X139737030Y-98410800D01*
X139761416Y-98408398D01*
X139784865Y-98401285D01*
X139806476Y-98389734D01*
X139825418Y-98374188D01*
X139833650Y-98365107D01*
X139833946Y-98364746D01*
X139833948Y-98364745D01*
X139833949Y-98364743D01*
X139993828Y-98233533D01*
X140176237Y-98136033D01*
X140242213Y-98116020D01*
X140374164Y-98075993D01*
X140451293Y-98068396D01*
X140528420Y-98060800D01*
X140631580Y-98060800D01*
X140708707Y-98068396D01*
X140708707Y-98068396D01*
G37*
G36*
X131348707Y-98068396D02*
X131425836Y-98075993D01*
X131557787Y-98116020D01*
X131623763Y-98136033D01*
X131806172Y-98233533D01*
X131966051Y-98364743D01*
X131966052Y-98364745D01*
X131966054Y-98364746D01*
X131966347Y-98365103D01*
X131983670Y-98382426D01*
X132004045Y-98396040D01*
X132026684Y-98405417D01*
X132050717Y-98410198D01*
X132062970Y-98410800D01*
X135150000Y-98410800D01*
X135150000Y-99810800D01*
X132062970Y-99810800D01*
X132038584Y-99813202D01*
X132015135Y-99820315D01*
X131993524Y-99831866D01*
X131974582Y-99847412D01*
X131966350Y-99856493D01*
X131966054Y-99856854D01*
X131966052Y-99856855D01*
X131966051Y-99856857D01*
X131806172Y-99988067D01*
X131623763Y-100085567D01*
X131557787Y-100105580D01*
X131425836Y-100145607D01*
X131348707Y-100153203D01*
X131271580Y-100160800D01*
X131168420Y-100160800D01*
X131091293Y-100153203D01*
X131014164Y-100145607D01*
X130882213Y-100105580D01*
X130816237Y-100085567D01*
X130633828Y-99988067D01*
X130473946Y-99856854D01*
X130342733Y-99696972D01*
X130245233Y-99514563D01*
X130225220Y-99448587D01*
X130185193Y-99316636D01*
X130164920Y-99110800D01*
X130185193Y-98904964D01*
X130245233Y-98707038D01*
X130245233Y-98707037D01*
X130342733Y-98524628D01*
X130473946Y-98364746D01*
X130633828Y-98233533D01*
X130816237Y-98136033D01*
X130882213Y-98116020D01*
X131014164Y-98075993D01*
X131091293Y-98068396D01*
X131168420Y-98060800D01*
X131271580Y-98060800D01*
X131348707Y-98068396D01*
X131348707Y-98068396D01*
G37*
G36*
X131348707Y-95528397D02*
X131425836Y-95535993D01*
X131557787Y-95576020D01*
X131623763Y-95596033D01*
X131806172Y-95693533D01*
X131966051Y-95824743D01*
X131966052Y-95824745D01*
X131966054Y-95824746D01*
X131966347Y-95825103D01*
X131983670Y-95842426D01*
X132004045Y-95856040D01*
X132026684Y-95865417D01*
X132050717Y-95870198D01*
X132062970Y-95870800D01*
X135150000Y-95870800D01*
X135150000Y-97270800D01*
X132062970Y-97270800D01*
X132038584Y-97273202D01*
X132015135Y-97280315D01*
X131993524Y-97291866D01*
X131974582Y-97307412D01*
X131966350Y-97316493D01*
X131966054Y-97316854D01*
X131966052Y-97316855D01*
X131966051Y-97316857D01*
X131806172Y-97448067D01*
X131623763Y-97545567D01*
X131557787Y-97565580D01*
X131425836Y-97605607D01*
X131348707Y-97613203D01*
X131271580Y-97620800D01*
X131168420Y-97620800D01*
X131091293Y-97613203D01*
X131014164Y-97605607D01*
X130882213Y-97565580D01*
X130816237Y-97545567D01*
X130633828Y-97448067D01*
X130473946Y-97316854D01*
X130342733Y-97156972D01*
X130245233Y-96974563D01*
X130225220Y-96908587D01*
X130185193Y-96776636D01*
X130164920Y-96570800D01*
X130185193Y-96364964D01*
X130245233Y-96167038D01*
X130245233Y-96167037D01*
X130342733Y-95984628D01*
X130473946Y-95824746D01*
X130633828Y-95693533D01*
X130816237Y-95596033D01*
X130882213Y-95576020D01*
X131014164Y-95535993D01*
X131091293Y-95528397D01*
X131168420Y-95520800D01*
X131271580Y-95520800D01*
X131348707Y-95528397D01*
X131348707Y-95528397D01*
G37*
G36*
X140708707Y-95528397D02*
X140785836Y-95535993D01*
X140917787Y-95576020D01*
X140983763Y-95596033D01*
X141166172Y-95693533D01*
X141326054Y-95824746D01*
X141457267Y-95984628D01*
X141554767Y-96167037D01*
X141554767Y-96167038D01*
X141614807Y-96364964D01*
X141635080Y-96570800D01*
X141614807Y-96776636D01*
X141574780Y-96908587D01*
X141554767Y-96974563D01*
X141457267Y-97156972D01*
X141326054Y-97316854D01*
X141166172Y-97448067D01*
X140983763Y-97545567D01*
X140917787Y-97565580D01*
X140785836Y-97605607D01*
X140708707Y-97613203D01*
X140631580Y-97620800D01*
X140528420Y-97620800D01*
X140451293Y-97613203D01*
X140374164Y-97605607D01*
X140242213Y-97565580D01*
X140176237Y-97545567D01*
X139993828Y-97448067D01*
X139833949Y-97316857D01*
X139833948Y-97316855D01*
X139833946Y-97316854D01*
X139833653Y-97316497D01*
X139816330Y-97299174D01*
X139795955Y-97285560D01*
X139773316Y-97276183D01*
X139749283Y-97271402D01*
X139737030Y-97270800D01*
X136650000Y-97270800D01*
X136650000Y-95870800D01*
X139737030Y-95870800D01*
X139761416Y-95868398D01*
X139784865Y-95861285D01*
X139806476Y-95849734D01*
X139825418Y-95834188D01*
X139833650Y-95825107D01*
X139833946Y-95824746D01*
X139833948Y-95824745D01*
X139833949Y-95824743D01*
X139993828Y-95693533D01*
X140176237Y-95596033D01*
X140242213Y-95576020D01*
X140374164Y-95535993D01*
X140451293Y-95528397D01*
X140528420Y-95520800D01*
X140631580Y-95520800D01*
X140708707Y-95528397D01*
X140708707Y-95528397D01*
G37*
G36*
X136047738Y-94667453D02*
X136089598Y-94675779D01*
X136124245Y-94690130D01*
X136207890Y-94724777D01*
X136314354Y-94795914D01*
X136404886Y-94886446D01*
X136421066Y-94910661D01*
X136426656Y-94917473D01*
X136430811Y-94925246D01*
X136476023Y-94992911D01*
X136525021Y-95111203D01*
X136550000Y-95236779D01*
X136550000Y-95364821D01*
X136525021Y-95490397D01*
X136476023Y-95608689D01*
X136430811Y-95676354D01*
X136426656Y-95684128D01*
X136421066Y-95690939D01*
X136404886Y-95715154D01*
X136314354Y-95805686D01*
X136207890Y-95876823D01*
X136124245Y-95911470D01*
X136089598Y-95925821D01*
X136047738Y-95934147D01*
X135964021Y-95950800D01*
X135835979Y-95950800D01*
X135752262Y-95934147D01*
X135710402Y-95925821D01*
X135675755Y-95911470D01*
X135592110Y-95876823D01*
X135485646Y-95805686D01*
X135395114Y-95715154D01*
X135378934Y-95690939D01*
X135373344Y-95684127D01*
X135369189Y-95676354D01*
X135323977Y-95608689D01*
X135274979Y-95490397D01*
X135250000Y-95364821D01*
X135250000Y-95236779D01*
X135274979Y-95111203D01*
X135323977Y-94992911D01*
X135369189Y-94925246D01*
X135373344Y-94917472D01*
X135378934Y-94910661D01*
X135395114Y-94886446D01*
X135485646Y-94795914D01*
X135592110Y-94724777D01*
X135675755Y-94690130D01*
X135710402Y-94675779D01*
X135752262Y-94667453D01*
X135835979Y-94650800D01*
X135964021Y-94650800D01*
X136047738Y-94667453D01*
X136047738Y-94667453D01*
G37*
G36*
X140708707Y-92988396D02*
X140785836Y-92995993D01*
X140917787Y-93036020D01*
X140983763Y-93056033D01*
X141166172Y-93153533D01*
X141326054Y-93284746D01*
X141457267Y-93444628D01*
X141554767Y-93627037D01*
X141554767Y-93627038D01*
X141614807Y-93824964D01*
X141635080Y-94030800D01*
X141614807Y-94236636D01*
X141574780Y-94368587D01*
X141554767Y-94434563D01*
X141457267Y-94616972D01*
X141326054Y-94776854D01*
X141166172Y-94908067D01*
X140983763Y-95005567D01*
X140917787Y-95025580D01*
X140785836Y-95065607D01*
X140708707Y-95073203D01*
X140631580Y-95080800D01*
X140528420Y-95080800D01*
X140451293Y-95073203D01*
X140374164Y-95065607D01*
X140242213Y-95025580D01*
X140176237Y-95005567D01*
X139993828Y-94908067D01*
X139833949Y-94776857D01*
X139833948Y-94776855D01*
X139833946Y-94776854D01*
X139833653Y-94776497D01*
X139816330Y-94759174D01*
X139795955Y-94745560D01*
X139773316Y-94736183D01*
X139749283Y-94731402D01*
X139737030Y-94730800D01*
X136650000Y-94730800D01*
X136650000Y-93330800D01*
X139737030Y-93330800D01*
X139761416Y-93328398D01*
X139784865Y-93321285D01*
X139806476Y-93309734D01*
X139825418Y-93294188D01*
X139833650Y-93285107D01*
X139833946Y-93284746D01*
X139833948Y-93284745D01*
X139833949Y-93284743D01*
X139993828Y-93153533D01*
X140176237Y-93056033D01*
X140242213Y-93036020D01*
X140374164Y-92995993D01*
X140451293Y-92988396D01*
X140528420Y-92980800D01*
X140631580Y-92980800D01*
X140708707Y-92988396D01*
X140708707Y-92988396D01*
G37*
G36*
X131348707Y-92988396D02*
X131425836Y-92995993D01*
X131557787Y-93036020D01*
X131623763Y-93056033D01*
X131806172Y-93153533D01*
X131966051Y-93284743D01*
X131966052Y-93284745D01*
X131966054Y-93284746D01*
X131966347Y-93285103D01*
X131983670Y-93302426D01*
X132004045Y-93316040D01*
X132026684Y-93325417D01*
X132050717Y-93330198D01*
X132062970Y-93330800D01*
X135150000Y-93330800D01*
X135150000Y-94730800D01*
X132062970Y-94730800D01*
X132038584Y-94733202D01*
X132015135Y-94740315D01*
X131993524Y-94751866D01*
X131974582Y-94767412D01*
X131966350Y-94776493D01*
X131966054Y-94776854D01*
X131966052Y-94776855D01*
X131966051Y-94776857D01*
X131806172Y-94908067D01*
X131623763Y-95005567D01*
X131557787Y-95025580D01*
X131425836Y-95065607D01*
X131348707Y-95073203D01*
X131271580Y-95080800D01*
X131168420Y-95080800D01*
X131091293Y-95073203D01*
X131014164Y-95065607D01*
X130882213Y-95025580D01*
X130816237Y-95005567D01*
X130633828Y-94908067D01*
X130473946Y-94776854D01*
X130342733Y-94616972D01*
X130245233Y-94434563D01*
X130225220Y-94368587D01*
X130185193Y-94236636D01*
X130164920Y-94030800D01*
X130185193Y-93824964D01*
X130245233Y-93627038D01*
X130245233Y-93627037D01*
X130342733Y-93444628D01*
X130473946Y-93284746D01*
X130633828Y-93153533D01*
X130816237Y-93056033D01*
X130882213Y-93036020D01*
X131014164Y-92995993D01*
X131091293Y-92988396D01*
X131168420Y-92980800D01*
X131271580Y-92980800D01*
X131348707Y-92988396D01*
X131348707Y-92988396D01*
G37*
G36*
X140708707Y-90448397D02*
X140785836Y-90455993D01*
X140917787Y-90496020D01*
X140983763Y-90516033D01*
X141166172Y-90613533D01*
X141326054Y-90744746D01*
X141457267Y-90904628D01*
X141554767Y-91087037D01*
X141554767Y-91087038D01*
X141614807Y-91284964D01*
X141635080Y-91490800D01*
X141614807Y-91696636D01*
X141574780Y-91828587D01*
X141554767Y-91894563D01*
X141457267Y-92076972D01*
X141326054Y-92236854D01*
X141166172Y-92368067D01*
X140983763Y-92465567D01*
X140917787Y-92485580D01*
X140785836Y-92525607D01*
X140708707Y-92533203D01*
X140631580Y-92540800D01*
X140528420Y-92540800D01*
X140451293Y-92533203D01*
X140374164Y-92525607D01*
X140242213Y-92485580D01*
X140176237Y-92465567D01*
X139993828Y-92368067D01*
X139833949Y-92236857D01*
X139833948Y-92236855D01*
X139833946Y-92236854D01*
X139833653Y-92236497D01*
X139816330Y-92219174D01*
X139795955Y-92205560D01*
X139773316Y-92196183D01*
X139749283Y-92191402D01*
X139737030Y-92190800D01*
X136650000Y-92190800D01*
X136650000Y-90790800D01*
X139737030Y-90790800D01*
X139761416Y-90788398D01*
X139784865Y-90781285D01*
X139806476Y-90769734D01*
X139825418Y-90754188D01*
X139833650Y-90745107D01*
X139833946Y-90744746D01*
X139833948Y-90744745D01*
X139833949Y-90744743D01*
X139993828Y-90613533D01*
X140176237Y-90516033D01*
X140242213Y-90496020D01*
X140374164Y-90455993D01*
X140451293Y-90448397D01*
X140528420Y-90440800D01*
X140631580Y-90440800D01*
X140708707Y-90448397D01*
X140708707Y-90448397D01*
G37*
G36*
X131348707Y-90448397D02*
X131425836Y-90455993D01*
X131557787Y-90496020D01*
X131623763Y-90516033D01*
X131806172Y-90613533D01*
X131966051Y-90744743D01*
X131966052Y-90744745D01*
X131966054Y-90744746D01*
X131966347Y-90745103D01*
X131983670Y-90762426D01*
X132004045Y-90776040D01*
X132026684Y-90785417D01*
X132050717Y-90790198D01*
X132062970Y-90790800D01*
X135150000Y-90790800D01*
X135150000Y-92190800D01*
X132062970Y-92190800D01*
X132038584Y-92193202D01*
X132015135Y-92200315D01*
X131993524Y-92211866D01*
X131974582Y-92227412D01*
X131966350Y-92236493D01*
X131966054Y-92236854D01*
X131966052Y-92236855D01*
X131966051Y-92236857D01*
X131806172Y-92368067D01*
X131623763Y-92465567D01*
X131557787Y-92485580D01*
X131425836Y-92525607D01*
X131348707Y-92533203D01*
X131271580Y-92540800D01*
X131168420Y-92540800D01*
X131091293Y-92533203D01*
X131014164Y-92525607D01*
X130882213Y-92485580D01*
X130816237Y-92465567D01*
X130633828Y-92368067D01*
X130473946Y-92236854D01*
X130342733Y-92076972D01*
X130245233Y-91894563D01*
X130225220Y-91828587D01*
X130185193Y-91696636D01*
X130164920Y-91490800D01*
X130185193Y-91284964D01*
X130245233Y-91087038D01*
X130245233Y-91087037D01*
X130342733Y-90904628D01*
X130473946Y-90744746D01*
X130633828Y-90613533D01*
X130816237Y-90516033D01*
X130882213Y-90496020D01*
X131014164Y-90455993D01*
X131091293Y-90448397D01*
X131168420Y-90440800D01*
X131271580Y-90440800D01*
X131348707Y-90448397D01*
X131348707Y-90448397D01*
G37*
G36*
X140708707Y-87908396D02*
X140785836Y-87915993D01*
X140917787Y-87956020D01*
X140983763Y-87976033D01*
X141166172Y-88073533D01*
X141326054Y-88204746D01*
X141457267Y-88364628D01*
X141554767Y-88547037D01*
X141554767Y-88547038D01*
X141614807Y-88744964D01*
X141635080Y-88950800D01*
X141614807Y-89156636D01*
X141574780Y-89288587D01*
X141554767Y-89354563D01*
X141457267Y-89536972D01*
X141326054Y-89696854D01*
X141166172Y-89828067D01*
X140983763Y-89925567D01*
X140917787Y-89945580D01*
X140785836Y-89985607D01*
X140708707Y-89993203D01*
X140631580Y-90000800D01*
X140528420Y-90000800D01*
X140451293Y-89993203D01*
X140374164Y-89985607D01*
X140242213Y-89945580D01*
X140176237Y-89925567D01*
X139993828Y-89828067D01*
X139833949Y-89696857D01*
X139833948Y-89696855D01*
X139833946Y-89696854D01*
X139833653Y-89696497D01*
X139816330Y-89679174D01*
X139795955Y-89665560D01*
X139773316Y-89656183D01*
X139749283Y-89651402D01*
X139737030Y-89650800D01*
X136650000Y-89650800D01*
X136650000Y-88250800D01*
X139737030Y-88250800D01*
X139761416Y-88248398D01*
X139784865Y-88241285D01*
X139806476Y-88229734D01*
X139825418Y-88214188D01*
X139833650Y-88205107D01*
X139833946Y-88204746D01*
X139833948Y-88204745D01*
X139833949Y-88204743D01*
X139993828Y-88073533D01*
X140176237Y-87976033D01*
X140242213Y-87956020D01*
X140374164Y-87915993D01*
X140451293Y-87908396D01*
X140528420Y-87900800D01*
X140631580Y-87900800D01*
X140708707Y-87908396D01*
X140708707Y-87908396D01*
G37*
G36*
X131348707Y-87908396D02*
X131425836Y-87915993D01*
X131557787Y-87956020D01*
X131623763Y-87976033D01*
X131806172Y-88073533D01*
X131966051Y-88204743D01*
X131966052Y-88204745D01*
X131966054Y-88204746D01*
X131966347Y-88205103D01*
X131983670Y-88222426D01*
X132004045Y-88236040D01*
X132026684Y-88245417D01*
X132050717Y-88250198D01*
X132062970Y-88250800D01*
X135150000Y-88250800D01*
X135150000Y-89650800D01*
X132062970Y-89650800D01*
X132038584Y-89653202D01*
X132015135Y-89660315D01*
X131993524Y-89671866D01*
X131974582Y-89687412D01*
X131966350Y-89696493D01*
X131966054Y-89696854D01*
X131966052Y-89696855D01*
X131966051Y-89696857D01*
X131806172Y-89828067D01*
X131623763Y-89925567D01*
X131557787Y-89945580D01*
X131425836Y-89985607D01*
X131348707Y-89993203D01*
X131271580Y-90000800D01*
X131168420Y-90000800D01*
X131091293Y-89993203D01*
X131014164Y-89985607D01*
X130882213Y-89945580D01*
X130816237Y-89925567D01*
X130633828Y-89828067D01*
X130473946Y-89696854D01*
X130342733Y-89536972D01*
X130245233Y-89354563D01*
X130225220Y-89288587D01*
X130185193Y-89156636D01*
X130164920Y-88950800D01*
X130185193Y-88744964D01*
X130245233Y-88547038D01*
X130245233Y-88547037D01*
X130342733Y-88364628D01*
X130473946Y-88204746D01*
X130633828Y-88073533D01*
X130816237Y-87976033D01*
X130882213Y-87956020D01*
X131014164Y-87915993D01*
X131091293Y-87908396D01*
X131168420Y-87900800D01*
X131271580Y-87900800D01*
X131348707Y-87908396D01*
X131348707Y-87908396D01*
G37*
G36*
X131348707Y-85368397D02*
X131425836Y-85375993D01*
X131557787Y-85416020D01*
X131623763Y-85436033D01*
X131806172Y-85533533D01*
X131966051Y-85664743D01*
X131966052Y-85664745D01*
X131966054Y-85664746D01*
X131966347Y-85665103D01*
X131983670Y-85682426D01*
X132004045Y-85696040D01*
X132026684Y-85705417D01*
X132050717Y-85710198D01*
X132062970Y-85710800D01*
X135150000Y-85710800D01*
X135150000Y-87110800D01*
X132062970Y-87110800D01*
X132038584Y-87113202D01*
X132015135Y-87120315D01*
X131993524Y-87131866D01*
X131974582Y-87147412D01*
X131966350Y-87156493D01*
X131966054Y-87156854D01*
X131966052Y-87156855D01*
X131966051Y-87156857D01*
X131806172Y-87288067D01*
X131623763Y-87385567D01*
X131557787Y-87405580D01*
X131425836Y-87445607D01*
X131348707Y-87453204D01*
X131271580Y-87460800D01*
X131168420Y-87460800D01*
X131091293Y-87453204D01*
X131014164Y-87445607D01*
X130882213Y-87405580D01*
X130816237Y-87385567D01*
X130633828Y-87288067D01*
X130473946Y-87156854D01*
X130342733Y-86996972D01*
X130245233Y-86814563D01*
X130225220Y-86748587D01*
X130185193Y-86616636D01*
X130164920Y-86410800D01*
X130185193Y-86204964D01*
X130245233Y-86007038D01*
X130245233Y-86007037D01*
X130342733Y-85824628D01*
X130473946Y-85664746D01*
X130633828Y-85533533D01*
X130816237Y-85436033D01*
X130882213Y-85416020D01*
X131014164Y-85375993D01*
X131091293Y-85368397D01*
X131168420Y-85360800D01*
X131271580Y-85360800D01*
X131348707Y-85368397D01*
X131348707Y-85368397D01*
G37*
G36*
X140708707Y-85368397D02*
X140785836Y-85375993D01*
X140917787Y-85416020D01*
X140983763Y-85436033D01*
X141166172Y-85533533D01*
X141326054Y-85664746D01*
X141457267Y-85824628D01*
X141554767Y-86007037D01*
X141554767Y-86007038D01*
X141614807Y-86204964D01*
X141635080Y-86410800D01*
X141614807Y-86616636D01*
X141574780Y-86748587D01*
X141554767Y-86814563D01*
X141457267Y-86996972D01*
X141326054Y-87156854D01*
X141166172Y-87288067D01*
X140983763Y-87385567D01*
X140917787Y-87405580D01*
X140785836Y-87445607D01*
X140708707Y-87453204D01*
X140631580Y-87460800D01*
X140528420Y-87460800D01*
X140451293Y-87453204D01*
X140374164Y-87445607D01*
X140242213Y-87405580D01*
X140176237Y-87385567D01*
X139993828Y-87288067D01*
X139833949Y-87156857D01*
X139833948Y-87156855D01*
X139833946Y-87156854D01*
X139833653Y-87156497D01*
X139816330Y-87139174D01*
X139795955Y-87125560D01*
X139773316Y-87116183D01*
X139749283Y-87111402D01*
X139737030Y-87110800D01*
X136650000Y-87110800D01*
X136650000Y-85710800D01*
X139737030Y-85710800D01*
X139761416Y-85708398D01*
X139784865Y-85701285D01*
X139806476Y-85689734D01*
X139825418Y-85674188D01*
X139833650Y-85665107D01*
X139833946Y-85664746D01*
X139833948Y-85664745D01*
X139833949Y-85664743D01*
X139993828Y-85533533D01*
X140176237Y-85436033D01*
X140242213Y-85416020D01*
X140374164Y-85375993D01*
X140451293Y-85368397D01*
X140528420Y-85360800D01*
X140631580Y-85360800D01*
X140708707Y-85368397D01*
X140708707Y-85368397D01*
G37*
G36*
X131348707Y-82828396D02*
X131425836Y-82835993D01*
X131557787Y-82876020D01*
X131623763Y-82896033D01*
X131806172Y-82993533D01*
X131966051Y-83124743D01*
X131966052Y-83124745D01*
X131966054Y-83124746D01*
X131966347Y-83125103D01*
X131983670Y-83142426D01*
X132004045Y-83156040D01*
X132026684Y-83165417D01*
X132050717Y-83170198D01*
X132062970Y-83170800D01*
X135150000Y-83170800D01*
X135150000Y-84570800D01*
X132062970Y-84570800D01*
X132038584Y-84573202D01*
X132015135Y-84580315D01*
X131993524Y-84591866D01*
X131974582Y-84607412D01*
X131966350Y-84616493D01*
X131966054Y-84616854D01*
X131966052Y-84616855D01*
X131966051Y-84616857D01*
X131806172Y-84748067D01*
X131623763Y-84845567D01*
X131557787Y-84865580D01*
X131425836Y-84905607D01*
X131348707Y-84913203D01*
X131271580Y-84920800D01*
X131168420Y-84920800D01*
X131091293Y-84913203D01*
X131014164Y-84905607D01*
X130882213Y-84865580D01*
X130816237Y-84845567D01*
X130633828Y-84748067D01*
X130473946Y-84616854D01*
X130342733Y-84456972D01*
X130245233Y-84274563D01*
X130225220Y-84208587D01*
X130185193Y-84076636D01*
X130164920Y-83870800D01*
X130185193Y-83664964D01*
X130245233Y-83467038D01*
X130245233Y-83467037D01*
X130342733Y-83284628D01*
X130473946Y-83124746D01*
X130633828Y-82993533D01*
X130816237Y-82896033D01*
X130882213Y-82876020D01*
X131014164Y-82835993D01*
X131091293Y-82828396D01*
X131168420Y-82820800D01*
X131271580Y-82820800D01*
X131348707Y-82828396D01*
X131348707Y-82828396D01*
G37*
G36*
X140708707Y-82828396D02*
X140785836Y-82835993D01*
X140917787Y-82876020D01*
X140983763Y-82896033D01*
X141166172Y-82993533D01*
X141326054Y-83124746D01*
X141457267Y-83284628D01*
X141554767Y-83467037D01*
X141554767Y-83467038D01*
X141614807Y-83664964D01*
X141635080Y-83870800D01*
X141614807Y-84076636D01*
X141574780Y-84208587D01*
X141554767Y-84274563D01*
X141457267Y-84456972D01*
X141326054Y-84616854D01*
X141166172Y-84748067D01*
X140983763Y-84845567D01*
X140917787Y-84865580D01*
X140785836Y-84905607D01*
X140708707Y-84913203D01*
X140631580Y-84920800D01*
X140528420Y-84920800D01*
X140451293Y-84913203D01*
X140374164Y-84905607D01*
X140242213Y-84865580D01*
X140176237Y-84845567D01*
X139993828Y-84748067D01*
X139833949Y-84616857D01*
X139833948Y-84616855D01*
X139833946Y-84616854D01*
X139833653Y-84616497D01*
X139816330Y-84599174D01*
X139795955Y-84585560D01*
X139773316Y-84576183D01*
X139749283Y-84571402D01*
X139737030Y-84570800D01*
X136650000Y-84570800D01*
X136650000Y-83170800D01*
X139737030Y-83170800D01*
X139761416Y-83168398D01*
X139784865Y-83161285D01*
X139806476Y-83149734D01*
X139825418Y-83134188D01*
X139833650Y-83125107D01*
X139833946Y-83124746D01*
X139833948Y-83124745D01*
X139833949Y-83124743D01*
X139993828Y-82993533D01*
X140176237Y-82896033D01*
X140242213Y-82876020D01*
X140374164Y-82835993D01*
X140451293Y-82828396D01*
X140528420Y-82820800D01*
X140631580Y-82820800D01*
X140708707Y-82828396D01*
X140708707Y-82828396D01*
G37*
G36*
X140708707Y-80288397D02*
X140785836Y-80295993D01*
X140917787Y-80336020D01*
X140983763Y-80356033D01*
X141166172Y-80453533D01*
X141326054Y-80584746D01*
X141457267Y-80744628D01*
X141554767Y-80927037D01*
X141554767Y-80927038D01*
X141614807Y-81124964D01*
X141635080Y-81330800D01*
X141614807Y-81536636D01*
X141574780Y-81668587D01*
X141554767Y-81734563D01*
X141457267Y-81916972D01*
X141326054Y-82076854D01*
X141166172Y-82208067D01*
X140983763Y-82305567D01*
X140917787Y-82325580D01*
X140785836Y-82365607D01*
X140708707Y-82373204D01*
X140631580Y-82380800D01*
X140528420Y-82380800D01*
X140451293Y-82373204D01*
X140374164Y-82365607D01*
X140242213Y-82325580D01*
X140176237Y-82305567D01*
X139993828Y-82208067D01*
X139833949Y-82076857D01*
X139833948Y-82076855D01*
X139833946Y-82076854D01*
X139833653Y-82076497D01*
X139816330Y-82059174D01*
X139795955Y-82045560D01*
X139773316Y-82036183D01*
X139749283Y-82031402D01*
X139737030Y-82030800D01*
X136650000Y-82030800D01*
X136650000Y-80630800D01*
X139737030Y-80630800D01*
X139761416Y-80628398D01*
X139784865Y-80621285D01*
X139806476Y-80609734D01*
X139825418Y-80594188D01*
X139833650Y-80585107D01*
X139833946Y-80584746D01*
X139833948Y-80584745D01*
X139833949Y-80584743D01*
X139993828Y-80453533D01*
X140176237Y-80356033D01*
X140242213Y-80336020D01*
X140374164Y-80295993D01*
X140451293Y-80288397D01*
X140528420Y-80280800D01*
X140631580Y-80280800D01*
X140708707Y-80288397D01*
X140708707Y-80288397D01*
G37*
G36*
X131348707Y-80288397D02*
X131425836Y-80295993D01*
X131557787Y-80336020D01*
X131623763Y-80356033D01*
X131806172Y-80453533D01*
X131966051Y-80584743D01*
X131966052Y-80584745D01*
X131966054Y-80584746D01*
X131966347Y-80585103D01*
X131983670Y-80602426D01*
X132004045Y-80616040D01*
X132026684Y-80625417D01*
X132050717Y-80630198D01*
X132062970Y-80630800D01*
X135150000Y-80630800D01*
X135150000Y-82030800D01*
X132062970Y-82030800D01*
X132038584Y-82033202D01*
X132015135Y-82040315D01*
X131993524Y-82051866D01*
X131974582Y-82067412D01*
X131966350Y-82076493D01*
X131966054Y-82076854D01*
X131966052Y-82076855D01*
X131966051Y-82076857D01*
X131806172Y-82208067D01*
X131623763Y-82305567D01*
X131557787Y-82325580D01*
X131425836Y-82365607D01*
X131348707Y-82373204D01*
X131271580Y-82380800D01*
X131168420Y-82380800D01*
X131091293Y-82373204D01*
X131014164Y-82365607D01*
X130882213Y-82325580D01*
X130816237Y-82305567D01*
X130633828Y-82208067D01*
X130473946Y-82076854D01*
X130342733Y-81916972D01*
X130245233Y-81734563D01*
X130225220Y-81668587D01*
X130185193Y-81536636D01*
X130164920Y-81330800D01*
X130185193Y-81124964D01*
X130245233Y-80927038D01*
X130245233Y-80927037D01*
X130342733Y-80744628D01*
X130473946Y-80584746D01*
X130633828Y-80453533D01*
X130816237Y-80356033D01*
X130882213Y-80336020D01*
X131014164Y-80295993D01*
X131091293Y-80288397D01*
X131168420Y-80280800D01*
X131271580Y-80280800D01*
X131348707Y-80288397D01*
X131348707Y-80288397D01*
G37*
G36*
X131348707Y-77748396D02*
X131425836Y-77755993D01*
X131557787Y-77796020D01*
X131623763Y-77816033D01*
X131806172Y-77913533D01*
X131966051Y-78044743D01*
X131966052Y-78044745D01*
X131966054Y-78044746D01*
X131966347Y-78045103D01*
X131983670Y-78062426D01*
X132004045Y-78076040D01*
X132026684Y-78085417D01*
X132050717Y-78090198D01*
X132062970Y-78090800D01*
X135150000Y-78090800D01*
X135150000Y-79490800D01*
X132062970Y-79490800D01*
X132038584Y-79493202D01*
X132015135Y-79500315D01*
X131993524Y-79511866D01*
X131974582Y-79527412D01*
X131966350Y-79536493D01*
X131966054Y-79536854D01*
X131966052Y-79536855D01*
X131966051Y-79536857D01*
X131806172Y-79668067D01*
X131623763Y-79765567D01*
X131557787Y-79785580D01*
X131425836Y-79825607D01*
X131348707Y-79833203D01*
X131271580Y-79840800D01*
X131168420Y-79840800D01*
X131091293Y-79833203D01*
X131014164Y-79825607D01*
X130882213Y-79785580D01*
X130816237Y-79765567D01*
X130633828Y-79668067D01*
X130473946Y-79536854D01*
X130342733Y-79376972D01*
X130245233Y-79194563D01*
X130225220Y-79128587D01*
X130185193Y-78996636D01*
X130164920Y-78790800D01*
X130185193Y-78584964D01*
X130245233Y-78387038D01*
X130245233Y-78387037D01*
X130342733Y-78204628D01*
X130473946Y-78044746D01*
X130633828Y-77913533D01*
X130816237Y-77816033D01*
X130882213Y-77796020D01*
X131014164Y-77755993D01*
X131091293Y-77748396D01*
X131168420Y-77740800D01*
X131271580Y-77740800D01*
X131348707Y-77748396D01*
X131348707Y-77748396D01*
G37*
G36*
X140708707Y-77748396D02*
X140785836Y-77755993D01*
X140917787Y-77796020D01*
X140983763Y-77816033D01*
X141166172Y-77913533D01*
X141326054Y-78044746D01*
X141457267Y-78204628D01*
X141554767Y-78387037D01*
X141554767Y-78387038D01*
X141614807Y-78584964D01*
X141635080Y-78790800D01*
X141614807Y-78996636D01*
X141574780Y-79128587D01*
X141554767Y-79194563D01*
X141457267Y-79376972D01*
X141326054Y-79536854D01*
X141166172Y-79668067D01*
X140983763Y-79765567D01*
X140917787Y-79785580D01*
X140785836Y-79825607D01*
X140708707Y-79833203D01*
X140631580Y-79840800D01*
X140528420Y-79840800D01*
X140451293Y-79833203D01*
X140374164Y-79825607D01*
X140242213Y-79785580D01*
X140176237Y-79765567D01*
X139993828Y-79668067D01*
X139833949Y-79536857D01*
X139833948Y-79536855D01*
X139833946Y-79536854D01*
X139833653Y-79536497D01*
X139816330Y-79519174D01*
X139795955Y-79505560D01*
X139773316Y-79496183D01*
X139749283Y-79491402D01*
X139737030Y-79490800D01*
X136650000Y-79490800D01*
X136650000Y-78090800D01*
X139737030Y-78090800D01*
X139761416Y-78088398D01*
X139784865Y-78081285D01*
X139806476Y-78069734D01*
X139825418Y-78054188D01*
X139833650Y-78045107D01*
X139833946Y-78044746D01*
X139833948Y-78044745D01*
X139833949Y-78044743D01*
X139993828Y-77913533D01*
X140176237Y-77816033D01*
X140242213Y-77796020D01*
X140374164Y-77755993D01*
X140451293Y-77748396D01*
X140528420Y-77740800D01*
X140631580Y-77740800D01*
X140708707Y-77748396D01*
X140708707Y-77748396D01*
G37*
G36*
X131348707Y-75208397D02*
X131425836Y-75215993D01*
X131557787Y-75256020D01*
X131623763Y-75276033D01*
X131806172Y-75373533D01*
X131966051Y-75504743D01*
X131966052Y-75504745D01*
X131966054Y-75504746D01*
X131966347Y-75505103D01*
X131983670Y-75522426D01*
X132004045Y-75536040D01*
X132026684Y-75545417D01*
X132050717Y-75550198D01*
X132062970Y-75550800D01*
X135150000Y-75550800D01*
X135150000Y-76950800D01*
X132062970Y-76950800D01*
X132038584Y-76953202D01*
X132015135Y-76960315D01*
X131993524Y-76971866D01*
X131974582Y-76987412D01*
X131966350Y-76996493D01*
X131966054Y-76996854D01*
X131966052Y-76996855D01*
X131966051Y-76996857D01*
X131806172Y-77128067D01*
X131623763Y-77225567D01*
X131557787Y-77245580D01*
X131425836Y-77285607D01*
X131348707Y-77293204D01*
X131271580Y-77300800D01*
X131168420Y-77300800D01*
X131091293Y-77293204D01*
X131014164Y-77285607D01*
X130882213Y-77245580D01*
X130816237Y-77225567D01*
X130633828Y-77128067D01*
X130473946Y-76996854D01*
X130342733Y-76836972D01*
X130245233Y-76654563D01*
X130225220Y-76588587D01*
X130185193Y-76456636D01*
X130164920Y-76250800D01*
X130185193Y-76044964D01*
X130245233Y-75847038D01*
X130245233Y-75847037D01*
X130342733Y-75664628D01*
X130473946Y-75504746D01*
X130633828Y-75373533D01*
X130816237Y-75276033D01*
X130882213Y-75256020D01*
X131014164Y-75215993D01*
X131091293Y-75208397D01*
X131168420Y-75200800D01*
X131271580Y-75200800D01*
X131348707Y-75208397D01*
X131348707Y-75208397D01*
G37*
G36*
X140708707Y-75208397D02*
X140785836Y-75215993D01*
X140917787Y-75256020D01*
X140983763Y-75276033D01*
X141166172Y-75373533D01*
X141326054Y-75504746D01*
X141457267Y-75664628D01*
X141554767Y-75847037D01*
X141554767Y-75847038D01*
X141614807Y-76044964D01*
X141635080Y-76250800D01*
X141614807Y-76456636D01*
X141574780Y-76588587D01*
X141554767Y-76654563D01*
X141457267Y-76836972D01*
X141326054Y-76996854D01*
X141166172Y-77128067D01*
X140983763Y-77225567D01*
X140917787Y-77245580D01*
X140785836Y-77285607D01*
X140708707Y-77293204D01*
X140631580Y-77300800D01*
X140528420Y-77300800D01*
X140451293Y-77293204D01*
X140374164Y-77285607D01*
X140242213Y-77245580D01*
X140176237Y-77225567D01*
X139993828Y-77128067D01*
X139833949Y-76996857D01*
X139833948Y-76996855D01*
X139833946Y-76996854D01*
X139833653Y-76996497D01*
X139816330Y-76979174D01*
X139795955Y-76965560D01*
X139773316Y-76956183D01*
X139749283Y-76951402D01*
X139737030Y-76950800D01*
X136650000Y-76950800D01*
X136650000Y-75550800D01*
X139737030Y-75550800D01*
X139761416Y-75548398D01*
X139784865Y-75541285D01*
X139806476Y-75529734D01*
X139825418Y-75514188D01*
X139833650Y-75505107D01*
X139833946Y-75504746D01*
X139833948Y-75504745D01*
X139833949Y-75504743D01*
X139993828Y-75373533D01*
X140176237Y-75276033D01*
X140242213Y-75256020D01*
X140374164Y-75215993D01*
X140451293Y-75208397D01*
X140528420Y-75200800D01*
X140631580Y-75200800D01*
X140708707Y-75208397D01*
X140708707Y-75208397D01*
G37*
G36*
X140708707Y-72668397D02*
X140785836Y-72675993D01*
X140917787Y-72716020D01*
X140983763Y-72736033D01*
X141166172Y-72833533D01*
X141326054Y-72964746D01*
X141457267Y-73124628D01*
X141554767Y-73307037D01*
X141554767Y-73307038D01*
X141614807Y-73504964D01*
X141635080Y-73710800D01*
X141614807Y-73916636D01*
X141574780Y-74048587D01*
X141554767Y-74114563D01*
X141457267Y-74296972D01*
X141326054Y-74456854D01*
X141166172Y-74588067D01*
X140983763Y-74685567D01*
X140917787Y-74705580D01*
X140785836Y-74745607D01*
X140708707Y-74753203D01*
X140631580Y-74760800D01*
X140528420Y-74760800D01*
X140451293Y-74753203D01*
X140374164Y-74745607D01*
X140242213Y-74705580D01*
X140176237Y-74685567D01*
X139993828Y-74588067D01*
X139833949Y-74456857D01*
X139833948Y-74456855D01*
X139833946Y-74456854D01*
X139833653Y-74456497D01*
X139816330Y-74439174D01*
X139795955Y-74425560D01*
X139773316Y-74416183D01*
X139749283Y-74411402D01*
X139737030Y-74410800D01*
X136650000Y-74410800D01*
X136650000Y-73010800D01*
X139737030Y-73010800D01*
X139761416Y-73008398D01*
X139784865Y-73001285D01*
X139806476Y-72989734D01*
X139825418Y-72974188D01*
X139833650Y-72965107D01*
X139833946Y-72964746D01*
X139833948Y-72964745D01*
X139833949Y-72964743D01*
X139993828Y-72833533D01*
X140176237Y-72736033D01*
X140242213Y-72716020D01*
X140374164Y-72675993D01*
X140451293Y-72668397D01*
X140528420Y-72660800D01*
X140631580Y-72660800D01*
X140708707Y-72668397D01*
X140708707Y-72668397D01*
G37*
G36*
X131348707Y-72668397D02*
X131425836Y-72675993D01*
X131557787Y-72716020D01*
X131623763Y-72736033D01*
X131806172Y-72833533D01*
X131966051Y-72964743D01*
X131966052Y-72964745D01*
X131966054Y-72964746D01*
X131966347Y-72965103D01*
X131983670Y-72982426D01*
X132004045Y-72996040D01*
X132026684Y-73005417D01*
X132050717Y-73010198D01*
X132062970Y-73010800D01*
X135150000Y-73010800D01*
X135150000Y-74410800D01*
X132062970Y-74410800D01*
X132038584Y-74413202D01*
X132015135Y-74420315D01*
X131993524Y-74431866D01*
X131974582Y-74447412D01*
X131966350Y-74456493D01*
X131966054Y-74456854D01*
X131966052Y-74456855D01*
X131966051Y-74456857D01*
X131806172Y-74588067D01*
X131623763Y-74685567D01*
X131557787Y-74705580D01*
X131425836Y-74745607D01*
X131348707Y-74753203D01*
X131271580Y-74760800D01*
X131168420Y-74760800D01*
X131091293Y-74753203D01*
X131014164Y-74745607D01*
X130882213Y-74705580D01*
X130816237Y-74685567D01*
X130633828Y-74588067D01*
X130473946Y-74456854D01*
X130342733Y-74296972D01*
X130245233Y-74114563D01*
X130225220Y-74048587D01*
X130185193Y-73916636D01*
X130164920Y-73710800D01*
X130185193Y-73504964D01*
X130245233Y-73307038D01*
X130245233Y-73307037D01*
X130342733Y-73124628D01*
X130473946Y-72964746D01*
X130633828Y-72833533D01*
X130816237Y-72736033D01*
X130882213Y-72716020D01*
X131014164Y-72675993D01*
X131091293Y-72668397D01*
X131168420Y-72660800D01*
X131271580Y-72660800D01*
X131348707Y-72668397D01*
X131348707Y-72668397D01*
G37*
G36*
X140708707Y-70128396D02*
X140785836Y-70135993D01*
X140917787Y-70176020D01*
X140983763Y-70196033D01*
X141166172Y-70293533D01*
X141326054Y-70424746D01*
X141457267Y-70584628D01*
X141554767Y-70767037D01*
X141554767Y-70767038D01*
X141614807Y-70964964D01*
X141635080Y-71170800D01*
X141614807Y-71376636D01*
X141574780Y-71508587D01*
X141554767Y-71574563D01*
X141457267Y-71756972D01*
X141326054Y-71916854D01*
X141166172Y-72048067D01*
X140983763Y-72145567D01*
X140917787Y-72165580D01*
X140785836Y-72205607D01*
X140708707Y-72213204D01*
X140631580Y-72220800D01*
X140528420Y-72220800D01*
X140451293Y-72213204D01*
X140374164Y-72205607D01*
X140242213Y-72165580D01*
X140176237Y-72145567D01*
X139993828Y-72048067D01*
X139833949Y-71916857D01*
X139833948Y-71916855D01*
X139833946Y-71916854D01*
X139833653Y-71916497D01*
X139816330Y-71899174D01*
X139795955Y-71885560D01*
X139773316Y-71876183D01*
X139749283Y-71871402D01*
X139737030Y-71870800D01*
X136650000Y-71870800D01*
X136650000Y-70470800D01*
X139737030Y-70470800D01*
X139761416Y-70468398D01*
X139784865Y-70461285D01*
X139806476Y-70449734D01*
X139825418Y-70434188D01*
X139833650Y-70425107D01*
X139833946Y-70424746D01*
X139833948Y-70424745D01*
X139833949Y-70424743D01*
X139993828Y-70293533D01*
X140176237Y-70196033D01*
X140242213Y-70176020D01*
X140374164Y-70135993D01*
X140451293Y-70128396D01*
X140528420Y-70120800D01*
X140631580Y-70120800D01*
X140708707Y-70128396D01*
X140708707Y-70128396D01*
G37*
G36*
X131348707Y-70128396D02*
X131425836Y-70135993D01*
X131557787Y-70176020D01*
X131623763Y-70196033D01*
X131806172Y-70293533D01*
X131966051Y-70424743D01*
X131966052Y-70424745D01*
X131966054Y-70424746D01*
X131966347Y-70425103D01*
X131983670Y-70442426D01*
X132004045Y-70456040D01*
X132026684Y-70465417D01*
X132050717Y-70470198D01*
X132062970Y-70470800D01*
X135150000Y-70470800D01*
X135150000Y-71870800D01*
X132062970Y-71870800D01*
X132038584Y-71873202D01*
X132015135Y-71880315D01*
X131993524Y-71891866D01*
X131974582Y-71907412D01*
X131966350Y-71916493D01*
X131966054Y-71916854D01*
X131966052Y-71916855D01*
X131966051Y-71916857D01*
X131806172Y-72048067D01*
X131623763Y-72145567D01*
X131557787Y-72165580D01*
X131425836Y-72205607D01*
X131348707Y-72213204D01*
X131271580Y-72220800D01*
X131168420Y-72220800D01*
X131091293Y-72213204D01*
X131014164Y-72205607D01*
X130882213Y-72165580D01*
X130816237Y-72145567D01*
X130633828Y-72048067D01*
X130473946Y-71916854D01*
X130342733Y-71756972D01*
X130245233Y-71574563D01*
X130225220Y-71508587D01*
X130185193Y-71376636D01*
X130164920Y-71170800D01*
X130185193Y-70964964D01*
X130245233Y-70767038D01*
X130245233Y-70767037D01*
X130342733Y-70584628D01*
X130473946Y-70424746D01*
X130633828Y-70293533D01*
X130816237Y-70196033D01*
X130882213Y-70176020D01*
X131014164Y-70135993D01*
X131091293Y-70128396D01*
X131168420Y-70120800D01*
X131271580Y-70120800D01*
X131348707Y-70128396D01*
X131348707Y-70128396D01*
G37*
G36*
X131348707Y-67588397D02*
X131425836Y-67595993D01*
X131557787Y-67636020D01*
X131623763Y-67656033D01*
X131806172Y-67753533D01*
X131966051Y-67884743D01*
X131966052Y-67884745D01*
X131966054Y-67884746D01*
X131966347Y-67885103D01*
X131983670Y-67902426D01*
X132004045Y-67916040D01*
X132026684Y-67925417D01*
X132050717Y-67930198D01*
X132062970Y-67930800D01*
X135150000Y-67930800D01*
X135150000Y-69330800D01*
X132062970Y-69330800D01*
X132038584Y-69333202D01*
X132015135Y-69340315D01*
X131993524Y-69351866D01*
X131974582Y-69367412D01*
X131966350Y-69376493D01*
X131966054Y-69376854D01*
X131966052Y-69376855D01*
X131966051Y-69376857D01*
X131806172Y-69508067D01*
X131623763Y-69605567D01*
X131557787Y-69625580D01*
X131425836Y-69665607D01*
X131348707Y-69673204D01*
X131271580Y-69680800D01*
X131168420Y-69680800D01*
X131091293Y-69673204D01*
X131014164Y-69665607D01*
X130882213Y-69625580D01*
X130816237Y-69605567D01*
X130633828Y-69508067D01*
X130473946Y-69376854D01*
X130342733Y-69216972D01*
X130245233Y-69034563D01*
X130225220Y-68968587D01*
X130185193Y-68836636D01*
X130164920Y-68630800D01*
X130185193Y-68424964D01*
X130245233Y-68227038D01*
X130245233Y-68227037D01*
X130342733Y-68044628D01*
X130473946Y-67884746D01*
X130633828Y-67753533D01*
X130816237Y-67656033D01*
X130882213Y-67636020D01*
X131014164Y-67595993D01*
X131091293Y-67588397D01*
X131168420Y-67580800D01*
X131271580Y-67580800D01*
X131348707Y-67588397D01*
X131348707Y-67588397D01*
G37*
G36*
X140708707Y-67588397D02*
X140785836Y-67595993D01*
X140917787Y-67636020D01*
X140983763Y-67656033D01*
X141166172Y-67753533D01*
X141326054Y-67884746D01*
X141457267Y-68044628D01*
X141554767Y-68227037D01*
X141554767Y-68227038D01*
X141614807Y-68424964D01*
X141635080Y-68630800D01*
X141614807Y-68836636D01*
X141574780Y-68968587D01*
X141554767Y-69034563D01*
X141457267Y-69216972D01*
X141326054Y-69376854D01*
X141166172Y-69508067D01*
X140983763Y-69605567D01*
X140917787Y-69625580D01*
X140785836Y-69665607D01*
X140708707Y-69673204D01*
X140631580Y-69680800D01*
X140528420Y-69680800D01*
X140451293Y-69673204D01*
X140374164Y-69665607D01*
X140242213Y-69625580D01*
X140176237Y-69605567D01*
X139993828Y-69508067D01*
X139833949Y-69376857D01*
X139833948Y-69376855D01*
X139833946Y-69376854D01*
X139833653Y-69376497D01*
X139816330Y-69359174D01*
X139795955Y-69345560D01*
X139773316Y-69336183D01*
X139749283Y-69331402D01*
X139737030Y-69330800D01*
X136650000Y-69330800D01*
X136650000Y-67930800D01*
X139737030Y-67930800D01*
X139761416Y-67928398D01*
X139784865Y-67921285D01*
X139806476Y-67909734D01*
X139825418Y-67894188D01*
X139833650Y-67885107D01*
X139833946Y-67884746D01*
X139833948Y-67884745D01*
X139833949Y-67884743D01*
X139993828Y-67753533D01*
X140176237Y-67656033D01*
X140242213Y-67636020D01*
X140374164Y-67595993D01*
X140451293Y-67588397D01*
X140528420Y-67580800D01*
X140631580Y-67580800D01*
X140708707Y-67588397D01*
X140708707Y-67588397D01*
G37*
G36*
X136047738Y-66727453D02*
X136089598Y-66735779D01*
X136124245Y-66750130D01*
X136207890Y-66784777D01*
X136314354Y-66855914D01*
X136404886Y-66946446D01*
X136421066Y-66970661D01*
X136426656Y-66977473D01*
X136430811Y-66985246D01*
X136476023Y-67052911D01*
X136525021Y-67171203D01*
X136550000Y-67296779D01*
X136550000Y-67424821D01*
X136525021Y-67550397D01*
X136476023Y-67668689D01*
X136430811Y-67736354D01*
X136426656Y-67744128D01*
X136421066Y-67750939D01*
X136404886Y-67775154D01*
X136314354Y-67865686D01*
X136207890Y-67936823D01*
X136124245Y-67971470D01*
X136089598Y-67985821D01*
X136047738Y-67994147D01*
X135964021Y-68010800D01*
X135835979Y-68010800D01*
X135752262Y-67994147D01*
X135710402Y-67985821D01*
X135675755Y-67971470D01*
X135592110Y-67936823D01*
X135485646Y-67865686D01*
X135395114Y-67775154D01*
X135378934Y-67750939D01*
X135373344Y-67744127D01*
X135369189Y-67736354D01*
X135323977Y-67668689D01*
X135274979Y-67550397D01*
X135250000Y-67424821D01*
X135250000Y-67296779D01*
X135274979Y-67171203D01*
X135323977Y-67052911D01*
X135369189Y-66985246D01*
X135373344Y-66977472D01*
X135378934Y-66970661D01*
X135395114Y-66946446D01*
X135485646Y-66855914D01*
X135592110Y-66784777D01*
X135675755Y-66750130D01*
X135710402Y-66735779D01*
X135752262Y-66727453D01*
X135835979Y-66710800D01*
X135964021Y-66710800D01*
X136047738Y-66727453D01*
X136047738Y-66727453D01*
G37*
G36*
X140708707Y-65048396D02*
X140785836Y-65055993D01*
X140917787Y-65096020D01*
X140983763Y-65116033D01*
X141166172Y-65213533D01*
X141326054Y-65344746D01*
X141457267Y-65504628D01*
X141554767Y-65687037D01*
X141554767Y-65687038D01*
X141614807Y-65884964D01*
X141635080Y-66090800D01*
X141614807Y-66296636D01*
X141574780Y-66428587D01*
X141554767Y-66494563D01*
X141457267Y-66676972D01*
X141326054Y-66836854D01*
X141166172Y-66968067D01*
X140983763Y-67065567D01*
X140917787Y-67085580D01*
X140785836Y-67125607D01*
X140708707Y-67133204D01*
X140631580Y-67140800D01*
X140528420Y-67140800D01*
X140451293Y-67133204D01*
X140374164Y-67125607D01*
X140242213Y-67085580D01*
X140176237Y-67065567D01*
X139993828Y-66968067D01*
X139833949Y-66836857D01*
X139833948Y-66836855D01*
X139833946Y-66836854D01*
X139833653Y-66836497D01*
X139816330Y-66819174D01*
X139795955Y-66805560D01*
X139773316Y-66796183D01*
X139749283Y-66791402D01*
X139737030Y-66790800D01*
X136650000Y-66790800D01*
X136650000Y-65390800D01*
X139737030Y-65390800D01*
X139761416Y-65388398D01*
X139784865Y-65381285D01*
X139806476Y-65369734D01*
X139825418Y-65354188D01*
X139833650Y-65345107D01*
X139833946Y-65344746D01*
X139833948Y-65344745D01*
X139833949Y-65344743D01*
X139993828Y-65213533D01*
X140176237Y-65116033D01*
X140242213Y-65096020D01*
X140374164Y-65055993D01*
X140451293Y-65048396D01*
X140528420Y-65040800D01*
X140631580Y-65040800D01*
X140708707Y-65048396D01*
X140708707Y-65048396D01*
G37*
G36*
X131348707Y-65048396D02*
X131425836Y-65055993D01*
X131557787Y-65096020D01*
X131623763Y-65116033D01*
X131806172Y-65213533D01*
X131966051Y-65344743D01*
X131966052Y-65344745D01*
X131966054Y-65344746D01*
X131966347Y-65345103D01*
X131983670Y-65362426D01*
X132004045Y-65376040D01*
X132026684Y-65385417D01*
X132050717Y-65390198D01*
X132062970Y-65390800D01*
X135150000Y-65390800D01*
X135150000Y-66790800D01*
X132062970Y-66790800D01*
X132038584Y-66793202D01*
X132015135Y-66800315D01*
X131993524Y-66811866D01*
X131974582Y-66827412D01*
X131966350Y-66836493D01*
X131966054Y-66836854D01*
X131966052Y-66836855D01*
X131966051Y-66836857D01*
X131806172Y-66968067D01*
X131623763Y-67065567D01*
X131557787Y-67085580D01*
X131425836Y-67125607D01*
X131348707Y-67133204D01*
X131271580Y-67140800D01*
X131168420Y-67140800D01*
X131091293Y-67133204D01*
X131014164Y-67125607D01*
X130882213Y-67085580D01*
X130816237Y-67065567D01*
X130633828Y-66968067D01*
X130473946Y-66836854D01*
X130342733Y-66676972D01*
X130245233Y-66494563D01*
X130225220Y-66428587D01*
X130185193Y-66296636D01*
X130164920Y-66090800D01*
X130185193Y-65884964D01*
X130245233Y-65687038D01*
X130245233Y-65687037D01*
X130342733Y-65504628D01*
X130473946Y-65344746D01*
X130633828Y-65213533D01*
X130816237Y-65116033D01*
X130882213Y-65096020D01*
X131014164Y-65055993D01*
X131091293Y-65048396D01*
X131168420Y-65040800D01*
X131271580Y-65040800D01*
X131348707Y-65048396D01*
X131348707Y-65048396D01*
G37*
G36*
X141630000Y-64600800D02*
X139530000Y-64600800D01*
X139530000Y-64375800D01*
X139527598Y-64351414D01*
X139520485Y-64327965D01*
X139508934Y-64306354D01*
X139493388Y-64287412D01*
X139474446Y-64271866D01*
X139452835Y-64260315D01*
X139429386Y-64253202D01*
X139405000Y-64250800D01*
X136650000Y-64250800D01*
X136650000Y-62850800D01*
X139405000Y-62850800D01*
X139429386Y-62848398D01*
X139452835Y-62841285D01*
X139474446Y-62829734D01*
X139493388Y-62814188D01*
X139508934Y-62795246D01*
X139520485Y-62773635D01*
X139527598Y-62750186D01*
X139530000Y-62725800D01*
X139530000Y-62500800D01*
X141630000Y-62500800D01*
X141630000Y-64600800D01*
X141630000Y-64600800D01*
G37*
G36*
X132270000Y-62725800D02*
X132272402Y-62750186D01*
X132279515Y-62773635D01*
X132291066Y-62795246D01*
X132306612Y-62814188D01*
X132325554Y-62829734D01*
X132347165Y-62841285D01*
X132370614Y-62848398D01*
X132395000Y-62850800D01*
X135150000Y-62850800D01*
X135150000Y-64250800D01*
X132395000Y-64250800D01*
X132370614Y-64253202D01*
X132347165Y-64260315D01*
X132325554Y-64271866D01*
X132306612Y-64287412D01*
X132291066Y-64306354D01*
X132279515Y-64327965D01*
X132272402Y-64351414D01*
X132270000Y-64375800D01*
X132270000Y-64600800D01*
X130170000Y-64600800D01*
X130170000Y-62500800D01*
X132270000Y-62500800D01*
X132270000Y-62725800D01*
X132270000Y-62725800D01*
G37*
M02*
