G04 #@! TF.GenerationSoftware,KiCad,Pcbnew,5.0.2-bee76a0~70~ubuntu18.04.1*
G04 #@! TF.CreationDate,2019-05-05T14:28:11+09:00*
G04 #@! TF.ProjectId,spacer_pcb,73706163-6572-45f7-9063-622e6b696361,rev?*
G04 #@! TF.SameCoordinates,Original*
G04 #@! TF.FileFunction,Soldermask,Bot*
G04 #@! TF.FilePolarity,Negative*
%FSLAX46Y46*%
G04 Gerber Fmt 4.6, Leading zero omitted, Abs format (unit mm)*
G04 Created by KiCad (PCBNEW 5.0.2-bee76a0~70~ubuntu18.04.1) date 2019年05月05日 14時28分11秒*
%MOMM*%
%LPD*%
G01*
G04 APERTURE LIST*
%ADD10C,0.100000*%
G04 APERTURE END LIST*
D10*
G36*
X126471718Y-95276411D02*
X126544167Y-95290822D01*
X126589496Y-95309598D01*
X126680657Y-95347358D01*
X126803500Y-95429439D01*
X126907961Y-95533900D01*
X126990042Y-95656743D01*
X127046578Y-95793234D01*
X127075400Y-95938130D01*
X127075400Y-96085870D01*
X127046578Y-96230766D01*
X126990042Y-96367257D01*
X126907961Y-96490100D01*
X126803500Y-96594561D01*
X126680657Y-96676642D01*
X126619748Y-96701871D01*
X126544167Y-96733178D01*
X126471718Y-96747589D01*
X126399270Y-96762000D01*
X126251530Y-96762000D01*
X126106633Y-96733178D01*
X126078476Y-96721515D01*
X126055027Y-96714402D01*
X126030641Y-96712000D01*
X125291010Y-96712000D01*
X125188176Y-96701872D01*
X125056225Y-96661845D01*
X124934619Y-96596845D01*
X124828030Y-96509370D01*
X124740555Y-96402781D01*
X124675555Y-96281175D01*
X124635528Y-96149224D01*
X124622013Y-96012000D01*
X124635528Y-95874776D01*
X124675555Y-95742825D01*
X124740555Y-95621219D01*
X124828030Y-95514630D01*
X124934619Y-95427155D01*
X125056225Y-95362155D01*
X125188176Y-95322128D01*
X125291010Y-95312000D01*
X126030641Y-95312000D01*
X126055027Y-95309598D01*
X126078476Y-95302485D01*
X126106633Y-95290822D01*
X126251530Y-95262000D01*
X126399270Y-95262000D01*
X126471718Y-95276411D01*
X126471718Y-95276411D01*
G37*
G36*
X117711718Y-95276411D02*
X117784167Y-95290822D01*
X117829496Y-95309598D01*
X117860608Y-95322485D01*
X117884057Y-95329598D01*
X117908443Y-95332000D01*
X118599790Y-95332000D01*
X118702624Y-95342128D01*
X118834575Y-95382155D01*
X118956181Y-95447155D01*
X119062770Y-95534630D01*
X119150245Y-95641219D01*
X119215245Y-95762825D01*
X119255272Y-95894776D01*
X119268787Y-96032000D01*
X119255272Y-96169224D01*
X119215245Y-96301175D01*
X119150245Y-96422781D01*
X119062770Y-96529370D01*
X118956181Y-96616845D01*
X118834575Y-96681845D01*
X118702624Y-96721872D01*
X118599790Y-96732000D01*
X117802399Y-96732000D01*
X117778014Y-96734402D01*
X117729623Y-96744027D01*
X117639270Y-96762000D01*
X117491530Y-96762000D01*
X117419082Y-96747589D01*
X117346633Y-96733178D01*
X117271052Y-96701871D01*
X117210143Y-96676642D01*
X117087300Y-96594561D01*
X116982839Y-96490100D01*
X116900758Y-96367257D01*
X116844222Y-96230766D01*
X116815400Y-96085870D01*
X116815400Y-95938130D01*
X116844222Y-95793234D01*
X116900758Y-95656743D01*
X116982839Y-95533900D01*
X117087300Y-95429439D01*
X117210143Y-95347358D01*
X117301304Y-95309598D01*
X117346633Y-95290822D01*
X117419082Y-95276411D01*
X117491530Y-95262000D01*
X117639270Y-95262000D01*
X117711718Y-95276411D01*
X117711718Y-95276411D01*
G37*
G36*
X117784167Y-92750822D02*
X117812324Y-92762485D01*
X117835773Y-92769598D01*
X117860159Y-92772000D01*
X118599790Y-92772000D01*
X118702624Y-92782128D01*
X118834575Y-92822155D01*
X118956181Y-92887155D01*
X119062770Y-92974630D01*
X119150245Y-93081219D01*
X119215245Y-93202825D01*
X119255272Y-93334776D01*
X119268787Y-93472000D01*
X119255272Y-93609224D01*
X119215245Y-93741175D01*
X119150245Y-93862781D01*
X119062770Y-93969370D01*
X118956181Y-94056845D01*
X118834575Y-94121845D01*
X118702624Y-94161872D01*
X118599790Y-94172000D01*
X117860159Y-94172000D01*
X117835773Y-94174402D01*
X117812324Y-94181515D01*
X117784167Y-94193178D01*
X117639270Y-94222000D01*
X117491530Y-94222000D01*
X117419082Y-94207589D01*
X117346633Y-94193178D01*
X117271052Y-94161871D01*
X117210143Y-94136642D01*
X117087300Y-94054561D01*
X116982839Y-93950100D01*
X116900758Y-93827257D01*
X116844222Y-93690766D01*
X116815400Y-93545870D01*
X116815400Y-93398130D01*
X116844222Y-93253234D01*
X116900758Y-93116743D01*
X116982839Y-92993900D01*
X117087300Y-92889439D01*
X117210143Y-92807358D01*
X117301304Y-92769598D01*
X117346633Y-92750822D01*
X117419082Y-92736411D01*
X117491530Y-92722000D01*
X117639270Y-92722000D01*
X117784167Y-92750822D01*
X117784167Y-92750822D01*
G37*
G36*
X126471718Y-92736411D02*
X126544167Y-92750822D01*
X126589496Y-92769598D01*
X126680657Y-92807358D01*
X126803500Y-92889439D01*
X126907961Y-92993900D01*
X126990042Y-93116743D01*
X127046578Y-93253234D01*
X127075400Y-93398130D01*
X127075400Y-93545870D01*
X127046578Y-93690766D01*
X126990042Y-93827257D01*
X126907961Y-93950100D01*
X126803500Y-94054561D01*
X126680657Y-94136642D01*
X126619748Y-94161871D01*
X126544167Y-94193178D01*
X126471718Y-94207589D01*
X126399270Y-94222000D01*
X126251530Y-94222000D01*
X126106633Y-94193178D01*
X126078476Y-94181515D01*
X126055027Y-94174402D01*
X126030641Y-94172000D01*
X125291010Y-94172000D01*
X125188176Y-94161872D01*
X125056225Y-94121845D01*
X124934619Y-94056845D01*
X124828030Y-93969370D01*
X124740555Y-93862781D01*
X124675555Y-93741175D01*
X124635528Y-93609224D01*
X124622013Y-93472000D01*
X124635528Y-93334776D01*
X124675555Y-93202825D01*
X124740555Y-93081219D01*
X124828030Y-92974630D01*
X124934619Y-92887155D01*
X125056225Y-92822155D01*
X125188176Y-92782128D01*
X125291010Y-92772000D01*
X126030641Y-92772000D01*
X126055027Y-92769598D01*
X126078476Y-92762485D01*
X126106633Y-92750822D01*
X126251530Y-92722000D01*
X126399270Y-92722000D01*
X126471718Y-92736411D01*
X126471718Y-92736411D01*
G37*
G36*
X122093138Y-91568653D02*
X122134998Y-91576979D01*
X122146745Y-91581845D01*
X122253290Y-91625977D01*
X122359754Y-91697114D01*
X122450286Y-91787646D01*
X122521423Y-91894110D01*
X122570421Y-92012403D01*
X122595400Y-92137979D01*
X122595400Y-92266021D01*
X122570421Y-92391597D01*
X122521423Y-92509890D01*
X122450286Y-92616354D01*
X122359754Y-92706886D01*
X122253290Y-92778023D01*
X122169645Y-92812670D01*
X122134998Y-92827021D01*
X122093138Y-92835347D01*
X122009421Y-92852000D01*
X121881379Y-92852000D01*
X121797662Y-92835347D01*
X121755802Y-92827021D01*
X121721155Y-92812670D01*
X121637510Y-92778023D01*
X121531046Y-92706886D01*
X121440514Y-92616354D01*
X121369377Y-92509890D01*
X121320379Y-92391597D01*
X121295400Y-92266021D01*
X121295400Y-92137979D01*
X121320379Y-92012403D01*
X121369377Y-91894110D01*
X121440514Y-91787646D01*
X121531046Y-91697114D01*
X121637510Y-91625977D01*
X121744055Y-91581845D01*
X121755802Y-91576979D01*
X121797662Y-91568653D01*
X121881379Y-91552000D01*
X122009421Y-91552000D01*
X122093138Y-91568653D01*
X122093138Y-91568653D01*
G37*
G36*
X126471718Y-90196411D02*
X126544167Y-90210822D01*
X126589496Y-90229598D01*
X126680657Y-90267358D01*
X126803500Y-90349439D01*
X126907961Y-90453900D01*
X126990042Y-90576743D01*
X127046578Y-90713234D01*
X127075400Y-90858130D01*
X127075400Y-91005870D01*
X127046578Y-91150766D01*
X126990042Y-91287257D01*
X126907961Y-91410100D01*
X126803500Y-91514561D01*
X126680657Y-91596642D01*
X126609833Y-91625978D01*
X126544167Y-91653178D01*
X126471718Y-91667589D01*
X126399270Y-91682000D01*
X126251530Y-91682000D01*
X126106633Y-91653178D01*
X126078476Y-91641515D01*
X126055027Y-91634402D01*
X126030641Y-91632000D01*
X125291010Y-91632000D01*
X125188176Y-91621872D01*
X125056225Y-91581845D01*
X124934619Y-91516845D01*
X124828030Y-91429370D01*
X124740555Y-91322781D01*
X124675555Y-91201175D01*
X124635528Y-91069224D01*
X124622013Y-90932000D01*
X124635528Y-90794776D01*
X124675555Y-90662825D01*
X124740555Y-90541219D01*
X124828030Y-90434630D01*
X124934619Y-90347155D01*
X125056225Y-90282155D01*
X125188176Y-90242128D01*
X125291010Y-90232000D01*
X126030641Y-90232000D01*
X126055027Y-90229598D01*
X126078476Y-90222485D01*
X126106633Y-90210822D01*
X126251530Y-90182000D01*
X126399270Y-90182000D01*
X126471718Y-90196411D01*
X126471718Y-90196411D01*
G37*
G36*
X117784167Y-90210822D02*
X117812324Y-90222485D01*
X117835773Y-90229598D01*
X117860159Y-90232000D01*
X118599790Y-90232000D01*
X118702624Y-90242128D01*
X118834575Y-90282155D01*
X118956181Y-90347155D01*
X119062770Y-90434630D01*
X119150245Y-90541219D01*
X119215245Y-90662825D01*
X119255272Y-90794776D01*
X119268787Y-90932000D01*
X119255272Y-91069224D01*
X119215245Y-91201175D01*
X119150245Y-91322781D01*
X119062770Y-91429370D01*
X118956181Y-91516845D01*
X118834575Y-91581845D01*
X118702624Y-91621872D01*
X118599790Y-91632000D01*
X117860159Y-91632000D01*
X117835773Y-91634402D01*
X117812324Y-91641515D01*
X117784167Y-91653178D01*
X117639270Y-91682000D01*
X117491530Y-91682000D01*
X117419082Y-91667589D01*
X117346633Y-91653178D01*
X117280967Y-91625978D01*
X117210143Y-91596642D01*
X117087300Y-91514561D01*
X116982839Y-91410100D01*
X116900758Y-91287257D01*
X116844222Y-91150766D01*
X116815400Y-91005870D01*
X116815400Y-90858130D01*
X116844222Y-90713234D01*
X116900758Y-90576743D01*
X116982839Y-90453900D01*
X117087300Y-90349439D01*
X117210143Y-90267358D01*
X117301304Y-90229598D01*
X117346633Y-90210822D01*
X117419082Y-90196411D01*
X117491530Y-90182000D01*
X117639270Y-90182000D01*
X117784167Y-90210822D01*
X117784167Y-90210822D01*
G37*
G36*
X117784167Y-87670822D02*
X117812324Y-87682485D01*
X117835773Y-87689598D01*
X117860159Y-87692000D01*
X118599790Y-87692000D01*
X118702624Y-87702128D01*
X118834575Y-87742155D01*
X118956181Y-87807155D01*
X119062770Y-87894630D01*
X119150245Y-88001219D01*
X119215245Y-88122825D01*
X119255272Y-88254776D01*
X119268787Y-88392000D01*
X119255272Y-88529224D01*
X119215245Y-88661175D01*
X119150245Y-88782781D01*
X119062770Y-88889370D01*
X118956181Y-88976845D01*
X118834575Y-89041845D01*
X118702624Y-89081872D01*
X118599790Y-89092000D01*
X117860159Y-89092000D01*
X117835773Y-89094402D01*
X117812324Y-89101515D01*
X117784167Y-89113178D01*
X117639270Y-89142000D01*
X117491530Y-89142000D01*
X117419082Y-89127589D01*
X117346633Y-89113178D01*
X117271052Y-89081871D01*
X117210143Y-89056642D01*
X117087300Y-88974561D01*
X116982839Y-88870100D01*
X116900758Y-88747257D01*
X116844222Y-88610766D01*
X116815400Y-88465870D01*
X116815400Y-88318130D01*
X116844222Y-88173234D01*
X116900758Y-88036743D01*
X116982839Y-87913900D01*
X117087300Y-87809439D01*
X117210143Y-87727358D01*
X117301304Y-87689598D01*
X117346633Y-87670822D01*
X117419082Y-87656411D01*
X117491530Y-87642000D01*
X117639270Y-87642000D01*
X117784167Y-87670822D01*
X117784167Y-87670822D01*
G37*
G36*
X126471718Y-87656411D02*
X126544167Y-87670822D01*
X126589496Y-87689598D01*
X126680657Y-87727358D01*
X126803500Y-87809439D01*
X126907961Y-87913900D01*
X126990042Y-88036743D01*
X127046578Y-88173234D01*
X127075400Y-88318130D01*
X127075400Y-88465870D01*
X127046578Y-88610766D01*
X126990042Y-88747257D01*
X126907961Y-88870100D01*
X126803500Y-88974561D01*
X126680657Y-89056642D01*
X126619748Y-89081871D01*
X126544167Y-89113178D01*
X126471718Y-89127589D01*
X126399270Y-89142000D01*
X126251530Y-89142000D01*
X126106633Y-89113178D01*
X126078476Y-89101515D01*
X126055027Y-89094402D01*
X126030641Y-89092000D01*
X125291010Y-89092000D01*
X125188176Y-89081872D01*
X125056225Y-89041845D01*
X124934619Y-88976845D01*
X124828030Y-88889370D01*
X124740555Y-88782781D01*
X124675555Y-88661175D01*
X124635528Y-88529224D01*
X124622013Y-88392000D01*
X124635528Y-88254776D01*
X124675555Y-88122825D01*
X124740555Y-88001219D01*
X124828030Y-87894630D01*
X124934619Y-87807155D01*
X125056225Y-87742155D01*
X125188176Y-87702128D01*
X125291010Y-87692000D01*
X126030641Y-87692000D01*
X126055027Y-87689598D01*
X126078476Y-87682485D01*
X126106633Y-87670822D01*
X126251530Y-87642000D01*
X126399270Y-87642000D01*
X126471718Y-87656411D01*
X126471718Y-87656411D01*
G37*
G36*
X117784167Y-85130822D02*
X117812324Y-85142485D01*
X117835773Y-85149598D01*
X117860159Y-85152000D01*
X118599790Y-85152000D01*
X118702624Y-85162128D01*
X118834575Y-85202155D01*
X118956181Y-85267155D01*
X119062770Y-85354630D01*
X119150245Y-85461219D01*
X119215245Y-85582825D01*
X119255272Y-85714776D01*
X119268787Y-85852000D01*
X119255272Y-85989224D01*
X119215245Y-86121175D01*
X119150245Y-86242781D01*
X119062770Y-86349370D01*
X118956181Y-86436845D01*
X118834575Y-86501845D01*
X118702624Y-86541872D01*
X118599790Y-86552000D01*
X117860159Y-86552000D01*
X117835773Y-86554402D01*
X117812324Y-86561515D01*
X117784167Y-86573178D01*
X117639270Y-86602000D01*
X117491530Y-86602000D01*
X117419082Y-86587589D01*
X117346633Y-86573178D01*
X117271052Y-86541871D01*
X117210143Y-86516642D01*
X117087300Y-86434561D01*
X116982839Y-86330100D01*
X116900758Y-86207257D01*
X116844222Y-86070766D01*
X116815400Y-85925870D01*
X116815400Y-85778130D01*
X116844222Y-85633234D01*
X116900758Y-85496743D01*
X116982839Y-85373900D01*
X117087300Y-85269439D01*
X117210143Y-85187358D01*
X117301304Y-85149598D01*
X117346633Y-85130822D01*
X117419082Y-85116411D01*
X117491530Y-85102000D01*
X117639270Y-85102000D01*
X117784167Y-85130822D01*
X117784167Y-85130822D01*
G37*
G36*
X126471718Y-85116411D02*
X126544167Y-85130822D01*
X126589496Y-85149598D01*
X126680657Y-85187358D01*
X126803500Y-85269439D01*
X126907961Y-85373900D01*
X126990042Y-85496743D01*
X127046578Y-85633234D01*
X127075400Y-85778130D01*
X127075400Y-85925870D01*
X127046578Y-86070766D01*
X126990042Y-86207257D01*
X126907961Y-86330100D01*
X126803500Y-86434561D01*
X126680657Y-86516642D01*
X126619748Y-86541871D01*
X126544167Y-86573178D01*
X126471718Y-86587589D01*
X126399270Y-86602000D01*
X126251530Y-86602000D01*
X126106633Y-86573178D01*
X126078476Y-86561515D01*
X126055027Y-86554402D01*
X126030641Y-86552000D01*
X125291010Y-86552000D01*
X125188176Y-86541872D01*
X125056225Y-86501845D01*
X124934619Y-86436845D01*
X124828030Y-86349370D01*
X124740555Y-86242781D01*
X124675555Y-86121175D01*
X124635528Y-85989224D01*
X124622013Y-85852000D01*
X124635528Y-85714776D01*
X124675555Y-85582825D01*
X124740555Y-85461219D01*
X124828030Y-85354630D01*
X124934619Y-85267155D01*
X125056225Y-85202155D01*
X125188176Y-85162128D01*
X125291010Y-85152000D01*
X126030641Y-85152000D01*
X126055027Y-85149598D01*
X126078476Y-85142485D01*
X126106633Y-85130822D01*
X126251530Y-85102000D01*
X126399270Y-85102000D01*
X126471718Y-85116411D01*
X126471718Y-85116411D01*
G37*
G36*
X117784167Y-82590822D02*
X117812324Y-82602485D01*
X117835773Y-82609598D01*
X117860159Y-82612000D01*
X118599790Y-82612000D01*
X118702624Y-82622128D01*
X118834575Y-82662155D01*
X118956181Y-82727155D01*
X119062770Y-82814630D01*
X119150245Y-82921219D01*
X119215245Y-83042825D01*
X119255272Y-83174776D01*
X119268787Y-83312000D01*
X119255272Y-83449224D01*
X119215245Y-83581175D01*
X119150245Y-83702781D01*
X119062770Y-83809370D01*
X118956181Y-83896845D01*
X118834575Y-83961845D01*
X118702624Y-84001872D01*
X118599790Y-84012000D01*
X117860159Y-84012000D01*
X117835773Y-84014402D01*
X117812324Y-84021515D01*
X117784167Y-84033178D01*
X117639270Y-84062000D01*
X117491530Y-84062000D01*
X117419082Y-84047589D01*
X117346633Y-84033178D01*
X117271052Y-84001871D01*
X117210143Y-83976642D01*
X117087300Y-83894561D01*
X116982839Y-83790100D01*
X116900758Y-83667257D01*
X116844222Y-83530766D01*
X116815400Y-83385870D01*
X116815400Y-83238130D01*
X116844222Y-83093234D01*
X116900758Y-82956743D01*
X116982839Y-82833900D01*
X117087300Y-82729439D01*
X117210143Y-82647358D01*
X117301304Y-82609598D01*
X117346633Y-82590822D01*
X117419082Y-82576411D01*
X117491530Y-82562000D01*
X117639270Y-82562000D01*
X117784167Y-82590822D01*
X117784167Y-82590822D01*
G37*
G36*
X126471718Y-82576411D02*
X126544167Y-82590822D01*
X126589496Y-82609598D01*
X126680657Y-82647358D01*
X126803500Y-82729439D01*
X126907961Y-82833900D01*
X126990042Y-82956743D01*
X127046578Y-83093234D01*
X127075400Y-83238130D01*
X127075400Y-83385870D01*
X127046578Y-83530766D01*
X126990042Y-83667257D01*
X126907961Y-83790100D01*
X126803500Y-83894561D01*
X126680657Y-83976642D01*
X126619748Y-84001871D01*
X126544167Y-84033178D01*
X126471718Y-84047589D01*
X126399270Y-84062000D01*
X126251530Y-84062000D01*
X126106633Y-84033178D01*
X126078476Y-84021515D01*
X126055027Y-84014402D01*
X126030641Y-84012000D01*
X125291010Y-84012000D01*
X125188176Y-84001872D01*
X125056225Y-83961845D01*
X124934619Y-83896845D01*
X124828030Y-83809370D01*
X124740555Y-83702781D01*
X124675555Y-83581175D01*
X124635528Y-83449224D01*
X124622013Y-83312000D01*
X124635528Y-83174776D01*
X124675555Y-83042825D01*
X124740555Y-82921219D01*
X124828030Y-82814630D01*
X124934619Y-82727155D01*
X125056225Y-82662155D01*
X125188176Y-82622128D01*
X125291010Y-82612000D01*
X126030641Y-82612000D01*
X126055027Y-82609598D01*
X126078476Y-82602485D01*
X126106633Y-82590822D01*
X126251530Y-82562000D01*
X126399270Y-82562000D01*
X126471718Y-82576411D01*
X126471718Y-82576411D01*
G37*
G36*
X117784167Y-80050822D02*
X117812324Y-80062485D01*
X117835773Y-80069598D01*
X117860159Y-80072000D01*
X118599790Y-80072000D01*
X118702624Y-80082128D01*
X118834575Y-80122155D01*
X118956181Y-80187155D01*
X119062770Y-80274630D01*
X119150245Y-80381219D01*
X119215245Y-80502825D01*
X119255272Y-80634776D01*
X119268787Y-80772000D01*
X119255272Y-80909224D01*
X119215245Y-81041175D01*
X119150245Y-81162781D01*
X119062770Y-81269370D01*
X118956181Y-81356845D01*
X118834575Y-81421845D01*
X118702624Y-81461872D01*
X118599790Y-81472000D01*
X117860159Y-81472000D01*
X117835773Y-81474402D01*
X117812324Y-81481515D01*
X117784167Y-81493178D01*
X117639270Y-81522000D01*
X117491530Y-81522000D01*
X117419082Y-81507589D01*
X117346633Y-81493178D01*
X117271052Y-81461871D01*
X117210143Y-81436642D01*
X117087300Y-81354561D01*
X116982839Y-81250100D01*
X116900758Y-81127257D01*
X116844222Y-80990766D01*
X116815400Y-80845870D01*
X116815400Y-80698130D01*
X116844222Y-80553234D01*
X116900758Y-80416743D01*
X116982839Y-80293900D01*
X117087300Y-80189439D01*
X117210143Y-80107358D01*
X117301304Y-80069598D01*
X117346633Y-80050822D01*
X117419082Y-80036411D01*
X117491530Y-80022000D01*
X117639270Y-80022000D01*
X117784167Y-80050822D01*
X117784167Y-80050822D01*
G37*
G36*
X126471718Y-80036411D02*
X126544167Y-80050822D01*
X126589496Y-80069598D01*
X126680657Y-80107358D01*
X126803500Y-80189439D01*
X126907961Y-80293900D01*
X126990042Y-80416743D01*
X127046578Y-80553234D01*
X127075400Y-80698130D01*
X127075400Y-80845870D01*
X127046578Y-80990766D01*
X126990042Y-81127257D01*
X126907961Y-81250100D01*
X126803500Y-81354561D01*
X126680657Y-81436642D01*
X126619748Y-81461871D01*
X126544167Y-81493178D01*
X126471718Y-81507589D01*
X126399270Y-81522000D01*
X126251530Y-81522000D01*
X126106633Y-81493178D01*
X126078476Y-81481515D01*
X126055027Y-81474402D01*
X126030641Y-81472000D01*
X125291010Y-81472000D01*
X125188176Y-81461872D01*
X125056225Y-81421845D01*
X124934619Y-81356845D01*
X124828030Y-81269370D01*
X124740555Y-81162781D01*
X124675555Y-81041175D01*
X124635528Y-80909224D01*
X124622013Y-80772000D01*
X124635528Y-80634776D01*
X124675555Y-80502825D01*
X124740555Y-80381219D01*
X124828030Y-80274630D01*
X124934619Y-80187155D01*
X125056225Y-80122155D01*
X125188176Y-80082128D01*
X125291010Y-80072000D01*
X126030641Y-80072000D01*
X126055027Y-80069598D01*
X126078476Y-80062485D01*
X126106633Y-80050822D01*
X126251530Y-80022000D01*
X126399270Y-80022000D01*
X126471718Y-80036411D01*
X126471718Y-80036411D01*
G37*
G36*
X126471718Y-77506411D02*
X126544167Y-77520822D01*
X126589496Y-77539598D01*
X126680657Y-77577358D01*
X126803500Y-77659439D01*
X126907961Y-77763900D01*
X126990042Y-77886743D01*
X127046578Y-78023234D01*
X127075400Y-78168130D01*
X127075400Y-78315870D01*
X127046578Y-78460766D01*
X126990042Y-78597257D01*
X126907961Y-78720100D01*
X126803500Y-78824561D01*
X126680657Y-78906642D01*
X126619748Y-78931871D01*
X126544167Y-78963178D01*
X126471718Y-78977589D01*
X126399270Y-78992000D01*
X126251530Y-78992000D01*
X126106633Y-78963178D01*
X126078476Y-78951515D01*
X126055027Y-78944402D01*
X126030641Y-78942000D01*
X125291010Y-78942000D01*
X125188176Y-78931872D01*
X125056225Y-78891845D01*
X124934619Y-78826845D01*
X124828030Y-78739370D01*
X124740555Y-78632781D01*
X124675555Y-78511175D01*
X124635528Y-78379224D01*
X124622013Y-78242000D01*
X124635528Y-78104776D01*
X124675555Y-77972825D01*
X124740555Y-77851219D01*
X124828030Y-77744630D01*
X124934619Y-77657155D01*
X125056225Y-77592155D01*
X125188176Y-77552128D01*
X125291010Y-77542000D01*
X126030641Y-77542000D01*
X126055027Y-77539598D01*
X126078476Y-77532485D01*
X126106633Y-77520822D01*
X126251530Y-77492000D01*
X126399270Y-77492000D01*
X126471718Y-77506411D01*
X126471718Y-77506411D01*
G37*
G36*
X117784167Y-77520822D02*
X117812324Y-77532485D01*
X117835773Y-77539598D01*
X117860159Y-77542000D01*
X118599790Y-77542000D01*
X118702624Y-77552128D01*
X118834575Y-77592155D01*
X118956181Y-77657155D01*
X119062770Y-77744630D01*
X119150245Y-77851219D01*
X119215245Y-77972825D01*
X119255272Y-78104776D01*
X119268787Y-78242000D01*
X119255272Y-78379224D01*
X119215245Y-78511175D01*
X119150245Y-78632781D01*
X119062770Y-78739370D01*
X118956181Y-78826845D01*
X118834575Y-78891845D01*
X118702624Y-78931872D01*
X118599790Y-78942000D01*
X117860159Y-78942000D01*
X117835773Y-78944402D01*
X117812324Y-78951515D01*
X117784167Y-78963178D01*
X117639270Y-78992000D01*
X117491530Y-78992000D01*
X117419082Y-78977589D01*
X117346633Y-78963178D01*
X117271052Y-78931871D01*
X117210143Y-78906642D01*
X117087300Y-78824561D01*
X116982839Y-78720100D01*
X116900758Y-78597257D01*
X116844222Y-78460766D01*
X116815400Y-78315870D01*
X116815400Y-78168130D01*
X116844222Y-78023234D01*
X116900758Y-77886743D01*
X116982839Y-77763900D01*
X117087300Y-77659439D01*
X117210143Y-77577358D01*
X117301304Y-77539598D01*
X117346633Y-77520822D01*
X117419082Y-77506411D01*
X117491530Y-77492000D01*
X117639270Y-77492000D01*
X117784167Y-77520822D01*
X117784167Y-77520822D01*
G37*
G36*
X117784167Y-74970822D02*
X117812324Y-74982485D01*
X117835773Y-74989598D01*
X117860159Y-74992000D01*
X118599790Y-74992000D01*
X118702624Y-75002128D01*
X118834575Y-75042155D01*
X118956181Y-75107155D01*
X119062770Y-75194630D01*
X119150245Y-75301219D01*
X119215245Y-75422825D01*
X119255272Y-75554776D01*
X119268787Y-75692000D01*
X119255272Y-75829224D01*
X119215245Y-75961175D01*
X119150245Y-76082781D01*
X119062770Y-76189370D01*
X118956181Y-76276845D01*
X118834575Y-76341845D01*
X118702624Y-76381872D01*
X118599790Y-76392000D01*
X117860159Y-76392000D01*
X117835773Y-76394402D01*
X117812324Y-76401515D01*
X117784167Y-76413178D01*
X117639270Y-76442000D01*
X117491530Y-76442000D01*
X117419082Y-76427589D01*
X117346633Y-76413178D01*
X117271052Y-76381871D01*
X117210143Y-76356642D01*
X117087300Y-76274561D01*
X116982839Y-76170100D01*
X116900758Y-76047257D01*
X116844222Y-75910766D01*
X116815400Y-75765870D01*
X116815400Y-75618130D01*
X116844222Y-75473234D01*
X116848365Y-75463233D01*
X116869245Y-75412822D01*
X116900758Y-75336743D01*
X116982839Y-75213900D01*
X117087300Y-75109439D01*
X117210143Y-75027358D01*
X117301304Y-74989598D01*
X117346633Y-74970822D01*
X117419082Y-74956411D01*
X117491530Y-74942000D01*
X117639270Y-74942000D01*
X117784167Y-74970822D01*
X117784167Y-74970822D01*
G37*
G36*
X126471718Y-74946411D02*
X126544167Y-74960822D01*
X126589496Y-74979598D01*
X126680657Y-75017358D01*
X126803500Y-75099439D01*
X126907961Y-75203900D01*
X126990042Y-75326743D01*
X126994184Y-75336743D01*
X127046578Y-75463233D01*
X127075400Y-75608131D01*
X127075400Y-75755869D01*
X127046578Y-75900767D01*
X127025698Y-75951175D01*
X126990042Y-76037257D01*
X126907961Y-76160100D01*
X126803500Y-76264561D01*
X126680657Y-76346642D01*
X126619748Y-76371871D01*
X126544167Y-76403178D01*
X126471718Y-76417589D01*
X126399270Y-76432000D01*
X126251530Y-76432000D01*
X126106633Y-76403178D01*
X126078476Y-76391515D01*
X126055027Y-76384402D01*
X126030641Y-76382000D01*
X125291010Y-76382000D01*
X125188176Y-76371872D01*
X125056225Y-76331845D01*
X124934619Y-76266845D01*
X124828030Y-76179370D01*
X124740555Y-76072781D01*
X124675555Y-75951175D01*
X124635528Y-75819224D01*
X124622013Y-75682000D01*
X124635528Y-75544776D01*
X124675555Y-75412825D01*
X124740555Y-75291219D01*
X124828030Y-75184630D01*
X124934619Y-75097155D01*
X125056225Y-75032155D01*
X125188176Y-74992128D01*
X125291010Y-74982000D01*
X126030641Y-74982000D01*
X126055027Y-74979598D01*
X126078476Y-74972485D01*
X126106633Y-74960822D01*
X126251530Y-74932000D01*
X126399270Y-74932000D01*
X126471718Y-74946411D01*
X126471718Y-74946411D01*
G37*
G36*
X126471718Y-72416411D02*
X126544167Y-72430822D01*
X126589496Y-72449598D01*
X126680657Y-72487358D01*
X126803500Y-72569439D01*
X126907961Y-72673900D01*
X126990042Y-72796743D01*
X127046578Y-72933234D01*
X127075400Y-73078130D01*
X127075400Y-73225870D01*
X127046578Y-73370766D01*
X126990042Y-73507257D01*
X126907961Y-73630100D01*
X126803500Y-73734561D01*
X126680657Y-73816642D01*
X126619748Y-73841871D01*
X126544167Y-73873178D01*
X126471718Y-73887589D01*
X126399270Y-73902000D01*
X126251530Y-73902000D01*
X126106633Y-73873178D01*
X126078476Y-73861515D01*
X126055027Y-73854402D01*
X126030641Y-73852000D01*
X125291010Y-73852000D01*
X125188176Y-73841872D01*
X125056225Y-73801845D01*
X124934619Y-73736845D01*
X124828030Y-73649370D01*
X124740555Y-73542781D01*
X124675555Y-73421175D01*
X124635528Y-73289224D01*
X124622013Y-73152000D01*
X124635528Y-73014776D01*
X124675555Y-72882825D01*
X124740555Y-72761219D01*
X124828030Y-72654630D01*
X124934619Y-72567155D01*
X125056225Y-72502155D01*
X125188176Y-72462128D01*
X125291010Y-72452000D01*
X126030641Y-72452000D01*
X126055027Y-72449598D01*
X126078476Y-72442485D01*
X126106633Y-72430822D01*
X126251530Y-72402000D01*
X126399270Y-72402000D01*
X126471718Y-72416411D01*
X126471718Y-72416411D01*
G37*
G36*
X117784167Y-72430822D02*
X117812324Y-72442485D01*
X117835773Y-72449598D01*
X117860159Y-72452000D01*
X118599790Y-72452000D01*
X118702624Y-72462128D01*
X118834575Y-72502155D01*
X118956181Y-72567155D01*
X119062770Y-72654630D01*
X119150245Y-72761219D01*
X119215245Y-72882825D01*
X119255272Y-73014776D01*
X119268787Y-73152000D01*
X119255272Y-73289224D01*
X119215245Y-73421175D01*
X119150245Y-73542781D01*
X119062770Y-73649370D01*
X118956181Y-73736845D01*
X118834575Y-73801845D01*
X118702624Y-73841872D01*
X118599790Y-73852000D01*
X117860159Y-73852000D01*
X117835773Y-73854402D01*
X117812324Y-73861515D01*
X117784167Y-73873178D01*
X117639270Y-73902000D01*
X117491530Y-73902000D01*
X117419082Y-73887589D01*
X117346633Y-73873178D01*
X117271052Y-73841871D01*
X117210143Y-73816642D01*
X117087300Y-73734561D01*
X116982839Y-73630100D01*
X116900758Y-73507257D01*
X116844222Y-73370766D01*
X116815400Y-73225870D01*
X116815400Y-73078130D01*
X116844222Y-72933234D01*
X116900758Y-72796743D01*
X116982839Y-72673900D01*
X117087300Y-72569439D01*
X117210143Y-72487358D01*
X117301304Y-72449598D01*
X117346633Y-72430822D01*
X117419082Y-72416411D01*
X117491530Y-72402000D01*
X117639270Y-72402000D01*
X117784167Y-72430822D01*
X117784167Y-72430822D01*
G37*
G36*
X126471718Y-69876411D02*
X126544167Y-69890822D01*
X126589496Y-69909598D01*
X126680657Y-69947358D01*
X126803500Y-70029439D01*
X126907961Y-70133900D01*
X126990042Y-70256743D01*
X127046578Y-70393234D01*
X127075400Y-70538130D01*
X127075400Y-70685870D01*
X127046578Y-70830766D01*
X126990042Y-70967257D01*
X126907961Y-71090100D01*
X126803500Y-71194561D01*
X126680657Y-71276642D01*
X126619748Y-71301871D01*
X126544167Y-71333178D01*
X126471718Y-71347589D01*
X126399270Y-71362000D01*
X126251530Y-71362000D01*
X126106633Y-71333178D01*
X126078476Y-71321515D01*
X126055027Y-71314402D01*
X126030641Y-71312000D01*
X125291010Y-71312000D01*
X125188176Y-71301872D01*
X125056225Y-71261845D01*
X124934619Y-71196845D01*
X124828030Y-71109370D01*
X124740555Y-71002781D01*
X124675555Y-70881175D01*
X124635528Y-70749224D01*
X124622013Y-70612000D01*
X124635528Y-70474776D01*
X124675555Y-70342825D01*
X124740555Y-70221219D01*
X124828030Y-70114630D01*
X124934619Y-70027155D01*
X125056225Y-69962155D01*
X125188176Y-69922128D01*
X125291010Y-69912000D01*
X126030641Y-69912000D01*
X126055027Y-69909598D01*
X126078476Y-69902485D01*
X126106633Y-69890822D01*
X126251530Y-69862000D01*
X126399270Y-69862000D01*
X126471718Y-69876411D01*
X126471718Y-69876411D01*
G37*
G36*
X117784167Y-69890822D02*
X117812324Y-69902485D01*
X117835773Y-69909598D01*
X117860159Y-69912000D01*
X118599790Y-69912000D01*
X118702624Y-69922128D01*
X118834575Y-69962155D01*
X118956181Y-70027155D01*
X119062770Y-70114630D01*
X119150245Y-70221219D01*
X119215245Y-70342825D01*
X119255272Y-70474776D01*
X119268787Y-70612000D01*
X119255272Y-70749224D01*
X119215245Y-70881175D01*
X119150245Y-71002781D01*
X119062770Y-71109370D01*
X118956181Y-71196845D01*
X118834575Y-71261845D01*
X118702624Y-71301872D01*
X118599790Y-71312000D01*
X117860159Y-71312000D01*
X117835773Y-71314402D01*
X117812324Y-71321515D01*
X117784167Y-71333178D01*
X117639270Y-71362000D01*
X117491530Y-71362000D01*
X117419082Y-71347589D01*
X117346633Y-71333178D01*
X117271052Y-71301871D01*
X117210143Y-71276642D01*
X117087300Y-71194561D01*
X116982839Y-71090100D01*
X116900758Y-70967257D01*
X116844222Y-70830766D01*
X116815400Y-70685870D01*
X116815400Y-70538130D01*
X116844222Y-70393234D01*
X116900758Y-70256743D01*
X116982839Y-70133900D01*
X117087300Y-70029439D01*
X117210143Y-69947358D01*
X117301304Y-69909598D01*
X117346633Y-69890822D01*
X117419082Y-69876411D01*
X117491530Y-69862000D01*
X117639270Y-69862000D01*
X117784167Y-69890822D01*
X117784167Y-69890822D01*
G37*
G36*
X126471718Y-67336411D02*
X126544167Y-67350822D01*
X126589496Y-67369598D01*
X126680657Y-67407358D01*
X126803500Y-67489439D01*
X126907961Y-67593900D01*
X126990042Y-67716743D01*
X127023160Y-67796697D01*
X127038294Y-67833233D01*
X127046578Y-67853234D01*
X127075400Y-67998130D01*
X127075400Y-68145870D01*
X127046578Y-68290766D01*
X126990042Y-68427257D01*
X126907961Y-68550100D01*
X126803500Y-68654561D01*
X126680657Y-68736642D01*
X126619748Y-68761871D01*
X126544167Y-68793178D01*
X126471718Y-68807589D01*
X126399270Y-68822000D01*
X126251530Y-68822000D01*
X126106633Y-68793178D01*
X126078476Y-68781515D01*
X126055027Y-68774402D01*
X126030641Y-68772000D01*
X125291010Y-68772000D01*
X125188176Y-68761872D01*
X125056225Y-68721845D01*
X124934619Y-68656845D01*
X124828030Y-68569370D01*
X124740555Y-68462781D01*
X124675555Y-68341175D01*
X124635528Y-68209224D01*
X124622013Y-68072000D01*
X124635528Y-67934776D01*
X124675555Y-67802825D01*
X124740555Y-67681219D01*
X124828030Y-67574630D01*
X124934619Y-67487155D01*
X125056225Y-67422155D01*
X125188176Y-67382128D01*
X125291010Y-67372000D01*
X126030641Y-67372000D01*
X126055027Y-67369598D01*
X126078476Y-67362485D01*
X126106633Y-67350822D01*
X126251530Y-67322000D01*
X126399270Y-67322000D01*
X126471718Y-67336411D01*
X126471718Y-67336411D01*
G37*
G36*
X117711718Y-67316411D02*
X117784167Y-67330822D01*
X117832451Y-67350822D01*
X117860608Y-67362485D01*
X117884057Y-67369598D01*
X117908443Y-67372000D01*
X118599790Y-67372000D01*
X118702624Y-67382128D01*
X118834575Y-67422155D01*
X118956181Y-67487155D01*
X119062770Y-67574630D01*
X119150245Y-67681219D01*
X119215245Y-67802825D01*
X119255272Y-67934776D01*
X119268787Y-68072000D01*
X119255272Y-68209224D01*
X119215245Y-68341175D01*
X119150245Y-68462781D01*
X119062770Y-68569370D01*
X118956181Y-68656845D01*
X118834575Y-68721845D01*
X118702624Y-68761872D01*
X118599790Y-68772000D01*
X117802399Y-68772000D01*
X117778014Y-68774402D01*
X117742254Y-68781515D01*
X117639270Y-68802000D01*
X117491530Y-68802000D01*
X117388546Y-68781515D01*
X117346633Y-68773178D01*
X117258428Y-68736642D01*
X117210143Y-68716642D01*
X117087300Y-68634561D01*
X116982839Y-68530100D01*
X116900758Y-68407257D01*
X116867640Y-68327303D01*
X116844222Y-68270767D01*
X116815400Y-68125869D01*
X116815400Y-67978131D01*
X116844222Y-67833233D01*
X116892474Y-67716743D01*
X116900758Y-67696743D01*
X116982839Y-67573900D01*
X117087300Y-67469439D01*
X117210143Y-67387358D01*
X117298349Y-67350822D01*
X117346633Y-67330822D01*
X117419082Y-67316411D01*
X117491530Y-67302000D01*
X117639270Y-67302000D01*
X117711718Y-67316411D01*
X117711718Y-67316411D01*
G37*
G36*
X126471718Y-64796411D02*
X126544167Y-64810822D01*
X126589496Y-64829598D01*
X126680657Y-64867358D01*
X126803500Y-64949439D01*
X126907961Y-65053900D01*
X126990042Y-65176743D01*
X127046578Y-65313234D01*
X127075400Y-65458130D01*
X127075400Y-65605870D01*
X127046578Y-65750766D01*
X126990042Y-65887257D01*
X126907961Y-66010100D01*
X126803500Y-66114561D01*
X126680657Y-66196642D01*
X126619748Y-66221871D01*
X126544167Y-66253178D01*
X126471718Y-66267589D01*
X126399270Y-66282000D01*
X126251530Y-66282000D01*
X126106633Y-66253178D01*
X126078476Y-66241515D01*
X126055027Y-66234402D01*
X126030641Y-66232000D01*
X125291010Y-66232000D01*
X125188176Y-66221872D01*
X125056225Y-66181845D01*
X124934619Y-66116845D01*
X124828030Y-66029370D01*
X124740555Y-65922781D01*
X124675555Y-65801175D01*
X124635528Y-65669224D01*
X124622013Y-65532000D01*
X124635528Y-65394776D01*
X124675555Y-65262825D01*
X124740555Y-65141219D01*
X124828030Y-65034630D01*
X124934619Y-64947155D01*
X125056225Y-64882155D01*
X125188176Y-64842128D01*
X125291010Y-64832000D01*
X126030641Y-64832000D01*
X126055027Y-64829598D01*
X126078476Y-64822485D01*
X126106633Y-64810822D01*
X126251530Y-64782000D01*
X126399270Y-64782000D01*
X126471718Y-64796411D01*
X126471718Y-64796411D01*
G37*
G36*
X117784167Y-64810822D02*
X117812324Y-64822485D01*
X117835773Y-64829598D01*
X117860159Y-64832000D01*
X118599790Y-64832000D01*
X118702624Y-64842128D01*
X118834575Y-64882155D01*
X118956181Y-64947155D01*
X119062770Y-65034630D01*
X119150245Y-65141219D01*
X119215245Y-65262825D01*
X119255272Y-65394776D01*
X119268787Y-65532000D01*
X119255272Y-65669224D01*
X119215245Y-65801175D01*
X119150245Y-65922781D01*
X119062770Y-66029370D01*
X118956181Y-66116845D01*
X118834575Y-66181845D01*
X118702624Y-66221872D01*
X118599790Y-66232000D01*
X117860159Y-66232000D01*
X117835773Y-66234402D01*
X117812324Y-66241515D01*
X117784167Y-66253178D01*
X117639270Y-66282000D01*
X117491530Y-66282000D01*
X117419082Y-66267589D01*
X117346633Y-66253178D01*
X117271052Y-66221871D01*
X117210143Y-66196642D01*
X117087300Y-66114561D01*
X116982839Y-66010100D01*
X116900758Y-65887257D01*
X116844222Y-65750766D01*
X116815400Y-65605870D01*
X116815400Y-65458130D01*
X116844222Y-65313234D01*
X116900758Y-65176743D01*
X116982839Y-65053900D01*
X117087300Y-64949439D01*
X117210143Y-64867358D01*
X117301304Y-64829598D01*
X117346633Y-64810822D01*
X117419082Y-64796411D01*
X117491530Y-64782000D01*
X117639270Y-64782000D01*
X117784167Y-64810822D01*
X117784167Y-64810822D01*
G37*
G36*
X122093138Y-63628653D02*
X122134998Y-63636979D01*
X122146745Y-63641845D01*
X122253290Y-63685977D01*
X122359754Y-63757114D01*
X122450286Y-63847646D01*
X122521423Y-63954110D01*
X122570421Y-64072403D01*
X122595400Y-64197979D01*
X122595400Y-64326021D01*
X122570421Y-64451597D01*
X122521423Y-64569890D01*
X122450286Y-64676354D01*
X122359754Y-64766886D01*
X122253290Y-64838023D01*
X122169645Y-64872670D01*
X122134998Y-64887021D01*
X122093138Y-64895347D01*
X122009421Y-64912000D01*
X121881379Y-64912000D01*
X121797662Y-64895347D01*
X121755802Y-64887021D01*
X121721155Y-64872670D01*
X121637510Y-64838023D01*
X121531046Y-64766886D01*
X121440514Y-64676354D01*
X121369377Y-64569890D01*
X121320379Y-64451597D01*
X121295400Y-64326021D01*
X121295400Y-64197979D01*
X121320379Y-64072403D01*
X121369377Y-63954110D01*
X121440514Y-63847646D01*
X121531046Y-63757114D01*
X121637510Y-63685977D01*
X121744055Y-63641845D01*
X121755802Y-63636979D01*
X121797662Y-63628653D01*
X121881379Y-63612000D01*
X122009421Y-63612000D01*
X122093138Y-63628653D01*
X122093138Y-63628653D01*
G37*
G36*
X117784167Y-62270822D02*
X117812324Y-62282485D01*
X117835773Y-62289598D01*
X117860159Y-62292000D01*
X118599790Y-62292000D01*
X118702624Y-62302128D01*
X118834575Y-62342155D01*
X118956181Y-62407155D01*
X119062770Y-62494630D01*
X119150245Y-62601219D01*
X119215245Y-62722825D01*
X119255272Y-62854776D01*
X119268787Y-62992000D01*
X119255272Y-63129224D01*
X119215245Y-63261175D01*
X119150245Y-63382781D01*
X119062770Y-63489370D01*
X118956181Y-63576845D01*
X118834575Y-63641845D01*
X118702624Y-63681872D01*
X118599790Y-63692000D01*
X117860159Y-63692000D01*
X117835773Y-63694402D01*
X117812324Y-63701515D01*
X117784167Y-63713178D01*
X117639270Y-63742000D01*
X117491530Y-63742000D01*
X117419082Y-63727589D01*
X117346633Y-63713178D01*
X117280967Y-63685978D01*
X117210143Y-63656642D01*
X117087300Y-63574561D01*
X116982839Y-63470100D01*
X116900758Y-63347257D01*
X116844222Y-63210766D01*
X116815400Y-63065870D01*
X116815400Y-62918130D01*
X116844222Y-62773234D01*
X116900758Y-62636743D01*
X116982839Y-62513900D01*
X117087300Y-62409439D01*
X117210143Y-62327358D01*
X117301304Y-62289598D01*
X117346633Y-62270822D01*
X117419082Y-62256411D01*
X117491530Y-62242000D01*
X117639270Y-62242000D01*
X117784167Y-62270822D01*
X117784167Y-62270822D01*
G37*
G36*
X126471718Y-62256411D02*
X126544167Y-62270822D01*
X126589496Y-62289598D01*
X126680657Y-62327358D01*
X126803500Y-62409439D01*
X126907961Y-62513900D01*
X126990042Y-62636743D01*
X127046578Y-62773234D01*
X127075400Y-62918130D01*
X127075400Y-63065870D01*
X127046578Y-63210766D01*
X126990042Y-63347257D01*
X126907961Y-63470100D01*
X126803500Y-63574561D01*
X126680657Y-63656642D01*
X126609833Y-63685978D01*
X126544167Y-63713178D01*
X126471718Y-63727589D01*
X126399270Y-63742000D01*
X126251530Y-63742000D01*
X126106633Y-63713178D01*
X126078476Y-63701515D01*
X126055027Y-63694402D01*
X126030641Y-63692000D01*
X125291010Y-63692000D01*
X125188176Y-63681872D01*
X125056225Y-63641845D01*
X124934619Y-63576845D01*
X124828030Y-63489370D01*
X124740555Y-63382781D01*
X124675555Y-63261175D01*
X124635528Y-63129224D01*
X124622013Y-62992000D01*
X124635528Y-62854776D01*
X124675555Y-62722825D01*
X124740555Y-62601219D01*
X124828030Y-62494630D01*
X124934619Y-62407155D01*
X125056225Y-62342155D01*
X125188176Y-62302128D01*
X125291010Y-62292000D01*
X126030641Y-62292000D01*
X126055027Y-62289598D01*
X126078476Y-62282485D01*
X126106633Y-62270822D01*
X126251530Y-62242000D01*
X126399270Y-62242000D01*
X126471718Y-62256411D01*
X126471718Y-62256411D01*
G37*
G36*
X126471718Y-59716411D02*
X126544167Y-59730822D01*
X126589496Y-59749598D01*
X126680657Y-59787358D01*
X126803500Y-59869439D01*
X126907961Y-59973900D01*
X126990042Y-60096743D01*
X127046578Y-60233234D01*
X127075400Y-60378130D01*
X127075400Y-60525870D01*
X127046578Y-60670766D01*
X126990042Y-60807257D01*
X126907961Y-60930100D01*
X126803500Y-61034561D01*
X126680657Y-61116642D01*
X126619748Y-61141871D01*
X126544167Y-61173178D01*
X126471718Y-61187589D01*
X126399270Y-61202000D01*
X126251530Y-61202000D01*
X126106633Y-61173178D01*
X126078476Y-61161515D01*
X126055027Y-61154402D01*
X126030641Y-61152000D01*
X125291010Y-61152000D01*
X125188176Y-61141872D01*
X125056225Y-61101845D01*
X124934619Y-61036845D01*
X124828030Y-60949370D01*
X124740555Y-60842781D01*
X124675555Y-60721175D01*
X124635528Y-60589224D01*
X124622013Y-60452000D01*
X124635528Y-60314776D01*
X124675555Y-60182825D01*
X124740555Y-60061219D01*
X124828030Y-59954630D01*
X124934619Y-59867155D01*
X125056225Y-59802155D01*
X125188176Y-59762128D01*
X125291010Y-59752000D01*
X126030641Y-59752000D01*
X126055027Y-59749598D01*
X126078476Y-59742485D01*
X126106633Y-59730822D01*
X126251530Y-59702000D01*
X126399270Y-59702000D01*
X126471718Y-59716411D01*
X126471718Y-59716411D01*
G37*
G36*
X117784167Y-59730822D02*
X117812324Y-59742485D01*
X117835773Y-59749598D01*
X117860159Y-59752000D01*
X118599790Y-59752000D01*
X118702624Y-59762128D01*
X118834575Y-59802155D01*
X118956181Y-59867155D01*
X119062770Y-59954630D01*
X119150245Y-60061219D01*
X119215245Y-60182825D01*
X119255272Y-60314776D01*
X119268787Y-60452000D01*
X119255272Y-60589224D01*
X119215245Y-60721175D01*
X119150245Y-60842781D01*
X119062770Y-60949370D01*
X118956181Y-61036845D01*
X118834575Y-61101845D01*
X118702624Y-61141872D01*
X118599790Y-61152000D01*
X117860159Y-61152000D01*
X117835773Y-61154402D01*
X117812324Y-61161515D01*
X117784167Y-61173178D01*
X117639270Y-61202000D01*
X117491530Y-61202000D01*
X117419082Y-61187589D01*
X117346633Y-61173178D01*
X117271052Y-61141871D01*
X117210143Y-61116642D01*
X117087300Y-61034561D01*
X116982839Y-60930100D01*
X116900758Y-60807257D01*
X116844222Y-60670766D01*
X116815400Y-60525870D01*
X116815400Y-60378130D01*
X116844222Y-60233234D01*
X116900758Y-60096743D01*
X116982839Y-59973900D01*
X117087300Y-59869439D01*
X117210143Y-59787358D01*
X117301304Y-59749598D01*
X117346633Y-59730822D01*
X117419082Y-59716411D01*
X117491530Y-59702000D01*
X117639270Y-59702000D01*
X117784167Y-59730822D01*
X117784167Y-59730822D01*
G37*
M02*
