G04 #@! TF.GenerationSoftware,KiCad,Pcbnew,5.0.2-bee76a0~70~ubuntu18.04.1*
G04 #@! TF.CreationDate,2018-12-24T08:32:18+09:00*
G04 #@! TF.ProjectId,spacer_pcb,73706163-6572-45f7-9063-622e6b696361,rev?*
G04 #@! TF.SameCoordinates,Original*
G04 #@! TF.FileFunction,Legend,Top*
G04 #@! TF.FilePolarity,Positive*
%FSLAX46Y46*%
G04 Gerber Fmt 4.6, Leading zero omitted, Abs format (unit mm)*
G04 Created by KiCad (PCBNEW 5.0.2-bee76a0~70~ubuntu18.04.1) date 2018年12月24日 08時32分18秒*
%MOMM*%
%LPD*%
G01*
G04 APERTURE LIST*
%ADD10C,0.150000*%
%ADD11C,0.120000*%
G04 APERTURE END LIST*
D10*
X135647142Y-76275028D02*
X135618571Y-76332171D01*
X135618571Y-76446457D01*
X135647142Y-76503600D01*
X135704285Y-76532171D01*
X135732857Y-76532171D01*
X135790000Y-76503600D01*
X135818571Y-76446457D01*
X135818571Y-76360742D01*
X135847142Y-76303600D01*
X135904285Y-76275028D01*
X135932857Y-76275028D01*
X135990000Y-76303600D01*
X136018571Y-76360742D01*
X136018571Y-76446457D01*
X135990000Y-76503600D01*
X136018571Y-76789314D02*
X135418571Y-76789314D01*
X135990000Y-76789314D02*
X136018571Y-76846457D01*
X136018571Y-76960742D01*
X135990000Y-77017885D01*
X135961428Y-77046457D01*
X135904285Y-77075028D01*
X135732857Y-77075028D01*
X135675714Y-77046457D01*
X135647142Y-77017885D01*
X135618571Y-76960742D01*
X135618571Y-76846457D01*
X135647142Y-76789314D01*
X135618571Y-77589314D02*
X135932857Y-77589314D01*
X135990000Y-77560742D01*
X136018571Y-77503600D01*
X136018571Y-77389314D01*
X135990000Y-77332171D01*
X135647142Y-77589314D02*
X135618571Y-77532171D01*
X135618571Y-77389314D01*
X135647142Y-77332171D01*
X135704285Y-77303600D01*
X135761428Y-77303600D01*
X135818571Y-77332171D01*
X135847142Y-77389314D01*
X135847142Y-77532171D01*
X135875714Y-77589314D01*
X135647142Y-78132171D02*
X135618571Y-78075028D01*
X135618571Y-77960742D01*
X135647142Y-77903600D01*
X135675714Y-77875028D01*
X135732857Y-77846457D01*
X135904285Y-77846457D01*
X135961428Y-77875028D01*
X135990000Y-77903600D01*
X136018571Y-77960742D01*
X136018571Y-78075028D01*
X135990000Y-78132171D01*
X135647142Y-78617885D02*
X135618571Y-78560742D01*
X135618571Y-78446457D01*
X135647142Y-78389314D01*
X135704285Y-78360742D01*
X135932857Y-78360742D01*
X135990000Y-78389314D01*
X136018571Y-78446457D01*
X136018571Y-78560742D01*
X135990000Y-78617885D01*
X135932857Y-78646457D01*
X135875714Y-78646457D01*
X135818571Y-78360742D01*
X135618571Y-78903600D02*
X136018571Y-78903600D01*
X135904285Y-78903600D02*
X135961428Y-78932171D01*
X135990000Y-78960742D01*
X136018571Y-79017885D01*
X136018571Y-79075028D01*
X135618571Y-80075028D02*
X135904285Y-79875028D01*
X135618571Y-79732171D02*
X136218571Y-79732171D01*
X136218571Y-79960742D01*
X136190000Y-80017885D01*
X136161428Y-80046457D01*
X136104285Y-80075028D01*
X136018571Y-80075028D01*
X135961428Y-80046457D01*
X135932857Y-80017885D01*
X135904285Y-79960742D01*
X135904285Y-79732171D01*
X135647142Y-80560742D02*
X135618571Y-80503600D01*
X135618571Y-80389314D01*
X135647142Y-80332171D01*
X135704285Y-80303600D01*
X135932857Y-80303600D01*
X135990000Y-80332171D01*
X136018571Y-80389314D01*
X136018571Y-80503600D01*
X135990000Y-80560742D01*
X135932857Y-80589314D01*
X135875714Y-80589314D01*
X135818571Y-80303600D01*
X136018571Y-80789314D02*
X135618571Y-80932171D01*
X136018571Y-81075028D01*
X135618571Y-82075028D02*
X135618571Y-81732171D01*
X135618571Y-81903600D02*
X136218571Y-81903600D01*
X136132857Y-81846457D01*
X136075714Y-81789314D01*
X136047142Y-81732171D01*
X135675714Y-82332171D02*
X135647142Y-82360742D01*
X135618571Y-82332171D01*
X135647142Y-82303600D01*
X135675714Y-82332171D01*
X135618571Y-82332171D01*
X135618571Y-82932171D02*
X135618571Y-82589314D01*
X135618571Y-82760742D02*
X136218571Y-82760742D01*
X136132857Y-82703600D01*
X136075714Y-82646457D01*
X136047142Y-82589314D01*
D11*
G04 #@! TO.C,J2*
X133300000Y-62220800D02*
X138500000Y-62220800D01*
X133300000Y-100440800D02*
X138500000Y-100440800D01*
X131860000Y-62790800D02*
X133300000Y-62790800D01*
X133300000Y-62220800D02*
X133300000Y-62790800D01*
X138500000Y-62220800D02*
X138500000Y-62790800D01*
X133300000Y-99870800D02*
X133300000Y-100440800D01*
X138500000Y-99870800D02*
X138500000Y-100440800D01*
X133300000Y-64310800D02*
X133300000Y-65330800D01*
X138500000Y-64310800D02*
X138500000Y-65330800D01*
X133300000Y-66850800D02*
X133300000Y-67870800D01*
X138500000Y-66850800D02*
X138500000Y-67870800D01*
X133300000Y-69390800D02*
X133300000Y-70410800D01*
X138500000Y-69390800D02*
X138500000Y-70410800D01*
X133300000Y-71930800D02*
X133300000Y-72950800D01*
X138500000Y-71930800D02*
X138500000Y-72950800D01*
X133300000Y-74470800D02*
X133300000Y-75490800D01*
X138500000Y-74470800D02*
X138500000Y-75490800D01*
X133300000Y-77010800D02*
X133300000Y-78030800D01*
X138500000Y-77010800D02*
X138500000Y-78030800D01*
X133300000Y-79550800D02*
X133300000Y-80570800D01*
X138500000Y-79550800D02*
X138500000Y-80570800D01*
X133300000Y-82090800D02*
X133300000Y-83110800D01*
X138500000Y-82090800D02*
X138500000Y-83110800D01*
X133300000Y-84630800D02*
X133300000Y-85650800D01*
X138500000Y-84630800D02*
X138500000Y-85650800D01*
X133300000Y-87170800D02*
X133300000Y-88190800D01*
X138500000Y-87170800D02*
X138500000Y-88190800D01*
X133300000Y-89710800D02*
X133300000Y-90730800D01*
X138500000Y-89710800D02*
X138500000Y-90730800D01*
X133300000Y-92250800D02*
X133300000Y-93270800D01*
X138500000Y-92250800D02*
X138500000Y-93270800D01*
X133300000Y-94790800D02*
X133300000Y-95810800D01*
X138500000Y-94790800D02*
X138500000Y-95810800D01*
X133300000Y-97330800D02*
X133300000Y-98350800D01*
X138500000Y-97330800D02*
X138500000Y-98350800D01*
G04 #@! TO.C,J1*
X129890000Y-62220800D02*
X131220000Y-62220800D01*
X129890000Y-63550800D02*
X129890000Y-62220800D01*
X129890000Y-64820800D02*
X132550000Y-64820800D01*
X132550000Y-64820800D02*
X132550000Y-100440800D01*
X129890000Y-64820800D02*
X129890000Y-100440800D01*
X129890000Y-100440800D02*
X132550000Y-100440800D01*
G04 #@! TO.C,J3*
X139250000Y-100440800D02*
X141910000Y-100440800D01*
X139250000Y-64820800D02*
X139250000Y-100440800D01*
X141910000Y-64820800D02*
X141910000Y-100440800D01*
X139250000Y-64820800D02*
X141910000Y-64820800D01*
X139250000Y-63550800D02*
X139250000Y-62220800D01*
X139250000Y-62220800D02*
X140580000Y-62220800D01*
G04 #@! TD*
M02*
