M48
METRIC,TZ
T1C0.400
T2C1.000
%
G90
G05
T1
X140957Y-63398
X144184Y-81718
X144184Y-92243
X144220Y-65495
X144325Y-82732
X144372Y-85978
X144374Y-57085
X144374Y-59553
X144374Y-84571
X144453Y-68829
X144510Y-78636
X144527Y-80403
X144537Y-69846
X144537Y-87243
X144564Y-72013
X144572Y-77466
X144721Y-74987
X145670Y-71018
X147049Y-73699
X147302Y-76098
X147371Y-65899
X147781Y-68362
X155468Y-68388
X159811Y-76730
T2
X195720Y-64960
X195720Y-67500
X195720Y-70040
X195720Y-72580
X195720Y-75120
X195720Y-77660
X195720Y-80200
X195720Y-82740
X195720Y-85280
X157120Y-54800
X157120Y-57340
X157120Y-59880
X157120Y-62420
X157120Y-64960
X157120Y-67500
X157120Y-70040
X157120Y-72580
X157120Y-75120
X157120Y-77660
X157120Y-80200
X157120Y-82740
X157120Y-85280
X157120Y-87820
X157120Y-90360
X157120Y-92900
X157120Y-95440
T0
M30
