G04 #@! TF.GenerationSoftware,KiCad,Pcbnew,5.0.2-bee76a0~70~ubuntu18.04.1*
G04 #@! TF.CreationDate,2019-05-05T14:27:43+09:00*
G04 #@! TF.ProjectId,M5StackSideBB,4d355374-6163-46b5-9369-646542422e6b,rev?*
G04 #@! TF.SameCoordinates,Original*
G04 #@! TF.FileFunction,Copper,L2,Bot*
G04 #@! TF.FilePolarity,Positive*
%FSLAX46Y46*%
G04 Gerber Fmt 4.6, Leading zero omitted, Abs format (unit mm)*
G04 Created by KiCad (PCBNEW 5.0.2-bee76a0~70~ubuntu18.04.1) date 2019年05月05日 14時27分43秒*
%MOMM*%
%LPD*%
G01*
G04 APERTURE LIST*
G04 #@! TA.AperFunction,ComponentPad*
%ADD10O,1.700000X1.700000*%
G04 #@! TD*
G04 #@! TA.AperFunction,ComponentPad*
%ADD11R,1.700000X1.700000*%
G04 #@! TD*
G04 #@! TA.AperFunction,SMDPad,CuDef*
%ADD12R,1.800000X1.000000*%
G04 #@! TD*
G04 #@! TA.AperFunction,ViaPad*
%ADD13C,0.800000*%
G04 #@! TD*
G04 #@! TA.AperFunction,Conductor*
%ADD14C,0.250000*%
G04 #@! TD*
G04 #@! TA.AperFunction,Conductor*
%ADD15C,0.254000*%
G04 #@! TD*
G04 APERTURE END LIST*
D10*
G04 #@! TO.P,J1,14*
G04 #@! TO.N,RST*
X189205000Y-56070000D03*
G04 #@! TO.P,J1,13*
G04 #@! TO.N,G36*
X186665000Y-56070000D03*
G04 #@! TO.P,J1,12*
G04 #@! TO.N,G35*
X184125000Y-56070000D03*
G04 #@! TO.P,J1,11*
G04 #@! TO.N,G26*
X181585000Y-56070000D03*
G04 #@! TO.P,J1,10*
G04 #@! TO.N,G25*
X179045000Y-56070000D03*
G04 #@! TO.P,J1,9*
G04 #@! TO.N,G23*
X176505000Y-56070000D03*
G04 #@! TO.P,J1,8*
G04 #@! TO.N,G19*
X173965000Y-56070000D03*
G04 #@! TO.P,J1,7*
G04 #@! TO.N,G18*
X171425000Y-56070000D03*
G04 #@! TO.P,J1,6*
G04 #@! TO.N,G1*
X168885000Y-56070000D03*
G04 #@! TO.P,J1,5*
G04 #@! TO.N,G3*
X166345000Y-56070000D03*
G04 #@! TO.P,J1,4*
G04 #@! TO.N,G22*
X163805000Y-56070000D03*
G04 #@! TO.P,J1,3*
G04 #@! TO.N,G21*
X161265000Y-56070000D03*
G04 #@! TO.P,J1,2*
G04 #@! TO.N,+3V3*
X158725000Y-56070000D03*
D11*
G04 #@! TO.P,J1,1*
G04 #@! TO.N,GND*
X156185000Y-56070000D03*
G04 #@! TD*
G04 #@! TO.P,J2,1*
G04 #@! TO.N,HPWR*
X156185000Y-94170000D03*
D10*
G04 #@! TO.P,J2,2*
G04 #@! TO.N,+BATT*
X158725000Y-94170000D03*
G04 #@! TO.P,J2,3*
G04 #@! TO.N,+5V*
X161265000Y-94170000D03*
G04 #@! TO.P,J2,4*
G04 #@! TO.N,G34*
X163805000Y-94170000D03*
G04 #@! TO.P,J2,5*
G04 #@! TO.N,G15*
X166345000Y-94170000D03*
G04 #@! TO.P,J2,6*
G04 #@! TO.N,G0*
X168885000Y-94170000D03*
G04 #@! TO.P,J2,7*
G04 #@! TO.N,G12*
X171425000Y-94170000D03*
G04 #@! TO.P,J2,8*
G04 #@! TO.N,G13*
X173965000Y-94170000D03*
G04 #@! TO.P,J2,9*
G04 #@! TO.N,G2*
X176505000Y-94170000D03*
G04 #@! TO.P,J2,10*
G04 #@! TO.N,G5*
X179045000Y-94170000D03*
G04 #@! TO.P,J2,11*
G04 #@! TO.N,G16*
X181585000Y-94170000D03*
G04 #@! TO.P,J2,12*
G04 #@! TO.N,G17*
X184125000Y-94170000D03*
G04 #@! TO.P,J2,13*
G04 #@! TO.N,+3V3*
X186665000Y-94170000D03*
G04 #@! TO.P,J2,14*
G04 #@! TO.N,GND*
X189205000Y-94170000D03*
G04 #@! TD*
D12*
G04 #@! TO.P,J4,1*
G04 #@! TO.N,G35*
X141654000Y-57048400D03*
G04 #@! TO.P,J4,2*
G04 #@! TO.N,GND*
X146494000Y-57048400D03*
G04 #@! TO.P,J4,3*
G04 #@! TO.N,G36*
X141654000Y-59588400D03*
G04 #@! TO.P,J4,4*
G04 #@! TO.N,GND*
X146594000Y-59588400D03*
G04 #@! TO.P,J4,5*
G04 #@! TO.N,RST*
X141654000Y-62128400D03*
G04 #@! TO.P,J4,6*
G04 #@! TO.N,GND*
X146494000Y-62128400D03*
G04 #@! TO.P,J4,7*
G04 #@! TO.N,G25*
X141654000Y-64668400D03*
G04 #@! TO.P,J4,8*
G04 #@! TO.N,G23*
X146494000Y-64668400D03*
G04 #@! TO.P,J4,9*
G04 #@! TO.N,G26*
X141654000Y-67208400D03*
G04 #@! TO.P,J4,10*
G04 #@! TO.N,G19*
X146494000Y-67208400D03*
G04 #@! TO.P,J4,11*
G04 #@! TO.N,+3V3*
X141654000Y-69748400D03*
G04 #@! TO.P,J4,12*
G04 #@! TO.N,G18*
X146494000Y-69748400D03*
G04 #@! TO.P,J4,13*
G04 #@! TO.N,G1*
X141654000Y-72288400D03*
G04 #@! TO.P,J4,14*
G04 #@! TO.N,G3*
X146494000Y-72288400D03*
G04 #@! TO.P,J4,15*
G04 #@! TO.N,G17*
X141654000Y-74828400D03*
G04 #@! TO.P,J4,16*
G04 #@! TO.N,G16*
X146494000Y-74828400D03*
G04 #@! TO.P,J4,17*
G04 #@! TO.N,G22*
X141654000Y-77368400D03*
G04 #@! TO.P,J4,18*
G04 #@! TO.N,G21*
X146494000Y-77368400D03*
G04 #@! TO.P,J4,19*
G04 #@! TO.N,G5*
X141654000Y-79908400D03*
G04 #@! TO.P,J4,20*
G04 #@! TO.N,G2*
X146494000Y-79908400D03*
G04 #@! TO.P,J4,21*
G04 #@! TO.N,G13*
X141654000Y-82448400D03*
G04 #@! TO.P,J4,22*
G04 #@! TO.N,G12*
X146494000Y-82448400D03*
G04 #@! TO.P,J4,23*
G04 #@! TO.N,G0*
X141654000Y-84988400D03*
G04 #@! TO.P,J4,24*
G04 #@! TO.N,G15*
X146494000Y-84988400D03*
G04 #@! TO.P,J4,25*
G04 #@! TO.N,G34*
X141654000Y-87528400D03*
G04 #@! TO.P,J4,26*
G04 #@! TO.N,HPWR*
X146494000Y-87528400D03*
G04 #@! TO.P,J4,27*
G04 #@! TO.N,+5V*
X141654000Y-90068400D03*
G04 #@! TO.P,J4,28*
G04 #@! TO.N,HPWR*
X146494000Y-90068400D03*
G04 #@! TO.P,J4,29*
G04 #@! TO.N,+BATT*
X141654000Y-92608400D03*
G04 #@! TO.P,J4,30*
G04 #@! TO.N,HPWR*
X146494000Y-92608400D03*
G04 #@! TD*
D13*
G04 #@! TO.N,GND*
X171155360Y-72679560D03*
X161086800Y-72760840D03*
X188158120Y-59049920D03*
X105338880Y-54899560D03*
X105338880Y-94914720D03*
X140522960Y-98308160D03*
X149656800Y-96814640D03*
X144881600Y-54747200D03*
X151688800Y-53340000D03*
X155651200Y-50698400D03*
X182930800Y-92354400D03*
X180086000Y-92405200D03*
X162755047Y-92413353D03*
X150520400Y-91389200D03*
X150926800Y-87172800D03*
X156006800Y-85801200D03*
X160070800Y-92659200D03*
X154931847Y-87130153D03*
X152552400Y-94234000D03*
X137210800Y-63403480D03*
X137261600Y-86309200D03*
X158038800Y-58420000D03*
X159979553Y-60513153D03*
X150637547Y-70830747D03*
X153720800Y-70866000D03*
X162052000Y-63652400D03*
X168910000Y-58623200D03*
X152298400Y-63804800D03*
X151521353Y-68971353D03*
X155651200Y-68935600D03*
X177647600Y-92405200D03*
X150266400Y-77266800D03*
X148754000Y-62138400D03*
G04 #@! TO.N,G19*
X150141200Y-67125700D03*
G04 #@! TO.N,G18*
X144780000Y-69748400D03*
G04 #@! TO.N,G3*
X150205200Y-72288400D03*
G04 #@! TO.N,G16*
X150126200Y-74838400D03*
G04 #@! TO.N,G21*
X145166300Y-76257100D03*
G04 #@! TO.N,G2*
X150317200Y-79903400D03*
G04 #@! TO.N,G12*
X150418800Y-82438400D03*
G04 #@! TO.N,G15*
X150418800Y-84988400D03*
G04 #@! TO.N,HPWR*
X148754000Y-87518400D03*
G04 #@! TO.N,+BATT*
X143379300Y-92608400D03*
G04 #@! TO.N,+5V*
X143900500Y-90068400D03*
G04 #@! TO.N,G34*
X139394000Y-87528400D03*
G04 #@! TO.N,G0*
X142936500Y-83900900D03*
G04 #@! TO.N,G13*
X142969000Y-81328400D03*
X142969000Y-81328400D03*
G04 #@! TO.N,G5*
X143752900Y-79908400D03*
G04 #@! TO.N,G22*
X140739000Y-78480900D03*
G04 #@! TO.N,G17*
X143732400Y-74828400D03*
G04 #@! TO.N,G1*
X143449300Y-71157200D03*
G04 #@! TO.N,G26*
X141173500Y-66084400D03*
G04 #@! TO.N,G25*
X143725300Y-64668400D03*
G04 #@! TO.N,RST*
X139394000Y-62138400D03*
G04 #@! TO.N,G36*
X141186800Y-58474900D03*
G04 #@! TO.N,G35*
X143742300Y-56651000D03*
G04 #@! TO.N,+3V3*
X143242300Y-69748400D03*
G04 #@! TD*
D14*
G04 #@! TO.N,GND*
X156185000Y-54894700D02*
X157132900Y-53946800D01*
X157132900Y-53946800D02*
X168430200Y-53946800D01*
X168430200Y-53946800D02*
X170155000Y-55671600D01*
X170155000Y-55671600D02*
X170155000Y-73944700D01*
X170155000Y-73944700D02*
X189205000Y-92994700D01*
X156185000Y-56070000D02*
X156185000Y-54894700D01*
X189205000Y-94170000D02*
X189205000Y-92994700D01*
X146594000Y-57048400D02*
X146894000Y-57048400D01*
X148419300Y-57048400D02*
X148644000Y-57048400D01*
X146894000Y-57048400D02*
X148419300Y-57048400D01*
X146604000Y-59598400D02*
X148419300Y-57783100D01*
X148419300Y-57783100D02*
X148419300Y-57048400D01*
X146604000Y-59598400D02*
X146594000Y-59588400D01*
X147684000Y-59608400D02*
X146614000Y-59608400D01*
X146614000Y-59608400D02*
X146604000Y-59598400D01*
X148754000Y-59608400D02*
X147684000Y-59608400D01*
X147684000Y-62128400D02*
X148419300Y-62128400D01*
X146594000Y-62128400D02*
X147684000Y-62128400D01*
X147684000Y-59608400D02*
X147684000Y-62128400D01*
X148754000Y-62138400D02*
X148429300Y-62138400D01*
X148429300Y-62138400D02*
X148419300Y-62128400D01*
X189205000Y-94170000D02*
X189205000Y-90729200D01*
X189205000Y-90729200D02*
X171155360Y-72679560D01*
X171155360Y-72679560D02*
X174528480Y-72679560D01*
X174528480Y-72679560D02*
X188158120Y-59049920D01*
X105338880Y-54899560D02*
X105338880Y-94914720D01*
X140922959Y-97908161D02*
X140922959Y-95576441D01*
X140522960Y-98308160D02*
X140922959Y-97908161D01*
X140922959Y-95576441D02*
X141986000Y-94513400D01*
X141986000Y-94513400D02*
X149265640Y-94513400D01*
X149656800Y-97192202D02*
X149656800Y-96814640D01*
X147924001Y-98925001D02*
X149656800Y-97192202D01*
X140522960Y-98308160D02*
X141139801Y-98925001D01*
X141139801Y-98925001D02*
X147924001Y-98925001D01*
X150103799Y-54925001D02*
X151688800Y-53340000D01*
X145625086Y-54925001D02*
X150103799Y-54925001D01*
X144881600Y-54747200D02*
X145447285Y-54747200D01*
X145447285Y-54747200D02*
X145625086Y-54925001D01*
X162763200Y-92405200D02*
X162755047Y-92413353D01*
X150520400Y-91389200D02*
X150520400Y-87579200D01*
X150520400Y-87579200D02*
X150926800Y-87172800D01*
X150520400Y-91389200D02*
X150520400Y-92202000D01*
X150520400Y-92202000D02*
X152552400Y-94234000D01*
X156185000Y-56070000D02*
X156185000Y-57170000D01*
X157435000Y-58420000D02*
X158038800Y-58420000D01*
X156185000Y-57170000D02*
X157435000Y-58420000D01*
X159979553Y-60513153D02*
X159979553Y-61488741D01*
X159979553Y-61488741D02*
X150637547Y-70830747D01*
X160934400Y-63652400D02*
X162052000Y-63652400D01*
X159979553Y-60513153D02*
X151521353Y-68971353D01*
X153720800Y-70866000D02*
X155651200Y-68935600D01*
X155651200Y-68935600D02*
X160934400Y-63652400D01*
X177647600Y-92405200D02*
X162763200Y-92405200D01*
X180086000Y-92405200D02*
X177647600Y-92405200D01*
X161086800Y-72760840D02*
X154772360Y-72760840D01*
X154772360Y-72760840D02*
X150266400Y-77266800D01*
G04 #@! TO.N,G23*
X148419300Y-64668400D02*
X148639800Y-64447900D01*
X148639800Y-64447900D02*
X148878600Y-64447900D01*
X148878600Y-64447900D02*
X152576700Y-60749800D01*
X152576700Y-60749800D02*
X152576700Y-56748200D01*
X152576700Y-56748200D02*
X156282200Y-53042700D01*
X156282200Y-53042700D02*
X172669700Y-53042700D01*
X172669700Y-53042700D02*
X175329700Y-55702700D01*
X175329700Y-55702700D02*
X175329700Y-56070000D01*
X176505000Y-56070000D02*
X175329700Y-56070000D01*
X146594000Y-64668400D02*
X148419300Y-64668400D01*
G04 #@! TO.N,G19*
X146594000Y-67208400D02*
X148419300Y-67208400D01*
X150141200Y-67125700D02*
X148502000Y-67125700D01*
X148502000Y-67125700D02*
X148419300Y-67208400D01*
G04 #@! TO.N,G18*
X144780000Y-69748400D02*
X146594000Y-69748400D01*
G04 #@! TO.N,G3*
X146594000Y-72288400D02*
X150205200Y-72288400D01*
X165169700Y-56070000D02*
X165169700Y-57323900D01*
X165169700Y-57323900D02*
X150205200Y-72288400D01*
X166345000Y-56070000D02*
X165169700Y-56070000D01*
G04 #@! TO.N,G16*
X148419300Y-74828400D02*
X150116200Y-74828400D01*
X150116200Y-74828400D02*
X150126200Y-74838400D01*
X146594000Y-74828400D02*
X148419300Y-74828400D01*
G04 #@! TO.N,G21*
X145166300Y-76257100D02*
X144768600Y-75859400D01*
X144768600Y-75859400D02*
X144768600Y-71595000D01*
X144768600Y-71595000D02*
X145054200Y-71309400D01*
X145054200Y-71309400D02*
X148158000Y-71309400D01*
X148158000Y-71309400D02*
X161265000Y-58202400D01*
X161265000Y-58202400D02*
X161265000Y-56070000D01*
X144768700Y-77368400D02*
X144768700Y-76654700D01*
X144768700Y-76654700D02*
X145166300Y-76257100D01*
X146594000Y-77368400D02*
X144768700Y-77368400D01*
G04 #@! TO.N,G2*
X146599000Y-79903400D02*
X146594000Y-79908400D01*
X150317200Y-79903400D02*
X146599000Y-79903400D01*
G04 #@! TO.N,G12*
X171425000Y-94170000D02*
X170249700Y-94170000D01*
X170249700Y-94170000D02*
X170249700Y-93802700D01*
X146604000Y-82438400D02*
X146594000Y-82448400D01*
X150418800Y-82438400D02*
X146604000Y-82438400D01*
G04 #@! TO.N,G15*
X166345000Y-94170000D02*
X165169700Y-94170000D01*
X165169700Y-94170000D02*
X165169700Y-93802700D01*
X148344000Y-84988400D02*
X150418800Y-84988400D01*
X146594000Y-84988400D02*
X148344000Y-84988400D01*
G04 #@! TO.N,HPWR*
X147506500Y-87528400D02*
X147371000Y-87663900D01*
X147506500Y-87528400D02*
X148419000Y-87528400D01*
X146594000Y-87528400D02*
X147506500Y-87528400D01*
X147371000Y-89744900D02*
X147694000Y-90068400D01*
X147694000Y-90068400D02*
X146699100Y-90068400D01*
X146699100Y-90068400D02*
X146594000Y-90068400D01*
X148754000Y-87518400D02*
X148429000Y-87518400D01*
X148429000Y-87518400D02*
X148419000Y-87528400D01*
X146594000Y-88278400D02*
X146594000Y-90068400D01*
X146594000Y-87528400D02*
X146594000Y-88278400D01*
X146594000Y-90818400D02*
X146594000Y-92608400D01*
X146594000Y-90068400D02*
X146594000Y-90818400D01*
G04 #@! TO.N,+BATT*
X141554000Y-92608400D02*
X143379300Y-92608400D01*
X158725000Y-94170000D02*
X157549700Y-94170000D01*
X157549700Y-94170000D02*
X157549700Y-94978000D01*
X157549700Y-94978000D02*
X157182300Y-95345400D01*
X157182300Y-95345400D02*
X151762900Y-95345400D01*
X151762900Y-95345400D02*
X149851200Y-93433700D01*
X149851200Y-93433700D02*
X144204600Y-93433700D01*
X144204600Y-93433700D02*
X143379300Y-92608400D01*
G04 #@! TO.N,+5V*
X144709500Y-86936400D02*
X145307900Y-86338000D01*
X144709500Y-88165200D02*
X144709500Y-86936400D01*
X144849300Y-88305000D02*
X144709500Y-88165200D01*
X144849300Y-89119600D02*
X144849300Y-88305000D01*
X141854000Y-90068400D02*
X141554000Y-90068400D01*
X160089700Y-93802600D02*
X160089700Y-94170000D01*
X152625100Y-86338000D02*
X160089700Y-93802600D01*
X145307900Y-86338000D02*
X152625100Y-86338000D01*
X143900500Y-90068400D02*
X144849300Y-89119600D01*
X141854000Y-90068400D02*
X143900500Y-90068400D01*
X161265000Y-94170000D02*
X160089700Y-94170000D01*
G04 #@! TO.N,G34*
X162629700Y-94170000D02*
X162629700Y-93802700D01*
X162629700Y-93802700D02*
X154714700Y-85887700D01*
X154714700Y-85887700D02*
X145020000Y-85887700D01*
X145020000Y-85887700D02*
X143379300Y-87528400D01*
X141554000Y-87528400D02*
X143379300Y-87528400D01*
X163805000Y-94170000D02*
X162629700Y-94170000D01*
X139394000Y-87528400D02*
X141554000Y-87528400D01*
G04 #@! TO.N,G0*
X168885000Y-94170000D02*
X167709700Y-94170000D01*
X167709700Y-94170000D02*
X167709700Y-93802700D01*
X142641500Y-83900900D02*
X141554000Y-84988400D01*
X142936500Y-83900900D02*
X142641500Y-83900900D01*
G04 #@! TO.N,G13*
X173965000Y-94170000D02*
X172789700Y-94170000D01*
X172789700Y-94170000D02*
X172789700Y-93802700D01*
X142674000Y-81328400D02*
X141554000Y-82448400D01*
X142969000Y-81328400D02*
X142674000Y-81328400D01*
G04 #@! TO.N,G5*
X143379300Y-79908400D02*
X143752900Y-79908400D01*
X141554000Y-79908400D02*
X143379300Y-79908400D01*
G04 #@! TO.N,G22*
X140739000Y-78480900D02*
X140739000Y-77368400D01*
X140739000Y-77368400D02*
X139728700Y-77368400D01*
X141554000Y-77368400D02*
X140739000Y-77368400D01*
X163805000Y-56070000D02*
X162629700Y-56070000D01*
X162629700Y-56070000D02*
X162629700Y-55702700D01*
X162629700Y-55702700D02*
X161774500Y-54847500D01*
X161774500Y-54847500D02*
X160803200Y-54847500D01*
X160803200Y-54847500D02*
X159910800Y-55739900D01*
X159910800Y-55739900D02*
X159910800Y-58918000D01*
X159910800Y-58918000D02*
X148194800Y-70634000D01*
X148194800Y-70634000D02*
X145092700Y-70634000D01*
X145092700Y-70634000D02*
X144233300Y-71493400D01*
X144233300Y-71493400D02*
X144233300Y-72101100D01*
X144233300Y-72101100D02*
X143220600Y-73113800D01*
X143220600Y-73113800D02*
X140741200Y-73113800D01*
X140741200Y-73113800D02*
X139728700Y-74126300D01*
X139728700Y-74126300D02*
X139728700Y-77368400D01*
G04 #@! TO.N,G17*
X184125000Y-94170000D02*
X182949700Y-94170000D01*
X182949700Y-94170000D02*
X182949700Y-93802700D01*
X182949700Y-93802700D02*
X168229900Y-79082900D01*
X168229900Y-79082900D02*
X145826200Y-79082900D01*
X145826200Y-79082900D02*
X143732400Y-76989100D01*
X143732400Y-76989100D02*
X143732400Y-74828400D01*
X143379300Y-74828400D02*
X143732400Y-74828400D01*
X141554000Y-74828400D02*
X143379300Y-74828400D01*
G04 #@! TO.N,G1*
X143379300Y-72288400D02*
X143379300Y-71227200D01*
X143379300Y-71227200D02*
X143449300Y-71157200D01*
X141554000Y-72288400D02*
X143379300Y-72288400D01*
G04 #@! TO.N,G26*
X141469500Y-66380300D02*
X142356100Y-65493700D01*
X142356100Y-65493700D02*
X148242100Y-65493700D01*
X148242100Y-65493700D02*
X148837600Y-64898200D01*
X148837600Y-64898200D02*
X149072200Y-64898200D01*
X149072200Y-64898200D02*
X153027000Y-60943400D01*
X153027000Y-60943400D02*
X153027000Y-60708800D01*
X153027000Y-60708800D02*
X154921200Y-58814600D01*
X154921200Y-58814600D02*
X154921200Y-55132900D01*
X154921200Y-55132900D02*
X156557600Y-53496500D01*
X156557600Y-53496500D02*
X169724000Y-53496500D01*
X169724000Y-53496500D02*
X169949200Y-53721700D01*
X169949200Y-53721700D02*
X170106200Y-53721700D01*
X170106200Y-53721700D02*
X170331200Y-53946700D01*
X170331200Y-53946700D02*
X170968100Y-53946700D01*
X170968100Y-53946700D02*
X172695000Y-55673600D01*
X172695000Y-55673600D02*
X172695000Y-56557800D01*
X172695000Y-56557800D02*
X173382500Y-57245300D01*
X173382500Y-57245300D02*
X179601800Y-57245300D01*
X179601800Y-57245300D02*
X180409700Y-56437400D01*
X180409700Y-56437400D02*
X180409700Y-56070000D01*
X140641400Y-67208400D02*
X141469500Y-66380300D01*
X141469500Y-66380300D02*
X141173500Y-66084400D01*
X181585000Y-56070000D02*
X180409700Y-56070000D01*
X141554000Y-67208400D02*
X140641400Y-67208400D01*
G04 #@! TO.N,G25*
X143725300Y-64668400D02*
X144555100Y-63838600D01*
X144555100Y-63838600D02*
X148771600Y-63838600D01*
X148771600Y-63838600D02*
X151967100Y-60643100D01*
X151967100Y-60643100D02*
X151967100Y-56605400D01*
X151967100Y-56605400D02*
X155982300Y-52590200D01*
X155982300Y-52590200D02*
X173260500Y-52590200D01*
X173260500Y-52590200D02*
X175565000Y-54894700D01*
X175565000Y-54894700D02*
X177061800Y-54894700D01*
X177061800Y-54894700D02*
X177869700Y-55702600D01*
X177869700Y-55702600D02*
X177869700Y-56070000D01*
X143379300Y-64668400D02*
X143725300Y-64668400D01*
X179045000Y-56070000D02*
X177869700Y-56070000D01*
X141554000Y-64668400D02*
X143379300Y-64668400D01*
G04 #@! TO.N,RST*
X139679000Y-62128400D02*
X139404000Y-62128400D01*
X139404000Y-62128400D02*
X139394000Y-62138400D01*
X141554000Y-62128400D02*
X139679000Y-62128400D01*
X189205000Y-56070000D02*
X188029700Y-56070000D01*
X188029700Y-56070000D02*
X188029700Y-55702700D01*
X184016890Y-51689890D02*
X184193800Y-51866800D01*
X155523310Y-51689890D02*
X184016890Y-51689890D01*
X184193800Y-51866800D02*
X184016600Y-51689600D01*
X139679000Y-56390500D02*
X140597300Y-55472200D01*
X140597300Y-55472200D02*
X151741000Y-55472200D01*
X151741000Y-55472200D02*
X155523310Y-51689890D01*
X188029700Y-55702700D02*
X184193800Y-51866800D01*
X139679000Y-62128400D02*
X139679000Y-56390500D01*
X141544000Y-62138400D02*
X141554000Y-62128400D01*
X139394000Y-62138400D02*
X141544000Y-62138400D01*
G04 #@! TO.N,G36*
X185489700Y-56070000D02*
X185489700Y-55702700D01*
X185489700Y-55702700D02*
X182377200Y-52590200D01*
X182377200Y-52590200D02*
X174122700Y-52590200D01*
X174122700Y-52590200D02*
X173672400Y-52139900D01*
X173672400Y-52139900D02*
X155757200Y-52139900D01*
X155757200Y-52139900D02*
X151746200Y-56150900D01*
X151746200Y-56150900D02*
X144962300Y-56150900D01*
X144962300Y-56150900D02*
X144618100Y-56495100D01*
X144618100Y-56495100D02*
X144618100Y-56836900D01*
X144618100Y-56836900D02*
X144062400Y-57392600D01*
X144062400Y-57392600D02*
X143728900Y-57392600D01*
X143728900Y-57392600D02*
X141533100Y-59588400D01*
X141533100Y-59588400D02*
X141533100Y-58821200D01*
X141533100Y-58821200D02*
X141186800Y-58474900D01*
X186665000Y-56070000D02*
X185489700Y-56070000D01*
X141554000Y-59588400D02*
X141533100Y-59588400D01*
G04 #@! TO.N,G35*
X141554000Y-57048400D02*
X143379300Y-57048400D01*
X143742300Y-56651000D02*
X143379300Y-57014000D01*
X143379300Y-57014000D02*
X143379300Y-57048400D01*
G04 #@! TO.N,+3V3*
X158725000Y-56070000D02*
X158725000Y-56473200D01*
X158725000Y-56473200D02*
X158725000Y-56288800D01*
X158725000Y-56288800D02*
X160616700Y-54397100D01*
X160616700Y-54397100D02*
X166349300Y-54397100D01*
X166349300Y-54397100D02*
X167544100Y-55591900D01*
X167544100Y-55591900D02*
X167544100Y-73873800D01*
X167544100Y-73873800D02*
X186665000Y-92994700D01*
X186665000Y-94170000D02*
X186665000Y-92994700D01*
X143242300Y-69748400D02*
X141554000Y-69748400D01*
G04 #@! TD*
D15*
G04 #@! TO.N,GND*
G36*
X147643175Y-50847265D02*
X147444569Y-50765000D01*
X146555431Y-50765000D01*
X145733974Y-51105259D01*
X145105259Y-51733974D01*
X144765000Y-52555431D01*
X144765000Y-53444569D01*
X145105259Y-54266026D01*
X145551433Y-54712200D01*
X143400157Y-54712200D01*
X143982799Y-54470862D01*
X144470862Y-53982799D01*
X144735000Y-53345113D01*
X144735000Y-52654887D01*
X144470862Y-52017201D01*
X143982799Y-51529138D01*
X143345113Y-51265000D01*
X142654887Y-51265000D01*
X142017201Y-51529138D01*
X141529138Y-52017201D01*
X141265000Y-52654887D01*
X141265000Y-53345113D01*
X141529138Y-53982799D01*
X142017201Y-54470862D01*
X142599843Y-54712200D01*
X140672146Y-54712200D01*
X140597299Y-54697312D01*
X140522452Y-54712200D01*
X140522448Y-54712200D01*
X140300763Y-54756296D01*
X140300761Y-54756297D01*
X140300762Y-54756297D01*
X140112826Y-54881871D01*
X140112824Y-54881873D01*
X140049371Y-54924271D01*
X140006973Y-54987725D01*
X139194527Y-55800171D01*
X139131072Y-55842571D01*
X139088672Y-55906027D01*
X139088671Y-55906028D01*
X139018780Y-56010628D01*
X138963097Y-56093963D01*
X138951772Y-56150900D01*
X138904112Y-56390500D01*
X138919001Y-56465352D01*
X138919000Y-61214875D01*
X138807720Y-61260969D01*
X138516569Y-61552120D01*
X138359000Y-61932526D01*
X138359000Y-62344274D01*
X138516569Y-62724680D01*
X138807720Y-63015831D01*
X139188126Y-63173400D01*
X139599874Y-63173400D01*
X139980280Y-63015831D01*
X140097711Y-62898400D01*
X140170700Y-62898400D01*
X140296191Y-63086209D01*
X140506235Y-63226557D01*
X140754000Y-63275840D01*
X142554000Y-63275840D01*
X142801765Y-63226557D01*
X143011809Y-63086209D01*
X143152157Y-62876165D01*
X143201440Y-62628400D01*
X143201440Y-61628400D01*
X143166623Y-61453362D01*
X143291759Y-61640641D01*
X143650654Y-61880447D01*
X143967139Y-61943400D01*
X144180861Y-61943400D01*
X144497346Y-61880447D01*
X144856241Y-61640641D01*
X144975607Y-61461997D01*
X144959000Y-61502090D01*
X144959000Y-61842650D01*
X145117750Y-62001400D01*
X146367000Y-62001400D01*
X146367000Y-61152150D01*
X146621000Y-61152150D01*
X146621000Y-62001400D01*
X147870250Y-62001400D01*
X148029000Y-61842650D01*
X148029000Y-61502090D01*
X147932327Y-61268701D01*
X147753698Y-61090073D01*
X147520309Y-60993400D01*
X146779750Y-60993400D01*
X146621000Y-61152150D01*
X146367000Y-61152150D01*
X146208250Y-60993400D01*
X145467691Y-60993400D01*
X145234302Y-61090073D01*
X145109311Y-61215063D01*
X145180256Y-60858400D01*
X145096047Y-60435054D01*
X144856241Y-60076159D01*
X144553914Y-59874150D01*
X145059000Y-59874150D01*
X145059000Y-60214710D01*
X145155673Y-60448099D01*
X145334302Y-60626727D01*
X145567691Y-60723400D01*
X146308250Y-60723400D01*
X146467000Y-60564650D01*
X146467000Y-59715400D01*
X146721000Y-59715400D01*
X146721000Y-60564650D01*
X146879750Y-60723400D01*
X147620309Y-60723400D01*
X147853698Y-60626727D01*
X148032327Y-60448099D01*
X148129000Y-60214710D01*
X148129000Y-59874150D01*
X147970250Y-59715400D01*
X146721000Y-59715400D01*
X146467000Y-59715400D01*
X145217750Y-59715400D01*
X145059000Y-59874150D01*
X144553914Y-59874150D01*
X144497346Y-59836353D01*
X144180861Y-59773400D01*
X143967139Y-59773400D01*
X143650654Y-59836353D01*
X143291759Y-60076159D01*
X143166623Y-60263438D01*
X143201440Y-60088400D01*
X143201440Y-59088400D01*
X143185921Y-59010380D01*
X143208740Y-58987561D01*
X143459397Y-59238218D01*
X143858180Y-59403400D01*
X144289820Y-59403400D01*
X144688603Y-59238218D01*
X144964731Y-58962090D01*
X145059000Y-58962090D01*
X145059000Y-59302650D01*
X145217750Y-59461400D01*
X146467000Y-59461400D01*
X146467000Y-58612150D01*
X146721000Y-58612150D01*
X146721000Y-59461400D01*
X147970250Y-59461400D01*
X148129000Y-59302650D01*
X148129000Y-58962090D01*
X148032327Y-58728701D01*
X147853698Y-58550073D01*
X147620309Y-58453400D01*
X146879750Y-58453400D01*
X146721000Y-58612150D01*
X146467000Y-58612150D01*
X146308250Y-58453400D01*
X145567691Y-58453400D01*
X145334302Y-58550073D01*
X145155673Y-58728701D01*
X145059000Y-58962090D01*
X144964731Y-58962090D01*
X144993818Y-58933003D01*
X145159000Y-58534220D01*
X145159000Y-58102580D01*
X145094544Y-57946970D01*
X145234302Y-58086727D01*
X145467691Y-58183400D01*
X146208250Y-58183400D01*
X146367000Y-58024650D01*
X146367000Y-57175400D01*
X146621000Y-57175400D01*
X146621000Y-58024650D01*
X146779750Y-58183400D01*
X147520309Y-58183400D01*
X147753698Y-58086727D01*
X147932327Y-57908099D01*
X148029000Y-57674710D01*
X148029000Y-57334150D01*
X147870250Y-57175400D01*
X146621000Y-57175400D01*
X146367000Y-57175400D01*
X146347000Y-57175400D01*
X146347000Y-56921400D01*
X146367000Y-56921400D01*
X146367000Y-56910900D01*
X146621000Y-56910900D01*
X146621000Y-56921400D01*
X147870250Y-56921400D01*
X147880750Y-56910900D01*
X151207101Y-56910900D01*
X151207100Y-60328297D01*
X148456799Y-63078600D01*
X147841825Y-63078600D01*
X147932327Y-62988099D01*
X148029000Y-62754710D01*
X148029000Y-62414150D01*
X147870250Y-62255400D01*
X146621000Y-62255400D01*
X146621000Y-62275400D01*
X146367000Y-62275400D01*
X146367000Y-62255400D01*
X145117750Y-62255400D01*
X144959000Y-62414150D01*
X144959000Y-62754710D01*
X145055673Y-62988099D01*
X145146175Y-63078600D01*
X144629946Y-63078600D01*
X144555099Y-63063712D01*
X144480252Y-63078600D01*
X144480248Y-63078600D01*
X144258563Y-63122696D01*
X144258561Y-63122697D01*
X144258562Y-63122697D01*
X144070626Y-63248271D01*
X144070624Y-63248273D01*
X144007171Y-63290671D01*
X143964773Y-63354125D01*
X143685498Y-63633400D01*
X143519426Y-63633400D01*
X143139020Y-63790969D01*
X143094958Y-63835031D01*
X143011809Y-63710591D01*
X142801765Y-63570243D01*
X142554000Y-63520960D01*
X140754000Y-63520960D01*
X140506235Y-63570243D01*
X140296191Y-63710591D01*
X140155843Y-63920635D01*
X140106560Y-64168400D01*
X140106560Y-65168400D01*
X140155843Y-65416165D01*
X140263363Y-65577079D01*
X140138500Y-65878526D01*
X140138500Y-66290274D01*
X140188698Y-66411464D01*
X140155843Y-66460635D01*
X140119561Y-66643038D01*
X140093471Y-66660471D01*
X139925496Y-66911863D01*
X139866511Y-67208400D01*
X139925496Y-67504937D01*
X140093471Y-67756329D01*
X140119561Y-67773762D01*
X140155843Y-67956165D01*
X140296191Y-68166209D01*
X140506235Y-68306557D01*
X140754000Y-68355840D01*
X142554000Y-68355840D01*
X142801765Y-68306557D01*
X143011809Y-68166209D01*
X143152157Y-67956165D01*
X143201440Y-67708400D01*
X143201440Y-66708400D01*
X143152157Y-66460635D01*
X143013886Y-66253700D01*
X145134114Y-66253700D01*
X144995843Y-66460635D01*
X144946560Y-66708400D01*
X144946560Y-67708400D01*
X144995843Y-67956165D01*
X145136191Y-68166209D01*
X145346235Y-68306557D01*
X145594000Y-68355840D01*
X147394000Y-68355840D01*
X147641765Y-68306557D01*
X147851809Y-68166209D01*
X147983982Y-67968400D01*
X148344453Y-67968400D01*
X148419300Y-67983288D01*
X148494147Y-67968400D01*
X148494152Y-67968400D01*
X148715837Y-67924304D01*
X148773612Y-67885700D01*
X149437489Y-67885700D01*
X149554920Y-68003131D01*
X149693476Y-68060523D01*
X148041440Y-69712559D01*
X148041440Y-69248400D01*
X147992157Y-69000635D01*
X147851809Y-68790591D01*
X147641765Y-68650243D01*
X147394000Y-68600960D01*
X145594000Y-68600960D01*
X145346235Y-68650243D01*
X145149982Y-68781376D01*
X144985874Y-68713400D01*
X144574126Y-68713400D01*
X144193720Y-68870969D01*
X144011150Y-69053539D01*
X143828580Y-68870969D01*
X143448174Y-68713400D01*
X143036426Y-68713400D01*
X142949915Y-68749234D01*
X142801765Y-68650243D01*
X142554000Y-68600960D01*
X140754000Y-68600960D01*
X140506235Y-68650243D01*
X140296191Y-68790591D01*
X140155843Y-69000635D01*
X140106560Y-69248400D01*
X140106560Y-70248400D01*
X140155843Y-70496165D01*
X140296191Y-70706209D01*
X140506235Y-70846557D01*
X140754000Y-70895840D01*
X142437283Y-70895840D01*
X142414300Y-70951326D01*
X142414300Y-71140960D01*
X140754000Y-71140960D01*
X140506235Y-71190243D01*
X140296191Y-71330591D01*
X140155843Y-71540635D01*
X140106560Y-71788400D01*
X140106560Y-72673638D01*
X139244230Y-73535969D01*
X139180771Y-73578371D01*
X139012796Y-73829764D01*
X138968700Y-74051449D01*
X138968700Y-74051453D01*
X138953812Y-74126300D01*
X138968700Y-74201147D01*
X138968701Y-77293543D01*
X138953811Y-77368400D01*
X139012796Y-77664937D01*
X139180771Y-77916329D01*
X139432163Y-78084304D01*
X139653848Y-78128400D01*
X139728700Y-78143289D01*
X139761249Y-78136815D01*
X139704000Y-78275026D01*
X139704000Y-78686774D01*
X139861569Y-79067180D01*
X140122525Y-79328136D01*
X140106560Y-79408400D01*
X140106560Y-80408400D01*
X140155843Y-80656165D01*
X140296191Y-80866209D01*
X140506235Y-81006557D01*
X140754000Y-81055840D01*
X141871758Y-81055840D01*
X141626638Y-81300960D01*
X140754000Y-81300960D01*
X140506235Y-81350243D01*
X140296191Y-81490591D01*
X140155843Y-81700635D01*
X140106560Y-81948400D01*
X140106560Y-82948400D01*
X140155843Y-83196165D01*
X140296191Y-83406209D01*
X140506235Y-83546557D01*
X140754000Y-83595840D01*
X141871758Y-83595840D01*
X141626638Y-83840960D01*
X140754000Y-83840960D01*
X140506235Y-83890243D01*
X140296191Y-84030591D01*
X140155843Y-84240635D01*
X140106560Y-84488400D01*
X140106560Y-85488400D01*
X140155843Y-85736165D01*
X140296191Y-85946209D01*
X140506235Y-86086557D01*
X140754000Y-86135840D01*
X142554000Y-86135840D01*
X142801765Y-86086557D01*
X143011809Y-85946209D01*
X143152157Y-85736165D01*
X143201440Y-85488400D01*
X143201440Y-84911434D01*
X143522780Y-84778331D01*
X143813931Y-84487180D01*
X143971500Y-84106774D01*
X143971500Y-83695026D01*
X143813931Y-83314620D01*
X143522780Y-83023469D01*
X143201440Y-82890366D01*
X143201440Y-82352396D01*
X143555280Y-82205831D01*
X143812711Y-81948400D01*
X144946560Y-81948400D01*
X144946560Y-82948400D01*
X144995843Y-83196165D01*
X145136191Y-83406209D01*
X145346235Y-83546557D01*
X145594000Y-83595840D01*
X147394000Y-83595840D01*
X147641765Y-83546557D01*
X147851809Y-83406209D01*
X147990664Y-83198400D01*
X149715089Y-83198400D01*
X149832520Y-83315831D01*
X150212926Y-83473400D01*
X150624674Y-83473400D01*
X151005080Y-83315831D01*
X151296231Y-83024680D01*
X151453800Y-82644274D01*
X151453800Y-82232526D01*
X151296231Y-81852120D01*
X151005080Y-81560969D01*
X150624674Y-81403400D01*
X150212926Y-81403400D01*
X149832520Y-81560969D01*
X149715089Y-81678400D01*
X147977300Y-81678400D01*
X147851809Y-81490591D01*
X147641765Y-81350243D01*
X147394000Y-81300960D01*
X145594000Y-81300960D01*
X145346235Y-81350243D01*
X145136191Y-81490591D01*
X144995843Y-81700635D01*
X144946560Y-81948400D01*
X143812711Y-81948400D01*
X143846431Y-81914680D01*
X144004000Y-81534274D01*
X144004000Y-81122526D01*
X143929804Y-80943400D01*
X143958774Y-80943400D01*
X144339180Y-80785831D01*
X144630331Y-80494680D01*
X144787900Y-80114274D01*
X144787900Y-79702526D01*
X144630331Y-79322120D01*
X144339180Y-79030969D01*
X143958774Y-78873400D01*
X143547026Y-78873400D01*
X143166620Y-79030969D01*
X143106013Y-79091576D01*
X143011809Y-78950591D01*
X142801765Y-78810243D01*
X142554000Y-78760960D01*
X141743271Y-78760960D01*
X141774000Y-78686774D01*
X141774000Y-78515840D01*
X142554000Y-78515840D01*
X142801765Y-78466557D01*
X143011809Y-78326209D01*
X143152157Y-78116165D01*
X143201440Y-77868400D01*
X143201440Y-77548367D01*
X143247930Y-77579431D01*
X144968184Y-79299687D01*
X144946560Y-79408400D01*
X144946560Y-80408400D01*
X144995843Y-80656165D01*
X145136191Y-80866209D01*
X145346235Y-81006557D01*
X145594000Y-81055840D01*
X147394000Y-81055840D01*
X147641765Y-81006557D01*
X147851809Y-80866209D01*
X147987323Y-80663400D01*
X149613489Y-80663400D01*
X149730920Y-80780831D01*
X150111326Y-80938400D01*
X150523074Y-80938400D01*
X150903480Y-80780831D01*
X151194631Y-80489680D01*
X151352200Y-80109274D01*
X151352200Y-79842900D01*
X167915099Y-79842900D01*
X180908336Y-92836138D01*
X180514375Y-93099375D01*
X180315000Y-93397761D01*
X180115625Y-93099375D01*
X179624418Y-92771161D01*
X179191256Y-92685000D01*
X178898744Y-92685000D01*
X178465582Y-92771161D01*
X177974375Y-93099375D01*
X177775000Y-93397761D01*
X177575625Y-93099375D01*
X177084418Y-92771161D01*
X176651256Y-92685000D01*
X176358744Y-92685000D01*
X175925582Y-92771161D01*
X175434375Y-93099375D01*
X175235000Y-93397761D01*
X175035625Y-93099375D01*
X174544418Y-92771161D01*
X174111256Y-92685000D01*
X173818744Y-92685000D01*
X173385582Y-92771161D01*
X172952896Y-93060273D01*
X172789700Y-93027811D01*
X172493164Y-93086796D01*
X172484982Y-93092263D01*
X172004418Y-92771161D01*
X171571256Y-92685000D01*
X171278744Y-92685000D01*
X170845582Y-92771161D01*
X170412896Y-93060273D01*
X170249700Y-93027811D01*
X169953164Y-93086796D01*
X169944982Y-93092263D01*
X169464418Y-92771161D01*
X169031256Y-92685000D01*
X168738744Y-92685000D01*
X168305582Y-92771161D01*
X167872896Y-93060273D01*
X167709700Y-93027811D01*
X167413164Y-93086796D01*
X167404982Y-93092263D01*
X166924418Y-92771161D01*
X166491256Y-92685000D01*
X166198744Y-92685000D01*
X165765582Y-92771161D01*
X165332896Y-93060273D01*
X165169700Y-93027811D01*
X164873164Y-93086796D01*
X164864982Y-93092263D01*
X164384418Y-92771161D01*
X163951256Y-92685000D01*
X163658744Y-92685000D01*
X163225582Y-92771161D01*
X162894312Y-92992509D01*
X155305031Y-85403230D01*
X155262629Y-85339771D01*
X155011237Y-85171796D01*
X154789552Y-85127700D01*
X154789547Y-85127700D01*
X154714700Y-85112812D01*
X154639853Y-85127700D01*
X151453800Y-85127700D01*
X151453800Y-84782526D01*
X151296231Y-84402120D01*
X151005080Y-84110969D01*
X150624674Y-83953400D01*
X150212926Y-83953400D01*
X149832520Y-84110969D01*
X149715089Y-84228400D01*
X147983982Y-84228400D01*
X147851809Y-84030591D01*
X147641765Y-83890243D01*
X147394000Y-83840960D01*
X145594000Y-83840960D01*
X145346235Y-83890243D01*
X145136191Y-84030591D01*
X144995843Y-84240635D01*
X144946560Y-84488400D01*
X144946560Y-85127420D01*
X144945152Y-85127700D01*
X144945148Y-85127700D01*
X144723463Y-85171796D01*
X144472071Y-85339771D01*
X144429671Y-85403227D01*
X143112145Y-86720754D01*
X143011809Y-86570591D01*
X142801765Y-86430243D01*
X142554000Y-86380960D01*
X140754000Y-86380960D01*
X140506235Y-86430243D01*
X140296191Y-86570591D01*
X140164018Y-86768400D01*
X140097711Y-86768400D01*
X139980280Y-86650969D01*
X139599874Y-86493400D01*
X139188126Y-86493400D01*
X138807720Y-86650969D01*
X138516569Y-86942120D01*
X138359000Y-87322526D01*
X138359000Y-87734274D01*
X138516569Y-88114680D01*
X138807720Y-88405831D01*
X139188126Y-88563400D01*
X139599874Y-88563400D01*
X139980280Y-88405831D01*
X140097711Y-88288400D01*
X140164018Y-88288400D01*
X140296191Y-88486209D01*
X140506235Y-88626557D01*
X140754000Y-88675840D01*
X142554000Y-88675840D01*
X142801765Y-88626557D01*
X143011809Y-88486209D01*
X143037487Y-88447780D01*
X142967744Y-88798400D01*
X143037487Y-89149020D01*
X143011809Y-89110591D01*
X142801765Y-88970243D01*
X142554000Y-88920960D01*
X140754000Y-88920960D01*
X140506235Y-88970243D01*
X140296191Y-89110591D01*
X140155843Y-89320635D01*
X140106560Y-89568400D01*
X140106560Y-90568400D01*
X140155843Y-90816165D01*
X140296191Y-91026209D01*
X140506235Y-91166557D01*
X140754000Y-91215840D01*
X142554000Y-91215840D01*
X142801765Y-91166557D01*
X143011809Y-91026209D01*
X143056823Y-90958841D01*
X142989000Y-91122580D01*
X142989000Y-91554220D01*
X143022790Y-91635795D01*
X143002342Y-91644265D01*
X142801765Y-91510243D01*
X142554000Y-91460960D01*
X140754000Y-91460960D01*
X140506235Y-91510243D01*
X140296191Y-91650591D01*
X140155843Y-91860635D01*
X140106560Y-92108400D01*
X140106560Y-93108400D01*
X140155843Y-93356165D01*
X140296191Y-93566209D01*
X140506235Y-93706557D01*
X140754000Y-93755840D01*
X142554000Y-93755840D01*
X142801765Y-93706557D01*
X143002342Y-93572535D01*
X143173426Y-93643400D01*
X143339498Y-93643400D01*
X143614273Y-93918175D01*
X143656671Y-93981629D01*
X143720124Y-94024027D01*
X143720126Y-94024029D01*
X143845502Y-94107802D01*
X143908063Y-94149604D01*
X144129748Y-94193700D01*
X144129752Y-94193700D01*
X144204599Y-94208588D01*
X144279446Y-94193700D01*
X149536399Y-94193700D01*
X151172571Y-95829873D01*
X151214971Y-95893329D01*
X151466363Y-96061304D01*
X151688048Y-96105400D01*
X151688052Y-96105400D01*
X151762899Y-96120288D01*
X151837746Y-96105400D01*
X157107453Y-96105400D01*
X157182300Y-96120288D01*
X157257147Y-96105400D01*
X157257152Y-96105400D01*
X157478837Y-96061304D01*
X157730229Y-95893329D01*
X157772631Y-95829870D01*
X158034170Y-95568331D01*
X158089496Y-95531363D01*
X158145582Y-95568839D01*
X158578744Y-95655000D01*
X158871256Y-95655000D01*
X159304418Y-95568839D01*
X159795625Y-95240625D01*
X159995000Y-94942239D01*
X160194375Y-95240625D01*
X160685582Y-95568839D01*
X161118744Y-95655000D01*
X161411256Y-95655000D01*
X161844418Y-95568839D01*
X162335625Y-95240625D01*
X162535000Y-94942239D01*
X162734375Y-95240625D01*
X163225582Y-95568839D01*
X163658744Y-95655000D01*
X163951256Y-95655000D01*
X164384418Y-95568839D01*
X164875625Y-95240625D01*
X165075000Y-94942239D01*
X165274375Y-95240625D01*
X165765582Y-95568839D01*
X166198744Y-95655000D01*
X166491256Y-95655000D01*
X166924418Y-95568839D01*
X167415625Y-95240625D01*
X167615000Y-94942239D01*
X167814375Y-95240625D01*
X168305582Y-95568839D01*
X168738744Y-95655000D01*
X169031256Y-95655000D01*
X169464418Y-95568839D01*
X169955625Y-95240625D01*
X170155000Y-94942239D01*
X170354375Y-95240625D01*
X170845582Y-95568839D01*
X171278744Y-95655000D01*
X171571256Y-95655000D01*
X172004418Y-95568839D01*
X172495625Y-95240625D01*
X172695000Y-94942239D01*
X172894375Y-95240625D01*
X173385582Y-95568839D01*
X173818744Y-95655000D01*
X174111256Y-95655000D01*
X174544418Y-95568839D01*
X175035625Y-95240625D01*
X175235000Y-94942239D01*
X175434375Y-95240625D01*
X175925582Y-95568839D01*
X176358744Y-95655000D01*
X176651256Y-95655000D01*
X177084418Y-95568839D01*
X177575625Y-95240625D01*
X177775000Y-94942239D01*
X177974375Y-95240625D01*
X178465582Y-95568839D01*
X178898744Y-95655000D01*
X179191256Y-95655000D01*
X179624418Y-95568839D01*
X180115625Y-95240625D01*
X180315000Y-94942239D01*
X180514375Y-95240625D01*
X181005582Y-95568839D01*
X181438744Y-95655000D01*
X181731256Y-95655000D01*
X182164418Y-95568839D01*
X182655625Y-95240625D01*
X182855000Y-94942239D01*
X183054375Y-95240625D01*
X183545582Y-95568839D01*
X183978744Y-95655000D01*
X184271256Y-95655000D01*
X184704418Y-95568839D01*
X185195625Y-95240625D01*
X185395000Y-94942239D01*
X185594375Y-95240625D01*
X186085582Y-95568839D01*
X186518744Y-95655000D01*
X186811256Y-95655000D01*
X187244418Y-95568839D01*
X187735625Y-95240625D01*
X187948843Y-94921522D01*
X188009817Y-95051358D01*
X188438076Y-95441645D01*
X188848110Y-95611476D01*
X189078000Y-95490155D01*
X189078000Y-94297000D01*
X189332000Y-94297000D01*
X189332000Y-95490155D01*
X189561890Y-95611476D01*
X189971924Y-95441645D01*
X190400183Y-95051358D01*
X190646486Y-94526892D01*
X190525819Y-94297000D01*
X189332000Y-94297000D01*
X189078000Y-94297000D01*
X189058000Y-94297000D01*
X189058000Y-94043000D01*
X189078000Y-94043000D01*
X189078000Y-92849845D01*
X189332000Y-92849845D01*
X189332000Y-94043000D01*
X190525819Y-94043000D01*
X190646486Y-93813108D01*
X190400183Y-93288642D01*
X189971924Y-92898355D01*
X189561890Y-92728524D01*
X189332000Y-92849845D01*
X189078000Y-92849845D01*
X188848110Y-92728524D01*
X188438076Y-92898355D01*
X188009817Y-93288642D01*
X187948843Y-93418478D01*
X187735625Y-93099375D01*
X187418571Y-92887526D01*
X187380904Y-92698163D01*
X187212929Y-92446771D01*
X187149473Y-92404371D01*
X168304100Y-73558999D01*
X168304100Y-57467849D01*
X168305582Y-57468839D01*
X168738744Y-57555000D01*
X169031256Y-57555000D01*
X169464418Y-57468839D01*
X169955625Y-57140625D01*
X170155000Y-56842239D01*
X170354375Y-57140625D01*
X170845582Y-57468839D01*
X171278744Y-57555000D01*
X171571256Y-57555000D01*
X172004418Y-57468839D01*
X172320223Y-57257825D01*
X172792171Y-57729773D01*
X172834571Y-57793229D01*
X172898027Y-57835629D01*
X173085962Y-57961204D01*
X173134105Y-57970780D01*
X173307648Y-58005300D01*
X173307652Y-58005300D01*
X173382500Y-58020188D01*
X173457348Y-58005300D01*
X179526953Y-58005300D01*
X179601800Y-58020188D01*
X179676647Y-58005300D01*
X179676652Y-58005300D01*
X179898337Y-57961204D01*
X180149729Y-57793229D01*
X180192131Y-57729770D01*
X180674371Y-57247531D01*
X181005582Y-57468839D01*
X181438744Y-57555000D01*
X181731256Y-57555000D01*
X182164418Y-57468839D01*
X182655625Y-57140625D01*
X182855000Y-56842239D01*
X183054375Y-57140625D01*
X183545582Y-57468839D01*
X183978744Y-57555000D01*
X184271256Y-57555000D01*
X184704418Y-57468839D01*
X185195625Y-57140625D01*
X185395000Y-56842239D01*
X185594375Y-57140625D01*
X186085582Y-57468839D01*
X186518744Y-57555000D01*
X186811256Y-57555000D01*
X187244418Y-57468839D01*
X187735625Y-57140625D01*
X187935000Y-56842239D01*
X188134375Y-57140625D01*
X188625582Y-57468839D01*
X189058744Y-57555000D01*
X189351256Y-57555000D01*
X189784418Y-57468839D01*
X190275625Y-57140625D01*
X190603839Y-56649418D01*
X190719092Y-56070000D01*
X190603839Y-55490582D01*
X190275625Y-54999375D01*
X189784418Y-54671161D01*
X189351256Y-54585000D01*
X189058744Y-54585000D01*
X188625582Y-54671161D01*
X188294311Y-54892509D01*
X184678272Y-51276471D01*
X184607221Y-51205420D01*
X184564819Y-51141961D01*
X184501360Y-51099559D01*
X184501072Y-51099271D01*
X184313137Y-50973697D01*
X184016600Y-50914712D01*
X183940295Y-50929890D01*
X155598156Y-50929890D01*
X155523309Y-50915002D01*
X155448462Y-50929890D01*
X155448458Y-50929890D01*
X155230933Y-50973159D01*
X155494092Y-50710000D01*
X197505910Y-50710000D01*
X197643175Y-50847265D01*
X197444569Y-50765000D01*
X196555431Y-50765000D01*
X195733974Y-51105259D01*
X195105259Y-51733974D01*
X194765000Y-52555431D01*
X194765000Y-53444569D01*
X195105259Y-54266026D01*
X195733974Y-54894741D01*
X196555431Y-55235000D01*
X197444569Y-55235000D01*
X198266026Y-54894741D01*
X198894741Y-54266026D01*
X199235000Y-53444569D01*
X199235000Y-52555431D01*
X199152736Y-52356827D01*
X199290000Y-52494092D01*
X199290001Y-97505907D01*
X199152736Y-97643173D01*
X199235000Y-97444569D01*
X199235000Y-96555431D01*
X198894741Y-95733974D01*
X198266026Y-95105259D01*
X197444569Y-94765000D01*
X196555431Y-94765000D01*
X195733974Y-95105259D01*
X195105259Y-95733974D01*
X194765000Y-96555431D01*
X194765000Y-97444569D01*
X195105259Y-98266026D01*
X195733974Y-98894741D01*
X196555431Y-99235000D01*
X197444569Y-99235000D01*
X197643175Y-99152735D01*
X197505910Y-99290000D01*
X155494092Y-99290000D01*
X153551494Y-97347404D01*
X153511881Y-97288119D01*
X153277028Y-97131195D01*
X153069926Y-97090000D01*
X153069924Y-97090000D01*
X153000000Y-97076091D01*
X152930076Y-97090000D01*
X150069926Y-97090000D01*
X150000000Y-97076091D01*
X149722971Y-97131195D01*
X149547399Y-97248509D01*
X149488119Y-97288119D01*
X149448510Y-97347398D01*
X149152736Y-97643173D01*
X149235000Y-97444569D01*
X149235000Y-96555431D01*
X148894741Y-95733974D01*
X148266026Y-95105259D01*
X147444569Y-94765000D01*
X146555431Y-94765000D01*
X145733974Y-95105259D01*
X145105259Y-95733974D01*
X144765000Y-96555431D01*
X144765000Y-97444569D01*
X145105259Y-98266026D01*
X145733974Y-98894741D01*
X146555431Y-99235000D01*
X147444569Y-99235000D01*
X147643175Y-99152735D01*
X147505910Y-99290000D01*
X102494092Y-99290000D01*
X102356827Y-99152736D01*
X102555431Y-99235000D01*
X103444569Y-99235000D01*
X104266026Y-98894741D01*
X104894741Y-98266026D01*
X105235000Y-97444569D01*
X105235000Y-96654887D01*
X105265000Y-96654887D01*
X105265000Y-97345113D01*
X105529138Y-97982799D01*
X106017201Y-98470862D01*
X106654887Y-98735000D01*
X107345113Y-98735000D01*
X107982799Y-98470862D01*
X108470862Y-97982799D01*
X108735000Y-97345113D01*
X108735000Y-96654887D01*
X141265000Y-96654887D01*
X141265000Y-97345113D01*
X141529138Y-97982799D01*
X142017201Y-98470862D01*
X142654887Y-98735000D01*
X143345113Y-98735000D01*
X143982799Y-98470862D01*
X144470862Y-97982799D01*
X144735000Y-97345113D01*
X144735000Y-96654887D01*
X144470862Y-96017201D01*
X143982799Y-95529138D01*
X143345113Y-95265000D01*
X142654887Y-95265000D01*
X142017201Y-95529138D01*
X141529138Y-96017201D01*
X141265000Y-96654887D01*
X108735000Y-96654887D01*
X108470862Y-96017201D01*
X107982799Y-95529138D01*
X107345113Y-95265000D01*
X106654887Y-95265000D01*
X106017201Y-95529138D01*
X105529138Y-96017201D01*
X105265000Y-96654887D01*
X105235000Y-96654887D01*
X105235000Y-96555431D01*
X104894741Y-95733974D01*
X104266026Y-95105259D01*
X103444569Y-94765000D01*
X102555431Y-94765000D01*
X101733974Y-95105259D01*
X101105259Y-95733974D01*
X100765000Y-96555431D01*
X100765000Y-97444569D01*
X100847265Y-97643175D01*
X100710000Y-97505910D01*
X100710000Y-52494090D01*
X100847265Y-52356825D01*
X100765000Y-52555431D01*
X100765000Y-53444569D01*
X101105259Y-54266026D01*
X101733974Y-54894741D01*
X102555431Y-55235000D01*
X103444569Y-55235000D01*
X104266026Y-54894741D01*
X104894741Y-54266026D01*
X105235000Y-53444569D01*
X105235000Y-52654887D01*
X105265000Y-52654887D01*
X105265000Y-53345113D01*
X105529138Y-53982799D01*
X106017201Y-54470862D01*
X106654887Y-54735000D01*
X107345113Y-54735000D01*
X107982799Y-54470862D01*
X108470862Y-53982799D01*
X108735000Y-53345113D01*
X108735000Y-52654887D01*
X108470862Y-52017201D01*
X107982799Y-51529138D01*
X107345113Y-51265000D01*
X106654887Y-51265000D01*
X106017201Y-51529138D01*
X105529138Y-52017201D01*
X105265000Y-52654887D01*
X105235000Y-52654887D01*
X105235000Y-52555431D01*
X104894741Y-51733974D01*
X104266026Y-51105259D01*
X103444569Y-50765000D01*
X102555431Y-50765000D01*
X102356827Y-50847264D01*
X102494092Y-50710000D01*
X147505910Y-50710000D01*
X147643175Y-50847265D01*
X147643175Y-50847265D01*
G37*
X147643175Y-50847265D02*
X147444569Y-50765000D01*
X146555431Y-50765000D01*
X145733974Y-51105259D01*
X145105259Y-51733974D01*
X144765000Y-52555431D01*
X144765000Y-53444569D01*
X145105259Y-54266026D01*
X145551433Y-54712200D01*
X143400157Y-54712200D01*
X143982799Y-54470862D01*
X144470862Y-53982799D01*
X144735000Y-53345113D01*
X144735000Y-52654887D01*
X144470862Y-52017201D01*
X143982799Y-51529138D01*
X143345113Y-51265000D01*
X142654887Y-51265000D01*
X142017201Y-51529138D01*
X141529138Y-52017201D01*
X141265000Y-52654887D01*
X141265000Y-53345113D01*
X141529138Y-53982799D01*
X142017201Y-54470862D01*
X142599843Y-54712200D01*
X140672146Y-54712200D01*
X140597299Y-54697312D01*
X140522452Y-54712200D01*
X140522448Y-54712200D01*
X140300763Y-54756296D01*
X140300761Y-54756297D01*
X140300762Y-54756297D01*
X140112826Y-54881871D01*
X140112824Y-54881873D01*
X140049371Y-54924271D01*
X140006973Y-54987725D01*
X139194527Y-55800171D01*
X139131072Y-55842571D01*
X139088672Y-55906027D01*
X139088671Y-55906028D01*
X139018780Y-56010628D01*
X138963097Y-56093963D01*
X138951772Y-56150900D01*
X138904112Y-56390500D01*
X138919001Y-56465352D01*
X138919000Y-61214875D01*
X138807720Y-61260969D01*
X138516569Y-61552120D01*
X138359000Y-61932526D01*
X138359000Y-62344274D01*
X138516569Y-62724680D01*
X138807720Y-63015831D01*
X139188126Y-63173400D01*
X139599874Y-63173400D01*
X139980280Y-63015831D01*
X140097711Y-62898400D01*
X140170700Y-62898400D01*
X140296191Y-63086209D01*
X140506235Y-63226557D01*
X140754000Y-63275840D01*
X142554000Y-63275840D01*
X142801765Y-63226557D01*
X143011809Y-63086209D01*
X143152157Y-62876165D01*
X143201440Y-62628400D01*
X143201440Y-61628400D01*
X143166623Y-61453362D01*
X143291759Y-61640641D01*
X143650654Y-61880447D01*
X143967139Y-61943400D01*
X144180861Y-61943400D01*
X144497346Y-61880447D01*
X144856241Y-61640641D01*
X144975607Y-61461997D01*
X144959000Y-61502090D01*
X144959000Y-61842650D01*
X145117750Y-62001400D01*
X146367000Y-62001400D01*
X146367000Y-61152150D01*
X146621000Y-61152150D01*
X146621000Y-62001400D01*
X147870250Y-62001400D01*
X148029000Y-61842650D01*
X148029000Y-61502090D01*
X147932327Y-61268701D01*
X147753698Y-61090073D01*
X147520309Y-60993400D01*
X146779750Y-60993400D01*
X146621000Y-61152150D01*
X146367000Y-61152150D01*
X146208250Y-60993400D01*
X145467691Y-60993400D01*
X145234302Y-61090073D01*
X145109311Y-61215063D01*
X145180256Y-60858400D01*
X145096047Y-60435054D01*
X144856241Y-60076159D01*
X144553914Y-59874150D01*
X145059000Y-59874150D01*
X145059000Y-60214710D01*
X145155673Y-60448099D01*
X145334302Y-60626727D01*
X145567691Y-60723400D01*
X146308250Y-60723400D01*
X146467000Y-60564650D01*
X146467000Y-59715400D01*
X146721000Y-59715400D01*
X146721000Y-60564650D01*
X146879750Y-60723400D01*
X147620309Y-60723400D01*
X147853698Y-60626727D01*
X148032327Y-60448099D01*
X148129000Y-60214710D01*
X148129000Y-59874150D01*
X147970250Y-59715400D01*
X146721000Y-59715400D01*
X146467000Y-59715400D01*
X145217750Y-59715400D01*
X145059000Y-59874150D01*
X144553914Y-59874150D01*
X144497346Y-59836353D01*
X144180861Y-59773400D01*
X143967139Y-59773400D01*
X143650654Y-59836353D01*
X143291759Y-60076159D01*
X143166623Y-60263438D01*
X143201440Y-60088400D01*
X143201440Y-59088400D01*
X143185921Y-59010380D01*
X143208740Y-58987561D01*
X143459397Y-59238218D01*
X143858180Y-59403400D01*
X144289820Y-59403400D01*
X144688603Y-59238218D01*
X144964731Y-58962090D01*
X145059000Y-58962090D01*
X145059000Y-59302650D01*
X145217750Y-59461400D01*
X146467000Y-59461400D01*
X146467000Y-58612150D01*
X146721000Y-58612150D01*
X146721000Y-59461400D01*
X147970250Y-59461400D01*
X148129000Y-59302650D01*
X148129000Y-58962090D01*
X148032327Y-58728701D01*
X147853698Y-58550073D01*
X147620309Y-58453400D01*
X146879750Y-58453400D01*
X146721000Y-58612150D01*
X146467000Y-58612150D01*
X146308250Y-58453400D01*
X145567691Y-58453400D01*
X145334302Y-58550073D01*
X145155673Y-58728701D01*
X145059000Y-58962090D01*
X144964731Y-58962090D01*
X144993818Y-58933003D01*
X145159000Y-58534220D01*
X145159000Y-58102580D01*
X145094544Y-57946970D01*
X145234302Y-58086727D01*
X145467691Y-58183400D01*
X146208250Y-58183400D01*
X146367000Y-58024650D01*
X146367000Y-57175400D01*
X146621000Y-57175400D01*
X146621000Y-58024650D01*
X146779750Y-58183400D01*
X147520309Y-58183400D01*
X147753698Y-58086727D01*
X147932327Y-57908099D01*
X148029000Y-57674710D01*
X148029000Y-57334150D01*
X147870250Y-57175400D01*
X146621000Y-57175400D01*
X146367000Y-57175400D01*
X146347000Y-57175400D01*
X146347000Y-56921400D01*
X146367000Y-56921400D01*
X146367000Y-56910900D01*
X146621000Y-56910900D01*
X146621000Y-56921400D01*
X147870250Y-56921400D01*
X147880750Y-56910900D01*
X151207101Y-56910900D01*
X151207100Y-60328297D01*
X148456799Y-63078600D01*
X147841825Y-63078600D01*
X147932327Y-62988099D01*
X148029000Y-62754710D01*
X148029000Y-62414150D01*
X147870250Y-62255400D01*
X146621000Y-62255400D01*
X146621000Y-62275400D01*
X146367000Y-62275400D01*
X146367000Y-62255400D01*
X145117750Y-62255400D01*
X144959000Y-62414150D01*
X144959000Y-62754710D01*
X145055673Y-62988099D01*
X145146175Y-63078600D01*
X144629946Y-63078600D01*
X144555099Y-63063712D01*
X144480252Y-63078600D01*
X144480248Y-63078600D01*
X144258563Y-63122696D01*
X144258561Y-63122697D01*
X144258562Y-63122697D01*
X144070626Y-63248271D01*
X144070624Y-63248273D01*
X144007171Y-63290671D01*
X143964773Y-63354125D01*
X143685498Y-63633400D01*
X143519426Y-63633400D01*
X143139020Y-63790969D01*
X143094958Y-63835031D01*
X143011809Y-63710591D01*
X142801765Y-63570243D01*
X142554000Y-63520960D01*
X140754000Y-63520960D01*
X140506235Y-63570243D01*
X140296191Y-63710591D01*
X140155843Y-63920635D01*
X140106560Y-64168400D01*
X140106560Y-65168400D01*
X140155843Y-65416165D01*
X140263363Y-65577079D01*
X140138500Y-65878526D01*
X140138500Y-66290274D01*
X140188698Y-66411464D01*
X140155843Y-66460635D01*
X140119561Y-66643038D01*
X140093471Y-66660471D01*
X139925496Y-66911863D01*
X139866511Y-67208400D01*
X139925496Y-67504937D01*
X140093471Y-67756329D01*
X140119561Y-67773762D01*
X140155843Y-67956165D01*
X140296191Y-68166209D01*
X140506235Y-68306557D01*
X140754000Y-68355840D01*
X142554000Y-68355840D01*
X142801765Y-68306557D01*
X143011809Y-68166209D01*
X143152157Y-67956165D01*
X143201440Y-67708400D01*
X143201440Y-66708400D01*
X143152157Y-66460635D01*
X143013886Y-66253700D01*
X145134114Y-66253700D01*
X144995843Y-66460635D01*
X144946560Y-66708400D01*
X144946560Y-67708400D01*
X144995843Y-67956165D01*
X145136191Y-68166209D01*
X145346235Y-68306557D01*
X145594000Y-68355840D01*
X147394000Y-68355840D01*
X147641765Y-68306557D01*
X147851809Y-68166209D01*
X147983982Y-67968400D01*
X148344453Y-67968400D01*
X148419300Y-67983288D01*
X148494147Y-67968400D01*
X148494152Y-67968400D01*
X148715837Y-67924304D01*
X148773612Y-67885700D01*
X149437489Y-67885700D01*
X149554920Y-68003131D01*
X149693476Y-68060523D01*
X148041440Y-69712559D01*
X148041440Y-69248400D01*
X147992157Y-69000635D01*
X147851809Y-68790591D01*
X147641765Y-68650243D01*
X147394000Y-68600960D01*
X145594000Y-68600960D01*
X145346235Y-68650243D01*
X145149982Y-68781376D01*
X144985874Y-68713400D01*
X144574126Y-68713400D01*
X144193720Y-68870969D01*
X144011150Y-69053539D01*
X143828580Y-68870969D01*
X143448174Y-68713400D01*
X143036426Y-68713400D01*
X142949915Y-68749234D01*
X142801765Y-68650243D01*
X142554000Y-68600960D01*
X140754000Y-68600960D01*
X140506235Y-68650243D01*
X140296191Y-68790591D01*
X140155843Y-69000635D01*
X140106560Y-69248400D01*
X140106560Y-70248400D01*
X140155843Y-70496165D01*
X140296191Y-70706209D01*
X140506235Y-70846557D01*
X140754000Y-70895840D01*
X142437283Y-70895840D01*
X142414300Y-70951326D01*
X142414300Y-71140960D01*
X140754000Y-71140960D01*
X140506235Y-71190243D01*
X140296191Y-71330591D01*
X140155843Y-71540635D01*
X140106560Y-71788400D01*
X140106560Y-72673638D01*
X139244230Y-73535969D01*
X139180771Y-73578371D01*
X139012796Y-73829764D01*
X138968700Y-74051449D01*
X138968700Y-74051453D01*
X138953812Y-74126300D01*
X138968700Y-74201147D01*
X138968701Y-77293543D01*
X138953811Y-77368400D01*
X139012796Y-77664937D01*
X139180771Y-77916329D01*
X139432163Y-78084304D01*
X139653848Y-78128400D01*
X139728700Y-78143289D01*
X139761249Y-78136815D01*
X139704000Y-78275026D01*
X139704000Y-78686774D01*
X139861569Y-79067180D01*
X140122525Y-79328136D01*
X140106560Y-79408400D01*
X140106560Y-80408400D01*
X140155843Y-80656165D01*
X140296191Y-80866209D01*
X140506235Y-81006557D01*
X140754000Y-81055840D01*
X141871758Y-81055840D01*
X141626638Y-81300960D01*
X140754000Y-81300960D01*
X140506235Y-81350243D01*
X140296191Y-81490591D01*
X140155843Y-81700635D01*
X140106560Y-81948400D01*
X140106560Y-82948400D01*
X140155843Y-83196165D01*
X140296191Y-83406209D01*
X140506235Y-83546557D01*
X140754000Y-83595840D01*
X141871758Y-83595840D01*
X141626638Y-83840960D01*
X140754000Y-83840960D01*
X140506235Y-83890243D01*
X140296191Y-84030591D01*
X140155843Y-84240635D01*
X140106560Y-84488400D01*
X140106560Y-85488400D01*
X140155843Y-85736165D01*
X140296191Y-85946209D01*
X140506235Y-86086557D01*
X140754000Y-86135840D01*
X142554000Y-86135840D01*
X142801765Y-86086557D01*
X143011809Y-85946209D01*
X143152157Y-85736165D01*
X143201440Y-85488400D01*
X143201440Y-84911434D01*
X143522780Y-84778331D01*
X143813931Y-84487180D01*
X143971500Y-84106774D01*
X143971500Y-83695026D01*
X143813931Y-83314620D01*
X143522780Y-83023469D01*
X143201440Y-82890366D01*
X143201440Y-82352396D01*
X143555280Y-82205831D01*
X143812711Y-81948400D01*
X144946560Y-81948400D01*
X144946560Y-82948400D01*
X144995843Y-83196165D01*
X145136191Y-83406209D01*
X145346235Y-83546557D01*
X145594000Y-83595840D01*
X147394000Y-83595840D01*
X147641765Y-83546557D01*
X147851809Y-83406209D01*
X147990664Y-83198400D01*
X149715089Y-83198400D01*
X149832520Y-83315831D01*
X150212926Y-83473400D01*
X150624674Y-83473400D01*
X151005080Y-83315831D01*
X151296231Y-83024680D01*
X151453800Y-82644274D01*
X151453800Y-82232526D01*
X151296231Y-81852120D01*
X151005080Y-81560969D01*
X150624674Y-81403400D01*
X150212926Y-81403400D01*
X149832520Y-81560969D01*
X149715089Y-81678400D01*
X147977300Y-81678400D01*
X147851809Y-81490591D01*
X147641765Y-81350243D01*
X147394000Y-81300960D01*
X145594000Y-81300960D01*
X145346235Y-81350243D01*
X145136191Y-81490591D01*
X144995843Y-81700635D01*
X144946560Y-81948400D01*
X143812711Y-81948400D01*
X143846431Y-81914680D01*
X144004000Y-81534274D01*
X144004000Y-81122526D01*
X143929804Y-80943400D01*
X143958774Y-80943400D01*
X144339180Y-80785831D01*
X144630331Y-80494680D01*
X144787900Y-80114274D01*
X144787900Y-79702526D01*
X144630331Y-79322120D01*
X144339180Y-79030969D01*
X143958774Y-78873400D01*
X143547026Y-78873400D01*
X143166620Y-79030969D01*
X143106013Y-79091576D01*
X143011809Y-78950591D01*
X142801765Y-78810243D01*
X142554000Y-78760960D01*
X141743271Y-78760960D01*
X141774000Y-78686774D01*
X141774000Y-78515840D01*
X142554000Y-78515840D01*
X142801765Y-78466557D01*
X143011809Y-78326209D01*
X143152157Y-78116165D01*
X143201440Y-77868400D01*
X143201440Y-77548367D01*
X143247930Y-77579431D01*
X144968184Y-79299687D01*
X144946560Y-79408400D01*
X144946560Y-80408400D01*
X144995843Y-80656165D01*
X145136191Y-80866209D01*
X145346235Y-81006557D01*
X145594000Y-81055840D01*
X147394000Y-81055840D01*
X147641765Y-81006557D01*
X147851809Y-80866209D01*
X147987323Y-80663400D01*
X149613489Y-80663400D01*
X149730920Y-80780831D01*
X150111326Y-80938400D01*
X150523074Y-80938400D01*
X150903480Y-80780831D01*
X151194631Y-80489680D01*
X151352200Y-80109274D01*
X151352200Y-79842900D01*
X167915099Y-79842900D01*
X180908336Y-92836138D01*
X180514375Y-93099375D01*
X180315000Y-93397761D01*
X180115625Y-93099375D01*
X179624418Y-92771161D01*
X179191256Y-92685000D01*
X178898744Y-92685000D01*
X178465582Y-92771161D01*
X177974375Y-93099375D01*
X177775000Y-93397761D01*
X177575625Y-93099375D01*
X177084418Y-92771161D01*
X176651256Y-92685000D01*
X176358744Y-92685000D01*
X175925582Y-92771161D01*
X175434375Y-93099375D01*
X175235000Y-93397761D01*
X175035625Y-93099375D01*
X174544418Y-92771161D01*
X174111256Y-92685000D01*
X173818744Y-92685000D01*
X173385582Y-92771161D01*
X172952896Y-93060273D01*
X172789700Y-93027811D01*
X172493164Y-93086796D01*
X172484982Y-93092263D01*
X172004418Y-92771161D01*
X171571256Y-92685000D01*
X171278744Y-92685000D01*
X170845582Y-92771161D01*
X170412896Y-93060273D01*
X170249700Y-93027811D01*
X169953164Y-93086796D01*
X169944982Y-93092263D01*
X169464418Y-92771161D01*
X169031256Y-92685000D01*
X168738744Y-92685000D01*
X168305582Y-92771161D01*
X167872896Y-93060273D01*
X167709700Y-93027811D01*
X167413164Y-93086796D01*
X167404982Y-93092263D01*
X166924418Y-92771161D01*
X166491256Y-92685000D01*
X166198744Y-92685000D01*
X165765582Y-92771161D01*
X165332896Y-93060273D01*
X165169700Y-93027811D01*
X164873164Y-93086796D01*
X164864982Y-93092263D01*
X164384418Y-92771161D01*
X163951256Y-92685000D01*
X163658744Y-92685000D01*
X163225582Y-92771161D01*
X162894312Y-92992509D01*
X155305031Y-85403230D01*
X155262629Y-85339771D01*
X155011237Y-85171796D01*
X154789552Y-85127700D01*
X154789547Y-85127700D01*
X154714700Y-85112812D01*
X154639853Y-85127700D01*
X151453800Y-85127700D01*
X151453800Y-84782526D01*
X151296231Y-84402120D01*
X151005080Y-84110969D01*
X150624674Y-83953400D01*
X150212926Y-83953400D01*
X149832520Y-84110969D01*
X149715089Y-84228400D01*
X147983982Y-84228400D01*
X147851809Y-84030591D01*
X147641765Y-83890243D01*
X147394000Y-83840960D01*
X145594000Y-83840960D01*
X145346235Y-83890243D01*
X145136191Y-84030591D01*
X144995843Y-84240635D01*
X144946560Y-84488400D01*
X144946560Y-85127420D01*
X144945152Y-85127700D01*
X144945148Y-85127700D01*
X144723463Y-85171796D01*
X144472071Y-85339771D01*
X144429671Y-85403227D01*
X143112145Y-86720754D01*
X143011809Y-86570591D01*
X142801765Y-86430243D01*
X142554000Y-86380960D01*
X140754000Y-86380960D01*
X140506235Y-86430243D01*
X140296191Y-86570591D01*
X140164018Y-86768400D01*
X140097711Y-86768400D01*
X139980280Y-86650969D01*
X139599874Y-86493400D01*
X139188126Y-86493400D01*
X138807720Y-86650969D01*
X138516569Y-86942120D01*
X138359000Y-87322526D01*
X138359000Y-87734274D01*
X138516569Y-88114680D01*
X138807720Y-88405831D01*
X139188126Y-88563400D01*
X139599874Y-88563400D01*
X139980280Y-88405831D01*
X140097711Y-88288400D01*
X140164018Y-88288400D01*
X140296191Y-88486209D01*
X140506235Y-88626557D01*
X140754000Y-88675840D01*
X142554000Y-88675840D01*
X142801765Y-88626557D01*
X143011809Y-88486209D01*
X143037487Y-88447780D01*
X142967744Y-88798400D01*
X143037487Y-89149020D01*
X143011809Y-89110591D01*
X142801765Y-88970243D01*
X142554000Y-88920960D01*
X140754000Y-88920960D01*
X140506235Y-88970243D01*
X140296191Y-89110591D01*
X140155843Y-89320635D01*
X140106560Y-89568400D01*
X140106560Y-90568400D01*
X140155843Y-90816165D01*
X140296191Y-91026209D01*
X140506235Y-91166557D01*
X140754000Y-91215840D01*
X142554000Y-91215840D01*
X142801765Y-91166557D01*
X143011809Y-91026209D01*
X143056823Y-90958841D01*
X142989000Y-91122580D01*
X142989000Y-91554220D01*
X143022790Y-91635795D01*
X143002342Y-91644265D01*
X142801765Y-91510243D01*
X142554000Y-91460960D01*
X140754000Y-91460960D01*
X140506235Y-91510243D01*
X140296191Y-91650591D01*
X140155843Y-91860635D01*
X140106560Y-92108400D01*
X140106560Y-93108400D01*
X140155843Y-93356165D01*
X140296191Y-93566209D01*
X140506235Y-93706557D01*
X140754000Y-93755840D01*
X142554000Y-93755840D01*
X142801765Y-93706557D01*
X143002342Y-93572535D01*
X143173426Y-93643400D01*
X143339498Y-93643400D01*
X143614273Y-93918175D01*
X143656671Y-93981629D01*
X143720124Y-94024027D01*
X143720126Y-94024029D01*
X143845502Y-94107802D01*
X143908063Y-94149604D01*
X144129748Y-94193700D01*
X144129752Y-94193700D01*
X144204599Y-94208588D01*
X144279446Y-94193700D01*
X149536399Y-94193700D01*
X151172571Y-95829873D01*
X151214971Y-95893329D01*
X151466363Y-96061304D01*
X151688048Y-96105400D01*
X151688052Y-96105400D01*
X151762899Y-96120288D01*
X151837746Y-96105400D01*
X157107453Y-96105400D01*
X157182300Y-96120288D01*
X157257147Y-96105400D01*
X157257152Y-96105400D01*
X157478837Y-96061304D01*
X157730229Y-95893329D01*
X157772631Y-95829870D01*
X158034170Y-95568331D01*
X158089496Y-95531363D01*
X158145582Y-95568839D01*
X158578744Y-95655000D01*
X158871256Y-95655000D01*
X159304418Y-95568839D01*
X159795625Y-95240625D01*
X159995000Y-94942239D01*
X160194375Y-95240625D01*
X160685582Y-95568839D01*
X161118744Y-95655000D01*
X161411256Y-95655000D01*
X161844418Y-95568839D01*
X162335625Y-95240625D01*
X162535000Y-94942239D01*
X162734375Y-95240625D01*
X163225582Y-95568839D01*
X163658744Y-95655000D01*
X163951256Y-95655000D01*
X164384418Y-95568839D01*
X164875625Y-95240625D01*
X165075000Y-94942239D01*
X165274375Y-95240625D01*
X165765582Y-95568839D01*
X166198744Y-95655000D01*
X166491256Y-95655000D01*
X166924418Y-95568839D01*
X167415625Y-95240625D01*
X167615000Y-94942239D01*
X167814375Y-95240625D01*
X168305582Y-95568839D01*
X168738744Y-95655000D01*
X169031256Y-95655000D01*
X169464418Y-95568839D01*
X169955625Y-95240625D01*
X170155000Y-94942239D01*
X170354375Y-95240625D01*
X170845582Y-95568839D01*
X171278744Y-95655000D01*
X171571256Y-95655000D01*
X172004418Y-95568839D01*
X172495625Y-95240625D01*
X172695000Y-94942239D01*
X172894375Y-95240625D01*
X173385582Y-95568839D01*
X173818744Y-95655000D01*
X174111256Y-95655000D01*
X174544418Y-95568839D01*
X175035625Y-95240625D01*
X175235000Y-94942239D01*
X175434375Y-95240625D01*
X175925582Y-95568839D01*
X176358744Y-95655000D01*
X176651256Y-95655000D01*
X177084418Y-95568839D01*
X177575625Y-95240625D01*
X177775000Y-94942239D01*
X177974375Y-95240625D01*
X178465582Y-95568839D01*
X178898744Y-95655000D01*
X179191256Y-95655000D01*
X179624418Y-95568839D01*
X180115625Y-95240625D01*
X180315000Y-94942239D01*
X180514375Y-95240625D01*
X181005582Y-95568839D01*
X181438744Y-95655000D01*
X181731256Y-95655000D01*
X182164418Y-95568839D01*
X182655625Y-95240625D01*
X182855000Y-94942239D01*
X183054375Y-95240625D01*
X183545582Y-95568839D01*
X183978744Y-95655000D01*
X184271256Y-95655000D01*
X184704418Y-95568839D01*
X185195625Y-95240625D01*
X185395000Y-94942239D01*
X185594375Y-95240625D01*
X186085582Y-95568839D01*
X186518744Y-95655000D01*
X186811256Y-95655000D01*
X187244418Y-95568839D01*
X187735625Y-95240625D01*
X187948843Y-94921522D01*
X188009817Y-95051358D01*
X188438076Y-95441645D01*
X188848110Y-95611476D01*
X189078000Y-95490155D01*
X189078000Y-94297000D01*
X189332000Y-94297000D01*
X189332000Y-95490155D01*
X189561890Y-95611476D01*
X189971924Y-95441645D01*
X190400183Y-95051358D01*
X190646486Y-94526892D01*
X190525819Y-94297000D01*
X189332000Y-94297000D01*
X189078000Y-94297000D01*
X189058000Y-94297000D01*
X189058000Y-94043000D01*
X189078000Y-94043000D01*
X189078000Y-92849845D01*
X189332000Y-92849845D01*
X189332000Y-94043000D01*
X190525819Y-94043000D01*
X190646486Y-93813108D01*
X190400183Y-93288642D01*
X189971924Y-92898355D01*
X189561890Y-92728524D01*
X189332000Y-92849845D01*
X189078000Y-92849845D01*
X188848110Y-92728524D01*
X188438076Y-92898355D01*
X188009817Y-93288642D01*
X187948843Y-93418478D01*
X187735625Y-93099375D01*
X187418571Y-92887526D01*
X187380904Y-92698163D01*
X187212929Y-92446771D01*
X187149473Y-92404371D01*
X168304100Y-73558999D01*
X168304100Y-57467849D01*
X168305582Y-57468839D01*
X168738744Y-57555000D01*
X169031256Y-57555000D01*
X169464418Y-57468839D01*
X169955625Y-57140625D01*
X170155000Y-56842239D01*
X170354375Y-57140625D01*
X170845582Y-57468839D01*
X171278744Y-57555000D01*
X171571256Y-57555000D01*
X172004418Y-57468839D01*
X172320223Y-57257825D01*
X172792171Y-57729773D01*
X172834571Y-57793229D01*
X172898027Y-57835629D01*
X173085962Y-57961204D01*
X173134105Y-57970780D01*
X173307648Y-58005300D01*
X173307652Y-58005300D01*
X173382500Y-58020188D01*
X173457348Y-58005300D01*
X179526953Y-58005300D01*
X179601800Y-58020188D01*
X179676647Y-58005300D01*
X179676652Y-58005300D01*
X179898337Y-57961204D01*
X180149729Y-57793229D01*
X180192131Y-57729770D01*
X180674371Y-57247531D01*
X181005582Y-57468839D01*
X181438744Y-57555000D01*
X181731256Y-57555000D01*
X182164418Y-57468839D01*
X182655625Y-57140625D01*
X182855000Y-56842239D01*
X183054375Y-57140625D01*
X183545582Y-57468839D01*
X183978744Y-57555000D01*
X184271256Y-57555000D01*
X184704418Y-57468839D01*
X185195625Y-57140625D01*
X185395000Y-56842239D01*
X185594375Y-57140625D01*
X186085582Y-57468839D01*
X186518744Y-57555000D01*
X186811256Y-57555000D01*
X187244418Y-57468839D01*
X187735625Y-57140625D01*
X187935000Y-56842239D01*
X188134375Y-57140625D01*
X188625582Y-57468839D01*
X189058744Y-57555000D01*
X189351256Y-57555000D01*
X189784418Y-57468839D01*
X190275625Y-57140625D01*
X190603839Y-56649418D01*
X190719092Y-56070000D01*
X190603839Y-55490582D01*
X190275625Y-54999375D01*
X189784418Y-54671161D01*
X189351256Y-54585000D01*
X189058744Y-54585000D01*
X188625582Y-54671161D01*
X188294311Y-54892509D01*
X184678272Y-51276471D01*
X184607221Y-51205420D01*
X184564819Y-51141961D01*
X184501360Y-51099559D01*
X184501072Y-51099271D01*
X184313137Y-50973697D01*
X184016600Y-50914712D01*
X183940295Y-50929890D01*
X155598156Y-50929890D01*
X155523309Y-50915002D01*
X155448462Y-50929890D01*
X155448458Y-50929890D01*
X155230933Y-50973159D01*
X155494092Y-50710000D01*
X197505910Y-50710000D01*
X197643175Y-50847265D01*
X197444569Y-50765000D01*
X196555431Y-50765000D01*
X195733974Y-51105259D01*
X195105259Y-51733974D01*
X194765000Y-52555431D01*
X194765000Y-53444569D01*
X195105259Y-54266026D01*
X195733974Y-54894741D01*
X196555431Y-55235000D01*
X197444569Y-55235000D01*
X198266026Y-54894741D01*
X198894741Y-54266026D01*
X199235000Y-53444569D01*
X199235000Y-52555431D01*
X199152736Y-52356827D01*
X199290000Y-52494092D01*
X199290001Y-97505907D01*
X199152736Y-97643173D01*
X199235000Y-97444569D01*
X199235000Y-96555431D01*
X198894741Y-95733974D01*
X198266026Y-95105259D01*
X197444569Y-94765000D01*
X196555431Y-94765000D01*
X195733974Y-95105259D01*
X195105259Y-95733974D01*
X194765000Y-96555431D01*
X194765000Y-97444569D01*
X195105259Y-98266026D01*
X195733974Y-98894741D01*
X196555431Y-99235000D01*
X197444569Y-99235000D01*
X197643175Y-99152735D01*
X197505910Y-99290000D01*
X155494092Y-99290000D01*
X153551494Y-97347404D01*
X153511881Y-97288119D01*
X153277028Y-97131195D01*
X153069926Y-97090000D01*
X153069924Y-97090000D01*
X153000000Y-97076091D01*
X152930076Y-97090000D01*
X150069926Y-97090000D01*
X150000000Y-97076091D01*
X149722971Y-97131195D01*
X149547399Y-97248509D01*
X149488119Y-97288119D01*
X149448510Y-97347398D01*
X149152736Y-97643173D01*
X149235000Y-97444569D01*
X149235000Y-96555431D01*
X148894741Y-95733974D01*
X148266026Y-95105259D01*
X147444569Y-94765000D01*
X146555431Y-94765000D01*
X145733974Y-95105259D01*
X145105259Y-95733974D01*
X144765000Y-96555431D01*
X144765000Y-97444569D01*
X145105259Y-98266026D01*
X145733974Y-98894741D01*
X146555431Y-99235000D01*
X147444569Y-99235000D01*
X147643175Y-99152735D01*
X147505910Y-99290000D01*
X102494092Y-99290000D01*
X102356827Y-99152736D01*
X102555431Y-99235000D01*
X103444569Y-99235000D01*
X104266026Y-98894741D01*
X104894741Y-98266026D01*
X105235000Y-97444569D01*
X105235000Y-96654887D01*
X105265000Y-96654887D01*
X105265000Y-97345113D01*
X105529138Y-97982799D01*
X106017201Y-98470862D01*
X106654887Y-98735000D01*
X107345113Y-98735000D01*
X107982799Y-98470862D01*
X108470862Y-97982799D01*
X108735000Y-97345113D01*
X108735000Y-96654887D01*
X141265000Y-96654887D01*
X141265000Y-97345113D01*
X141529138Y-97982799D01*
X142017201Y-98470862D01*
X142654887Y-98735000D01*
X143345113Y-98735000D01*
X143982799Y-98470862D01*
X144470862Y-97982799D01*
X144735000Y-97345113D01*
X144735000Y-96654887D01*
X144470862Y-96017201D01*
X143982799Y-95529138D01*
X143345113Y-95265000D01*
X142654887Y-95265000D01*
X142017201Y-95529138D01*
X141529138Y-96017201D01*
X141265000Y-96654887D01*
X108735000Y-96654887D01*
X108470862Y-96017201D01*
X107982799Y-95529138D01*
X107345113Y-95265000D01*
X106654887Y-95265000D01*
X106017201Y-95529138D01*
X105529138Y-96017201D01*
X105265000Y-96654887D01*
X105235000Y-96654887D01*
X105235000Y-96555431D01*
X104894741Y-95733974D01*
X104266026Y-95105259D01*
X103444569Y-94765000D01*
X102555431Y-94765000D01*
X101733974Y-95105259D01*
X101105259Y-95733974D01*
X100765000Y-96555431D01*
X100765000Y-97444569D01*
X100847265Y-97643175D01*
X100710000Y-97505910D01*
X100710000Y-52494090D01*
X100847265Y-52356825D01*
X100765000Y-52555431D01*
X100765000Y-53444569D01*
X101105259Y-54266026D01*
X101733974Y-54894741D01*
X102555431Y-55235000D01*
X103444569Y-55235000D01*
X104266026Y-54894741D01*
X104894741Y-54266026D01*
X105235000Y-53444569D01*
X105235000Y-52654887D01*
X105265000Y-52654887D01*
X105265000Y-53345113D01*
X105529138Y-53982799D01*
X106017201Y-54470862D01*
X106654887Y-54735000D01*
X107345113Y-54735000D01*
X107982799Y-54470862D01*
X108470862Y-53982799D01*
X108735000Y-53345113D01*
X108735000Y-52654887D01*
X108470862Y-52017201D01*
X107982799Y-51529138D01*
X107345113Y-51265000D01*
X106654887Y-51265000D01*
X106017201Y-51529138D01*
X105529138Y-52017201D01*
X105265000Y-52654887D01*
X105235000Y-52654887D01*
X105235000Y-52555431D01*
X104894741Y-51733974D01*
X104266026Y-51105259D01*
X103444569Y-50765000D01*
X102555431Y-50765000D01*
X102356827Y-50847264D01*
X102494092Y-50710000D01*
X147505910Y-50710000D01*
X147643175Y-50847265D01*
G36*
X158048396Y-92836098D02*
X157654375Y-93099375D01*
X157642184Y-93117619D01*
X157633157Y-93072235D01*
X157492809Y-92862191D01*
X157282765Y-92721843D01*
X157035000Y-92672560D01*
X155335000Y-92672560D01*
X155087235Y-92721843D01*
X154877191Y-92862191D01*
X154736843Y-93072235D01*
X154687560Y-93320000D01*
X154687560Y-94585400D01*
X152077702Y-94585400D01*
X150441531Y-92949230D01*
X150399129Y-92885771D01*
X150147737Y-92717796D01*
X149926052Y-92673700D01*
X149926047Y-92673700D01*
X149851200Y-92658812D01*
X149776353Y-92673700D01*
X148041440Y-92673700D01*
X148041440Y-92108400D01*
X147992157Y-91860635D01*
X147851809Y-91650591D01*
X147641765Y-91510243D01*
X147394000Y-91460960D01*
X147354000Y-91460960D01*
X147354000Y-91215840D01*
X147394000Y-91215840D01*
X147641765Y-91166557D01*
X147851809Y-91026209D01*
X147992157Y-90816165D01*
X147999714Y-90778172D01*
X148115958Y-90700500D01*
X148241505Y-90616753D01*
X148241675Y-90616498D01*
X148241929Y-90616329D01*
X148325745Y-90490889D01*
X148409674Y-90365491D01*
X148409734Y-90365192D01*
X148409904Y-90364937D01*
X148439487Y-90216215D01*
X148468888Y-90068999D01*
X148468829Y-90068701D01*
X148468889Y-90068400D01*
X148439370Y-89919996D01*
X148410133Y-89772416D01*
X148409963Y-89772162D01*
X148409904Y-89771863D01*
X148326002Y-89646295D01*
X148284704Y-89584385D01*
X148284495Y-89584176D01*
X148241929Y-89520471D01*
X148178717Y-89478234D01*
X147933071Y-89232208D01*
X147851809Y-89110591D01*
X147641765Y-88970243D01*
X147394000Y-88920960D01*
X147354000Y-88920960D01*
X147354000Y-88675840D01*
X147394000Y-88675840D01*
X147641765Y-88626557D01*
X147851809Y-88486209D01*
X147983982Y-88288400D01*
X148060289Y-88288400D01*
X148167720Y-88395831D01*
X148548126Y-88553400D01*
X148959874Y-88553400D01*
X149340280Y-88395831D01*
X149631431Y-88104680D01*
X149789000Y-87724274D01*
X149789000Y-87312526D01*
X149700141Y-87098000D01*
X152310299Y-87098000D01*
X158048396Y-92836098D01*
X158048396Y-92836098D01*
G37*
X158048396Y-92836098D02*
X157654375Y-93099375D01*
X157642184Y-93117619D01*
X157633157Y-93072235D01*
X157492809Y-92862191D01*
X157282765Y-92721843D01*
X157035000Y-92672560D01*
X155335000Y-92672560D01*
X155087235Y-92721843D01*
X154877191Y-92862191D01*
X154736843Y-93072235D01*
X154687560Y-93320000D01*
X154687560Y-94585400D01*
X152077702Y-94585400D01*
X150441531Y-92949230D01*
X150399129Y-92885771D01*
X150147737Y-92717796D01*
X149926052Y-92673700D01*
X149926047Y-92673700D01*
X149851200Y-92658812D01*
X149776353Y-92673700D01*
X148041440Y-92673700D01*
X148041440Y-92108400D01*
X147992157Y-91860635D01*
X147851809Y-91650591D01*
X147641765Y-91510243D01*
X147394000Y-91460960D01*
X147354000Y-91460960D01*
X147354000Y-91215840D01*
X147394000Y-91215840D01*
X147641765Y-91166557D01*
X147851809Y-91026209D01*
X147992157Y-90816165D01*
X147999714Y-90778172D01*
X148115958Y-90700500D01*
X148241505Y-90616753D01*
X148241675Y-90616498D01*
X148241929Y-90616329D01*
X148325745Y-90490889D01*
X148409674Y-90365491D01*
X148409734Y-90365192D01*
X148409904Y-90364937D01*
X148439487Y-90216215D01*
X148468888Y-90068999D01*
X148468829Y-90068701D01*
X148468889Y-90068400D01*
X148439370Y-89919996D01*
X148410133Y-89772416D01*
X148409963Y-89772162D01*
X148409904Y-89771863D01*
X148326002Y-89646295D01*
X148284704Y-89584385D01*
X148284495Y-89584176D01*
X148241929Y-89520471D01*
X148178717Y-89478234D01*
X147933071Y-89232208D01*
X147851809Y-89110591D01*
X147641765Y-88970243D01*
X147394000Y-88920960D01*
X147354000Y-88920960D01*
X147354000Y-88675840D01*
X147394000Y-88675840D01*
X147641765Y-88626557D01*
X147851809Y-88486209D01*
X147983982Y-88288400D01*
X148060289Y-88288400D01*
X148167720Y-88395831D01*
X148548126Y-88553400D01*
X148959874Y-88553400D01*
X149340280Y-88395831D01*
X149631431Y-88104680D01*
X149789000Y-87724274D01*
X149789000Y-87312526D01*
X149700141Y-87098000D01*
X152310299Y-87098000D01*
X158048396Y-92836098D01*
G36*
X166784101Y-73798948D02*
X166769212Y-73873800D01*
X166828197Y-74170337D01*
X166950869Y-74353928D01*
X166996172Y-74421729D01*
X167059628Y-74464129D01*
X185654619Y-93059121D01*
X185594375Y-93099375D01*
X185395000Y-93397761D01*
X185195625Y-93099375D01*
X184704418Y-92771161D01*
X184271256Y-92685000D01*
X183978744Y-92685000D01*
X183545582Y-92771161D01*
X183214311Y-92992509D01*
X168820231Y-78598430D01*
X168777829Y-78534971D01*
X168526437Y-78366996D01*
X168304752Y-78322900D01*
X168304747Y-78322900D01*
X168229900Y-78308012D01*
X168155053Y-78322900D01*
X147854020Y-78322900D01*
X147992157Y-78116165D01*
X148041440Y-77868400D01*
X148041440Y-76868400D01*
X147992157Y-76620635D01*
X147851809Y-76410591D01*
X147641765Y-76270243D01*
X147394000Y-76220960D01*
X146201300Y-76220960D01*
X146201300Y-76051226D01*
X146170074Y-75975840D01*
X147394000Y-75975840D01*
X147641765Y-75926557D01*
X147851809Y-75786209D01*
X147983982Y-75588400D01*
X149412489Y-75588400D01*
X149539920Y-75715831D01*
X149920326Y-75873400D01*
X150332074Y-75873400D01*
X150712480Y-75715831D01*
X151003631Y-75424680D01*
X151161200Y-75044274D01*
X151161200Y-74632526D01*
X151003631Y-74252120D01*
X150712480Y-73960969D01*
X150332074Y-73803400D01*
X149920326Y-73803400D01*
X149539920Y-73960969D01*
X149432489Y-74068400D01*
X147983982Y-74068400D01*
X147851809Y-73870591D01*
X147641765Y-73730243D01*
X147394000Y-73680960D01*
X145594000Y-73680960D01*
X145528600Y-73693969D01*
X145528600Y-73422831D01*
X145594000Y-73435840D01*
X147394000Y-73435840D01*
X147641765Y-73386557D01*
X147851809Y-73246209D01*
X147983982Y-73048400D01*
X149501489Y-73048400D01*
X149618920Y-73165831D01*
X149999326Y-73323400D01*
X150411074Y-73323400D01*
X150791480Y-73165831D01*
X151082631Y-72874680D01*
X151240200Y-72494274D01*
X151240200Y-72328201D01*
X165654173Y-57914229D01*
X165717629Y-57871829D01*
X165885604Y-57620437D01*
X165910043Y-57497574D01*
X166198744Y-57555000D01*
X166491256Y-57555000D01*
X166784100Y-57496750D01*
X166784101Y-73798948D01*
X166784101Y-73798948D01*
G37*
X166784101Y-73798948D02*
X166769212Y-73873800D01*
X166828197Y-74170337D01*
X166950869Y-74353928D01*
X166996172Y-74421729D01*
X167059628Y-74464129D01*
X185654619Y-93059121D01*
X185594375Y-93099375D01*
X185395000Y-93397761D01*
X185195625Y-93099375D01*
X184704418Y-92771161D01*
X184271256Y-92685000D01*
X183978744Y-92685000D01*
X183545582Y-92771161D01*
X183214311Y-92992509D01*
X168820231Y-78598430D01*
X168777829Y-78534971D01*
X168526437Y-78366996D01*
X168304752Y-78322900D01*
X168304747Y-78322900D01*
X168229900Y-78308012D01*
X168155053Y-78322900D01*
X147854020Y-78322900D01*
X147992157Y-78116165D01*
X148041440Y-77868400D01*
X148041440Y-76868400D01*
X147992157Y-76620635D01*
X147851809Y-76410591D01*
X147641765Y-76270243D01*
X147394000Y-76220960D01*
X146201300Y-76220960D01*
X146201300Y-76051226D01*
X146170074Y-75975840D01*
X147394000Y-75975840D01*
X147641765Y-75926557D01*
X147851809Y-75786209D01*
X147983982Y-75588400D01*
X149412489Y-75588400D01*
X149539920Y-75715831D01*
X149920326Y-75873400D01*
X150332074Y-75873400D01*
X150712480Y-75715831D01*
X151003631Y-75424680D01*
X151161200Y-75044274D01*
X151161200Y-74632526D01*
X151003631Y-74252120D01*
X150712480Y-73960969D01*
X150332074Y-73803400D01*
X149920326Y-73803400D01*
X149539920Y-73960969D01*
X149432489Y-74068400D01*
X147983982Y-74068400D01*
X147851809Y-73870591D01*
X147641765Y-73730243D01*
X147394000Y-73680960D01*
X145594000Y-73680960D01*
X145528600Y-73693969D01*
X145528600Y-73422831D01*
X145594000Y-73435840D01*
X147394000Y-73435840D01*
X147641765Y-73386557D01*
X147851809Y-73246209D01*
X147983982Y-73048400D01*
X149501489Y-73048400D01*
X149618920Y-73165831D01*
X149999326Y-73323400D01*
X150411074Y-73323400D01*
X150791480Y-73165831D01*
X151082631Y-72874680D01*
X151240200Y-72494274D01*
X151240200Y-72328201D01*
X165654173Y-57914229D01*
X165717629Y-57871829D01*
X165885604Y-57620437D01*
X165910043Y-57497574D01*
X166198744Y-57555000D01*
X166491256Y-57555000D01*
X166784100Y-57496750D01*
X166784101Y-73798948D01*
G36*
X160588336Y-92836139D02*
X160354371Y-92992469D01*
X154009601Y-86647700D01*
X154399899Y-86647700D01*
X160588336Y-92836139D01*
X160588336Y-92836139D01*
G37*
X160588336Y-92836139D02*
X160354371Y-92992469D01*
X154009601Y-86647700D01*
X154399899Y-86647700D01*
X160588336Y-92836139D01*
G36*
X162734375Y-57140625D02*
X163225582Y-57468839D01*
X163658744Y-57555000D01*
X163863798Y-57555000D01*
X150165399Y-71253400D01*
X149999326Y-71253400D01*
X149618920Y-71410969D01*
X149501489Y-71528400D01*
X149013801Y-71528400D01*
X161749473Y-58792729D01*
X161812929Y-58750329D01*
X161980904Y-58498937D01*
X162025000Y-58277252D01*
X162025000Y-58277248D01*
X162039888Y-58202401D01*
X162025000Y-58127554D01*
X162025000Y-57348178D01*
X162335625Y-57140625D01*
X162535000Y-56842239D01*
X162734375Y-57140625D01*
X162734375Y-57140625D01*
G37*
X162734375Y-57140625D02*
X163225582Y-57468839D01*
X163658744Y-57555000D01*
X163863798Y-57555000D01*
X150165399Y-71253400D01*
X149999326Y-71253400D01*
X149618920Y-71410969D01*
X149501489Y-71528400D01*
X149013801Y-71528400D01*
X161749473Y-58792729D01*
X161812929Y-58750329D01*
X161980904Y-58498937D01*
X162025000Y-58277252D01*
X162025000Y-58277248D01*
X162039888Y-58202401D01*
X162025000Y-58127554D01*
X162025000Y-57348178D01*
X162335625Y-57140625D01*
X162535000Y-56842239D01*
X162734375Y-57140625D01*
G36*
X156312000Y-55943000D02*
X156332000Y-55943000D01*
X156332000Y-56197000D01*
X156312000Y-56197000D01*
X156312000Y-57396250D01*
X156470750Y-57555000D01*
X157161310Y-57555000D01*
X157394699Y-57458327D01*
X157573327Y-57279698D01*
X157639904Y-57118967D01*
X157654375Y-57140625D01*
X158145582Y-57468839D01*
X158578744Y-57555000D01*
X158871256Y-57555000D01*
X159150801Y-57499395D01*
X159150801Y-58603197D01*
X151076023Y-66677976D01*
X151018631Y-66539420D01*
X150727480Y-66248269D01*
X150347074Y-66090700D01*
X149935326Y-66090700D01*
X149554920Y-66248269D01*
X149437489Y-66365700D01*
X148576846Y-66365700D01*
X148501999Y-66350812D01*
X148427152Y-66365700D01*
X148427148Y-66365700D01*
X148205463Y-66409796D01*
X148147688Y-66448400D01*
X147983982Y-66448400D01*
X147853886Y-66253700D01*
X148167253Y-66253700D01*
X148242100Y-66268588D01*
X148316947Y-66253700D01*
X148316952Y-66253700D01*
X148538637Y-66209604D01*
X148790029Y-66041629D01*
X148832431Y-65978170D01*
X149153730Y-65656872D01*
X149368737Y-65614104D01*
X149620129Y-65446129D01*
X149662531Y-65382670D01*
X153511473Y-61533729D01*
X153574929Y-61491329D01*
X153627604Y-61412496D01*
X153742904Y-61239938D01*
X153770063Y-61103400D01*
X153785672Y-61024930D01*
X155405676Y-59404927D01*
X155469129Y-59362529D01*
X155511527Y-59299076D01*
X155511529Y-59299074D01*
X155637103Y-59111138D01*
X155637104Y-59111137D01*
X155681200Y-58889452D01*
X155681200Y-58889448D01*
X155696088Y-58814601D01*
X155681200Y-58739754D01*
X155681200Y-57555000D01*
X155899250Y-57555000D01*
X156058000Y-57396250D01*
X156058000Y-56197000D01*
X156038000Y-56197000D01*
X156038000Y-55943000D01*
X156058000Y-55943000D01*
X156058000Y-55923000D01*
X156312000Y-55923000D01*
X156312000Y-55943000D01*
X156312000Y-55943000D01*
G37*
X156312000Y-55943000D02*
X156332000Y-55943000D01*
X156332000Y-56197000D01*
X156312000Y-56197000D01*
X156312000Y-57396250D01*
X156470750Y-57555000D01*
X157161310Y-57555000D01*
X157394699Y-57458327D01*
X157573327Y-57279698D01*
X157639904Y-57118967D01*
X157654375Y-57140625D01*
X158145582Y-57468839D01*
X158578744Y-57555000D01*
X158871256Y-57555000D01*
X159150801Y-57499395D01*
X159150801Y-58603197D01*
X151076023Y-66677976D01*
X151018631Y-66539420D01*
X150727480Y-66248269D01*
X150347074Y-66090700D01*
X149935326Y-66090700D01*
X149554920Y-66248269D01*
X149437489Y-66365700D01*
X148576846Y-66365700D01*
X148501999Y-66350812D01*
X148427152Y-66365700D01*
X148427148Y-66365700D01*
X148205463Y-66409796D01*
X148147688Y-66448400D01*
X147983982Y-66448400D01*
X147853886Y-66253700D01*
X148167253Y-66253700D01*
X148242100Y-66268588D01*
X148316947Y-66253700D01*
X148316952Y-66253700D01*
X148538637Y-66209604D01*
X148790029Y-66041629D01*
X148832431Y-65978170D01*
X149153730Y-65656872D01*
X149368737Y-65614104D01*
X149620129Y-65446129D01*
X149662531Y-65382670D01*
X153511473Y-61533729D01*
X153574929Y-61491329D01*
X153627604Y-61412496D01*
X153742904Y-61239938D01*
X153770063Y-61103400D01*
X153785672Y-61024930D01*
X155405676Y-59404927D01*
X155469129Y-59362529D01*
X155511527Y-59299076D01*
X155511529Y-59299074D01*
X155637103Y-59111138D01*
X155637104Y-59111137D01*
X155681200Y-58889452D01*
X155681200Y-58889448D01*
X155696088Y-58814601D01*
X155681200Y-58739754D01*
X155681200Y-57555000D01*
X155899250Y-57555000D01*
X156058000Y-57396250D01*
X156058000Y-56197000D01*
X156038000Y-56197000D01*
X156038000Y-55943000D01*
X156058000Y-55943000D01*
X156058000Y-55923000D01*
X156312000Y-55923000D01*
X156312000Y-55943000D01*
G36*
X149448510Y-52652602D02*
X149488119Y-52711881D01*
X149547398Y-52751490D01*
X149547399Y-52751491D01*
X149722971Y-52868805D01*
X150000000Y-52923909D01*
X150069926Y-52910000D01*
X152930076Y-52910000D01*
X153000000Y-52923909D01*
X153069924Y-52910000D01*
X153069926Y-52910000D01*
X153267747Y-52870651D01*
X151426199Y-54712200D01*
X148448567Y-54712200D01*
X148894741Y-54266026D01*
X149235000Y-53444569D01*
X149235000Y-52555431D01*
X149152736Y-52356827D01*
X149448510Y-52652602D01*
X149448510Y-52652602D01*
G37*
X149448510Y-52652602D02*
X149488119Y-52711881D01*
X149547398Y-52751490D01*
X149547399Y-52751491D01*
X149722971Y-52868805D01*
X150000000Y-52923909D01*
X150069926Y-52910000D01*
X152930076Y-52910000D01*
X153000000Y-52923909D01*
X153069924Y-52910000D01*
X153069926Y-52910000D01*
X153267747Y-52870651D01*
X151426199Y-54712200D01*
X148448567Y-54712200D01*
X148894741Y-54266026D01*
X149235000Y-53444569D01*
X149235000Y-52555431D01*
X149152736Y-52356827D01*
X149448510Y-52652602D01*
G04 #@! TD*
M02*
