G04 #@! TF.GenerationSoftware,KiCad,Pcbnew,5.0.0-rc2-be01b52~65~ubuntu17.10.1*
G04 #@! TF.CreationDate,2018-06-19T20:11:22+09:00*
G04 #@! TF.ProjectId,M5StackSideBB,4D35537461636B5369646542422E6B69,rev?*
G04 #@! TF.SameCoordinates,Original*
G04 #@! TF.FileFunction,Legend,Top*
G04 #@! TF.FilePolarity,Positive*
%FSLAX46Y46*%
G04 Gerber Fmt 4.6, Leading zero omitted, Abs format (unit mm)*
G04 Created by KiCad (PCBNEW 5.0.0-rc2-be01b52~65~ubuntu17.10.1) date Tue Jun 19 20:11:22 2018*
%MOMM*%
%LPD*%
G01*
G04 APERTURE LIST*
%ADD10C,0.200000*%
%ADD11C,0.250000*%
%ADD12C,0.120000*%
G04 APERTURE END LIST*
D10*
X197650228Y-68345009D02*
X197764514Y-68383104D01*
X197954990Y-68383104D01*
X198031180Y-68345009D01*
X198069276Y-68306914D01*
X198107371Y-68230723D01*
X198107371Y-68154533D01*
X198069276Y-68078342D01*
X198031180Y-68040247D01*
X197954990Y-68002152D01*
X197802609Y-67964057D01*
X197726419Y-67925961D01*
X197688323Y-67887866D01*
X197650228Y-67811676D01*
X197650228Y-67735485D01*
X197688323Y-67659295D01*
X197726419Y-67621200D01*
X197802609Y-67583104D01*
X197993085Y-67583104D01*
X198107371Y-67621200D01*
X198907371Y-68306914D02*
X198869276Y-68345009D01*
X198754990Y-68383104D01*
X198678800Y-68383104D01*
X198564514Y-68345009D01*
X198488323Y-68268819D01*
X198450228Y-68192628D01*
X198412133Y-68040247D01*
X198412133Y-67925961D01*
X198450228Y-67773580D01*
X198488323Y-67697390D01*
X198564514Y-67621200D01*
X198678800Y-67583104D01*
X198754990Y-67583104D01*
X198869276Y-67621200D01*
X198907371Y-67659295D01*
X199250228Y-68383104D02*
X199250228Y-67583104D01*
X199707371Y-68383104D02*
X199364514Y-67925961D01*
X199707371Y-67583104D02*
X199250228Y-68040247D01*
X198526419Y-67265504D02*
X198069276Y-67265504D01*
X198297847Y-67265504D02*
X198297847Y-66465504D01*
X198221657Y-66579790D01*
X198145466Y-66655980D01*
X198069276Y-66694076D01*
X198983561Y-66808361D02*
X198907371Y-66770266D01*
X198869276Y-66732171D01*
X198831180Y-66655980D01*
X198831180Y-66617885D01*
X198869276Y-66541695D01*
X198907371Y-66503600D01*
X198983561Y-66465504D01*
X199135942Y-66465504D01*
X199212133Y-66503600D01*
X199250228Y-66541695D01*
X199288323Y-66617885D01*
X199288323Y-66655980D01*
X199250228Y-66732171D01*
X199212133Y-66770266D01*
X199135942Y-66808361D01*
X198983561Y-66808361D01*
X198907371Y-66846457D01*
X198869276Y-66884552D01*
X198831180Y-66960742D01*
X198831180Y-67113123D01*
X198869276Y-67189314D01*
X198907371Y-67227409D01*
X198983561Y-67265504D01*
X199135942Y-67265504D01*
X199212133Y-67227409D01*
X199250228Y-67189314D01*
X199288323Y-67113123D01*
X199288323Y-66960742D01*
X199250228Y-66884552D01*
X199212133Y-66846457D01*
X199135942Y-66808361D01*
X197993085Y-73564704D02*
X197993085Y-72764704D01*
X198259752Y-73336133D01*
X198526419Y-72764704D01*
X198526419Y-73564704D01*
X199059752Y-72764704D02*
X199212133Y-72764704D01*
X199288323Y-72802800D01*
X199364514Y-72878990D01*
X199402609Y-73031371D01*
X199402609Y-73298038D01*
X199364514Y-73450419D01*
X199288323Y-73526609D01*
X199212133Y-73564704D01*
X199059752Y-73564704D01*
X198983561Y-73526609D01*
X198907371Y-73450419D01*
X198869276Y-73298038D01*
X198869276Y-73031371D01*
X198907371Y-72878990D01*
X198983561Y-72802800D01*
X199059752Y-72764704D01*
X198526419Y-69805504D02*
X198069276Y-69805504D01*
X198297847Y-69805504D02*
X198297847Y-69005504D01*
X198221657Y-69119790D01*
X198145466Y-69195980D01*
X198069276Y-69234076D01*
X198907371Y-69805504D02*
X199059752Y-69805504D01*
X199135942Y-69767409D01*
X199174038Y-69729314D01*
X199250228Y-69615028D01*
X199288323Y-69462647D01*
X199288323Y-69157885D01*
X199250228Y-69081695D01*
X199212133Y-69043600D01*
X199135942Y-69005504D01*
X198983561Y-69005504D01*
X198907371Y-69043600D01*
X198869276Y-69081695D01*
X198831180Y-69157885D01*
X198831180Y-69348361D01*
X198869276Y-69424552D01*
X198907371Y-69462647D01*
X198983561Y-69500742D01*
X199135942Y-69500742D01*
X199212133Y-69462647D01*
X199250228Y-69424552D01*
X199288323Y-69348361D01*
X198069276Y-71723295D02*
X198107371Y-71685200D01*
X198183561Y-71647104D01*
X198374038Y-71647104D01*
X198450228Y-71685200D01*
X198488323Y-71723295D01*
X198526419Y-71799485D01*
X198526419Y-71875676D01*
X198488323Y-71989961D01*
X198031180Y-72447104D01*
X198526419Y-72447104D01*
X198793085Y-71647104D02*
X199288323Y-71647104D01*
X199021657Y-71951866D01*
X199135942Y-71951866D01*
X199212133Y-71989961D01*
X199250228Y-72028057D01*
X199288323Y-72104247D01*
X199288323Y-72294723D01*
X199250228Y-72370914D01*
X199212133Y-72409009D01*
X199135942Y-72447104D01*
X198907371Y-72447104D01*
X198831180Y-72409009D01*
X198793085Y-72370914D01*
X198221657Y-70923104D02*
X198221657Y-70123104D01*
X198488323Y-70694533D01*
X198754990Y-70123104D01*
X198754990Y-70923104D01*
X199135942Y-70923104D02*
X199135942Y-70123104D01*
X198120076Y-64471600D02*
X198043885Y-64433504D01*
X197929600Y-64433504D01*
X197815314Y-64471600D01*
X197739123Y-64547790D01*
X197701028Y-64623980D01*
X197662933Y-64776361D01*
X197662933Y-64890647D01*
X197701028Y-65043028D01*
X197739123Y-65119219D01*
X197815314Y-65195409D01*
X197929600Y-65233504D01*
X198005790Y-65233504D01*
X198120076Y-65195409D01*
X198158171Y-65157314D01*
X198158171Y-64890647D01*
X198005790Y-64890647D01*
X198501028Y-65233504D02*
X198501028Y-64433504D01*
X198958171Y-65233504D01*
X198958171Y-64433504D01*
X199339123Y-65233504D02*
X199339123Y-64433504D01*
X199529600Y-64433504D01*
X199643885Y-64471600D01*
X199720076Y-64547790D01*
X199758171Y-64623980D01*
X199796266Y-64776361D01*
X199796266Y-64890647D01*
X199758171Y-65043028D01*
X199720076Y-65119219D01*
X199643885Y-65195409D01*
X199529600Y-65233504D01*
X199339123Y-65233504D01*
X197777219Y-76066609D02*
X197891504Y-76104704D01*
X198081980Y-76104704D01*
X198158171Y-76066609D01*
X198196266Y-76028514D01*
X198234361Y-75952323D01*
X198234361Y-75876133D01*
X198196266Y-75799942D01*
X198158171Y-75761847D01*
X198081980Y-75723752D01*
X197929600Y-75685657D01*
X197853409Y-75647561D01*
X197815314Y-75609466D01*
X197777219Y-75533276D01*
X197777219Y-75457085D01*
X197815314Y-75380895D01*
X197853409Y-75342800D01*
X197929600Y-75304704D01*
X198120076Y-75304704D01*
X198234361Y-75342800D01*
X199034361Y-76028514D02*
X198996266Y-76066609D01*
X198881980Y-76104704D01*
X198805790Y-76104704D01*
X198691504Y-76066609D01*
X198615314Y-75990419D01*
X198577219Y-75914228D01*
X198539123Y-75761847D01*
X198539123Y-75647561D01*
X198577219Y-75495180D01*
X198615314Y-75418990D01*
X198691504Y-75342800D01*
X198805790Y-75304704D01*
X198881980Y-75304704D01*
X198996266Y-75342800D01*
X199034361Y-75380895D01*
X199758171Y-76104704D02*
X199377219Y-76104704D01*
X199377219Y-75304704D01*
X197758171Y-78708209D02*
X197872457Y-78746304D01*
X198062933Y-78746304D01*
X198139123Y-78708209D01*
X198177219Y-78670114D01*
X198215314Y-78593923D01*
X198215314Y-78517733D01*
X198177219Y-78441542D01*
X198139123Y-78403447D01*
X198062933Y-78365352D01*
X197910552Y-78327257D01*
X197834361Y-78289161D01*
X197796266Y-78251066D01*
X197758171Y-78174876D01*
X197758171Y-78098685D01*
X197796266Y-78022495D01*
X197834361Y-77984400D01*
X197910552Y-77946304D01*
X198101028Y-77946304D01*
X198215314Y-77984400D01*
X198558171Y-78746304D02*
X198558171Y-77946304D01*
X198748647Y-77946304D01*
X198862933Y-77984400D01*
X198939123Y-78060590D01*
X198977219Y-78136780D01*
X199015314Y-78289161D01*
X199015314Y-78403447D01*
X198977219Y-78555828D01*
X198939123Y-78632019D01*
X198862933Y-78708209D01*
X198748647Y-78746304D01*
X198558171Y-78746304D01*
X199320076Y-78517733D02*
X199701028Y-78517733D01*
X199243885Y-78746304D02*
X199510552Y-77946304D01*
X199777219Y-78746304D01*
X197688323Y-82416704D02*
X198183561Y-82416704D01*
X197916895Y-82721466D01*
X198031180Y-82721466D01*
X198107371Y-82759561D01*
X198145466Y-82797657D01*
X198183561Y-82873847D01*
X198183561Y-83064323D01*
X198145466Y-83140514D01*
X198107371Y-83178609D01*
X198031180Y-83216704D01*
X197802609Y-83216704D01*
X197726419Y-83178609D01*
X197688323Y-83140514D01*
X198412133Y-82416704D02*
X198678800Y-83216704D01*
X198945466Y-82416704D01*
X199135942Y-82416704D02*
X199631180Y-82416704D01*
X199364514Y-82721466D01*
X199478800Y-82721466D01*
X199554990Y-82759561D01*
X199593085Y-82797657D01*
X199631180Y-82873847D01*
X199631180Y-83064323D01*
X199593085Y-83140514D01*
X199554990Y-83178609D01*
X199478800Y-83216704D01*
X199250228Y-83216704D01*
X199174038Y-83178609D01*
X199135942Y-83140514D01*
X198120076Y-74263295D02*
X198158171Y-74225200D01*
X198234361Y-74187104D01*
X198424838Y-74187104D01*
X198501028Y-74225200D01*
X198539123Y-74263295D01*
X198577219Y-74339485D01*
X198577219Y-74415676D01*
X198539123Y-74529961D01*
X198081980Y-74987104D01*
X198577219Y-74987104D01*
X198881980Y-74263295D02*
X198920076Y-74225200D01*
X198996266Y-74187104D01*
X199186742Y-74187104D01*
X199262933Y-74225200D01*
X199301028Y-74263295D01*
X199339123Y-74339485D01*
X199339123Y-74415676D01*
X199301028Y-74529961D01*
X198843885Y-74987104D01*
X199339123Y-74987104D01*
X198424819Y-84956704D02*
X198043866Y-84956704D01*
X198005771Y-85337657D01*
X198043866Y-85299561D01*
X198120057Y-85261466D01*
X198310533Y-85261466D01*
X198386723Y-85299561D01*
X198424819Y-85337657D01*
X198462914Y-85413847D01*
X198462914Y-85604323D01*
X198424819Y-85680514D01*
X198386723Y-85718609D01*
X198310533Y-85756704D01*
X198120057Y-85756704D01*
X198043866Y-85718609D01*
X198005771Y-85680514D01*
X198691485Y-84956704D02*
X198958152Y-85756704D01*
X199224819Y-84956704D01*
X198120076Y-79813200D02*
X198043885Y-79775104D01*
X197929600Y-79775104D01*
X197815314Y-79813200D01*
X197739123Y-79889390D01*
X197701028Y-79965580D01*
X197662933Y-80117961D01*
X197662933Y-80232247D01*
X197701028Y-80384628D01*
X197739123Y-80460819D01*
X197815314Y-80537009D01*
X197929600Y-80575104D01*
X198005790Y-80575104D01*
X198120076Y-80537009D01*
X198158171Y-80498914D01*
X198158171Y-80232247D01*
X198005790Y-80232247D01*
X198501028Y-80575104D02*
X198501028Y-79775104D01*
X198958171Y-80575104D01*
X198958171Y-79775104D01*
X199339123Y-80575104D02*
X199339123Y-79775104D01*
X199529600Y-79775104D01*
X199643885Y-79813200D01*
X199720076Y-79889390D01*
X199758171Y-79965580D01*
X199796266Y-80117961D01*
X199796266Y-80232247D01*
X199758171Y-80384628D01*
X199720076Y-80460819D01*
X199643885Y-80537009D01*
X199529600Y-80575104D01*
X199339123Y-80575104D01*
X198120076Y-76904895D02*
X198158171Y-76866800D01*
X198234361Y-76828704D01*
X198424838Y-76828704D01*
X198501028Y-76866800D01*
X198539123Y-76904895D01*
X198577219Y-76981085D01*
X198577219Y-77057276D01*
X198539123Y-77171561D01*
X198081980Y-77628704D01*
X198577219Y-77628704D01*
X199339123Y-77628704D02*
X198881980Y-77628704D01*
X199110552Y-77628704D02*
X199110552Y-76828704D01*
X199034361Y-76942990D01*
X198958171Y-77019180D01*
X198881980Y-77057276D01*
D11*
X150890552Y-82205580D02*
X151509600Y-82205580D01*
X151176266Y-82586533D01*
X151319123Y-82586533D01*
X151414361Y-82634152D01*
X151461980Y-82681771D01*
X151509600Y-82777009D01*
X151509600Y-83015104D01*
X151461980Y-83110342D01*
X151414361Y-83157961D01*
X151319123Y-83205580D01*
X151033409Y-83205580D01*
X150938171Y-83157961D01*
X150890552Y-83110342D01*
X152366742Y-82205580D02*
X152176266Y-82205580D01*
X152081028Y-82253200D01*
X152033409Y-82300819D01*
X151938171Y-82443676D01*
X151890552Y-82634152D01*
X151890552Y-83015104D01*
X151938171Y-83110342D01*
X151985790Y-83157961D01*
X152081028Y-83205580D01*
X152271504Y-83205580D01*
X152366742Y-83157961D01*
X152414361Y-83110342D01*
X152461980Y-83015104D01*
X152461980Y-82777009D01*
X152414361Y-82681771D01*
X152366742Y-82634152D01*
X152271504Y-82586533D01*
X152081028Y-82586533D01*
X151985790Y-82634152D01*
X151938171Y-82681771D01*
X151890552Y-82777009D01*
X153604838Y-82919866D02*
X154081028Y-82919866D01*
X153509600Y-83205580D02*
X153842933Y-82205580D01*
X154176266Y-83205580D01*
X154509600Y-83205580D02*
X154509600Y-82205580D01*
X154747695Y-82205580D01*
X154890552Y-82253200D01*
X154985790Y-82348438D01*
X155033409Y-82443676D01*
X155081028Y-82634152D01*
X155081028Y-82777009D01*
X155033409Y-82967485D01*
X154985790Y-83062723D01*
X154890552Y-83157961D01*
X154747695Y-83205580D01*
X154509600Y-83205580D01*
X152635104Y-89825580D02*
X153254152Y-89825580D01*
X152920819Y-90206533D01*
X153063676Y-90206533D01*
X153158914Y-90254152D01*
X153206533Y-90301771D01*
X153254152Y-90397009D01*
X153254152Y-90635104D01*
X153206533Y-90730342D01*
X153158914Y-90777961D01*
X153063676Y-90825580D01*
X152777961Y-90825580D01*
X152682723Y-90777961D01*
X152635104Y-90730342D01*
X153539866Y-89825580D02*
X153873200Y-90825580D01*
X154206533Y-89825580D01*
X154444628Y-89825580D02*
X155063676Y-89825580D01*
X154730342Y-90206533D01*
X154873200Y-90206533D01*
X154968438Y-90254152D01*
X155016057Y-90301771D01*
X155063676Y-90397009D01*
X155063676Y-90635104D01*
X155016057Y-90730342D01*
X154968438Y-90777961D01*
X154873200Y-90825580D01*
X154587485Y-90825580D01*
X154492247Y-90777961D01*
X154444628Y-90730342D01*
X152958895Y-94953200D02*
X152863657Y-94905580D01*
X152720800Y-94905580D01*
X152577942Y-94953200D01*
X152482704Y-95048438D01*
X152435085Y-95143676D01*
X152387466Y-95334152D01*
X152387466Y-95477009D01*
X152435085Y-95667485D01*
X152482704Y-95762723D01*
X152577942Y-95857961D01*
X152720800Y-95905580D01*
X152816038Y-95905580D01*
X152958895Y-95857961D01*
X153006514Y-95810342D01*
X153006514Y-95477009D01*
X152816038Y-95477009D01*
X153435085Y-95905580D02*
X153435085Y-94905580D01*
X154006514Y-95905580D01*
X154006514Y-94905580D01*
X154482704Y-95905580D02*
X154482704Y-94905580D01*
X154720800Y-94905580D01*
X154863657Y-94953200D01*
X154958895Y-95048438D01*
X155006514Y-95143676D01*
X155054133Y-95334152D01*
X155054133Y-95477009D01*
X155006514Y-95667485D01*
X154958895Y-95762723D01*
X154863657Y-95857961D01*
X154720800Y-95905580D01*
X154482704Y-95905580D01*
X150890552Y-79614780D02*
X151509600Y-79614780D01*
X151176266Y-79995733D01*
X151319123Y-79995733D01*
X151414361Y-80043352D01*
X151461980Y-80090971D01*
X151509600Y-80186209D01*
X151509600Y-80424304D01*
X151461980Y-80519542D01*
X151414361Y-80567161D01*
X151319123Y-80614780D01*
X151033409Y-80614780D01*
X150938171Y-80567161D01*
X150890552Y-80519542D01*
X152414361Y-79614780D02*
X151938171Y-79614780D01*
X151890552Y-80090971D01*
X151938171Y-80043352D01*
X152033409Y-79995733D01*
X152271504Y-79995733D01*
X152366742Y-80043352D01*
X152414361Y-80090971D01*
X152461980Y-80186209D01*
X152461980Y-80424304D01*
X152414361Y-80519542D01*
X152366742Y-80567161D01*
X152271504Y-80614780D01*
X152033409Y-80614780D01*
X151938171Y-80567161D01*
X151890552Y-80519542D01*
X153604838Y-80329066D02*
X154081028Y-80329066D01*
X153509600Y-80614780D02*
X153842933Y-79614780D01*
X154176266Y-80614780D01*
X154509600Y-80614780D02*
X154509600Y-79614780D01*
X154747695Y-79614780D01*
X154890552Y-79662400D01*
X154985790Y-79757638D01*
X155033409Y-79852876D01*
X155081028Y-80043352D01*
X155081028Y-80186209D01*
X155033409Y-80376685D01*
X154985790Y-80471923D01*
X154890552Y-80567161D01*
X154747695Y-80614780D01*
X154509600Y-80614780D01*
X153135104Y-87710971D02*
X153277961Y-87758590D01*
X153325580Y-87806209D01*
X153373200Y-87901447D01*
X153373200Y-88044304D01*
X153325580Y-88139542D01*
X153277961Y-88187161D01*
X153182723Y-88234780D01*
X152801771Y-88234780D01*
X152801771Y-87234780D01*
X153135104Y-87234780D01*
X153230342Y-87282400D01*
X153277961Y-87330019D01*
X153325580Y-87425257D01*
X153325580Y-87520495D01*
X153277961Y-87615733D01*
X153230342Y-87663352D01*
X153135104Y-87710971D01*
X152801771Y-87710971D01*
X153754152Y-87949066D02*
X154230342Y-87949066D01*
X153658914Y-88234780D02*
X153992247Y-87234780D01*
X154325580Y-88234780D01*
X154516057Y-87234780D02*
X155087485Y-87234780D01*
X154801771Y-88234780D02*
X154801771Y-87234780D01*
X153274780Y-85694780D02*
X152941447Y-85218590D01*
X152703352Y-85694780D02*
X152703352Y-84694780D01*
X153084304Y-84694780D01*
X153179542Y-84742400D01*
X153227161Y-84790019D01*
X153274780Y-84885257D01*
X153274780Y-85028114D01*
X153227161Y-85123352D01*
X153179542Y-85170971D01*
X153084304Y-85218590D01*
X152703352Y-85218590D01*
X153655733Y-85647161D02*
X153798590Y-85694780D01*
X154036685Y-85694780D01*
X154131923Y-85647161D01*
X154179542Y-85599542D01*
X154227161Y-85504304D01*
X154227161Y-85409066D01*
X154179542Y-85313828D01*
X154131923Y-85266209D01*
X154036685Y-85218590D01*
X153846209Y-85170971D01*
X153750971Y-85123352D01*
X153703352Y-85075733D01*
X153655733Y-84980495D01*
X153655733Y-84885257D01*
X153703352Y-84790019D01*
X153750971Y-84742400D01*
X153846209Y-84694780D01*
X154084304Y-84694780D01*
X154227161Y-84742400D01*
X154512876Y-84694780D02*
X155084304Y-84694780D01*
X154798590Y-85694780D02*
X154798590Y-84694780D01*
X154038323Y-92365580D02*
X153562133Y-92365580D01*
X153514514Y-92841771D01*
X153562133Y-92794152D01*
X153657371Y-92746533D01*
X153895466Y-92746533D01*
X153990704Y-92794152D01*
X154038323Y-92841771D01*
X154085942Y-92937009D01*
X154085942Y-93175104D01*
X154038323Y-93270342D01*
X153990704Y-93317961D01*
X153895466Y-93365580D01*
X153657371Y-93365580D01*
X153562133Y-93317961D01*
X153514514Y-93270342D01*
X154371657Y-92365580D02*
X154704990Y-93365580D01*
X155038323Y-92365580D01*
X150887371Y-77220819D02*
X150934990Y-77173200D01*
X151030228Y-77125580D01*
X151268323Y-77125580D01*
X151363561Y-77173200D01*
X151411180Y-77220819D01*
X151458800Y-77316057D01*
X151458800Y-77411295D01*
X151411180Y-77554152D01*
X150839752Y-78125580D01*
X151458800Y-78125580D01*
X152315942Y-77125580D02*
X152125466Y-77125580D01*
X152030228Y-77173200D01*
X151982609Y-77220819D01*
X151887371Y-77363676D01*
X151839752Y-77554152D01*
X151839752Y-77935104D01*
X151887371Y-78030342D01*
X151934990Y-78077961D01*
X152030228Y-78125580D01*
X152220704Y-78125580D01*
X152315942Y-78077961D01*
X152363561Y-78030342D01*
X152411180Y-77935104D01*
X152411180Y-77697009D01*
X152363561Y-77601771D01*
X152315942Y-77554152D01*
X152220704Y-77506533D01*
X152030228Y-77506533D01*
X151934990Y-77554152D01*
X151887371Y-77601771D01*
X151839752Y-77697009D01*
X153601657Y-78125580D02*
X153601657Y-77125580D01*
X153839752Y-77125580D01*
X153982609Y-77173200D01*
X154077847Y-77268438D01*
X154125466Y-77363676D01*
X154173085Y-77554152D01*
X154173085Y-77697009D01*
X154125466Y-77887485D01*
X154077847Y-77982723D01*
X153982609Y-78077961D01*
X153839752Y-78125580D01*
X153601657Y-78125580D01*
X154554038Y-77839866D02*
X155030228Y-77839866D01*
X154458800Y-78125580D02*
X154792133Y-77125580D01*
X155125466Y-78125580D01*
X150887371Y-74680819D02*
X150934990Y-74633200D01*
X151030228Y-74585580D01*
X151268323Y-74585580D01*
X151363561Y-74633200D01*
X151411180Y-74680819D01*
X151458800Y-74776057D01*
X151458800Y-74871295D01*
X151411180Y-75014152D01*
X150839752Y-75585580D01*
X151458800Y-75585580D01*
X152363561Y-74585580D02*
X151887371Y-74585580D01*
X151839752Y-75061771D01*
X151887371Y-75014152D01*
X151982609Y-74966533D01*
X152220704Y-74966533D01*
X152315942Y-75014152D01*
X152363561Y-75061771D01*
X152411180Y-75157009D01*
X152411180Y-75395104D01*
X152363561Y-75490342D01*
X152315942Y-75537961D01*
X152220704Y-75585580D01*
X151982609Y-75585580D01*
X151887371Y-75537961D01*
X151839752Y-75490342D01*
X153601657Y-75585580D02*
X153601657Y-74585580D01*
X153839752Y-74585580D01*
X153982609Y-74633200D01*
X154077847Y-74728438D01*
X154125466Y-74823676D01*
X154173085Y-75014152D01*
X154173085Y-75157009D01*
X154125466Y-75347485D01*
X154077847Y-75442723D01*
X153982609Y-75537961D01*
X153839752Y-75585580D01*
X153601657Y-75585580D01*
X154554038Y-75299866D02*
X155030228Y-75299866D01*
X154458800Y-75585580D02*
X154792133Y-74585580D01*
X155125466Y-75585580D01*
X154771695Y-72045580D02*
X154295504Y-72045580D01*
X154247885Y-72521771D01*
X154295504Y-72474152D01*
X154390742Y-72426533D01*
X154628838Y-72426533D01*
X154724076Y-72474152D01*
X154771695Y-72521771D01*
X154819314Y-72617009D01*
X154819314Y-72855104D01*
X154771695Y-72950342D01*
X154724076Y-72997961D01*
X154628838Y-73045580D01*
X154390742Y-73045580D01*
X154295504Y-72997961D01*
X154247885Y-72950342D01*
X154247885Y-69600819D02*
X154295504Y-69553200D01*
X154390742Y-69505580D01*
X154628838Y-69505580D01*
X154724076Y-69553200D01*
X154771695Y-69600819D01*
X154819314Y-69696057D01*
X154819314Y-69791295D01*
X154771695Y-69934152D01*
X154200266Y-70505580D01*
X154819314Y-70505580D01*
X151682628Y-67914780D02*
X151111200Y-67914780D01*
X151396914Y-67914780D02*
X151396914Y-66914780D01*
X151301676Y-67057638D01*
X151206438Y-67152876D01*
X151111200Y-67200495D01*
X152015961Y-66914780D02*
X152682628Y-66914780D01*
X152254057Y-67914780D01*
X153682628Y-66914780D02*
X154254057Y-66914780D01*
X153968342Y-67914780D02*
X153968342Y-66914780D01*
X154539771Y-67010019D02*
X154587390Y-66962400D01*
X154682628Y-66914780D01*
X154920723Y-66914780D01*
X155015961Y-66962400D01*
X155063580Y-67010019D01*
X155111200Y-67105257D01*
X155111200Y-67200495D01*
X155063580Y-67343352D01*
X154492152Y-67914780D01*
X155111200Y-67914780D01*
X151461980Y-65476380D02*
X150890552Y-65476380D01*
X151176266Y-65476380D02*
X151176266Y-64476380D01*
X151081028Y-64619238D01*
X150985790Y-64714476D01*
X150890552Y-64762095D01*
X152319123Y-64476380D02*
X152128647Y-64476380D01*
X152033409Y-64524000D01*
X151985790Y-64571619D01*
X151890552Y-64714476D01*
X151842933Y-64904952D01*
X151842933Y-65285904D01*
X151890552Y-65381142D01*
X151938171Y-65428761D01*
X152033409Y-65476380D01*
X152223885Y-65476380D01*
X152319123Y-65428761D01*
X152366742Y-65381142D01*
X152414361Y-65285904D01*
X152414361Y-65047809D01*
X152366742Y-64952571D01*
X152319123Y-64904952D01*
X152223885Y-64857333D01*
X152033409Y-64857333D01*
X151938171Y-64904952D01*
X151890552Y-64952571D01*
X151842933Y-65047809D01*
X154176266Y-65476380D02*
X153842933Y-65000190D01*
X153604838Y-65476380D02*
X153604838Y-64476380D01*
X153985790Y-64476380D01*
X154081028Y-64524000D01*
X154128647Y-64571619D01*
X154176266Y-64666857D01*
X154176266Y-64809714D01*
X154128647Y-64904952D01*
X154081028Y-64952571D01*
X153985790Y-65000190D01*
X153604838Y-65000190D01*
X154557219Y-64571619D02*
X154604838Y-64524000D01*
X154700076Y-64476380D01*
X154938171Y-64476380D01*
X155033409Y-64524000D01*
X155081028Y-64571619D01*
X155128647Y-64666857D01*
X155128647Y-64762095D01*
X155081028Y-64904952D01*
X154509600Y-65476380D01*
X155128647Y-65476380D01*
X152565219Y-62885580D02*
X151993790Y-62885580D01*
X152279504Y-62885580D02*
X152279504Y-61885580D01*
X152184266Y-62028438D01*
X152089028Y-62123676D01*
X151993790Y-62171295D01*
X153612838Y-61885580D02*
X154184266Y-61885580D01*
X153898552Y-62885580D02*
X153898552Y-61885580D01*
X155041409Y-62885580D02*
X154469980Y-62885580D01*
X154755695Y-62885580D02*
X154755695Y-61885580D01*
X154660457Y-62028438D01*
X154565219Y-62123676D01*
X154469980Y-62171295D01*
X151827123Y-59447180D02*
X152446171Y-59447180D01*
X152112838Y-59828133D01*
X152255695Y-59828133D01*
X152350933Y-59875752D01*
X152398552Y-59923371D01*
X152446171Y-60018609D01*
X152446171Y-60256704D01*
X152398552Y-60351942D01*
X152350933Y-60399561D01*
X152255695Y-60447180D01*
X151969980Y-60447180D01*
X151874742Y-60399561D01*
X151827123Y-60351942D01*
X154208076Y-60447180D02*
X153874742Y-59970990D01*
X153636647Y-60447180D02*
X153636647Y-59447180D01*
X154017600Y-59447180D01*
X154112838Y-59494800D01*
X154160457Y-59542419D01*
X154208076Y-59637657D01*
X154208076Y-59780514D01*
X154160457Y-59875752D01*
X154112838Y-59923371D01*
X154017600Y-59970990D01*
X153636647Y-59970990D01*
X155160457Y-60447180D02*
X154589028Y-60447180D01*
X154874742Y-60447180D02*
X154874742Y-59447180D01*
X154779504Y-59590038D01*
X154684266Y-59685276D01*
X154589028Y-59732895D01*
X152431904Y-56856380D02*
X153050952Y-56856380D01*
X152717619Y-57237333D01*
X152860476Y-57237333D01*
X152955714Y-57284952D01*
X153003333Y-57332571D01*
X153050952Y-57427809D01*
X153050952Y-57665904D01*
X153003333Y-57761142D01*
X152955714Y-57808761D01*
X152860476Y-57856380D01*
X152574761Y-57856380D01*
X152479523Y-57808761D01*
X152431904Y-57761142D01*
X153336666Y-56856380D02*
X153670000Y-57856380D01*
X154003333Y-56856380D01*
X154241428Y-56856380D02*
X154860476Y-56856380D01*
X154527142Y-57237333D01*
X154670000Y-57237333D01*
X154765238Y-57284952D01*
X154812857Y-57332571D01*
X154860476Y-57427809D01*
X154860476Y-57665904D01*
X154812857Y-57761142D01*
X154765238Y-57808761D01*
X154670000Y-57856380D01*
X154384285Y-57856380D01*
X154289047Y-57808761D01*
X154241428Y-57761142D01*
X153009695Y-54313200D02*
X152914457Y-54265580D01*
X152771600Y-54265580D01*
X152628742Y-54313200D01*
X152533504Y-54408438D01*
X152485885Y-54503676D01*
X152438266Y-54694152D01*
X152438266Y-54837009D01*
X152485885Y-55027485D01*
X152533504Y-55122723D01*
X152628742Y-55217961D01*
X152771600Y-55265580D01*
X152866838Y-55265580D01*
X153009695Y-55217961D01*
X153057314Y-55170342D01*
X153057314Y-54837009D01*
X152866838Y-54837009D01*
X153485885Y-55265580D02*
X153485885Y-54265580D01*
X154057314Y-55265580D01*
X154057314Y-54265580D01*
X154533504Y-55265580D02*
X154533504Y-54265580D01*
X154771600Y-54265580D01*
X154914457Y-54313200D01*
X155009695Y-54408438D01*
X155057314Y-54503676D01*
X155104933Y-54694152D01*
X155104933Y-54837009D01*
X155057314Y-55027485D01*
X155009695Y-55122723D01*
X154914457Y-55217961D01*
X154771600Y-55265580D01*
X154533504Y-55265580D01*
D12*
G04 #@! TO.C,J4*
X141774000Y-55718400D02*
X146974000Y-55718400D01*
X141774000Y-93938400D02*
X146974000Y-93938400D01*
X140334000Y-56288400D02*
X141774000Y-56288400D01*
X141774000Y-55718400D02*
X141774000Y-56288400D01*
X146974000Y-55718400D02*
X146974000Y-56288400D01*
X141774000Y-93368400D02*
X141774000Y-93938400D01*
X146974000Y-93368400D02*
X146974000Y-93938400D01*
X141774000Y-57808400D02*
X141774000Y-58828400D01*
X146974000Y-57808400D02*
X146974000Y-58828400D01*
X141774000Y-60348400D02*
X141774000Y-61368400D01*
X146974000Y-60348400D02*
X146974000Y-61368400D01*
X141774000Y-62888400D02*
X141774000Y-63908400D01*
X146974000Y-62888400D02*
X146974000Y-63908400D01*
X141774000Y-65428400D02*
X141774000Y-66448400D01*
X146974000Y-65428400D02*
X146974000Y-66448400D01*
X141774000Y-67968400D02*
X141774000Y-68988400D01*
X146974000Y-67968400D02*
X146974000Y-68988400D01*
X141774000Y-70508400D02*
X141774000Y-71528400D01*
X146974000Y-70508400D02*
X146974000Y-71528400D01*
X141774000Y-73048400D02*
X141774000Y-74068400D01*
X146974000Y-73048400D02*
X146974000Y-74068400D01*
X141774000Y-75588400D02*
X141774000Y-76608400D01*
X146974000Y-75588400D02*
X146974000Y-76608400D01*
X141774000Y-78128400D02*
X141774000Y-79148400D01*
X146974000Y-78128400D02*
X146974000Y-79148400D01*
X141774000Y-80668400D02*
X141774000Y-81688400D01*
X146974000Y-80668400D02*
X146974000Y-81688400D01*
X141774000Y-83208400D02*
X141774000Y-84228400D01*
X146974000Y-83208400D02*
X146974000Y-84228400D01*
X141774000Y-85748400D02*
X141774000Y-86768400D01*
X146974000Y-85748400D02*
X146974000Y-86768400D01*
X141774000Y-88288400D02*
X141774000Y-89308400D01*
X146974000Y-88288400D02*
X146974000Y-89308400D01*
X141774000Y-90828400D02*
X141774000Y-91848400D01*
X146974000Y-90828400D02*
X146974000Y-91848400D01*
G04 #@! TO.C,J1*
X155790000Y-56070000D02*
X158450000Y-56070000D01*
X155790000Y-56070000D02*
X155790000Y-96770000D01*
X155790000Y-96770000D02*
X158450000Y-96770000D01*
X158450000Y-56070000D02*
X158450000Y-96770000D01*
X158450000Y-53470000D02*
X158450000Y-54800000D01*
X157120000Y-53470000D02*
X158450000Y-53470000D01*
G04 #@! TO.C,J2*
X194390000Y-66230000D02*
X197050000Y-66230000D01*
X194390000Y-66230000D02*
X194390000Y-86610000D01*
X194390000Y-86610000D02*
X197050000Y-86610000D01*
X197050000Y-66230000D02*
X197050000Y-86610000D01*
X197050000Y-63630000D02*
X197050000Y-64960000D01*
X195720000Y-63630000D02*
X197050000Y-63630000D01*
G04 #@! TD*
M02*
