G04 #@! TF.GenerationSoftware,KiCad,Pcbnew,5.0.2-bee76a0~70~ubuntu18.04.1*
G04 #@! TF.CreationDate,2018-12-02T18:05:12+09:00*
G04 #@! TF.ProjectId,M5StackSideBB,4d355374-6163-46b5-9369-646542422e6b,rev?*
G04 #@! TF.SameCoordinates,Original*
G04 #@! TF.FileFunction,Soldermask,Top*
G04 #@! TF.FilePolarity,Negative*
%FSLAX46Y46*%
G04 Gerber Fmt 4.6, Leading zero omitted, Abs format (unit mm)*
G04 Created by KiCad (PCBNEW 5.0.2-bee76a0~70~ubuntu18.04.1) date 2018年12月02日 18時05分12秒*
%MOMM*%
%LPD*%
G01*
G04 APERTURE LIST*
%ADD10C,0.100000*%
G04 APERTURE END LIST*
D10*
G36*
X103409122Y-95246115D02*
X103525041Y-95269173D01*
X103852620Y-95404861D01*
X104143511Y-95599228D01*
X104147436Y-95601851D01*
X104398149Y-95852564D01*
X104398151Y-95852567D01*
X104595139Y-96147380D01*
X104730827Y-96474959D01*
X104800000Y-96822716D01*
X104800000Y-97177284D01*
X104730827Y-97525041D01*
X104595139Y-97852620D01*
X104400772Y-98143511D01*
X104398149Y-98147436D01*
X104147436Y-98398149D01*
X104147433Y-98398151D01*
X103852620Y-98595139D01*
X103525041Y-98730827D01*
X103409122Y-98753885D01*
X103177286Y-98800000D01*
X102822714Y-98800000D01*
X102590878Y-98753885D01*
X102474959Y-98730827D01*
X102147380Y-98595139D01*
X101852567Y-98398151D01*
X101852564Y-98398149D01*
X101601851Y-98147436D01*
X101599228Y-98143511D01*
X101404861Y-97852620D01*
X101269173Y-97525041D01*
X101200000Y-97177284D01*
X101200000Y-96822716D01*
X101269173Y-96474959D01*
X101404861Y-96147380D01*
X101601849Y-95852567D01*
X101601851Y-95852564D01*
X101852564Y-95601851D01*
X101856489Y-95599228D01*
X102147380Y-95404861D01*
X102474959Y-95269173D01*
X102590878Y-95246115D01*
X102822714Y-95200000D01*
X103177286Y-95200000D01*
X103409122Y-95246115D01*
X103409122Y-95246115D01*
G37*
G36*
X147409122Y-95246115D02*
X147525041Y-95269173D01*
X147852620Y-95404861D01*
X148143511Y-95599228D01*
X148147436Y-95601851D01*
X148398149Y-95852564D01*
X148398151Y-95852567D01*
X148595139Y-96147380D01*
X148730827Y-96474959D01*
X148800000Y-96822716D01*
X148800000Y-97177284D01*
X148730827Y-97525041D01*
X148595139Y-97852620D01*
X148400772Y-98143511D01*
X148398149Y-98147436D01*
X148147436Y-98398149D01*
X148147433Y-98398151D01*
X147852620Y-98595139D01*
X147525041Y-98730827D01*
X147409122Y-98753885D01*
X147177286Y-98800000D01*
X146822714Y-98800000D01*
X146590878Y-98753885D01*
X146474959Y-98730827D01*
X146147380Y-98595139D01*
X145852567Y-98398151D01*
X145852564Y-98398149D01*
X145601851Y-98147436D01*
X145599228Y-98143511D01*
X145404861Y-97852620D01*
X145269173Y-97525041D01*
X145200000Y-97177284D01*
X145200000Y-96822716D01*
X145269173Y-96474959D01*
X145404861Y-96147380D01*
X145601849Y-95852567D01*
X145601851Y-95852564D01*
X145852564Y-95601851D01*
X145856489Y-95599228D01*
X146147380Y-95404861D01*
X146474959Y-95269173D01*
X146590878Y-95246115D01*
X146822714Y-95200000D01*
X147177286Y-95200000D01*
X147409122Y-95246115D01*
X147409122Y-95246115D01*
G37*
G36*
X197409122Y-95246115D02*
X197525041Y-95269173D01*
X197852620Y-95404861D01*
X198143511Y-95599228D01*
X198147436Y-95601851D01*
X198398149Y-95852564D01*
X198398151Y-95852567D01*
X198595139Y-96147380D01*
X198730827Y-96474959D01*
X198800000Y-96822716D01*
X198800000Y-97177284D01*
X198730827Y-97525041D01*
X198595139Y-97852620D01*
X198400772Y-98143511D01*
X198398149Y-98147436D01*
X198147436Y-98398149D01*
X198147433Y-98398151D01*
X197852620Y-98595139D01*
X197525041Y-98730827D01*
X197409122Y-98753885D01*
X197177286Y-98800000D01*
X196822714Y-98800000D01*
X196590878Y-98753885D01*
X196474959Y-98730827D01*
X196147380Y-98595139D01*
X195852567Y-98398151D01*
X195852564Y-98398149D01*
X195601851Y-98147436D01*
X195599228Y-98143511D01*
X195404861Y-97852620D01*
X195269173Y-97525041D01*
X195200000Y-97177284D01*
X195200000Y-96822716D01*
X195269173Y-96474959D01*
X195404861Y-96147380D01*
X195601849Y-95852567D01*
X195601851Y-95852564D01*
X195852564Y-95601851D01*
X195856489Y-95599228D01*
X196147380Y-95404861D01*
X196474959Y-95269173D01*
X196590878Y-95246115D01*
X196822714Y-95200000D01*
X197177286Y-95200000D01*
X197409122Y-95246115D01*
X197409122Y-95246115D01*
G37*
G36*
X107379196Y-95749958D02*
X107615780Y-95847954D01*
X107828705Y-95990226D01*
X108009774Y-96171295D01*
X108152046Y-96384220D01*
X108250042Y-96620804D01*
X108300000Y-96871960D01*
X108300000Y-97128040D01*
X108250042Y-97379196D01*
X108152046Y-97615780D01*
X108009774Y-97828705D01*
X107828705Y-98009774D01*
X107615780Y-98152046D01*
X107379196Y-98250042D01*
X107128040Y-98300000D01*
X106871960Y-98300000D01*
X106620804Y-98250042D01*
X106384220Y-98152046D01*
X106171295Y-98009774D01*
X105990226Y-97828705D01*
X105847954Y-97615780D01*
X105749958Y-97379196D01*
X105700000Y-97128040D01*
X105700000Y-96871960D01*
X105749958Y-96620804D01*
X105847954Y-96384220D01*
X105990226Y-96171295D01*
X106171295Y-95990226D01*
X106384220Y-95847954D01*
X106620804Y-95749958D01*
X106871960Y-95700000D01*
X107128040Y-95700000D01*
X107379196Y-95749958D01*
X107379196Y-95749958D01*
G37*
G36*
X143379196Y-95749958D02*
X143615780Y-95847954D01*
X143828705Y-95990226D01*
X144009774Y-96171295D01*
X144152046Y-96384220D01*
X144250042Y-96620804D01*
X144300000Y-96871960D01*
X144300000Y-97128040D01*
X144250042Y-97379196D01*
X144152046Y-97615780D01*
X144009774Y-97828705D01*
X143828705Y-98009774D01*
X143615780Y-98152046D01*
X143379196Y-98250042D01*
X143128040Y-98300000D01*
X142871960Y-98300000D01*
X142620804Y-98250042D01*
X142384220Y-98152046D01*
X142171295Y-98009774D01*
X141990226Y-97828705D01*
X141847954Y-97615780D01*
X141749958Y-97379196D01*
X141700000Y-97128040D01*
X141700000Y-96871960D01*
X141749958Y-96620804D01*
X141847954Y-96384220D01*
X141990226Y-96171295D01*
X142171295Y-95990226D01*
X142384220Y-95847954D01*
X142620804Y-95749958D01*
X142871960Y-95700000D01*
X143128040Y-95700000D01*
X143379196Y-95749958D01*
X143379196Y-95749958D01*
G37*
G36*
X179173707Y-93127597D02*
X179250836Y-93135193D01*
X179382787Y-93175220D01*
X179448763Y-93195233D01*
X179631172Y-93292733D01*
X179791054Y-93423946D01*
X179922267Y-93583828D01*
X180019767Y-93766237D01*
X180019767Y-93766238D01*
X180079807Y-93964164D01*
X180100080Y-94170000D01*
X180079807Y-94375836D01*
X180039780Y-94507787D01*
X180019767Y-94573763D01*
X179922267Y-94756172D01*
X179791054Y-94916054D01*
X179631172Y-95047267D01*
X179448763Y-95144767D01*
X179382787Y-95164780D01*
X179250836Y-95204807D01*
X179173707Y-95212404D01*
X179096580Y-95220000D01*
X178993420Y-95220000D01*
X178916293Y-95212404D01*
X178839164Y-95204807D01*
X178707213Y-95164780D01*
X178641237Y-95144767D01*
X178458828Y-95047267D01*
X178298946Y-94916054D01*
X178167733Y-94756172D01*
X178070233Y-94573763D01*
X178050220Y-94507787D01*
X178010193Y-94375836D01*
X177989920Y-94170000D01*
X178010193Y-93964164D01*
X178070233Y-93766238D01*
X178070233Y-93766237D01*
X178167733Y-93583828D01*
X178298946Y-93423946D01*
X178458828Y-93292733D01*
X178641237Y-93195233D01*
X178707213Y-93175220D01*
X178839164Y-93135193D01*
X178916293Y-93127597D01*
X178993420Y-93120000D01*
X179096580Y-93120000D01*
X179173707Y-93127597D01*
X179173707Y-93127597D01*
G37*
G36*
X176633707Y-93127597D02*
X176710836Y-93135193D01*
X176842787Y-93175220D01*
X176908763Y-93195233D01*
X177091172Y-93292733D01*
X177251054Y-93423946D01*
X177382267Y-93583828D01*
X177479767Y-93766237D01*
X177479767Y-93766238D01*
X177539807Y-93964164D01*
X177560080Y-94170000D01*
X177539807Y-94375836D01*
X177499780Y-94507787D01*
X177479767Y-94573763D01*
X177382267Y-94756172D01*
X177251054Y-94916054D01*
X177091172Y-95047267D01*
X176908763Y-95144767D01*
X176842787Y-95164780D01*
X176710836Y-95204807D01*
X176633707Y-95212404D01*
X176556580Y-95220000D01*
X176453420Y-95220000D01*
X176376293Y-95212404D01*
X176299164Y-95204807D01*
X176167213Y-95164780D01*
X176101237Y-95144767D01*
X175918828Y-95047267D01*
X175758946Y-94916054D01*
X175627733Y-94756172D01*
X175530233Y-94573763D01*
X175510220Y-94507787D01*
X175470193Y-94375836D01*
X175449920Y-94170000D01*
X175470193Y-93964164D01*
X175530233Y-93766238D01*
X175530233Y-93766237D01*
X175627733Y-93583828D01*
X175758946Y-93423946D01*
X175918828Y-93292733D01*
X176101237Y-93195233D01*
X176167213Y-93175220D01*
X176299164Y-93135193D01*
X176376293Y-93127597D01*
X176453420Y-93120000D01*
X176556580Y-93120000D01*
X176633707Y-93127597D01*
X176633707Y-93127597D01*
G37*
G36*
X174093707Y-93127597D02*
X174170836Y-93135193D01*
X174302787Y-93175220D01*
X174368763Y-93195233D01*
X174551172Y-93292733D01*
X174711054Y-93423946D01*
X174842267Y-93583828D01*
X174939767Y-93766237D01*
X174939767Y-93766238D01*
X174999807Y-93964164D01*
X175020080Y-94170000D01*
X174999807Y-94375836D01*
X174959780Y-94507787D01*
X174939767Y-94573763D01*
X174842267Y-94756172D01*
X174711054Y-94916054D01*
X174551172Y-95047267D01*
X174368763Y-95144767D01*
X174302787Y-95164780D01*
X174170836Y-95204807D01*
X174093707Y-95212404D01*
X174016580Y-95220000D01*
X173913420Y-95220000D01*
X173836293Y-95212404D01*
X173759164Y-95204807D01*
X173627213Y-95164780D01*
X173561237Y-95144767D01*
X173378828Y-95047267D01*
X173218946Y-94916054D01*
X173087733Y-94756172D01*
X172990233Y-94573763D01*
X172970220Y-94507787D01*
X172930193Y-94375836D01*
X172909920Y-94170000D01*
X172930193Y-93964164D01*
X172990233Y-93766238D01*
X172990233Y-93766237D01*
X173087733Y-93583828D01*
X173218946Y-93423946D01*
X173378828Y-93292733D01*
X173561237Y-93195233D01*
X173627213Y-93175220D01*
X173759164Y-93135193D01*
X173836293Y-93127597D01*
X173913420Y-93120000D01*
X174016580Y-93120000D01*
X174093707Y-93127597D01*
X174093707Y-93127597D01*
G37*
G36*
X171553707Y-93127597D02*
X171630836Y-93135193D01*
X171762787Y-93175220D01*
X171828763Y-93195233D01*
X172011172Y-93292733D01*
X172171054Y-93423946D01*
X172302267Y-93583828D01*
X172399767Y-93766237D01*
X172399767Y-93766238D01*
X172459807Y-93964164D01*
X172480080Y-94170000D01*
X172459807Y-94375836D01*
X172419780Y-94507787D01*
X172399767Y-94573763D01*
X172302267Y-94756172D01*
X172171054Y-94916054D01*
X172011172Y-95047267D01*
X171828763Y-95144767D01*
X171762787Y-95164780D01*
X171630836Y-95204807D01*
X171553707Y-95212404D01*
X171476580Y-95220000D01*
X171373420Y-95220000D01*
X171296293Y-95212404D01*
X171219164Y-95204807D01*
X171087213Y-95164780D01*
X171021237Y-95144767D01*
X170838828Y-95047267D01*
X170678946Y-94916054D01*
X170547733Y-94756172D01*
X170450233Y-94573763D01*
X170430220Y-94507787D01*
X170390193Y-94375836D01*
X170369920Y-94170000D01*
X170390193Y-93964164D01*
X170450233Y-93766238D01*
X170450233Y-93766237D01*
X170547733Y-93583828D01*
X170678946Y-93423946D01*
X170838828Y-93292733D01*
X171021237Y-93195233D01*
X171087213Y-93175220D01*
X171219164Y-93135193D01*
X171296293Y-93127597D01*
X171373420Y-93120000D01*
X171476580Y-93120000D01*
X171553707Y-93127597D01*
X171553707Y-93127597D01*
G37*
G36*
X169013707Y-93127597D02*
X169090836Y-93135193D01*
X169222787Y-93175220D01*
X169288763Y-93195233D01*
X169471172Y-93292733D01*
X169631054Y-93423946D01*
X169762267Y-93583828D01*
X169859767Y-93766237D01*
X169859767Y-93766238D01*
X169919807Y-93964164D01*
X169940080Y-94170000D01*
X169919807Y-94375836D01*
X169879780Y-94507787D01*
X169859767Y-94573763D01*
X169762267Y-94756172D01*
X169631054Y-94916054D01*
X169471172Y-95047267D01*
X169288763Y-95144767D01*
X169222787Y-95164780D01*
X169090836Y-95204807D01*
X169013707Y-95212404D01*
X168936580Y-95220000D01*
X168833420Y-95220000D01*
X168756293Y-95212404D01*
X168679164Y-95204807D01*
X168547213Y-95164780D01*
X168481237Y-95144767D01*
X168298828Y-95047267D01*
X168138946Y-94916054D01*
X168007733Y-94756172D01*
X167910233Y-94573763D01*
X167890220Y-94507787D01*
X167850193Y-94375836D01*
X167829920Y-94170000D01*
X167850193Y-93964164D01*
X167910233Y-93766238D01*
X167910233Y-93766237D01*
X168007733Y-93583828D01*
X168138946Y-93423946D01*
X168298828Y-93292733D01*
X168481237Y-93195233D01*
X168547213Y-93175220D01*
X168679164Y-93135193D01*
X168756293Y-93127597D01*
X168833420Y-93120000D01*
X168936580Y-93120000D01*
X169013707Y-93127597D01*
X169013707Y-93127597D01*
G37*
G36*
X166473707Y-93127597D02*
X166550836Y-93135193D01*
X166682787Y-93175220D01*
X166748763Y-93195233D01*
X166931172Y-93292733D01*
X167091054Y-93423946D01*
X167222267Y-93583828D01*
X167319767Y-93766237D01*
X167319767Y-93766238D01*
X167379807Y-93964164D01*
X167400080Y-94170000D01*
X167379807Y-94375836D01*
X167339780Y-94507787D01*
X167319767Y-94573763D01*
X167222267Y-94756172D01*
X167091054Y-94916054D01*
X166931172Y-95047267D01*
X166748763Y-95144767D01*
X166682787Y-95164780D01*
X166550836Y-95204807D01*
X166473707Y-95212404D01*
X166396580Y-95220000D01*
X166293420Y-95220000D01*
X166216293Y-95212404D01*
X166139164Y-95204807D01*
X166007213Y-95164780D01*
X165941237Y-95144767D01*
X165758828Y-95047267D01*
X165598946Y-94916054D01*
X165467733Y-94756172D01*
X165370233Y-94573763D01*
X165350220Y-94507787D01*
X165310193Y-94375836D01*
X165289920Y-94170000D01*
X165310193Y-93964164D01*
X165370233Y-93766238D01*
X165370233Y-93766237D01*
X165467733Y-93583828D01*
X165598946Y-93423946D01*
X165758828Y-93292733D01*
X165941237Y-93195233D01*
X166007213Y-93175220D01*
X166139164Y-93135193D01*
X166216293Y-93127597D01*
X166293420Y-93120000D01*
X166396580Y-93120000D01*
X166473707Y-93127597D01*
X166473707Y-93127597D01*
G37*
G36*
X163933707Y-93127597D02*
X164010836Y-93135193D01*
X164142787Y-93175220D01*
X164208763Y-93195233D01*
X164391172Y-93292733D01*
X164551054Y-93423946D01*
X164682267Y-93583828D01*
X164779767Y-93766237D01*
X164779767Y-93766238D01*
X164839807Y-93964164D01*
X164860080Y-94170000D01*
X164839807Y-94375836D01*
X164799780Y-94507787D01*
X164779767Y-94573763D01*
X164682267Y-94756172D01*
X164551054Y-94916054D01*
X164391172Y-95047267D01*
X164208763Y-95144767D01*
X164142787Y-95164780D01*
X164010836Y-95204807D01*
X163933707Y-95212404D01*
X163856580Y-95220000D01*
X163753420Y-95220000D01*
X163676293Y-95212404D01*
X163599164Y-95204807D01*
X163467213Y-95164780D01*
X163401237Y-95144767D01*
X163218828Y-95047267D01*
X163058946Y-94916054D01*
X162927733Y-94756172D01*
X162830233Y-94573763D01*
X162810220Y-94507787D01*
X162770193Y-94375836D01*
X162749920Y-94170000D01*
X162770193Y-93964164D01*
X162830233Y-93766238D01*
X162830233Y-93766237D01*
X162927733Y-93583828D01*
X163058946Y-93423946D01*
X163218828Y-93292733D01*
X163401237Y-93195233D01*
X163467213Y-93175220D01*
X163599164Y-93135193D01*
X163676293Y-93127597D01*
X163753420Y-93120000D01*
X163856580Y-93120000D01*
X163933707Y-93127597D01*
X163933707Y-93127597D01*
G37*
G36*
X161393707Y-93127597D02*
X161470836Y-93135193D01*
X161602787Y-93175220D01*
X161668763Y-93195233D01*
X161851172Y-93292733D01*
X162011054Y-93423946D01*
X162142267Y-93583828D01*
X162239767Y-93766237D01*
X162239767Y-93766238D01*
X162299807Y-93964164D01*
X162320080Y-94170000D01*
X162299807Y-94375836D01*
X162259780Y-94507787D01*
X162239767Y-94573763D01*
X162142267Y-94756172D01*
X162011054Y-94916054D01*
X161851172Y-95047267D01*
X161668763Y-95144767D01*
X161602787Y-95164780D01*
X161470836Y-95204807D01*
X161393707Y-95212404D01*
X161316580Y-95220000D01*
X161213420Y-95220000D01*
X161136293Y-95212404D01*
X161059164Y-95204807D01*
X160927213Y-95164780D01*
X160861237Y-95144767D01*
X160678828Y-95047267D01*
X160518946Y-94916054D01*
X160387733Y-94756172D01*
X160290233Y-94573763D01*
X160270220Y-94507787D01*
X160230193Y-94375836D01*
X160209920Y-94170000D01*
X160230193Y-93964164D01*
X160290233Y-93766238D01*
X160290233Y-93766237D01*
X160387733Y-93583828D01*
X160518946Y-93423946D01*
X160678828Y-93292733D01*
X160861237Y-93195233D01*
X160927213Y-93175220D01*
X161059164Y-93135193D01*
X161136293Y-93127597D01*
X161213420Y-93120000D01*
X161316580Y-93120000D01*
X161393707Y-93127597D01*
X161393707Y-93127597D01*
G37*
G36*
X158853707Y-93127597D02*
X158930836Y-93135193D01*
X159062787Y-93175220D01*
X159128763Y-93195233D01*
X159311172Y-93292733D01*
X159471054Y-93423946D01*
X159602267Y-93583828D01*
X159699767Y-93766237D01*
X159699767Y-93766238D01*
X159759807Y-93964164D01*
X159780080Y-94170000D01*
X159759807Y-94375836D01*
X159719780Y-94507787D01*
X159699767Y-94573763D01*
X159602267Y-94756172D01*
X159471054Y-94916054D01*
X159311172Y-95047267D01*
X159128763Y-95144767D01*
X159062787Y-95164780D01*
X158930836Y-95204807D01*
X158853707Y-95212404D01*
X158776580Y-95220000D01*
X158673420Y-95220000D01*
X158596293Y-95212404D01*
X158519164Y-95204807D01*
X158387213Y-95164780D01*
X158321237Y-95144767D01*
X158138828Y-95047267D01*
X157978946Y-94916054D01*
X157847733Y-94756172D01*
X157750233Y-94573763D01*
X157730220Y-94507787D01*
X157690193Y-94375836D01*
X157669920Y-94170000D01*
X157690193Y-93964164D01*
X157750233Y-93766238D01*
X157750233Y-93766237D01*
X157847733Y-93583828D01*
X157978946Y-93423946D01*
X158138828Y-93292733D01*
X158321237Y-93195233D01*
X158387213Y-93175220D01*
X158519164Y-93135193D01*
X158596293Y-93127597D01*
X158673420Y-93120000D01*
X158776580Y-93120000D01*
X158853707Y-93127597D01*
X158853707Y-93127597D01*
G37*
G36*
X157235000Y-95220000D02*
X155135000Y-95220000D01*
X155135000Y-93120000D01*
X157235000Y-93120000D01*
X157235000Y-95220000D01*
X157235000Y-95220000D01*
G37*
G36*
X181713707Y-93127597D02*
X181790836Y-93135193D01*
X181922787Y-93175220D01*
X181988763Y-93195233D01*
X182171172Y-93292733D01*
X182331054Y-93423946D01*
X182462267Y-93583828D01*
X182559767Y-93766237D01*
X182559767Y-93766238D01*
X182619807Y-93964164D01*
X182640080Y-94170000D01*
X182619807Y-94375836D01*
X182579780Y-94507787D01*
X182559767Y-94573763D01*
X182462267Y-94756172D01*
X182331054Y-94916054D01*
X182171172Y-95047267D01*
X181988763Y-95144767D01*
X181922787Y-95164780D01*
X181790836Y-95204807D01*
X181713707Y-95212404D01*
X181636580Y-95220000D01*
X181533420Y-95220000D01*
X181456293Y-95212404D01*
X181379164Y-95204807D01*
X181247213Y-95164780D01*
X181181237Y-95144767D01*
X180998828Y-95047267D01*
X180838946Y-94916054D01*
X180707733Y-94756172D01*
X180610233Y-94573763D01*
X180590220Y-94507787D01*
X180550193Y-94375836D01*
X180529920Y-94170000D01*
X180550193Y-93964164D01*
X180610233Y-93766238D01*
X180610233Y-93766237D01*
X180707733Y-93583828D01*
X180838946Y-93423946D01*
X180998828Y-93292733D01*
X181181237Y-93195233D01*
X181247213Y-93175220D01*
X181379164Y-93135193D01*
X181456293Y-93127597D01*
X181533420Y-93120000D01*
X181636580Y-93120000D01*
X181713707Y-93127597D01*
X181713707Y-93127597D01*
G37*
G36*
X139674603Y-91703368D02*
X139674606Y-91703369D01*
X139674605Y-91703369D01*
X139849678Y-91775886D01*
X140007239Y-91881166D01*
X140007241Y-91881168D01*
X140016469Y-91887334D01*
X140038080Y-91898885D01*
X140061529Y-91905998D01*
X140085916Y-91908400D01*
X143324000Y-91908400D01*
X143324000Y-93308400D01*
X140126250Y-93308400D01*
X140101864Y-93310802D01*
X140078415Y-93317915D01*
X140056804Y-93329466D01*
X140037862Y-93345012D01*
X140007241Y-93375633D01*
X139934936Y-93423946D01*
X139849678Y-93480914D01*
X139722890Y-93533431D01*
X139674603Y-93553432D01*
X139488750Y-93590400D01*
X139299250Y-93590400D01*
X139113397Y-93553432D01*
X139065110Y-93533431D01*
X138938322Y-93480914D01*
X138853064Y-93423946D01*
X138780759Y-93375633D01*
X138646767Y-93241641D01*
X138541487Y-93084079D01*
X138541486Y-93084078D01*
X138468969Y-92909005D01*
X138468968Y-92909003D01*
X138432000Y-92723150D01*
X138432000Y-92533650D01*
X138468968Y-92347797D01*
X138485397Y-92308134D01*
X138541486Y-92172722D01*
X138646766Y-92015161D01*
X138646767Y-92015159D01*
X138780759Y-91881167D01*
X138938321Y-91775887D01*
X138938322Y-91775886D01*
X139113395Y-91703369D01*
X139113394Y-91703369D01*
X139113397Y-91703368D01*
X139299250Y-91666400D01*
X139488750Y-91666400D01*
X139674603Y-91703368D01*
X139674603Y-91703368D01*
G37*
G36*
X149034603Y-91683368D02*
X149034606Y-91683369D01*
X149034605Y-91683369D01*
X149209678Y-91755886D01*
X149239611Y-91775887D01*
X149367241Y-91861167D01*
X149501233Y-91995159D01*
X149514598Y-92015161D01*
X149606514Y-92152722D01*
X149614798Y-92172722D01*
X149679032Y-92327797D01*
X149716000Y-92513650D01*
X149716000Y-92703150D01*
X149679032Y-92889003D01*
X149679031Y-92889005D01*
X149606514Y-93064078D01*
X149569148Y-93120000D01*
X149501233Y-93221641D01*
X149367241Y-93355633D01*
X149287923Y-93408632D01*
X149209678Y-93460914D01*
X149074266Y-93517003D01*
X149034603Y-93533432D01*
X148848750Y-93570400D01*
X148659250Y-93570400D01*
X148473397Y-93533432D01*
X148433734Y-93517003D01*
X148298322Y-93460914D01*
X148220077Y-93408632D01*
X148140759Y-93355633D01*
X148130138Y-93345012D01*
X148111196Y-93329466D01*
X148089585Y-93317915D01*
X148066136Y-93310802D01*
X148041750Y-93308400D01*
X144824000Y-93308400D01*
X144824000Y-91908400D01*
X148041750Y-91908400D01*
X148066136Y-91905998D01*
X148089585Y-91898885D01*
X148111196Y-91887334D01*
X148130138Y-91871788D01*
X148140759Y-91861167D01*
X148268389Y-91775887D01*
X148298322Y-91755886D01*
X148473395Y-91683369D01*
X148473394Y-91683369D01*
X148473397Y-91683368D01*
X148659250Y-91646400D01*
X148848750Y-91646400D01*
X149034603Y-91683368D01*
X149034603Y-91683368D01*
G37*
G36*
X144221738Y-90705053D02*
X144263598Y-90713379D01*
X144298245Y-90727730D01*
X144381890Y-90762377D01*
X144488354Y-90833514D01*
X144578886Y-90924046D01*
X144595066Y-90948261D01*
X144600656Y-90955073D01*
X144604811Y-90962846D01*
X144650023Y-91030511D01*
X144699021Y-91148803D01*
X144724000Y-91274379D01*
X144724000Y-91402421D01*
X144699021Y-91527997D01*
X144650023Y-91646289D01*
X144604811Y-91713954D01*
X144600656Y-91721728D01*
X144595066Y-91728539D01*
X144578886Y-91752754D01*
X144488354Y-91843286D01*
X144381890Y-91914423D01*
X144298245Y-91949070D01*
X144263598Y-91963421D01*
X144221738Y-91971747D01*
X144138021Y-91988400D01*
X144009979Y-91988400D01*
X143926262Y-91971747D01*
X143884402Y-91963421D01*
X143849755Y-91949070D01*
X143766110Y-91914423D01*
X143659646Y-91843286D01*
X143569114Y-91752754D01*
X143552934Y-91728539D01*
X143547344Y-91721727D01*
X143543189Y-91713954D01*
X143497977Y-91646289D01*
X143448979Y-91527997D01*
X143424000Y-91402421D01*
X143424000Y-91274379D01*
X143448979Y-91148803D01*
X143497977Y-91030511D01*
X143543189Y-90962846D01*
X143547344Y-90955072D01*
X143552934Y-90948261D01*
X143569114Y-90924046D01*
X143659646Y-90833514D01*
X143766110Y-90762377D01*
X143849755Y-90727730D01*
X143884402Y-90713379D01*
X143926262Y-90705053D01*
X144009979Y-90688400D01*
X144138021Y-90688400D01*
X144221738Y-90705053D01*
X144221738Y-90705053D01*
G37*
G36*
X149034603Y-89153368D02*
X149034606Y-89153369D01*
X149034605Y-89153369D01*
X149209678Y-89225886D01*
X149209679Y-89225887D01*
X149367241Y-89331167D01*
X149501233Y-89465159D01*
X149501234Y-89465161D01*
X149606514Y-89622722D01*
X149662603Y-89758134D01*
X149679032Y-89797797D01*
X149716000Y-89983650D01*
X149716000Y-90173150D01*
X149679032Y-90359003D01*
X149679031Y-90359005D01*
X149606514Y-90534078D01*
X149606513Y-90534079D01*
X149501233Y-90691641D01*
X149367241Y-90825633D01*
X149355449Y-90833512D01*
X149209678Y-90930914D01*
X149074266Y-90987003D01*
X149034603Y-91003432D01*
X148848750Y-91040400D01*
X148659250Y-91040400D01*
X148473397Y-91003432D01*
X148433734Y-90987003D01*
X148298322Y-90930914D01*
X148152551Y-90833512D01*
X148140759Y-90825633D01*
X148120138Y-90805012D01*
X148101196Y-90789466D01*
X148079585Y-90777915D01*
X148056136Y-90770802D01*
X148031750Y-90768400D01*
X144824000Y-90768400D01*
X144824000Y-89368400D01*
X148051750Y-89368400D01*
X148076136Y-89365998D01*
X148099585Y-89358885D01*
X148121196Y-89347334D01*
X148140138Y-89331788D01*
X148140759Y-89331167D01*
X148298321Y-89225887D01*
X148298322Y-89225886D01*
X148473395Y-89153369D01*
X148473394Y-89153369D01*
X148473397Y-89153368D01*
X148659250Y-89116400D01*
X148848750Y-89116400D01*
X149034603Y-89153368D01*
X149034603Y-89153368D01*
G37*
G36*
X139674603Y-89123368D02*
X139674606Y-89123369D01*
X139674605Y-89123369D01*
X139849678Y-89195886D01*
X139894577Y-89225887D01*
X140007241Y-89301167D01*
X140037862Y-89331788D01*
X140056804Y-89347334D01*
X140078415Y-89358885D01*
X140101864Y-89365998D01*
X140126250Y-89368400D01*
X143324000Y-89368400D01*
X143324000Y-90768400D01*
X140085916Y-90768400D01*
X140061530Y-90770802D01*
X140038081Y-90777915D01*
X140016469Y-90789466D01*
X140007241Y-90795632D01*
X140007239Y-90795634D01*
X139849678Y-90900914D01*
X139704642Y-90960989D01*
X139674603Y-90973432D01*
X139488750Y-91010400D01*
X139299250Y-91010400D01*
X139113397Y-90973432D01*
X139073734Y-90957003D01*
X138938322Y-90900914D01*
X138837449Y-90833512D01*
X138780759Y-90795633D01*
X138646767Y-90661641D01*
X138541487Y-90504079D01*
X138541486Y-90504078D01*
X138468969Y-90329005D01*
X138468968Y-90329003D01*
X138432000Y-90143150D01*
X138432000Y-89953650D01*
X138468968Y-89767797D01*
X138529060Y-89622722D01*
X138541486Y-89592722D01*
X138646766Y-89435161D01*
X138646767Y-89435159D01*
X138780759Y-89301167D01*
X138893423Y-89225887D01*
X138938322Y-89195886D01*
X139113395Y-89123369D01*
X139113394Y-89123369D01*
X139113397Y-89123368D01*
X139299250Y-89086400D01*
X139488750Y-89086400D01*
X139674603Y-89123368D01*
X139674603Y-89123368D01*
G37*
G36*
X144221738Y-88165053D02*
X144263598Y-88173379D01*
X144298245Y-88187730D01*
X144381890Y-88222377D01*
X144488354Y-88293514D01*
X144578886Y-88384046D01*
X144595066Y-88408261D01*
X144600656Y-88415073D01*
X144604811Y-88422846D01*
X144650023Y-88490511D01*
X144699021Y-88608803D01*
X144724000Y-88734379D01*
X144724000Y-88862421D01*
X144699021Y-88987997D01*
X144650023Y-89106289D01*
X144604811Y-89173954D01*
X144600656Y-89181728D01*
X144595066Y-89188539D01*
X144578886Y-89212754D01*
X144488354Y-89303286D01*
X144381890Y-89374423D01*
X144298245Y-89409070D01*
X144263598Y-89423421D01*
X144221738Y-89431747D01*
X144138021Y-89448400D01*
X144009979Y-89448400D01*
X143926262Y-89431747D01*
X143884402Y-89423421D01*
X143849755Y-89409070D01*
X143766110Y-89374423D01*
X143659646Y-89303286D01*
X143569114Y-89212754D01*
X143552934Y-89188539D01*
X143547344Y-89181727D01*
X143543189Y-89173954D01*
X143497977Y-89106289D01*
X143448979Y-88987997D01*
X143424000Y-88862421D01*
X143424000Y-88734379D01*
X143448979Y-88608803D01*
X143497977Y-88490511D01*
X143543189Y-88422846D01*
X143547344Y-88415072D01*
X143552934Y-88408261D01*
X143569114Y-88384046D01*
X143659646Y-88293514D01*
X143766110Y-88222377D01*
X143849755Y-88187730D01*
X143884402Y-88173379D01*
X143926262Y-88165053D01*
X144009979Y-88148400D01*
X144138021Y-88148400D01*
X144221738Y-88165053D01*
X144221738Y-88165053D01*
G37*
G36*
X139519888Y-86482870D02*
X139700274Y-86518750D01*
X139891362Y-86597902D01*
X140063336Y-86712811D01*
X140142313Y-86791788D01*
X140161255Y-86807334D01*
X140182866Y-86818885D01*
X140206315Y-86825998D01*
X140230701Y-86828400D01*
X143324000Y-86828400D01*
X143324000Y-88228400D01*
X140230701Y-88228400D01*
X140206315Y-88230802D01*
X140182866Y-88237915D01*
X140161255Y-88249466D01*
X140142313Y-88265012D01*
X140063336Y-88343989D01*
X139891362Y-88458898D01*
X139700274Y-88538050D01*
X139519888Y-88573930D01*
X139497417Y-88578400D01*
X139290583Y-88578400D01*
X139268112Y-88573930D01*
X139087726Y-88538050D01*
X138896638Y-88458898D01*
X138724664Y-88343989D01*
X138578411Y-88197736D01*
X138463502Y-88025762D01*
X138384350Y-87834674D01*
X138344000Y-87631816D01*
X138344000Y-87424984D01*
X138384350Y-87222126D01*
X138463502Y-87031038D01*
X138578411Y-86859064D01*
X138724664Y-86712811D01*
X138896638Y-86597902D01*
X139087726Y-86518750D01*
X139268112Y-86482870D01*
X139290583Y-86478400D01*
X139497417Y-86478400D01*
X139519888Y-86482870D01*
X139519888Y-86482870D01*
G37*
G36*
X148879888Y-86472870D02*
X149060274Y-86508750D01*
X149251362Y-86587902D01*
X149423336Y-86702811D01*
X149569589Y-86849064D01*
X149684498Y-87021038D01*
X149763650Y-87212126D01*
X149804000Y-87414984D01*
X149804000Y-87621816D01*
X149763650Y-87824674D01*
X149684498Y-88015762D01*
X149569589Y-88187736D01*
X149423336Y-88333989D01*
X149251362Y-88448898D01*
X149060274Y-88528050D01*
X148879888Y-88563930D01*
X148857417Y-88568400D01*
X148650583Y-88568400D01*
X148628112Y-88563930D01*
X148447726Y-88528050D01*
X148256638Y-88448898D01*
X148084664Y-88333989D01*
X148015687Y-88265012D01*
X147996745Y-88249466D01*
X147975134Y-88237915D01*
X147951685Y-88230802D01*
X147927299Y-88228400D01*
X144824000Y-88228400D01*
X144824000Y-86828400D01*
X147907299Y-86828400D01*
X147931685Y-86825998D01*
X147955134Y-86818885D01*
X147976745Y-86807334D01*
X147995687Y-86791788D01*
X148084664Y-86702811D01*
X148256638Y-86587902D01*
X148447726Y-86508750D01*
X148628112Y-86472870D01*
X148650583Y-86468400D01*
X148857417Y-86468400D01*
X148879888Y-86472870D01*
X148879888Y-86472870D01*
G37*
G36*
X139674603Y-84073368D02*
X139674606Y-84073369D01*
X139674605Y-84073369D01*
X139849678Y-84145886D01*
X139849679Y-84145887D01*
X140007241Y-84251167D01*
X140007862Y-84251788D01*
X140026804Y-84267334D01*
X140048415Y-84278885D01*
X140071864Y-84285998D01*
X140096250Y-84288400D01*
X143324000Y-84288400D01*
X143324000Y-85688400D01*
X140116250Y-85688400D01*
X140091864Y-85690802D01*
X140068415Y-85697915D01*
X140046804Y-85709466D01*
X140027862Y-85725012D01*
X140007241Y-85745633D01*
X139927923Y-85798632D01*
X139849678Y-85850914D01*
X139714266Y-85907003D01*
X139674603Y-85923432D01*
X139488750Y-85960400D01*
X139299250Y-85960400D01*
X139113397Y-85923432D01*
X139073734Y-85907003D01*
X138938322Y-85850914D01*
X138860077Y-85798632D01*
X138780759Y-85745633D01*
X138646767Y-85611641D01*
X138541487Y-85454079D01*
X138541486Y-85454078D01*
X138468969Y-85279005D01*
X138468968Y-85279003D01*
X138432000Y-85093150D01*
X138432000Y-84903650D01*
X138468968Y-84717797D01*
X138485397Y-84678134D01*
X138541486Y-84542722D01*
X138646766Y-84385161D01*
X138646767Y-84385159D01*
X138780759Y-84251167D01*
X138938321Y-84145887D01*
X138938322Y-84145886D01*
X139113395Y-84073369D01*
X139113394Y-84073369D01*
X139113397Y-84073368D01*
X139299250Y-84036400D01*
X139488750Y-84036400D01*
X139674603Y-84073368D01*
X139674603Y-84073368D01*
G37*
G36*
X149034603Y-84063368D02*
X149074266Y-84079797D01*
X149209678Y-84135886D01*
X149224645Y-84145887D01*
X149367241Y-84241167D01*
X149501233Y-84375159D01*
X149501234Y-84375161D01*
X149606514Y-84532722D01*
X149610656Y-84542722D01*
X149679032Y-84707797D01*
X149716000Y-84893650D01*
X149716000Y-85083150D01*
X149679032Y-85269003D01*
X149679031Y-85269005D01*
X149606514Y-85444078D01*
X149606513Y-85444079D01*
X149501233Y-85601641D01*
X149367241Y-85735633D01*
X149287923Y-85788632D01*
X149209678Y-85840914D01*
X149074266Y-85897003D01*
X149034603Y-85913432D01*
X148848750Y-85950400D01*
X148659250Y-85950400D01*
X148473397Y-85913432D01*
X148433734Y-85897003D01*
X148298322Y-85840914D01*
X148220077Y-85788632D01*
X148140759Y-85735633D01*
X148130138Y-85725012D01*
X148111196Y-85709466D01*
X148089585Y-85697915D01*
X148066136Y-85690802D01*
X148041750Y-85688400D01*
X144824000Y-85688400D01*
X144824000Y-84288400D01*
X148041750Y-84288400D01*
X148066136Y-84285998D01*
X148089585Y-84278885D01*
X148111196Y-84267334D01*
X148130138Y-84251788D01*
X148140759Y-84241167D01*
X148283355Y-84145887D01*
X148298322Y-84135886D01*
X148433734Y-84079797D01*
X148473397Y-84063368D01*
X148659250Y-84026400D01*
X148848750Y-84026400D01*
X149034603Y-84063368D01*
X149034603Y-84063368D01*
G37*
G36*
X149034603Y-81513368D02*
X149034606Y-81513369D01*
X149034605Y-81513369D01*
X149209678Y-81585886D01*
X149209679Y-81585887D01*
X149367241Y-81691167D01*
X149501233Y-81825159D01*
X149501234Y-81825161D01*
X149606514Y-81982722D01*
X149662603Y-82118134D01*
X149679032Y-82157797D01*
X149716000Y-82343650D01*
X149716000Y-82533150D01*
X149679032Y-82719003D01*
X149679031Y-82719005D01*
X149606514Y-82894078D01*
X149606513Y-82894079D01*
X149501233Y-83051641D01*
X149367241Y-83185633D01*
X149287923Y-83238632D01*
X149209678Y-83290914D01*
X149074266Y-83347003D01*
X149034603Y-83363432D01*
X148848750Y-83400400D01*
X148659250Y-83400400D01*
X148473397Y-83363432D01*
X148433734Y-83347003D01*
X148298322Y-83290914D01*
X148220077Y-83238632D01*
X148140759Y-83185633D01*
X148140138Y-83185012D01*
X148121196Y-83169466D01*
X148099585Y-83157915D01*
X148076136Y-83150802D01*
X148051750Y-83148400D01*
X144824000Y-83148400D01*
X144824000Y-81748400D01*
X148031750Y-81748400D01*
X148056136Y-81745998D01*
X148079585Y-81738885D01*
X148101196Y-81727334D01*
X148120138Y-81711788D01*
X148140759Y-81691167D01*
X148298321Y-81585887D01*
X148298322Y-81585886D01*
X148473395Y-81513369D01*
X148473394Y-81513369D01*
X148473397Y-81513368D01*
X148659250Y-81476400D01*
X148848750Y-81476400D01*
X149034603Y-81513368D01*
X149034603Y-81513368D01*
G37*
G36*
X139674603Y-81503368D02*
X139714266Y-81519797D01*
X139849678Y-81575886D01*
X139864645Y-81585887D01*
X140007241Y-81681167D01*
X140037862Y-81711788D01*
X140056804Y-81727334D01*
X140078415Y-81738885D01*
X140101864Y-81745998D01*
X140126250Y-81748400D01*
X143324000Y-81748400D01*
X143324000Y-83148400D01*
X140085916Y-83148400D01*
X140061530Y-83150802D01*
X140038081Y-83157915D01*
X140016469Y-83169466D01*
X140007241Y-83175632D01*
X140007239Y-83175634D01*
X139849678Y-83280914D01*
X139704642Y-83340989D01*
X139674603Y-83353432D01*
X139488750Y-83390400D01*
X139299250Y-83390400D01*
X139113397Y-83353432D01*
X139073734Y-83337003D01*
X138938322Y-83280914D01*
X138860077Y-83228632D01*
X138780759Y-83175633D01*
X138646767Y-83041641D01*
X138541487Y-82884079D01*
X138541486Y-82884078D01*
X138468969Y-82709005D01*
X138468968Y-82709003D01*
X138432000Y-82523150D01*
X138432000Y-82333650D01*
X138468968Y-82147797D01*
X138537344Y-81982722D01*
X138541486Y-81972722D01*
X138646766Y-81815161D01*
X138646767Y-81815159D01*
X138780759Y-81681167D01*
X138923355Y-81585887D01*
X138938322Y-81575886D01*
X139073734Y-81519797D01*
X139113397Y-81503368D01*
X139299250Y-81466400D01*
X139488750Y-81466400D01*
X139674603Y-81503368D01*
X139674603Y-81503368D01*
G37*
G36*
X149034603Y-78973368D02*
X149034606Y-78973369D01*
X149034605Y-78973369D01*
X149209678Y-79045886D01*
X149209679Y-79045887D01*
X149367241Y-79151167D01*
X149501233Y-79285159D01*
X149501234Y-79285161D01*
X149606514Y-79442722D01*
X149662603Y-79578134D01*
X149679032Y-79617797D01*
X149716000Y-79803650D01*
X149716000Y-79993150D01*
X149679032Y-80179003D01*
X149679031Y-80179005D01*
X149606514Y-80354078D01*
X149606513Y-80354079D01*
X149501233Y-80511641D01*
X149367241Y-80645633D01*
X149287923Y-80698632D01*
X149209678Y-80750914D01*
X149074266Y-80807003D01*
X149034603Y-80823432D01*
X148848750Y-80860400D01*
X148659250Y-80860400D01*
X148473397Y-80823432D01*
X148433734Y-80807003D01*
X148298322Y-80750914D01*
X148220077Y-80698632D01*
X148140759Y-80645633D01*
X148140138Y-80645012D01*
X148121196Y-80629466D01*
X148099585Y-80617915D01*
X148076136Y-80610802D01*
X148051750Y-80608400D01*
X144824000Y-80608400D01*
X144824000Y-79208400D01*
X148031750Y-79208400D01*
X148056136Y-79205998D01*
X148079585Y-79198885D01*
X148101196Y-79187334D01*
X148120138Y-79171788D01*
X148140759Y-79151167D01*
X148298321Y-79045887D01*
X148298322Y-79045886D01*
X148473395Y-78973369D01*
X148473394Y-78973369D01*
X148473397Y-78973368D01*
X148659250Y-78936400D01*
X148848750Y-78936400D01*
X149034603Y-78973368D01*
X149034603Y-78973368D01*
G37*
G36*
X139674603Y-78963368D02*
X139714266Y-78979797D01*
X139849678Y-79035886D01*
X139864645Y-79045887D01*
X140007241Y-79141167D01*
X140037862Y-79171788D01*
X140056804Y-79187334D01*
X140078415Y-79198885D01*
X140101864Y-79205998D01*
X140126250Y-79208400D01*
X143324000Y-79208400D01*
X143324000Y-80608400D01*
X140085916Y-80608400D01*
X140061530Y-80610802D01*
X140038081Y-80617915D01*
X140016469Y-80629466D01*
X140007241Y-80635632D01*
X140007239Y-80635634D01*
X139849678Y-80740914D01*
X139704642Y-80800989D01*
X139674603Y-80813432D01*
X139488750Y-80850400D01*
X139299250Y-80850400D01*
X139113397Y-80813432D01*
X139073734Y-80797003D01*
X138938322Y-80740914D01*
X138860077Y-80688632D01*
X138780759Y-80635633D01*
X138646767Y-80501641D01*
X138541487Y-80344079D01*
X138541486Y-80344078D01*
X138468969Y-80169005D01*
X138468968Y-80169003D01*
X138432000Y-79983150D01*
X138432000Y-79793650D01*
X138468968Y-79607797D01*
X138537344Y-79442722D01*
X138541486Y-79432722D01*
X138646766Y-79275161D01*
X138646767Y-79275159D01*
X138780759Y-79141167D01*
X138923355Y-79045887D01*
X138938322Y-79035886D01*
X139073734Y-78979797D01*
X139113397Y-78963368D01*
X139299250Y-78926400D01*
X139488750Y-78926400D01*
X139674603Y-78963368D01*
X139674603Y-78963368D01*
G37*
G36*
X139674603Y-76433368D02*
X139674606Y-76433369D01*
X139674605Y-76433369D01*
X139849678Y-76505886D01*
X139849679Y-76505887D01*
X140007241Y-76611167D01*
X140027862Y-76631788D01*
X140046804Y-76647334D01*
X140068415Y-76658885D01*
X140091864Y-76665998D01*
X140116250Y-76668400D01*
X143324000Y-76668400D01*
X143324000Y-78068400D01*
X140096250Y-78068400D01*
X140071864Y-78070802D01*
X140048415Y-78077915D01*
X140026804Y-78089466D01*
X140007862Y-78105012D01*
X140007241Y-78105633D01*
X139927923Y-78158632D01*
X139849678Y-78210914D01*
X139714266Y-78267003D01*
X139674603Y-78283432D01*
X139488750Y-78320400D01*
X139299250Y-78320400D01*
X139113397Y-78283432D01*
X139073734Y-78267003D01*
X138938322Y-78210914D01*
X138860077Y-78158632D01*
X138780759Y-78105633D01*
X138646767Y-77971641D01*
X138541487Y-77814079D01*
X138541486Y-77814078D01*
X138468969Y-77639005D01*
X138468968Y-77639003D01*
X138432000Y-77453150D01*
X138432000Y-77263650D01*
X138468968Y-77077797D01*
X138485397Y-77038134D01*
X138541486Y-76902722D01*
X138646766Y-76745161D01*
X138646767Y-76745159D01*
X138780759Y-76611167D01*
X138938321Y-76505887D01*
X138938322Y-76505886D01*
X139113395Y-76433369D01*
X139113394Y-76433369D01*
X139113397Y-76433368D01*
X139299250Y-76396400D01*
X139488750Y-76396400D01*
X139674603Y-76433368D01*
X139674603Y-76433368D01*
G37*
G36*
X149034603Y-76433368D02*
X149034606Y-76433369D01*
X149034605Y-76433369D01*
X149209678Y-76505886D01*
X149209679Y-76505887D01*
X149367241Y-76611167D01*
X149501233Y-76745159D01*
X149501234Y-76745161D01*
X149606514Y-76902722D01*
X149662603Y-77038134D01*
X149679032Y-77077797D01*
X149716000Y-77263650D01*
X149716000Y-77453150D01*
X149679032Y-77639003D01*
X149679031Y-77639005D01*
X149606514Y-77814078D01*
X149606513Y-77814079D01*
X149501233Y-77971641D01*
X149367241Y-78105633D01*
X149287923Y-78158632D01*
X149209678Y-78210914D01*
X149074266Y-78267003D01*
X149034603Y-78283432D01*
X148848750Y-78320400D01*
X148659250Y-78320400D01*
X148473397Y-78283432D01*
X148433734Y-78267003D01*
X148298322Y-78210914D01*
X148220077Y-78158632D01*
X148140759Y-78105633D01*
X148140138Y-78105012D01*
X148121196Y-78089466D01*
X148099585Y-78077915D01*
X148076136Y-78070802D01*
X148051750Y-78068400D01*
X144824000Y-78068400D01*
X144824000Y-76668400D01*
X148031750Y-76668400D01*
X148056136Y-76665998D01*
X148079585Y-76658885D01*
X148101196Y-76647334D01*
X148120138Y-76631788D01*
X148140759Y-76611167D01*
X148298321Y-76505887D01*
X148298322Y-76505886D01*
X148473395Y-76433369D01*
X148473394Y-76433369D01*
X148473397Y-76433368D01*
X148659250Y-76396400D01*
X148848750Y-76396400D01*
X149034603Y-76433368D01*
X149034603Y-76433368D01*
G37*
G36*
X139674603Y-73913368D02*
X139674606Y-73913369D01*
X139674605Y-73913369D01*
X139849678Y-73985886D01*
X139849679Y-73985887D01*
X140007241Y-74091167D01*
X140007862Y-74091788D01*
X140026804Y-74107334D01*
X140048415Y-74118885D01*
X140071864Y-74125998D01*
X140096250Y-74128400D01*
X143324000Y-74128400D01*
X143324000Y-75528400D01*
X140116250Y-75528400D01*
X140091864Y-75530802D01*
X140068415Y-75537915D01*
X140046804Y-75549466D01*
X140027862Y-75565012D01*
X140007241Y-75585633D01*
X139927923Y-75638632D01*
X139849678Y-75690914D01*
X139714266Y-75747003D01*
X139674603Y-75763432D01*
X139488750Y-75800400D01*
X139299250Y-75800400D01*
X139113397Y-75763432D01*
X139073734Y-75747003D01*
X138938322Y-75690914D01*
X138860077Y-75638632D01*
X138780759Y-75585633D01*
X138646767Y-75451641D01*
X138541487Y-75294079D01*
X138541486Y-75294078D01*
X138468969Y-75119005D01*
X138468968Y-75119003D01*
X138432000Y-74933150D01*
X138432000Y-74743650D01*
X138468968Y-74557797D01*
X138485397Y-74518134D01*
X138541486Y-74382722D01*
X138646766Y-74225161D01*
X138646767Y-74225159D01*
X138780759Y-74091167D01*
X138938321Y-73985887D01*
X138938322Y-73985886D01*
X139113395Y-73913369D01*
X139113394Y-73913369D01*
X139113397Y-73913368D01*
X139299250Y-73876400D01*
X139488750Y-73876400D01*
X139674603Y-73913368D01*
X139674603Y-73913368D01*
G37*
G36*
X149034603Y-73913368D02*
X149034606Y-73913369D01*
X149034605Y-73913369D01*
X149209678Y-73985886D01*
X149209679Y-73985887D01*
X149367241Y-74091167D01*
X149501233Y-74225159D01*
X149501234Y-74225161D01*
X149606514Y-74382722D01*
X149662603Y-74518134D01*
X149679032Y-74557797D01*
X149716000Y-74743650D01*
X149716000Y-74933150D01*
X149679032Y-75119003D01*
X149679031Y-75119005D01*
X149606514Y-75294078D01*
X149606513Y-75294079D01*
X149501233Y-75451641D01*
X149367241Y-75585633D01*
X149287923Y-75638632D01*
X149209678Y-75690914D01*
X149074266Y-75747003D01*
X149034603Y-75763432D01*
X148848750Y-75800400D01*
X148659250Y-75800400D01*
X148473397Y-75763432D01*
X148433734Y-75747003D01*
X148298322Y-75690914D01*
X148220077Y-75638632D01*
X148140759Y-75585633D01*
X148120138Y-75565012D01*
X148101196Y-75549466D01*
X148079585Y-75537915D01*
X148056136Y-75530802D01*
X148031750Y-75528400D01*
X144824000Y-75528400D01*
X144824000Y-74128400D01*
X148051750Y-74128400D01*
X148076136Y-74125998D01*
X148099585Y-74118885D01*
X148121196Y-74107334D01*
X148140138Y-74091788D01*
X148140759Y-74091167D01*
X148298321Y-73985887D01*
X148298322Y-73985886D01*
X148473395Y-73913369D01*
X148473394Y-73913369D01*
X148473397Y-73913368D01*
X148659250Y-73876400D01*
X148848750Y-73876400D01*
X149034603Y-73913368D01*
X149034603Y-73913368D01*
G37*
G36*
X149034603Y-71353368D02*
X149034606Y-71353369D01*
X149034605Y-71353369D01*
X149209678Y-71425886D01*
X149209679Y-71425887D01*
X149367241Y-71531167D01*
X149501233Y-71665159D01*
X149501234Y-71665161D01*
X149606514Y-71822722D01*
X149662603Y-71958134D01*
X149679032Y-71997797D01*
X149716000Y-72183650D01*
X149716000Y-72373150D01*
X149679032Y-72559003D01*
X149679031Y-72559005D01*
X149606514Y-72734078D01*
X149606513Y-72734079D01*
X149501233Y-72891641D01*
X149367241Y-73025633D01*
X149287923Y-73078632D01*
X149209678Y-73130914D01*
X149074266Y-73187003D01*
X149034603Y-73203432D01*
X148848750Y-73240400D01*
X148659250Y-73240400D01*
X148473397Y-73203432D01*
X148433734Y-73187003D01*
X148298322Y-73130914D01*
X148220077Y-73078632D01*
X148140759Y-73025633D01*
X148140138Y-73025012D01*
X148121196Y-73009466D01*
X148099585Y-72997915D01*
X148076136Y-72990802D01*
X148051750Y-72988400D01*
X144824000Y-72988400D01*
X144824000Y-71588400D01*
X148031750Y-71588400D01*
X148056136Y-71585998D01*
X148079585Y-71578885D01*
X148101196Y-71567334D01*
X148120138Y-71551788D01*
X148140759Y-71531167D01*
X148298321Y-71425887D01*
X148298322Y-71425886D01*
X148473395Y-71353369D01*
X148473394Y-71353369D01*
X148473397Y-71353368D01*
X148659250Y-71316400D01*
X148848750Y-71316400D01*
X149034603Y-71353368D01*
X149034603Y-71353368D01*
G37*
G36*
X139674603Y-71343368D02*
X139714266Y-71359797D01*
X139849678Y-71415886D01*
X139864645Y-71425887D01*
X140007241Y-71521167D01*
X140037862Y-71551788D01*
X140056804Y-71567334D01*
X140078415Y-71578885D01*
X140101864Y-71585998D01*
X140126250Y-71588400D01*
X143324000Y-71588400D01*
X143324000Y-72988400D01*
X140085916Y-72988400D01*
X140061530Y-72990802D01*
X140038081Y-72997915D01*
X140016469Y-73009466D01*
X140007241Y-73015632D01*
X140007239Y-73015634D01*
X139849678Y-73120914D01*
X139704642Y-73180989D01*
X139674603Y-73193432D01*
X139488750Y-73230400D01*
X139299250Y-73230400D01*
X139113397Y-73193432D01*
X139073734Y-73177003D01*
X138938322Y-73120914D01*
X138860077Y-73068632D01*
X138780759Y-73015633D01*
X138646767Y-72881641D01*
X138541487Y-72724079D01*
X138541486Y-72724078D01*
X138468969Y-72549005D01*
X138468968Y-72549003D01*
X138432000Y-72363150D01*
X138432000Y-72173650D01*
X138468968Y-71987797D01*
X138537344Y-71822722D01*
X138541486Y-71812722D01*
X138646766Y-71655161D01*
X138646767Y-71655159D01*
X138780759Y-71521167D01*
X138923355Y-71425887D01*
X138938322Y-71415886D01*
X139073734Y-71359797D01*
X139113397Y-71343368D01*
X139299250Y-71306400D01*
X139488750Y-71306400D01*
X139674603Y-71343368D01*
X139674603Y-71343368D01*
G37*
G36*
X139674603Y-68833368D02*
X139674606Y-68833369D01*
X139674605Y-68833369D01*
X139849678Y-68905886D01*
X139849679Y-68905887D01*
X140007241Y-69011167D01*
X140007862Y-69011788D01*
X140026804Y-69027334D01*
X140048415Y-69038885D01*
X140071864Y-69045998D01*
X140096250Y-69048400D01*
X143324000Y-69048400D01*
X143324000Y-70448400D01*
X140116250Y-70448400D01*
X140091864Y-70450802D01*
X140068415Y-70457915D01*
X140046804Y-70469466D01*
X140027862Y-70485012D01*
X140007241Y-70505633D01*
X139927923Y-70558632D01*
X139849678Y-70610914D01*
X139714266Y-70667003D01*
X139674603Y-70683432D01*
X139488750Y-70720400D01*
X139299250Y-70720400D01*
X139113397Y-70683432D01*
X139073734Y-70667003D01*
X138938322Y-70610914D01*
X138860077Y-70558632D01*
X138780759Y-70505633D01*
X138646767Y-70371641D01*
X138541487Y-70214079D01*
X138541486Y-70214078D01*
X138468969Y-70039005D01*
X138468968Y-70039003D01*
X138432000Y-69853150D01*
X138432000Y-69663650D01*
X138468968Y-69477797D01*
X138485397Y-69438134D01*
X138541486Y-69302722D01*
X138646766Y-69145161D01*
X138646767Y-69145159D01*
X138780759Y-69011167D01*
X138938321Y-68905887D01*
X138938322Y-68905886D01*
X139113395Y-68833369D01*
X139113394Y-68833369D01*
X139113397Y-68833368D01*
X139299250Y-68796400D01*
X139488750Y-68796400D01*
X139674603Y-68833368D01*
X139674603Y-68833368D01*
G37*
G36*
X149034603Y-68823368D02*
X149074266Y-68839797D01*
X149209678Y-68895886D01*
X149224645Y-68905887D01*
X149367241Y-69001167D01*
X149501233Y-69135159D01*
X149501234Y-69135161D01*
X149606514Y-69292722D01*
X149610656Y-69302722D01*
X149679032Y-69467797D01*
X149716000Y-69653650D01*
X149716000Y-69843150D01*
X149679032Y-70029003D01*
X149679031Y-70029005D01*
X149606514Y-70204078D01*
X149606513Y-70204079D01*
X149501233Y-70361641D01*
X149367241Y-70495633D01*
X149287923Y-70548632D01*
X149209678Y-70600914D01*
X149074266Y-70657003D01*
X149034603Y-70673432D01*
X148848750Y-70710400D01*
X148659250Y-70710400D01*
X148473397Y-70673432D01*
X148433734Y-70657003D01*
X148298322Y-70600914D01*
X148220077Y-70548632D01*
X148140759Y-70495633D01*
X148130138Y-70485012D01*
X148111196Y-70469466D01*
X148089585Y-70457915D01*
X148066136Y-70450802D01*
X148041750Y-70448400D01*
X144824000Y-70448400D01*
X144824000Y-69048400D01*
X148041750Y-69048400D01*
X148066136Y-69045998D01*
X148089585Y-69038885D01*
X148111196Y-69027334D01*
X148130138Y-69011788D01*
X148140759Y-69001167D01*
X148283355Y-68905887D01*
X148298322Y-68895886D01*
X148433734Y-68839797D01*
X148473397Y-68823368D01*
X148659250Y-68786400D01*
X148848750Y-68786400D01*
X149034603Y-68823368D01*
X149034603Y-68823368D01*
G37*
G36*
X149034603Y-66273368D02*
X149034606Y-66273369D01*
X149034605Y-66273369D01*
X149209678Y-66345886D01*
X149209679Y-66345887D01*
X149367241Y-66451167D01*
X149501233Y-66585159D01*
X149501234Y-66585161D01*
X149606514Y-66742722D01*
X149662603Y-66878134D01*
X149679032Y-66917797D01*
X149716000Y-67103650D01*
X149716000Y-67293150D01*
X149679032Y-67479003D01*
X149679031Y-67479005D01*
X149606514Y-67654078D01*
X149606513Y-67654079D01*
X149501233Y-67811641D01*
X149367241Y-67945633D01*
X149287923Y-67998632D01*
X149209678Y-68050914D01*
X149082890Y-68103431D01*
X149034603Y-68123432D01*
X148848750Y-68160400D01*
X148659250Y-68160400D01*
X148473397Y-68123432D01*
X148425110Y-68103431D01*
X148298322Y-68050914D01*
X148220077Y-67998632D01*
X148140759Y-67945633D01*
X148140138Y-67945012D01*
X148121196Y-67929466D01*
X148099585Y-67917915D01*
X148076136Y-67910802D01*
X148051750Y-67908400D01*
X144824000Y-67908400D01*
X144824000Y-66508400D01*
X148031750Y-66508400D01*
X148056136Y-66505998D01*
X148079585Y-66498885D01*
X148101196Y-66487334D01*
X148120138Y-66471788D01*
X148140759Y-66451167D01*
X148298321Y-66345887D01*
X148298322Y-66345886D01*
X148473395Y-66273369D01*
X148473394Y-66273369D01*
X148473397Y-66273368D01*
X148659250Y-66236400D01*
X148848750Y-66236400D01*
X149034603Y-66273368D01*
X149034603Y-66273368D01*
G37*
G36*
X139674603Y-66253368D02*
X139674606Y-66253369D01*
X139674605Y-66253369D01*
X139849678Y-66325886D01*
X139879611Y-66345887D01*
X140007241Y-66431167D01*
X140047862Y-66471788D01*
X140066804Y-66487334D01*
X140088415Y-66498885D01*
X140111864Y-66505998D01*
X140136250Y-66508400D01*
X143324000Y-66508400D01*
X143324000Y-67908400D01*
X140070950Y-67908400D01*
X140046564Y-67910802D01*
X140023115Y-67917915D01*
X140001508Y-67929463D01*
X139849678Y-68030914D01*
X139704642Y-68090989D01*
X139674603Y-68103432D01*
X139488750Y-68140400D01*
X139299250Y-68140400D01*
X139113397Y-68103432D01*
X139073734Y-68087003D01*
X138938322Y-68030914D01*
X138860077Y-67978632D01*
X138780759Y-67925633D01*
X138646767Y-67791641D01*
X138593768Y-67712323D01*
X138541486Y-67634078D01*
X138468969Y-67459005D01*
X138468968Y-67459003D01*
X138432000Y-67273150D01*
X138432000Y-67083650D01*
X138468968Y-66897797D01*
X138533202Y-66742722D01*
X138541486Y-66722722D01*
X138633402Y-66585161D01*
X138646767Y-66565159D01*
X138780759Y-66431167D01*
X138908389Y-66345887D01*
X138938322Y-66325886D01*
X139113395Y-66253369D01*
X139113394Y-66253369D01*
X139113397Y-66253368D01*
X139299250Y-66216400D01*
X139488750Y-66216400D01*
X139674603Y-66253368D01*
X139674603Y-66253368D01*
G37*
G36*
X149034603Y-63733368D02*
X149034606Y-63733369D01*
X149034605Y-63733369D01*
X149209678Y-63805886D01*
X149209679Y-63805887D01*
X149367241Y-63911167D01*
X149501233Y-64045159D01*
X149501234Y-64045161D01*
X149606514Y-64202722D01*
X149662603Y-64338134D01*
X149679032Y-64377797D01*
X149716000Y-64563650D01*
X149716000Y-64753150D01*
X149679032Y-64939003D01*
X149679031Y-64939005D01*
X149606514Y-65114078D01*
X149606513Y-65114079D01*
X149501233Y-65271641D01*
X149367241Y-65405633D01*
X149287923Y-65458632D01*
X149209678Y-65510914D01*
X149074266Y-65567003D01*
X149034603Y-65583432D01*
X148848750Y-65620400D01*
X148659250Y-65620400D01*
X148473397Y-65583432D01*
X148433734Y-65567003D01*
X148298322Y-65510914D01*
X148220077Y-65458632D01*
X148140759Y-65405633D01*
X148140138Y-65405012D01*
X148121196Y-65389466D01*
X148099585Y-65377915D01*
X148076136Y-65370802D01*
X148051750Y-65368400D01*
X144824000Y-65368400D01*
X144824000Y-63968400D01*
X148031750Y-63968400D01*
X148056136Y-63965998D01*
X148079585Y-63958885D01*
X148101196Y-63947334D01*
X148120138Y-63931788D01*
X148140759Y-63911167D01*
X148298321Y-63805887D01*
X148298322Y-63805886D01*
X148473395Y-63733369D01*
X148473394Y-63733369D01*
X148473397Y-63733368D01*
X148659250Y-63696400D01*
X148848750Y-63696400D01*
X149034603Y-63733368D01*
X149034603Y-63733368D01*
G37*
G36*
X139674603Y-63723368D02*
X139714266Y-63739797D01*
X139849678Y-63795886D01*
X139864645Y-63805887D01*
X140007241Y-63901167D01*
X140037862Y-63931788D01*
X140056804Y-63947334D01*
X140078415Y-63958885D01*
X140101864Y-63965998D01*
X140126250Y-63968400D01*
X143324000Y-63968400D01*
X143324000Y-65368400D01*
X140085916Y-65368400D01*
X140061530Y-65370802D01*
X140038081Y-65377915D01*
X140016469Y-65389466D01*
X140007241Y-65395632D01*
X140007239Y-65395634D01*
X139849678Y-65500914D01*
X139704642Y-65560989D01*
X139674603Y-65573432D01*
X139488750Y-65610400D01*
X139299250Y-65610400D01*
X139113397Y-65573432D01*
X139073734Y-65557003D01*
X138938322Y-65500914D01*
X138860077Y-65448632D01*
X138780759Y-65395633D01*
X138646767Y-65261641D01*
X138541487Y-65104079D01*
X138541486Y-65104078D01*
X138468969Y-64929005D01*
X138468968Y-64929003D01*
X138432000Y-64743150D01*
X138432000Y-64553650D01*
X138468968Y-64367797D01*
X138537344Y-64202722D01*
X138541486Y-64192722D01*
X138646766Y-64035161D01*
X138646767Y-64035159D01*
X138780759Y-63901167D01*
X138923355Y-63805887D01*
X138938322Y-63795886D01*
X139073734Y-63739797D01*
X139113397Y-63723368D01*
X139299250Y-63686400D01*
X139488750Y-63686400D01*
X139674603Y-63723368D01*
X139674603Y-63723368D01*
G37*
G36*
X139519888Y-61092870D02*
X139700274Y-61128750D01*
X139891362Y-61207902D01*
X140063336Y-61322811D01*
X140132313Y-61391788D01*
X140151255Y-61407334D01*
X140172866Y-61418885D01*
X140196315Y-61425998D01*
X140220701Y-61428400D01*
X143324000Y-61428400D01*
X143324000Y-62828400D01*
X140240701Y-62828400D01*
X140216315Y-62830802D01*
X140192866Y-62837915D01*
X140171255Y-62849466D01*
X140152313Y-62865012D01*
X140063336Y-62953989D01*
X139891362Y-63068898D01*
X139700274Y-63148050D01*
X139519888Y-63183930D01*
X139497417Y-63188400D01*
X139290583Y-63188400D01*
X139268112Y-63183930D01*
X139087726Y-63148050D01*
X138896638Y-63068898D01*
X138724664Y-62953989D01*
X138578411Y-62807736D01*
X138463502Y-62635762D01*
X138384350Y-62444674D01*
X138344000Y-62241816D01*
X138344000Y-62034984D01*
X138384350Y-61832126D01*
X138463502Y-61641038D01*
X138578411Y-61469064D01*
X138724664Y-61322811D01*
X138896638Y-61207902D01*
X139087726Y-61128750D01*
X139268112Y-61092870D01*
X139290583Y-61088400D01*
X139497417Y-61088400D01*
X139519888Y-61092870D01*
X139519888Y-61092870D01*
G37*
G36*
X148879888Y-61092870D02*
X149060274Y-61128750D01*
X149251362Y-61207902D01*
X149423336Y-61322811D01*
X149569589Y-61469064D01*
X149684498Y-61641038D01*
X149763650Y-61832126D01*
X149804000Y-62034984D01*
X149804000Y-62241816D01*
X149763650Y-62444674D01*
X149684498Y-62635762D01*
X149569589Y-62807736D01*
X149423336Y-62953989D01*
X149251362Y-63068898D01*
X149060274Y-63148050D01*
X148879888Y-63183930D01*
X148857417Y-63188400D01*
X148650583Y-63188400D01*
X148628112Y-63183930D01*
X148447726Y-63148050D01*
X148256638Y-63068898D01*
X148084664Y-62953989D01*
X147995687Y-62865012D01*
X147976745Y-62849466D01*
X147955134Y-62837915D01*
X147931685Y-62830802D01*
X147907299Y-62828400D01*
X144824000Y-62828400D01*
X144824000Y-61428400D01*
X147927299Y-61428400D01*
X147951685Y-61425998D01*
X147975134Y-61418885D01*
X147996745Y-61407334D01*
X148015687Y-61391788D01*
X148084664Y-61322811D01*
X148256638Y-61207902D01*
X148447726Y-61128750D01*
X148628112Y-61092870D01*
X148650583Y-61088400D01*
X148857417Y-61088400D01*
X148879888Y-61092870D01*
X148879888Y-61092870D01*
G37*
G36*
X144204577Y-60221639D02*
X144263598Y-60233379D01*
X144298245Y-60247730D01*
X144381890Y-60282377D01*
X144488354Y-60353514D01*
X144578886Y-60444046D01*
X144595066Y-60468261D01*
X144600656Y-60475073D01*
X144604811Y-60482846D01*
X144650023Y-60550511D01*
X144699021Y-60668803D01*
X144724000Y-60794379D01*
X144724000Y-60922421D01*
X144699021Y-61047997D01*
X144650023Y-61166289D01*
X144604811Y-61233954D01*
X144600656Y-61241728D01*
X144595066Y-61248539D01*
X144578886Y-61272754D01*
X144488354Y-61363286D01*
X144381890Y-61434423D01*
X144298266Y-61469061D01*
X144263598Y-61483421D01*
X144221738Y-61491747D01*
X144138021Y-61508400D01*
X144009979Y-61508400D01*
X143926262Y-61491747D01*
X143884402Y-61483421D01*
X143849734Y-61469061D01*
X143766110Y-61434423D01*
X143659646Y-61363286D01*
X143569114Y-61272754D01*
X143552934Y-61248539D01*
X143547344Y-61241727D01*
X143543189Y-61233954D01*
X143497977Y-61166289D01*
X143448979Y-61047997D01*
X143424000Y-60922421D01*
X143424000Y-60794379D01*
X143448979Y-60668803D01*
X143497977Y-60550511D01*
X143543189Y-60482846D01*
X143547344Y-60475072D01*
X143552934Y-60468261D01*
X143569114Y-60444046D01*
X143659646Y-60353514D01*
X143766110Y-60282377D01*
X143849755Y-60247730D01*
X143884402Y-60233379D01*
X143943423Y-60221639D01*
X144009979Y-60208400D01*
X144138021Y-60208400D01*
X144204577Y-60221639D01*
X144204577Y-60221639D01*
G37*
G36*
X149034603Y-58683368D02*
X149034606Y-58683369D01*
X149034605Y-58683369D01*
X149209678Y-58755886D01*
X149209679Y-58755887D01*
X149367241Y-58861167D01*
X149501233Y-58995159D01*
X149501234Y-58995161D01*
X149606514Y-59152722D01*
X149662603Y-59288134D01*
X149679032Y-59327797D01*
X149716000Y-59513650D01*
X149716000Y-59703150D01*
X149679032Y-59889003D01*
X149679031Y-59889005D01*
X149606514Y-60064078D01*
X149606513Y-60064079D01*
X149501233Y-60221641D01*
X149367241Y-60355633D01*
X149287923Y-60408632D01*
X149209678Y-60460914D01*
X149074266Y-60517003D01*
X149034603Y-60533432D01*
X148848750Y-60570400D01*
X148659250Y-60570400D01*
X148473397Y-60533432D01*
X148433734Y-60517003D01*
X148298322Y-60460914D01*
X148220077Y-60408632D01*
X148140759Y-60355633D01*
X148110138Y-60325012D01*
X148091196Y-60309466D01*
X148069585Y-60297915D01*
X148046136Y-60290802D01*
X148021750Y-60288400D01*
X144824000Y-60288400D01*
X144824000Y-58888400D01*
X148062084Y-58888400D01*
X148086470Y-58885998D01*
X148109919Y-58878885D01*
X148131531Y-58867334D01*
X148140759Y-58861168D01*
X148140761Y-58861166D01*
X148298322Y-58755886D01*
X148473395Y-58683369D01*
X148473394Y-58683369D01*
X148473397Y-58683368D01*
X148659250Y-58646400D01*
X148848750Y-58646400D01*
X149034603Y-58683368D01*
X149034603Y-58683368D01*
G37*
G36*
X139674603Y-58653368D02*
X139674606Y-58653369D01*
X139674605Y-58653369D01*
X139849678Y-58725886D01*
X139894577Y-58755887D01*
X140007241Y-58831167D01*
X140027862Y-58851788D01*
X140046804Y-58867334D01*
X140068415Y-58878885D01*
X140091864Y-58885998D01*
X140116250Y-58888400D01*
X143324000Y-58888400D01*
X143324000Y-60288400D01*
X140096250Y-60288400D01*
X140071864Y-60290802D01*
X140048415Y-60297915D01*
X140026804Y-60309466D01*
X140007862Y-60325012D01*
X140007241Y-60325633D01*
X139927923Y-60378632D01*
X139849678Y-60430914D01*
X139743070Y-60475072D01*
X139674603Y-60503432D01*
X139488750Y-60540400D01*
X139299250Y-60540400D01*
X139113397Y-60503432D01*
X139044930Y-60475072D01*
X138938322Y-60430914D01*
X138860077Y-60378632D01*
X138780759Y-60325633D01*
X138646767Y-60191641D01*
X138541487Y-60034079D01*
X138541486Y-60034078D01*
X138468969Y-59859005D01*
X138468968Y-59859003D01*
X138432000Y-59673150D01*
X138432000Y-59483650D01*
X138468968Y-59297797D01*
X138529060Y-59152722D01*
X138541486Y-59122722D01*
X138626722Y-58995159D01*
X138646767Y-58965159D01*
X138780759Y-58831167D01*
X138893423Y-58755887D01*
X138938322Y-58725886D01*
X139113395Y-58653369D01*
X139113394Y-58653369D01*
X139113397Y-58653368D01*
X139299250Y-58616400D01*
X139488750Y-58616400D01*
X139674603Y-58653368D01*
X139674603Y-58653368D01*
G37*
G36*
X144221738Y-57685053D02*
X144263598Y-57693379D01*
X144298245Y-57707730D01*
X144381890Y-57742377D01*
X144488354Y-57813514D01*
X144578886Y-57904046D01*
X144595066Y-57928261D01*
X144600656Y-57935073D01*
X144604811Y-57942846D01*
X144650023Y-58010511D01*
X144699021Y-58128803D01*
X144724000Y-58254379D01*
X144724000Y-58382421D01*
X144699021Y-58507997D01*
X144650023Y-58626289D01*
X144604811Y-58693954D01*
X144600656Y-58701728D01*
X144595066Y-58708539D01*
X144578886Y-58732754D01*
X144488354Y-58823286D01*
X144381890Y-58894423D01*
X144298245Y-58929070D01*
X144263598Y-58943421D01*
X144221738Y-58951747D01*
X144138021Y-58968400D01*
X144009979Y-58968400D01*
X143926262Y-58951747D01*
X143884402Y-58943421D01*
X143849755Y-58929070D01*
X143766110Y-58894423D01*
X143659646Y-58823286D01*
X143569114Y-58732754D01*
X143552934Y-58708539D01*
X143547344Y-58701727D01*
X143543189Y-58693954D01*
X143497977Y-58626289D01*
X143448979Y-58507997D01*
X143424000Y-58382421D01*
X143424000Y-58254379D01*
X143448979Y-58128803D01*
X143497977Y-58010511D01*
X143543189Y-57942846D01*
X143547344Y-57935072D01*
X143552934Y-57928261D01*
X143569114Y-57904046D01*
X143659646Y-57813514D01*
X143766110Y-57742377D01*
X143849755Y-57707730D01*
X143884402Y-57693379D01*
X143926262Y-57685053D01*
X144009979Y-57668400D01*
X144138021Y-57668400D01*
X144221738Y-57685053D01*
X144221738Y-57685053D01*
G37*
G36*
X149034603Y-56123368D02*
X149034606Y-56123369D01*
X149034605Y-56123369D01*
X149209678Y-56195886D01*
X149209679Y-56195887D01*
X149367241Y-56301167D01*
X149501233Y-56435159D01*
X149501234Y-56435161D01*
X149606514Y-56592722D01*
X149662603Y-56728134D01*
X149679032Y-56767797D01*
X149716000Y-56953650D01*
X149716000Y-57143150D01*
X149679032Y-57329003D01*
X149679031Y-57329005D01*
X149606514Y-57504078D01*
X149606513Y-57504079D01*
X149501233Y-57661641D01*
X149367241Y-57795633D01*
X149340483Y-57813512D01*
X149209678Y-57900914D01*
X149127210Y-57935073D01*
X149034603Y-57973432D01*
X148848750Y-58010400D01*
X148659250Y-58010400D01*
X148473397Y-57973432D01*
X148380790Y-57935073D01*
X148298322Y-57900914D01*
X148167517Y-57813512D01*
X148140759Y-57795633D01*
X148130138Y-57785012D01*
X148111196Y-57769466D01*
X148089585Y-57757915D01*
X148066136Y-57750802D01*
X148041750Y-57748400D01*
X144824000Y-57748400D01*
X144824000Y-56348400D01*
X148041750Y-56348400D01*
X148066136Y-56345998D01*
X148089585Y-56338885D01*
X148111196Y-56327334D01*
X148130138Y-56311788D01*
X148140759Y-56301167D01*
X148298321Y-56195887D01*
X148298322Y-56195886D01*
X148473395Y-56123369D01*
X148473394Y-56123369D01*
X148473397Y-56123368D01*
X148659250Y-56086400D01*
X148848750Y-56086400D01*
X149034603Y-56123368D01*
X149034603Y-56123368D01*
G37*
G36*
X139674603Y-56123368D02*
X139674606Y-56123369D01*
X139674605Y-56123369D01*
X139849678Y-56195886D01*
X139849679Y-56195887D01*
X140007241Y-56301167D01*
X140017862Y-56311788D01*
X140036804Y-56327334D01*
X140058415Y-56338885D01*
X140081864Y-56345998D01*
X140106250Y-56348400D01*
X143324000Y-56348400D01*
X143324000Y-57748400D01*
X140106250Y-57748400D01*
X140081864Y-57750802D01*
X140058415Y-57757915D01*
X140036804Y-57769466D01*
X140017862Y-57785012D01*
X140007241Y-57795633D01*
X139980483Y-57813512D01*
X139849678Y-57900914D01*
X139767210Y-57935073D01*
X139674603Y-57973432D01*
X139488750Y-58010400D01*
X139299250Y-58010400D01*
X139113397Y-57973432D01*
X139020790Y-57935073D01*
X138938322Y-57900914D01*
X138807517Y-57813512D01*
X138780759Y-57795633D01*
X138646767Y-57661641D01*
X138541487Y-57504079D01*
X138541486Y-57504078D01*
X138468969Y-57329005D01*
X138468968Y-57329003D01*
X138432000Y-57143150D01*
X138432000Y-56953650D01*
X138468968Y-56767797D01*
X138485397Y-56728134D01*
X138541486Y-56592722D01*
X138646766Y-56435161D01*
X138646767Y-56435159D01*
X138780759Y-56301167D01*
X138938321Y-56195887D01*
X138938322Y-56195886D01*
X139113395Y-56123369D01*
X139113394Y-56123369D01*
X139113397Y-56123368D01*
X139299250Y-56086400D01*
X139488750Y-56086400D01*
X139674603Y-56123368D01*
X139674603Y-56123368D01*
G37*
G36*
X163933707Y-55027596D02*
X164010836Y-55035193D01*
X164142787Y-55075220D01*
X164208763Y-55095233D01*
X164391172Y-55192733D01*
X164551054Y-55323946D01*
X164682267Y-55483828D01*
X164779767Y-55666237D01*
X164779767Y-55666238D01*
X164839807Y-55864164D01*
X164860080Y-56070000D01*
X164839807Y-56275836D01*
X164817795Y-56348400D01*
X164779767Y-56473763D01*
X164682267Y-56656172D01*
X164551054Y-56816054D01*
X164391172Y-56947267D01*
X164208763Y-57044767D01*
X164142787Y-57064780D01*
X164010836Y-57104807D01*
X163933707Y-57112404D01*
X163856580Y-57120000D01*
X163753420Y-57120000D01*
X163676293Y-57112404D01*
X163599164Y-57104807D01*
X163467213Y-57064780D01*
X163401237Y-57044767D01*
X163218828Y-56947267D01*
X163058946Y-56816054D01*
X162927733Y-56656172D01*
X162830233Y-56473763D01*
X162792205Y-56348400D01*
X162770193Y-56275836D01*
X162749920Y-56070000D01*
X162770193Y-55864164D01*
X162830233Y-55666238D01*
X162830233Y-55666237D01*
X162927733Y-55483828D01*
X163058946Y-55323946D01*
X163218828Y-55192733D01*
X163401237Y-55095233D01*
X163467213Y-55075220D01*
X163599164Y-55035193D01*
X163676293Y-55027596D01*
X163753420Y-55020000D01*
X163856580Y-55020000D01*
X163933707Y-55027596D01*
X163933707Y-55027596D01*
G37*
G36*
X161393707Y-55027596D02*
X161470836Y-55035193D01*
X161602787Y-55075220D01*
X161668763Y-55095233D01*
X161851172Y-55192733D01*
X162011054Y-55323946D01*
X162142267Y-55483828D01*
X162239767Y-55666237D01*
X162239767Y-55666238D01*
X162299807Y-55864164D01*
X162320080Y-56070000D01*
X162299807Y-56275836D01*
X162277795Y-56348400D01*
X162239767Y-56473763D01*
X162142267Y-56656172D01*
X162011054Y-56816054D01*
X161851172Y-56947267D01*
X161668763Y-57044767D01*
X161602787Y-57064780D01*
X161470836Y-57104807D01*
X161393707Y-57112404D01*
X161316580Y-57120000D01*
X161213420Y-57120000D01*
X161136293Y-57112404D01*
X161059164Y-57104807D01*
X160927213Y-57064780D01*
X160861237Y-57044767D01*
X160678828Y-56947267D01*
X160518946Y-56816054D01*
X160387733Y-56656172D01*
X160290233Y-56473763D01*
X160252205Y-56348400D01*
X160230193Y-56275836D01*
X160209920Y-56070000D01*
X160230193Y-55864164D01*
X160290233Y-55666238D01*
X160290233Y-55666237D01*
X160387733Y-55483828D01*
X160518946Y-55323946D01*
X160678828Y-55192733D01*
X160861237Y-55095233D01*
X160927213Y-55075220D01*
X161059164Y-55035193D01*
X161136293Y-55027596D01*
X161213420Y-55020000D01*
X161316580Y-55020000D01*
X161393707Y-55027596D01*
X161393707Y-55027596D01*
G37*
G36*
X156313707Y-55027596D02*
X156390836Y-55035193D01*
X156522787Y-55075220D01*
X156588763Y-55095233D01*
X156771172Y-55192733D01*
X156931054Y-55323946D01*
X157062267Y-55483828D01*
X157159767Y-55666237D01*
X157159767Y-55666238D01*
X157219807Y-55864164D01*
X157240080Y-56070000D01*
X157219807Y-56275836D01*
X157197795Y-56348400D01*
X157159767Y-56473763D01*
X157062267Y-56656172D01*
X156931054Y-56816054D01*
X156771172Y-56947267D01*
X156588763Y-57044767D01*
X156522787Y-57064780D01*
X156390836Y-57104807D01*
X156313707Y-57112404D01*
X156236580Y-57120000D01*
X156133420Y-57120000D01*
X156056293Y-57112404D01*
X155979164Y-57104807D01*
X155847213Y-57064780D01*
X155781237Y-57044767D01*
X155598828Y-56947267D01*
X155438946Y-56816054D01*
X155307733Y-56656172D01*
X155210233Y-56473763D01*
X155172205Y-56348400D01*
X155150193Y-56275836D01*
X155129920Y-56070000D01*
X155150193Y-55864164D01*
X155210233Y-55666238D01*
X155210233Y-55666237D01*
X155307733Y-55483828D01*
X155438946Y-55323946D01*
X155598828Y-55192733D01*
X155781237Y-55095233D01*
X155847213Y-55075220D01*
X155979164Y-55035193D01*
X156056293Y-55027596D01*
X156133420Y-55020000D01*
X156236580Y-55020000D01*
X156313707Y-55027596D01*
X156313707Y-55027596D01*
G37*
G36*
X158853707Y-55027596D02*
X158930836Y-55035193D01*
X159062787Y-55075220D01*
X159128763Y-55095233D01*
X159311172Y-55192733D01*
X159471054Y-55323946D01*
X159602267Y-55483828D01*
X159699767Y-55666237D01*
X159699767Y-55666238D01*
X159759807Y-55864164D01*
X159780080Y-56070000D01*
X159759807Y-56275836D01*
X159737795Y-56348400D01*
X159699767Y-56473763D01*
X159602267Y-56656172D01*
X159471054Y-56816054D01*
X159311172Y-56947267D01*
X159128763Y-57044767D01*
X159062787Y-57064780D01*
X158930836Y-57104807D01*
X158853707Y-57112404D01*
X158776580Y-57120000D01*
X158673420Y-57120000D01*
X158596293Y-57112404D01*
X158519164Y-57104807D01*
X158387213Y-57064780D01*
X158321237Y-57044767D01*
X158138828Y-56947267D01*
X157978946Y-56816054D01*
X157847733Y-56656172D01*
X157750233Y-56473763D01*
X157712205Y-56348400D01*
X157690193Y-56275836D01*
X157669920Y-56070000D01*
X157690193Y-55864164D01*
X157750233Y-55666238D01*
X157750233Y-55666237D01*
X157847733Y-55483828D01*
X157978946Y-55323946D01*
X158138828Y-55192733D01*
X158321237Y-55095233D01*
X158387213Y-55075220D01*
X158519164Y-55035193D01*
X158596293Y-55027596D01*
X158673420Y-55020000D01*
X158776580Y-55020000D01*
X158853707Y-55027596D01*
X158853707Y-55027596D01*
G37*
G36*
X182635000Y-57120000D02*
X180535000Y-57120000D01*
X180535000Y-55020000D01*
X182635000Y-55020000D01*
X182635000Y-57120000D01*
X182635000Y-57120000D01*
G37*
G36*
X176633707Y-55027596D02*
X176710836Y-55035193D01*
X176842787Y-55075220D01*
X176908763Y-55095233D01*
X177091172Y-55192733D01*
X177251054Y-55323946D01*
X177382267Y-55483828D01*
X177479767Y-55666237D01*
X177479767Y-55666238D01*
X177539807Y-55864164D01*
X177560080Y-56070000D01*
X177539807Y-56275836D01*
X177517795Y-56348400D01*
X177479767Y-56473763D01*
X177382267Y-56656172D01*
X177251054Y-56816054D01*
X177091172Y-56947267D01*
X176908763Y-57044767D01*
X176842787Y-57064780D01*
X176710836Y-57104807D01*
X176633707Y-57112404D01*
X176556580Y-57120000D01*
X176453420Y-57120000D01*
X176376293Y-57112404D01*
X176299164Y-57104807D01*
X176167213Y-57064780D01*
X176101237Y-57044767D01*
X175918828Y-56947267D01*
X175758946Y-56816054D01*
X175627733Y-56656172D01*
X175530233Y-56473763D01*
X175492205Y-56348400D01*
X175470193Y-56275836D01*
X175449920Y-56070000D01*
X175470193Y-55864164D01*
X175530233Y-55666238D01*
X175530233Y-55666237D01*
X175627733Y-55483828D01*
X175758946Y-55323946D01*
X175918828Y-55192733D01*
X176101237Y-55095233D01*
X176167213Y-55075220D01*
X176299164Y-55035193D01*
X176376293Y-55027596D01*
X176453420Y-55020000D01*
X176556580Y-55020000D01*
X176633707Y-55027596D01*
X176633707Y-55027596D01*
G37*
G36*
X174093707Y-55027596D02*
X174170836Y-55035193D01*
X174302787Y-55075220D01*
X174368763Y-55095233D01*
X174551172Y-55192733D01*
X174711054Y-55323946D01*
X174842267Y-55483828D01*
X174939767Y-55666237D01*
X174939767Y-55666238D01*
X174999807Y-55864164D01*
X175020080Y-56070000D01*
X174999807Y-56275836D01*
X174977795Y-56348400D01*
X174939767Y-56473763D01*
X174842267Y-56656172D01*
X174711054Y-56816054D01*
X174551172Y-56947267D01*
X174368763Y-57044767D01*
X174302787Y-57064780D01*
X174170836Y-57104807D01*
X174093707Y-57112404D01*
X174016580Y-57120000D01*
X173913420Y-57120000D01*
X173836293Y-57112404D01*
X173759164Y-57104807D01*
X173627213Y-57064780D01*
X173561237Y-57044767D01*
X173378828Y-56947267D01*
X173218946Y-56816054D01*
X173087733Y-56656172D01*
X172990233Y-56473763D01*
X172952205Y-56348400D01*
X172930193Y-56275836D01*
X172909920Y-56070000D01*
X172930193Y-55864164D01*
X172990233Y-55666238D01*
X172990233Y-55666237D01*
X173087733Y-55483828D01*
X173218946Y-55323946D01*
X173378828Y-55192733D01*
X173561237Y-55095233D01*
X173627213Y-55075220D01*
X173759164Y-55035193D01*
X173836293Y-55027596D01*
X173913420Y-55020000D01*
X174016580Y-55020000D01*
X174093707Y-55027596D01*
X174093707Y-55027596D01*
G37*
G36*
X169013707Y-55027596D02*
X169090836Y-55035193D01*
X169222787Y-55075220D01*
X169288763Y-55095233D01*
X169471172Y-55192733D01*
X169631054Y-55323946D01*
X169762267Y-55483828D01*
X169859767Y-55666237D01*
X169859767Y-55666238D01*
X169919807Y-55864164D01*
X169940080Y-56070000D01*
X169919807Y-56275836D01*
X169897795Y-56348400D01*
X169859767Y-56473763D01*
X169762267Y-56656172D01*
X169631054Y-56816054D01*
X169471172Y-56947267D01*
X169288763Y-57044767D01*
X169222787Y-57064780D01*
X169090836Y-57104807D01*
X169013707Y-57112404D01*
X168936580Y-57120000D01*
X168833420Y-57120000D01*
X168756293Y-57112404D01*
X168679164Y-57104807D01*
X168547213Y-57064780D01*
X168481237Y-57044767D01*
X168298828Y-56947267D01*
X168138946Y-56816054D01*
X168007733Y-56656172D01*
X167910233Y-56473763D01*
X167872205Y-56348400D01*
X167850193Y-56275836D01*
X167829920Y-56070000D01*
X167850193Y-55864164D01*
X167910233Y-55666238D01*
X167910233Y-55666237D01*
X168007733Y-55483828D01*
X168138946Y-55323946D01*
X168298828Y-55192733D01*
X168481237Y-55095233D01*
X168547213Y-55075220D01*
X168679164Y-55035193D01*
X168756293Y-55027596D01*
X168833420Y-55020000D01*
X168936580Y-55020000D01*
X169013707Y-55027596D01*
X169013707Y-55027596D01*
G37*
G36*
X166473707Y-55027596D02*
X166550836Y-55035193D01*
X166682787Y-55075220D01*
X166748763Y-55095233D01*
X166931172Y-55192733D01*
X167091054Y-55323946D01*
X167222267Y-55483828D01*
X167319767Y-55666237D01*
X167319767Y-55666238D01*
X167379807Y-55864164D01*
X167400080Y-56070000D01*
X167379807Y-56275836D01*
X167357795Y-56348400D01*
X167319767Y-56473763D01*
X167222267Y-56656172D01*
X167091054Y-56816054D01*
X166931172Y-56947267D01*
X166748763Y-57044767D01*
X166682787Y-57064780D01*
X166550836Y-57104807D01*
X166473707Y-57112404D01*
X166396580Y-57120000D01*
X166293420Y-57120000D01*
X166216293Y-57112404D01*
X166139164Y-57104807D01*
X166007213Y-57064780D01*
X165941237Y-57044767D01*
X165758828Y-56947267D01*
X165598946Y-56816054D01*
X165467733Y-56656172D01*
X165370233Y-56473763D01*
X165332205Y-56348400D01*
X165310193Y-56275836D01*
X165289920Y-56070000D01*
X165310193Y-55864164D01*
X165370233Y-55666238D01*
X165370233Y-55666237D01*
X165467733Y-55483828D01*
X165598946Y-55323946D01*
X165758828Y-55192733D01*
X165941237Y-55095233D01*
X166007213Y-55075220D01*
X166139164Y-55035193D01*
X166216293Y-55027596D01*
X166293420Y-55020000D01*
X166396580Y-55020000D01*
X166473707Y-55027596D01*
X166473707Y-55027596D01*
G37*
G36*
X171553707Y-55027596D02*
X171630836Y-55035193D01*
X171762787Y-55075220D01*
X171828763Y-55095233D01*
X172011172Y-55192733D01*
X172171054Y-55323946D01*
X172302267Y-55483828D01*
X172399767Y-55666237D01*
X172399767Y-55666238D01*
X172459807Y-55864164D01*
X172480080Y-56070000D01*
X172459807Y-56275836D01*
X172437795Y-56348400D01*
X172399767Y-56473763D01*
X172302267Y-56656172D01*
X172171054Y-56816054D01*
X172011172Y-56947267D01*
X171828763Y-57044767D01*
X171762787Y-57064780D01*
X171630836Y-57104807D01*
X171553707Y-57112404D01*
X171476580Y-57120000D01*
X171373420Y-57120000D01*
X171296293Y-57112404D01*
X171219164Y-57104807D01*
X171087213Y-57064780D01*
X171021237Y-57044767D01*
X170838828Y-56947267D01*
X170678946Y-56816054D01*
X170547733Y-56656172D01*
X170450233Y-56473763D01*
X170412205Y-56348400D01*
X170390193Y-56275836D01*
X170369920Y-56070000D01*
X170390193Y-55864164D01*
X170450233Y-55666238D01*
X170450233Y-55666237D01*
X170547733Y-55483828D01*
X170678946Y-55323946D01*
X170838828Y-55192733D01*
X171021237Y-55095233D01*
X171087213Y-55075220D01*
X171219164Y-55035193D01*
X171296293Y-55027596D01*
X171373420Y-55020000D01*
X171476580Y-55020000D01*
X171553707Y-55027596D01*
X171553707Y-55027596D01*
G37*
G36*
X179173707Y-55027596D02*
X179250836Y-55035193D01*
X179382787Y-55075220D01*
X179448763Y-55095233D01*
X179631172Y-55192733D01*
X179791054Y-55323946D01*
X179922267Y-55483828D01*
X180019767Y-55666237D01*
X180019767Y-55666238D01*
X180079807Y-55864164D01*
X180100080Y-56070000D01*
X180079807Y-56275836D01*
X180057795Y-56348400D01*
X180019767Y-56473763D01*
X179922267Y-56656172D01*
X179791054Y-56816054D01*
X179631172Y-56947267D01*
X179448763Y-57044767D01*
X179382787Y-57064780D01*
X179250836Y-57104807D01*
X179173707Y-57112404D01*
X179096580Y-57120000D01*
X178993420Y-57120000D01*
X178916293Y-57112404D01*
X178839164Y-57104807D01*
X178707213Y-57064780D01*
X178641237Y-57044767D01*
X178458828Y-56947267D01*
X178298946Y-56816054D01*
X178167733Y-56656172D01*
X178070233Y-56473763D01*
X178032205Y-56348400D01*
X178010193Y-56275836D01*
X177989920Y-56070000D01*
X178010193Y-55864164D01*
X178070233Y-55666238D01*
X178070233Y-55666237D01*
X178167733Y-55483828D01*
X178298946Y-55323946D01*
X178458828Y-55192733D01*
X178641237Y-55095233D01*
X178707213Y-55075220D01*
X178839164Y-55035193D01*
X178916293Y-55027596D01*
X178993420Y-55020000D01*
X179096580Y-55020000D01*
X179173707Y-55027596D01*
X179173707Y-55027596D01*
G37*
G36*
X103409122Y-51246115D02*
X103525041Y-51269173D01*
X103852620Y-51404861D01*
X104143511Y-51599228D01*
X104147436Y-51601851D01*
X104398149Y-51852564D01*
X104398151Y-51852567D01*
X104595139Y-52147380D01*
X104730827Y-52474959D01*
X104800000Y-52822716D01*
X104800000Y-53177284D01*
X104730827Y-53525041D01*
X104595139Y-53852620D01*
X104400772Y-54143511D01*
X104398149Y-54147436D01*
X104147436Y-54398149D01*
X104147433Y-54398151D01*
X103852620Y-54595139D01*
X103525041Y-54730827D01*
X103409122Y-54753885D01*
X103177286Y-54800000D01*
X102822714Y-54800000D01*
X102590878Y-54753885D01*
X102474959Y-54730827D01*
X102147380Y-54595139D01*
X101852567Y-54398151D01*
X101852564Y-54398149D01*
X101601851Y-54147436D01*
X101599228Y-54143511D01*
X101404861Y-53852620D01*
X101269173Y-53525041D01*
X101200000Y-53177284D01*
X101200000Y-52822716D01*
X101269173Y-52474959D01*
X101404861Y-52147380D01*
X101601849Y-51852567D01*
X101601851Y-51852564D01*
X101852564Y-51601851D01*
X101856489Y-51599228D01*
X102147380Y-51404861D01*
X102474959Y-51269173D01*
X102590878Y-51246115D01*
X102822714Y-51200000D01*
X103177286Y-51200000D01*
X103409122Y-51246115D01*
X103409122Y-51246115D01*
G37*
G36*
X147409122Y-51246115D02*
X147525041Y-51269173D01*
X147852620Y-51404861D01*
X148143511Y-51599228D01*
X148147436Y-51601851D01*
X148398149Y-51852564D01*
X148398151Y-51852567D01*
X148595139Y-52147380D01*
X148730827Y-52474959D01*
X148800000Y-52822716D01*
X148800000Y-53177284D01*
X148730827Y-53525041D01*
X148595139Y-53852620D01*
X148400772Y-54143511D01*
X148398149Y-54147436D01*
X148147436Y-54398149D01*
X148147433Y-54398151D01*
X147852620Y-54595139D01*
X147525041Y-54730827D01*
X147409122Y-54753885D01*
X147177286Y-54800000D01*
X146822714Y-54800000D01*
X146590878Y-54753885D01*
X146474959Y-54730827D01*
X146147380Y-54595139D01*
X145852567Y-54398151D01*
X145852564Y-54398149D01*
X145601851Y-54147436D01*
X145599228Y-54143511D01*
X145404861Y-53852620D01*
X145269173Y-53525041D01*
X145200000Y-53177284D01*
X145200000Y-52822716D01*
X145269173Y-52474959D01*
X145404861Y-52147380D01*
X145601849Y-51852567D01*
X145601851Y-51852564D01*
X145852564Y-51601851D01*
X145856489Y-51599228D01*
X146147380Y-51404861D01*
X146474959Y-51269173D01*
X146590878Y-51246115D01*
X146822714Y-51200000D01*
X147177286Y-51200000D01*
X147409122Y-51246115D01*
X147409122Y-51246115D01*
G37*
G36*
X197409122Y-51246115D02*
X197525041Y-51269173D01*
X197852620Y-51404861D01*
X198143511Y-51599228D01*
X198147436Y-51601851D01*
X198398149Y-51852564D01*
X198398151Y-51852567D01*
X198595139Y-52147380D01*
X198730827Y-52474959D01*
X198800000Y-52822716D01*
X198800000Y-53177284D01*
X198730827Y-53525041D01*
X198595139Y-53852620D01*
X198400772Y-54143511D01*
X198398149Y-54147436D01*
X198147436Y-54398149D01*
X198147433Y-54398151D01*
X197852620Y-54595139D01*
X197525041Y-54730827D01*
X197409122Y-54753885D01*
X197177286Y-54800000D01*
X196822714Y-54800000D01*
X196590878Y-54753885D01*
X196474959Y-54730827D01*
X196147380Y-54595139D01*
X195852567Y-54398151D01*
X195852564Y-54398149D01*
X195601851Y-54147436D01*
X195599228Y-54143511D01*
X195404861Y-53852620D01*
X195269173Y-53525041D01*
X195200000Y-53177284D01*
X195200000Y-52822716D01*
X195269173Y-52474959D01*
X195404861Y-52147380D01*
X195601849Y-51852567D01*
X195601851Y-51852564D01*
X195852564Y-51601851D01*
X195856489Y-51599228D01*
X196147380Y-51404861D01*
X196474959Y-51269173D01*
X196590878Y-51246115D01*
X196822714Y-51200000D01*
X197177286Y-51200000D01*
X197409122Y-51246115D01*
X197409122Y-51246115D01*
G37*
G36*
X107379196Y-51749958D02*
X107615780Y-51847954D01*
X107828705Y-51990226D01*
X108009774Y-52171295D01*
X108152046Y-52384220D01*
X108250042Y-52620804D01*
X108300000Y-52871960D01*
X108300000Y-53128040D01*
X108250042Y-53379196D01*
X108152046Y-53615780D01*
X108009774Y-53828705D01*
X107828705Y-54009774D01*
X107615780Y-54152046D01*
X107379196Y-54250042D01*
X107128040Y-54300000D01*
X106871960Y-54300000D01*
X106620804Y-54250042D01*
X106384220Y-54152046D01*
X106171295Y-54009774D01*
X105990226Y-53828705D01*
X105847954Y-53615780D01*
X105749958Y-53379196D01*
X105700000Y-53128040D01*
X105700000Y-52871960D01*
X105749958Y-52620804D01*
X105847954Y-52384220D01*
X105990226Y-52171295D01*
X106171295Y-51990226D01*
X106384220Y-51847954D01*
X106620804Y-51749958D01*
X106871960Y-51700000D01*
X107128040Y-51700000D01*
X107379196Y-51749958D01*
X107379196Y-51749958D01*
G37*
G36*
X143379196Y-51749958D02*
X143615780Y-51847954D01*
X143828705Y-51990226D01*
X144009774Y-52171295D01*
X144152046Y-52384220D01*
X144250042Y-52620804D01*
X144300000Y-52871960D01*
X144300000Y-53128040D01*
X144250042Y-53379196D01*
X144152046Y-53615780D01*
X144009774Y-53828705D01*
X143828705Y-54009774D01*
X143615780Y-54152046D01*
X143379196Y-54250042D01*
X143128040Y-54300000D01*
X142871960Y-54300000D01*
X142620804Y-54250042D01*
X142384220Y-54152046D01*
X142171295Y-54009774D01*
X141990226Y-53828705D01*
X141847954Y-53615780D01*
X141749958Y-53379196D01*
X141700000Y-53128040D01*
X141700000Y-52871960D01*
X141749958Y-52620804D01*
X141847954Y-52384220D01*
X141990226Y-52171295D01*
X142171295Y-51990226D01*
X142384220Y-51847954D01*
X142620804Y-51749958D01*
X142871960Y-51700000D01*
X143128040Y-51700000D01*
X143379196Y-51749958D01*
X143379196Y-51749958D01*
G37*
M02*
