G04 #@! TF.GenerationSoftware,KiCad,Pcbnew,5.0.2-bee76a0~70~ubuntu18.04.1*
G04 #@! TF.CreationDate,2019-05-05T14:27:43+09:00*
G04 #@! TF.ProjectId,M5StackSideBB,4d355374-6163-46b5-9369-646542422e6b,rev?*
G04 #@! TF.SameCoordinates,Original*
G04 #@! TF.FileFunction,Soldermask,Top*
G04 #@! TF.FilePolarity,Negative*
%FSLAX46Y46*%
G04 Gerber Fmt 4.6, Leading zero omitted, Abs format (unit mm)*
G04 Created by KiCad (PCBNEW 5.0.2-bee76a0~70~ubuntu18.04.1) date 2019年05月05日 14時27分43秒*
%MOMM*%
%LPD*%
G01*
G04 APERTURE LIST*
%ADD10C,0.100000*%
G04 APERTURE END LIST*
D10*
G36*
X197409122Y-95246115D02*
X197525041Y-95269173D01*
X197852620Y-95404861D01*
X198143511Y-95599228D01*
X198147436Y-95601851D01*
X198398149Y-95852564D01*
X198398151Y-95852567D01*
X198595139Y-96147380D01*
X198730827Y-96474959D01*
X198800000Y-96822716D01*
X198800000Y-97177284D01*
X198730827Y-97525041D01*
X198595139Y-97852620D01*
X198400772Y-98143511D01*
X198398149Y-98147436D01*
X198147436Y-98398149D01*
X198147433Y-98398151D01*
X197852620Y-98595139D01*
X197525041Y-98730827D01*
X197409122Y-98753885D01*
X197177286Y-98800000D01*
X196822714Y-98800000D01*
X196590878Y-98753885D01*
X196474959Y-98730827D01*
X196147380Y-98595139D01*
X195852567Y-98398151D01*
X195852564Y-98398149D01*
X195601851Y-98147436D01*
X195599228Y-98143511D01*
X195404861Y-97852620D01*
X195269173Y-97525041D01*
X195200000Y-97177284D01*
X195200000Y-96822716D01*
X195269173Y-96474959D01*
X195404861Y-96147380D01*
X195601849Y-95852567D01*
X195601851Y-95852564D01*
X195852564Y-95601851D01*
X195856489Y-95599228D01*
X196147380Y-95404861D01*
X196474959Y-95269173D01*
X196590878Y-95246115D01*
X196822714Y-95200000D01*
X197177286Y-95200000D01*
X197409122Y-95246115D01*
X197409122Y-95246115D01*
G37*
G36*
X147409122Y-95246115D02*
X147525041Y-95269173D01*
X147852620Y-95404861D01*
X148143511Y-95599228D01*
X148147436Y-95601851D01*
X148398149Y-95852564D01*
X148398151Y-95852567D01*
X148595139Y-96147380D01*
X148730827Y-96474959D01*
X148800000Y-96822716D01*
X148800000Y-97177284D01*
X148730827Y-97525041D01*
X148595139Y-97852620D01*
X148400772Y-98143511D01*
X148398149Y-98147436D01*
X148147436Y-98398149D01*
X148147433Y-98398151D01*
X147852620Y-98595139D01*
X147525041Y-98730827D01*
X147409122Y-98753885D01*
X147177286Y-98800000D01*
X146822714Y-98800000D01*
X146590878Y-98753885D01*
X146474959Y-98730827D01*
X146147380Y-98595139D01*
X145852567Y-98398151D01*
X145852564Y-98398149D01*
X145601851Y-98147436D01*
X145599228Y-98143511D01*
X145404861Y-97852620D01*
X145269173Y-97525041D01*
X145200000Y-97177284D01*
X145200000Y-96822716D01*
X145269173Y-96474959D01*
X145404861Y-96147380D01*
X145601849Y-95852567D01*
X145601851Y-95852564D01*
X145852564Y-95601851D01*
X145856489Y-95599228D01*
X146147380Y-95404861D01*
X146474959Y-95269173D01*
X146590878Y-95246115D01*
X146822714Y-95200000D01*
X147177286Y-95200000D01*
X147409122Y-95246115D01*
X147409122Y-95246115D01*
G37*
G36*
X103409122Y-95246115D02*
X103525041Y-95269173D01*
X103852620Y-95404861D01*
X104143511Y-95599228D01*
X104147436Y-95601851D01*
X104398149Y-95852564D01*
X104398151Y-95852567D01*
X104595139Y-96147380D01*
X104730827Y-96474959D01*
X104800000Y-96822716D01*
X104800000Y-97177284D01*
X104730827Y-97525041D01*
X104595139Y-97852620D01*
X104400772Y-98143511D01*
X104398149Y-98147436D01*
X104147436Y-98398149D01*
X104147433Y-98398151D01*
X103852620Y-98595139D01*
X103525041Y-98730827D01*
X103409122Y-98753885D01*
X103177286Y-98800000D01*
X102822714Y-98800000D01*
X102590878Y-98753885D01*
X102474959Y-98730827D01*
X102147380Y-98595139D01*
X101852567Y-98398151D01*
X101852564Y-98398149D01*
X101601851Y-98147436D01*
X101599228Y-98143511D01*
X101404861Y-97852620D01*
X101269173Y-97525041D01*
X101200000Y-97177284D01*
X101200000Y-96822716D01*
X101269173Y-96474959D01*
X101404861Y-96147380D01*
X101601849Y-95852567D01*
X101601851Y-95852564D01*
X101852564Y-95601851D01*
X101856489Y-95599228D01*
X102147380Y-95404861D01*
X102474959Y-95269173D01*
X102590878Y-95246115D01*
X102822714Y-95200000D01*
X103177286Y-95200000D01*
X103409122Y-95246115D01*
X103409122Y-95246115D01*
G37*
G36*
X143379196Y-95749958D02*
X143615780Y-95847954D01*
X143828705Y-95990226D01*
X144009774Y-96171295D01*
X144152046Y-96384220D01*
X144250042Y-96620804D01*
X144300000Y-96871960D01*
X144300000Y-97128040D01*
X144250042Y-97379196D01*
X144152046Y-97615780D01*
X144009774Y-97828705D01*
X143828705Y-98009774D01*
X143615780Y-98152046D01*
X143379196Y-98250042D01*
X143128040Y-98300000D01*
X142871960Y-98300000D01*
X142620804Y-98250042D01*
X142384220Y-98152046D01*
X142171295Y-98009774D01*
X141990226Y-97828705D01*
X141847954Y-97615780D01*
X141749958Y-97379196D01*
X141700000Y-97128040D01*
X141700000Y-96871960D01*
X141749958Y-96620804D01*
X141847954Y-96384220D01*
X141990226Y-96171295D01*
X142171295Y-95990226D01*
X142384220Y-95847954D01*
X142620804Y-95749958D01*
X142871960Y-95700000D01*
X143128040Y-95700000D01*
X143379196Y-95749958D01*
X143379196Y-95749958D01*
G37*
G36*
X107379196Y-95749958D02*
X107615780Y-95847954D01*
X107828705Y-95990226D01*
X108009774Y-96171295D01*
X108152046Y-96384220D01*
X108250042Y-96620804D01*
X108300000Y-96871960D01*
X108300000Y-97128040D01*
X108250042Y-97379196D01*
X108152046Y-97615780D01*
X108009774Y-97828705D01*
X107828705Y-98009774D01*
X107615780Y-98152046D01*
X107379196Y-98250042D01*
X107128040Y-98300000D01*
X106871960Y-98300000D01*
X106620804Y-98250042D01*
X106384220Y-98152046D01*
X106171295Y-98009774D01*
X105990226Y-97828705D01*
X105847954Y-97615780D01*
X105749958Y-97379196D01*
X105700000Y-97128040D01*
X105700000Y-96871960D01*
X105749958Y-96620804D01*
X105847954Y-96384220D01*
X105990226Y-96171295D01*
X106171295Y-95990226D01*
X106384220Y-95847954D01*
X106620804Y-95749958D01*
X106871960Y-95700000D01*
X107128040Y-95700000D01*
X107379196Y-95749958D01*
X107379196Y-95749958D01*
G37*
G36*
X189333707Y-93127597D02*
X189410836Y-93135193D01*
X189542787Y-93175220D01*
X189608763Y-93195233D01*
X189791172Y-93292733D01*
X189951054Y-93423946D01*
X190082267Y-93583828D01*
X190179767Y-93766237D01*
X190179767Y-93766238D01*
X190239807Y-93964164D01*
X190260080Y-94170000D01*
X190239807Y-94375836D01*
X190199780Y-94507787D01*
X190179767Y-94573763D01*
X190082267Y-94756172D01*
X189951054Y-94916054D01*
X189791172Y-95047267D01*
X189608763Y-95144767D01*
X189542787Y-95164780D01*
X189410836Y-95204807D01*
X189333707Y-95212404D01*
X189256580Y-95220000D01*
X189153420Y-95220000D01*
X189076293Y-95212404D01*
X188999164Y-95204807D01*
X188867213Y-95164780D01*
X188801237Y-95144767D01*
X188618828Y-95047267D01*
X188458946Y-94916054D01*
X188327733Y-94756172D01*
X188230233Y-94573763D01*
X188210220Y-94507787D01*
X188170193Y-94375836D01*
X188149920Y-94170000D01*
X188170193Y-93964164D01*
X188230233Y-93766238D01*
X188230233Y-93766237D01*
X188327733Y-93583828D01*
X188458946Y-93423946D01*
X188618828Y-93292733D01*
X188801237Y-93195233D01*
X188867213Y-93175220D01*
X188999164Y-93135193D01*
X189076293Y-93127597D01*
X189153420Y-93120000D01*
X189256580Y-93120000D01*
X189333707Y-93127597D01*
X189333707Y-93127597D01*
G37*
G36*
X186793707Y-93127597D02*
X186870836Y-93135193D01*
X187002787Y-93175220D01*
X187068763Y-93195233D01*
X187251172Y-93292733D01*
X187411054Y-93423946D01*
X187542267Y-93583828D01*
X187639767Y-93766237D01*
X187639767Y-93766238D01*
X187699807Y-93964164D01*
X187720080Y-94170000D01*
X187699807Y-94375836D01*
X187659780Y-94507787D01*
X187639767Y-94573763D01*
X187542267Y-94756172D01*
X187411054Y-94916054D01*
X187251172Y-95047267D01*
X187068763Y-95144767D01*
X187002787Y-95164780D01*
X186870836Y-95204807D01*
X186793707Y-95212404D01*
X186716580Y-95220000D01*
X186613420Y-95220000D01*
X186536293Y-95212404D01*
X186459164Y-95204807D01*
X186327213Y-95164780D01*
X186261237Y-95144767D01*
X186078828Y-95047267D01*
X185918946Y-94916054D01*
X185787733Y-94756172D01*
X185690233Y-94573763D01*
X185670220Y-94507787D01*
X185630193Y-94375836D01*
X185609920Y-94170000D01*
X185630193Y-93964164D01*
X185690233Y-93766238D01*
X185690233Y-93766237D01*
X185787733Y-93583828D01*
X185918946Y-93423946D01*
X186078828Y-93292733D01*
X186261237Y-93195233D01*
X186327213Y-93175220D01*
X186459164Y-93135193D01*
X186536293Y-93127597D01*
X186613420Y-93120000D01*
X186716580Y-93120000D01*
X186793707Y-93127597D01*
X186793707Y-93127597D01*
G37*
G36*
X184253707Y-93127597D02*
X184330836Y-93135193D01*
X184462787Y-93175220D01*
X184528763Y-93195233D01*
X184711172Y-93292733D01*
X184871054Y-93423946D01*
X185002267Y-93583828D01*
X185099767Y-93766237D01*
X185099767Y-93766238D01*
X185159807Y-93964164D01*
X185180080Y-94170000D01*
X185159807Y-94375836D01*
X185119780Y-94507787D01*
X185099767Y-94573763D01*
X185002267Y-94756172D01*
X184871054Y-94916054D01*
X184711172Y-95047267D01*
X184528763Y-95144767D01*
X184462787Y-95164780D01*
X184330836Y-95204807D01*
X184253707Y-95212404D01*
X184176580Y-95220000D01*
X184073420Y-95220000D01*
X183996293Y-95212404D01*
X183919164Y-95204807D01*
X183787213Y-95164780D01*
X183721237Y-95144767D01*
X183538828Y-95047267D01*
X183378946Y-94916054D01*
X183247733Y-94756172D01*
X183150233Y-94573763D01*
X183130220Y-94507787D01*
X183090193Y-94375836D01*
X183069920Y-94170000D01*
X183090193Y-93964164D01*
X183150233Y-93766238D01*
X183150233Y-93766237D01*
X183247733Y-93583828D01*
X183378946Y-93423946D01*
X183538828Y-93292733D01*
X183721237Y-93195233D01*
X183787213Y-93175220D01*
X183919164Y-93135193D01*
X183996293Y-93127597D01*
X184073420Y-93120000D01*
X184176580Y-93120000D01*
X184253707Y-93127597D01*
X184253707Y-93127597D01*
G37*
G36*
X181713707Y-93127597D02*
X181790836Y-93135193D01*
X181922787Y-93175220D01*
X181988763Y-93195233D01*
X182171172Y-93292733D01*
X182331054Y-93423946D01*
X182462267Y-93583828D01*
X182559767Y-93766237D01*
X182559767Y-93766238D01*
X182619807Y-93964164D01*
X182640080Y-94170000D01*
X182619807Y-94375836D01*
X182579780Y-94507787D01*
X182559767Y-94573763D01*
X182462267Y-94756172D01*
X182331054Y-94916054D01*
X182171172Y-95047267D01*
X181988763Y-95144767D01*
X181922787Y-95164780D01*
X181790836Y-95204807D01*
X181713707Y-95212404D01*
X181636580Y-95220000D01*
X181533420Y-95220000D01*
X181456293Y-95212404D01*
X181379164Y-95204807D01*
X181247213Y-95164780D01*
X181181237Y-95144767D01*
X180998828Y-95047267D01*
X180838946Y-94916054D01*
X180707733Y-94756172D01*
X180610233Y-94573763D01*
X180590220Y-94507787D01*
X180550193Y-94375836D01*
X180529920Y-94170000D01*
X180550193Y-93964164D01*
X180610233Y-93766238D01*
X180610233Y-93766237D01*
X180707733Y-93583828D01*
X180838946Y-93423946D01*
X180998828Y-93292733D01*
X181181237Y-93195233D01*
X181247213Y-93175220D01*
X181379164Y-93135193D01*
X181456293Y-93127597D01*
X181533420Y-93120000D01*
X181636580Y-93120000D01*
X181713707Y-93127597D01*
X181713707Y-93127597D01*
G37*
G36*
X179173707Y-93127597D02*
X179250836Y-93135193D01*
X179382787Y-93175220D01*
X179448763Y-93195233D01*
X179631172Y-93292733D01*
X179791054Y-93423946D01*
X179922267Y-93583828D01*
X180019767Y-93766237D01*
X180019767Y-93766238D01*
X180079807Y-93964164D01*
X180100080Y-94170000D01*
X180079807Y-94375836D01*
X180039780Y-94507787D01*
X180019767Y-94573763D01*
X179922267Y-94756172D01*
X179791054Y-94916054D01*
X179631172Y-95047267D01*
X179448763Y-95144767D01*
X179382787Y-95164780D01*
X179250836Y-95204807D01*
X179173707Y-95212404D01*
X179096580Y-95220000D01*
X178993420Y-95220000D01*
X178916293Y-95212404D01*
X178839164Y-95204807D01*
X178707213Y-95164780D01*
X178641237Y-95144767D01*
X178458828Y-95047267D01*
X178298946Y-94916054D01*
X178167733Y-94756172D01*
X178070233Y-94573763D01*
X178050220Y-94507787D01*
X178010193Y-94375836D01*
X177989920Y-94170000D01*
X178010193Y-93964164D01*
X178070233Y-93766238D01*
X178070233Y-93766237D01*
X178167733Y-93583828D01*
X178298946Y-93423946D01*
X178458828Y-93292733D01*
X178641237Y-93195233D01*
X178707213Y-93175220D01*
X178839164Y-93135193D01*
X178916293Y-93127597D01*
X178993420Y-93120000D01*
X179096580Y-93120000D01*
X179173707Y-93127597D01*
X179173707Y-93127597D01*
G37*
G36*
X176633707Y-93127597D02*
X176710836Y-93135193D01*
X176842787Y-93175220D01*
X176908763Y-93195233D01*
X177091172Y-93292733D01*
X177251054Y-93423946D01*
X177382267Y-93583828D01*
X177479767Y-93766237D01*
X177479767Y-93766238D01*
X177539807Y-93964164D01*
X177560080Y-94170000D01*
X177539807Y-94375836D01*
X177499780Y-94507787D01*
X177479767Y-94573763D01*
X177382267Y-94756172D01*
X177251054Y-94916054D01*
X177091172Y-95047267D01*
X176908763Y-95144767D01*
X176842787Y-95164780D01*
X176710836Y-95204807D01*
X176633707Y-95212404D01*
X176556580Y-95220000D01*
X176453420Y-95220000D01*
X176376293Y-95212404D01*
X176299164Y-95204807D01*
X176167213Y-95164780D01*
X176101237Y-95144767D01*
X175918828Y-95047267D01*
X175758946Y-94916054D01*
X175627733Y-94756172D01*
X175530233Y-94573763D01*
X175510220Y-94507787D01*
X175470193Y-94375836D01*
X175449920Y-94170000D01*
X175470193Y-93964164D01*
X175530233Y-93766238D01*
X175530233Y-93766237D01*
X175627733Y-93583828D01*
X175758946Y-93423946D01*
X175918828Y-93292733D01*
X176101237Y-93195233D01*
X176167213Y-93175220D01*
X176299164Y-93135193D01*
X176376293Y-93127597D01*
X176453420Y-93120000D01*
X176556580Y-93120000D01*
X176633707Y-93127597D01*
X176633707Y-93127597D01*
G37*
G36*
X174093707Y-93127597D02*
X174170836Y-93135193D01*
X174302787Y-93175220D01*
X174368763Y-93195233D01*
X174551172Y-93292733D01*
X174711054Y-93423946D01*
X174842267Y-93583828D01*
X174939767Y-93766237D01*
X174939767Y-93766238D01*
X174999807Y-93964164D01*
X175020080Y-94170000D01*
X174999807Y-94375836D01*
X174959780Y-94507787D01*
X174939767Y-94573763D01*
X174842267Y-94756172D01*
X174711054Y-94916054D01*
X174551172Y-95047267D01*
X174368763Y-95144767D01*
X174302787Y-95164780D01*
X174170836Y-95204807D01*
X174093707Y-95212404D01*
X174016580Y-95220000D01*
X173913420Y-95220000D01*
X173836293Y-95212404D01*
X173759164Y-95204807D01*
X173627213Y-95164780D01*
X173561237Y-95144767D01*
X173378828Y-95047267D01*
X173218946Y-94916054D01*
X173087733Y-94756172D01*
X172990233Y-94573763D01*
X172970220Y-94507787D01*
X172930193Y-94375836D01*
X172909920Y-94170000D01*
X172930193Y-93964164D01*
X172990233Y-93766238D01*
X172990233Y-93766237D01*
X173087733Y-93583828D01*
X173218946Y-93423946D01*
X173378828Y-93292733D01*
X173561237Y-93195233D01*
X173627213Y-93175220D01*
X173759164Y-93135193D01*
X173836293Y-93127597D01*
X173913420Y-93120000D01*
X174016580Y-93120000D01*
X174093707Y-93127597D01*
X174093707Y-93127597D01*
G37*
G36*
X171553707Y-93127597D02*
X171630836Y-93135193D01*
X171762787Y-93175220D01*
X171828763Y-93195233D01*
X172011172Y-93292733D01*
X172171054Y-93423946D01*
X172302267Y-93583828D01*
X172399767Y-93766237D01*
X172399767Y-93766238D01*
X172459807Y-93964164D01*
X172480080Y-94170000D01*
X172459807Y-94375836D01*
X172419780Y-94507787D01*
X172399767Y-94573763D01*
X172302267Y-94756172D01*
X172171054Y-94916054D01*
X172011172Y-95047267D01*
X171828763Y-95144767D01*
X171762787Y-95164780D01*
X171630836Y-95204807D01*
X171553707Y-95212404D01*
X171476580Y-95220000D01*
X171373420Y-95220000D01*
X171296293Y-95212404D01*
X171219164Y-95204807D01*
X171087213Y-95164780D01*
X171021237Y-95144767D01*
X170838828Y-95047267D01*
X170678946Y-94916054D01*
X170547733Y-94756172D01*
X170450233Y-94573763D01*
X170430220Y-94507787D01*
X170390193Y-94375836D01*
X170369920Y-94170000D01*
X170390193Y-93964164D01*
X170450233Y-93766238D01*
X170450233Y-93766237D01*
X170547733Y-93583828D01*
X170678946Y-93423946D01*
X170838828Y-93292733D01*
X171021237Y-93195233D01*
X171087213Y-93175220D01*
X171219164Y-93135193D01*
X171296293Y-93127597D01*
X171373420Y-93120000D01*
X171476580Y-93120000D01*
X171553707Y-93127597D01*
X171553707Y-93127597D01*
G37*
G36*
X169013707Y-93127597D02*
X169090836Y-93135193D01*
X169222787Y-93175220D01*
X169288763Y-93195233D01*
X169471172Y-93292733D01*
X169631054Y-93423946D01*
X169762267Y-93583828D01*
X169859767Y-93766237D01*
X169859767Y-93766238D01*
X169919807Y-93964164D01*
X169940080Y-94170000D01*
X169919807Y-94375836D01*
X169879780Y-94507787D01*
X169859767Y-94573763D01*
X169762267Y-94756172D01*
X169631054Y-94916054D01*
X169471172Y-95047267D01*
X169288763Y-95144767D01*
X169222787Y-95164780D01*
X169090836Y-95204807D01*
X169013707Y-95212404D01*
X168936580Y-95220000D01*
X168833420Y-95220000D01*
X168756293Y-95212404D01*
X168679164Y-95204807D01*
X168547213Y-95164780D01*
X168481237Y-95144767D01*
X168298828Y-95047267D01*
X168138946Y-94916054D01*
X168007733Y-94756172D01*
X167910233Y-94573763D01*
X167890220Y-94507787D01*
X167850193Y-94375836D01*
X167829920Y-94170000D01*
X167850193Y-93964164D01*
X167910233Y-93766238D01*
X167910233Y-93766237D01*
X168007733Y-93583828D01*
X168138946Y-93423946D01*
X168298828Y-93292733D01*
X168481237Y-93195233D01*
X168547213Y-93175220D01*
X168679164Y-93135193D01*
X168756293Y-93127597D01*
X168833420Y-93120000D01*
X168936580Y-93120000D01*
X169013707Y-93127597D01*
X169013707Y-93127597D01*
G37*
G36*
X166473707Y-93127597D02*
X166550836Y-93135193D01*
X166682787Y-93175220D01*
X166748763Y-93195233D01*
X166931172Y-93292733D01*
X167091054Y-93423946D01*
X167222267Y-93583828D01*
X167319767Y-93766237D01*
X167319767Y-93766238D01*
X167379807Y-93964164D01*
X167400080Y-94170000D01*
X167379807Y-94375836D01*
X167339780Y-94507787D01*
X167319767Y-94573763D01*
X167222267Y-94756172D01*
X167091054Y-94916054D01*
X166931172Y-95047267D01*
X166748763Y-95144767D01*
X166682787Y-95164780D01*
X166550836Y-95204807D01*
X166473707Y-95212404D01*
X166396580Y-95220000D01*
X166293420Y-95220000D01*
X166216293Y-95212404D01*
X166139164Y-95204807D01*
X166007213Y-95164780D01*
X165941237Y-95144767D01*
X165758828Y-95047267D01*
X165598946Y-94916054D01*
X165467733Y-94756172D01*
X165370233Y-94573763D01*
X165350220Y-94507787D01*
X165310193Y-94375836D01*
X165289920Y-94170000D01*
X165310193Y-93964164D01*
X165370233Y-93766238D01*
X165370233Y-93766237D01*
X165467733Y-93583828D01*
X165598946Y-93423946D01*
X165758828Y-93292733D01*
X165941237Y-93195233D01*
X166007213Y-93175220D01*
X166139164Y-93135193D01*
X166216293Y-93127597D01*
X166293420Y-93120000D01*
X166396580Y-93120000D01*
X166473707Y-93127597D01*
X166473707Y-93127597D01*
G37*
G36*
X163933707Y-93127597D02*
X164010836Y-93135193D01*
X164142787Y-93175220D01*
X164208763Y-93195233D01*
X164391172Y-93292733D01*
X164551054Y-93423946D01*
X164682267Y-93583828D01*
X164779767Y-93766237D01*
X164779767Y-93766238D01*
X164839807Y-93964164D01*
X164860080Y-94170000D01*
X164839807Y-94375836D01*
X164799780Y-94507787D01*
X164779767Y-94573763D01*
X164682267Y-94756172D01*
X164551054Y-94916054D01*
X164391172Y-95047267D01*
X164208763Y-95144767D01*
X164142787Y-95164780D01*
X164010836Y-95204807D01*
X163933707Y-95212404D01*
X163856580Y-95220000D01*
X163753420Y-95220000D01*
X163676293Y-95212404D01*
X163599164Y-95204807D01*
X163467213Y-95164780D01*
X163401237Y-95144767D01*
X163218828Y-95047267D01*
X163058946Y-94916054D01*
X162927733Y-94756172D01*
X162830233Y-94573763D01*
X162810220Y-94507787D01*
X162770193Y-94375836D01*
X162749920Y-94170000D01*
X162770193Y-93964164D01*
X162830233Y-93766238D01*
X162830233Y-93766237D01*
X162927733Y-93583828D01*
X163058946Y-93423946D01*
X163218828Y-93292733D01*
X163401237Y-93195233D01*
X163467213Y-93175220D01*
X163599164Y-93135193D01*
X163676293Y-93127597D01*
X163753420Y-93120000D01*
X163856580Y-93120000D01*
X163933707Y-93127597D01*
X163933707Y-93127597D01*
G37*
G36*
X161393707Y-93127597D02*
X161470836Y-93135193D01*
X161602787Y-93175220D01*
X161668763Y-93195233D01*
X161851172Y-93292733D01*
X162011054Y-93423946D01*
X162142267Y-93583828D01*
X162239767Y-93766237D01*
X162239767Y-93766238D01*
X162299807Y-93964164D01*
X162320080Y-94170000D01*
X162299807Y-94375836D01*
X162259780Y-94507787D01*
X162239767Y-94573763D01*
X162142267Y-94756172D01*
X162011054Y-94916054D01*
X161851172Y-95047267D01*
X161668763Y-95144767D01*
X161602787Y-95164780D01*
X161470836Y-95204807D01*
X161393707Y-95212404D01*
X161316580Y-95220000D01*
X161213420Y-95220000D01*
X161136293Y-95212404D01*
X161059164Y-95204807D01*
X160927213Y-95164780D01*
X160861237Y-95144767D01*
X160678828Y-95047267D01*
X160518946Y-94916054D01*
X160387733Y-94756172D01*
X160290233Y-94573763D01*
X160270220Y-94507787D01*
X160230193Y-94375836D01*
X160209920Y-94170000D01*
X160230193Y-93964164D01*
X160290233Y-93766238D01*
X160290233Y-93766237D01*
X160387733Y-93583828D01*
X160518946Y-93423946D01*
X160678828Y-93292733D01*
X160861237Y-93195233D01*
X160927213Y-93175220D01*
X161059164Y-93135193D01*
X161136293Y-93127597D01*
X161213420Y-93120000D01*
X161316580Y-93120000D01*
X161393707Y-93127597D01*
X161393707Y-93127597D01*
G37*
G36*
X158853707Y-93127597D02*
X158930836Y-93135193D01*
X159062787Y-93175220D01*
X159128763Y-93195233D01*
X159311172Y-93292733D01*
X159471054Y-93423946D01*
X159602267Y-93583828D01*
X159699767Y-93766237D01*
X159699767Y-93766238D01*
X159759807Y-93964164D01*
X159780080Y-94170000D01*
X159759807Y-94375836D01*
X159719780Y-94507787D01*
X159699767Y-94573763D01*
X159602267Y-94756172D01*
X159471054Y-94916054D01*
X159311172Y-95047267D01*
X159128763Y-95144767D01*
X159062787Y-95164780D01*
X158930836Y-95204807D01*
X158853707Y-95212404D01*
X158776580Y-95220000D01*
X158673420Y-95220000D01*
X158596293Y-95212404D01*
X158519164Y-95204807D01*
X158387213Y-95164780D01*
X158321237Y-95144767D01*
X158138828Y-95047267D01*
X157978946Y-94916054D01*
X157847733Y-94756172D01*
X157750233Y-94573763D01*
X157730220Y-94507787D01*
X157690193Y-94375836D01*
X157669920Y-94170000D01*
X157690193Y-93964164D01*
X157750233Y-93766238D01*
X157750233Y-93766237D01*
X157847733Y-93583828D01*
X157978946Y-93423946D01*
X158138828Y-93292733D01*
X158321237Y-93195233D01*
X158387213Y-93175220D01*
X158519164Y-93135193D01*
X158596293Y-93127597D01*
X158673420Y-93120000D01*
X158776580Y-93120000D01*
X158853707Y-93127597D01*
X158853707Y-93127597D01*
G37*
G36*
X157235000Y-95220000D02*
X155135000Y-95220000D01*
X155135000Y-93120000D01*
X157235000Y-93120000D01*
X157235000Y-95220000D01*
X157235000Y-95220000D01*
G37*
G36*
X140831224Y-91918528D02*
X140963175Y-91958555D01*
X141084781Y-92023555D01*
X141191370Y-92111030D01*
X141278845Y-92217619D01*
X141343845Y-92339225D01*
X141383872Y-92471176D01*
X141397387Y-92608400D01*
X141383872Y-92745624D01*
X141343845Y-92877575D01*
X141278845Y-92999181D01*
X141191370Y-93105770D01*
X141084781Y-93193245D01*
X140963175Y-93258245D01*
X140831224Y-93298272D01*
X140728390Y-93308400D01*
X139659610Y-93308400D01*
X139556776Y-93298272D01*
X139424825Y-93258245D01*
X139303219Y-93193245D01*
X139196630Y-93105770D01*
X139109155Y-92999181D01*
X139044155Y-92877575D01*
X139004128Y-92745624D01*
X138990613Y-92608400D01*
X139004128Y-92471176D01*
X139044155Y-92339225D01*
X139109155Y-92217619D01*
X139196630Y-92111030D01*
X139303219Y-92023555D01*
X139424825Y-91958555D01*
X139556776Y-91918528D01*
X139659610Y-91908400D01*
X140728390Y-91908400D01*
X140831224Y-91918528D01*
X140831224Y-91918528D01*
G37*
G36*
X148591224Y-91918528D02*
X148723175Y-91958555D01*
X148844781Y-92023555D01*
X148951370Y-92111030D01*
X149038845Y-92217619D01*
X149103845Y-92339225D01*
X149143872Y-92471176D01*
X149157387Y-92608400D01*
X149143872Y-92745624D01*
X149103845Y-92877575D01*
X149038845Y-92999181D01*
X148951370Y-93105770D01*
X148844781Y-93193245D01*
X148723175Y-93258245D01*
X148591224Y-93298272D01*
X148488390Y-93308400D01*
X147419610Y-93308400D01*
X147316776Y-93298272D01*
X147184825Y-93258245D01*
X147063219Y-93193245D01*
X146956630Y-93105770D01*
X146869155Y-92999181D01*
X146804155Y-92877575D01*
X146764128Y-92745624D01*
X146750613Y-92608400D01*
X146764128Y-92471176D01*
X146804155Y-92339225D01*
X146869155Y-92217619D01*
X146956630Y-92111030D01*
X147063219Y-92023555D01*
X147184825Y-91958555D01*
X147316776Y-91918528D01*
X147419610Y-91908400D01*
X148488390Y-91908400D01*
X148591224Y-91918528D01*
X148591224Y-91918528D01*
G37*
G36*
X144221738Y-90705053D02*
X144263598Y-90713379D01*
X144275345Y-90718245D01*
X144381890Y-90762377D01*
X144488354Y-90833514D01*
X144578886Y-90924046D01*
X144650023Y-91030510D01*
X144699021Y-91148803D01*
X144724000Y-91274379D01*
X144724000Y-91402421D01*
X144699021Y-91527997D01*
X144650023Y-91646290D01*
X144578886Y-91752754D01*
X144488354Y-91843286D01*
X144381890Y-91914423D01*
X144298245Y-91949070D01*
X144263598Y-91963421D01*
X144221738Y-91971747D01*
X144138021Y-91988400D01*
X144009979Y-91988400D01*
X143926262Y-91971747D01*
X143884402Y-91963421D01*
X143849755Y-91949070D01*
X143766110Y-91914423D01*
X143659646Y-91843286D01*
X143569114Y-91752754D01*
X143497977Y-91646290D01*
X143448979Y-91527997D01*
X143424000Y-91402421D01*
X143424000Y-91274379D01*
X143448979Y-91148803D01*
X143497977Y-91030510D01*
X143569114Y-90924046D01*
X143659646Y-90833514D01*
X143766110Y-90762377D01*
X143872655Y-90718245D01*
X143884402Y-90713379D01*
X143926262Y-90705053D01*
X144009979Y-90688400D01*
X144138021Y-90688400D01*
X144221738Y-90705053D01*
X144221738Y-90705053D01*
G37*
G36*
X148591224Y-89378528D02*
X148723175Y-89418555D01*
X148844781Y-89483555D01*
X148951370Y-89571030D01*
X149038845Y-89677619D01*
X149103845Y-89799225D01*
X149143872Y-89931176D01*
X149157387Y-90068400D01*
X149143872Y-90205624D01*
X149103845Y-90337575D01*
X149038845Y-90459181D01*
X148951370Y-90565770D01*
X148844781Y-90653245D01*
X148723175Y-90718245D01*
X148591224Y-90758272D01*
X148488390Y-90768400D01*
X147419610Y-90768400D01*
X147316776Y-90758272D01*
X147184825Y-90718245D01*
X147063219Y-90653245D01*
X146956630Y-90565770D01*
X146869155Y-90459181D01*
X146804155Y-90337575D01*
X146764128Y-90205624D01*
X146750613Y-90068400D01*
X146764128Y-89931176D01*
X146804155Y-89799225D01*
X146869155Y-89677619D01*
X146956630Y-89571030D01*
X147063219Y-89483555D01*
X147184825Y-89418555D01*
X147316776Y-89378528D01*
X147419610Y-89368400D01*
X148488390Y-89368400D01*
X148591224Y-89378528D01*
X148591224Y-89378528D01*
G37*
G36*
X140831224Y-89378528D02*
X140963175Y-89418555D01*
X141084781Y-89483555D01*
X141191370Y-89571030D01*
X141278845Y-89677619D01*
X141343845Y-89799225D01*
X141383872Y-89931176D01*
X141397387Y-90068400D01*
X141383872Y-90205624D01*
X141343845Y-90337575D01*
X141278845Y-90459181D01*
X141191370Y-90565770D01*
X141084781Y-90653245D01*
X140963175Y-90718245D01*
X140831224Y-90758272D01*
X140728390Y-90768400D01*
X139659610Y-90768400D01*
X139556776Y-90758272D01*
X139424825Y-90718245D01*
X139303219Y-90653245D01*
X139196630Y-90565770D01*
X139109155Y-90459181D01*
X139044155Y-90337575D01*
X139004128Y-90205624D01*
X138990613Y-90068400D01*
X139004128Y-89931176D01*
X139044155Y-89799225D01*
X139109155Y-89677619D01*
X139196630Y-89571030D01*
X139303219Y-89483555D01*
X139424825Y-89418555D01*
X139556776Y-89378528D01*
X139659610Y-89368400D01*
X140728390Y-89368400D01*
X140831224Y-89378528D01*
X140831224Y-89378528D01*
G37*
G36*
X144189486Y-88156629D02*
X144201423Y-88157805D01*
X144262685Y-88176389D01*
X144323948Y-88194973D01*
X144436868Y-88255330D01*
X144535843Y-88336557D01*
X144617070Y-88435532D01*
X144677427Y-88548452D01*
X144714595Y-88670978D01*
X144727145Y-88798400D01*
X144714595Y-88925822D01*
X144677427Y-89048348D01*
X144617070Y-89161268D01*
X144535843Y-89260243D01*
X144436868Y-89341470D01*
X144323948Y-89401827D01*
X144268803Y-89418555D01*
X144201423Y-89438995D01*
X144189486Y-89440171D01*
X144105932Y-89448400D01*
X144042068Y-89448400D01*
X143958514Y-89440171D01*
X143946577Y-89438995D01*
X143879197Y-89418555D01*
X143824052Y-89401827D01*
X143711132Y-89341470D01*
X143612157Y-89260243D01*
X143530930Y-89161268D01*
X143470573Y-89048348D01*
X143433405Y-88925822D01*
X143420855Y-88798400D01*
X143433405Y-88670978D01*
X143470573Y-88548452D01*
X143530930Y-88435532D01*
X143612157Y-88336557D01*
X143711132Y-88255330D01*
X143824052Y-88194973D01*
X143885315Y-88176389D01*
X143946577Y-88157805D01*
X143958514Y-88156629D01*
X144042068Y-88148400D01*
X144105932Y-88148400D01*
X144189486Y-88156629D01*
X144189486Y-88156629D01*
G37*
G36*
X148591224Y-86838528D02*
X148723175Y-86878555D01*
X148844781Y-86943555D01*
X148951370Y-87031030D01*
X149038845Y-87137619D01*
X149103845Y-87259225D01*
X149143872Y-87391176D01*
X149157387Y-87528400D01*
X149143872Y-87665624D01*
X149103845Y-87797575D01*
X149038845Y-87919181D01*
X148951370Y-88025770D01*
X148844781Y-88113245D01*
X148723175Y-88178245D01*
X148591224Y-88218272D01*
X148488390Y-88228400D01*
X147419610Y-88228400D01*
X147316776Y-88218272D01*
X147184825Y-88178245D01*
X147063219Y-88113245D01*
X146956630Y-88025770D01*
X146869155Y-87919181D01*
X146804155Y-87797575D01*
X146764128Y-87665624D01*
X146750613Y-87528400D01*
X146764128Y-87391176D01*
X146804155Y-87259225D01*
X146869155Y-87137619D01*
X146956630Y-87031030D01*
X147063219Y-86943555D01*
X147184825Y-86878555D01*
X147316776Y-86838528D01*
X147419610Y-86828400D01*
X148488390Y-86828400D01*
X148591224Y-86838528D01*
X148591224Y-86838528D01*
G37*
G36*
X140831224Y-86838528D02*
X140963175Y-86878555D01*
X141084781Y-86943555D01*
X141191370Y-87031030D01*
X141278845Y-87137619D01*
X141343845Y-87259225D01*
X141383872Y-87391176D01*
X141397387Y-87528400D01*
X141383872Y-87665624D01*
X141343845Y-87797575D01*
X141278845Y-87919181D01*
X141191370Y-88025770D01*
X141084781Y-88113245D01*
X140963175Y-88178245D01*
X140831224Y-88218272D01*
X140728390Y-88228400D01*
X139659610Y-88228400D01*
X139556776Y-88218272D01*
X139424825Y-88178245D01*
X139303219Y-88113245D01*
X139196630Y-88025770D01*
X139109155Y-87919181D01*
X139044155Y-87797575D01*
X139004128Y-87665624D01*
X138990613Y-87528400D01*
X139004128Y-87391176D01*
X139044155Y-87259225D01*
X139109155Y-87137619D01*
X139196630Y-87031030D01*
X139303219Y-86943555D01*
X139424825Y-86878555D01*
X139556776Y-86838528D01*
X139659610Y-86828400D01*
X140728390Y-86828400D01*
X140831224Y-86838528D01*
X140831224Y-86838528D01*
G37*
G36*
X148591224Y-84298528D02*
X148723175Y-84338555D01*
X148844781Y-84403555D01*
X148951370Y-84491030D01*
X149038845Y-84597619D01*
X149103845Y-84719225D01*
X149143872Y-84851176D01*
X149157387Y-84988400D01*
X149143872Y-85125624D01*
X149103845Y-85257575D01*
X149038845Y-85379181D01*
X148951370Y-85485770D01*
X148844781Y-85573245D01*
X148723175Y-85638245D01*
X148591224Y-85678272D01*
X148488390Y-85688400D01*
X147419610Y-85688400D01*
X147316776Y-85678272D01*
X147184825Y-85638245D01*
X147063219Y-85573245D01*
X146956630Y-85485770D01*
X146869155Y-85379181D01*
X146804155Y-85257575D01*
X146764128Y-85125624D01*
X146750613Y-84988400D01*
X146764128Y-84851176D01*
X146804155Y-84719225D01*
X146869155Y-84597619D01*
X146956630Y-84491030D01*
X147063219Y-84403555D01*
X147184825Y-84338555D01*
X147316776Y-84298528D01*
X147419610Y-84288400D01*
X148488390Y-84288400D01*
X148591224Y-84298528D01*
X148591224Y-84298528D01*
G37*
G36*
X140831224Y-84298528D02*
X140963175Y-84338555D01*
X141084781Y-84403555D01*
X141191370Y-84491030D01*
X141278845Y-84597619D01*
X141343845Y-84719225D01*
X141383872Y-84851176D01*
X141397387Y-84988400D01*
X141383872Y-85125624D01*
X141343845Y-85257575D01*
X141278845Y-85379181D01*
X141191370Y-85485770D01*
X141084781Y-85573245D01*
X140963175Y-85638245D01*
X140831224Y-85678272D01*
X140728390Y-85688400D01*
X139659610Y-85688400D01*
X139556776Y-85678272D01*
X139424825Y-85638245D01*
X139303219Y-85573245D01*
X139196630Y-85485770D01*
X139109155Y-85379181D01*
X139044155Y-85257575D01*
X139004128Y-85125624D01*
X138990613Y-84988400D01*
X139004128Y-84851176D01*
X139044155Y-84719225D01*
X139109155Y-84597619D01*
X139196630Y-84491030D01*
X139303219Y-84403555D01*
X139424825Y-84338555D01*
X139556776Y-84298528D01*
X139659610Y-84288400D01*
X140728390Y-84288400D01*
X140831224Y-84298528D01*
X140831224Y-84298528D01*
G37*
G36*
X140831224Y-81758528D02*
X140963175Y-81798555D01*
X141084781Y-81863555D01*
X141191370Y-81951030D01*
X141278845Y-82057619D01*
X141343845Y-82179225D01*
X141383872Y-82311176D01*
X141397387Y-82448400D01*
X141383872Y-82585624D01*
X141343845Y-82717575D01*
X141278845Y-82839181D01*
X141191370Y-82945770D01*
X141084781Y-83033245D01*
X140963175Y-83098245D01*
X140831224Y-83138272D01*
X140728390Y-83148400D01*
X139659610Y-83148400D01*
X139556776Y-83138272D01*
X139424825Y-83098245D01*
X139303219Y-83033245D01*
X139196630Y-82945770D01*
X139109155Y-82839181D01*
X139044155Y-82717575D01*
X139004128Y-82585624D01*
X138990613Y-82448400D01*
X139004128Y-82311176D01*
X139044155Y-82179225D01*
X139109155Y-82057619D01*
X139196630Y-81951030D01*
X139303219Y-81863555D01*
X139424825Y-81798555D01*
X139556776Y-81758528D01*
X139659610Y-81748400D01*
X140728390Y-81748400D01*
X140831224Y-81758528D01*
X140831224Y-81758528D01*
G37*
G36*
X148591224Y-81758528D02*
X148723175Y-81798555D01*
X148844781Y-81863555D01*
X148951370Y-81951030D01*
X149038845Y-82057619D01*
X149103845Y-82179225D01*
X149143872Y-82311176D01*
X149157387Y-82448400D01*
X149143872Y-82585624D01*
X149103845Y-82717575D01*
X149038845Y-82839181D01*
X148951370Y-82945770D01*
X148844781Y-83033245D01*
X148723175Y-83098245D01*
X148591224Y-83138272D01*
X148488390Y-83148400D01*
X147419610Y-83148400D01*
X147316776Y-83138272D01*
X147184825Y-83098245D01*
X147063219Y-83033245D01*
X146956630Y-82945770D01*
X146869155Y-82839181D01*
X146804155Y-82717575D01*
X146764128Y-82585624D01*
X146750613Y-82448400D01*
X146764128Y-82311176D01*
X146804155Y-82179225D01*
X146869155Y-82057619D01*
X146956630Y-81951030D01*
X147063219Y-81863555D01*
X147184825Y-81798555D01*
X147316776Y-81758528D01*
X147419610Y-81748400D01*
X148488390Y-81748400D01*
X148591224Y-81758528D01*
X148591224Y-81758528D01*
G37*
G36*
X148591224Y-79218528D02*
X148723175Y-79258555D01*
X148844781Y-79323555D01*
X148951370Y-79411030D01*
X149038845Y-79517619D01*
X149103845Y-79639225D01*
X149143872Y-79771176D01*
X149157387Y-79908400D01*
X149143872Y-80045624D01*
X149103845Y-80177575D01*
X149038845Y-80299181D01*
X148951370Y-80405770D01*
X148844781Y-80493245D01*
X148723175Y-80558245D01*
X148591224Y-80598272D01*
X148488390Y-80608400D01*
X147419610Y-80608400D01*
X147316776Y-80598272D01*
X147184825Y-80558245D01*
X147063219Y-80493245D01*
X146956630Y-80405770D01*
X146869155Y-80299181D01*
X146804155Y-80177575D01*
X146764128Y-80045624D01*
X146750613Y-79908400D01*
X146764128Y-79771176D01*
X146804155Y-79639225D01*
X146869155Y-79517619D01*
X146956630Y-79411030D01*
X147063219Y-79323555D01*
X147184825Y-79258555D01*
X147316776Y-79218528D01*
X147419610Y-79208400D01*
X148488390Y-79208400D01*
X148591224Y-79218528D01*
X148591224Y-79218528D01*
G37*
G36*
X140831224Y-79218528D02*
X140963175Y-79258555D01*
X141084781Y-79323555D01*
X141191370Y-79411030D01*
X141278845Y-79517619D01*
X141343845Y-79639225D01*
X141383872Y-79771176D01*
X141397387Y-79908400D01*
X141383872Y-80045624D01*
X141343845Y-80177575D01*
X141278845Y-80299181D01*
X141191370Y-80405770D01*
X141084781Y-80493245D01*
X140963175Y-80558245D01*
X140831224Y-80598272D01*
X140728390Y-80608400D01*
X139659610Y-80608400D01*
X139556776Y-80598272D01*
X139424825Y-80558245D01*
X139303219Y-80493245D01*
X139196630Y-80405770D01*
X139109155Y-80299181D01*
X139044155Y-80177575D01*
X139004128Y-80045624D01*
X138990613Y-79908400D01*
X139004128Y-79771176D01*
X139044155Y-79639225D01*
X139109155Y-79517619D01*
X139196630Y-79411030D01*
X139303219Y-79323555D01*
X139424825Y-79258555D01*
X139556776Y-79218528D01*
X139659610Y-79208400D01*
X140728390Y-79208400D01*
X140831224Y-79218528D01*
X140831224Y-79218528D01*
G37*
G36*
X140831224Y-76678528D02*
X140963175Y-76718555D01*
X141084781Y-76783555D01*
X141191370Y-76871030D01*
X141278845Y-76977619D01*
X141343845Y-77099225D01*
X141383872Y-77231176D01*
X141397387Y-77368400D01*
X141383872Y-77505624D01*
X141343845Y-77637575D01*
X141278845Y-77759181D01*
X141191370Y-77865770D01*
X141084781Y-77953245D01*
X140963175Y-78018245D01*
X140831224Y-78058272D01*
X140728390Y-78068400D01*
X139659610Y-78068400D01*
X139556776Y-78058272D01*
X139424825Y-78018245D01*
X139303219Y-77953245D01*
X139196630Y-77865770D01*
X139109155Y-77759181D01*
X139044155Y-77637575D01*
X139004128Y-77505624D01*
X138990613Y-77368400D01*
X139004128Y-77231176D01*
X139044155Y-77099225D01*
X139109155Y-76977619D01*
X139196630Y-76871030D01*
X139303219Y-76783555D01*
X139424825Y-76718555D01*
X139556776Y-76678528D01*
X139659610Y-76668400D01*
X140728390Y-76668400D01*
X140831224Y-76678528D01*
X140831224Y-76678528D01*
G37*
G36*
X148591224Y-76678528D02*
X148723175Y-76718555D01*
X148844781Y-76783555D01*
X148951370Y-76871030D01*
X149038845Y-76977619D01*
X149103845Y-77099225D01*
X149143872Y-77231176D01*
X149157387Y-77368400D01*
X149143872Y-77505624D01*
X149103845Y-77637575D01*
X149038845Y-77759181D01*
X148951370Y-77865770D01*
X148844781Y-77953245D01*
X148723175Y-78018245D01*
X148591224Y-78058272D01*
X148488390Y-78068400D01*
X147419610Y-78068400D01*
X147316776Y-78058272D01*
X147184825Y-78018245D01*
X147063219Y-77953245D01*
X146956630Y-77865770D01*
X146869155Y-77759181D01*
X146804155Y-77637575D01*
X146764128Y-77505624D01*
X146750613Y-77368400D01*
X146764128Y-77231176D01*
X146804155Y-77099225D01*
X146869155Y-76977619D01*
X146956630Y-76871030D01*
X147063219Y-76783555D01*
X147184825Y-76718555D01*
X147316776Y-76678528D01*
X147419610Y-76668400D01*
X148488390Y-76668400D01*
X148591224Y-76678528D01*
X148591224Y-76678528D01*
G37*
G36*
X140831224Y-74148528D02*
X140963175Y-74188555D01*
X141084781Y-74253555D01*
X141191370Y-74341030D01*
X141278845Y-74447619D01*
X141343845Y-74569225D01*
X141383872Y-74701176D01*
X141397387Y-74838400D01*
X141383872Y-74975624D01*
X141343845Y-75107575D01*
X141278845Y-75229181D01*
X141191370Y-75335770D01*
X141084781Y-75423245D01*
X140963175Y-75488245D01*
X140831224Y-75528272D01*
X140728390Y-75538400D01*
X139659610Y-75538400D01*
X139556776Y-75528272D01*
X139424825Y-75488245D01*
X139303219Y-75423245D01*
X139196630Y-75335770D01*
X139109155Y-75229181D01*
X139044155Y-75107575D01*
X139004128Y-74975624D01*
X138990613Y-74838400D01*
X139004128Y-74701176D01*
X139044155Y-74569225D01*
X139109155Y-74447619D01*
X139196630Y-74341030D01*
X139303219Y-74253555D01*
X139424825Y-74188555D01*
X139556776Y-74148528D01*
X139659610Y-74138400D01*
X140728390Y-74138400D01*
X140831224Y-74148528D01*
X140831224Y-74148528D01*
G37*
G36*
X148591224Y-74148528D02*
X148723175Y-74188555D01*
X148844781Y-74253555D01*
X148951370Y-74341030D01*
X149038845Y-74447619D01*
X149103845Y-74569225D01*
X149143872Y-74701176D01*
X149157387Y-74838400D01*
X149143872Y-74975624D01*
X149103845Y-75107575D01*
X149038845Y-75229181D01*
X148951370Y-75335770D01*
X148844781Y-75423245D01*
X148723175Y-75488245D01*
X148591224Y-75528272D01*
X148488390Y-75538400D01*
X147419610Y-75538400D01*
X147316776Y-75528272D01*
X147184825Y-75488245D01*
X147063219Y-75423245D01*
X146956630Y-75335770D01*
X146869155Y-75229181D01*
X146804155Y-75107575D01*
X146764128Y-74975624D01*
X146750613Y-74838400D01*
X146764128Y-74701176D01*
X146804155Y-74569225D01*
X146869155Y-74447619D01*
X146956630Y-74341030D01*
X147063219Y-74253555D01*
X147184825Y-74188555D01*
X147316776Y-74148528D01*
X147419610Y-74138400D01*
X148488390Y-74138400D01*
X148591224Y-74148528D01*
X148591224Y-74148528D01*
G37*
G36*
X140831224Y-71598528D02*
X140963175Y-71638555D01*
X141084781Y-71703555D01*
X141191370Y-71791030D01*
X141278845Y-71897619D01*
X141343845Y-72019225D01*
X141383872Y-72151176D01*
X141397387Y-72288400D01*
X141383872Y-72425624D01*
X141343845Y-72557575D01*
X141278845Y-72679181D01*
X141191370Y-72785770D01*
X141084781Y-72873245D01*
X140963175Y-72938245D01*
X140831224Y-72978272D01*
X140728390Y-72988400D01*
X139659610Y-72988400D01*
X139556776Y-72978272D01*
X139424825Y-72938245D01*
X139303219Y-72873245D01*
X139196630Y-72785770D01*
X139109155Y-72679181D01*
X139044155Y-72557575D01*
X139004128Y-72425624D01*
X138990613Y-72288400D01*
X139004128Y-72151176D01*
X139044155Y-72019225D01*
X139109155Y-71897619D01*
X139196630Y-71791030D01*
X139303219Y-71703555D01*
X139424825Y-71638555D01*
X139556776Y-71598528D01*
X139659610Y-71588400D01*
X140728390Y-71588400D01*
X140831224Y-71598528D01*
X140831224Y-71598528D01*
G37*
G36*
X148591224Y-71588528D02*
X148723175Y-71628555D01*
X148844781Y-71693555D01*
X148951370Y-71781030D01*
X149038845Y-71887619D01*
X149103845Y-72009225D01*
X149143872Y-72141176D01*
X149157387Y-72278400D01*
X149143872Y-72415624D01*
X149103845Y-72547575D01*
X149038845Y-72669181D01*
X148951370Y-72775770D01*
X148844781Y-72863245D01*
X148723175Y-72928245D01*
X148591224Y-72968272D01*
X148488390Y-72978400D01*
X147419610Y-72978400D01*
X147316776Y-72968272D01*
X147184825Y-72928245D01*
X147063219Y-72863245D01*
X146956630Y-72775770D01*
X146869155Y-72669181D01*
X146804155Y-72547575D01*
X146764128Y-72415624D01*
X146750613Y-72278400D01*
X146764128Y-72141176D01*
X146804155Y-72009225D01*
X146869155Y-71887619D01*
X146956630Y-71781030D01*
X147063219Y-71693555D01*
X147184825Y-71628555D01*
X147316776Y-71588528D01*
X147419610Y-71578400D01*
X148488390Y-71578400D01*
X148591224Y-71588528D01*
X148591224Y-71588528D01*
G37*
G36*
X148591224Y-69058528D02*
X148723175Y-69098555D01*
X148844781Y-69163555D01*
X148951370Y-69251030D01*
X149038845Y-69357619D01*
X149103845Y-69479225D01*
X149143872Y-69611176D01*
X149157387Y-69748400D01*
X149143872Y-69885624D01*
X149103845Y-70017575D01*
X149038845Y-70139181D01*
X148951370Y-70245770D01*
X148844781Y-70333245D01*
X148723175Y-70398245D01*
X148591224Y-70438272D01*
X148488390Y-70448400D01*
X147419610Y-70448400D01*
X147316776Y-70438272D01*
X147184825Y-70398245D01*
X147063219Y-70333245D01*
X146956630Y-70245770D01*
X146869155Y-70139181D01*
X146804155Y-70017575D01*
X146764128Y-69885624D01*
X146750613Y-69748400D01*
X146764128Y-69611176D01*
X146804155Y-69479225D01*
X146869155Y-69357619D01*
X146956630Y-69251030D01*
X147063219Y-69163555D01*
X147184825Y-69098555D01*
X147316776Y-69058528D01*
X147419610Y-69048400D01*
X148488390Y-69048400D01*
X148591224Y-69058528D01*
X148591224Y-69058528D01*
G37*
G36*
X140831224Y-69058528D02*
X140963175Y-69098555D01*
X141084781Y-69163555D01*
X141191370Y-69251030D01*
X141278845Y-69357619D01*
X141343845Y-69479225D01*
X141383872Y-69611176D01*
X141397387Y-69748400D01*
X141383872Y-69885624D01*
X141343845Y-70017575D01*
X141278845Y-70139181D01*
X141191370Y-70245770D01*
X141084781Y-70333245D01*
X140963175Y-70398245D01*
X140831224Y-70438272D01*
X140728390Y-70448400D01*
X139659610Y-70448400D01*
X139556776Y-70438272D01*
X139424825Y-70398245D01*
X139303219Y-70333245D01*
X139196630Y-70245770D01*
X139109155Y-70139181D01*
X139044155Y-70017575D01*
X139004128Y-69885624D01*
X138990613Y-69748400D01*
X139004128Y-69611176D01*
X139044155Y-69479225D01*
X139109155Y-69357619D01*
X139196630Y-69251030D01*
X139303219Y-69163555D01*
X139424825Y-69098555D01*
X139556776Y-69058528D01*
X139659610Y-69048400D01*
X140728390Y-69048400D01*
X140831224Y-69058528D01*
X140831224Y-69058528D01*
G37*
G36*
X148591224Y-66518528D02*
X148723175Y-66558555D01*
X148844781Y-66623555D01*
X148951370Y-66711030D01*
X149038845Y-66817619D01*
X149103845Y-66939225D01*
X149143872Y-67071176D01*
X149157387Y-67208400D01*
X149143872Y-67345624D01*
X149103845Y-67477575D01*
X149038845Y-67599181D01*
X148951370Y-67705770D01*
X148844781Y-67793245D01*
X148723175Y-67858245D01*
X148591224Y-67898272D01*
X148488390Y-67908400D01*
X147419610Y-67908400D01*
X147316776Y-67898272D01*
X147184825Y-67858245D01*
X147063219Y-67793245D01*
X146956630Y-67705770D01*
X146869155Y-67599181D01*
X146804155Y-67477575D01*
X146764128Y-67345624D01*
X146750613Y-67208400D01*
X146764128Y-67071176D01*
X146804155Y-66939225D01*
X146869155Y-66817619D01*
X146956630Y-66711030D01*
X147063219Y-66623555D01*
X147184825Y-66558555D01*
X147316776Y-66518528D01*
X147419610Y-66508400D01*
X148488390Y-66508400D01*
X148591224Y-66518528D01*
X148591224Y-66518528D01*
G37*
G36*
X140831224Y-66518528D02*
X140963175Y-66558555D01*
X141084781Y-66623555D01*
X141191370Y-66711030D01*
X141278845Y-66817619D01*
X141343845Y-66939225D01*
X141383872Y-67071176D01*
X141397387Y-67208400D01*
X141383872Y-67345624D01*
X141343845Y-67477575D01*
X141278845Y-67599181D01*
X141191370Y-67705770D01*
X141084781Y-67793245D01*
X140963175Y-67858245D01*
X140831224Y-67898272D01*
X140728390Y-67908400D01*
X139659610Y-67908400D01*
X139556776Y-67898272D01*
X139424825Y-67858245D01*
X139303219Y-67793245D01*
X139196630Y-67705770D01*
X139109155Y-67599181D01*
X139044155Y-67477575D01*
X139004128Y-67345624D01*
X138990613Y-67208400D01*
X139004128Y-67071176D01*
X139044155Y-66939225D01*
X139109155Y-66817619D01*
X139196630Y-66711030D01*
X139303219Y-66623555D01*
X139424825Y-66558555D01*
X139556776Y-66518528D01*
X139659610Y-66508400D01*
X140728390Y-66508400D01*
X140831224Y-66518528D01*
X140831224Y-66518528D01*
G37*
G36*
X148591224Y-63978528D02*
X148723175Y-64018555D01*
X148844781Y-64083555D01*
X148951370Y-64171030D01*
X149038845Y-64277619D01*
X149103845Y-64399225D01*
X149143872Y-64531176D01*
X149157387Y-64668400D01*
X149143872Y-64805624D01*
X149103845Y-64937575D01*
X149038845Y-65059181D01*
X148951370Y-65165770D01*
X148844781Y-65253245D01*
X148723175Y-65318245D01*
X148591224Y-65358272D01*
X148488390Y-65368400D01*
X147419610Y-65368400D01*
X147316776Y-65358272D01*
X147184825Y-65318245D01*
X147063219Y-65253245D01*
X146956630Y-65165770D01*
X146869155Y-65059181D01*
X146804155Y-64937575D01*
X146764128Y-64805624D01*
X146750613Y-64668400D01*
X146764128Y-64531176D01*
X146804155Y-64399225D01*
X146869155Y-64277619D01*
X146956630Y-64171030D01*
X147063219Y-64083555D01*
X147184825Y-64018555D01*
X147316776Y-63978528D01*
X147419610Y-63968400D01*
X148488390Y-63968400D01*
X148591224Y-63978528D01*
X148591224Y-63978528D01*
G37*
G36*
X140831224Y-63978528D02*
X140963175Y-64018555D01*
X141084781Y-64083555D01*
X141191370Y-64171030D01*
X141278845Y-64277619D01*
X141343845Y-64399225D01*
X141383872Y-64531176D01*
X141397387Y-64668400D01*
X141383872Y-64805624D01*
X141343845Y-64937575D01*
X141278845Y-65059181D01*
X141191370Y-65165770D01*
X141084781Y-65253245D01*
X140963175Y-65318245D01*
X140831224Y-65358272D01*
X140728390Y-65368400D01*
X139659610Y-65368400D01*
X139556776Y-65358272D01*
X139424825Y-65318245D01*
X139303219Y-65253245D01*
X139196630Y-65165770D01*
X139109155Y-65059181D01*
X139044155Y-64937575D01*
X139004128Y-64805624D01*
X138990613Y-64668400D01*
X139004128Y-64531176D01*
X139044155Y-64399225D01*
X139109155Y-64277619D01*
X139196630Y-64171030D01*
X139303219Y-64083555D01*
X139424825Y-64018555D01*
X139556776Y-63978528D01*
X139659610Y-63968400D01*
X140728390Y-63968400D01*
X140831224Y-63978528D01*
X140831224Y-63978528D01*
G37*
G36*
X140831224Y-61438528D02*
X140963175Y-61478555D01*
X141084781Y-61543555D01*
X141191370Y-61631030D01*
X141278845Y-61737619D01*
X141343845Y-61859225D01*
X141383872Y-61991176D01*
X141397387Y-62128400D01*
X141383872Y-62265624D01*
X141343845Y-62397575D01*
X141278845Y-62519181D01*
X141191370Y-62625770D01*
X141084781Y-62713245D01*
X140963175Y-62778245D01*
X140831224Y-62818272D01*
X140728390Y-62828400D01*
X139659610Y-62828400D01*
X139556776Y-62818272D01*
X139424825Y-62778245D01*
X139303219Y-62713245D01*
X139196630Y-62625770D01*
X139109155Y-62519181D01*
X139044155Y-62397575D01*
X139004128Y-62265624D01*
X138990613Y-62128400D01*
X139004128Y-61991176D01*
X139044155Y-61859225D01*
X139109155Y-61737619D01*
X139196630Y-61631030D01*
X139303219Y-61543555D01*
X139424825Y-61478555D01*
X139556776Y-61438528D01*
X139659610Y-61428400D01*
X140728390Y-61428400D01*
X140831224Y-61438528D01*
X140831224Y-61438528D01*
G37*
G36*
X148591224Y-61438528D02*
X148723175Y-61478555D01*
X148844781Y-61543555D01*
X148951370Y-61631030D01*
X149038845Y-61737619D01*
X149103845Y-61859225D01*
X149143872Y-61991176D01*
X149157387Y-62128400D01*
X149143872Y-62265624D01*
X149103845Y-62397575D01*
X149038845Y-62519181D01*
X148951370Y-62625770D01*
X148844781Y-62713245D01*
X148723175Y-62778245D01*
X148591224Y-62818272D01*
X148488390Y-62828400D01*
X147419610Y-62828400D01*
X147316776Y-62818272D01*
X147184825Y-62778245D01*
X147063219Y-62713245D01*
X146956630Y-62625770D01*
X146869155Y-62519181D01*
X146804155Y-62397575D01*
X146764128Y-62265624D01*
X146750613Y-62128400D01*
X146764128Y-61991176D01*
X146804155Y-61859225D01*
X146869155Y-61737619D01*
X146956630Y-61631030D01*
X147063219Y-61543555D01*
X147184825Y-61478555D01*
X147316776Y-61438528D01*
X147419610Y-61428400D01*
X148488390Y-61428400D01*
X148591224Y-61438528D01*
X148591224Y-61438528D01*
G37*
G36*
X144189486Y-60216629D02*
X144201423Y-60217805D01*
X144262685Y-60236389D01*
X144323948Y-60254973D01*
X144436868Y-60315330D01*
X144535843Y-60396557D01*
X144617070Y-60495532D01*
X144677427Y-60608452D01*
X144714595Y-60730978D01*
X144727145Y-60858400D01*
X144714595Y-60985822D01*
X144677427Y-61108348D01*
X144617070Y-61221268D01*
X144535843Y-61320243D01*
X144436868Y-61401470D01*
X144323948Y-61461827D01*
X144268803Y-61478555D01*
X144201423Y-61498995D01*
X144189486Y-61500171D01*
X144105932Y-61508400D01*
X144042068Y-61508400D01*
X143958514Y-61500171D01*
X143946577Y-61498995D01*
X143879197Y-61478555D01*
X143824052Y-61461827D01*
X143711132Y-61401470D01*
X143612157Y-61320243D01*
X143530930Y-61221268D01*
X143470573Y-61108348D01*
X143433405Y-60985822D01*
X143420855Y-60858400D01*
X143433405Y-60730978D01*
X143470573Y-60608452D01*
X143530930Y-60495532D01*
X143612157Y-60396557D01*
X143711132Y-60315330D01*
X143824052Y-60254973D01*
X143885315Y-60236389D01*
X143946577Y-60217805D01*
X143958514Y-60216629D01*
X144042068Y-60208400D01*
X144105932Y-60208400D01*
X144189486Y-60216629D01*
X144189486Y-60216629D01*
G37*
G36*
X148591224Y-58898528D02*
X148723175Y-58938555D01*
X148844781Y-59003555D01*
X148951370Y-59091030D01*
X149038845Y-59197619D01*
X149103845Y-59319225D01*
X149143872Y-59451176D01*
X149157387Y-59588400D01*
X149143872Y-59725624D01*
X149103845Y-59857575D01*
X149038845Y-59979181D01*
X148951370Y-60085770D01*
X148844781Y-60173245D01*
X148723175Y-60238245D01*
X148591224Y-60278272D01*
X148488390Y-60288400D01*
X147419610Y-60288400D01*
X147316776Y-60278272D01*
X147184825Y-60238245D01*
X147063219Y-60173245D01*
X146956630Y-60085770D01*
X146869155Y-59979181D01*
X146804155Y-59857575D01*
X146764128Y-59725624D01*
X146750613Y-59588400D01*
X146764128Y-59451176D01*
X146804155Y-59319225D01*
X146869155Y-59197619D01*
X146956630Y-59091030D01*
X147063219Y-59003555D01*
X147184825Y-58938555D01*
X147316776Y-58898528D01*
X147419610Y-58888400D01*
X148488390Y-58888400D01*
X148591224Y-58898528D01*
X148591224Y-58898528D01*
G37*
G36*
X140831224Y-58898528D02*
X140963175Y-58938555D01*
X141084781Y-59003555D01*
X141191370Y-59091030D01*
X141278845Y-59197619D01*
X141343845Y-59319225D01*
X141383872Y-59451176D01*
X141397387Y-59588400D01*
X141383872Y-59725624D01*
X141343845Y-59857575D01*
X141278845Y-59979181D01*
X141191370Y-60085770D01*
X141084781Y-60173245D01*
X140963175Y-60238245D01*
X140831224Y-60278272D01*
X140728390Y-60288400D01*
X139659610Y-60288400D01*
X139556776Y-60278272D01*
X139424825Y-60238245D01*
X139303219Y-60173245D01*
X139196630Y-60085770D01*
X139109155Y-59979181D01*
X139044155Y-59857575D01*
X139004128Y-59725624D01*
X138990613Y-59588400D01*
X139004128Y-59451176D01*
X139044155Y-59319225D01*
X139109155Y-59197619D01*
X139196630Y-59091030D01*
X139303219Y-59003555D01*
X139424825Y-58938555D01*
X139556776Y-58898528D01*
X139659610Y-58888400D01*
X140728390Y-58888400D01*
X140831224Y-58898528D01*
X140831224Y-58898528D01*
G37*
G36*
X144221738Y-57685053D02*
X144263598Y-57693379D01*
X144275345Y-57698245D01*
X144381890Y-57742377D01*
X144488354Y-57813514D01*
X144578886Y-57904046D01*
X144650023Y-58010510D01*
X144699021Y-58128803D01*
X144724000Y-58254379D01*
X144724000Y-58382421D01*
X144699021Y-58507997D01*
X144650023Y-58626290D01*
X144578886Y-58732754D01*
X144488354Y-58823286D01*
X144381890Y-58894423D01*
X144298245Y-58929070D01*
X144263598Y-58943421D01*
X144221738Y-58951747D01*
X144138021Y-58968400D01*
X144009979Y-58968400D01*
X143926262Y-58951747D01*
X143884402Y-58943421D01*
X143849755Y-58929070D01*
X143766110Y-58894423D01*
X143659646Y-58823286D01*
X143569114Y-58732754D01*
X143497977Y-58626290D01*
X143448979Y-58507997D01*
X143424000Y-58382421D01*
X143424000Y-58254379D01*
X143448979Y-58128803D01*
X143497977Y-58010510D01*
X143569114Y-57904046D01*
X143659646Y-57813514D01*
X143766110Y-57742377D01*
X143872655Y-57698245D01*
X143884402Y-57693379D01*
X143926262Y-57685053D01*
X144009979Y-57668400D01*
X144138021Y-57668400D01*
X144221738Y-57685053D01*
X144221738Y-57685053D01*
G37*
G36*
X140831224Y-56358528D02*
X140963175Y-56398555D01*
X141084781Y-56463555D01*
X141191370Y-56551030D01*
X141278845Y-56657619D01*
X141343845Y-56779225D01*
X141383872Y-56911176D01*
X141397387Y-57048400D01*
X141383872Y-57185624D01*
X141343845Y-57317575D01*
X141278845Y-57439181D01*
X141191370Y-57545770D01*
X141084781Y-57633245D01*
X140963175Y-57698245D01*
X140831224Y-57738272D01*
X140728390Y-57748400D01*
X139659610Y-57748400D01*
X139556776Y-57738272D01*
X139424825Y-57698245D01*
X139303219Y-57633245D01*
X139196630Y-57545770D01*
X139109155Y-57439181D01*
X139044155Y-57317575D01*
X139004128Y-57185624D01*
X138990613Y-57048400D01*
X139004128Y-56911176D01*
X139044155Y-56779225D01*
X139109155Y-56657619D01*
X139196630Y-56551030D01*
X139303219Y-56463555D01*
X139424825Y-56398555D01*
X139556776Y-56358528D01*
X139659610Y-56348400D01*
X140728390Y-56348400D01*
X140831224Y-56358528D01*
X140831224Y-56358528D01*
G37*
G36*
X148591224Y-56358528D02*
X148723175Y-56398555D01*
X148844781Y-56463555D01*
X148951370Y-56551030D01*
X149038845Y-56657619D01*
X149103845Y-56779225D01*
X149143872Y-56911176D01*
X149157387Y-57048400D01*
X149143872Y-57185624D01*
X149103845Y-57317575D01*
X149038845Y-57439181D01*
X148951370Y-57545770D01*
X148844781Y-57633245D01*
X148723175Y-57698245D01*
X148591224Y-57738272D01*
X148488390Y-57748400D01*
X147419610Y-57748400D01*
X147316776Y-57738272D01*
X147184825Y-57698245D01*
X147063219Y-57633245D01*
X146956630Y-57545770D01*
X146869155Y-57439181D01*
X146804155Y-57317575D01*
X146764128Y-57185624D01*
X146750613Y-57048400D01*
X146764128Y-56911176D01*
X146804155Y-56779225D01*
X146869155Y-56657619D01*
X146956630Y-56551030D01*
X147063219Y-56463555D01*
X147184825Y-56398555D01*
X147316776Y-56358528D01*
X147419610Y-56348400D01*
X148488390Y-56348400D01*
X148591224Y-56358528D01*
X148591224Y-56358528D01*
G37*
G36*
X189333707Y-55027596D02*
X189410836Y-55035193D01*
X189542787Y-55075220D01*
X189608763Y-55095233D01*
X189791172Y-55192733D01*
X189951054Y-55323946D01*
X190082267Y-55483828D01*
X190179767Y-55666237D01*
X190179767Y-55666238D01*
X190239807Y-55864164D01*
X190260080Y-56070000D01*
X190239807Y-56275836D01*
X190217795Y-56348400D01*
X190179767Y-56473763D01*
X190082267Y-56656172D01*
X189951054Y-56816054D01*
X189791172Y-56947267D01*
X189608763Y-57044767D01*
X189596786Y-57048400D01*
X189410836Y-57104807D01*
X189333707Y-57112404D01*
X189256580Y-57120000D01*
X189153420Y-57120000D01*
X189076293Y-57112404D01*
X188999164Y-57104807D01*
X188813214Y-57048400D01*
X188801237Y-57044767D01*
X188618828Y-56947267D01*
X188458946Y-56816054D01*
X188327733Y-56656172D01*
X188230233Y-56473763D01*
X188192205Y-56348400D01*
X188170193Y-56275836D01*
X188149920Y-56070000D01*
X188170193Y-55864164D01*
X188230233Y-55666238D01*
X188230233Y-55666237D01*
X188327733Y-55483828D01*
X188458946Y-55323946D01*
X188618828Y-55192733D01*
X188801237Y-55095233D01*
X188867213Y-55075220D01*
X188999164Y-55035193D01*
X189076293Y-55027596D01*
X189153420Y-55020000D01*
X189256580Y-55020000D01*
X189333707Y-55027596D01*
X189333707Y-55027596D01*
G37*
G36*
X169013707Y-55027596D02*
X169090836Y-55035193D01*
X169222787Y-55075220D01*
X169288763Y-55095233D01*
X169471172Y-55192733D01*
X169631054Y-55323946D01*
X169762267Y-55483828D01*
X169859767Y-55666237D01*
X169859767Y-55666238D01*
X169919807Y-55864164D01*
X169940080Y-56070000D01*
X169919807Y-56275836D01*
X169897795Y-56348400D01*
X169859767Y-56473763D01*
X169762267Y-56656172D01*
X169631054Y-56816054D01*
X169471172Y-56947267D01*
X169288763Y-57044767D01*
X169276786Y-57048400D01*
X169090836Y-57104807D01*
X169013707Y-57112404D01*
X168936580Y-57120000D01*
X168833420Y-57120000D01*
X168756293Y-57112404D01*
X168679164Y-57104807D01*
X168493214Y-57048400D01*
X168481237Y-57044767D01*
X168298828Y-56947267D01*
X168138946Y-56816054D01*
X168007733Y-56656172D01*
X167910233Y-56473763D01*
X167872205Y-56348400D01*
X167850193Y-56275836D01*
X167829920Y-56070000D01*
X167850193Y-55864164D01*
X167910233Y-55666238D01*
X167910233Y-55666237D01*
X168007733Y-55483828D01*
X168138946Y-55323946D01*
X168298828Y-55192733D01*
X168481237Y-55095233D01*
X168547213Y-55075220D01*
X168679164Y-55035193D01*
X168756293Y-55027596D01*
X168833420Y-55020000D01*
X168936580Y-55020000D01*
X169013707Y-55027596D01*
X169013707Y-55027596D01*
G37*
G36*
X186793707Y-55027596D02*
X186870836Y-55035193D01*
X187002787Y-55075220D01*
X187068763Y-55095233D01*
X187251172Y-55192733D01*
X187411054Y-55323946D01*
X187542267Y-55483828D01*
X187639767Y-55666237D01*
X187639767Y-55666238D01*
X187699807Y-55864164D01*
X187720080Y-56070000D01*
X187699807Y-56275836D01*
X187677795Y-56348400D01*
X187639767Y-56473763D01*
X187542267Y-56656172D01*
X187411054Y-56816054D01*
X187251172Y-56947267D01*
X187068763Y-57044767D01*
X187056786Y-57048400D01*
X186870836Y-57104807D01*
X186793707Y-57112404D01*
X186716580Y-57120000D01*
X186613420Y-57120000D01*
X186536293Y-57112404D01*
X186459164Y-57104807D01*
X186273214Y-57048400D01*
X186261237Y-57044767D01*
X186078828Y-56947267D01*
X185918946Y-56816054D01*
X185787733Y-56656172D01*
X185690233Y-56473763D01*
X185652205Y-56348400D01*
X185630193Y-56275836D01*
X185609920Y-56070000D01*
X185630193Y-55864164D01*
X185690233Y-55666238D01*
X185690233Y-55666237D01*
X185787733Y-55483828D01*
X185918946Y-55323946D01*
X186078828Y-55192733D01*
X186261237Y-55095233D01*
X186327213Y-55075220D01*
X186459164Y-55035193D01*
X186536293Y-55027596D01*
X186613420Y-55020000D01*
X186716580Y-55020000D01*
X186793707Y-55027596D01*
X186793707Y-55027596D01*
G37*
G36*
X184253707Y-55027596D02*
X184330836Y-55035193D01*
X184462787Y-55075220D01*
X184528763Y-55095233D01*
X184711172Y-55192733D01*
X184871054Y-55323946D01*
X185002267Y-55483828D01*
X185099767Y-55666237D01*
X185099767Y-55666238D01*
X185159807Y-55864164D01*
X185180080Y-56070000D01*
X185159807Y-56275836D01*
X185137795Y-56348400D01*
X185099767Y-56473763D01*
X185002267Y-56656172D01*
X184871054Y-56816054D01*
X184711172Y-56947267D01*
X184528763Y-57044767D01*
X184516786Y-57048400D01*
X184330836Y-57104807D01*
X184253707Y-57112404D01*
X184176580Y-57120000D01*
X184073420Y-57120000D01*
X183996293Y-57112404D01*
X183919164Y-57104807D01*
X183733214Y-57048400D01*
X183721237Y-57044767D01*
X183538828Y-56947267D01*
X183378946Y-56816054D01*
X183247733Y-56656172D01*
X183150233Y-56473763D01*
X183112205Y-56348400D01*
X183090193Y-56275836D01*
X183069920Y-56070000D01*
X183090193Y-55864164D01*
X183150233Y-55666238D01*
X183150233Y-55666237D01*
X183247733Y-55483828D01*
X183378946Y-55323946D01*
X183538828Y-55192733D01*
X183721237Y-55095233D01*
X183787213Y-55075220D01*
X183919164Y-55035193D01*
X183996293Y-55027596D01*
X184073420Y-55020000D01*
X184176580Y-55020000D01*
X184253707Y-55027596D01*
X184253707Y-55027596D01*
G37*
G36*
X181713707Y-55027596D02*
X181790836Y-55035193D01*
X181922787Y-55075220D01*
X181988763Y-55095233D01*
X182171172Y-55192733D01*
X182331054Y-55323946D01*
X182462267Y-55483828D01*
X182559767Y-55666237D01*
X182559767Y-55666238D01*
X182619807Y-55864164D01*
X182640080Y-56070000D01*
X182619807Y-56275836D01*
X182597795Y-56348400D01*
X182559767Y-56473763D01*
X182462267Y-56656172D01*
X182331054Y-56816054D01*
X182171172Y-56947267D01*
X181988763Y-57044767D01*
X181976786Y-57048400D01*
X181790836Y-57104807D01*
X181713707Y-57112404D01*
X181636580Y-57120000D01*
X181533420Y-57120000D01*
X181456293Y-57112404D01*
X181379164Y-57104807D01*
X181193214Y-57048400D01*
X181181237Y-57044767D01*
X180998828Y-56947267D01*
X180838946Y-56816054D01*
X180707733Y-56656172D01*
X180610233Y-56473763D01*
X180572205Y-56348400D01*
X180550193Y-56275836D01*
X180529920Y-56070000D01*
X180550193Y-55864164D01*
X180610233Y-55666238D01*
X180610233Y-55666237D01*
X180707733Y-55483828D01*
X180838946Y-55323946D01*
X180998828Y-55192733D01*
X181181237Y-55095233D01*
X181247213Y-55075220D01*
X181379164Y-55035193D01*
X181456293Y-55027596D01*
X181533420Y-55020000D01*
X181636580Y-55020000D01*
X181713707Y-55027596D01*
X181713707Y-55027596D01*
G37*
G36*
X179173707Y-55027596D02*
X179250836Y-55035193D01*
X179382787Y-55075220D01*
X179448763Y-55095233D01*
X179631172Y-55192733D01*
X179791054Y-55323946D01*
X179922267Y-55483828D01*
X180019767Y-55666237D01*
X180019767Y-55666238D01*
X180079807Y-55864164D01*
X180100080Y-56070000D01*
X180079807Y-56275836D01*
X180057795Y-56348400D01*
X180019767Y-56473763D01*
X179922267Y-56656172D01*
X179791054Y-56816054D01*
X179631172Y-56947267D01*
X179448763Y-57044767D01*
X179436786Y-57048400D01*
X179250836Y-57104807D01*
X179173707Y-57112404D01*
X179096580Y-57120000D01*
X178993420Y-57120000D01*
X178916293Y-57112404D01*
X178839164Y-57104807D01*
X178653214Y-57048400D01*
X178641237Y-57044767D01*
X178458828Y-56947267D01*
X178298946Y-56816054D01*
X178167733Y-56656172D01*
X178070233Y-56473763D01*
X178032205Y-56348400D01*
X178010193Y-56275836D01*
X177989920Y-56070000D01*
X178010193Y-55864164D01*
X178070233Y-55666238D01*
X178070233Y-55666237D01*
X178167733Y-55483828D01*
X178298946Y-55323946D01*
X178458828Y-55192733D01*
X178641237Y-55095233D01*
X178707213Y-55075220D01*
X178839164Y-55035193D01*
X178916293Y-55027596D01*
X178993420Y-55020000D01*
X179096580Y-55020000D01*
X179173707Y-55027596D01*
X179173707Y-55027596D01*
G37*
G36*
X176633707Y-55027596D02*
X176710836Y-55035193D01*
X176842787Y-55075220D01*
X176908763Y-55095233D01*
X177091172Y-55192733D01*
X177251054Y-55323946D01*
X177382267Y-55483828D01*
X177479767Y-55666237D01*
X177479767Y-55666238D01*
X177539807Y-55864164D01*
X177560080Y-56070000D01*
X177539807Y-56275836D01*
X177517795Y-56348400D01*
X177479767Y-56473763D01*
X177382267Y-56656172D01*
X177251054Y-56816054D01*
X177091172Y-56947267D01*
X176908763Y-57044767D01*
X176896786Y-57048400D01*
X176710836Y-57104807D01*
X176633707Y-57112404D01*
X176556580Y-57120000D01*
X176453420Y-57120000D01*
X176376293Y-57112404D01*
X176299164Y-57104807D01*
X176113214Y-57048400D01*
X176101237Y-57044767D01*
X175918828Y-56947267D01*
X175758946Y-56816054D01*
X175627733Y-56656172D01*
X175530233Y-56473763D01*
X175492205Y-56348400D01*
X175470193Y-56275836D01*
X175449920Y-56070000D01*
X175470193Y-55864164D01*
X175530233Y-55666238D01*
X175530233Y-55666237D01*
X175627733Y-55483828D01*
X175758946Y-55323946D01*
X175918828Y-55192733D01*
X176101237Y-55095233D01*
X176167213Y-55075220D01*
X176299164Y-55035193D01*
X176376293Y-55027596D01*
X176453420Y-55020000D01*
X176556580Y-55020000D01*
X176633707Y-55027596D01*
X176633707Y-55027596D01*
G37*
G36*
X174093707Y-55027596D02*
X174170836Y-55035193D01*
X174302787Y-55075220D01*
X174368763Y-55095233D01*
X174551172Y-55192733D01*
X174711054Y-55323946D01*
X174842267Y-55483828D01*
X174939767Y-55666237D01*
X174939767Y-55666238D01*
X174999807Y-55864164D01*
X175020080Y-56070000D01*
X174999807Y-56275836D01*
X174977795Y-56348400D01*
X174939767Y-56473763D01*
X174842267Y-56656172D01*
X174711054Y-56816054D01*
X174551172Y-56947267D01*
X174368763Y-57044767D01*
X174356786Y-57048400D01*
X174170836Y-57104807D01*
X174093707Y-57112404D01*
X174016580Y-57120000D01*
X173913420Y-57120000D01*
X173836293Y-57112404D01*
X173759164Y-57104807D01*
X173573214Y-57048400D01*
X173561237Y-57044767D01*
X173378828Y-56947267D01*
X173218946Y-56816054D01*
X173087733Y-56656172D01*
X172990233Y-56473763D01*
X172952205Y-56348400D01*
X172930193Y-56275836D01*
X172909920Y-56070000D01*
X172930193Y-55864164D01*
X172990233Y-55666238D01*
X172990233Y-55666237D01*
X173087733Y-55483828D01*
X173218946Y-55323946D01*
X173378828Y-55192733D01*
X173561237Y-55095233D01*
X173627213Y-55075220D01*
X173759164Y-55035193D01*
X173836293Y-55027596D01*
X173913420Y-55020000D01*
X174016580Y-55020000D01*
X174093707Y-55027596D01*
X174093707Y-55027596D01*
G37*
G36*
X171553707Y-55027596D02*
X171630836Y-55035193D01*
X171762787Y-55075220D01*
X171828763Y-55095233D01*
X172011172Y-55192733D01*
X172171054Y-55323946D01*
X172302267Y-55483828D01*
X172399767Y-55666237D01*
X172399767Y-55666238D01*
X172459807Y-55864164D01*
X172480080Y-56070000D01*
X172459807Y-56275836D01*
X172437795Y-56348400D01*
X172399767Y-56473763D01*
X172302267Y-56656172D01*
X172171054Y-56816054D01*
X172011172Y-56947267D01*
X171828763Y-57044767D01*
X171816786Y-57048400D01*
X171630836Y-57104807D01*
X171553707Y-57112404D01*
X171476580Y-57120000D01*
X171373420Y-57120000D01*
X171296293Y-57112404D01*
X171219164Y-57104807D01*
X171033214Y-57048400D01*
X171021237Y-57044767D01*
X170838828Y-56947267D01*
X170678946Y-56816054D01*
X170547733Y-56656172D01*
X170450233Y-56473763D01*
X170412205Y-56348400D01*
X170390193Y-56275836D01*
X170369920Y-56070000D01*
X170390193Y-55864164D01*
X170450233Y-55666238D01*
X170450233Y-55666237D01*
X170547733Y-55483828D01*
X170678946Y-55323946D01*
X170838828Y-55192733D01*
X171021237Y-55095233D01*
X171087213Y-55075220D01*
X171219164Y-55035193D01*
X171296293Y-55027596D01*
X171373420Y-55020000D01*
X171476580Y-55020000D01*
X171553707Y-55027596D01*
X171553707Y-55027596D01*
G37*
G36*
X166473707Y-55027596D02*
X166550836Y-55035193D01*
X166682787Y-55075220D01*
X166748763Y-55095233D01*
X166931172Y-55192733D01*
X167091054Y-55323946D01*
X167222267Y-55483828D01*
X167319767Y-55666237D01*
X167319767Y-55666238D01*
X167379807Y-55864164D01*
X167400080Y-56070000D01*
X167379807Y-56275836D01*
X167357795Y-56348400D01*
X167319767Y-56473763D01*
X167222267Y-56656172D01*
X167091054Y-56816054D01*
X166931172Y-56947267D01*
X166748763Y-57044767D01*
X166736786Y-57048400D01*
X166550836Y-57104807D01*
X166473707Y-57112404D01*
X166396580Y-57120000D01*
X166293420Y-57120000D01*
X166216293Y-57112404D01*
X166139164Y-57104807D01*
X165953214Y-57048400D01*
X165941237Y-57044767D01*
X165758828Y-56947267D01*
X165598946Y-56816054D01*
X165467733Y-56656172D01*
X165370233Y-56473763D01*
X165332205Y-56348400D01*
X165310193Y-56275836D01*
X165289920Y-56070000D01*
X165310193Y-55864164D01*
X165370233Y-55666238D01*
X165370233Y-55666237D01*
X165467733Y-55483828D01*
X165598946Y-55323946D01*
X165758828Y-55192733D01*
X165941237Y-55095233D01*
X166007213Y-55075220D01*
X166139164Y-55035193D01*
X166216293Y-55027596D01*
X166293420Y-55020000D01*
X166396580Y-55020000D01*
X166473707Y-55027596D01*
X166473707Y-55027596D01*
G37*
G36*
X157235000Y-57120000D02*
X155135000Y-57120000D01*
X155135000Y-55020000D01*
X157235000Y-55020000D01*
X157235000Y-57120000D01*
X157235000Y-57120000D01*
G37*
G36*
X158853707Y-55027596D02*
X158930836Y-55035193D01*
X159062787Y-55075220D01*
X159128763Y-55095233D01*
X159311172Y-55192733D01*
X159471054Y-55323946D01*
X159602267Y-55483828D01*
X159699767Y-55666237D01*
X159699767Y-55666238D01*
X159759807Y-55864164D01*
X159780080Y-56070000D01*
X159759807Y-56275836D01*
X159737795Y-56348400D01*
X159699767Y-56473763D01*
X159602267Y-56656172D01*
X159471054Y-56816054D01*
X159311172Y-56947267D01*
X159128763Y-57044767D01*
X159116786Y-57048400D01*
X158930836Y-57104807D01*
X158853707Y-57112404D01*
X158776580Y-57120000D01*
X158673420Y-57120000D01*
X158596293Y-57112404D01*
X158519164Y-57104807D01*
X158333214Y-57048400D01*
X158321237Y-57044767D01*
X158138828Y-56947267D01*
X157978946Y-56816054D01*
X157847733Y-56656172D01*
X157750233Y-56473763D01*
X157712205Y-56348400D01*
X157690193Y-56275836D01*
X157669920Y-56070000D01*
X157690193Y-55864164D01*
X157750233Y-55666238D01*
X157750233Y-55666237D01*
X157847733Y-55483828D01*
X157978946Y-55323946D01*
X158138828Y-55192733D01*
X158321237Y-55095233D01*
X158387213Y-55075220D01*
X158519164Y-55035193D01*
X158596293Y-55027596D01*
X158673420Y-55020000D01*
X158776580Y-55020000D01*
X158853707Y-55027596D01*
X158853707Y-55027596D01*
G37*
G36*
X161393707Y-55027596D02*
X161470836Y-55035193D01*
X161602787Y-55075220D01*
X161668763Y-55095233D01*
X161851172Y-55192733D01*
X162011054Y-55323946D01*
X162142267Y-55483828D01*
X162239767Y-55666237D01*
X162239767Y-55666238D01*
X162299807Y-55864164D01*
X162320080Y-56070000D01*
X162299807Y-56275836D01*
X162277795Y-56348400D01*
X162239767Y-56473763D01*
X162142267Y-56656172D01*
X162011054Y-56816054D01*
X161851172Y-56947267D01*
X161668763Y-57044767D01*
X161656786Y-57048400D01*
X161470836Y-57104807D01*
X161393707Y-57112404D01*
X161316580Y-57120000D01*
X161213420Y-57120000D01*
X161136293Y-57112404D01*
X161059164Y-57104807D01*
X160873214Y-57048400D01*
X160861237Y-57044767D01*
X160678828Y-56947267D01*
X160518946Y-56816054D01*
X160387733Y-56656172D01*
X160290233Y-56473763D01*
X160252205Y-56348400D01*
X160230193Y-56275836D01*
X160209920Y-56070000D01*
X160230193Y-55864164D01*
X160290233Y-55666238D01*
X160290233Y-55666237D01*
X160387733Y-55483828D01*
X160518946Y-55323946D01*
X160678828Y-55192733D01*
X160861237Y-55095233D01*
X160927213Y-55075220D01*
X161059164Y-55035193D01*
X161136293Y-55027596D01*
X161213420Y-55020000D01*
X161316580Y-55020000D01*
X161393707Y-55027596D01*
X161393707Y-55027596D01*
G37*
G36*
X163933707Y-55027596D02*
X164010836Y-55035193D01*
X164142787Y-55075220D01*
X164208763Y-55095233D01*
X164391172Y-55192733D01*
X164551054Y-55323946D01*
X164682267Y-55483828D01*
X164779767Y-55666237D01*
X164779767Y-55666238D01*
X164839807Y-55864164D01*
X164860080Y-56070000D01*
X164839807Y-56275836D01*
X164817795Y-56348400D01*
X164779767Y-56473763D01*
X164682267Y-56656172D01*
X164551054Y-56816054D01*
X164391172Y-56947267D01*
X164208763Y-57044767D01*
X164196786Y-57048400D01*
X164010836Y-57104807D01*
X163933707Y-57112404D01*
X163856580Y-57120000D01*
X163753420Y-57120000D01*
X163676293Y-57112404D01*
X163599164Y-57104807D01*
X163413214Y-57048400D01*
X163401237Y-57044767D01*
X163218828Y-56947267D01*
X163058946Y-56816054D01*
X162927733Y-56656172D01*
X162830233Y-56473763D01*
X162792205Y-56348400D01*
X162770193Y-56275836D01*
X162749920Y-56070000D01*
X162770193Y-55864164D01*
X162830233Y-55666238D01*
X162830233Y-55666237D01*
X162927733Y-55483828D01*
X163058946Y-55323946D01*
X163218828Y-55192733D01*
X163401237Y-55095233D01*
X163467213Y-55075220D01*
X163599164Y-55035193D01*
X163676293Y-55027596D01*
X163753420Y-55020000D01*
X163856580Y-55020000D01*
X163933707Y-55027596D01*
X163933707Y-55027596D01*
G37*
G36*
X197409122Y-51246115D02*
X197525041Y-51269173D01*
X197852620Y-51404861D01*
X198143511Y-51599228D01*
X198147436Y-51601851D01*
X198398149Y-51852564D01*
X198398151Y-51852567D01*
X198595139Y-52147380D01*
X198730827Y-52474959D01*
X198800000Y-52822716D01*
X198800000Y-53177284D01*
X198730827Y-53525041D01*
X198595139Y-53852620D01*
X198400772Y-54143511D01*
X198398149Y-54147436D01*
X198147436Y-54398149D01*
X198147433Y-54398151D01*
X197852620Y-54595139D01*
X197525041Y-54730827D01*
X197409122Y-54753885D01*
X197177286Y-54800000D01*
X196822714Y-54800000D01*
X196590878Y-54753885D01*
X196474959Y-54730827D01*
X196147380Y-54595139D01*
X195852567Y-54398151D01*
X195852564Y-54398149D01*
X195601851Y-54147436D01*
X195599228Y-54143511D01*
X195404861Y-53852620D01*
X195269173Y-53525041D01*
X195200000Y-53177284D01*
X195200000Y-52822716D01*
X195269173Y-52474959D01*
X195404861Y-52147380D01*
X195601849Y-51852567D01*
X195601851Y-51852564D01*
X195852564Y-51601851D01*
X195856489Y-51599228D01*
X196147380Y-51404861D01*
X196474959Y-51269173D01*
X196590878Y-51246115D01*
X196822714Y-51200000D01*
X197177286Y-51200000D01*
X197409122Y-51246115D01*
X197409122Y-51246115D01*
G37*
G36*
X103409122Y-51246115D02*
X103525041Y-51269173D01*
X103852620Y-51404861D01*
X104143511Y-51599228D01*
X104147436Y-51601851D01*
X104398149Y-51852564D01*
X104398151Y-51852567D01*
X104595139Y-52147380D01*
X104730827Y-52474959D01*
X104800000Y-52822716D01*
X104800000Y-53177284D01*
X104730827Y-53525041D01*
X104595139Y-53852620D01*
X104400772Y-54143511D01*
X104398149Y-54147436D01*
X104147436Y-54398149D01*
X104147433Y-54398151D01*
X103852620Y-54595139D01*
X103525041Y-54730827D01*
X103409122Y-54753885D01*
X103177286Y-54800000D01*
X102822714Y-54800000D01*
X102590878Y-54753885D01*
X102474959Y-54730827D01*
X102147380Y-54595139D01*
X101852567Y-54398151D01*
X101852564Y-54398149D01*
X101601851Y-54147436D01*
X101599228Y-54143511D01*
X101404861Y-53852620D01*
X101269173Y-53525041D01*
X101200000Y-53177284D01*
X101200000Y-52822716D01*
X101269173Y-52474959D01*
X101404861Y-52147380D01*
X101601849Y-51852567D01*
X101601851Y-51852564D01*
X101852564Y-51601851D01*
X101856489Y-51599228D01*
X102147380Y-51404861D01*
X102474959Y-51269173D01*
X102590878Y-51246115D01*
X102822714Y-51200000D01*
X103177286Y-51200000D01*
X103409122Y-51246115D01*
X103409122Y-51246115D01*
G37*
G36*
X147409122Y-51246115D02*
X147525041Y-51269173D01*
X147852620Y-51404861D01*
X148143511Y-51599228D01*
X148147436Y-51601851D01*
X148398149Y-51852564D01*
X148398151Y-51852567D01*
X148595139Y-52147380D01*
X148730827Y-52474959D01*
X148800000Y-52822716D01*
X148800000Y-53177284D01*
X148730827Y-53525041D01*
X148595139Y-53852620D01*
X148400772Y-54143511D01*
X148398149Y-54147436D01*
X148147436Y-54398149D01*
X148147433Y-54398151D01*
X147852620Y-54595139D01*
X147525041Y-54730827D01*
X147409122Y-54753885D01*
X147177286Y-54800000D01*
X146822714Y-54800000D01*
X146590878Y-54753885D01*
X146474959Y-54730827D01*
X146147380Y-54595139D01*
X145852567Y-54398151D01*
X145852564Y-54398149D01*
X145601851Y-54147436D01*
X145599228Y-54143511D01*
X145404861Y-53852620D01*
X145269173Y-53525041D01*
X145200000Y-53177284D01*
X145200000Y-52822716D01*
X145269173Y-52474959D01*
X145404861Y-52147380D01*
X145601849Y-51852567D01*
X145601851Y-51852564D01*
X145852564Y-51601851D01*
X145856489Y-51599228D01*
X146147380Y-51404861D01*
X146474959Y-51269173D01*
X146590878Y-51246115D01*
X146822714Y-51200000D01*
X147177286Y-51200000D01*
X147409122Y-51246115D01*
X147409122Y-51246115D01*
G37*
G36*
X107379196Y-51749958D02*
X107615780Y-51847954D01*
X107828705Y-51990226D01*
X108009774Y-52171295D01*
X108152046Y-52384220D01*
X108250042Y-52620804D01*
X108300000Y-52871960D01*
X108300000Y-53128040D01*
X108250042Y-53379196D01*
X108152046Y-53615780D01*
X108009774Y-53828705D01*
X107828705Y-54009774D01*
X107615780Y-54152046D01*
X107379196Y-54250042D01*
X107128040Y-54300000D01*
X106871960Y-54300000D01*
X106620804Y-54250042D01*
X106384220Y-54152046D01*
X106171295Y-54009774D01*
X105990226Y-53828705D01*
X105847954Y-53615780D01*
X105749958Y-53379196D01*
X105700000Y-53128040D01*
X105700000Y-52871960D01*
X105749958Y-52620804D01*
X105847954Y-52384220D01*
X105990226Y-52171295D01*
X106171295Y-51990226D01*
X106384220Y-51847954D01*
X106620804Y-51749958D01*
X106871960Y-51700000D01*
X107128040Y-51700000D01*
X107379196Y-51749958D01*
X107379196Y-51749958D01*
G37*
G36*
X143379196Y-51749958D02*
X143615780Y-51847954D01*
X143828705Y-51990226D01*
X144009774Y-52171295D01*
X144152046Y-52384220D01*
X144250042Y-52620804D01*
X144300000Y-52871960D01*
X144300000Y-53128040D01*
X144250042Y-53379196D01*
X144152046Y-53615780D01*
X144009774Y-53828705D01*
X143828705Y-54009774D01*
X143615780Y-54152046D01*
X143379196Y-54250042D01*
X143128040Y-54300000D01*
X142871960Y-54300000D01*
X142620804Y-54250042D01*
X142384220Y-54152046D01*
X142171295Y-54009774D01*
X141990226Y-53828705D01*
X141847954Y-53615780D01*
X141749958Y-53379196D01*
X141700000Y-53128040D01*
X141700000Y-52871960D01*
X141749958Y-52620804D01*
X141847954Y-52384220D01*
X141990226Y-52171295D01*
X142171295Y-51990226D01*
X142384220Y-51847954D01*
X142620804Y-51749958D01*
X142871960Y-51700000D01*
X143128040Y-51700000D01*
X143379196Y-51749958D01*
X143379196Y-51749958D01*
G37*
M02*
