G04 #@! TF.GenerationSoftware,KiCad,Pcbnew,5.0.2-bee76a0~70~ubuntu18.04.1*
G04 #@! TF.CreationDate,2018-12-02T18:05:12+09:00*
G04 #@! TF.ProjectId,M5StackSideBB,4d355374-6163-46b5-9369-646542422e6b,rev?*
G04 #@! TF.SameCoordinates,Original*
G04 #@! TF.FileFunction,Copper,L2,Bot*
G04 #@! TF.FilePolarity,Positive*
%FSLAX46Y46*%
G04 Gerber Fmt 4.6, Leading zero omitted, Abs format (unit mm)*
G04 Created by KiCad (PCBNEW 5.0.2-bee76a0~70~ubuntu18.04.1) date 2018年12月02日 18時05分12秒*
%MOMM*%
%LPD*%
G01*
G04 APERTURE LIST*
G04 #@! TA.AperFunction,ComponentPad*
%ADD10C,1.700000*%
G04 #@! TD*
G04 #@! TA.AperFunction,SMDPad,CuDef*
%ADD11R,3.000000X1.000000*%
G04 #@! TD*
G04 #@! TA.AperFunction,ComponentPad*
%ADD12O,1.700000X1.700000*%
G04 #@! TD*
G04 #@! TA.AperFunction,ComponentPad*
%ADD13R,1.700000X1.700000*%
G04 #@! TD*
G04 #@! TA.AperFunction,ViaPad*
%ADD14C,0.800000*%
G04 #@! TD*
G04 #@! TA.AperFunction,Conductor*
%ADD15C,0.250000*%
G04 #@! TD*
G04 #@! TA.AperFunction,Conductor*
%ADD16C,0.254000*%
G04 #@! TD*
G04 APERTURE END LIST*
D10*
G04 #@! TO.P,J3,5*
G04 #@! TO.N,RST*
X139394000Y-62138400D03*
G04 #@! TO.P,J3,25*
G04 #@! TO.N,G34*
X139394000Y-87528400D03*
G04 #@! TO.P,J3,6*
G04 #@! TO.N,GND*
X148754000Y-62138400D03*
G04 #@! TO.P,J3,26*
G04 #@! TO.N,HPWR*
X148754000Y-87518400D03*
G04 #@! TD*
D11*
G04 #@! TO.P,J4,30*
G04 #@! TO.N,HPWR*
X146594000Y-92608400D03*
G04 #@! TO.P,J4,29*
G04 #@! TO.N,+BATT*
X141554000Y-92608400D03*
G04 #@! TO.P,J4,28*
G04 #@! TO.N,HPWR*
X146594000Y-90068400D03*
G04 #@! TO.P,J4,27*
G04 #@! TO.N,+5V*
X141554000Y-90068400D03*
G04 #@! TO.P,J4,26*
G04 #@! TO.N,HPWR*
X146594000Y-87528400D03*
G04 #@! TO.P,J4,25*
G04 #@! TO.N,G34*
X141554000Y-87528400D03*
G04 #@! TO.P,J4,24*
G04 #@! TO.N,G15*
X146594000Y-84988400D03*
G04 #@! TO.P,J4,23*
G04 #@! TO.N,G0*
X141554000Y-84988400D03*
G04 #@! TO.P,J4,22*
G04 #@! TO.N,G12*
X146594000Y-82448400D03*
G04 #@! TO.P,J4,21*
G04 #@! TO.N,G13*
X141554000Y-82448400D03*
G04 #@! TO.P,J4,20*
G04 #@! TO.N,G2*
X146594000Y-79908400D03*
G04 #@! TO.P,J4,19*
G04 #@! TO.N,G5*
X141554000Y-79908400D03*
G04 #@! TO.P,J4,18*
G04 #@! TO.N,G21*
X146594000Y-77368400D03*
G04 #@! TO.P,J4,17*
G04 #@! TO.N,G22*
X141554000Y-77368400D03*
G04 #@! TO.P,J4,16*
G04 #@! TO.N,G16*
X146594000Y-74828400D03*
G04 #@! TO.P,J4,15*
G04 #@! TO.N,G17*
X141554000Y-74828400D03*
G04 #@! TO.P,J4,14*
G04 #@! TO.N,G3*
X146594000Y-72288400D03*
G04 #@! TO.P,J4,13*
G04 #@! TO.N,G1*
X141554000Y-72288400D03*
G04 #@! TO.P,J4,12*
G04 #@! TO.N,G18*
X146594000Y-69748400D03*
G04 #@! TO.P,J4,11*
G04 #@! TO.N,+3V3*
X141554000Y-69748400D03*
G04 #@! TO.P,J4,10*
G04 #@! TO.N,G19*
X146594000Y-67208400D03*
G04 #@! TO.P,J4,9*
G04 #@! TO.N,G26*
X141554000Y-67208400D03*
G04 #@! TO.P,J4,8*
G04 #@! TO.N,G23*
X146594000Y-64668400D03*
G04 #@! TO.P,J4,7*
G04 #@! TO.N,G25*
X141554000Y-64668400D03*
G04 #@! TO.P,J4,6*
G04 #@! TO.N,GND*
X146594000Y-62128400D03*
G04 #@! TO.P,J4,5*
G04 #@! TO.N,RST*
X141554000Y-62128400D03*
G04 #@! TO.P,J4,4*
G04 #@! TO.N,GND*
X146594000Y-59588400D03*
G04 #@! TO.P,J4,3*
G04 #@! TO.N,G36*
X141554000Y-59588400D03*
G04 #@! TO.P,J4,2*
G04 #@! TO.N,GND*
X146594000Y-57048400D03*
G04 #@! TO.P,J4,1*
G04 #@! TO.N,G35*
X141554000Y-57048400D03*
G04 #@! TD*
D12*
G04 #@! TO.P,J1,11*
G04 #@! TO.N,GND*
X156185000Y-56070000D03*
G04 #@! TO.P,J1,10*
G04 #@! TO.N,+5V*
X158725000Y-56070000D03*
G04 #@! TO.P,J1,9*
G04 #@! TO.N,+3V3*
X161265000Y-56070000D03*
G04 #@! TO.P,J1,8*
G04 #@! TO.N,+BATT*
X163805000Y-56070000D03*
G04 #@! TO.P,J1,7*
G04 #@! TO.N,RST*
X166345000Y-56070000D03*
G04 #@! TO.P,J1,6*
G04 #@! TO.N,G36*
X168885000Y-56070000D03*
G04 #@! TO.P,J1,5*
G04 #@! TO.N,G35*
X171425000Y-56070000D03*
G04 #@! TO.P,J1,4*
G04 #@! TO.N,G26*
X173965000Y-56070000D03*
G04 #@! TO.P,J1,3*
G04 #@! TO.N,G25*
X176505000Y-56070000D03*
G04 #@! TO.P,J1,2*
G04 #@! TO.N,G5*
X179045000Y-56070000D03*
D13*
G04 #@! TO.P,J1,1*
G04 #@! TO.N,G2*
X181585000Y-56070000D03*
G04 #@! TD*
G04 #@! TO.P,J2,1*
G04 #@! TO.N,G3*
X156185000Y-94170000D03*
D12*
G04 #@! TO.P,J2,2*
G04 #@! TO.N,G1*
X158725000Y-94170000D03*
G04 #@! TO.P,J2,3*
G04 #@! TO.N,G16*
X161265000Y-94170000D03*
G04 #@! TO.P,J2,4*
G04 #@! TO.N,G17*
X163805000Y-94170000D03*
G04 #@! TO.P,J2,5*
G04 #@! TO.N,G18*
X166345000Y-94170000D03*
G04 #@! TO.P,J2,6*
G04 #@! TO.N,G19*
X168885000Y-94170000D03*
G04 #@! TO.P,J2,7*
G04 #@! TO.N,G21*
X171425000Y-94170000D03*
G04 #@! TO.P,J2,8*
G04 #@! TO.N,G22*
X173965000Y-94170000D03*
G04 #@! TO.P,J2,9*
G04 #@! TO.N,G23*
X176505000Y-94170000D03*
G04 #@! TO.P,J2,10*
G04 #@! TO.N,+3V3*
X179045000Y-94170000D03*
G04 #@! TO.P,J2,11*
G04 #@! TO.N,GND*
X181585000Y-94170000D03*
G04 #@! TD*
D14*
G04 #@! TO.N,GND*
X150076444Y-62196362D03*
X152730853Y-62281453D03*
X163906200Y-75387200D03*
X157022800Y-64668400D03*
X148754000Y-59608400D03*
X148754000Y-57048400D03*
X146599000Y-62128400D03*
X151790400Y-54000400D03*
X135940800Y-51257200D03*
X180527960Y-59502040D03*
G04 #@! TO.N,G23*
X149790500Y-65574500D03*
G04 #@! TO.N,G19*
X150239000Y-67379700D03*
G04 #@! TO.N,G18*
X149705300Y-68757500D03*
G04 #@! TO.N,G3*
X149453100Y-73584400D03*
G04 #@! TO.N,G16*
X150321300Y-74843200D03*
G04 #@! TO.N,G21*
X149501500Y-78628400D03*
G04 #@! TO.N,G2*
X144376300Y-79915200D03*
G04 #@! TO.N,G12*
X144382900Y-82078700D03*
G04 #@! TO.N,G15*
X144382900Y-85071000D03*
G04 #@! TO.N,HPWR*
X147156600Y-91338400D03*
G04 #@! TO.N,+BATT*
X137587700Y-91523500D03*
G04 #@! TO.N,+5V*
X141122300Y-91338400D03*
G04 #@! TO.N,G34*
X142878300Y-86201100D03*
G04 #@! TO.N,G0*
X140636100Y-86259600D03*
G04 #@! TO.N,G13*
X141680000Y-83571700D03*
G04 #@! TO.N,G5*
X142891400Y-78638400D03*
G04 #@! TO.N,G22*
X140633600Y-78634600D03*
G04 #@! TO.N,G17*
X141127300Y-73698600D03*
G04 #@! TO.N,G1*
X144074000Y-72023600D03*
G04 #@! TO.N,G26*
X144136500Y-67116900D03*
G04 #@! TO.N,G25*
X143784800Y-64017900D03*
G04 #@! TO.N,G35*
X141549000Y-57048400D03*
G04 #@! TO.N,+3V3*
X143853400Y-69964900D03*
G04 #@! TD*
D15*
G04 #@! TO.N,GND*
X146894000Y-57048400D02*
X148644000Y-57048400D01*
X152730853Y-62281453D02*
X163906200Y-73456800D01*
X163906200Y-73456800D02*
X163906200Y-75387200D01*
X152730853Y-62281453D02*
X154635853Y-62281453D01*
X154635853Y-62281453D02*
X157022800Y-64668400D01*
X146614000Y-59608400D02*
X146594000Y-59588400D01*
X148754000Y-59608400D02*
X146614000Y-59608400D01*
X180576122Y-52776120D02*
X181063802Y-53263800D01*
X153014680Y-52776120D02*
X180576122Y-52776120D01*
X153014680Y-52776120D02*
X151790400Y-54000400D01*
X153187400Y-52603400D02*
X153014680Y-52776120D01*
X181063802Y-53263800D02*
X183306720Y-53263800D01*
X183306720Y-53263800D02*
X184795160Y-54752240D01*
X184795160Y-54752240D02*
X184795160Y-57531000D01*
X184795160Y-57531000D02*
X182824120Y-59502040D01*
X182824120Y-59502040D02*
X180527960Y-59502040D01*
G04 #@! TO.N,G23*
X149790500Y-65574500D02*
X176505000Y-92289000D01*
X176505000Y-92289000D02*
X176505000Y-94170000D01*
X148419300Y-64668400D02*
X149325400Y-65574500D01*
X149325400Y-65574500D02*
X149790500Y-65574500D01*
X146594000Y-64668400D02*
X148419300Y-64668400D01*
G04 #@! TO.N,G19*
X146594000Y-67208400D02*
X148419300Y-67208400D01*
X150239000Y-67379700D02*
X150067700Y-67208400D01*
X150067700Y-67208400D02*
X148419300Y-67208400D01*
X168885000Y-94170000D02*
X168885000Y-86025700D01*
X168885000Y-86025700D02*
X150239000Y-67379700D01*
G04 #@! TO.N,G18*
X149705300Y-68885000D02*
X149282700Y-68885000D01*
X149282700Y-68885000D02*
X148419300Y-69748400D01*
X166345000Y-94170000D02*
X166345000Y-85524700D01*
X166345000Y-85524700D02*
X149705300Y-68885000D01*
X149705300Y-68885000D02*
X149705300Y-68757500D01*
X146594000Y-69748400D02*
X148419300Y-69748400D01*
G04 #@! TO.N,G3*
X156185000Y-94170000D02*
X156185000Y-92994700D01*
X149453100Y-73584400D02*
X150088300Y-73584400D01*
X150088300Y-73584400D02*
X156185000Y-79681100D01*
X156185000Y-79681100D02*
X156185000Y-92994700D01*
X148419300Y-72288400D02*
X148419300Y-72550600D01*
X148419300Y-72550600D02*
X149453100Y-73584400D01*
X146594000Y-72288400D02*
X148419300Y-72288400D01*
G04 #@! TO.N,G16*
X150321300Y-74843200D02*
X148434100Y-74843200D01*
X148434100Y-74843200D02*
X148419300Y-74828400D01*
X146594000Y-74828400D02*
X148419300Y-74828400D01*
X150321300Y-75408885D02*
X150321300Y-74843200D01*
X150379011Y-75466596D02*
X150321300Y-75408885D01*
X160089700Y-94537300D02*
X159281600Y-95345400D01*
X161265000Y-94170000D02*
X160089700Y-94170000D01*
X150379011Y-90551101D02*
X150379011Y-75466596D01*
X159281600Y-95345400D02*
X155173310Y-95345400D01*
X160089700Y-94170000D02*
X160089700Y-94537300D01*
X155173310Y-95345400D02*
X150379011Y-90551101D01*
G04 #@! TO.N,G21*
X149501500Y-78628400D02*
X149501500Y-78450600D01*
X149501500Y-78450600D02*
X148419300Y-77368400D01*
X170249700Y-94170000D02*
X170249700Y-94537300D01*
X170249700Y-94537300D02*
X168979800Y-95807200D01*
X168979800Y-95807200D02*
X154998700Y-95807200D01*
X146594000Y-77368400D02*
X148419300Y-77368400D01*
X171425000Y-94170000D02*
X170249700Y-94170000D01*
X149929001Y-79055901D02*
X149901499Y-79028399D01*
X149929001Y-90737501D02*
X149929001Y-79055901D01*
X149901499Y-79028399D02*
X149501500Y-78628400D01*
X154998700Y-95807200D02*
X149929001Y-90737501D01*
G04 #@! TO.N,G2*
X144376300Y-79915200D02*
X144761900Y-79915200D01*
X144761900Y-79915200D02*
X144768700Y-79908400D01*
X146594000Y-79908400D02*
X144768700Y-79908400D01*
G04 #@! TO.N,G12*
X146594000Y-82448400D02*
X144768700Y-82448400D01*
X144382900Y-82078700D02*
X144399000Y-82078700D01*
X144399000Y-82078700D02*
X144768700Y-82448400D01*
G04 #@! TO.N,G15*
X146594000Y-84988400D02*
X144768700Y-84988400D01*
X144382900Y-85071000D02*
X144686100Y-85071000D01*
X144686100Y-85071000D02*
X144768700Y-84988400D01*
G04 #@! TO.N,HPWR*
X147156600Y-91338400D02*
X148419300Y-92601100D01*
X148419300Y-92601100D02*
X148419300Y-92608400D01*
X146894000Y-90068400D02*
X147156600Y-90331000D01*
X147156600Y-90331000D02*
X147156600Y-91338400D01*
X146594000Y-87528400D02*
X148419300Y-87528400D01*
X148419300Y-87528400D02*
X148419300Y-88696600D01*
X148419300Y-88696600D02*
X147371000Y-89744900D01*
X146894000Y-90068400D02*
X147694000Y-90068400D01*
X147694000Y-90068400D02*
X147371000Y-89744900D01*
X146894000Y-90068400D02*
X146594000Y-90068400D01*
X146594000Y-92608400D02*
X148419300Y-92608400D01*
G04 #@! TO.N,+BATT*
X141554000Y-92608400D02*
X138672600Y-92608400D01*
X138672600Y-92608400D02*
X137587700Y-91523500D01*
X163805000Y-56070000D02*
X162629700Y-56070000D01*
X162629700Y-56070000D02*
X162629700Y-55702700D01*
X162629700Y-55702700D02*
X161801500Y-54874500D01*
X161801500Y-54874500D02*
X155704300Y-54874500D01*
X155704300Y-54874500D02*
X149567200Y-61011600D01*
X140807300Y-62953800D02*
X144005200Y-62953800D01*
X144005200Y-62953800D02*
X144028160Y-62976760D01*
X137587700Y-66173400D02*
X137587700Y-91523500D01*
X140807300Y-62953800D02*
X137587700Y-66173400D01*
X145173999Y-60963399D02*
X144005200Y-62132198D01*
X144005200Y-62132198D02*
X144005200Y-62953800D01*
X149518999Y-60963399D02*
X145173999Y-60963399D01*
X149567200Y-61011600D02*
X149518999Y-60963399D01*
G04 #@! TO.N,+5V*
X141122300Y-91338400D02*
X141374000Y-91086700D01*
X141374000Y-91086700D02*
X141374000Y-90068400D01*
X141554000Y-90068400D02*
X141374000Y-90068400D01*
X141854000Y-90068400D02*
X141554000Y-90068400D01*
X140722301Y-90938401D02*
X141122300Y-91338400D01*
X138218999Y-88435099D02*
X140722301Y-90938401D01*
X144729600Y-64102500D02*
X142767700Y-66064400D01*
X157549700Y-56070000D02*
X157549700Y-56437300D01*
X157549700Y-56437300D02*
X150563600Y-63423400D01*
X142767700Y-66064400D02*
X140224300Y-66064400D01*
X150563600Y-63423400D02*
X145288900Y-63423400D01*
X140224300Y-66064400D02*
X138218999Y-68069701D01*
X145288900Y-63423400D02*
X144729600Y-63982700D01*
X138218999Y-68069701D02*
X138218999Y-88435099D01*
X158725000Y-56070000D02*
X157549700Y-56070000D01*
X144729600Y-63982700D02*
X144729600Y-64102500D01*
G04 #@! TO.N,G34*
X141554000Y-87528400D02*
X143379300Y-87528400D01*
X142878300Y-86201100D02*
X143379300Y-86702100D01*
X143379300Y-86702100D02*
X143379300Y-87528400D01*
G04 #@! TO.N,G0*
X141554000Y-84988400D02*
X139728700Y-84988400D01*
X140636100Y-86259600D02*
X140277700Y-86259600D01*
X140277700Y-86259600D02*
X139728700Y-85710600D01*
X139728700Y-85710600D02*
X139728700Y-84988400D01*
G04 #@! TO.N,G13*
X141680000Y-83571700D02*
X141680000Y-82574400D01*
X141680000Y-82574400D02*
X141554000Y-82448400D01*
G04 #@! TO.N,G5*
X141554000Y-79908400D02*
X143379300Y-79908400D01*
X142891400Y-78638400D02*
X143379300Y-79126300D01*
X143379300Y-79126300D02*
X143379300Y-79908400D01*
G04 #@! TO.N,G22*
X141554000Y-77368400D02*
X139728700Y-77368400D01*
X140633600Y-78634600D02*
X140272700Y-78634600D01*
X140272700Y-78634600D02*
X139728700Y-78090600D01*
X139728700Y-78090600D02*
X139728700Y-77368400D01*
G04 #@! TO.N,G17*
X140777400Y-74048500D02*
X140777300Y-74048600D01*
X140777300Y-74048600D02*
X140777300Y-74260000D01*
X140777300Y-74260000D02*
X141345700Y-74828400D01*
X141127300Y-73698600D02*
X140777400Y-74048500D01*
X140777400Y-74048500D02*
X139727200Y-72998400D01*
X139727200Y-72998400D02*
X139727200Y-71614100D01*
X139727200Y-71614100D02*
X140342900Y-70998400D01*
X140342900Y-70998400D02*
X148849300Y-70998400D01*
X148849300Y-70998400D02*
X163805000Y-85954100D01*
X163805000Y-85954100D02*
X163805000Y-94170000D01*
X141554000Y-74828400D02*
X141345700Y-74828400D01*
G04 #@! TO.N,G1*
X158725000Y-94170000D02*
X158725000Y-92994700D01*
X144074000Y-72023600D02*
X144634500Y-71463100D01*
X144634500Y-71463100D02*
X148603900Y-71463100D01*
X148603900Y-71463100D02*
X158725000Y-81584200D01*
X158725000Y-81584200D02*
X158725000Y-92994700D01*
X143379300Y-72288400D02*
X143644100Y-72023600D01*
X143644100Y-72023600D02*
X144074000Y-72023600D01*
X141554000Y-72288400D02*
X143379300Y-72288400D01*
G04 #@! TO.N,G26*
X141554000Y-67208400D02*
X143379300Y-67208400D01*
X144136500Y-67116900D02*
X143470800Y-67116900D01*
X143470800Y-67116900D02*
X143379300Y-67208400D01*
G04 #@! TO.N,G25*
X141554000Y-64668400D02*
X143379300Y-64668400D01*
X143379300Y-64668400D02*
X143379300Y-64423400D01*
X143379300Y-64423400D02*
X143784800Y-64017900D01*
G04 #@! TO.N,RST*
X165169700Y-56070000D02*
X166345000Y-56070000D01*
X165169700Y-55702700D02*
X165169700Y-56070000D01*
X141554000Y-62128400D02*
X143599001Y-60083399D01*
X144834398Y-60413800D02*
X149116800Y-60413800D01*
X143599001Y-60083399D02*
X144503997Y-60083399D01*
X144503997Y-60083399D02*
X144834398Y-60413800D01*
X163851500Y-54384500D02*
X165169700Y-55702700D01*
X149116800Y-60413800D02*
X155146100Y-54384500D01*
X155146100Y-54384500D02*
X163851500Y-54384500D01*
X139404000Y-62128400D02*
X139394000Y-62138400D01*
X141554000Y-62128400D02*
X139404000Y-62128400D01*
G04 #@! TO.N,G36*
X168885000Y-56070000D02*
X167709700Y-56070000D01*
X167709700Y-56070000D02*
X167709700Y-55702700D01*
X167709700Y-55702700D02*
X165941100Y-53934100D01*
X165941100Y-53934100D02*
X153818700Y-53934100D01*
X153818700Y-53934100D02*
X149879000Y-57873800D01*
X149879000Y-57873800D02*
X145792800Y-57873800D01*
X145792800Y-57873800D02*
X144078200Y-59588400D01*
X144078200Y-59588400D02*
X141554000Y-59588400D01*
G04 #@! TO.N,+3V3*
X143853400Y-69964900D02*
X143595800Y-69964900D01*
X143595800Y-69964900D02*
X143379300Y-69748400D01*
X161265000Y-56070000D02*
X161265000Y-57245300D01*
X161265000Y-57245300D02*
X179045000Y-75025300D01*
X179045000Y-75025300D02*
X179045000Y-94170000D01*
X141554000Y-69748400D02*
X143379300Y-69748400D01*
G04 #@! TD*
D16*
G04 #@! TO.N,GND*
G36*
X147643175Y-50847265D02*
X147444569Y-50765000D01*
X146555431Y-50765000D01*
X145733974Y-51105259D01*
X145105259Y-51733974D01*
X144765000Y-52555431D01*
X144765000Y-53444569D01*
X145105259Y-54266026D01*
X145733974Y-54894741D01*
X146555431Y-55235000D01*
X147444569Y-55235000D01*
X148266026Y-54894741D01*
X148894741Y-54266026D01*
X149235000Y-53444569D01*
X149235000Y-52555431D01*
X149152736Y-52356827D01*
X149448510Y-52652602D01*
X149488119Y-52711881D01*
X149547398Y-52751490D01*
X149547399Y-52751491D01*
X149722971Y-52868805D01*
X150000000Y-52923909D01*
X150069926Y-52910000D01*
X152930076Y-52910000D01*
X153000000Y-52923909D01*
X153069924Y-52910000D01*
X153069926Y-52910000D01*
X153277028Y-52868805D01*
X153511881Y-52711881D01*
X153551494Y-52652596D01*
X155494092Y-50710000D01*
X197505910Y-50710000D01*
X197643175Y-50847265D01*
X197444569Y-50765000D01*
X196555431Y-50765000D01*
X195733974Y-51105259D01*
X195105259Y-51733974D01*
X194765000Y-52555431D01*
X194765000Y-53444569D01*
X195105259Y-54266026D01*
X195733974Y-54894741D01*
X196555431Y-55235000D01*
X197444569Y-55235000D01*
X198266026Y-54894741D01*
X198894741Y-54266026D01*
X199235000Y-53444569D01*
X199235000Y-52555431D01*
X199152736Y-52356827D01*
X199290000Y-52494092D01*
X199290001Y-97505907D01*
X199152736Y-97643173D01*
X199235000Y-97444569D01*
X199235000Y-96555431D01*
X198894741Y-95733974D01*
X198266026Y-95105259D01*
X197444569Y-94765000D01*
X196555431Y-94765000D01*
X195733974Y-95105259D01*
X195105259Y-95733974D01*
X194765000Y-96555431D01*
X194765000Y-97444569D01*
X195105259Y-98266026D01*
X195733974Y-98894741D01*
X196555431Y-99235000D01*
X197444569Y-99235000D01*
X197643175Y-99152735D01*
X197505910Y-99290000D01*
X155494092Y-99290000D01*
X153551494Y-97347404D01*
X153511881Y-97288119D01*
X153277028Y-97131195D01*
X153069926Y-97090000D01*
X153069924Y-97090000D01*
X153000000Y-97076091D01*
X152930076Y-97090000D01*
X150069926Y-97090000D01*
X150000000Y-97076091D01*
X149722971Y-97131195D01*
X149547399Y-97248509D01*
X149488119Y-97288119D01*
X149448510Y-97347398D01*
X149152736Y-97643173D01*
X149235000Y-97444569D01*
X149235000Y-96555431D01*
X148894741Y-95733974D01*
X148266026Y-95105259D01*
X147444569Y-94765000D01*
X146555431Y-94765000D01*
X145733974Y-95105259D01*
X145105259Y-95733974D01*
X144765000Y-96555431D01*
X144765000Y-97444569D01*
X145105259Y-98266026D01*
X145733974Y-98894741D01*
X146555431Y-99235000D01*
X147444569Y-99235000D01*
X147643175Y-99152735D01*
X147505910Y-99290000D01*
X102494092Y-99290000D01*
X102356827Y-99152736D01*
X102555431Y-99235000D01*
X103444569Y-99235000D01*
X104266026Y-98894741D01*
X104894741Y-98266026D01*
X105235000Y-97444569D01*
X105235000Y-96654887D01*
X105265000Y-96654887D01*
X105265000Y-97345113D01*
X105529138Y-97982799D01*
X106017201Y-98470862D01*
X106654887Y-98735000D01*
X107345113Y-98735000D01*
X107982799Y-98470862D01*
X108470862Y-97982799D01*
X108735000Y-97345113D01*
X108735000Y-96654887D01*
X141265000Y-96654887D01*
X141265000Y-97345113D01*
X141529138Y-97982799D01*
X142017201Y-98470862D01*
X142654887Y-98735000D01*
X143345113Y-98735000D01*
X143982799Y-98470862D01*
X144470862Y-97982799D01*
X144735000Y-97345113D01*
X144735000Y-96654887D01*
X144470862Y-96017201D01*
X143982799Y-95529138D01*
X143345113Y-95265000D01*
X142654887Y-95265000D01*
X142017201Y-95529138D01*
X141529138Y-96017201D01*
X141265000Y-96654887D01*
X108735000Y-96654887D01*
X108470862Y-96017201D01*
X107982799Y-95529138D01*
X107345113Y-95265000D01*
X106654887Y-95265000D01*
X106017201Y-95529138D01*
X105529138Y-96017201D01*
X105265000Y-96654887D01*
X105235000Y-96654887D01*
X105235000Y-96555431D01*
X104894741Y-95733974D01*
X104266026Y-95105259D01*
X103444569Y-94765000D01*
X102555431Y-94765000D01*
X101733974Y-95105259D01*
X101105259Y-95733974D01*
X100765000Y-96555431D01*
X100765000Y-97444569D01*
X100847265Y-97643175D01*
X100710000Y-97505910D01*
X100710000Y-91317626D01*
X136552700Y-91317626D01*
X136552700Y-91729374D01*
X136710269Y-92109780D01*
X137001420Y-92400931D01*
X137381826Y-92558500D01*
X137547898Y-92558500D01*
X138082273Y-93092875D01*
X138124671Y-93156329D01*
X138188124Y-93198727D01*
X138188126Y-93198729D01*
X138313502Y-93282502D01*
X138376063Y-93324304D01*
X138597748Y-93368400D01*
X138597752Y-93368400D01*
X138672599Y-93383288D01*
X138747446Y-93368400D01*
X139464018Y-93368400D01*
X139596191Y-93566209D01*
X139806235Y-93706557D01*
X140054000Y-93755840D01*
X143054000Y-93755840D01*
X143301765Y-93706557D01*
X143511809Y-93566209D01*
X143652157Y-93356165D01*
X143701440Y-93108400D01*
X143701440Y-92358476D01*
X143858180Y-92423400D01*
X144289820Y-92423400D01*
X144446560Y-92358476D01*
X144446560Y-93108400D01*
X144495843Y-93356165D01*
X144636191Y-93566209D01*
X144846235Y-93706557D01*
X145094000Y-93755840D01*
X148094000Y-93755840D01*
X148341765Y-93706557D01*
X148551809Y-93566209D01*
X148692157Y-93356165D01*
X148697780Y-93327896D01*
X148715837Y-93324304D01*
X148967229Y-93156329D01*
X149023419Y-93072235D01*
X149135204Y-92904937D01*
X149194189Y-92608400D01*
X149193462Y-92604747D01*
X149194188Y-92601099D01*
X149179300Y-92526252D01*
X149179300Y-92526248D01*
X149135204Y-92304563D01*
X149091666Y-92239404D01*
X149009629Y-92116626D01*
X149009627Y-92116624D01*
X148967229Y-92053171D01*
X148903776Y-92010773D01*
X148568353Y-91675351D01*
X148551809Y-91650591D01*
X148527049Y-91634047D01*
X148191600Y-91298598D01*
X148191600Y-91196426D01*
X148341765Y-91166557D01*
X148551809Y-91026209D01*
X148692157Y-90816165D01*
X148741440Y-90568400D01*
X148741440Y-89568400D01*
X148721674Y-89469028D01*
X148903773Y-89286929D01*
X148967229Y-89244529D01*
X149135204Y-88993137D01*
X149140685Y-88965582D01*
X149169001Y-88953853D01*
X149169001Y-90662654D01*
X149154113Y-90737501D01*
X149169001Y-90812348D01*
X149169001Y-90812352D01*
X149213097Y-91034037D01*
X149381072Y-91285430D01*
X149444531Y-91327832D01*
X154408371Y-96291673D01*
X154450771Y-96355129D01*
X154702163Y-96523104D01*
X154923848Y-96567200D01*
X154923852Y-96567200D01*
X154998699Y-96582088D01*
X155073546Y-96567200D01*
X168904953Y-96567200D01*
X168979800Y-96582088D01*
X169054647Y-96567200D01*
X169054652Y-96567200D01*
X169276337Y-96523104D01*
X169527729Y-96355129D01*
X169570131Y-96291670D01*
X170514311Y-95347491D01*
X170845582Y-95568839D01*
X171278744Y-95655000D01*
X171571256Y-95655000D01*
X172004418Y-95568839D01*
X172495625Y-95240625D01*
X172695000Y-94942239D01*
X172894375Y-95240625D01*
X173385582Y-95568839D01*
X173818744Y-95655000D01*
X174111256Y-95655000D01*
X174544418Y-95568839D01*
X175035625Y-95240625D01*
X175235000Y-94942239D01*
X175434375Y-95240625D01*
X175925582Y-95568839D01*
X176358744Y-95655000D01*
X176651256Y-95655000D01*
X177084418Y-95568839D01*
X177575625Y-95240625D01*
X177775000Y-94942239D01*
X177974375Y-95240625D01*
X178465582Y-95568839D01*
X178898744Y-95655000D01*
X179191256Y-95655000D01*
X179624418Y-95568839D01*
X180115625Y-95240625D01*
X180328843Y-94921522D01*
X180389817Y-95051358D01*
X180818076Y-95441645D01*
X181228110Y-95611476D01*
X181458000Y-95490155D01*
X181458000Y-94297000D01*
X181712000Y-94297000D01*
X181712000Y-95490155D01*
X181941890Y-95611476D01*
X182351924Y-95441645D01*
X182780183Y-95051358D01*
X183026486Y-94526892D01*
X182905819Y-94297000D01*
X181712000Y-94297000D01*
X181458000Y-94297000D01*
X181438000Y-94297000D01*
X181438000Y-94043000D01*
X181458000Y-94043000D01*
X181458000Y-92849845D01*
X181712000Y-92849845D01*
X181712000Y-94043000D01*
X182905819Y-94043000D01*
X183026486Y-93813108D01*
X182780183Y-93288642D01*
X182351924Y-92898355D01*
X181941890Y-92728524D01*
X181712000Y-92849845D01*
X181458000Y-92849845D01*
X181228110Y-92728524D01*
X180818076Y-92898355D01*
X180389817Y-93288642D01*
X180328843Y-93418478D01*
X180115625Y-93099375D01*
X179805000Y-92891822D01*
X179805000Y-75100146D01*
X179819888Y-75025299D01*
X179805000Y-74950452D01*
X179805000Y-74950448D01*
X179760904Y-74728763D01*
X179592929Y-74477371D01*
X179529473Y-74434971D01*
X162275380Y-57180879D01*
X162335625Y-57140625D01*
X162535000Y-56842239D01*
X162734375Y-57140625D01*
X163225582Y-57468839D01*
X163658744Y-57555000D01*
X163951256Y-57555000D01*
X164384418Y-57468839D01*
X164875625Y-57140625D01*
X165075000Y-56842239D01*
X165274375Y-57140625D01*
X165765582Y-57468839D01*
X166198744Y-57555000D01*
X166491256Y-57555000D01*
X166924418Y-57468839D01*
X167415625Y-57140625D01*
X167615000Y-56842239D01*
X167814375Y-57140625D01*
X168305582Y-57468839D01*
X168738744Y-57555000D01*
X169031256Y-57555000D01*
X169464418Y-57468839D01*
X169955625Y-57140625D01*
X170155000Y-56842239D01*
X170354375Y-57140625D01*
X170845582Y-57468839D01*
X171278744Y-57555000D01*
X171571256Y-57555000D01*
X172004418Y-57468839D01*
X172495625Y-57140625D01*
X172695000Y-56842239D01*
X172894375Y-57140625D01*
X173385582Y-57468839D01*
X173818744Y-57555000D01*
X174111256Y-57555000D01*
X174544418Y-57468839D01*
X175035625Y-57140625D01*
X175235000Y-56842239D01*
X175434375Y-57140625D01*
X175925582Y-57468839D01*
X176358744Y-57555000D01*
X176651256Y-57555000D01*
X177084418Y-57468839D01*
X177575625Y-57140625D01*
X177775000Y-56842239D01*
X177974375Y-57140625D01*
X178465582Y-57468839D01*
X178898744Y-57555000D01*
X179191256Y-57555000D01*
X179624418Y-57468839D01*
X180115625Y-57140625D01*
X180127816Y-57122381D01*
X180136843Y-57167765D01*
X180277191Y-57377809D01*
X180487235Y-57518157D01*
X180735000Y-57567440D01*
X182435000Y-57567440D01*
X182682765Y-57518157D01*
X182892809Y-57377809D01*
X183033157Y-57167765D01*
X183082440Y-56920000D01*
X183082440Y-55220000D01*
X183033157Y-54972235D01*
X182892809Y-54762191D01*
X182682765Y-54621843D01*
X182435000Y-54572560D01*
X180735000Y-54572560D01*
X180487235Y-54621843D01*
X180277191Y-54762191D01*
X180136843Y-54972235D01*
X180127816Y-55017619D01*
X180115625Y-54999375D01*
X179624418Y-54671161D01*
X179191256Y-54585000D01*
X178898744Y-54585000D01*
X178465582Y-54671161D01*
X177974375Y-54999375D01*
X177775000Y-55297761D01*
X177575625Y-54999375D01*
X177084418Y-54671161D01*
X176651256Y-54585000D01*
X176358744Y-54585000D01*
X175925582Y-54671161D01*
X175434375Y-54999375D01*
X175235000Y-55297761D01*
X175035625Y-54999375D01*
X174544418Y-54671161D01*
X174111256Y-54585000D01*
X173818744Y-54585000D01*
X173385582Y-54671161D01*
X172894375Y-54999375D01*
X172695000Y-55297761D01*
X172495625Y-54999375D01*
X172004418Y-54671161D01*
X171571256Y-54585000D01*
X171278744Y-54585000D01*
X170845582Y-54671161D01*
X170354375Y-54999375D01*
X170155000Y-55297761D01*
X169955625Y-54999375D01*
X169464418Y-54671161D01*
X169031256Y-54585000D01*
X168738744Y-54585000D01*
X168305582Y-54671161D01*
X167974311Y-54892509D01*
X166531431Y-53449630D01*
X166489029Y-53386171D01*
X166237637Y-53218196D01*
X166015952Y-53174100D01*
X166015947Y-53174100D01*
X165941100Y-53159212D01*
X165866253Y-53174100D01*
X153893546Y-53174100D01*
X153818699Y-53159212D01*
X153743852Y-53174100D01*
X153743848Y-53174100D01*
X153522163Y-53218196D01*
X153270771Y-53386171D01*
X153228371Y-53449627D01*
X149564199Y-57113800D01*
X145867648Y-57113800D01*
X145792800Y-57098912D01*
X145717952Y-57113800D01*
X145717948Y-57113800D01*
X145496263Y-57157896D01*
X145470066Y-57175400D01*
X144617750Y-57175400D01*
X144480689Y-57312461D01*
X144289820Y-57233400D01*
X143858180Y-57233400D01*
X143701440Y-57298324D01*
X143701440Y-56548400D01*
X143676316Y-56422090D01*
X144459000Y-56422090D01*
X144459000Y-56762650D01*
X144617750Y-56921400D01*
X146467000Y-56921400D01*
X146467000Y-56072150D01*
X146721000Y-56072150D01*
X146721000Y-56921400D01*
X148570250Y-56921400D01*
X148729000Y-56762650D01*
X148729000Y-56422090D01*
X148632327Y-56188701D01*
X148453698Y-56010073D01*
X148220309Y-55913400D01*
X146879750Y-55913400D01*
X146721000Y-56072150D01*
X146467000Y-56072150D01*
X146308250Y-55913400D01*
X144967691Y-55913400D01*
X144734302Y-56010073D01*
X144555673Y-56188701D01*
X144459000Y-56422090D01*
X143676316Y-56422090D01*
X143652157Y-56300635D01*
X143511809Y-56090591D01*
X143301765Y-55950243D01*
X143054000Y-55900960D01*
X140054000Y-55900960D01*
X139806235Y-55950243D01*
X139596191Y-56090591D01*
X139455843Y-56300635D01*
X139406560Y-56548400D01*
X139406560Y-57548400D01*
X139455843Y-57796165D01*
X139596191Y-58006209D01*
X139806235Y-58146557D01*
X140054000Y-58195840D01*
X142989000Y-58195840D01*
X142989000Y-58440960D01*
X140054000Y-58440960D01*
X139806235Y-58490243D01*
X139596191Y-58630591D01*
X139455843Y-58840635D01*
X139406560Y-59088400D01*
X139406560Y-60088400D01*
X139455843Y-60336165D01*
X139596191Y-60546209D01*
X139806235Y-60686557D01*
X140054000Y-60735840D01*
X141871759Y-60735840D01*
X141626639Y-60980960D01*
X140336667Y-60980960D01*
X140235185Y-60879478D01*
X139689385Y-60653400D01*
X139098615Y-60653400D01*
X138552815Y-60879478D01*
X138135078Y-61297215D01*
X137909000Y-61843015D01*
X137909000Y-62433785D01*
X138135078Y-62979585D01*
X138552815Y-63397322D01*
X139073360Y-63612939D01*
X137103230Y-65583069D01*
X137039771Y-65625471D01*
X136871796Y-65876864D01*
X136827700Y-66098549D01*
X136827700Y-66098553D01*
X136812812Y-66173400D01*
X136827700Y-66248247D01*
X136827701Y-90819788D01*
X136710269Y-90937220D01*
X136552700Y-91317626D01*
X100710000Y-91317626D01*
X100710000Y-52494090D01*
X100847265Y-52356825D01*
X100765000Y-52555431D01*
X100765000Y-53444569D01*
X101105259Y-54266026D01*
X101733974Y-54894741D01*
X102555431Y-55235000D01*
X103444569Y-55235000D01*
X104266026Y-54894741D01*
X104894741Y-54266026D01*
X105235000Y-53444569D01*
X105235000Y-52654887D01*
X105265000Y-52654887D01*
X105265000Y-53345113D01*
X105529138Y-53982799D01*
X106017201Y-54470862D01*
X106654887Y-54735000D01*
X107345113Y-54735000D01*
X107982799Y-54470862D01*
X108470862Y-53982799D01*
X108735000Y-53345113D01*
X108735000Y-52654887D01*
X141265000Y-52654887D01*
X141265000Y-53345113D01*
X141529138Y-53982799D01*
X142017201Y-54470862D01*
X142654887Y-54735000D01*
X143345113Y-54735000D01*
X143982799Y-54470862D01*
X144470862Y-53982799D01*
X144735000Y-53345113D01*
X144735000Y-52654887D01*
X144470862Y-52017201D01*
X143982799Y-51529138D01*
X143345113Y-51265000D01*
X142654887Y-51265000D01*
X142017201Y-51529138D01*
X141529138Y-52017201D01*
X141265000Y-52654887D01*
X108735000Y-52654887D01*
X108470862Y-52017201D01*
X107982799Y-51529138D01*
X107345113Y-51265000D01*
X106654887Y-51265000D01*
X106017201Y-51529138D01*
X105529138Y-52017201D01*
X105265000Y-52654887D01*
X105235000Y-52654887D01*
X105235000Y-52555431D01*
X104894741Y-51733974D01*
X104266026Y-51105259D01*
X103444569Y-50765000D01*
X102555431Y-50765000D01*
X102356827Y-50847264D01*
X102494092Y-50710000D01*
X147505910Y-50710000D01*
X147643175Y-50847265D01*
X147643175Y-50847265D01*
G37*
X147643175Y-50847265D02*
X147444569Y-50765000D01*
X146555431Y-50765000D01*
X145733974Y-51105259D01*
X145105259Y-51733974D01*
X144765000Y-52555431D01*
X144765000Y-53444569D01*
X145105259Y-54266026D01*
X145733974Y-54894741D01*
X146555431Y-55235000D01*
X147444569Y-55235000D01*
X148266026Y-54894741D01*
X148894741Y-54266026D01*
X149235000Y-53444569D01*
X149235000Y-52555431D01*
X149152736Y-52356827D01*
X149448510Y-52652602D01*
X149488119Y-52711881D01*
X149547398Y-52751490D01*
X149547399Y-52751491D01*
X149722971Y-52868805D01*
X150000000Y-52923909D01*
X150069926Y-52910000D01*
X152930076Y-52910000D01*
X153000000Y-52923909D01*
X153069924Y-52910000D01*
X153069926Y-52910000D01*
X153277028Y-52868805D01*
X153511881Y-52711881D01*
X153551494Y-52652596D01*
X155494092Y-50710000D01*
X197505910Y-50710000D01*
X197643175Y-50847265D01*
X197444569Y-50765000D01*
X196555431Y-50765000D01*
X195733974Y-51105259D01*
X195105259Y-51733974D01*
X194765000Y-52555431D01*
X194765000Y-53444569D01*
X195105259Y-54266026D01*
X195733974Y-54894741D01*
X196555431Y-55235000D01*
X197444569Y-55235000D01*
X198266026Y-54894741D01*
X198894741Y-54266026D01*
X199235000Y-53444569D01*
X199235000Y-52555431D01*
X199152736Y-52356827D01*
X199290000Y-52494092D01*
X199290001Y-97505907D01*
X199152736Y-97643173D01*
X199235000Y-97444569D01*
X199235000Y-96555431D01*
X198894741Y-95733974D01*
X198266026Y-95105259D01*
X197444569Y-94765000D01*
X196555431Y-94765000D01*
X195733974Y-95105259D01*
X195105259Y-95733974D01*
X194765000Y-96555431D01*
X194765000Y-97444569D01*
X195105259Y-98266026D01*
X195733974Y-98894741D01*
X196555431Y-99235000D01*
X197444569Y-99235000D01*
X197643175Y-99152735D01*
X197505910Y-99290000D01*
X155494092Y-99290000D01*
X153551494Y-97347404D01*
X153511881Y-97288119D01*
X153277028Y-97131195D01*
X153069926Y-97090000D01*
X153069924Y-97090000D01*
X153000000Y-97076091D01*
X152930076Y-97090000D01*
X150069926Y-97090000D01*
X150000000Y-97076091D01*
X149722971Y-97131195D01*
X149547399Y-97248509D01*
X149488119Y-97288119D01*
X149448510Y-97347398D01*
X149152736Y-97643173D01*
X149235000Y-97444569D01*
X149235000Y-96555431D01*
X148894741Y-95733974D01*
X148266026Y-95105259D01*
X147444569Y-94765000D01*
X146555431Y-94765000D01*
X145733974Y-95105259D01*
X145105259Y-95733974D01*
X144765000Y-96555431D01*
X144765000Y-97444569D01*
X145105259Y-98266026D01*
X145733974Y-98894741D01*
X146555431Y-99235000D01*
X147444569Y-99235000D01*
X147643175Y-99152735D01*
X147505910Y-99290000D01*
X102494092Y-99290000D01*
X102356827Y-99152736D01*
X102555431Y-99235000D01*
X103444569Y-99235000D01*
X104266026Y-98894741D01*
X104894741Y-98266026D01*
X105235000Y-97444569D01*
X105235000Y-96654887D01*
X105265000Y-96654887D01*
X105265000Y-97345113D01*
X105529138Y-97982799D01*
X106017201Y-98470862D01*
X106654887Y-98735000D01*
X107345113Y-98735000D01*
X107982799Y-98470862D01*
X108470862Y-97982799D01*
X108735000Y-97345113D01*
X108735000Y-96654887D01*
X141265000Y-96654887D01*
X141265000Y-97345113D01*
X141529138Y-97982799D01*
X142017201Y-98470862D01*
X142654887Y-98735000D01*
X143345113Y-98735000D01*
X143982799Y-98470862D01*
X144470862Y-97982799D01*
X144735000Y-97345113D01*
X144735000Y-96654887D01*
X144470862Y-96017201D01*
X143982799Y-95529138D01*
X143345113Y-95265000D01*
X142654887Y-95265000D01*
X142017201Y-95529138D01*
X141529138Y-96017201D01*
X141265000Y-96654887D01*
X108735000Y-96654887D01*
X108470862Y-96017201D01*
X107982799Y-95529138D01*
X107345113Y-95265000D01*
X106654887Y-95265000D01*
X106017201Y-95529138D01*
X105529138Y-96017201D01*
X105265000Y-96654887D01*
X105235000Y-96654887D01*
X105235000Y-96555431D01*
X104894741Y-95733974D01*
X104266026Y-95105259D01*
X103444569Y-94765000D01*
X102555431Y-94765000D01*
X101733974Y-95105259D01*
X101105259Y-95733974D01*
X100765000Y-96555431D01*
X100765000Y-97444569D01*
X100847265Y-97643175D01*
X100710000Y-97505910D01*
X100710000Y-91317626D01*
X136552700Y-91317626D01*
X136552700Y-91729374D01*
X136710269Y-92109780D01*
X137001420Y-92400931D01*
X137381826Y-92558500D01*
X137547898Y-92558500D01*
X138082273Y-93092875D01*
X138124671Y-93156329D01*
X138188124Y-93198727D01*
X138188126Y-93198729D01*
X138313502Y-93282502D01*
X138376063Y-93324304D01*
X138597748Y-93368400D01*
X138597752Y-93368400D01*
X138672599Y-93383288D01*
X138747446Y-93368400D01*
X139464018Y-93368400D01*
X139596191Y-93566209D01*
X139806235Y-93706557D01*
X140054000Y-93755840D01*
X143054000Y-93755840D01*
X143301765Y-93706557D01*
X143511809Y-93566209D01*
X143652157Y-93356165D01*
X143701440Y-93108400D01*
X143701440Y-92358476D01*
X143858180Y-92423400D01*
X144289820Y-92423400D01*
X144446560Y-92358476D01*
X144446560Y-93108400D01*
X144495843Y-93356165D01*
X144636191Y-93566209D01*
X144846235Y-93706557D01*
X145094000Y-93755840D01*
X148094000Y-93755840D01*
X148341765Y-93706557D01*
X148551809Y-93566209D01*
X148692157Y-93356165D01*
X148697780Y-93327896D01*
X148715837Y-93324304D01*
X148967229Y-93156329D01*
X149023419Y-93072235D01*
X149135204Y-92904937D01*
X149194189Y-92608400D01*
X149193462Y-92604747D01*
X149194188Y-92601099D01*
X149179300Y-92526252D01*
X149179300Y-92526248D01*
X149135204Y-92304563D01*
X149091666Y-92239404D01*
X149009629Y-92116626D01*
X149009627Y-92116624D01*
X148967229Y-92053171D01*
X148903776Y-92010773D01*
X148568353Y-91675351D01*
X148551809Y-91650591D01*
X148527049Y-91634047D01*
X148191600Y-91298598D01*
X148191600Y-91196426D01*
X148341765Y-91166557D01*
X148551809Y-91026209D01*
X148692157Y-90816165D01*
X148741440Y-90568400D01*
X148741440Y-89568400D01*
X148721674Y-89469028D01*
X148903773Y-89286929D01*
X148967229Y-89244529D01*
X149135204Y-88993137D01*
X149140685Y-88965582D01*
X149169001Y-88953853D01*
X149169001Y-90662654D01*
X149154113Y-90737501D01*
X149169001Y-90812348D01*
X149169001Y-90812352D01*
X149213097Y-91034037D01*
X149381072Y-91285430D01*
X149444531Y-91327832D01*
X154408371Y-96291673D01*
X154450771Y-96355129D01*
X154702163Y-96523104D01*
X154923848Y-96567200D01*
X154923852Y-96567200D01*
X154998699Y-96582088D01*
X155073546Y-96567200D01*
X168904953Y-96567200D01*
X168979800Y-96582088D01*
X169054647Y-96567200D01*
X169054652Y-96567200D01*
X169276337Y-96523104D01*
X169527729Y-96355129D01*
X169570131Y-96291670D01*
X170514311Y-95347491D01*
X170845582Y-95568839D01*
X171278744Y-95655000D01*
X171571256Y-95655000D01*
X172004418Y-95568839D01*
X172495625Y-95240625D01*
X172695000Y-94942239D01*
X172894375Y-95240625D01*
X173385582Y-95568839D01*
X173818744Y-95655000D01*
X174111256Y-95655000D01*
X174544418Y-95568839D01*
X175035625Y-95240625D01*
X175235000Y-94942239D01*
X175434375Y-95240625D01*
X175925582Y-95568839D01*
X176358744Y-95655000D01*
X176651256Y-95655000D01*
X177084418Y-95568839D01*
X177575625Y-95240625D01*
X177775000Y-94942239D01*
X177974375Y-95240625D01*
X178465582Y-95568839D01*
X178898744Y-95655000D01*
X179191256Y-95655000D01*
X179624418Y-95568839D01*
X180115625Y-95240625D01*
X180328843Y-94921522D01*
X180389817Y-95051358D01*
X180818076Y-95441645D01*
X181228110Y-95611476D01*
X181458000Y-95490155D01*
X181458000Y-94297000D01*
X181712000Y-94297000D01*
X181712000Y-95490155D01*
X181941890Y-95611476D01*
X182351924Y-95441645D01*
X182780183Y-95051358D01*
X183026486Y-94526892D01*
X182905819Y-94297000D01*
X181712000Y-94297000D01*
X181458000Y-94297000D01*
X181438000Y-94297000D01*
X181438000Y-94043000D01*
X181458000Y-94043000D01*
X181458000Y-92849845D01*
X181712000Y-92849845D01*
X181712000Y-94043000D01*
X182905819Y-94043000D01*
X183026486Y-93813108D01*
X182780183Y-93288642D01*
X182351924Y-92898355D01*
X181941890Y-92728524D01*
X181712000Y-92849845D01*
X181458000Y-92849845D01*
X181228110Y-92728524D01*
X180818076Y-92898355D01*
X180389817Y-93288642D01*
X180328843Y-93418478D01*
X180115625Y-93099375D01*
X179805000Y-92891822D01*
X179805000Y-75100146D01*
X179819888Y-75025299D01*
X179805000Y-74950452D01*
X179805000Y-74950448D01*
X179760904Y-74728763D01*
X179592929Y-74477371D01*
X179529473Y-74434971D01*
X162275380Y-57180879D01*
X162335625Y-57140625D01*
X162535000Y-56842239D01*
X162734375Y-57140625D01*
X163225582Y-57468839D01*
X163658744Y-57555000D01*
X163951256Y-57555000D01*
X164384418Y-57468839D01*
X164875625Y-57140625D01*
X165075000Y-56842239D01*
X165274375Y-57140625D01*
X165765582Y-57468839D01*
X166198744Y-57555000D01*
X166491256Y-57555000D01*
X166924418Y-57468839D01*
X167415625Y-57140625D01*
X167615000Y-56842239D01*
X167814375Y-57140625D01*
X168305582Y-57468839D01*
X168738744Y-57555000D01*
X169031256Y-57555000D01*
X169464418Y-57468839D01*
X169955625Y-57140625D01*
X170155000Y-56842239D01*
X170354375Y-57140625D01*
X170845582Y-57468839D01*
X171278744Y-57555000D01*
X171571256Y-57555000D01*
X172004418Y-57468839D01*
X172495625Y-57140625D01*
X172695000Y-56842239D01*
X172894375Y-57140625D01*
X173385582Y-57468839D01*
X173818744Y-57555000D01*
X174111256Y-57555000D01*
X174544418Y-57468839D01*
X175035625Y-57140625D01*
X175235000Y-56842239D01*
X175434375Y-57140625D01*
X175925582Y-57468839D01*
X176358744Y-57555000D01*
X176651256Y-57555000D01*
X177084418Y-57468839D01*
X177575625Y-57140625D01*
X177775000Y-56842239D01*
X177974375Y-57140625D01*
X178465582Y-57468839D01*
X178898744Y-57555000D01*
X179191256Y-57555000D01*
X179624418Y-57468839D01*
X180115625Y-57140625D01*
X180127816Y-57122381D01*
X180136843Y-57167765D01*
X180277191Y-57377809D01*
X180487235Y-57518157D01*
X180735000Y-57567440D01*
X182435000Y-57567440D01*
X182682765Y-57518157D01*
X182892809Y-57377809D01*
X183033157Y-57167765D01*
X183082440Y-56920000D01*
X183082440Y-55220000D01*
X183033157Y-54972235D01*
X182892809Y-54762191D01*
X182682765Y-54621843D01*
X182435000Y-54572560D01*
X180735000Y-54572560D01*
X180487235Y-54621843D01*
X180277191Y-54762191D01*
X180136843Y-54972235D01*
X180127816Y-55017619D01*
X180115625Y-54999375D01*
X179624418Y-54671161D01*
X179191256Y-54585000D01*
X178898744Y-54585000D01*
X178465582Y-54671161D01*
X177974375Y-54999375D01*
X177775000Y-55297761D01*
X177575625Y-54999375D01*
X177084418Y-54671161D01*
X176651256Y-54585000D01*
X176358744Y-54585000D01*
X175925582Y-54671161D01*
X175434375Y-54999375D01*
X175235000Y-55297761D01*
X175035625Y-54999375D01*
X174544418Y-54671161D01*
X174111256Y-54585000D01*
X173818744Y-54585000D01*
X173385582Y-54671161D01*
X172894375Y-54999375D01*
X172695000Y-55297761D01*
X172495625Y-54999375D01*
X172004418Y-54671161D01*
X171571256Y-54585000D01*
X171278744Y-54585000D01*
X170845582Y-54671161D01*
X170354375Y-54999375D01*
X170155000Y-55297761D01*
X169955625Y-54999375D01*
X169464418Y-54671161D01*
X169031256Y-54585000D01*
X168738744Y-54585000D01*
X168305582Y-54671161D01*
X167974311Y-54892509D01*
X166531431Y-53449630D01*
X166489029Y-53386171D01*
X166237637Y-53218196D01*
X166015952Y-53174100D01*
X166015947Y-53174100D01*
X165941100Y-53159212D01*
X165866253Y-53174100D01*
X153893546Y-53174100D01*
X153818699Y-53159212D01*
X153743852Y-53174100D01*
X153743848Y-53174100D01*
X153522163Y-53218196D01*
X153270771Y-53386171D01*
X153228371Y-53449627D01*
X149564199Y-57113800D01*
X145867648Y-57113800D01*
X145792800Y-57098912D01*
X145717952Y-57113800D01*
X145717948Y-57113800D01*
X145496263Y-57157896D01*
X145470066Y-57175400D01*
X144617750Y-57175400D01*
X144480689Y-57312461D01*
X144289820Y-57233400D01*
X143858180Y-57233400D01*
X143701440Y-57298324D01*
X143701440Y-56548400D01*
X143676316Y-56422090D01*
X144459000Y-56422090D01*
X144459000Y-56762650D01*
X144617750Y-56921400D01*
X146467000Y-56921400D01*
X146467000Y-56072150D01*
X146721000Y-56072150D01*
X146721000Y-56921400D01*
X148570250Y-56921400D01*
X148729000Y-56762650D01*
X148729000Y-56422090D01*
X148632327Y-56188701D01*
X148453698Y-56010073D01*
X148220309Y-55913400D01*
X146879750Y-55913400D01*
X146721000Y-56072150D01*
X146467000Y-56072150D01*
X146308250Y-55913400D01*
X144967691Y-55913400D01*
X144734302Y-56010073D01*
X144555673Y-56188701D01*
X144459000Y-56422090D01*
X143676316Y-56422090D01*
X143652157Y-56300635D01*
X143511809Y-56090591D01*
X143301765Y-55950243D01*
X143054000Y-55900960D01*
X140054000Y-55900960D01*
X139806235Y-55950243D01*
X139596191Y-56090591D01*
X139455843Y-56300635D01*
X139406560Y-56548400D01*
X139406560Y-57548400D01*
X139455843Y-57796165D01*
X139596191Y-58006209D01*
X139806235Y-58146557D01*
X140054000Y-58195840D01*
X142989000Y-58195840D01*
X142989000Y-58440960D01*
X140054000Y-58440960D01*
X139806235Y-58490243D01*
X139596191Y-58630591D01*
X139455843Y-58840635D01*
X139406560Y-59088400D01*
X139406560Y-60088400D01*
X139455843Y-60336165D01*
X139596191Y-60546209D01*
X139806235Y-60686557D01*
X140054000Y-60735840D01*
X141871759Y-60735840D01*
X141626639Y-60980960D01*
X140336667Y-60980960D01*
X140235185Y-60879478D01*
X139689385Y-60653400D01*
X139098615Y-60653400D01*
X138552815Y-60879478D01*
X138135078Y-61297215D01*
X137909000Y-61843015D01*
X137909000Y-62433785D01*
X138135078Y-62979585D01*
X138552815Y-63397322D01*
X139073360Y-63612939D01*
X137103230Y-65583069D01*
X137039771Y-65625471D01*
X136871796Y-65876864D01*
X136827700Y-66098549D01*
X136827700Y-66098553D01*
X136812812Y-66173400D01*
X136827700Y-66248247D01*
X136827701Y-90819788D01*
X136710269Y-90937220D01*
X136552700Y-91317626D01*
X100710000Y-91317626D01*
X100710000Y-52494090D01*
X100847265Y-52356825D01*
X100765000Y-52555431D01*
X100765000Y-53444569D01*
X101105259Y-54266026D01*
X101733974Y-54894741D01*
X102555431Y-55235000D01*
X103444569Y-55235000D01*
X104266026Y-54894741D01*
X104894741Y-54266026D01*
X105235000Y-53444569D01*
X105235000Y-52654887D01*
X105265000Y-52654887D01*
X105265000Y-53345113D01*
X105529138Y-53982799D01*
X106017201Y-54470862D01*
X106654887Y-54735000D01*
X107345113Y-54735000D01*
X107982799Y-54470862D01*
X108470862Y-53982799D01*
X108735000Y-53345113D01*
X108735000Y-52654887D01*
X141265000Y-52654887D01*
X141265000Y-53345113D01*
X141529138Y-53982799D01*
X142017201Y-54470862D01*
X142654887Y-54735000D01*
X143345113Y-54735000D01*
X143982799Y-54470862D01*
X144470862Y-53982799D01*
X144735000Y-53345113D01*
X144735000Y-52654887D01*
X144470862Y-52017201D01*
X143982799Y-51529138D01*
X143345113Y-51265000D01*
X142654887Y-51265000D01*
X142017201Y-51529138D01*
X141529138Y-52017201D01*
X141265000Y-52654887D01*
X108735000Y-52654887D01*
X108470862Y-52017201D01*
X107982799Y-51529138D01*
X107345113Y-51265000D01*
X106654887Y-51265000D01*
X106017201Y-51529138D01*
X105529138Y-52017201D01*
X105265000Y-52654887D01*
X105235000Y-52654887D01*
X105235000Y-52555431D01*
X104894741Y-51733974D01*
X104266026Y-51105259D01*
X103444569Y-50765000D01*
X102555431Y-50765000D01*
X102356827Y-50847264D01*
X102494092Y-50710000D01*
X147505910Y-50710000D01*
X147643175Y-50847265D01*
G36*
X160194375Y-57140625D02*
X160511430Y-57352475D01*
X160549097Y-57541837D01*
X160717072Y-57793229D01*
X160780528Y-57835629D01*
X178285000Y-75340102D01*
X178285001Y-92891821D01*
X177974375Y-93099375D01*
X177775000Y-93397761D01*
X177575625Y-93099375D01*
X177265000Y-92891822D01*
X177265000Y-92363846D01*
X177279888Y-92288999D01*
X177265000Y-92214152D01*
X177265000Y-92214148D01*
X177220904Y-91992463D01*
X177052929Y-91741071D01*
X176989473Y-91698671D01*
X150825500Y-65534699D01*
X150825500Y-65368626D01*
X150667931Y-64988220D01*
X150376780Y-64697069D01*
X149996374Y-64539500D01*
X149584626Y-64539500D01*
X149429469Y-64603768D01*
X149009631Y-64183930D01*
X149009277Y-64183400D01*
X150488753Y-64183400D01*
X150563600Y-64198288D01*
X150638447Y-64183400D01*
X150638452Y-64183400D01*
X150860137Y-64139304D01*
X151111529Y-63971329D01*
X151153931Y-63907870D01*
X157814312Y-57247491D01*
X158145582Y-57468839D01*
X158578744Y-57555000D01*
X158871256Y-57555000D01*
X159304418Y-57468839D01*
X159795625Y-57140625D01*
X159995000Y-56842239D01*
X160194375Y-57140625D01*
X160194375Y-57140625D01*
G37*
X160194375Y-57140625D02*
X160511430Y-57352475D01*
X160549097Y-57541837D01*
X160717072Y-57793229D01*
X160780528Y-57835629D01*
X178285000Y-75340102D01*
X178285001Y-92891821D01*
X177974375Y-93099375D01*
X177775000Y-93397761D01*
X177575625Y-93099375D01*
X177265000Y-92891822D01*
X177265000Y-92363846D01*
X177279888Y-92288999D01*
X177265000Y-92214152D01*
X177265000Y-92214148D01*
X177220904Y-91992463D01*
X177052929Y-91741071D01*
X176989473Y-91698671D01*
X150825500Y-65534699D01*
X150825500Y-65368626D01*
X150667931Y-64988220D01*
X150376780Y-64697069D01*
X149996374Y-64539500D01*
X149584626Y-64539500D01*
X149429469Y-64603768D01*
X149009631Y-64183930D01*
X149009277Y-64183400D01*
X150488753Y-64183400D01*
X150563600Y-64198288D01*
X150638447Y-64183400D01*
X150638452Y-64183400D01*
X150860137Y-64139304D01*
X151111529Y-63971329D01*
X151153931Y-63907870D01*
X157814312Y-57247491D01*
X158145582Y-57468839D01*
X158578744Y-57555000D01*
X158871256Y-57555000D01*
X159304418Y-57468839D01*
X159795625Y-57140625D01*
X159995000Y-56842239D01*
X160194375Y-57140625D01*
G36*
X154989817Y-56951358D02*
X155418076Y-57341645D01*
X155525895Y-57386302D01*
X150248799Y-62663400D01*
X150143241Y-62663400D01*
X150250718Y-62367121D01*
X150224315Y-61776942D01*
X150126939Y-61541855D01*
X150157531Y-61496070D01*
X154897922Y-56755680D01*
X154989817Y-56951358D01*
X154989817Y-56951358D01*
G37*
X154989817Y-56951358D02*
X155418076Y-57341645D01*
X155525895Y-57386302D01*
X150248799Y-62663400D01*
X150143241Y-62663400D01*
X150250718Y-62367121D01*
X150224315Y-61776942D01*
X150126939Y-61541855D01*
X150157531Y-61496070D01*
X154897922Y-56755680D01*
X154989817Y-56951358D01*
G36*
X148947748Y-62124258D02*
X148933605Y-62138400D01*
X148947748Y-62152543D01*
X148768143Y-62332148D01*
X148754000Y-62318005D01*
X148739858Y-62332148D01*
X148560253Y-62152543D01*
X148574395Y-62138400D01*
X148560253Y-62124258D01*
X148739858Y-61944653D01*
X148754000Y-61958795D01*
X148768143Y-61944653D01*
X148947748Y-62124258D01*
X148947748Y-62124258D01*
G37*
X148947748Y-62124258D02*
X148933605Y-62138400D01*
X148947748Y-62152543D01*
X148768143Y-62332148D01*
X148754000Y-62318005D01*
X148739858Y-62332148D01*
X148560253Y-62152543D01*
X148574395Y-62138400D01*
X148560253Y-62124258D01*
X148739858Y-61944653D01*
X148754000Y-61958795D01*
X148768143Y-61944653D01*
X148947748Y-62124258D01*
G36*
X146721000Y-62001400D02*
X147261385Y-62001400D01*
X147272749Y-62255400D01*
X146721000Y-62255400D01*
X146721000Y-62275400D01*
X146467000Y-62275400D01*
X146467000Y-62255400D01*
X146447000Y-62255400D01*
X146447000Y-62001400D01*
X146467000Y-62001400D01*
X146467000Y-61981400D01*
X146721000Y-61981400D01*
X146721000Y-62001400D01*
X146721000Y-62001400D01*
G37*
X146721000Y-62001400D02*
X147261385Y-62001400D01*
X147272749Y-62255400D01*
X146721000Y-62255400D01*
X146721000Y-62275400D01*
X146467000Y-62275400D01*
X146467000Y-62255400D01*
X146447000Y-62255400D01*
X146447000Y-62001400D01*
X146467000Y-62001400D01*
X146467000Y-61981400D01*
X146721000Y-61981400D01*
X146721000Y-62001400D01*
G36*
X149819038Y-58636761D02*
X148801999Y-59653800D01*
X146447000Y-59653800D01*
X146447000Y-59461400D01*
X146467000Y-59461400D01*
X146467000Y-59441400D01*
X146721000Y-59441400D01*
X146721000Y-59461400D01*
X148570250Y-59461400D01*
X148729000Y-59302650D01*
X148729000Y-58962090D01*
X148632327Y-58728701D01*
X148537425Y-58633800D01*
X149804153Y-58633800D01*
X149819038Y-58636761D01*
X149819038Y-58636761D01*
G37*
X149819038Y-58636761D02*
X148801999Y-59653800D01*
X146447000Y-59653800D01*
X146447000Y-59461400D01*
X146467000Y-59461400D01*
X146467000Y-59441400D01*
X146721000Y-59441400D01*
X146721000Y-59461400D01*
X148570250Y-59461400D01*
X148729000Y-59302650D01*
X148729000Y-58962090D01*
X148632327Y-58728701D01*
X148537425Y-58633800D01*
X149804153Y-58633800D01*
X149819038Y-58636761D01*
G36*
X156312000Y-55943000D02*
X156332000Y-55943000D01*
X156332000Y-56197000D01*
X156312000Y-56197000D01*
X156312000Y-56217000D01*
X156058000Y-56217000D01*
X156058000Y-56197000D01*
X156038000Y-56197000D01*
X156038000Y-55943000D01*
X156058000Y-55943000D01*
X156058000Y-55923000D01*
X156312000Y-55923000D01*
X156312000Y-55943000D01*
X156312000Y-55943000D01*
G37*
X156312000Y-55943000D02*
X156332000Y-55943000D01*
X156332000Y-56197000D01*
X156312000Y-56197000D01*
X156312000Y-56217000D01*
X156058000Y-56217000D01*
X156058000Y-56197000D01*
X156038000Y-56197000D01*
X156038000Y-55943000D01*
X156058000Y-55943000D01*
X156058000Y-55923000D01*
X156312000Y-55923000D01*
X156312000Y-55943000D01*
G04 #@! TD*
M02*
