G04 #@! TF.GenerationSoftware,KiCad,Pcbnew,5.0.0-rc3-6a2723a~65~ubuntu17.10.1*
G04 #@! TF.CreationDate,2018-07-07T11:57:14+09:00*
G04 #@! TF.ProjectId,M5StackSideBB,4D35537461636B5369646542422E6B69,rev?*
G04 #@! TF.SameCoordinates,Original*
G04 #@! TF.FileFunction,Soldermask,Bot*
G04 #@! TF.FilePolarity,Negative*
%FSLAX46Y46*%
G04 Gerber Fmt 4.6, Leading zero omitted, Abs format (unit mm)*
G04 Created by KiCad (PCBNEW 5.0.0-rc3-6a2723a~65~ubuntu17.10.1) date Sat Jul  7 11:57:14 2018*
%MOMM*%
%LPD*%
G01*
G04 APERTURE LIST*
%ADD10R,3.400000X1.400000*%
%ADD11C,3.600000*%
%ADD12C,2.600000*%
%ADD13R,2.100000X2.100000*%
%ADD14O,2.100000X2.100000*%
G04 APERTURE END LIST*
D10*
G04 #@! TO.C,J3*
X141854000Y-57048400D03*
X146894000Y-57048400D03*
X141854000Y-59588400D03*
X146894000Y-59588400D03*
X141854000Y-62128400D03*
X146894000Y-62128400D03*
X141854000Y-64668400D03*
X146894000Y-64668400D03*
X141854000Y-67208400D03*
X146894000Y-67208400D03*
X141854000Y-69748400D03*
X146894000Y-69748400D03*
X141854000Y-72288400D03*
X146894000Y-72288400D03*
X141854000Y-74828400D03*
X146894000Y-74828400D03*
X141854000Y-77368400D03*
X146894000Y-77368400D03*
X141854000Y-79908400D03*
X146894000Y-79908400D03*
X141854000Y-82448400D03*
X146894000Y-82448400D03*
X141854000Y-84988400D03*
X146894000Y-84988400D03*
X141854000Y-87528400D03*
X146894000Y-87528400D03*
X141854000Y-90068400D03*
X146894000Y-90068400D03*
X141854000Y-92608400D03*
X146894000Y-92608400D03*
G04 #@! TD*
D11*
G04 #@! TO.C,REF1*
X103000000Y-53000000D03*
G04 #@! TD*
G04 #@! TO.C,REF4*
X147000000Y-53000000D03*
G04 #@! TD*
G04 #@! TO.C,REF6*
X103000000Y-97000000D03*
G04 #@! TD*
G04 #@! TO.C,REF9*
X147000000Y-97000000D03*
G04 #@! TD*
D12*
G04 #@! TO.C,REF2*
X107000000Y-53000000D03*
G04 #@! TD*
D13*
G04 #@! TO.C,J1*
X157120000Y-54800000D03*
D14*
X157120000Y-57340000D03*
X157120000Y-59880000D03*
X157120000Y-62420000D03*
X157120000Y-64960000D03*
X157120000Y-67500000D03*
X157120000Y-70040000D03*
X157120000Y-72580000D03*
X157120000Y-75120000D03*
X157120000Y-77660000D03*
X157120000Y-80200000D03*
X157120000Y-82740000D03*
X157120000Y-85280000D03*
X157120000Y-87820000D03*
X157120000Y-90360000D03*
X157120000Y-92900000D03*
X157120000Y-95440000D03*
G04 #@! TD*
D13*
G04 #@! TO.C,J2*
X195720000Y-64960000D03*
D14*
X195720000Y-67500000D03*
X195720000Y-70040000D03*
X195720000Y-72580000D03*
X195720000Y-75120000D03*
X195720000Y-77660000D03*
X195720000Y-80200000D03*
X195720000Y-82740000D03*
X195720000Y-85280000D03*
G04 #@! TD*
D12*
G04 #@! TO.C,REF3*
X143000000Y-53000000D03*
G04 #@! TD*
G04 #@! TO.C,REF7*
X107000000Y-97000000D03*
G04 #@! TD*
G04 #@! TO.C,REF8*
X143000000Y-97000000D03*
G04 #@! TD*
D11*
G04 #@! TO.C,REF5*
X197500000Y-57250000D03*
G04 #@! TD*
G04 #@! TO.C,REF10*
X197500000Y-92750000D03*
G04 #@! TD*
M02*
