G04 #@! TF.GenerationSoftware,KiCad,Pcbnew,5.0.0-fee4fd1~65~ubuntu17.10.1*
G04 #@! TF.CreationDate,2018-07-21T10:10:14+09:00*
G04 #@! TF.ProjectId,M5StackSideBB,4D35537461636B5369646542422E6B69,rev?*
G04 #@! TF.SameCoordinates,Original*
G04 #@! TF.FileFunction,Legend,Top*
G04 #@! TF.FilePolarity,Positive*
%FSLAX46Y46*%
G04 Gerber Fmt 4.6, Leading zero omitted, Abs format (unit mm)*
G04 Created by KiCad (PCBNEW 5.0.0-fee4fd1~65~ubuntu17.10.1) date Sat Jul 21 10:10:14 2018*
%MOMM*%
%LPD*%
G01*
G04 APERTURE LIST*
%ADD10C,0.250000*%
%ADD11C,0.200000*%
%ADD12C,0.120000*%
%ADD13C,0.010000*%
G04 APERTURE END LIST*
D10*
X155948605Y-52142898D02*
X155914933Y-52041883D01*
X155813918Y-51940868D01*
X155679231Y-51873524D01*
X155544544Y-51873524D01*
X155443529Y-51907196D01*
X155275170Y-52008211D01*
X155174155Y-52109226D01*
X155073139Y-52277585D01*
X155039468Y-52378600D01*
X155039468Y-52513287D01*
X155106811Y-52647974D01*
X155174155Y-52715318D01*
X155308842Y-52782661D01*
X155376185Y-52782661D01*
X155611887Y-52546959D01*
X155477200Y-52412272D01*
X155611887Y-53153051D02*
X156318994Y-52445944D01*
X156015948Y-53557112D01*
X156723055Y-52850005D01*
X156352666Y-53893829D02*
X157059773Y-53186722D01*
X157228131Y-53355081D01*
X157295475Y-53489768D01*
X157295475Y-53624455D01*
X157261803Y-53725470D01*
X157160788Y-53893829D01*
X157059773Y-53994844D01*
X156891414Y-54095860D01*
X156790399Y-54129531D01*
X156655712Y-54129531D01*
X156521025Y-54062188D01*
X156352666Y-53893829D01*
X155967133Y-98699580D02*
X155633800Y-98223390D01*
X155395704Y-98699580D02*
X155395704Y-97699580D01*
X155776657Y-97699580D01*
X155871895Y-97747200D01*
X155919514Y-97794819D01*
X155967133Y-97890057D01*
X155967133Y-98032914D01*
X155919514Y-98128152D01*
X155871895Y-98175771D01*
X155776657Y-98223390D01*
X155395704Y-98223390D01*
X156919514Y-98699580D02*
X156348085Y-98699580D01*
X156633800Y-98699580D02*
X156633800Y-97699580D01*
X156538561Y-97842438D01*
X156443323Y-97937676D01*
X156348085Y-97985295D01*
X157911895Y-97699580D02*
X158483323Y-97699580D01*
X158197609Y-98699580D02*
X158197609Y-97699580D01*
X159340466Y-98699580D02*
X158769038Y-98699580D01*
X159054752Y-98699580D02*
X159054752Y-97699580D01*
X158959514Y-97842438D01*
X158864276Y-97937676D01*
X158769038Y-97985295D01*
X161047133Y-98699580D02*
X160713800Y-98223390D01*
X160475704Y-98699580D02*
X160475704Y-97699580D01*
X160856657Y-97699580D01*
X160951895Y-97747200D01*
X160999514Y-97794819D01*
X161047133Y-97890057D01*
X161047133Y-98032914D01*
X160999514Y-98128152D01*
X160951895Y-98175771D01*
X160856657Y-98223390D01*
X160475704Y-98223390D01*
X161428085Y-97794819D02*
X161475704Y-97747200D01*
X161570942Y-97699580D01*
X161809038Y-97699580D01*
X161904276Y-97747200D01*
X161951895Y-97794819D01*
X161999514Y-97890057D01*
X161999514Y-97985295D01*
X161951895Y-98128152D01*
X161380466Y-98699580D01*
X161999514Y-98699580D01*
X162991895Y-97699580D02*
X163563323Y-97699580D01*
X163277609Y-98699580D02*
X163277609Y-97699580D01*
X163849038Y-97794819D02*
X163896657Y-97747200D01*
X163991895Y-97699580D01*
X164229990Y-97699580D01*
X164325228Y-97747200D01*
X164372847Y-97794819D01*
X164420466Y-97890057D01*
X164420466Y-97985295D01*
X164372847Y-98128152D01*
X163801419Y-98699580D01*
X164420466Y-98699580D01*
X175839523Y-52471580D02*
X175839523Y-51471580D01*
X176077619Y-51471580D01*
X176220476Y-51519200D01*
X176315714Y-51614438D01*
X176363333Y-51709676D01*
X176410952Y-51900152D01*
X176410952Y-52043009D01*
X176363333Y-52233485D01*
X176315714Y-52328723D01*
X176220476Y-52423961D01*
X176077619Y-52471580D01*
X175839523Y-52471580D01*
X176791904Y-52185866D02*
X177268095Y-52185866D01*
X176696666Y-52471580D02*
X177030000Y-51471580D01*
X177363333Y-52471580D01*
X173223323Y-52471580D02*
X173223323Y-51471580D01*
X173461419Y-51471580D01*
X173604276Y-51519200D01*
X173699514Y-51614438D01*
X173747133Y-51709676D01*
X173794752Y-51900152D01*
X173794752Y-52043009D01*
X173747133Y-52233485D01*
X173699514Y-52328723D01*
X173604276Y-52423961D01*
X173461419Y-52471580D01*
X173223323Y-52471580D01*
X174175704Y-52185866D02*
X174651895Y-52185866D01*
X174080466Y-52471580D02*
X174413800Y-51471580D01*
X174747133Y-52471580D01*
X170635704Y-52185866D02*
X171111895Y-52185866D01*
X170540466Y-52471580D02*
X170873800Y-51471580D01*
X171207133Y-52471580D01*
X171540466Y-52471580D02*
X171540466Y-51471580D01*
X171778561Y-51471580D01*
X171921419Y-51519200D01*
X172016657Y-51614438D01*
X172064276Y-51709676D01*
X172111895Y-51900152D01*
X172111895Y-52043009D01*
X172064276Y-52233485D01*
X172016657Y-52328723D01*
X171921419Y-52423961D01*
X171778561Y-52471580D01*
X171540466Y-52471580D01*
X168222704Y-52185866D02*
X168698895Y-52185866D01*
X168127466Y-52471580D02*
X168460800Y-51471580D01*
X168794133Y-52471580D01*
X169127466Y-52471580D02*
X169127466Y-51471580D01*
X169365561Y-51471580D01*
X169508419Y-51519200D01*
X169603657Y-51614438D01*
X169651276Y-51709676D01*
X169698895Y-51900152D01*
X169698895Y-52043009D01*
X169651276Y-52233485D01*
X169603657Y-52328723D01*
X169508419Y-52423961D01*
X169365561Y-52471580D01*
X169127466Y-52471580D01*
X165098452Y-98005272D02*
X165165796Y-98139959D01*
X165334155Y-98308318D01*
X165435170Y-98341990D01*
X165502513Y-98341990D01*
X165603529Y-98308318D01*
X165670872Y-98240974D01*
X165704544Y-98139959D01*
X165704544Y-98072616D01*
X165670872Y-97971600D01*
X165569857Y-97803242D01*
X165536185Y-97702226D01*
X165536185Y-97634883D01*
X165569857Y-97533868D01*
X165637200Y-97466524D01*
X165738216Y-97432852D01*
X165805559Y-97432852D01*
X165906574Y-97466524D01*
X166074933Y-97634883D01*
X166142277Y-97769570D01*
X166243292Y-99082768D02*
X166175948Y-99082768D01*
X166041261Y-99015425D01*
X165973918Y-98948081D01*
X165906574Y-98813394D01*
X165906574Y-98678707D01*
X165940246Y-98577692D01*
X166041261Y-98409333D01*
X166142277Y-98308318D01*
X166310635Y-98207303D01*
X166411651Y-98173631D01*
X166546338Y-98173631D01*
X166681025Y-98240974D01*
X166748368Y-98308318D01*
X166815712Y-98443005D01*
X166815712Y-98510348D01*
X166478994Y-99453157D02*
X167186101Y-98746051D01*
X166883055Y-99857218D02*
X166984070Y-99150112D01*
X167590162Y-99150112D02*
X166782040Y-99150112D01*
X166103323Y-97048580D02*
X165531895Y-97048580D01*
X165817609Y-97048580D02*
X165817609Y-96048580D01*
X165722371Y-96191438D01*
X165627133Y-96286676D01*
X165531895Y-96334295D01*
X166674752Y-96477152D02*
X166579514Y-96429533D01*
X166531895Y-96381914D01*
X166484276Y-96286676D01*
X166484276Y-96239057D01*
X166531895Y-96143819D01*
X166579514Y-96096200D01*
X166674752Y-96048580D01*
X166865228Y-96048580D01*
X166960466Y-96096200D01*
X167008085Y-96143819D01*
X167055704Y-96239057D01*
X167055704Y-96286676D01*
X167008085Y-96381914D01*
X166960466Y-96429533D01*
X166865228Y-96477152D01*
X166674752Y-96477152D01*
X166579514Y-96524771D01*
X166531895Y-96572390D01*
X166484276Y-96667628D01*
X166484276Y-96858104D01*
X166531895Y-96953342D01*
X166579514Y-97000961D01*
X166674752Y-97048580D01*
X166865228Y-97048580D01*
X166960466Y-97000961D01*
X167008085Y-96953342D01*
X167055704Y-96858104D01*
X167055704Y-96667628D01*
X167008085Y-96572390D01*
X166960466Y-96524771D01*
X166865228Y-96477152D01*
X175596657Y-98699580D02*
X175596657Y-97699580D01*
X175929990Y-98413866D01*
X176263323Y-97699580D01*
X176263323Y-98699580D01*
X176929990Y-97699580D02*
X177120466Y-97699580D01*
X177215704Y-97747200D01*
X177310942Y-97842438D01*
X177358561Y-98032914D01*
X177358561Y-98366247D01*
X177310942Y-98556723D01*
X177215704Y-98651961D01*
X177120466Y-98699580D01*
X176929990Y-98699580D01*
X176834752Y-98651961D01*
X176739514Y-98556723D01*
X176691895Y-98366247D01*
X176691895Y-98032914D01*
X176739514Y-97842438D01*
X176834752Y-97747200D01*
X176929990Y-97699580D01*
X168643323Y-97048580D02*
X168071895Y-97048580D01*
X168357609Y-97048580D02*
X168357609Y-96048580D01*
X168262371Y-96191438D01*
X168167133Y-96286676D01*
X168071895Y-96334295D01*
X169119514Y-97048580D02*
X169309990Y-97048580D01*
X169405228Y-97000961D01*
X169452847Y-96953342D01*
X169548085Y-96810485D01*
X169595704Y-96620009D01*
X169595704Y-96239057D01*
X169548085Y-96143819D01*
X169500466Y-96096200D01*
X169405228Y-96048580D01*
X169214752Y-96048580D01*
X169119514Y-96096200D01*
X169071895Y-96143819D01*
X169024276Y-96239057D01*
X169024276Y-96477152D01*
X169071895Y-96572390D01*
X169119514Y-96620009D01*
X169214752Y-96667628D01*
X169405228Y-96667628D01*
X169500466Y-96620009D01*
X169548085Y-96572390D01*
X169595704Y-96477152D01*
X175691895Y-96143819D02*
X175739514Y-96096200D01*
X175834752Y-96048580D01*
X176072847Y-96048580D01*
X176168085Y-96096200D01*
X176215704Y-96143819D01*
X176263323Y-96239057D01*
X176263323Y-96334295D01*
X176215704Y-96477152D01*
X175644276Y-97048580D01*
X176263323Y-97048580D01*
X176596657Y-96048580D02*
X177215704Y-96048580D01*
X176882371Y-96429533D01*
X177025228Y-96429533D01*
X177120466Y-96477152D01*
X177168085Y-96524771D01*
X177215704Y-96620009D01*
X177215704Y-96858104D01*
X177168085Y-96953342D01*
X177120466Y-97000961D01*
X177025228Y-97048580D01*
X176739514Y-97048580D01*
X176644276Y-97000961D01*
X176596657Y-96953342D01*
X168262371Y-98699580D02*
X168262371Y-97699580D01*
X168595704Y-98413866D01*
X168929038Y-97699580D01*
X168929038Y-98699580D01*
X169405228Y-98699580D02*
X169405228Y-97699580D01*
X172658796Y-97945616D02*
X172726139Y-98080303D01*
X172894498Y-98248661D01*
X172995513Y-98282333D01*
X173062857Y-98282333D01*
X173163872Y-98248661D01*
X173231216Y-98181318D01*
X173264887Y-98080303D01*
X173264887Y-98012959D01*
X173231216Y-97911944D01*
X173130200Y-97743585D01*
X173096529Y-97642570D01*
X173096529Y-97575226D01*
X173130200Y-97474211D01*
X173197544Y-97406868D01*
X173298559Y-97373196D01*
X173365903Y-97373196D01*
X173466918Y-97406868D01*
X173635277Y-97575226D01*
X173702620Y-97709913D01*
X173803635Y-99023112D02*
X173736292Y-99023112D01*
X173601605Y-98955768D01*
X173534261Y-98888425D01*
X173466918Y-98753738D01*
X173466918Y-98619051D01*
X173500590Y-98518035D01*
X173601605Y-98349677D01*
X173702620Y-98248661D01*
X173870979Y-98147646D01*
X173971994Y-98113974D01*
X174106681Y-98113974D01*
X174241368Y-98181318D01*
X174308712Y-98248661D01*
X174376055Y-98383348D01*
X174376055Y-98450692D01*
X174376055Y-99730218D02*
X174039338Y-99393501D01*
X174746444Y-98686394D01*
X170101960Y-97928780D02*
X170169303Y-98063467D01*
X170337662Y-98231825D01*
X170438677Y-98265497D01*
X170506021Y-98265497D01*
X170607036Y-98231825D01*
X170674380Y-98164482D01*
X170708051Y-98063467D01*
X170708051Y-97996123D01*
X170674380Y-97895108D01*
X170573364Y-97726749D01*
X170539693Y-97625734D01*
X170539693Y-97558390D01*
X170573364Y-97457375D01*
X170640708Y-97390032D01*
X170741723Y-97356360D01*
X170809067Y-97356360D01*
X170910082Y-97390032D01*
X171078441Y-97558390D01*
X171145784Y-97693077D01*
X170775395Y-98669558D02*
X171482502Y-97962451D01*
X171650861Y-98130810D01*
X171718204Y-98265497D01*
X171718204Y-98400184D01*
X171684532Y-98501199D01*
X171583517Y-98669558D01*
X171482502Y-98770574D01*
X171314143Y-98871589D01*
X171213128Y-98905261D01*
X171078441Y-98905261D01*
X170943754Y-98837917D01*
X170775395Y-98669558D01*
X171650861Y-99140963D02*
X171987578Y-99477680D01*
X171381487Y-99275650D02*
X172324296Y-98804245D01*
X171852891Y-99747054D01*
X178378559Y-96095509D02*
X178816292Y-96533242D01*
X178311216Y-96566913D01*
X178412231Y-96667929D01*
X178445903Y-96768944D01*
X178445903Y-96836287D01*
X178412231Y-96937303D01*
X178243872Y-97105661D01*
X178142857Y-97139333D01*
X178075513Y-97139333D01*
X177974498Y-97105661D01*
X177772468Y-96903631D01*
X177738796Y-96802616D01*
X177738796Y-96735272D01*
X179018322Y-96735272D02*
X178546918Y-97678081D01*
X179489727Y-97206677D01*
X179658086Y-97375035D02*
X180095818Y-97812768D01*
X179590742Y-97846440D01*
X179691757Y-97947455D01*
X179725429Y-98048470D01*
X179725429Y-98115814D01*
X179691757Y-98216829D01*
X179523399Y-98385188D01*
X179422383Y-98418860D01*
X179355040Y-98418860D01*
X179254025Y-98385188D01*
X179051994Y-98183157D01*
X179018322Y-98082142D01*
X179018322Y-98014799D01*
X173151895Y-96143819D02*
X173199514Y-96096200D01*
X173294752Y-96048580D01*
X173532847Y-96048580D01*
X173628085Y-96096200D01*
X173675704Y-96143819D01*
X173723323Y-96239057D01*
X173723323Y-96334295D01*
X173675704Y-96477152D01*
X173104276Y-97048580D01*
X173723323Y-97048580D01*
X174104276Y-96143819D02*
X174151895Y-96096200D01*
X174247133Y-96048580D01*
X174485228Y-96048580D01*
X174580466Y-96096200D01*
X174628085Y-96143819D01*
X174675704Y-96239057D01*
X174675704Y-96334295D01*
X174628085Y-96477152D01*
X174056657Y-97048580D01*
X174675704Y-97048580D01*
X181348605Y-96338898D02*
X181314933Y-96237883D01*
X181213918Y-96136868D01*
X181079231Y-96069524D01*
X180944544Y-96069524D01*
X180843529Y-96103196D01*
X180675170Y-96204211D01*
X180574155Y-96305226D01*
X180473139Y-96473585D01*
X180439468Y-96574600D01*
X180439468Y-96709287D01*
X180506811Y-96843974D01*
X180574155Y-96911318D01*
X180708842Y-96978661D01*
X180776185Y-96978661D01*
X181011887Y-96742959D01*
X180877200Y-96608272D01*
X181011887Y-97349051D02*
X181718994Y-96641944D01*
X181415948Y-97753112D01*
X182123055Y-97046005D01*
X181752666Y-98089829D02*
X182459773Y-97382722D01*
X182628131Y-97551081D01*
X182695475Y-97685768D01*
X182695475Y-97820455D01*
X182661803Y-97921470D01*
X182560788Y-98089829D01*
X182459773Y-98190844D01*
X182291414Y-98291860D01*
X182190399Y-98325531D01*
X182055712Y-98325531D01*
X181921025Y-98258188D01*
X181752666Y-98089829D01*
D11*
X170611895Y-96143819D02*
X170659514Y-96096200D01*
X170754752Y-96048580D01*
X170992847Y-96048580D01*
X171088085Y-96096200D01*
X171135704Y-96143819D01*
X171183323Y-96239057D01*
X171183323Y-96334295D01*
X171135704Y-96477152D01*
X170564276Y-97048580D01*
X171183323Y-97048580D01*
X172135704Y-97048580D02*
X171564276Y-97048580D01*
X171849990Y-97048580D02*
X171849990Y-96048580D01*
X171754752Y-96191438D01*
X171659514Y-96286676D01*
X171564276Y-96334295D01*
D10*
X168151276Y-53122580D02*
X168770323Y-53122580D01*
X168436990Y-53503533D01*
X168579847Y-53503533D01*
X168675085Y-53551152D01*
X168722704Y-53598771D01*
X168770323Y-53694009D01*
X168770323Y-53932104D01*
X168722704Y-54027342D01*
X168675085Y-54074961D01*
X168579847Y-54122580D01*
X168294133Y-54122580D01*
X168198895Y-54074961D01*
X168151276Y-54027342D01*
X169627466Y-53122580D02*
X169436990Y-53122580D01*
X169341752Y-53170200D01*
X169294133Y-53217819D01*
X169198895Y-53360676D01*
X169151276Y-53551152D01*
X169151276Y-53932104D01*
X169198895Y-54027342D01*
X169246514Y-54074961D01*
X169341752Y-54122580D01*
X169532228Y-54122580D01*
X169627466Y-54074961D01*
X169675085Y-54027342D01*
X169722704Y-53932104D01*
X169722704Y-53694009D01*
X169675085Y-53598771D01*
X169627466Y-53551152D01*
X169532228Y-53503533D01*
X169341752Y-53503533D01*
X169246514Y-53551152D01*
X169198895Y-53598771D01*
X169151276Y-53694009D01*
X160725559Y-51772509D02*
X161163292Y-52210242D01*
X160658216Y-52243913D01*
X160759231Y-52344929D01*
X160792903Y-52445944D01*
X160792903Y-52513287D01*
X160759231Y-52614303D01*
X160590872Y-52782661D01*
X160489857Y-52816333D01*
X160422513Y-52816333D01*
X160321498Y-52782661D01*
X160119468Y-52580631D01*
X160085796Y-52479616D01*
X160085796Y-52412272D01*
X161365322Y-52412272D02*
X160893918Y-53355081D01*
X161836727Y-52883677D01*
X162005086Y-53052035D02*
X162442818Y-53489768D01*
X161937742Y-53523440D01*
X162038757Y-53624455D01*
X162072429Y-53725470D01*
X162072429Y-53792814D01*
X162038757Y-53893829D01*
X161870399Y-54062188D01*
X161769383Y-54095860D01*
X161702040Y-54095860D01*
X161601025Y-54062188D01*
X161398994Y-53860157D01*
X161365322Y-53759142D01*
X161365322Y-53691799D01*
X170564276Y-53122580D02*
X171183323Y-53122580D01*
X170849990Y-53503533D01*
X170992847Y-53503533D01*
X171088085Y-53551152D01*
X171135704Y-53598771D01*
X171183323Y-53694009D01*
X171183323Y-53932104D01*
X171135704Y-54027342D01*
X171088085Y-54074961D01*
X170992847Y-54122580D01*
X170707133Y-54122580D01*
X170611895Y-54074961D01*
X170564276Y-54027342D01*
X172088085Y-53122580D02*
X171611895Y-53122580D01*
X171564276Y-53598771D01*
X171611895Y-53551152D01*
X171707133Y-53503533D01*
X171945228Y-53503533D01*
X172040466Y-53551152D01*
X172088085Y-53598771D01*
X172135704Y-53694009D01*
X172135704Y-53932104D01*
X172088085Y-54027342D01*
X172040466Y-54074961D01*
X171945228Y-54122580D01*
X171707133Y-54122580D01*
X171611895Y-54074961D01*
X171564276Y-54027342D01*
X163409395Y-52589780D02*
X163476738Y-52724467D01*
X163476738Y-52791810D01*
X163443067Y-52892825D01*
X163342051Y-52993841D01*
X163241036Y-53027512D01*
X163173693Y-53027512D01*
X163072677Y-52993841D01*
X162803303Y-52724467D01*
X163510410Y-52017360D01*
X163746112Y-52253062D01*
X163779784Y-52354077D01*
X163779784Y-52421421D01*
X163746112Y-52522436D01*
X163678769Y-52589780D01*
X163577754Y-52623451D01*
X163510410Y-52623451D01*
X163409395Y-52589780D01*
X163173693Y-52354077D01*
X163678769Y-53195871D02*
X164015487Y-53532589D01*
X163409395Y-53330558D02*
X164352204Y-52859154D01*
X163880800Y-53801963D01*
X164722593Y-53229543D02*
X165126654Y-53633604D01*
X164217517Y-54138680D02*
X164924624Y-53431574D01*
X165713693Y-52967856D02*
X165814708Y-52395436D01*
X165309632Y-52563795D02*
X166016738Y-51856688D01*
X166286112Y-52126062D01*
X166319784Y-52227077D01*
X166319784Y-52294421D01*
X166286112Y-52395436D01*
X166185097Y-52496451D01*
X166084082Y-52530123D01*
X166016738Y-52530123D01*
X165915723Y-52496451D01*
X165646349Y-52227077D01*
X166016738Y-53203558D02*
X166084082Y-53338245D01*
X166252441Y-53506604D01*
X166353456Y-53540276D01*
X166420799Y-53540276D01*
X166521815Y-53506604D01*
X166589158Y-53439261D01*
X166622830Y-53338245D01*
X166622830Y-53270902D01*
X166589158Y-53169887D01*
X166488143Y-53001528D01*
X166454471Y-52900512D01*
X166454471Y-52833169D01*
X166488143Y-52732154D01*
X166555487Y-52664810D01*
X166656502Y-52631138D01*
X166723845Y-52631138D01*
X166824861Y-52664810D01*
X166993219Y-52833169D01*
X167060563Y-52967856D01*
X167296265Y-53136215D02*
X167700326Y-53540276D01*
X166791189Y-54045352D02*
X167498296Y-53338245D01*
X158483323Y-53122580D02*
X158007133Y-53122580D01*
X157959514Y-53598771D01*
X158007133Y-53551152D01*
X158102371Y-53503533D01*
X158340466Y-53503533D01*
X158435704Y-53551152D01*
X158483323Y-53598771D01*
X158530942Y-53694009D01*
X158530942Y-53932104D01*
X158483323Y-54027342D01*
X158435704Y-54074961D01*
X158340466Y-54122580D01*
X158102371Y-54122580D01*
X158007133Y-54074961D01*
X157959514Y-54027342D01*
X158816657Y-53122580D02*
X159149990Y-54122580D01*
X159483323Y-53122580D01*
X173151895Y-53217819D02*
X173199514Y-53170200D01*
X173294752Y-53122580D01*
X173532847Y-53122580D01*
X173628085Y-53170200D01*
X173675704Y-53217819D01*
X173723323Y-53313057D01*
X173723323Y-53408295D01*
X173675704Y-53551152D01*
X173104276Y-54122580D01*
X173723323Y-54122580D01*
X174580466Y-53122580D02*
X174389990Y-53122580D01*
X174294752Y-53170200D01*
X174247133Y-53217819D01*
X174151895Y-53360676D01*
X174104276Y-53551152D01*
X174104276Y-53932104D01*
X174151895Y-54027342D01*
X174199514Y-54074961D01*
X174294752Y-54122580D01*
X174485228Y-54122580D01*
X174580466Y-54074961D01*
X174628085Y-54027342D01*
X174675704Y-53932104D01*
X174675704Y-53694009D01*
X174628085Y-53598771D01*
X174580466Y-53551152D01*
X174485228Y-53503533D01*
X174294752Y-53503533D01*
X174199514Y-53551152D01*
X174151895Y-53598771D01*
X174104276Y-53694009D01*
X175818895Y-53217819D02*
X175866514Y-53170200D01*
X175961752Y-53122580D01*
X176199847Y-53122580D01*
X176295085Y-53170200D01*
X176342704Y-53217819D01*
X176390323Y-53313057D01*
X176390323Y-53408295D01*
X176342704Y-53551152D01*
X175771276Y-54122580D01*
X176390323Y-54122580D01*
X177295085Y-53122580D02*
X176818895Y-53122580D01*
X176771276Y-53598771D01*
X176818895Y-53551152D01*
X176914133Y-53503533D01*
X177152228Y-53503533D01*
X177247466Y-53551152D01*
X177295085Y-53598771D01*
X177342704Y-53694009D01*
X177342704Y-53932104D01*
X177295085Y-54027342D01*
X177247466Y-54074961D01*
X177152228Y-54122580D01*
X176914133Y-54122580D01*
X176818895Y-54074961D01*
X176771276Y-54027342D01*
X179358895Y-53122580D02*
X178882704Y-53122580D01*
X178835085Y-53598771D01*
X178882704Y-53551152D01*
X178977942Y-53503533D01*
X179216038Y-53503533D01*
X179311276Y-53551152D01*
X179358895Y-53598771D01*
X179406514Y-53694009D01*
X179406514Y-53932104D01*
X179358895Y-54027342D01*
X179311276Y-54074961D01*
X179216038Y-54122580D01*
X178977942Y-54122580D01*
X178882704Y-54074961D01*
X178835085Y-54027342D01*
X181375085Y-53217819D02*
X181422704Y-53170200D01*
X181517942Y-53122580D01*
X181756038Y-53122580D01*
X181851276Y-53170200D01*
X181898895Y-53217819D01*
X181946514Y-53313057D01*
X181946514Y-53408295D01*
X181898895Y-53551152D01*
X181327466Y-54122580D01*
X181946514Y-54122580D01*
X163563323Y-97048580D02*
X162991895Y-97048580D01*
X163277609Y-97048580D02*
X163277609Y-96048580D01*
X163182371Y-96191438D01*
X163087133Y-96286676D01*
X162991895Y-96334295D01*
X163896657Y-96048580D02*
X164563323Y-96048580D01*
X164134752Y-97048580D01*
X161023323Y-97048580D02*
X160451895Y-97048580D01*
X160737609Y-97048580D02*
X160737609Y-96048580D01*
X160642371Y-96191438D01*
X160547133Y-96286676D01*
X160451895Y-96334295D01*
X161880466Y-96048580D02*
X161689990Y-96048580D01*
X161594752Y-96096200D01*
X161547133Y-96143819D01*
X161451895Y-96286676D01*
X161404276Y-96477152D01*
X161404276Y-96858104D01*
X161451895Y-96953342D01*
X161499514Y-97000961D01*
X161594752Y-97048580D01*
X161785228Y-97048580D01*
X161880466Y-97000961D01*
X161928085Y-96953342D01*
X161975704Y-96858104D01*
X161975704Y-96620009D01*
X161928085Y-96524771D01*
X161880466Y-96477152D01*
X161785228Y-96429533D01*
X161594752Y-96429533D01*
X161499514Y-96477152D01*
X161451895Y-96524771D01*
X161404276Y-96620009D01*
X158959514Y-97048580D02*
X158388085Y-97048580D01*
X158673800Y-97048580D02*
X158673800Y-96048580D01*
X158578561Y-96191438D01*
X158483323Y-96286676D01*
X158388085Y-96334295D01*
X155800466Y-96048580D02*
X156419514Y-96048580D01*
X156086180Y-96429533D01*
X156229038Y-96429533D01*
X156324276Y-96477152D01*
X156371895Y-96524771D01*
X156419514Y-96620009D01*
X156419514Y-96858104D01*
X156371895Y-96953342D01*
X156324276Y-97000961D01*
X156229038Y-97048580D01*
X155943323Y-97048580D01*
X155848085Y-97000961D01*
X155800466Y-96953342D01*
D12*
G04 #@! TO.C,J3*
X141774000Y-55718400D02*
X146974000Y-55718400D01*
X141774000Y-93938400D02*
X146974000Y-93938400D01*
X140334000Y-56288400D02*
X141774000Y-56288400D01*
X141774000Y-55718400D02*
X141774000Y-56288400D01*
X146974000Y-55718400D02*
X146974000Y-56288400D01*
X141774000Y-93368400D02*
X141774000Y-93938400D01*
X146974000Y-93368400D02*
X146974000Y-93938400D01*
X141774000Y-57808400D02*
X141774000Y-58828400D01*
X146974000Y-57808400D02*
X146974000Y-58828400D01*
X141774000Y-60348400D02*
X141774000Y-61368400D01*
X146974000Y-60348400D02*
X146974000Y-61368400D01*
X141774000Y-62888400D02*
X141774000Y-63908400D01*
X146974000Y-62888400D02*
X146974000Y-63908400D01*
X141774000Y-65428400D02*
X141774000Y-66448400D01*
X146974000Y-65428400D02*
X146974000Y-66448400D01*
X141774000Y-67968400D02*
X141774000Y-68988400D01*
X146974000Y-67968400D02*
X146974000Y-68988400D01*
X141774000Y-70508400D02*
X141774000Y-71528400D01*
X146974000Y-70508400D02*
X146974000Y-71528400D01*
X141774000Y-73048400D02*
X141774000Y-74068400D01*
X146974000Y-73048400D02*
X146974000Y-74068400D01*
X141774000Y-75588400D02*
X141774000Y-76608400D01*
X146974000Y-75588400D02*
X146974000Y-76608400D01*
X141774000Y-78128400D02*
X141774000Y-79148400D01*
X146974000Y-78128400D02*
X146974000Y-79148400D01*
X141774000Y-80668400D02*
X141774000Y-81688400D01*
X146974000Y-80668400D02*
X146974000Y-81688400D01*
X141774000Y-83208400D02*
X141774000Y-84228400D01*
X146974000Y-83208400D02*
X146974000Y-84228400D01*
X141774000Y-85748400D02*
X141774000Y-86768400D01*
X146974000Y-85748400D02*
X146974000Y-86768400D01*
X141774000Y-88288400D02*
X141774000Y-89308400D01*
X146974000Y-88288400D02*
X146974000Y-89308400D01*
X141774000Y-90828400D02*
X141774000Y-91848400D01*
X146974000Y-90828400D02*
X146974000Y-91848400D01*
G04 #@! TO.C,J1*
X180315000Y-54740000D02*
X180315000Y-57400000D01*
X180315000Y-54740000D02*
X154855000Y-54740000D01*
X154855000Y-54740000D02*
X154855000Y-57400000D01*
X180315000Y-57400000D02*
X154855000Y-57400000D01*
X182915000Y-57400000D02*
X181585000Y-57400000D01*
X182915000Y-56070000D02*
X182915000Y-57400000D01*
G04 #@! TO.C,J2*
X154855000Y-94170000D02*
X154855000Y-92840000D01*
X154855000Y-92840000D02*
X156185000Y-92840000D01*
X157455000Y-92840000D02*
X182915000Y-92840000D01*
X182915000Y-95500000D02*
X182915000Y-92840000D01*
X157455000Y-95500000D02*
X182915000Y-95500000D01*
X157455000Y-95500000D02*
X157455000Y-92840000D01*
D13*
G04 #@! TO.C,G2*
G36*
X190931137Y-93361579D02*
X190996023Y-93379956D01*
X191056341Y-93410061D01*
X191109857Y-93451671D01*
X191112355Y-93454089D01*
X191136784Y-93480232D01*
X191157934Y-93506978D01*
X191173605Y-93531176D01*
X191181595Y-93549676D01*
X191182172Y-93554033D01*
X191185140Y-93564579D01*
X191188280Y-93566343D01*
X191195768Y-93573289D01*
X191202089Y-93592935D01*
X191206957Y-93623494D01*
X191210089Y-93663180D01*
X191211200Y-93710205D01*
X191211200Y-93710331D01*
X191210982Y-93748208D01*
X191209907Y-93775384D01*
X191207340Y-93795671D01*
X191202649Y-93812879D01*
X191195202Y-93830822D01*
X191189038Y-93843747D01*
X191171788Y-93878638D01*
X191158287Y-93903727D01*
X191146175Y-93922380D01*
X191133093Y-93937960D01*
X191116682Y-93953832D01*
X191103827Y-93965272D01*
X191061937Y-93998546D01*
X191021625Y-94022255D01*
X190977365Y-94039493D01*
X190964457Y-94043317D01*
X190936577Y-94049445D01*
X190903906Y-94054079D01*
X190870370Y-94056970D01*
X190839892Y-94057869D01*
X190816395Y-94056529D01*
X190804800Y-94053418D01*
X190791979Y-94048435D01*
X190770329Y-94042433D01*
X190752186Y-94038329D01*
X190729903Y-94032798D01*
X190714763Y-94027200D01*
X190710457Y-94023591D01*
X190704274Y-94017555D01*
X190688969Y-94010410D01*
X190684549Y-94008861D01*
X190666558Y-94000725D01*
X190655558Y-93991681D01*
X190654744Y-93990155D01*
X190647245Y-93981008D01*
X190643808Y-93980000D01*
X190634126Y-93974997D01*
X190620004Y-93962947D01*
X190605879Y-93948287D01*
X190596186Y-93935451D01*
X190594343Y-93930534D01*
X190588586Y-93921991D01*
X190584156Y-93919586D01*
X190574849Y-93910416D01*
X190562662Y-93890754D01*
X190549168Y-93863920D01*
X190535943Y-93833236D01*
X190524562Y-93802023D01*
X190518300Y-93780718D01*
X190509746Y-93738165D01*
X190507889Y-93699290D01*
X190512517Y-93656568D01*
X190514487Y-93645347D01*
X190518929Y-93623348D01*
X190523988Y-93604881D01*
X190531269Y-93585499D01*
X190542379Y-93560756D01*
X190553384Y-93537679D01*
X190568543Y-93513292D01*
X190591598Y-93484233D01*
X190618844Y-93454547D01*
X190646572Y-93428281D01*
X190670543Y-93409819D01*
X190731384Y-93379049D01*
X190796585Y-93360901D01*
X190863913Y-93355152D01*
X190931137Y-93361579D01*
X190931137Y-93361579D01*
G37*
X190931137Y-93361579D02*
X190996023Y-93379956D01*
X191056341Y-93410061D01*
X191109857Y-93451671D01*
X191112355Y-93454089D01*
X191136784Y-93480232D01*
X191157934Y-93506978D01*
X191173605Y-93531176D01*
X191181595Y-93549676D01*
X191182172Y-93554033D01*
X191185140Y-93564579D01*
X191188280Y-93566343D01*
X191195768Y-93573289D01*
X191202089Y-93592935D01*
X191206957Y-93623494D01*
X191210089Y-93663180D01*
X191211200Y-93710205D01*
X191211200Y-93710331D01*
X191210982Y-93748208D01*
X191209907Y-93775384D01*
X191207340Y-93795671D01*
X191202649Y-93812879D01*
X191195202Y-93830822D01*
X191189038Y-93843747D01*
X191171788Y-93878638D01*
X191158287Y-93903727D01*
X191146175Y-93922380D01*
X191133093Y-93937960D01*
X191116682Y-93953832D01*
X191103827Y-93965272D01*
X191061937Y-93998546D01*
X191021625Y-94022255D01*
X190977365Y-94039493D01*
X190964457Y-94043317D01*
X190936577Y-94049445D01*
X190903906Y-94054079D01*
X190870370Y-94056970D01*
X190839892Y-94057869D01*
X190816395Y-94056529D01*
X190804800Y-94053418D01*
X190791979Y-94048435D01*
X190770329Y-94042433D01*
X190752186Y-94038329D01*
X190729903Y-94032798D01*
X190714763Y-94027200D01*
X190710457Y-94023591D01*
X190704274Y-94017555D01*
X190688969Y-94010410D01*
X190684549Y-94008861D01*
X190666558Y-94000725D01*
X190655558Y-93991681D01*
X190654744Y-93990155D01*
X190647245Y-93981008D01*
X190643808Y-93980000D01*
X190634126Y-93974997D01*
X190620004Y-93962947D01*
X190605879Y-93948287D01*
X190596186Y-93935451D01*
X190594343Y-93930534D01*
X190588586Y-93921991D01*
X190584156Y-93919586D01*
X190574849Y-93910416D01*
X190562662Y-93890754D01*
X190549168Y-93863920D01*
X190535943Y-93833236D01*
X190524562Y-93802023D01*
X190518300Y-93780718D01*
X190509746Y-93738165D01*
X190507889Y-93699290D01*
X190512517Y-93656568D01*
X190514487Y-93645347D01*
X190518929Y-93623348D01*
X190523988Y-93604881D01*
X190531269Y-93585499D01*
X190542379Y-93560756D01*
X190553384Y-93537679D01*
X190568543Y-93513292D01*
X190591598Y-93484233D01*
X190618844Y-93454547D01*
X190646572Y-93428281D01*
X190670543Y-93409819D01*
X190731384Y-93379049D01*
X190796585Y-93360901D01*
X190863913Y-93355152D01*
X190931137Y-93361579D01*
G36*
X190152631Y-93882596D02*
X190176356Y-93884870D01*
X190194760Y-93889702D01*
X190212427Y-93897947D01*
X190216436Y-93900171D01*
X190262579Y-93933230D01*
X190295838Y-93972961D01*
X190316175Y-94019280D01*
X190323551Y-94072100D01*
X190318885Y-94126207D01*
X190313781Y-94151948D01*
X190307801Y-94170480D01*
X190298402Y-94186293D01*
X190283044Y-94203878D01*
X190264265Y-94222727D01*
X190241062Y-94244863D01*
X190223327Y-94258947D01*
X190206624Y-94267539D01*
X190186520Y-94273198D01*
X190171746Y-94276110D01*
X190140897Y-94281393D01*
X190118429Y-94283555D01*
X190098528Y-94282509D01*
X190075381Y-94278165D01*
X190059406Y-94274399D01*
X190037468Y-94266488D01*
X190012793Y-94253735D01*
X189988901Y-94238505D01*
X189969318Y-94223164D01*
X189957565Y-94210077D01*
X189955715Y-94204768D01*
X189950888Y-94195678D01*
X189939386Y-94183068D01*
X189932274Y-94175357D01*
X189927585Y-94166055D01*
X189924822Y-94152178D01*
X189923485Y-94130739D01*
X189923075Y-94098755D01*
X189923057Y-94085429D01*
X189923330Y-94048775D01*
X189924487Y-94023386D01*
X189927035Y-94006016D01*
X189931480Y-93993420D01*
X189938331Y-93982353D01*
X189939386Y-93980910D01*
X189949951Y-93965756D01*
X189955479Y-93956151D01*
X189955715Y-93955224D01*
X189961337Y-93946066D01*
X189975896Y-93932254D01*
X189995934Y-93916679D01*
X190017989Y-93902235D01*
X190021564Y-93900171D01*
X190039654Y-93891109D01*
X190057527Y-93885637D01*
X190079767Y-93882901D01*
X190110957Y-93882048D01*
X190119000Y-93882028D01*
X190152631Y-93882596D01*
X190152631Y-93882596D01*
G37*
X190152631Y-93882596D02*
X190176356Y-93884870D01*
X190194760Y-93889702D01*
X190212427Y-93897947D01*
X190216436Y-93900171D01*
X190262579Y-93933230D01*
X190295838Y-93972961D01*
X190316175Y-94019280D01*
X190323551Y-94072100D01*
X190318885Y-94126207D01*
X190313781Y-94151948D01*
X190307801Y-94170480D01*
X190298402Y-94186293D01*
X190283044Y-94203878D01*
X190264265Y-94222727D01*
X190241062Y-94244863D01*
X190223327Y-94258947D01*
X190206624Y-94267539D01*
X190186520Y-94273198D01*
X190171746Y-94276110D01*
X190140897Y-94281393D01*
X190118429Y-94283555D01*
X190098528Y-94282509D01*
X190075381Y-94278165D01*
X190059406Y-94274399D01*
X190037468Y-94266488D01*
X190012793Y-94253735D01*
X189988901Y-94238505D01*
X189969318Y-94223164D01*
X189957565Y-94210077D01*
X189955715Y-94204768D01*
X189950888Y-94195678D01*
X189939386Y-94183068D01*
X189932274Y-94175357D01*
X189927585Y-94166055D01*
X189924822Y-94152178D01*
X189923485Y-94130739D01*
X189923075Y-94098755D01*
X189923057Y-94085429D01*
X189923330Y-94048775D01*
X189924487Y-94023386D01*
X189927035Y-94006016D01*
X189931480Y-93993420D01*
X189938331Y-93982353D01*
X189939386Y-93980910D01*
X189949951Y-93965756D01*
X189955479Y-93956151D01*
X189955715Y-93955224D01*
X189961337Y-93946066D01*
X189975896Y-93932254D01*
X189995934Y-93916679D01*
X190017989Y-93902235D01*
X190021564Y-93900171D01*
X190039654Y-93891109D01*
X190057527Y-93885637D01*
X190079767Y-93882901D01*
X190110957Y-93882048D01*
X190119000Y-93882028D01*
X190152631Y-93882596D01*
G36*
X189234709Y-93341871D02*
X189269866Y-93342751D01*
X189299441Y-93344154D01*
X189320564Y-93346076D01*
X189329884Y-93348194D01*
X189342905Y-93353523D01*
X189365232Y-93361090D01*
X189392171Y-93369308D01*
X189393747Y-93369763D01*
X189444690Y-93387780D01*
X189502019Y-93413905D01*
X189556572Y-93443336D01*
X189579728Y-93458878D01*
X189607551Y-93480758D01*
X189637591Y-93506659D01*
X189667393Y-93534264D01*
X189694507Y-93561255D01*
X189716480Y-93585316D01*
X189730859Y-93604129D01*
X189734746Y-93611700D01*
X189740942Y-93622406D01*
X189744644Y-93624400D01*
X189750788Y-93630399D01*
X189759614Y-93645509D01*
X189763400Y-93653428D01*
X189772623Y-93671058D01*
X189780476Y-93681359D01*
X189782645Y-93682457D01*
X189788141Y-93688336D01*
X189788800Y-93693122D01*
X189792170Y-93706223D01*
X189800447Y-93724537D01*
X189802109Y-93727593D01*
X189811027Y-93746861D01*
X189821413Y-93774109D01*
X189830630Y-93802200D01*
X189851882Y-93894756D01*
X189859877Y-93987357D01*
X189854582Y-94081611D01*
X189835966Y-94179123D01*
X189822077Y-94228241D01*
X189811456Y-94262396D01*
X189858185Y-94284474D01*
X189881178Y-94296285D01*
X189897859Y-94306658D01*
X189904872Y-94313487D01*
X189904915Y-94313819D01*
X189910652Y-94320558D01*
X189914066Y-94321086D01*
X189924255Y-94326740D01*
X189939149Y-94341363D01*
X189956042Y-94361441D01*
X189972226Y-94383464D01*
X189984997Y-94403918D01*
X189991647Y-94419294D01*
X189992045Y-94422281D01*
X189995349Y-94436253D01*
X190003281Y-94454543D01*
X190003704Y-94455343D01*
X190014339Y-94486238D01*
X190019139Y-94524314D01*
X190017817Y-94563342D01*
X190010179Y-94596857D01*
X190001826Y-94621149D01*
X189995483Y-94643296D01*
X189994118Y-94649455D01*
X189987078Y-94664302D01*
X189971446Y-94685760D01*
X189949491Y-94710816D01*
X189942193Y-94718398D01*
X189909946Y-94750308D01*
X189885356Y-94772363D01*
X189866771Y-94785845D01*
X189852540Y-94792037D01*
X189846268Y-94792800D01*
X189831806Y-94795503D01*
X189811835Y-94802159D01*
X189808062Y-94803686D01*
X189782192Y-94810326D01*
X189748609Y-94813451D01*
X189713022Y-94813069D01*
X189681143Y-94809192D01*
X189661800Y-94803423D01*
X189642762Y-94796279D01*
X189627651Y-94793127D01*
X189607359Y-94786873D01*
X189582140Y-94770666D01*
X189554550Y-94746989D01*
X189527143Y-94718327D01*
X189502474Y-94687163D01*
X189483099Y-94655981D01*
X189479814Y-94649395D01*
X189471182Y-94631587D01*
X189463504Y-94620464D01*
X189453830Y-94615543D01*
X189439206Y-94616342D01*
X189416678Y-94622377D01*
X189383294Y-94633166D01*
X189382400Y-94633457D01*
X189329490Y-94646649D01*
X189268289Y-94655275D01*
X189204435Y-94658853D01*
X189143566Y-94656901D01*
X189127553Y-94655264D01*
X189071545Y-94646571D01*
X189018121Y-94634679D01*
X188971130Y-94620600D01*
X188934420Y-94605342D01*
X188931469Y-94603794D01*
X188911896Y-94594727D01*
X188896099Y-94589862D01*
X188893369Y-94589600D01*
X188883185Y-94586475D01*
X188881657Y-94583445D01*
X188875655Y-94576977D01*
X188860563Y-94567994D01*
X188853056Y-94564393D01*
X188834480Y-94554224D01*
X188822373Y-94544278D01*
X188820627Y-94541519D01*
X188811585Y-94532463D01*
X188807227Y-94531543D01*
X188797927Y-94526556D01*
X188781185Y-94513120D01*
X188759310Y-94493524D01*
X188734609Y-94470056D01*
X188709389Y-94445002D01*
X188685958Y-94420653D01*
X188666622Y-94399294D01*
X188653689Y-94383215D01*
X188649429Y-94375063D01*
X188645880Y-94367887D01*
X188636637Y-94352087D01*
X188625468Y-94333926D01*
X188588000Y-94264292D01*
X188561343Y-94191266D01*
X188544839Y-94112334D01*
X188537829Y-94024979D01*
X188537477Y-93998143D01*
X188537848Y-93953938D01*
X188539273Y-93919937D01*
X188542241Y-93891838D01*
X188547241Y-93865341D01*
X188554762Y-93836146D01*
X188556649Y-93829475D01*
X188589107Y-93739705D01*
X188633213Y-93654734D01*
X188660352Y-93613514D01*
X188678874Y-93588805D01*
X188699272Y-93563525D01*
X188719243Y-93540294D01*
X188736487Y-93521733D01*
X188748702Y-93510463D01*
X188752775Y-93508286D01*
X188760004Y-93503770D01*
X188773621Y-93492372D01*
X188780562Y-93486043D01*
X188801121Y-93469062D01*
X188822263Y-93454828D01*
X188826687Y-93452402D01*
X188843658Y-93441815D01*
X188854469Y-93431637D01*
X188854804Y-93431102D01*
X188864857Y-93422205D01*
X188869318Y-93421155D01*
X188881387Y-93417972D01*
X188898710Y-93410323D01*
X188899668Y-93409827D01*
X188928979Y-93396040D01*
X188963465Y-93382019D01*
X188997818Y-93369736D01*
X189026731Y-93361166D01*
X189035952Y-93359152D01*
X189054621Y-93354416D01*
X189066200Y-93348928D01*
X189067223Y-93347806D01*
X189075616Y-93345460D01*
X189095644Y-93343663D01*
X189124437Y-93342410D01*
X189159125Y-93341696D01*
X189196838Y-93341518D01*
X189234709Y-93341871D01*
X189234709Y-93341871D01*
G37*
X189234709Y-93341871D02*
X189269866Y-93342751D01*
X189299441Y-93344154D01*
X189320564Y-93346076D01*
X189329884Y-93348194D01*
X189342905Y-93353523D01*
X189365232Y-93361090D01*
X189392171Y-93369308D01*
X189393747Y-93369763D01*
X189444690Y-93387780D01*
X189502019Y-93413905D01*
X189556572Y-93443336D01*
X189579728Y-93458878D01*
X189607551Y-93480758D01*
X189637591Y-93506659D01*
X189667393Y-93534264D01*
X189694507Y-93561255D01*
X189716480Y-93585316D01*
X189730859Y-93604129D01*
X189734746Y-93611700D01*
X189740942Y-93622406D01*
X189744644Y-93624400D01*
X189750788Y-93630399D01*
X189759614Y-93645509D01*
X189763400Y-93653428D01*
X189772623Y-93671058D01*
X189780476Y-93681359D01*
X189782645Y-93682457D01*
X189788141Y-93688336D01*
X189788800Y-93693122D01*
X189792170Y-93706223D01*
X189800447Y-93724537D01*
X189802109Y-93727593D01*
X189811027Y-93746861D01*
X189821413Y-93774109D01*
X189830630Y-93802200D01*
X189851882Y-93894756D01*
X189859877Y-93987357D01*
X189854582Y-94081611D01*
X189835966Y-94179123D01*
X189822077Y-94228241D01*
X189811456Y-94262396D01*
X189858185Y-94284474D01*
X189881178Y-94296285D01*
X189897859Y-94306658D01*
X189904872Y-94313487D01*
X189904915Y-94313819D01*
X189910652Y-94320558D01*
X189914066Y-94321086D01*
X189924255Y-94326740D01*
X189939149Y-94341363D01*
X189956042Y-94361441D01*
X189972226Y-94383464D01*
X189984997Y-94403918D01*
X189991647Y-94419294D01*
X189992045Y-94422281D01*
X189995349Y-94436253D01*
X190003281Y-94454543D01*
X190003704Y-94455343D01*
X190014339Y-94486238D01*
X190019139Y-94524314D01*
X190017817Y-94563342D01*
X190010179Y-94596857D01*
X190001826Y-94621149D01*
X189995483Y-94643296D01*
X189994118Y-94649455D01*
X189987078Y-94664302D01*
X189971446Y-94685760D01*
X189949491Y-94710816D01*
X189942193Y-94718398D01*
X189909946Y-94750308D01*
X189885356Y-94772363D01*
X189866771Y-94785845D01*
X189852540Y-94792037D01*
X189846268Y-94792800D01*
X189831806Y-94795503D01*
X189811835Y-94802159D01*
X189808062Y-94803686D01*
X189782192Y-94810326D01*
X189748609Y-94813451D01*
X189713022Y-94813069D01*
X189681143Y-94809192D01*
X189661800Y-94803423D01*
X189642762Y-94796279D01*
X189627651Y-94793127D01*
X189607359Y-94786873D01*
X189582140Y-94770666D01*
X189554550Y-94746989D01*
X189527143Y-94718327D01*
X189502474Y-94687163D01*
X189483099Y-94655981D01*
X189479814Y-94649395D01*
X189471182Y-94631587D01*
X189463504Y-94620464D01*
X189453830Y-94615543D01*
X189439206Y-94616342D01*
X189416678Y-94622377D01*
X189383294Y-94633166D01*
X189382400Y-94633457D01*
X189329490Y-94646649D01*
X189268289Y-94655275D01*
X189204435Y-94658853D01*
X189143566Y-94656901D01*
X189127553Y-94655264D01*
X189071545Y-94646571D01*
X189018121Y-94634679D01*
X188971130Y-94620600D01*
X188934420Y-94605342D01*
X188931469Y-94603794D01*
X188911896Y-94594727D01*
X188896099Y-94589862D01*
X188893369Y-94589600D01*
X188883185Y-94586475D01*
X188881657Y-94583445D01*
X188875655Y-94576977D01*
X188860563Y-94567994D01*
X188853056Y-94564393D01*
X188834480Y-94554224D01*
X188822373Y-94544278D01*
X188820627Y-94541519D01*
X188811585Y-94532463D01*
X188807227Y-94531543D01*
X188797927Y-94526556D01*
X188781185Y-94513120D01*
X188759310Y-94493524D01*
X188734609Y-94470056D01*
X188709389Y-94445002D01*
X188685958Y-94420653D01*
X188666622Y-94399294D01*
X188653689Y-94383215D01*
X188649429Y-94375063D01*
X188645880Y-94367887D01*
X188636637Y-94352087D01*
X188625468Y-94333926D01*
X188588000Y-94264292D01*
X188561343Y-94191266D01*
X188544839Y-94112334D01*
X188537829Y-94024979D01*
X188537477Y-93998143D01*
X188537848Y-93953938D01*
X188539273Y-93919937D01*
X188542241Y-93891838D01*
X188547241Y-93865341D01*
X188554762Y-93836146D01*
X188556649Y-93829475D01*
X188589107Y-93739705D01*
X188633213Y-93654734D01*
X188660352Y-93613514D01*
X188678874Y-93588805D01*
X188699272Y-93563525D01*
X188719243Y-93540294D01*
X188736487Y-93521733D01*
X188748702Y-93510463D01*
X188752775Y-93508286D01*
X188760004Y-93503770D01*
X188773621Y-93492372D01*
X188780562Y-93486043D01*
X188801121Y-93469062D01*
X188822263Y-93454828D01*
X188826687Y-93452402D01*
X188843658Y-93441815D01*
X188854469Y-93431637D01*
X188854804Y-93431102D01*
X188864857Y-93422205D01*
X188869318Y-93421155D01*
X188881387Y-93417972D01*
X188898710Y-93410323D01*
X188899668Y-93409827D01*
X188928979Y-93396040D01*
X188963465Y-93382019D01*
X188997818Y-93369736D01*
X189026731Y-93361166D01*
X189035952Y-93359152D01*
X189054621Y-93354416D01*
X189066200Y-93348928D01*
X189067223Y-93347806D01*
X189075616Y-93345460D01*
X189095644Y-93343663D01*
X189124437Y-93342410D01*
X189159125Y-93341696D01*
X189196838Y-93341518D01*
X189234709Y-93341871D01*
G36*
X191897385Y-94294544D02*
X191937611Y-94302442D01*
X191955278Y-94308677D01*
X192013239Y-94340940D01*
X192061624Y-94383135D01*
X192077393Y-94401385D01*
X192107369Y-94443787D01*
X192127351Y-94485719D01*
X192138675Y-94531346D01*
X192142672Y-94584833D01*
X192142608Y-94605102D01*
X192141218Y-94639322D01*
X192137664Y-94664981D01*
X192130666Y-94688005D01*
X192119121Y-94713959D01*
X192103803Y-94744880D01*
X192090997Y-94767615D01*
X192077663Y-94786143D01*
X192060759Y-94804442D01*
X192037247Y-94826491D01*
X192024000Y-94838427D01*
X192002694Y-94852745D01*
X191971912Y-94867570D01*
X191936485Y-94880956D01*
X191901242Y-94890958D01*
X191886115Y-94893938D01*
X191857172Y-94898402D01*
X191836703Y-94900357D01*
X191818855Y-94899646D01*
X191797780Y-94896111D01*
X191773629Y-94890916D01*
X191709365Y-94869882D01*
X191653454Y-94837639D01*
X191606875Y-94795477D01*
X191570606Y-94744688D01*
X191545628Y-94686563D01*
X191532918Y-94622394D01*
X191531969Y-94572120D01*
X191542364Y-94508386D01*
X191565815Y-94449637D01*
X191601324Y-94397249D01*
X191647887Y-94352597D01*
X191704506Y-94317057D01*
X191724174Y-94308007D01*
X191759452Y-94297854D01*
X191803370Y-94292236D01*
X191850993Y-94291137D01*
X191897385Y-94294544D01*
X191897385Y-94294544D01*
G37*
X191897385Y-94294544D02*
X191937611Y-94302442D01*
X191955278Y-94308677D01*
X192013239Y-94340940D01*
X192061624Y-94383135D01*
X192077393Y-94401385D01*
X192107369Y-94443787D01*
X192127351Y-94485719D01*
X192138675Y-94531346D01*
X192142672Y-94584833D01*
X192142608Y-94605102D01*
X192141218Y-94639322D01*
X192137664Y-94664981D01*
X192130666Y-94688005D01*
X192119121Y-94713959D01*
X192103803Y-94744880D01*
X192090997Y-94767615D01*
X192077663Y-94786143D01*
X192060759Y-94804442D01*
X192037247Y-94826491D01*
X192024000Y-94838427D01*
X192002694Y-94852745D01*
X191971912Y-94867570D01*
X191936485Y-94880956D01*
X191901242Y-94890958D01*
X191886115Y-94893938D01*
X191857172Y-94898402D01*
X191836703Y-94900357D01*
X191818855Y-94899646D01*
X191797780Y-94896111D01*
X191773629Y-94890916D01*
X191709365Y-94869882D01*
X191653454Y-94837639D01*
X191606875Y-94795477D01*
X191570606Y-94744688D01*
X191545628Y-94686563D01*
X191532918Y-94622394D01*
X191531969Y-94572120D01*
X191542364Y-94508386D01*
X191565815Y-94449637D01*
X191601324Y-94397249D01*
X191647887Y-94352597D01*
X191704506Y-94317057D01*
X191724174Y-94308007D01*
X191759452Y-94297854D01*
X191803370Y-94292236D01*
X191850993Y-94291137D01*
X191897385Y-94294544D01*
G36*
X190807457Y-94188438D02*
X190848372Y-94194814D01*
X190886735Y-94203396D01*
X190918047Y-94213389D01*
X190932657Y-94220364D01*
X190950071Y-94229478D01*
X190963046Y-94233916D01*
X190964166Y-94234000D01*
X190979166Y-94239749D01*
X191002901Y-94256949D01*
X191035280Y-94285526D01*
X191065140Y-94314342D01*
X191109317Y-94366583D01*
X191144874Y-94425898D01*
X191169436Y-94488058D01*
X191175109Y-94510221D01*
X191180747Y-94551145D01*
X191182283Y-94599012D01*
X191180015Y-94649106D01*
X191174243Y-94696710D01*
X191165264Y-94737109D01*
X191159742Y-94752946D01*
X191123270Y-94824964D01*
X191077475Y-94886368D01*
X191021761Y-94937684D01*
X190955528Y-94979442D01*
X190878180Y-95012170D01*
X190859277Y-95018315D01*
X190843510Y-95020818D01*
X190817197Y-95022636D01*
X190784290Y-95023737D01*
X190748743Y-95024091D01*
X190714509Y-95023667D01*
X190685541Y-95022435D01*
X190665792Y-95020362D01*
X190663286Y-95019842D01*
X190627253Y-95007879D01*
X190585285Y-94988849D01*
X190542323Y-94965294D01*
X190503309Y-94939756D01*
X190493885Y-94932690D01*
X190441550Y-94883168D01*
X190399558Y-94824983D01*
X190368348Y-94760081D01*
X190348361Y-94690411D01*
X190340036Y-94617921D01*
X190343814Y-94544558D01*
X190360134Y-94472269D01*
X190378969Y-94423967D01*
X190400185Y-94385597D01*
X190427635Y-94346409D01*
X190457833Y-94310815D01*
X190487291Y-94283227D01*
X190494459Y-94277867D01*
X190514732Y-94263084D01*
X190531426Y-94249919D01*
X190536895Y-94245093D01*
X190549926Y-94236084D01*
X190557228Y-94234000D01*
X190568885Y-94230871D01*
X190587077Y-94223074D01*
X190592905Y-94220173D01*
X190633577Y-94204282D01*
X190685452Y-94192207D01*
X190735956Y-94185497D01*
X190768485Y-94185066D01*
X190807457Y-94188438D01*
X190807457Y-94188438D01*
G37*
X190807457Y-94188438D02*
X190848372Y-94194814D01*
X190886735Y-94203396D01*
X190918047Y-94213389D01*
X190932657Y-94220364D01*
X190950071Y-94229478D01*
X190963046Y-94233916D01*
X190964166Y-94234000D01*
X190979166Y-94239749D01*
X191002901Y-94256949D01*
X191035280Y-94285526D01*
X191065140Y-94314342D01*
X191109317Y-94366583D01*
X191144874Y-94425898D01*
X191169436Y-94488058D01*
X191175109Y-94510221D01*
X191180747Y-94551145D01*
X191182283Y-94599012D01*
X191180015Y-94649106D01*
X191174243Y-94696710D01*
X191165264Y-94737109D01*
X191159742Y-94752946D01*
X191123270Y-94824964D01*
X191077475Y-94886368D01*
X191021761Y-94937684D01*
X190955528Y-94979442D01*
X190878180Y-95012170D01*
X190859277Y-95018315D01*
X190843510Y-95020818D01*
X190817197Y-95022636D01*
X190784290Y-95023737D01*
X190748743Y-95024091D01*
X190714509Y-95023667D01*
X190685541Y-95022435D01*
X190665792Y-95020362D01*
X190663286Y-95019842D01*
X190627253Y-95007879D01*
X190585285Y-94988849D01*
X190542323Y-94965294D01*
X190503309Y-94939756D01*
X190493885Y-94932690D01*
X190441550Y-94883168D01*
X190399558Y-94824983D01*
X190368348Y-94760081D01*
X190348361Y-94690411D01*
X190340036Y-94617921D01*
X190343814Y-94544558D01*
X190360134Y-94472269D01*
X190378969Y-94423967D01*
X190400185Y-94385597D01*
X190427635Y-94346409D01*
X190457833Y-94310815D01*
X190487291Y-94283227D01*
X190494459Y-94277867D01*
X190514732Y-94263084D01*
X190531426Y-94249919D01*
X190536895Y-94245093D01*
X190549926Y-94236084D01*
X190557228Y-94234000D01*
X190568885Y-94230871D01*
X190587077Y-94223074D01*
X190592905Y-94220173D01*
X190633577Y-94204282D01*
X190685452Y-94192207D01*
X190735956Y-94185497D01*
X190768485Y-94185066D01*
X190807457Y-94188438D01*
G36*
X188169879Y-94453320D02*
X188207444Y-94457631D01*
X188243197Y-94463951D01*
X188273469Y-94471576D01*
X188294593Y-94479802D01*
X188300237Y-94483603D01*
X188315008Y-94492867D01*
X188324591Y-94495257D01*
X188340895Y-94500659D01*
X188363364Y-94515235D01*
X188389469Y-94536535D01*
X188416680Y-94562111D01*
X188442469Y-94589515D01*
X188464304Y-94616299D01*
X188479657Y-94640015D01*
X188483938Y-94649471D01*
X188491009Y-94663746D01*
X188497410Y-94669428D01*
X188502550Y-94675799D01*
X188507537Y-94691608D01*
X188508556Y-94696643D01*
X188515203Y-94721659D01*
X188524519Y-94744806D01*
X188524945Y-94745628D01*
X188532749Y-94770382D01*
X188536863Y-94805303D01*
X188537386Y-94846546D01*
X188534414Y-94890268D01*
X188528046Y-94932624D01*
X188519308Y-94966971D01*
X188510380Y-94993073D01*
X188502556Y-95013368D01*
X188497253Y-95024240D01*
X188496538Y-95025028D01*
X188490710Y-95033515D01*
X188482519Y-95050182D01*
X188480072Y-95055871D01*
X188471253Y-95072962D01*
X188463064Y-95082421D01*
X188461113Y-95083086D01*
X188453804Y-95088670D01*
X188453486Y-95090901D01*
X188447504Y-95103891D01*
X188431315Y-95121776D01*
X188407555Y-95142688D01*
X188378858Y-95164759D01*
X188347861Y-95186122D01*
X188317197Y-95204907D01*
X188289504Y-95219248D01*
X188267415Y-95227275D01*
X188259599Y-95228338D01*
X188244753Y-95230797D01*
X188223780Y-95236783D01*
X188217629Y-95238905D01*
X188194019Y-95244216D01*
X188161361Y-95247542D01*
X188125015Y-95248672D01*
X188090339Y-95247395D01*
X188068857Y-95244768D01*
X188052232Y-95239783D01*
X188043820Y-95234871D01*
X188031580Y-95229560D01*
X188020155Y-95228228D01*
X187995250Y-95223281D01*
X187963605Y-95209778D01*
X187928436Y-95189728D01*
X187892958Y-95165138D01*
X187860385Y-95138017D01*
X187836629Y-95113593D01*
X187807983Y-95079067D01*
X187789218Y-95054072D01*
X187779869Y-95037959D01*
X187778572Y-95032697D01*
X187774870Y-95021180D01*
X187766440Y-95006003D01*
X187754182Y-94978571D01*
X187745051Y-94940607D01*
X187739369Y-94895819D01*
X187737457Y-94847916D01*
X187739638Y-94800607D01*
X187745257Y-94762126D01*
X187762300Y-94701341D01*
X187787646Y-94647196D01*
X187822889Y-94597346D01*
X187869623Y-94549445D01*
X187915524Y-94511586D01*
X187932233Y-94500746D01*
X187945446Y-94495381D01*
X187946833Y-94495257D01*
X187959864Y-94491334D01*
X187973359Y-94483638D01*
X187993758Y-94474059D01*
X188024511Y-94465255D01*
X188061459Y-94458049D01*
X188100442Y-94453269D01*
X188134169Y-94451723D01*
X188169879Y-94453320D01*
X188169879Y-94453320D01*
G37*
X188169879Y-94453320D02*
X188207444Y-94457631D01*
X188243197Y-94463951D01*
X188273469Y-94471576D01*
X188294593Y-94479802D01*
X188300237Y-94483603D01*
X188315008Y-94492867D01*
X188324591Y-94495257D01*
X188340895Y-94500659D01*
X188363364Y-94515235D01*
X188389469Y-94536535D01*
X188416680Y-94562111D01*
X188442469Y-94589515D01*
X188464304Y-94616299D01*
X188479657Y-94640015D01*
X188483938Y-94649471D01*
X188491009Y-94663746D01*
X188497410Y-94669428D01*
X188502550Y-94675799D01*
X188507537Y-94691608D01*
X188508556Y-94696643D01*
X188515203Y-94721659D01*
X188524519Y-94744806D01*
X188524945Y-94745628D01*
X188532749Y-94770382D01*
X188536863Y-94805303D01*
X188537386Y-94846546D01*
X188534414Y-94890268D01*
X188528046Y-94932624D01*
X188519308Y-94966971D01*
X188510380Y-94993073D01*
X188502556Y-95013368D01*
X188497253Y-95024240D01*
X188496538Y-95025028D01*
X188490710Y-95033515D01*
X188482519Y-95050182D01*
X188480072Y-95055871D01*
X188471253Y-95072962D01*
X188463064Y-95082421D01*
X188461113Y-95083086D01*
X188453804Y-95088670D01*
X188453486Y-95090901D01*
X188447504Y-95103891D01*
X188431315Y-95121776D01*
X188407555Y-95142688D01*
X188378858Y-95164759D01*
X188347861Y-95186122D01*
X188317197Y-95204907D01*
X188289504Y-95219248D01*
X188267415Y-95227275D01*
X188259599Y-95228338D01*
X188244753Y-95230797D01*
X188223780Y-95236783D01*
X188217629Y-95238905D01*
X188194019Y-95244216D01*
X188161361Y-95247542D01*
X188125015Y-95248672D01*
X188090339Y-95247395D01*
X188068857Y-95244768D01*
X188052232Y-95239783D01*
X188043820Y-95234871D01*
X188031580Y-95229560D01*
X188020155Y-95228228D01*
X187995250Y-95223281D01*
X187963605Y-95209778D01*
X187928436Y-95189728D01*
X187892958Y-95165138D01*
X187860385Y-95138017D01*
X187836629Y-95113593D01*
X187807983Y-95079067D01*
X187789218Y-95054072D01*
X187779869Y-95037959D01*
X187778572Y-95032697D01*
X187774870Y-95021180D01*
X187766440Y-95006003D01*
X187754182Y-94978571D01*
X187745051Y-94940607D01*
X187739369Y-94895819D01*
X187737457Y-94847916D01*
X187739638Y-94800607D01*
X187745257Y-94762126D01*
X187762300Y-94701341D01*
X187787646Y-94647196D01*
X187822889Y-94597346D01*
X187869623Y-94549445D01*
X187915524Y-94511586D01*
X187932233Y-94500746D01*
X187945446Y-94495381D01*
X187946833Y-94495257D01*
X187959864Y-94491334D01*
X187973359Y-94483638D01*
X187993758Y-94474059D01*
X188024511Y-94465255D01*
X188061459Y-94458049D01*
X188100442Y-94453269D01*
X188134169Y-94451723D01*
X188169879Y-94453320D01*
G36*
X190134462Y-94894543D02*
X190162401Y-94900380D01*
X190193194Y-94909332D01*
X190223670Y-94920138D01*
X190250661Y-94931537D01*
X190270998Y-94942268D01*
X190281512Y-94951069D01*
X190282286Y-94953374D01*
X190287879Y-94959488D01*
X190289889Y-94959714D01*
X190298663Y-94964615D01*
X190313656Y-94977124D01*
X190331536Y-94993946D01*
X190348974Y-95011789D01*
X190362640Y-95027360D01*
X190369202Y-95037366D01*
X190369372Y-95038308D01*
X190374340Y-95048171D01*
X190379666Y-95053566D01*
X190386977Y-95064205D01*
X190396942Y-95084567D01*
X190407617Y-95110607D01*
X190409493Y-95115664D01*
X190418147Y-95140740D01*
X190423601Y-95161736D01*
X190426401Y-95183126D01*
X190427090Y-95209386D01*
X190426212Y-95244991D01*
X190425981Y-95251338D01*
X190424245Y-95288754D01*
X190421701Y-95316008D01*
X190417455Y-95337453D01*
X190410615Y-95357440D01*
X190400286Y-95380321D01*
X190398936Y-95383123D01*
X190382664Y-95411010D01*
X190360404Y-95441323D01*
X190334455Y-95471721D01*
X190307114Y-95499866D01*
X190280677Y-95523418D01*
X190257442Y-95540037D01*
X190239708Y-95547384D01*
X190237488Y-95547543D01*
X190225243Y-95550789D01*
X190206709Y-95558890D01*
X190200562Y-95562057D01*
X190187057Y-95568250D01*
X190171876Y-95572374D01*
X190151880Y-95574793D01*
X190123929Y-95575870D01*
X190084883Y-95575972D01*
X190080927Y-95575947D01*
X190041835Y-95575472D01*
X190013654Y-95574279D01*
X189992781Y-95571791D01*
X189975613Y-95567429D01*
X189958547Y-95560617D01*
X189944829Y-95554129D01*
X189914447Y-95538993D01*
X189892493Y-95526552D01*
X189874335Y-95513480D01*
X189855340Y-95496453D01*
X189831540Y-95472817D01*
X189790314Y-95424814D01*
X189763142Y-95378198D01*
X189751900Y-95344343D01*
X189746352Y-95320655D01*
X189739602Y-95293224D01*
X189737838Y-95286286D01*
X189732966Y-95249537D01*
X189734236Y-95206831D01*
X189741295Y-95165193D01*
X189744459Y-95154054D01*
X189751072Y-95131019D01*
X189755902Y-95110807D01*
X189762840Y-95091902D01*
X189770668Y-95080483D01*
X189779583Y-95068256D01*
X189781543Y-95061888D01*
X189786735Y-95049959D01*
X189800543Y-95031510D01*
X189820315Y-95009170D01*
X189843397Y-94985566D01*
X189867138Y-94963327D01*
X189888886Y-94945080D01*
X189905986Y-94933454D01*
X189913986Y-94930658D01*
X189925973Y-94927099D01*
X189943057Y-94918458D01*
X189944829Y-94917399D01*
X189974301Y-94904980D01*
X190013578Y-94896168D01*
X190058280Y-94891491D01*
X190104027Y-94891477D01*
X190134462Y-94894543D01*
X190134462Y-94894543D01*
G37*
X190134462Y-94894543D02*
X190162401Y-94900380D01*
X190193194Y-94909332D01*
X190223670Y-94920138D01*
X190250661Y-94931537D01*
X190270998Y-94942268D01*
X190281512Y-94951069D01*
X190282286Y-94953374D01*
X190287879Y-94959488D01*
X190289889Y-94959714D01*
X190298663Y-94964615D01*
X190313656Y-94977124D01*
X190331536Y-94993946D01*
X190348974Y-95011789D01*
X190362640Y-95027360D01*
X190369202Y-95037366D01*
X190369372Y-95038308D01*
X190374340Y-95048171D01*
X190379666Y-95053566D01*
X190386977Y-95064205D01*
X190396942Y-95084567D01*
X190407617Y-95110607D01*
X190409493Y-95115664D01*
X190418147Y-95140740D01*
X190423601Y-95161736D01*
X190426401Y-95183126D01*
X190427090Y-95209386D01*
X190426212Y-95244991D01*
X190425981Y-95251338D01*
X190424245Y-95288754D01*
X190421701Y-95316008D01*
X190417455Y-95337453D01*
X190410615Y-95357440D01*
X190400286Y-95380321D01*
X190398936Y-95383123D01*
X190382664Y-95411010D01*
X190360404Y-95441323D01*
X190334455Y-95471721D01*
X190307114Y-95499866D01*
X190280677Y-95523418D01*
X190257442Y-95540037D01*
X190239708Y-95547384D01*
X190237488Y-95547543D01*
X190225243Y-95550789D01*
X190206709Y-95558890D01*
X190200562Y-95562057D01*
X190187057Y-95568250D01*
X190171876Y-95572374D01*
X190151880Y-95574793D01*
X190123929Y-95575870D01*
X190084883Y-95575972D01*
X190080927Y-95575947D01*
X190041835Y-95575472D01*
X190013654Y-95574279D01*
X189992781Y-95571791D01*
X189975613Y-95567429D01*
X189958547Y-95560617D01*
X189944829Y-95554129D01*
X189914447Y-95538993D01*
X189892493Y-95526552D01*
X189874335Y-95513480D01*
X189855340Y-95496453D01*
X189831540Y-95472817D01*
X189790314Y-95424814D01*
X189763142Y-95378198D01*
X189751900Y-95344343D01*
X189746352Y-95320655D01*
X189739602Y-95293224D01*
X189737838Y-95286286D01*
X189732966Y-95249537D01*
X189734236Y-95206831D01*
X189741295Y-95165193D01*
X189744459Y-95154054D01*
X189751072Y-95131019D01*
X189755902Y-95110807D01*
X189762840Y-95091902D01*
X189770668Y-95080483D01*
X189779583Y-95068256D01*
X189781543Y-95061888D01*
X189786735Y-95049959D01*
X189800543Y-95031510D01*
X189820315Y-95009170D01*
X189843397Y-94985566D01*
X189867138Y-94963327D01*
X189888886Y-94945080D01*
X189905986Y-94933454D01*
X189913986Y-94930658D01*
X189925973Y-94927099D01*
X189943057Y-94918458D01*
X189944829Y-94917399D01*
X189974301Y-94904980D01*
X190013578Y-94896168D01*
X190058280Y-94891491D01*
X190104027Y-94891477D01*
X190134462Y-94894543D01*
G36*
X191283481Y-94977106D02*
X191317693Y-94981150D01*
X191320838Y-94981597D01*
X191351799Y-94986813D01*
X191378869Y-94992768D01*
X191397590Y-94998432D01*
X191401439Y-95000208D01*
X191419913Y-95009999D01*
X191441368Y-95020474D01*
X191441743Y-95020648D01*
X191463214Y-95034392D01*
X191489554Y-95056735D01*
X191517430Y-95084304D01*
X191543508Y-95113722D01*
X191564456Y-95141615D01*
X191570108Y-95150647D01*
X191587796Y-95188426D01*
X191602777Y-95234121D01*
X191613290Y-95281241D01*
X191617579Y-95323293D01*
X191617600Y-95325999D01*
X191615622Y-95354737D01*
X191610559Y-95387868D01*
X191606485Y-95406318D01*
X191582195Y-95473707D01*
X191546817Y-95533122D01*
X191501807Y-95583589D01*
X191448624Y-95624139D01*
X191388724Y-95653798D01*
X191323565Y-95671595D01*
X191254604Y-95676560D01*
X191207549Y-95672308D01*
X191179471Y-95666183D01*
X191148220Y-95656625D01*
X191117226Y-95645038D01*
X191089918Y-95632824D01*
X191069726Y-95621387D01*
X191060081Y-95612129D01*
X191060010Y-95611950D01*
X191051671Y-95606106D01*
X191047565Y-95605600D01*
X191036514Y-95599854D01*
X191029772Y-95591086D01*
X191019623Y-95579539D01*
X191011978Y-95576571D01*
X191001026Y-95571397D01*
X190999126Y-95568092D01*
X190994718Y-95568297D01*
X190987154Y-95579140D01*
X190984464Y-95584420D01*
X190965072Y-95613686D01*
X190936281Y-95643249D01*
X190902495Y-95668917D01*
X190885231Y-95678916D01*
X190856990Y-95688777D01*
X190819965Y-95695409D01*
X190779609Y-95698398D01*
X190741376Y-95697333D01*
X190711469Y-95692035D01*
X190664357Y-95670370D01*
X190622360Y-95636620D01*
X190588006Y-95592982D01*
X190578665Y-95576571D01*
X190570275Y-95558089D01*
X190565147Y-95539194D01*
X190562545Y-95515469D01*
X190561734Y-95482499D01*
X190561721Y-95474971D01*
X190562235Y-95440565D01*
X190564291Y-95416088D01*
X190568722Y-95396975D01*
X190576362Y-95378659D01*
X190580919Y-95369743D01*
X190606740Y-95331050D01*
X190640781Y-95299166D01*
X190686115Y-95271236D01*
X190688028Y-95270252D01*
X190733947Y-95254130D01*
X190784414Y-95248777D01*
X190834516Y-95254258D01*
X190873743Y-95267772D01*
X190910029Y-95285411D01*
X190912026Y-95265891D01*
X190916350Y-95247069D01*
X190925349Y-95220398D01*
X190937109Y-95190964D01*
X190949719Y-95163852D01*
X190952105Y-95159286D01*
X190961360Y-95141616D01*
X190969599Y-95125522D01*
X190980097Y-95110176D01*
X190990036Y-95102164D01*
X190999544Y-95094273D01*
X191000743Y-95090222D01*
X191006121Y-95080008D01*
X191018979Y-95066574D01*
X191034402Y-95054256D01*
X191047474Y-95047386D01*
X191049729Y-95047029D01*
X191058164Y-95041987D01*
X191058800Y-95039172D01*
X191064876Y-95031853D01*
X191080041Y-95022887D01*
X191086015Y-95020214D01*
X191104265Y-95011488D01*
X191116028Y-95003787D01*
X191117422Y-95002221D01*
X191125985Y-94998175D01*
X191145506Y-94992820D01*
X191172589Y-94987017D01*
X191189221Y-94983991D01*
X191225885Y-94978406D01*
X191255092Y-94976151D01*
X191283481Y-94977106D01*
X191283481Y-94977106D01*
G37*
X191283481Y-94977106D02*
X191317693Y-94981150D01*
X191320838Y-94981597D01*
X191351799Y-94986813D01*
X191378869Y-94992768D01*
X191397590Y-94998432D01*
X191401439Y-95000208D01*
X191419913Y-95009999D01*
X191441368Y-95020474D01*
X191441743Y-95020648D01*
X191463214Y-95034392D01*
X191489554Y-95056735D01*
X191517430Y-95084304D01*
X191543508Y-95113722D01*
X191564456Y-95141615D01*
X191570108Y-95150647D01*
X191587796Y-95188426D01*
X191602777Y-95234121D01*
X191613290Y-95281241D01*
X191617579Y-95323293D01*
X191617600Y-95325999D01*
X191615622Y-95354737D01*
X191610559Y-95387868D01*
X191606485Y-95406318D01*
X191582195Y-95473707D01*
X191546817Y-95533122D01*
X191501807Y-95583589D01*
X191448624Y-95624139D01*
X191388724Y-95653798D01*
X191323565Y-95671595D01*
X191254604Y-95676560D01*
X191207549Y-95672308D01*
X191179471Y-95666183D01*
X191148220Y-95656625D01*
X191117226Y-95645038D01*
X191089918Y-95632824D01*
X191069726Y-95621387D01*
X191060081Y-95612129D01*
X191060010Y-95611950D01*
X191051671Y-95606106D01*
X191047565Y-95605600D01*
X191036514Y-95599854D01*
X191029772Y-95591086D01*
X191019623Y-95579539D01*
X191011978Y-95576571D01*
X191001026Y-95571397D01*
X190999126Y-95568092D01*
X190994718Y-95568297D01*
X190987154Y-95579140D01*
X190984464Y-95584420D01*
X190965072Y-95613686D01*
X190936281Y-95643249D01*
X190902495Y-95668917D01*
X190885231Y-95678916D01*
X190856990Y-95688777D01*
X190819965Y-95695409D01*
X190779609Y-95698398D01*
X190741376Y-95697333D01*
X190711469Y-95692035D01*
X190664357Y-95670370D01*
X190622360Y-95636620D01*
X190588006Y-95592982D01*
X190578665Y-95576571D01*
X190570275Y-95558089D01*
X190565147Y-95539194D01*
X190562545Y-95515469D01*
X190561734Y-95482499D01*
X190561721Y-95474971D01*
X190562235Y-95440565D01*
X190564291Y-95416088D01*
X190568722Y-95396975D01*
X190576362Y-95378659D01*
X190580919Y-95369743D01*
X190606740Y-95331050D01*
X190640781Y-95299166D01*
X190686115Y-95271236D01*
X190688028Y-95270252D01*
X190733947Y-95254130D01*
X190784414Y-95248777D01*
X190834516Y-95254258D01*
X190873743Y-95267772D01*
X190910029Y-95285411D01*
X190912026Y-95265891D01*
X190916350Y-95247069D01*
X190925349Y-95220398D01*
X190937109Y-95190964D01*
X190949719Y-95163852D01*
X190952105Y-95159286D01*
X190961360Y-95141616D01*
X190969599Y-95125522D01*
X190980097Y-95110176D01*
X190990036Y-95102164D01*
X190999544Y-95094273D01*
X191000743Y-95090222D01*
X191006121Y-95080008D01*
X191018979Y-95066574D01*
X191034402Y-95054256D01*
X191047474Y-95047386D01*
X191049729Y-95047029D01*
X191058164Y-95041987D01*
X191058800Y-95039172D01*
X191064876Y-95031853D01*
X191080041Y-95022887D01*
X191086015Y-95020214D01*
X191104265Y-95011488D01*
X191116028Y-95003787D01*
X191117422Y-95002221D01*
X191125985Y-94998175D01*
X191145506Y-94992820D01*
X191172589Y-94987017D01*
X191189221Y-94983991D01*
X191225885Y-94978406D01*
X191255092Y-94976151D01*
X191283481Y-94977106D01*
G36*
X189142240Y-94807247D02*
X189221097Y-94826072D01*
X189243504Y-94833946D01*
X189275110Y-94847734D01*
X189309892Y-94865749D01*
X189343242Y-94885346D01*
X189370551Y-94903881D01*
X189382400Y-94913652D01*
X189394738Y-94925093D01*
X189411604Y-94940603D01*
X189415684Y-94944339D01*
X189431021Y-94960161D01*
X189441347Y-94974062D01*
X189442670Y-94976785D01*
X189450357Y-94987051D01*
X189454923Y-94988743D01*
X189463398Y-94994624D01*
X189469795Y-95005071D01*
X189477427Y-95019814D01*
X189489952Y-95041566D01*
X189501990Y-95061314D01*
X189515051Y-95083894D01*
X189524198Y-95102979D01*
X189527261Y-95113327D01*
X189530177Y-95126811D01*
X189537275Y-95147491D01*
X189542057Y-95159285D01*
X189548262Y-95176132D01*
X189552456Y-95194636D01*
X189554999Y-95218046D01*
X189556251Y-95249609D01*
X189556572Y-95290363D01*
X189556238Y-95332582D01*
X189554905Y-95364338D01*
X189552079Y-95389671D01*
X189547264Y-95412623D01*
X189539965Y-95437237D01*
X189537743Y-95443976D01*
X189527671Y-95471881D01*
X189517846Y-95495309D01*
X189510065Y-95510061D01*
X189508715Y-95511828D01*
X189500318Y-95524790D01*
X189498515Y-95531422D01*
X189494625Y-95542279D01*
X189484901Y-95559218D01*
X189472254Y-95578025D01*
X189459599Y-95594490D01*
X189449849Y-95604401D01*
X189447200Y-95605600D01*
X189440820Y-95611271D01*
X189440457Y-95613972D01*
X189434587Y-95626122D01*
X189418656Y-95643518D01*
X189395186Y-95664168D01*
X189366699Y-95686082D01*
X189335717Y-95707269D01*
X189304760Y-95725739D01*
X189288057Y-95734303D01*
X189249751Y-95751987D01*
X189219807Y-95764110D01*
X189193815Y-95772010D01*
X189167368Y-95777023D01*
X189136056Y-95780488D01*
X189135657Y-95780524D01*
X189101797Y-95783372D01*
X189076074Y-95784862D01*
X189053233Y-95784970D01*
X189028014Y-95783675D01*
X188995161Y-95780953D01*
X188983257Y-95779876D01*
X188951745Y-95775574D01*
X188921679Y-95769089D01*
X188899800Y-95761913D01*
X188830655Y-95727941D01*
X188773912Y-95693171D01*
X188727473Y-95656142D01*
X188689241Y-95615395D01*
X188689200Y-95615344D01*
X188673589Y-95596328D01*
X188661514Y-95582181D01*
X188656225Y-95576571D01*
X188648040Y-95565455D01*
X188636588Y-95543969D01*
X188623302Y-95515478D01*
X188609614Y-95483343D01*
X188596958Y-95450930D01*
X188586766Y-95421601D01*
X188580481Y-95398771D01*
X188570420Y-95316258D01*
X188574201Y-95233987D01*
X188591277Y-95153775D01*
X188621105Y-95077441D01*
X188663137Y-95006800D01*
X188716830Y-94943670D01*
X188717118Y-94943386D01*
X188739048Y-94922302D01*
X188757396Y-94905769D01*
X188769601Y-94896039D01*
X188772842Y-94894400D01*
X188782749Y-94889865D01*
X188788610Y-94885000D01*
X188799574Y-94877514D01*
X188819754Y-94866222D01*
X188845087Y-94853173D01*
X188871508Y-94840415D01*
X188894952Y-94829996D01*
X188907057Y-94825314D01*
X188982234Y-94806791D01*
X189061624Y-94800795D01*
X189142240Y-94807247D01*
X189142240Y-94807247D01*
G37*
X189142240Y-94807247D02*
X189221097Y-94826072D01*
X189243504Y-94833946D01*
X189275110Y-94847734D01*
X189309892Y-94865749D01*
X189343242Y-94885346D01*
X189370551Y-94903881D01*
X189382400Y-94913652D01*
X189394738Y-94925093D01*
X189411604Y-94940603D01*
X189415684Y-94944339D01*
X189431021Y-94960161D01*
X189441347Y-94974062D01*
X189442670Y-94976785D01*
X189450357Y-94987051D01*
X189454923Y-94988743D01*
X189463398Y-94994624D01*
X189469795Y-95005071D01*
X189477427Y-95019814D01*
X189489952Y-95041566D01*
X189501990Y-95061314D01*
X189515051Y-95083894D01*
X189524198Y-95102979D01*
X189527261Y-95113327D01*
X189530177Y-95126811D01*
X189537275Y-95147491D01*
X189542057Y-95159285D01*
X189548262Y-95176132D01*
X189552456Y-95194636D01*
X189554999Y-95218046D01*
X189556251Y-95249609D01*
X189556572Y-95290363D01*
X189556238Y-95332582D01*
X189554905Y-95364338D01*
X189552079Y-95389671D01*
X189547264Y-95412623D01*
X189539965Y-95437237D01*
X189537743Y-95443976D01*
X189527671Y-95471881D01*
X189517846Y-95495309D01*
X189510065Y-95510061D01*
X189508715Y-95511828D01*
X189500318Y-95524790D01*
X189498515Y-95531422D01*
X189494625Y-95542279D01*
X189484901Y-95559218D01*
X189472254Y-95578025D01*
X189459599Y-95594490D01*
X189449849Y-95604401D01*
X189447200Y-95605600D01*
X189440820Y-95611271D01*
X189440457Y-95613972D01*
X189434587Y-95626122D01*
X189418656Y-95643518D01*
X189395186Y-95664168D01*
X189366699Y-95686082D01*
X189335717Y-95707269D01*
X189304760Y-95725739D01*
X189288057Y-95734303D01*
X189249751Y-95751987D01*
X189219807Y-95764110D01*
X189193815Y-95772010D01*
X189167368Y-95777023D01*
X189136056Y-95780488D01*
X189135657Y-95780524D01*
X189101797Y-95783372D01*
X189076074Y-95784862D01*
X189053233Y-95784970D01*
X189028014Y-95783675D01*
X188995161Y-95780953D01*
X188983257Y-95779876D01*
X188951745Y-95775574D01*
X188921679Y-95769089D01*
X188899800Y-95761913D01*
X188830655Y-95727941D01*
X188773912Y-95693171D01*
X188727473Y-95656142D01*
X188689241Y-95615395D01*
X188689200Y-95615344D01*
X188673589Y-95596328D01*
X188661514Y-95582181D01*
X188656225Y-95576571D01*
X188648040Y-95565455D01*
X188636588Y-95543969D01*
X188623302Y-95515478D01*
X188609614Y-95483343D01*
X188596958Y-95450930D01*
X188586766Y-95421601D01*
X188580481Y-95398771D01*
X188570420Y-95316258D01*
X188574201Y-95233987D01*
X188591277Y-95153775D01*
X188621105Y-95077441D01*
X188663137Y-95006800D01*
X188716830Y-94943670D01*
X188717118Y-94943386D01*
X188739048Y-94922302D01*
X188757396Y-94905769D01*
X188769601Y-94896039D01*
X188772842Y-94894400D01*
X188782749Y-94889865D01*
X188788610Y-94885000D01*
X188799574Y-94877514D01*
X188819754Y-94866222D01*
X188845087Y-94853173D01*
X188871508Y-94840415D01*
X188894952Y-94829996D01*
X188907057Y-94825314D01*
X188982234Y-94806791D01*
X189061624Y-94800795D01*
X189142240Y-94807247D01*
G36*
X192053868Y-95324818D02*
X192103059Y-95330384D01*
X192145147Y-95340175D01*
X192165808Y-95348833D01*
X192191232Y-95362664D01*
X192218426Y-95379609D01*
X192244397Y-95397610D01*
X192266153Y-95414608D01*
X192280702Y-95428544D01*
X192285168Y-95436511D01*
X192290802Y-95447442D01*
X192295416Y-95451025D01*
X192303174Y-95459961D01*
X192314769Y-95478551D01*
X192328035Y-95503232D01*
X192331702Y-95510642D01*
X192343162Y-95534954D01*
X192350663Y-95554261D01*
X192355042Y-95572883D01*
X192357138Y-95595142D01*
X192357786Y-95625361D01*
X192357829Y-95645514D01*
X192357584Y-95681679D01*
X192356317Y-95707591D01*
X192353228Y-95727510D01*
X192347518Y-95745696D01*
X192338388Y-95766410D01*
X192333076Y-95777433D01*
X192303709Y-95825872D01*
X192265511Y-95871222D01*
X192222459Y-95909181D01*
X192194441Y-95927471D01*
X192139537Y-95950878D01*
X192078974Y-95964213D01*
X192017354Y-95966890D01*
X191959285Y-95958326D01*
X191956652Y-95957618D01*
X191917136Y-95944308D01*
X191879204Y-95927266D01*
X191848643Y-95909164D01*
X191843787Y-95905543D01*
X191823695Y-95888075D01*
X191802284Y-95866790D01*
X191782223Y-95844706D01*
X191766181Y-95824841D01*
X191756829Y-95810210D01*
X191755495Y-95805743D01*
X191751074Y-95795580D01*
X191744151Y-95786532D01*
X191737993Y-95774014D01*
X191731113Y-95751130D01*
X191724637Y-95721909D01*
X191722160Y-95707803D01*
X191717118Y-95672952D01*
X191715164Y-95645924D01*
X191716310Y-95620357D01*
X191720570Y-95589888D01*
X191722427Y-95579014D01*
X191728470Y-95549222D01*
X191735104Y-95524084D01*
X191741187Y-95507716D01*
X191743015Y-95504772D01*
X191753110Y-95489320D01*
X191761184Y-95473157D01*
X191769450Y-95458960D01*
X191777102Y-95453200D01*
X191784207Y-95447609D01*
X191784515Y-95445384D01*
X191789585Y-95435087D01*
X191801819Y-95420573D01*
X191816749Y-95406309D01*
X191829909Y-95396763D01*
X191834756Y-95395143D01*
X191842256Y-95390650D01*
X191842572Y-95388897D01*
X191848842Y-95381514D01*
X191865376Y-95370930D01*
X191888757Y-95358795D01*
X191915570Y-95346759D01*
X191942399Y-95336473D01*
X191964887Y-95329803D01*
X192005790Y-95324508D01*
X192053868Y-95324818D01*
X192053868Y-95324818D01*
G37*
X192053868Y-95324818D02*
X192103059Y-95330384D01*
X192145147Y-95340175D01*
X192165808Y-95348833D01*
X192191232Y-95362664D01*
X192218426Y-95379609D01*
X192244397Y-95397610D01*
X192266153Y-95414608D01*
X192280702Y-95428544D01*
X192285168Y-95436511D01*
X192290802Y-95447442D01*
X192295416Y-95451025D01*
X192303174Y-95459961D01*
X192314769Y-95478551D01*
X192328035Y-95503232D01*
X192331702Y-95510642D01*
X192343162Y-95534954D01*
X192350663Y-95554261D01*
X192355042Y-95572883D01*
X192357138Y-95595142D01*
X192357786Y-95625361D01*
X192357829Y-95645514D01*
X192357584Y-95681679D01*
X192356317Y-95707591D01*
X192353228Y-95727510D01*
X192347518Y-95745696D01*
X192338388Y-95766410D01*
X192333076Y-95777433D01*
X192303709Y-95825872D01*
X192265511Y-95871222D01*
X192222459Y-95909181D01*
X192194441Y-95927471D01*
X192139537Y-95950878D01*
X192078974Y-95964213D01*
X192017354Y-95966890D01*
X191959285Y-95958326D01*
X191956652Y-95957618D01*
X191917136Y-95944308D01*
X191879204Y-95927266D01*
X191848643Y-95909164D01*
X191843787Y-95905543D01*
X191823695Y-95888075D01*
X191802284Y-95866790D01*
X191782223Y-95844706D01*
X191766181Y-95824841D01*
X191756829Y-95810210D01*
X191755495Y-95805743D01*
X191751074Y-95795580D01*
X191744151Y-95786532D01*
X191737993Y-95774014D01*
X191731113Y-95751130D01*
X191724637Y-95721909D01*
X191722160Y-95707803D01*
X191717118Y-95672952D01*
X191715164Y-95645924D01*
X191716310Y-95620357D01*
X191720570Y-95589888D01*
X191722427Y-95579014D01*
X191728470Y-95549222D01*
X191735104Y-95524084D01*
X191741187Y-95507716D01*
X191743015Y-95504772D01*
X191753110Y-95489320D01*
X191761184Y-95473157D01*
X191769450Y-95458960D01*
X191777102Y-95453200D01*
X191784207Y-95447609D01*
X191784515Y-95445384D01*
X191789585Y-95435087D01*
X191801819Y-95420573D01*
X191816749Y-95406309D01*
X191829909Y-95396763D01*
X191834756Y-95395143D01*
X191842256Y-95390650D01*
X191842572Y-95388897D01*
X191848842Y-95381514D01*
X191865376Y-95370930D01*
X191888757Y-95358795D01*
X191915570Y-95346759D01*
X191942399Y-95336473D01*
X191964887Y-95329803D01*
X192005790Y-95324508D01*
X192053868Y-95324818D01*
G36*
X188330395Y-95453577D02*
X188360134Y-95454887D01*
X188381487Y-95457504D01*
X188397511Y-95461776D01*
X188408955Y-95466827D01*
X188431039Y-95477995D01*
X188450998Y-95487719D01*
X188453486Y-95488886D01*
X188498843Y-95516740D01*
X188542312Y-95556438D01*
X188573909Y-95595214D01*
X188603730Y-95648822D01*
X188622988Y-95709595D01*
X188631309Y-95774362D01*
X188628319Y-95839948D01*
X188613643Y-95903182D01*
X188611102Y-95910400D01*
X188599858Y-95936774D01*
X188585917Y-95963384D01*
X188571330Y-95986955D01*
X188558148Y-96004212D01*
X188548423Y-96011878D01*
X188547480Y-96012000D01*
X188541349Y-96017883D01*
X188540572Y-96022886D01*
X188536628Y-96032543D01*
X188533267Y-96033771D01*
X188523889Y-96038776D01*
X188511058Y-96050924D01*
X188510186Y-96051914D01*
X188497036Y-96064421D01*
X188486636Y-96070034D01*
X188486203Y-96070057D01*
X188475008Y-96074539D01*
X188463926Y-96082783D01*
X188438296Y-96098675D01*
X188402114Y-96111494D01*
X188359096Y-96120829D01*
X188312956Y-96126270D01*
X188267412Y-96127406D01*
X188226178Y-96123827D01*
X188192970Y-96115122D01*
X188188600Y-96113203D01*
X188168878Y-96104711D01*
X188153971Y-96099769D01*
X188150822Y-96099276D01*
X188137614Y-96094595D01*
X188117463Y-96082485D01*
X188093243Y-96065270D01*
X188067825Y-96045274D01*
X188044082Y-96024823D01*
X188024888Y-96006242D01*
X188013115Y-95991854D01*
X188010800Y-95985960D01*
X188005885Y-95975527D01*
X187996286Y-95964828D01*
X187985221Y-95950868D01*
X187981525Y-95940118D01*
X187978345Y-95926687D01*
X187970672Y-95906915D01*
X187967257Y-95899514D01*
X187959231Y-95873806D01*
X187954079Y-95838693D01*
X187951804Y-95798407D01*
X187952403Y-95757181D01*
X187955879Y-95719249D01*
X187962230Y-95688844D01*
X187967257Y-95676276D01*
X187976351Y-95657375D01*
X187981405Y-95643116D01*
X187981772Y-95640488D01*
X187987199Y-95624094D01*
X188001790Y-95601657D01*
X188023011Y-95575714D01*
X188048328Y-95548803D01*
X188075206Y-95523461D01*
X188101110Y-95502226D01*
X188123507Y-95487636D01*
X188139829Y-95482228D01*
X188151185Y-95478691D01*
X188168356Y-95469961D01*
X188172096Y-95467741D01*
X188184019Y-95461598D01*
X188197963Y-95457448D01*
X188216931Y-95454919D01*
X188243923Y-95453639D01*
X188281943Y-95453235D01*
X188289212Y-95453227D01*
X188330395Y-95453577D01*
X188330395Y-95453577D01*
G37*
X188330395Y-95453577D02*
X188360134Y-95454887D01*
X188381487Y-95457504D01*
X188397511Y-95461776D01*
X188408955Y-95466827D01*
X188431039Y-95477995D01*
X188450998Y-95487719D01*
X188453486Y-95488886D01*
X188498843Y-95516740D01*
X188542312Y-95556438D01*
X188573909Y-95595214D01*
X188603730Y-95648822D01*
X188622988Y-95709595D01*
X188631309Y-95774362D01*
X188628319Y-95839948D01*
X188613643Y-95903182D01*
X188611102Y-95910400D01*
X188599858Y-95936774D01*
X188585917Y-95963384D01*
X188571330Y-95986955D01*
X188558148Y-96004212D01*
X188548423Y-96011878D01*
X188547480Y-96012000D01*
X188541349Y-96017883D01*
X188540572Y-96022886D01*
X188536628Y-96032543D01*
X188533267Y-96033771D01*
X188523889Y-96038776D01*
X188511058Y-96050924D01*
X188510186Y-96051914D01*
X188497036Y-96064421D01*
X188486636Y-96070034D01*
X188486203Y-96070057D01*
X188475008Y-96074539D01*
X188463926Y-96082783D01*
X188438296Y-96098675D01*
X188402114Y-96111494D01*
X188359096Y-96120829D01*
X188312956Y-96126270D01*
X188267412Y-96127406D01*
X188226178Y-96123827D01*
X188192970Y-96115122D01*
X188188600Y-96113203D01*
X188168878Y-96104711D01*
X188153971Y-96099769D01*
X188150822Y-96099276D01*
X188137614Y-96094595D01*
X188117463Y-96082485D01*
X188093243Y-96065270D01*
X188067825Y-96045274D01*
X188044082Y-96024823D01*
X188024888Y-96006242D01*
X188013115Y-95991854D01*
X188010800Y-95985960D01*
X188005885Y-95975527D01*
X187996286Y-95964828D01*
X187985221Y-95950868D01*
X187981525Y-95940118D01*
X187978345Y-95926687D01*
X187970672Y-95906915D01*
X187967257Y-95899514D01*
X187959231Y-95873806D01*
X187954079Y-95838693D01*
X187951804Y-95798407D01*
X187952403Y-95757181D01*
X187955879Y-95719249D01*
X187962230Y-95688844D01*
X187967257Y-95676276D01*
X187976351Y-95657375D01*
X187981405Y-95643116D01*
X187981772Y-95640488D01*
X187987199Y-95624094D01*
X188001790Y-95601657D01*
X188023011Y-95575714D01*
X188048328Y-95548803D01*
X188075206Y-95523461D01*
X188101110Y-95502226D01*
X188123507Y-95487636D01*
X188139829Y-95482228D01*
X188151185Y-95478691D01*
X188168356Y-95469961D01*
X188172096Y-95467741D01*
X188184019Y-95461598D01*
X188197963Y-95457448D01*
X188216931Y-95454919D01*
X188243923Y-95453639D01*
X188281943Y-95453235D01*
X188289212Y-95453227D01*
X188330395Y-95453577D01*
G36*
X189246522Y-95966849D02*
X189282193Y-95973227D01*
X189310416Y-95983832D01*
X189321182Y-95991223D01*
X189333678Y-96001147D01*
X189340810Y-96004743D01*
X189351273Y-96010494D01*
X189365975Y-96025403D01*
X189382085Y-96045949D01*
X189396772Y-96068612D01*
X189405013Y-96084571D01*
X189411597Y-96108135D01*
X189415746Y-96140347D01*
X189417168Y-96175497D01*
X189415573Y-96207880D01*
X189412258Y-96226781D01*
X189394774Y-96267102D01*
X189365963Y-96305497D01*
X189328864Y-96337949D01*
X189327493Y-96338901D01*
X189309221Y-96350559D01*
X189292815Y-96357768D01*
X189273518Y-96361790D01*
X189246574Y-96363887D01*
X189230923Y-96364531D01*
X189199915Y-96364990D01*
X189172564Y-96364218D01*
X189153571Y-96362384D01*
X189150172Y-96361642D01*
X189112592Y-96344459D01*
X189076647Y-96316408D01*
X189045838Y-96281013D01*
X189023665Y-96241801D01*
X189019186Y-96229714D01*
X189011983Y-96196873D01*
X189009402Y-96161014D01*
X189011491Y-96127752D01*
X189018105Y-96103109D01*
X189027763Y-96082528D01*
X189034471Y-96068243D01*
X189058943Y-96032008D01*
X189094153Y-96001430D01*
X189136673Y-95979012D01*
X189170129Y-95969279D01*
X189207726Y-95965323D01*
X189246522Y-95966849D01*
X189246522Y-95966849D01*
G37*
X189246522Y-95966849D02*
X189282193Y-95973227D01*
X189310416Y-95983832D01*
X189321182Y-95991223D01*
X189333678Y-96001147D01*
X189340810Y-96004743D01*
X189351273Y-96010494D01*
X189365975Y-96025403D01*
X189382085Y-96045949D01*
X189396772Y-96068612D01*
X189405013Y-96084571D01*
X189411597Y-96108135D01*
X189415746Y-96140347D01*
X189417168Y-96175497D01*
X189415573Y-96207880D01*
X189412258Y-96226781D01*
X189394774Y-96267102D01*
X189365963Y-96305497D01*
X189328864Y-96337949D01*
X189327493Y-96338901D01*
X189309221Y-96350559D01*
X189292815Y-96357768D01*
X189273518Y-96361790D01*
X189246574Y-96363887D01*
X189230923Y-96364531D01*
X189199915Y-96364990D01*
X189172564Y-96364218D01*
X189153571Y-96362384D01*
X189150172Y-96361642D01*
X189112592Y-96344459D01*
X189076647Y-96316408D01*
X189045838Y-96281013D01*
X189023665Y-96241801D01*
X189019186Y-96229714D01*
X189011983Y-96196873D01*
X189009402Y-96161014D01*
X189011491Y-96127752D01*
X189018105Y-96103109D01*
X189027763Y-96082528D01*
X189034471Y-96068243D01*
X189058943Y-96032008D01*
X189094153Y-96001430D01*
X189136673Y-95979012D01*
X189170129Y-95969279D01*
X189207726Y-95965323D01*
X189246522Y-95966849D01*
G36*
X191191380Y-95773239D02*
X191216247Y-95775453D01*
X191238998Y-95779805D01*
X191263755Y-95786664D01*
X191263962Y-95786727D01*
X191291450Y-95795493D01*
X191314819Y-95803688D01*
X191329378Y-95809657D01*
X191330123Y-95810044D01*
X191388705Y-95843818D01*
X191435621Y-95876207D01*
X191473313Y-95909243D01*
X191504221Y-95944956D01*
X191520487Y-95968457D01*
X191534116Y-95988926D01*
X191545893Y-96005196D01*
X191550459Y-96010704D01*
X191558360Y-96023331D01*
X191559588Y-96028847D01*
X191562768Y-96040780D01*
X191570421Y-96058066D01*
X191570992Y-96059171D01*
X191585905Y-96097979D01*
X191596526Y-96146841D01*
X191602516Y-96201846D01*
X191603535Y-96259082D01*
X191599244Y-96314638D01*
X191595295Y-96339060D01*
X191576035Y-96404668D01*
X191544917Y-96469412D01*
X191504298Y-96529486D01*
X191456533Y-96581082D01*
X191433624Y-96600299D01*
X191412834Y-96616322D01*
X191395968Y-96629441D01*
X191387580Y-96636092D01*
X191372462Y-96645353D01*
X191347763Y-96657298D01*
X191317700Y-96670114D01*
X191286492Y-96681989D01*
X191262000Y-96690053D01*
X191235572Y-96695836D01*
X191200764Y-96700679D01*
X191162242Y-96704233D01*
X191124667Y-96706148D01*
X191092706Y-96706076D01*
X191073315Y-96704168D01*
X191022160Y-96691257D01*
X190967725Y-96672488D01*
X190915976Y-96650167D01*
X190873743Y-96627142D01*
X190859167Y-96615705D01*
X190838239Y-96596548D01*
X190813784Y-96572580D01*
X190788629Y-96546709D01*
X190765600Y-96521843D01*
X190747521Y-96500890D01*
X190737220Y-96486760D01*
X190737058Y-96486467D01*
X190726007Y-96465243D01*
X190717361Y-96447428D01*
X190708901Y-96429044D01*
X190698274Y-96406029D01*
X190695603Y-96400257D01*
X190684555Y-96366918D01*
X190676543Y-96323361D01*
X190671934Y-96273634D01*
X190671099Y-96221784D01*
X190674403Y-96171860D01*
X190674641Y-96169843D01*
X190679480Y-96135954D01*
X190685891Y-96106679D01*
X190695230Y-96078106D01*
X190708853Y-96046319D01*
X190728119Y-96007405D01*
X190736616Y-95991052D01*
X190751675Y-95968257D01*
X190774648Y-95940334D01*
X190802012Y-95911091D01*
X190830247Y-95884340D01*
X190850776Y-95867531D01*
X190879326Y-95847538D01*
X190908614Y-95829119D01*
X190935398Y-95814109D01*
X190956437Y-95804346D01*
X190967228Y-95801543D01*
X190979616Y-95798461D01*
X190997880Y-95790871D01*
X191001442Y-95789128D01*
X191018164Y-95783091D01*
X191042212Y-95778712D01*
X191076028Y-95775672D01*
X191118819Y-95773751D01*
X191160278Y-95772794D01*
X191191380Y-95773239D01*
X191191380Y-95773239D01*
G37*
X191191380Y-95773239D02*
X191216247Y-95775453D01*
X191238998Y-95779805D01*
X191263755Y-95786664D01*
X191263962Y-95786727D01*
X191291450Y-95795493D01*
X191314819Y-95803688D01*
X191329378Y-95809657D01*
X191330123Y-95810044D01*
X191388705Y-95843818D01*
X191435621Y-95876207D01*
X191473313Y-95909243D01*
X191504221Y-95944956D01*
X191520487Y-95968457D01*
X191534116Y-95988926D01*
X191545893Y-96005196D01*
X191550459Y-96010704D01*
X191558360Y-96023331D01*
X191559588Y-96028847D01*
X191562768Y-96040780D01*
X191570421Y-96058066D01*
X191570992Y-96059171D01*
X191585905Y-96097979D01*
X191596526Y-96146841D01*
X191602516Y-96201846D01*
X191603535Y-96259082D01*
X191599244Y-96314638D01*
X191595295Y-96339060D01*
X191576035Y-96404668D01*
X191544917Y-96469412D01*
X191504298Y-96529486D01*
X191456533Y-96581082D01*
X191433624Y-96600299D01*
X191412834Y-96616322D01*
X191395968Y-96629441D01*
X191387580Y-96636092D01*
X191372462Y-96645353D01*
X191347763Y-96657298D01*
X191317700Y-96670114D01*
X191286492Y-96681989D01*
X191262000Y-96690053D01*
X191235572Y-96695836D01*
X191200764Y-96700679D01*
X191162242Y-96704233D01*
X191124667Y-96706148D01*
X191092706Y-96706076D01*
X191073315Y-96704168D01*
X191022160Y-96691257D01*
X190967725Y-96672488D01*
X190915976Y-96650167D01*
X190873743Y-96627142D01*
X190859167Y-96615705D01*
X190838239Y-96596548D01*
X190813784Y-96572580D01*
X190788629Y-96546709D01*
X190765600Y-96521843D01*
X190747521Y-96500890D01*
X190737220Y-96486760D01*
X190737058Y-96486467D01*
X190726007Y-96465243D01*
X190717361Y-96447428D01*
X190708901Y-96429044D01*
X190698274Y-96406029D01*
X190695603Y-96400257D01*
X190684555Y-96366918D01*
X190676543Y-96323361D01*
X190671934Y-96273634D01*
X190671099Y-96221784D01*
X190674403Y-96171860D01*
X190674641Y-96169843D01*
X190679480Y-96135954D01*
X190685891Y-96106679D01*
X190695230Y-96078106D01*
X190708853Y-96046319D01*
X190728119Y-96007405D01*
X190736616Y-95991052D01*
X190751675Y-95968257D01*
X190774648Y-95940334D01*
X190802012Y-95911091D01*
X190830247Y-95884340D01*
X190850776Y-95867531D01*
X190879326Y-95847538D01*
X190908614Y-95829119D01*
X190935398Y-95814109D01*
X190956437Y-95804346D01*
X190967228Y-95801543D01*
X190979616Y-95798461D01*
X190997880Y-95790871D01*
X191001442Y-95789128D01*
X191018164Y-95783091D01*
X191042212Y-95778712D01*
X191076028Y-95775672D01*
X191118819Y-95773751D01*
X191160278Y-95772794D01*
X191191380Y-95773239D01*
G36*
X188880021Y-96307716D02*
X188936721Y-96329282D01*
X188987938Y-96362734D01*
X189030712Y-96406461D01*
X189047859Y-96429781D01*
X189062379Y-96452106D01*
X189069659Y-96465571D01*
X189078520Y-96485020D01*
X189085704Y-96499944D01*
X189088383Y-96512215D01*
X189090512Y-96535297D01*
X189091825Y-96565493D01*
X189092115Y-96588623D01*
X189091612Y-96625698D01*
X189089760Y-96651900D01*
X189086045Y-96670846D01*
X189079950Y-96686154D01*
X189077600Y-96690543D01*
X189068410Y-96708486D01*
X189063398Y-96721349D01*
X189063086Y-96723338D01*
X189057836Y-96735619D01*
X189043880Y-96754130D01*
X189023909Y-96776112D01*
X189000614Y-96798806D01*
X188976684Y-96819453D01*
X188954812Y-96835296D01*
X188952478Y-96836729D01*
X188922834Y-96850415D01*
X188884850Y-96862370D01*
X188844699Y-96871035D01*
X188808553Y-96874853D01*
X188801365Y-96874880D01*
X188775865Y-96872537D01*
X188744931Y-96867293D01*
X188725629Y-96862889D01*
X188702200Y-96856194D01*
X188685011Y-96850104D01*
X188678457Y-96846479D01*
X188670141Y-96840095D01*
X188654131Y-96830777D01*
X188649812Y-96828514D01*
X188623119Y-96810178D01*
X188595992Y-96783747D01*
X188570947Y-96752661D01*
X188550501Y-96720358D01*
X188537171Y-96690278D01*
X188533315Y-96669333D01*
X188530658Y-96653914D01*
X188526057Y-96647000D01*
X188522638Y-96638096D01*
X188520086Y-96618513D01*
X188518851Y-96592080D01*
X188518800Y-96585314D01*
X188519662Y-96557831D01*
X188521946Y-96536301D01*
X188525203Y-96524554D01*
X188526057Y-96523628D01*
X188531540Y-96513692D01*
X188533315Y-96500252D01*
X188536952Y-96482895D01*
X188546177Y-96460369D01*
X188552053Y-96449386D01*
X188566740Y-96427437D01*
X188585280Y-96404002D01*
X188604938Y-96382047D01*
X188622976Y-96364536D01*
X188636658Y-96354433D01*
X188640928Y-96353086D01*
X188648948Y-96348744D01*
X188649429Y-96346600D01*
X188655643Y-96340884D01*
X188672036Y-96331815D01*
X188695234Y-96321230D01*
X188698415Y-96319904D01*
X188758729Y-96302470D01*
X188819977Y-96298593D01*
X188880021Y-96307716D01*
X188880021Y-96307716D01*
G37*
X188880021Y-96307716D02*
X188936721Y-96329282D01*
X188987938Y-96362734D01*
X189030712Y-96406461D01*
X189047859Y-96429781D01*
X189062379Y-96452106D01*
X189069659Y-96465571D01*
X189078520Y-96485020D01*
X189085704Y-96499944D01*
X189088383Y-96512215D01*
X189090512Y-96535297D01*
X189091825Y-96565493D01*
X189092115Y-96588623D01*
X189091612Y-96625698D01*
X189089760Y-96651900D01*
X189086045Y-96670846D01*
X189079950Y-96686154D01*
X189077600Y-96690543D01*
X189068410Y-96708486D01*
X189063398Y-96721349D01*
X189063086Y-96723338D01*
X189057836Y-96735619D01*
X189043880Y-96754130D01*
X189023909Y-96776112D01*
X189000614Y-96798806D01*
X188976684Y-96819453D01*
X188954812Y-96835296D01*
X188952478Y-96836729D01*
X188922834Y-96850415D01*
X188884850Y-96862370D01*
X188844699Y-96871035D01*
X188808553Y-96874853D01*
X188801365Y-96874880D01*
X188775865Y-96872537D01*
X188744931Y-96867293D01*
X188725629Y-96862889D01*
X188702200Y-96856194D01*
X188685011Y-96850104D01*
X188678457Y-96846479D01*
X188670141Y-96840095D01*
X188654131Y-96830777D01*
X188649812Y-96828514D01*
X188623119Y-96810178D01*
X188595992Y-96783747D01*
X188570947Y-96752661D01*
X188550501Y-96720358D01*
X188537171Y-96690278D01*
X188533315Y-96669333D01*
X188530658Y-96653914D01*
X188526057Y-96647000D01*
X188522638Y-96638096D01*
X188520086Y-96618513D01*
X188518851Y-96592080D01*
X188518800Y-96585314D01*
X188519662Y-96557831D01*
X188521946Y-96536301D01*
X188525203Y-96524554D01*
X188526057Y-96523628D01*
X188531540Y-96513692D01*
X188533315Y-96500252D01*
X188536952Y-96482895D01*
X188546177Y-96460369D01*
X188552053Y-96449386D01*
X188566740Y-96427437D01*
X188585280Y-96404002D01*
X188604938Y-96382047D01*
X188622976Y-96364536D01*
X188636658Y-96354433D01*
X188640928Y-96353086D01*
X188648948Y-96348744D01*
X188649429Y-96346600D01*
X188655643Y-96340884D01*
X188672036Y-96331815D01*
X188695234Y-96321230D01*
X188698415Y-96319904D01*
X188758729Y-96302470D01*
X188819977Y-96298593D01*
X188880021Y-96307716D01*
G36*
X186867351Y-96208102D02*
X186979008Y-96208138D01*
X187077083Y-96208199D01*
X187162509Y-96208307D01*
X187236217Y-96208480D01*
X187299140Y-96208739D01*
X187352209Y-96209104D01*
X187396358Y-96209594D01*
X187432518Y-96210231D01*
X187461621Y-96211033D01*
X187484601Y-96212020D01*
X187502388Y-96213213D01*
X187515916Y-96214632D01*
X187526117Y-96216296D01*
X187533922Y-96218225D01*
X187540264Y-96220440D01*
X187545321Y-96222616D01*
X187566207Y-96231177D01*
X187582632Y-96236313D01*
X187587121Y-96236971D01*
X187599201Y-96242066D01*
X187609713Y-96251486D01*
X187622069Y-96262458D01*
X187630666Y-96266000D01*
X187641691Y-96271686D01*
X187658166Y-96286903D01*
X187677825Y-96308888D01*
X187698404Y-96334878D01*
X187717636Y-96362111D01*
X187733257Y-96387823D01*
X187737779Y-96396628D01*
X187760429Y-96443800D01*
X187760429Y-97097262D01*
X187735794Y-97147294D01*
X187714816Y-97182785D01*
X187687800Y-97218298D01*
X187657976Y-97250271D01*
X187628573Y-97275143D01*
X187609478Y-97286652D01*
X187585850Y-97298335D01*
X187564486Y-97309715D01*
X187559427Y-97312014D01*
X187552358Y-97314012D01*
X187542282Y-97315732D01*
X187528203Y-97317197D01*
X187509126Y-97318430D01*
X187484055Y-97319454D01*
X187451993Y-97320292D01*
X187411945Y-97320967D01*
X187362915Y-97321503D01*
X187303907Y-97321922D01*
X187233925Y-97322247D01*
X187151973Y-97322501D01*
X187057056Y-97322708D01*
X186998429Y-97322810D01*
X186910310Y-97322916D01*
X186826042Y-97322942D01*
X186746808Y-97322891D01*
X186673790Y-97322768D01*
X186608170Y-97322577D01*
X186551131Y-97322323D01*
X186503856Y-97322010D01*
X186467527Y-97321643D01*
X186443326Y-97321225D01*
X186432437Y-97320760D01*
X186432372Y-97320752D01*
X186413153Y-97315766D01*
X186388583Y-97306303D01*
X186363091Y-97294473D01*
X186341104Y-97282381D01*
X186327049Y-97272137D01*
X186324968Y-97269623D01*
X186315675Y-97261136D01*
X186312088Y-97260228D01*
X186303745Y-97255272D01*
X186289273Y-97242406D01*
X186275151Y-97227961D01*
X186243668Y-97189492D01*
X186220186Y-97149600D01*
X186203972Y-97105731D01*
X186194292Y-97055337D01*
X186190414Y-96995864D01*
X186190894Y-96956770D01*
X186436027Y-96956770D01*
X186437279Y-96995942D01*
X186441803Y-97023854D01*
X186450691Y-97043599D01*
X186465031Y-97058265D01*
X186473919Y-97064255D01*
X186479034Y-97067140D01*
X186484931Y-97069614D01*
X186492698Y-97071709D01*
X186503421Y-97073458D01*
X186518187Y-97074890D01*
X186538082Y-97076038D01*
X186564193Y-97076934D01*
X186597606Y-97077608D01*
X186639407Y-97078093D01*
X186690684Y-97078419D01*
X186752523Y-97078619D01*
X186826010Y-97078724D01*
X186912232Y-97078765D01*
X186974371Y-97078773D01*
X187058820Y-97078679D01*
X187138609Y-97078400D01*
X187212545Y-97077950D01*
X187279437Y-97077345D01*
X187338093Y-97076602D01*
X187387321Y-97075736D01*
X187425929Y-97074762D01*
X187452726Y-97073697D01*
X187466521Y-97072556D01*
X187467856Y-97072240D01*
X187485739Y-97062234D01*
X187500986Y-97050185D01*
X187507817Y-97042733D01*
X187512425Y-97033845D01*
X187515244Y-97020711D01*
X187516709Y-97000518D01*
X187517251Y-96970454D01*
X187517315Y-96944260D01*
X187517315Y-96853828D01*
X186464815Y-96853828D01*
X186450435Y-96877414D01*
X186442180Y-96895308D01*
X186437659Y-96917867D01*
X186436066Y-96949537D01*
X186436027Y-96956770D01*
X186190894Y-96956770D01*
X186191154Y-96935656D01*
X186193726Y-96885935D01*
X186197851Y-96847045D01*
X186204516Y-96815314D01*
X186214709Y-96787070D01*
X186229417Y-96758643D01*
X186245896Y-96732069D01*
X186286638Y-96682324D01*
X186337452Y-96642987D01*
X186398186Y-96614162D01*
X186432082Y-96603761D01*
X186442185Y-96601576D01*
X186455093Y-96599687D01*
X186471845Y-96598074D01*
X186493479Y-96596716D01*
X186521033Y-96595593D01*
X186555546Y-96594684D01*
X186598058Y-96593969D01*
X186649605Y-96593427D01*
X186711227Y-96593036D01*
X186783962Y-96592778D01*
X186868849Y-96592631D01*
X186966927Y-96592574D01*
X186996325Y-96592571D01*
X187517315Y-96592571D01*
X187517315Y-96549433D01*
X187516060Y-96521935D01*
X187511274Y-96503262D01*
X187501428Y-96487861D01*
X187499802Y-96485933D01*
X187482290Y-96465571D01*
X186849645Y-96461943D01*
X186216999Y-96458314D01*
X186203128Y-96441182D01*
X186197083Y-96431836D01*
X186193064Y-96419607D01*
X186190681Y-96401573D01*
X186189543Y-96374809D01*
X186189257Y-96337473D01*
X186189511Y-96299795D01*
X186190577Y-96273523D01*
X186192912Y-96255551D01*
X186196971Y-96242774D01*
X186203211Y-96232089D01*
X186205136Y-96229420D01*
X186221015Y-96207943D01*
X186867351Y-96208102D01*
X186867351Y-96208102D01*
G37*
X186867351Y-96208102D02*
X186979008Y-96208138D01*
X187077083Y-96208199D01*
X187162509Y-96208307D01*
X187236217Y-96208480D01*
X187299140Y-96208739D01*
X187352209Y-96209104D01*
X187396358Y-96209594D01*
X187432518Y-96210231D01*
X187461621Y-96211033D01*
X187484601Y-96212020D01*
X187502388Y-96213213D01*
X187515916Y-96214632D01*
X187526117Y-96216296D01*
X187533922Y-96218225D01*
X187540264Y-96220440D01*
X187545321Y-96222616D01*
X187566207Y-96231177D01*
X187582632Y-96236313D01*
X187587121Y-96236971D01*
X187599201Y-96242066D01*
X187609713Y-96251486D01*
X187622069Y-96262458D01*
X187630666Y-96266000D01*
X187641691Y-96271686D01*
X187658166Y-96286903D01*
X187677825Y-96308888D01*
X187698404Y-96334878D01*
X187717636Y-96362111D01*
X187733257Y-96387823D01*
X187737779Y-96396628D01*
X187760429Y-96443800D01*
X187760429Y-97097262D01*
X187735794Y-97147294D01*
X187714816Y-97182785D01*
X187687800Y-97218298D01*
X187657976Y-97250271D01*
X187628573Y-97275143D01*
X187609478Y-97286652D01*
X187585850Y-97298335D01*
X187564486Y-97309715D01*
X187559427Y-97312014D01*
X187552358Y-97314012D01*
X187542282Y-97315732D01*
X187528203Y-97317197D01*
X187509126Y-97318430D01*
X187484055Y-97319454D01*
X187451993Y-97320292D01*
X187411945Y-97320967D01*
X187362915Y-97321503D01*
X187303907Y-97321922D01*
X187233925Y-97322247D01*
X187151973Y-97322501D01*
X187057056Y-97322708D01*
X186998429Y-97322810D01*
X186910310Y-97322916D01*
X186826042Y-97322942D01*
X186746808Y-97322891D01*
X186673790Y-97322768D01*
X186608170Y-97322577D01*
X186551131Y-97322323D01*
X186503856Y-97322010D01*
X186467527Y-97321643D01*
X186443326Y-97321225D01*
X186432437Y-97320760D01*
X186432372Y-97320752D01*
X186413153Y-97315766D01*
X186388583Y-97306303D01*
X186363091Y-97294473D01*
X186341104Y-97282381D01*
X186327049Y-97272137D01*
X186324968Y-97269623D01*
X186315675Y-97261136D01*
X186312088Y-97260228D01*
X186303745Y-97255272D01*
X186289273Y-97242406D01*
X186275151Y-97227961D01*
X186243668Y-97189492D01*
X186220186Y-97149600D01*
X186203972Y-97105731D01*
X186194292Y-97055337D01*
X186190414Y-96995864D01*
X186190894Y-96956770D01*
X186436027Y-96956770D01*
X186437279Y-96995942D01*
X186441803Y-97023854D01*
X186450691Y-97043599D01*
X186465031Y-97058265D01*
X186473919Y-97064255D01*
X186479034Y-97067140D01*
X186484931Y-97069614D01*
X186492698Y-97071709D01*
X186503421Y-97073458D01*
X186518187Y-97074890D01*
X186538082Y-97076038D01*
X186564193Y-97076934D01*
X186597606Y-97077608D01*
X186639407Y-97078093D01*
X186690684Y-97078419D01*
X186752523Y-97078619D01*
X186826010Y-97078724D01*
X186912232Y-97078765D01*
X186974371Y-97078773D01*
X187058820Y-97078679D01*
X187138609Y-97078400D01*
X187212545Y-97077950D01*
X187279437Y-97077345D01*
X187338093Y-97076602D01*
X187387321Y-97075736D01*
X187425929Y-97074762D01*
X187452726Y-97073697D01*
X187466521Y-97072556D01*
X187467856Y-97072240D01*
X187485739Y-97062234D01*
X187500986Y-97050185D01*
X187507817Y-97042733D01*
X187512425Y-97033845D01*
X187515244Y-97020711D01*
X187516709Y-97000518D01*
X187517251Y-96970454D01*
X187517315Y-96944260D01*
X187517315Y-96853828D01*
X186464815Y-96853828D01*
X186450435Y-96877414D01*
X186442180Y-96895308D01*
X186437659Y-96917867D01*
X186436066Y-96949537D01*
X186436027Y-96956770D01*
X186190894Y-96956770D01*
X186191154Y-96935656D01*
X186193726Y-96885935D01*
X186197851Y-96847045D01*
X186204516Y-96815314D01*
X186214709Y-96787070D01*
X186229417Y-96758643D01*
X186245896Y-96732069D01*
X186286638Y-96682324D01*
X186337452Y-96642987D01*
X186398186Y-96614162D01*
X186432082Y-96603761D01*
X186442185Y-96601576D01*
X186455093Y-96599687D01*
X186471845Y-96598074D01*
X186493479Y-96596716D01*
X186521033Y-96595593D01*
X186555546Y-96594684D01*
X186598058Y-96593969D01*
X186649605Y-96593427D01*
X186711227Y-96593036D01*
X186783962Y-96592778D01*
X186868849Y-96592631D01*
X186966927Y-96592574D01*
X186996325Y-96592571D01*
X187517315Y-96592571D01*
X187517315Y-96549433D01*
X187516060Y-96521935D01*
X187511274Y-96503262D01*
X187501428Y-96487861D01*
X187499802Y-96485933D01*
X187482290Y-96465571D01*
X186849645Y-96461943D01*
X186216999Y-96458314D01*
X186203128Y-96441182D01*
X186197083Y-96431836D01*
X186193064Y-96419607D01*
X186190681Y-96401573D01*
X186189543Y-96374809D01*
X186189257Y-96337473D01*
X186189511Y-96299795D01*
X186190577Y-96273523D01*
X186192912Y-96255551D01*
X186196971Y-96242774D01*
X186203211Y-96232089D01*
X186205136Y-96229420D01*
X186221015Y-96207943D01*
X186867351Y-96208102D01*
G36*
X185844825Y-95917970D02*
X185869100Y-95919149D01*
X185885542Y-95921811D01*
X185897489Y-95926534D01*
X185908281Y-95933900D01*
X185909857Y-95935149D01*
X185931629Y-95952569D01*
X185931629Y-96627808D01*
X185931595Y-96745927D01*
X185931485Y-96850304D01*
X185931289Y-96941712D01*
X185930996Y-97020923D01*
X185930596Y-97088711D01*
X185930077Y-97145846D01*
X185929430Y-97193103D01*
X185928644Y-97231253D01*
X185927708Y-97261069D01*
X185926611Y-97283324D01*
X185925343Y-97298790D01*
X185923893Y-97308239D01*
X185922251Y-97312444D01*
X185922215Y-97312481D01*
X185910262Y-97317251D01*
X185887264Y-97320931D01*
X185856654Y-97323470D01*
X185821866Y-97324817D01*
X185786332Y-97324920D01*
X185753484Y-97323728D01*
X185726756Y-97321191D01*
X185709580Y-97317257D01*
X185706657Y-97315691D01*
X185702929Y-97312406D01*
X185699871Y-97307664D01*
X185697393Y-97300050D01*
X185695406Y-97288149D01*
X185693819Y-97270544D01*
X185692543Y-97245822D01*
X185691487Y-97212565D01*
X185690561Y-97169360D01*
X185689676Y-97114789D01*
X185688741Y-97047439D01*
X185688515Y-97030405D01*
X185684886Y-96755857D01*
X185099121Y-96754000D01*
X184513357Y-96752143D01*
X184511293Y-97027601D01*
X184510628Y-97101978D01*
X184509824Y-97162990D01*
X184508833Y-97211787D01*
X184507610Y-97249519D01*
X184506108Y-97277336D01*
X184504281Y-97296387D01*
X184502083Y-97307822D01*
X184499815Y-97312487D01*
X184488972Y-97316350D01*
X184467020Y-97319546D01*
X184437356Y-97321977D01*
X184403375Y-97323545D01*
X184368472Y-97324153D01*
X184336042Y-97323703D01*
X184309482Y-97322097D01*
X184292185Y-97319237D01*
X184290175Y-97318522D01*
X184273966Y-97306918D01*
X184266477Y-97297191D01*
X184264995Y-97288835D01*
X184263716Y-97269446D01*
X184262637Y-97238651D01*
X184261755Y-97196083D01*
X184261067Y-97141370D01*
X184260569Y-97074144D01*
X184260258Y-96994033D01*
X184260131Y-96900670D01*
X184260184Y-96793683D01*
X184260415Y-96672702D01*
X184260559Y-96619450D01*
X184262486Y-95956365D01*
X184284257Y-95937240D01*
X184294616Y-95928869D01*
X184305061Y-95923367D01*
X184318838Y-95920123D01*
X184339189Y-95918526D01*
X184369358Y-95917964D01*
X184386904Y-95917886D01*
X184422268Y-95917933D01*
X184446352Y-95918745D01*
X184462390Y-95920975D01*
X184473616Y-95925273D01*
X184483264Y-95932291D01*
X184490318Y-95938711D01*
X184512857Y-95959766D01*
X184512857Y-96498314D01*
X185098872Y-96496457D01*
X185684886Y-96494600D01*
X185688688Y-95947550D01*
X185709679Y-95932604D01*
X185721119Y-95925802D01*
X185734700Y-95921408D01*
X185753734Y-95918926D01*
X185781533Y-95917861D01*
X185809378Y-95917693D01*
X185844825Y-95917970D01*
X185844825Y-95917970D01*
G37*
X185844825Y-95917970D02*
X185869100Y-95919149D01*
X185885542Y-95921811D01*
X185897489Y-95926534D01*
X185908281Y-95933900D01*
X185909857Y-95935149D01*
X185931629Y-95952569D01*
X185931629Y-96627808D01*
X185931595Y-96745927D01*
X185931485Y-96850304D01*
X185931289Y-96941712D01*
X185930996Y-97020923D01*
X185930596Y-97088711D01*
X185930077Y-97145846D01*
X185929430Y-97193103D01*
X185928644Y-97231253D01*
X185927708Y-97261069D01*
X185926611Y-97283324D01*
X185925343Y-97298790D01*
X185923893Y-97308239D01*
X185922251Y-97312444D01*
X185922215Y-97312481D01*
X185910262Y-97317251D01*
X185887264Y-97320931D01*
X185856654Y-97323470D01*
X185821866Y-97324817D01*
X185786332Y-97324920D01*
X185753484Y-97323728D01*
X185726756Y-97321191D01*
X185709580Y-97317257D01*
X185706657Y-97315691D01*
X185702929Y-97312406D01*
X185699871Y-97307664D01*
X185697393Y-97300050D01*
X185695406Y-97288149D01*
X185693819Y-97270544D01*
X185692543Y-97245822D01*
X185691487Y-97212565D01*
X185690561Y-97169360D01*
X185689676Y-97114789D01*
X185688741Y-97047439D01*
X185688515Y-97030405D01*
X185684886Y-96755857D01*
X185099121Y-96754000D01*
X184513357Y-96752143D01*
X184511293Y-97027601D01*
X184510628Y-97101978D01*
X184509824Y-97162990D01*
X184508833Y-97211787D01*
X184507610Y-97249519D01*
X184506108Y-97277336D01*
X184504281Y-97296387D01*
X184502083Y-97307822D01*
X184499815Y-97312487D01*
X184488972Y-97316350D01*
X184467020Y-97319546D01*
X184437356Y-97321977D01*
X184403375Y-97323545D01*
X184368472Y-97324153D01*
X184336042Y-97323703D01*
X184309482Y-97322097D01*
X184292185Y-97319237D01*
X184290175Y-97318522D01*
X184273966Y-97306918D01*
X184266477Y-97297191D01*
X184264995Y-97288835D01*
X184263716Y-97269446D01*
X184262637Y-97238651D01*
X184261755Y-97196083D01*
X184261067Y-97141370D01*
X184260569Y-97074144D01*
X184260258Y-96994033D01*
X184260131Y-96900670D01*
X184260184Y-96793683D01*
X184260415Y-96672702D01*
X184260559Y-96619450D01*
X184262486Y-95956365D01*
X184284257Y-95937240D01*
X184294616Y-95928869D01*
X184305061Y-95923367D01*
X184318838Y-95920123D01*
X184339189Y-95918526D01*
X184369358Y-95917964D01*
X184386904Y-95917886D01*
X184422268Y-95917933D01*
X184446352Y-95918745D01*
X184462390Y-95920975D01*
X184473616Y-95925273D01*
X184483264Y-95932291D01*
X184490318Y-95938711D01*
X184512857Y-95959766D01*
X184512857Y-96498314D01*
X185098872Y-96496457D01*
X185684886Y-96494600D01*
X185688688Y-95947550D01*
X185709679Y-95932604D01*
X185721119Y-95925802D01*
X185734700Y-95921408D01*
X185753734Y-95918926D01*
X185781533Y-95917861D01*
X185809378Y-95917693D01*
X185844825Y-95917970D01*
G36*
X190503016Y-95680690D02*
X190517829Y-95689689D01*
X190527942Y-95704908D01*
X190529161Y-95714393D01*
X190530290Y-95737365D01*
X190531331Y-95772798D01*
X190532283Y-95819664D01*
X190533145Y-95876936D01*
X190533919Y-95943589D01*
X190534604Y-96018594D01*
X190535199Y-96100926D01*
X190535706Y-96189557D01*
X190536123Y-96283460D01*
X190536451Y-96381609D01*
X190536690Y-96482978D01*
X190536839Y-96586538D01*
X190536900Y-96691263D01*
X190536870Y-96796127D01*
X190536751Y-96900102D01*
X190536543Y-97002162D01*
X190536245Y-97101279D01*
X190535858Y-97196428D01*
X190535381Y-97286581D01*
X190534815Y-97370711D01*
X190534158Y-97447792D01*
X190533412Y-97516797D01*
X190532576Y-97576698D01*
X190531650Y-97626470D01*
X190530635Y-97665084D01*
X190529529Y-97691515D01*
X190528334Y-97704736D01*
X190528028Y-97705840D01*
X190515313Y-97721271D01*
X190497917Y-97731581D01*
X190482685Y-97736694D01*
X190475405Y-97738754D01*
X190475332Y-97738740D01*
X190468961Y-97736041D01*
X190459048Y-97732004D01*
X190442962Y-97721231D01*
X190431834Y-97709078D01*
X190430176Y-97705758D01*
X190428682Y-97700294D01*
X190427342Y-97691966D01*
X190426149Y-97680057D01*
X190425095Y-97663846D01*
X190424170Y-97642616D01*
X190423367Y-97615646D01*
X190422677Y-97582218D01*
X190422093Y-97541614D01*
X190421604Y-97493114D01*
X190421204Y-97435999D01*
X190420884Y-97369551D01*
X190420635Y-97293050D01*
X190420450Y-97205777D01*
X190420319Y-97107014D01*
X190420235Y-96996042D01*
X190420188Y-96872141D01*
X190420172Y-96734593D01*
X190420172Y-95716576D01*
X190437968Y-95697374D01*
X190459941Y-95681649D01*
X190479697Y-95678282D01*
X190503016Y-95680690D01*
X190503016Y-95680690D01*
G37*
X190503016Y-95680690D02*
X190517829Y-95689689D01*
X190527942Y-95704908D01*
X190529161Y-95714393D01*
X190530290Y-95737365D01*
X190531331Y-95772798D01*
X190532283Y-95819664D01*
X190533145Y-95876936D01*
X190533919Y-95943589D01*
X190534604Y-96018594D01*
X190535199Y-96100926D01*
X190535706Y-96189557D01*
X190536123Y-96283460D01*
X190536451Y-96381609D01*
X190536690Y-96482978D01*
X190536839Y-96586538D01*
X190536900Y-96691263D01*
X190536870Y-96796127D01*
X190536751Y-96900102D01*
X190536543Y-97002162D01*
X190536245Y-97101279D01*
X190535858Y-97196428D01*
X190535381Y-97286581D01*
X190534815Y-97370711D01*
X190534158Y-97447792D01*
X190533412Y-97516797D01*
X190532576Y-97576698D01*
X190531650Y-97626470D01*
X190530635Y-97665084D01*
X190529529Y-97691515D01*
X190528334Y-97704736D01*
X190528028Y-97705840D01*
X190515313Y-97721271D01*
X190497917Y-97731581D01*
X190482685Y-97736694D01*
X190475405Y-97738754D01*
X190475332Y-97738740D01*
X190468961Y-97736041D01*
X190459048Y-97732004D01*
X190442962Y-97721231D01*
X190431834Y-97709078D01*
X190430176Y-97705758D01*
X190428682Y-97700294D01*
X190427342Y-97691966D01*
X190426149Y-97680057D01*
X190425095Y-97663846D01*
X190424170Y-97642616D01*
X190423367Y-97615646D01*
X190422677Y-97582218D01*
X190422093Y-97541614D01*
X190421604Y-97493114D01*
X190421204Y-97435999D01*
X190420884Y-97369551D01*
X190420635Y-97293050D01*
X190420450Y-97205777D01*
X190420319Y-97107014D01*
X190420235Y-96996042D01*
X190420188Y-96872141D01*
X190420172Y-96734593D01*
X190420172Y-95716576D01*
X190437968Y-95697374D01*
X190459941Y-95681649D01*
X190479697Y-95678282D01*
X190503016Y-95680690D01*
G36*
X190303627Y-95685807D02*
X190309700Y-95689468D01*
X190325829Y-95700766D01*
X190325829Y-96704344D01*
X190325821Y-96845341D01*
X190325793Y-96972542D01*
X190325736Y-97086662D01*
X190325639Y-97188419D01*
X190325495Y-97278530D01*
X190325294Y-97357711D01*
X190325028Y-97426681D01*
X190324687Y-97486156D01*
X190324263Y-97536853D01*
X190323746Y-97579488D01*
X190323127Y-97614780D01*
X190322398Y-97643445D01*
X190321550Y-97666200D01*
X190320573Y-97683762D01*
X190319459Y-97696849D01*
X190318199Y-97706177D01*
X190316783Y-97712463D01*
X190315203Y-97716424D01*
X190313449Y-97718778D01*
X190313129Y-97719074D01*
X190288765Y-97733328D01*
X190263555Y-97733293D01*
X190249794Y-97727796D01*
X190233221Y-97717553D01*
X190222887Y-97708227D01*
X190222691Y-97707932D01*
X190222033Y-97699766D01*
X190221396Y-97677924D01*
X190220784Y-97643246D01*
X190220203Y-97596570D01*
X190219656Y-97538736D01*
X190219150Y-97470583D01*
X190218687Y-97392949D01*
X190218274Y-97306673D01*
X190217914Y-97212595D01*
X190217612Y-97111553D01*
X190217374Y-97004387D01*
X190217203Y-96891934D01*
X190217105Y-96775035D01*
X190217083Y-96703243D01*
X190217070Y-96563102D01*
X190217071Y-96436750D01*
X190217097Y-96323461D01*
X190217157Y-96222509D01*
X190217262Y-96133168D01*
X190217423Y-96054712D01*
X190217650Y-95986416D01*
X190217952Y-95927554D01*
X190218341Y-95877401D01*
X190218827Y-95835230D01*
X190219420Y-95800315D01*
X190220131Y-95771932D01*
X190220969Y-95749353D01*
X190221946Y-95731855D01*
X190223071Y-95718709D01*
X190224355Y-95709192D01*
X190225808Y-95702577D01*
X190227441Y-95698138D01*
X190229263Y-95695150D01*
X190231286Y-95692886D01*
X190231486Y-95692686D01*
X190252230Y-95681148D01*
X190278316Y-95678771D01*
X190303627Y-95685807D01*
X190303627Y-95685807D01*
G37*
X190303627Y-95685807D02*
X190309700Y-95689468D01*
X190325829Y-95700766D01*
X190325829Y-96704344D01*
X190325821Y-96845341D01*
X190325793Y-96972542D01*
X190325736Y-97086662D01*
X190325639Y-97188419D01*
X190325495Y-97278530D01*
X190325294Y-97357711D01*
X190325028Y-97426681D01*
X190324687Y-97486156D01*
X190324263Y-97536853D01*
X190323746Y-97579488D01*
X190323127Y-97614780D01*
X190322398Y-97643445D01*
X190321550Y-97666200D01*
X190320573Y-97683762D01*
X190319459Y-97696849D01*
X190318199Y-97706177D01*
X190316783Y-97712463D01*
X190315203Y-97716424D01*
X190313449Y-97718778D01*
X190313129Y-97719074D01*
X190288765Y-97733328D01*
X190263555Y-97733293D01*
X190249794Y-97727796D01*
X190233221Y-97717553D01*
X190222887Y-97708227D01*
X190222691Y-97707932D01*
X190222033Y-97699766D01*
X190221396Y-97677924D01*
X190220784Y-97643246D01*
X190220203Y-97596570D01*
X190219656Y-97538736D01*
X190219150Y-97470583D01*
X190218687Y-97392949D01*
X190218274Y-97306673D01*
X190217914Y-97212595D01*
X190217612Y-97111553D01*
X190217374Y-97004387D01*
X190217203Y-96891934D01*
X190217105Y-96775035D01*
X190217083Y-96703243D01*
X190217070Y-96563102D01*
X190217071Y-96436750D01*
X190217097Y-96323461D01*
X190217157Y-96222509D01*
X190217262Y-96133168D01*
X190217423Y-96054712D01*
X190217650Y-95986416D01*
X190217952Y-95927554D01*
X190218341Y-95877401D01*
X190218827Y-95835230D01*
X190219420Y-95800315D01*
X190220131Y-95771932D01*
X190220969Y-95749353D01*
X190221946Y-95731855D01*
X190223071Y-95718709D01*
X190224355Y-95709192D01*
X190225808Y-95702577D01*
X190227441Y-95698138D01*
X190229263Y-95695150D01*
X190231286Y-95692886D01*
X190231486Y-95692686D01*
X190252230Y-95681148D01*
X190278316Y-95678771D01*
X190303627Y-95685807D01*
G36*
X190090113Y-95686040D02*
X190106193Y-95699924D01*
X190108550Y-95704716D01*
X190109330Y-95713906D01*
X190110070Y-95736584D01*
X190110768Y-95771725D01*
X190111422Y-95818305D01*
X190112033Y-95875300D01*
X190112598Y-95941685D01*
X190113116Y-96016436D01*
X190113586Y-96098528D01*
X190114008Y-96186938D01*
X190114379Y-96280641D01*
X190114699Y-96378613D01*
X190114966Y-96479829D01*
X190115180Y-96583266D01*
X190115338Y-96687898D01*
X190115441Y-96792702D01*
X190115486Y-96896653D01*
X190115473Y-96998727D01*
X190115400Y-97097899D01*
X190115266Y-97193146D01*
X190115070Y-97283443D01*
X190114811Y-97367765D01*
X190114488Y-97445089D01*
X190114098Y-97514390D01*
X190113643Y-97574644D01*
X190113119Y-97624826D01*
X190112526Y-97663912D01*
X190111862Y-97690879D01*
X190111128Y-97704700D01*
X190110864Y-97706218D01*
X190101596Y-97717150D01*
X190085152Y-97728862D01*
X190068017Y-97737226D01*
X190059489Y-97738909D01*
X190049543Y-97735530D01*
X190033763Y-97727810D01*
X190033729Y-97727792D01*
X190013772Y-97716965D01*
X190013772Y-95686582D01*
X190035543Y-95681800D01*
X190065370Y-95679624D01*
X190090113Y-95686040D01*
X190090113Y-95686040D01*
G37*
X190090113Y-95686040D02*
X190106193Y-95699924D01*
X190108550Y-95704716D01*
X190109330Y-95713906D01*
X190110070Y-95736584D01*
X190110768Y-95771725D01*
X190111422Y-95818305D01*
X190112033Y-95875300D01*
X190112598Y-95941685D01*
X190113116Y-96016436D01*
X190113586Y-96098528D01*
X190114008Y-96186938D01*
X190114379Y-96280641D01*
X190114699Y-96378613D01*
X190114966Y-96479829D01*
X190115180Y-96583266D01*
X190115338Y-96687898D01*
X190115441Y-96792702D01*
X190115486Y-96896653D01*
X190115473Y-96998727D01*
X190115400Y-97097899D01*
X190115266Y-97193146D01*
X190115070Y-97283443D01*
X190114811Y-97367765D01*
X190114488Y-97445089D01*
X190114098Y-97514390D01*
X190113643Y-97574644D01*
X190113119Y-97624826D01*
X190112526Y-97663912D01*
X190111862Y-97690879D01*
X190111128Y-97704700D01*
X190110864Y-97706218D01*
X190101596Y-97717150D01*
X190085152Y-97728862D01*
X190068017Y-97737226D01*
X190059489Y-97738909D01*
X190049543Y-97735530D01*
X190033763Y-97727810D01*
X190033729Y-97727792D01*
X190013772Y-97716965D01*
X190013772Y-95686582D01*
X190035543Y-95681800D01*
X190065370Y-95679624D01*
X190090113Y-95686040D01*
G36*
X189886335Y-95685104D02*
X189899109Y-95691233D01*
X189900491Y-95694975D01*
X189901751Y-95703737D01*
X189902896Y-95718159D01*
X189903933Y-95738881D01*
X189904870Y-95766544D01*
X189905714Y-95801789D01*
X189906472Y-95845255D01*
X189907153Y-95897584D01*
X189907763Y-95959415D01*
X189908310Y-96031390D01*
X189908801Y-96114148D01*
X189909245Y-96208331D01*
X189909647Y-96314578D01*
X189910015Y-96433530D01*
X189910358Y-96565828D01*
X189910626Y-96685462D01*
X189910847Y-96804237D01*
X189911001Y-96919253D01*
X189911091Y-97029649D01*
X189911117Y-97134564D01*
X189911082Y-97233139D01*
X189910987Y-97324514D01*
X189910835Y-97407826D01*
X189910627Y-97482217D01*
X189910364Y-97546826D01*
X189910049Y-97600792D01*
X189909684Y-97643254D01*
X189909269Y-97673354D01*
X189908807Y-97690229D01*
X189908559Y-97693437D01*
X189899349Y-97714799D01*
X189881775Y-97727909D01*
X189861199Y-97736664D01*
X189846309Y-97737581D01*
X189830716Y-97730877D01*
X189828715Y-97729702D01*
X189814877Y-97719799D01*
X189808868Y-97713800D01*
X189808052Y-97705552D01*
X189807305Y-97683802D01*
X189806627Y-97649564D01*
X189806017Y-97603849D01*
X189805475Y-97547671D01*
X189805000Y-97482042D01*
X189804591Y-97407974D01*
X189804247Y-97326480D01*
X189803968Y-97238574D01*
X189803752Y-97145266D01*
X189803599Y-97047571D01*
X189803508Y-96946500D01*
X189803479Y-96843067D01*
X189803510Y-96738284D01*
X189803601Y-96633163D01*
X189803751Y-96528717D01*
X189803959Y-96425958D01*
X189804225Y-96325901D01*
X189804547Y-96229556D01*
X189804925Y-96137937D01*
X189805358Y-96052055D01*
X189805846Y-95972925D01*
X189806387Y-95901558D01*
X189806982Y-95838967D01*
X189807628Y-95786165D01*
X189808325Y-95744164D01*
X189809073Y-95713977D01*
X189809870Y-95696617D01*
X189810418Y-95692686D01*
X189821877Y-95685893D01*
X189842015Y-95682306D01*
X189865333Y-95682013D01*
X189886335Y-95685104D01*
X189886335Y-95685104D01*
G37*
X189886335Y-95685104D02*
X189899109Y-95691233D01*
X189900491Y-95694975D01*
X189901751Y-95703737D01*
X189902896Y-95718159D01*
X189903933Y-95738881D01*
X189904870Y-95766544D01*
X189905714Y-95801789D01*
X189906472Y-95845255D01*
X189907153Y-95897584D01*
X189907763Y-95959415D01*
X189908310Y-96031390D01*
X189908801Y-96114148D01*
X189909245Y-96208331D01*
X189909647Y-96314578D01*
X189910015Y-96433530D01*
X189910358Y-96565828D01*
X189910626Y-96685462D01*
X189910847Y-96804237D01*
X189911001Y-96919253D01*
X189911091Y-97029649D01*
X189911117Y-97134564D01*
X189911082Y-97233139D01*
X189910987Y-97324514D01*
X189910835Y-97407826D01*
X189910627Y-97482217D01*
X189910364Y-97546826D01*
X189910049Y-97600792D01*
X189909684Y-97643254D01*
X189909269Y-97673354D01*
X189908807Y-97690229D01*
X189908559Y-97693437D01*
X189899349Y-97714799D01*
X189881775Y-97727909D01*
X189861199Y-97736664D01*
X189846309Y-97737581D01*
X189830716Y-97730877D01*
X189828715Y-97729702D01*
X189814877Y-97719799D01*
X189808868Y-97713800D01*
X189808052Y-97705552D01*
X189807305Y-97683802D01*
X189806627Y-97649564D01*
X189806017Y-97603849D01*
X189805475Y-97547671D01*
X189805000Y-97482042D01*
X189804591Y-97407974D01*
X189804247Y-97326480D01*
X189803968Y-97238574D01*
X189803752Y-97145266D01*
X189803599Y-97047571D01*
X189803508Y-96946500D01*
X189803479Y-96843067D01*
X189803510Y-96738284D01*
X189803601Y-96633163D01*
X189803751Y-96528717D01*
X189803959Y-96425958D01*
X189804225Y-96325901D01*
X189804547Y-96229556D01*
X189804925Y-96137937D01*
X189805358Y-96052055D01*
X189805846Y-95972925D01*
X189806387Y-95901558D01*
X189806982Y-95838967D01*
X189807628Y-95786165D01*
X189808325Y-95744164D01*
X189809073Y-95713977D01*
X189809870Y-95696617D01*
X189810418Y-95692686D01*
X189821877Y-95685893D01*
X189842015Y-95682306D01*
X189865333Y-95682013D01*
X189886335Y-95685104D01*
G36*
X189651213Y-95679732D02*
X189672870Y-95686276D01*
X189678328Y-95689468D01*
X189694457Y-95700766D01*
X189694457Y-97710385D01*
X189670872Y-97724765D01*
X189654319Y-97734579D01*
X189643641Y-97737837D01*
X189632040Y-97735057D01*
X189617529Y-97728837D01*
X189600615Y-97718601D01*
X189590521Y-97707253D01*
X189590315Y-97706756D01*
X189589748Y-97698142D01*
X189589201Y-97675860D01*
X189588678Y-97640759D01*
X189588181Y-97593684D01*
X189587717Y-97535483D01*
X189587287Y-97467004D01*
X189586897Y-97389092D01*
X189586551Y-97302596D01*
X189586252Y-97208362D01*
X189586004Y-97107237D01*
X189585812Y-97000069D01*
X189585679Y-96887704D01*
X189585610Y-96770990D01*
X189585600Y-96707615D01*
X189585605Y-96566630D01*
X189585632Y-96439436D01*
X189585697Y-96325311D01*
X189585819Y-96223531D01*
X189586015Y-96133374D01*
X189586303Y-96054116D01*
X189586699Y-95985035D01*
X189587221Y-95925408D01*
X189587886Y-95874512D01*
X189588713Y-95831624D01*
X189589718Y-95796020D01*
X189590918Y-95766979D01*
X189592332Y-95743777D01*
X189593977Y-95725692D01*
X189595870Y-95711999D01*
X189598028Y-95701977D01*
X189600469Y-95694903D01*
X189603210Y-95690053D01*
X189606269Y-95686704D01*
X189609664Y-95684135D01*
X189610272Y-95683725D01*
X189627932Y-95678678D01*
X189651213Y-95679732D01*
X189651213Y-95679732D01*
G37*
X189651213Y-95679732D02*
X189672870Y-95686276D01*
X189678328Y-95689468D01*
X189694457Y-95700766D01*
X189694457Y-97710385D01*
X189670872Y-97724765D01*
X189654319Y-97734579D01*
X189643641Y-97737837D01*
X189632040Y-97735057D01*
X189617529Y-97728837D01*
X189600615Y-97718601D01*
X189590521Y-97707253D01*
X189590315Y-97706756D01*
X189589748Y-97698142D01*
X189589201Y-97675860D01*
X189588678Y-97640759D01*
X189588181Y-97593684D01*
X189587717Y-97535483D01*
X189587287Y-97467004D01*
X189586897Y-97389092D01*
X189586551Y-97302596D01*
X189586252Y-97208362D01*
X189586004Y-97107237D01*
X189585812Y-97000069D01*
X189585679Y-96887704D01*
X189585610Y-96770990D01*
X189585600Y-96707615D01*
X189585605Y-96566630D01*
X189585632Y-96439436D01*
X189585697Y-96325311D01*
X189585819Y-96223531D01*
X189586015Y-96133374D01*
X189586303Y-96054116D01*
X189586699Y-95985035D01*
X189587221Y-95925408D01*
X189587886Y-95874512D01*
X189588713Y-95831624D01*
X189589718Y-95796020D01*
X189590918Y-95766979D01*
X189592332Y-95743777D01*
X189593977Y-95725692D01*
X189595870Y-95711999D01*
X189598028Y-95701977D01*
X189600469Y-95694903D01*
X189603210Y-95690053D01*
X189606269Y-95686704D01*
X189609664Y-95684135D01*
X189610272Y-95683725D01*
X189627932Y-95678678D01*
X189651213Y-95679732D01*
G36*
X190203808Y-97906196D02*
X190279045Y-97906521D01*
X190350370Y-97907023D01*
X190416248Y-97907702D01*
X190475143Y-97908559D01*
X190525521Y-97909595D01*
X190565846Y-97910811D01*
X190594582Y-97912207D01*
X190608857Y-97913553D01*
X190641707Y-97920916D01*
X190675895Y-97932036D01*
X190695103Y-97940257D01*
X190733537Y-97964557D01*
X190772918Y-97998495D01*
X190809195Y-98038081D01*
X190838318Y-98079327D01*
X190840979Y-98083914D01*
X190865630Y-98127457D01*
X190866058Y-98272600D01*
X190866120Y-98322352D01*
X190865835Y-98359867D01*
X190864993Y-98387419D01*
X190863388Y-98407284D01*
X190860811Y-98421738D01*
X190857055Y-98433057D01*
X190851911Y-98443515D01*
X190850157Y-98446664D01*
X190840262Y-98466069D01*
X190834461Y-98481074D01*
X190833829Y-98484702D01*
X190828276Y-98495329D01*
X190819315Y-98502884D01*
X190807978Y-98512479D01*
X190804800Y-98518614D01*
X190799426Y-98527949D01*
X190785361Y-98543043D01*
X190765694Y-98561172D01*
X190743511Y-98579613D01*
X190721901Y-98595641D01*
X190706829Y-98605043D01*
X190683384Y-98616617D01*
X190660964Y-98625971D01*
X190656029Y-98627669D01*
X190645090Y-98628913D01*
X190620676Y-98630183D01*
X190583829Y-98631459D01*
X190535586Y-98632720D01*
X190476990Y-98633947D01*
X190409078Y-98635119D01*
X190332892Y-98636216D01*
X190249471Y-98637218D01*
X190159855Y-98638104D01*
X190093600Y-98638647D01*
X189552943Y-98642714D01*
X189552943Y-98694974D01*
X189554388Y-98727903D01*
X189558528Y-98749616D01*
X189562374Y-98756660D01*
X189566729Y-98758419D01*
X189576618Y-98759997D01*
X189592845Y-98761411D01*
X189616216Y-98762679D01*
X189647535Y-98763818D01*
X189687607Y-98764844D01*
X189737237Y-98765775D01*
X189797229Y-98766628D01*
X189868389Y-98767420D01*
X189951521Y-98768168D01*
X190047430Y-98768889D01*
X190156920Y-98769601D01*
X190175603Y-98769714D01*
X190268172Y-98770342D01*
X190356709Y-98771081D01*
X190440118Y-98771915D01*
X190517305Y-98772826D01*
X190587175Y-98773797D01*
X190648632Y-98774809D01*
X190700583Y-98775847D01*
X190741932Y-98776892D01*
X190771585Y-98777927D01*
X190788447Y-98778934D01*
X190791922Y-98779494D01*
X190807868Y-98793410D01*
X190818716Y-98817690D01*
X190824826Y-98853558D01*
X190826572Y-98897635D01*
X190825845Y-98933806D01*
X190823185Y-98960063D01*
X190817868Y-98980956D01*
X190810611Y-98998120D01*
X190794651Y-99030971D01*
X190164726Y-99030971D01*
X190070496Y-99030903D01*
X189980535Y-99030704D01*
X189895884Y-99030385D01*
X189817588Y-99029955D01*
X189746689Y-99029426D01*
X189684229Y-99028806D01*
X189631251Y-99028107D01*
X189588799Y-99027338D01*
X189557915Y-99026509D01*
X189539642Y-99025631D01*
X189534800Y-99024876D01*
X189528545Y-99019217D01*
X189512756Y-99012023D01*
X189503957Y-99008971D01*
X189454967Y-98986661D01*
X189408168Y-98952911D01*
X189366874Y-98910749D01*
X189334395Y-98863205D01*
X189325750Y-98845914D01*
X189318326Y-98828908D01*
X189312217Y-98812781D01*
X189307295Y-98795951D01*
X189303432Y-98776835D01*
X189300500Y-98753852D01*
X189298372Y-98725421D01*
X189296920Y-98689958D01*
X189296016Y-98645884D01*
X189295532Y-98591615D01*
X189295342Y-98525570D01*
X189295315Y-98468932D01*
X189295392Y-98394132D01*
X189295430Y-98385086D01*
X189548190Y-98385086D01*
X190587782Y-98385086D01*
X190605348Y-98365128D01*
X190613400Y-98354774D01*
X190618555Y-98343507D01*
X190621463Y-98327897D01*
X190622777Y-98304513D01*
X190623142Y-98271431D01*
X190623107Y-98238056D01*
X190622227Y-98215894D01*
X190619712Y-98201642D01*
X190614776Y-98191999D01*
X190606628Y-98183662D01*
X190601043Y-98178902D01*
X190578715Y-98160114D01*
X190083972Y-98160275D01*
X189987116Y-98160320D01*
X189903723Y-98160405D01*
X189832740Y-98160559D01*
X189773116Y-98160812D01*
X189723797Y-98161192D01*
X189683734Y-98161727D01*
X189651872Y-98162448D01*
X189627161Y-98163382D01*
X189608548Y-98164560D01*
X189594982Y-98166008D01*
X189585410Y-98167757D01*
X189578780Y-98169836D01*
X189574041Y-98172273D01*
X189571086Y-98174359D01*
X189563785Y-98180593D01*
X189558683Y-98187899D01*
X189555303Y-98198888D01*
X189553169Y-98216172D01*
X189551803Y-98242364D01*
X189550727Y-98280076D01*
X189550567Y-98286684D01*
X189548190Y-98385086D01*
X189295430Y-98385086D01*
X189295658Y-98332380D01*
X189296166Y-98282210D01*
X189296967Y-98242155D01*
X189298113Y-98210750D01*
X189299657Y-98186528D01*
X189301650Y-98168024D01*
X189304145Y-98153772D01*
X189306872Y-98143335D01*
X189318310Y-98107427D01*
X189326959Y-98083761D01*
X189333597Y-98070509D01*
X189338995Y-98065844D01*
X189339738Y-98065771D01*
X189345634Y-98060003D01*
X189346115Y-98056472D01*
X189350962Y-98047400D01*
X189363682Y-98031412D01*
X189381538Y-98011499D01*
X189401795Y-97990653D01*
X189421718Y-97971865D01*
X189429951Y-97964791D01*
X189457811Y-97947120D01*
X189494835Y-97930978D01*
X189535685Y-97918492D01*
X189557166Y-97914068D01*
X189574093Y-97912499D01*
X189603998Y-97911098D01*
X189645346Y-97909867D01*
X189696601Y-97908805D01*
X189756227Y-97907915D01*
X189822690Y-97907195D01*
X189894453Y-97906648D01*
X189969982Y-97906274D01*
X190047741Y-97906073D01*
X190126195Y-97906047D01*
X190203808Y-97906196D01*
X190203808Y-97906196D01*
G37*
X190203808Y-97906196D02*
X190279045Y-97906521D01*
X190350370Y-97907023D01*
X190416248Y-97907702D01*
X190475143Y-97908559D01*
X190525521Y-97909595D01*
X190565846Y-97910811D01*
X190594582Y-97912207D01*
X190608857Y-97913553D01*
X190641707Y-97920916D01*
X190675895Y-97932036D01*
X190695103Y-97940257D01*
X190733537Y-97964557D01*
X190772918Y-97998495D01*
X190809195Y-98038081D01*
X190838318Y-98079327D01*
X190840979Y-98083914D01*
X190865630Y-98127457D01*
X190866058Y-98272600D01*
X190866120Y-98322352D01*
X190865835Y-98359867D01*
X190864993Y-98387419D01*
X190863388Y-98407284D01*
X190860811Y-98421738D01*
X190857055Y-98433057D01*
X190851911Y-98443515D01*
X190850157Y-98446664D01*
X190840262Y-98466069D01*
X190834461Y-98481074D01*
X190833829Y-98484702D01*
X190828276Y-98495329D01*
X190819315Y-98502884D01*
X190807978Y-98512479D01*
X190804800Y-98518614D01*
X190799426Y-98527949D01*
X190785361Y-98543043D01*
X190765694Y-98561172D01*
X190743511Y-98579613D01*
X190721901Y-98595641D01*
X190706829Y-98605043D01*
X190683384Y-98616617D01*
X190660964Y-98625971D01*
X190656029Y-98627669D01*
X190645090Y-98628913D01*
X190620676Y-98630183D01*
X190583829Y-98631459D01*
X190535586Y-98632720D01*
X190476990Y-98633947D01*
X190409078Y-98635119D01*
X190332892Y-98636216D01*
X190249471Y-98637218D01*
X190159855Y-98638104D01*
X190093600Y-98638647D01*
X189552943Y-98642714D01*
X189552943Y-98694974D01*
X189554388Y-98727903D01*
X189558528Y-98749616D01*
X189562374Y-98756660D01*
X189566729Y-98758419D01*
X189576618Y-98759997D01*
X189592845Y-98761411D01*
X189616216Y-98762679D01*
X189647535Y-98763818D01*
X189687607Y-98764844D01*
X189737237Y-98765775D01*
X189797229Y-98766628D01*
X189868389Y-98767420D01*
X189951521Y-98768168D01*
X190047430Y-98768889D01*
X190156920Y-98769601D01*
X190175603Y-98769714D01*
X190268172Y-98770342D01*
X190356709Y-98771081D01*
X190440118Y-98771915D01*
X190517305Y-98772826D01*
X190587175Y-98773797D01*
X190648632Y-98774809D01*
X190700583Y-98775847D01*
X190741932Y-98776892D01*
X190771585Y-98777927D01*
X190788447Y-98778934D01*
X190791922Y-98779494D01*
X190807868Y-98793410D01*
X190818716Y-98817690D01*
X190824826Y-98853558D01*
X190826572Y-98897635D01*
X190825845Y-98933806D01*
X190823185Y-98960063D01*
X190817868Y-98980956D01*
X190810611Y-98998120D01*
X190794651Y-99030971D01*
X190164726Y-99030971D01*
X190070496Y-99030903D01*
X189980535Y-99030704D01*
X189895884Y-99030385D01*
X189817588Y-99029955D01*
X189746689Y-99029426D01*
X189684229Y-99028806D01*
X189631251Y-99028107D01*
X189588799Y-99027338D01*
X189557915Y-99026509D01*
X189539642Y-99025631D01*
X189534800Y-99024876D01*
X189528545Y-99019217D01*
X189512756Y-99012023D01*
X189503957Y-99008971D01*
X189454967Y-98986661D01*
X189408168Y-98952911D01*
X189366874Y-98910749D01*
X189334395Y-98863205D01*
X189325750Y-98845914D01*
X189318326Y-98828908D01*
X189312217Y-98812781D01*
X189307295Y-98795951D01*
X189303432Y-98776835D01*
X189300500Y-98753852D01*
X189298372Y-98725421D01*
X189296920Y-98689958D01*
X189296016Y-98645884D01*
X189295532Y-98591615D01*
X189295342Y-98525570D01*
X189295315Y-98468932D01*
X189295392Y-98394132D01*
X189295430Y-98385086D01*
X189548190Y-98385086D01*
X190587782Y-98385086D01*
X190605348Y-98365128D01*
X190613400Y-98354774D01*
X190618555Y-98343507D01*
X190621463Y-98327897D01*
X190622777Y-98304513D01*
X190623142Y-98271431D01*
X190623107Y-98238056D01*
X190622227Y-98215894D01*
X190619712Y-98201642D01*
X190614776Y-98191999D01*
X190606628Y-98183662D01*
X190601043Y-98178902D01*
X190578715Y-98160114D01*
X190083972Y-98160275D01*
X189987116Y-98160320D01*
X189903723Y-98160405D01*
X189832740Y-98160559D01*
X189773116Y-98160812D01*
X189723797Y-98161192D01*
X189683734Y-98161727D01*
X189651872Y-98162448D01*
X189627161Y-98163382D01*
X189608548Y-98164560D01*
X189594982Y-98166008D01*
X189585410Y-98167757D01*
X189578780Y-98169836D01*
X189574041Y-98172273D01*
X189571086Y-98174359D01*
X189563785Y-98180593D01*
X189558683Y-98187899D01*
X189555303Y-98198888D01*
X189553169Y-98216172D01*
X189551803Y-98242364D01*
X189550727Y-98280076D01*
X189550567Y-98286684D01*
X189548190Y-98385086D01*
X189295430Y-98385086D01*
X189295658Y-98332380D01*
X189296166Y-98282210D01*
X189296967Y-98242155D01*
X189298113Y-98210750D01*
X189299657Y-98186528D01*
X189301650Y-98168024D01*
X189304145Y-98153772D01*
X189306872Y-98143335D01*
X189318310Y-98107427D01*
X189326959Y-98083761D01*
X189333597Y-98070509D01*
X189338995Y-98065844D01*
X189339738Y-98065771D01*
X189345634Y-98060003D01*
X189346115Y-98056472D01*
X189350962Y-98047400D01*
X189363682Y-98031412D01*
X189381538Y-98011499D01*
X189401795Y-97990653D01*
X189421718Y-97971865D01*
X189429951Y-97964791D01*
X189457811Y-97947120D01*
X189494835Y-97930978D01*
X189535685Y-97918492D01*
X189557166Y-97914068D01*
X189574093Y-97912499D01*
X189603998Y-97911098D01*
X189645346Y-97909867D01*
X189696601Y-97908805D01*
X189756227Y-97907915D01*
X189822690Y-97907195D01*
X189894453Y-97906648D01*
X189969982Y-97906274D01*
X190047741Y-97906073D01*
X190126195Y-97906047D01*
X190203808Y-97906196D01*
G36*
X187884926Y-97623303D02*
X187911915Y-97624205D01*
X187929877Y-97626165D01*
X187941554Y-97629556D01*
X187949687Y-97634752D01*
X187952743Y-97637600D01*
X187956457Y-97641815D01*
X187959478Y-97647246D01*
X187961876Y-97655325D01*
X187963723Y-97667483D01*
X187965092Y-97685154D01*
X187966053Y-97709770D01*
X187966678Y-97742762D01*
X187967039Y-97785562D01*
X187967208Y-97839604D01*
X187967256Y-97906319D01*
X187967257Y-97927886D01*
X187967419Y-97990471D01*
X187967881Y-98047863D01*
X187968607Y-98098537D01*
X187969563Y-98140969D01*
X187970714Y-98173633D01*
X187972023Y-98195006D01*
X187973457Y-98203563D01*
X187973626Y-98203657D01*
X187983084Y-98198692D01*
X187989029Y-98192771D01*
X188001195Y-98183559D01*
X188007704Y-98181886D01*
X188018013Y-98178934D01*
X188038114Y-98170976D01*
X188064749Y-98159353D01*
X188084830Y-98150091D01*
X188141048Y-98123691D01*
X188185495Y-98103036D01*
X188219465Y-98087553D01*
X188244253Y-98076669D01*
X188261155Y-98069811D01*
X188271466Y-98066407D01*
X188275444Y-98065771D01*
X188287623Y-98060681D01*
X188293669Y-98055078D01*
X188306686Y-98046375D01*
X188326009Y-98039988D01*
X188326957Y-98039804D01*
X188346056Y-98033948D01*
X188358991Y-98026014D01*
X188359386Y-98025564D01*
X188371831Y-98017260D01*
X188390487Y-98010863D01*
X188413064Y-98002763D01*
X188430879Y-97992254D01*
X188446750Y-97982434D01*
X188458919Y-97978686D01*
X188471935Y-97975519D01*
X188490873Y-97967656D01*
X188496041Y-97965093D01*
X188544074Y-97941230D01*
X188582713Y-97924165D01*
X188614728Y-97912775D01*
X188641348Y-97906224D01*
X188658708Y-97904318D01*
X188688316Y-97902595D01*
X188727910Y-97901122D01*
X188775223Y-97899965D01*
X188827992Y-97899190D01*
X188883951Y-97898863D01*
X188892730Y-97898857D01*
X188954421Y-97898925D01*
X189003253Y-97899190D01*
X189040877Y-97899745D01*
X189068950Y-97900683D01*
X189089123Y-97902097D01*
X189103051Y-97904079D01*
X189112387Y-97906722D01*
X189118786Y-97910119D01*
X189120815Y-97911646D01*
X189131504Y-97923226D01*
X189131761Y-97936212D01*
X189129006Y-97944434D01*
X189116375Y-97962153D01*
X189101316Y-97972000D01*
X189083569Y-97979283D01*
X189059103Y-97990037D01*
X189041315Y-97998177D01*
X189013091Y-98011197D01*
X188984523Y-98024162D01*
X188970557Y-98030393D01*
X188942966Y-98042655D01*
X188914093Y-98055614D01*
X188908872Y-98057975D01*
X188883976Y-98068798D01*
X188859962Y-98078540D01*
X188854443Y-98080627D01*
X188838660Y-98088081D01*
X188830996Y-98094938D01*
X188830857Y-98095680D01*
X188824937Y-98101277D01*
X188819522Y-98102057D01*
X188807201Y-98104939D01*
X188786694Y-98112423D01*
X188766908Y-98120897D01*
X188735851Y-98135083D01*
X188702265Y-98150441D01*
X188685715Y-98158016D01*
X188663309Y-98168176D01*
X188631808Y-98182326D01*
X188595395Y-98198594D01*
X188558251Y-98215105D01*
X188558250Y-98215106D01*
X188523435Y-98230665D01*
X188491635Y-98245104D01*
X188466163Y-98256903D01*
X188450333Y-98264544D01*
X188449393Y-98265028D01*
X188430971Y-98272856D01*
X188416378Y-98276183D01*
X188416275Y-98276184D01*
X188401750Y-98281420D01*
X188395816Y-98286648D01*
X188382861Y-98295519D01*
X188364084Y-98302108D01*
X188341508Y-98310208D01*
X188323693Y-98320717D01*
X188307822Y-98330537D01*
X188295652Y-98334286D01*
X188282588Y-98337394D01*
X188263586Y-98345106D01*
X188258531Y-98347556D01*
X188220852Y-98365828D01*
X188182513Y-98383283D01*
X188149503Y-98397218D01*
X188142946Y-98399773D01*
X188113467Y-98414418D01*
X188092953Y-98431663D01*
X188083849Y-98449326D01*
X188083613Y-98452741D01*
X188090566Y-98474931D01*
X188108157Y-98493540D01*
X188132310Y-98504420D01*
X188151085Y-98511115D01*
X188163587Y-98519809D01*
X188176392Y-98528789D01*
X188183058Y-98530228D01*
X188196050Y-98533496D01*
X188214914Y-98541620D01*
X188220269Y-98544381D01*
X188240331Y-98554569D01*
X188267801Y-98567802D01*
X188296813Y-98581255D01*
X188297457Y-98581547D01*
X188327332Y-98595198D01*
X188364176Y-98612199D01*
X188401832Y-98629707D01*
X188417200Y-98636897D01*
X188451380Y-98652889D01*
X188485670Y-98668864D01*
X188514803Y-98682372D01*
X188526057Y-98687559D01*
X188553192Y-98700307D01*
X188579528Y-98713143D01*
X188592360Y-98719656D01*
X188611675Y-98728453D01*
X188626832Y-98733174D01*
X188629349Y-98733428D01*
X188642138Y-98737898D01*
X188656686Y-98747943D01*
X188671839Y-98758382D01*
X188683573Y-98762457D01*
X188696099Y-98765654D01*
X188714800Y-98773615D01*
X188720562Y-98776520D01*
X188742778Y-98787652D01*
X188770545Y-98800901D01*
X188787315Y-98808617D01*
X188811738Y-98819772D01*
X188844025Y-98834683D01*
X188878912Y-98850912D01*
X188896172Y-98858988D01*
X188932219Y-98875822D01*
X188970186Y-98893436D01*
X189003916Y-98908976D01*
X189015915Y-98914461D01*
X189045384Y-98927941D01*
X189073992Y-98941124D01*
X189095589Y-98951174D01*
X189095743Y-98951247D01*
X189116704Y-98960619D01*
X189133842Y-98967466D01*
X189137472Y-98968677D01*
X189146364Y-98975979D01*
X189149943Y-98992934D01*
X189150172Y-99001715D01*
X189150172Y-99030971D01*
X188888915Y-99030971D01*
X188810722Y-99030782D01*
X188746772Y-99030211D01*
X188696796Y-99029249D01*
X188660528Y-99027889D01*
X188637700Y-99026123D01*
X188628044Y-99023943D01*
X188627657Y-99023344D01*
X188621568Y-99016062D01*
X188606371Y-99007207D01*
X188600443Y-99004602D01*
X188579825Y-98995895D01*
X188553984Y-98984419D01*
X188521037Y-98969306D01*
X188479100Y-98949693D01*
X188426288Y-98924712D01*
X188417200Y-98920395D01*
X188369001Y-98897571D01*
X188318075Y-98873594D01*
X188268887Y-98850558D01*
X188225902Y-98830556D01*
X188206743Y-98821708D01*
X188188870Y-98812897D01*
X188177715Y-98806724D01*
X188167551Y-98801350D01*
X188146899Y-98791025D01*
X188118378Y-98777036D01*
X188084603Y-98760674D01*
X188068857Y-98753105D01*
X187970886Y-98706124D01*
X187967226Y-98855848D01*
X187965830Y-98901689D01*
X187964047Y-98943111D01*
X187962023Y-98977726D01*
X187959902Y-99003146D01*
X187957829Y-99016986D01*
X187957378Y-99018271D01*
X187953444Y-99023311D01*
X187945848Y-99026826D01*
X187932287Y-99029084D01*
X187910460Y-99030348D01*
X187878064Y-99030886D01*
X187847227Y-99030971D01*
X187806349Y-99030849D01*
X187777679Y-99030276D01*
X187758909Y-99028945D01*
X187747733Y-99026546D01*
X187741846Y-99022772D01*
X187738939Y-99017315D01*
X187738657Y-99016457D01*
X187732142Y-99004729D01*
X187727283Y-99001943D01*
X187726132Y-98994785D01*
X187725072Y-98973709D01*
X187724106Y-98939311D01*
X187723242Y-98892188D01*
X187722486Y-98832934D01*
X187721843Y-98762146D01*
X187721320Y-98680421D01*
X187720922Y-98588353D01*
X187720655Y-98486539D01*
X187720526Y-98375576D01*
X187720515Y-98328293D01*
X187720515Y-97654644D01*
X187737311Y-97638865D01*
X187745429Y-97632290D01*
X187755115Y-97627839D01*
X187769188Y-97625103D01*
X187790466Y-97623674D01*
X187821769Y-97623143D01*
X187846168Y-97623086D01*
X187884926Y-97623303D01*
X187884926Y-97623303D01*
G37*
X187884926Y-97623303D02*
X187911915Y-97624205D01*
X187929877Y-97626165D01*
X187941554Y-97629556D01*
X187949687Y-97634752D01*
X187952743Y-97637600D01*
X187956457Y-97641815D01*
X187959478Y-97647246D01*
X187961876Y-97655325D01*
X187963723Y-97667483D01*
X187965092Y-97685154D01*
X187966053Y-97709770D01*
X187966678Y-97742762D01*
X187967039Y-97785562D01*
X187967208Y-97839604D01*
X187967256Y-97906319D01*
X187967257Y-97927886D01*
X187967419Y-97990471D01*
X187967881Y-98047863D01*
X187968607Y-98098537D01*
X187969563Y-98140969D01*
X187970714Y-98173633D01*
X187972023Y-98195006D01*
X187973457Y-98203563D01*
X187973626Y-98203657D01*
X187983084Y-98198692D01*
X187989029Y-98192771D01*
X188001195Y-98183559D01*
X188007704Y-98181886D01*
X188018013Y-98178934D01*
X188038114Y-98170976D01*
X188064749Y-98159353D01*
X188084830Y-98150091D01*
X188141048Y-98123691D01*
X188185495Y-98103036D01*
X188219465Y-98087553D01*
X188244253Y-98076669D01*
X188261155Y-98069811D01*
X188271466Y-98066407D01*
X188275444Y-98065771D01*
X188287623Y-98060681D01*
X188293669Y-98055078D01*
X188306686Y-98046375D01*
X188326009Y-98039988D01*
X188326957Y-98039804D01*
X188346056Y-98033948D01*
X188358991Y-98026014D01*
X188359386Y-98025564D01*
X188371831Y-98017260D01*
X188390487Y-98010863D01*
X188413064Y-98002763D01*
X188430879Y-97992254D01*
X188446750Y-97982434D01*
X188458919Y-97978686D01*
X188471935Y-97975519D01*
X188490873Y-97967656D01*
X188496041Y-97965093D01*
X188544074Y-97941230D01*
X188582713Y-97924165D01*
X188614728Y-97912775D01*
X188641348Y-97906224D01*
X188658708Y-97904318D01*
X188688316Y-97902595D01*
X188727910Y-97901122D01*
X188775223Y-97899965D01*
X188827992Y-97899190D01*
X188883951Y-97898863D01*
X188892730Y-97898857D01*
X188954421Y-97898925D01*
X189003253Y-97899190D01*
X189040877Y-97899745D01*
X189068950Y-97900683D01*
X189089123Y-97902097D01*
X189103051Y-97904079D01*
X189112387Y-97906722D01*
X189118786Y-97910119D01*
X189120815Y-97911646D01*
X189131504Y-97923226D01*
X189131761Y-97936212D01*
X189129006Y-97944434D01*
X189116375Y-97962153D01*
X189101316Y-97972000D01*
X189083569Y-97979283D01*
X189059103Y-97990037D01*
X189041315Y-97998177D01*
X189013091Y-98011197D01*
X188984523Y-98024162D01*
X188970557Y-98030393D01*
X188942966Y-98042655D01*
X188914093Y-98055614D01*
X188908872Y-98057975D01*
X188883976Y-98068798D01*
X188859962Y-98078540D01*
X188854443Y-98080627D01*
X188838660Y-98088081D01*
X188830996Y-98094938D01*
X188830857Y-98095680D01*
X188824937Y-98101277D01*
X188819522Y-98102057D01*
X188807201Y-98104939D01*
X188786694Y-98112423D01*
X188766908Y-98120897D01*
X188735851Y-98135083D01*
X188702265Y-98150441D01*
X188685715Y-98158016D01*
X188663309Y-98168176D01*
X188631808Y-98182326D01*
X188595395Y-98198594D01*
X188558251Y-98215105D01*
X188558250Y-98215106D01*
X188523435Y-98230665D01*
X188491635Y-98245104D01*
X188466163Y-98256903D01*
X188450333Y-98264544D01*
X188449393Y-98265028D01*
X188430971Y-98272856D01*
X188416378Y-98276183D01*
X188416275Y-98276184D01*
X188401750Y-98281420D01*
X188395816Y-98286648D01*
X188382861Y-98295519D01*
X188364084Y-98302108D01*
X188341508Y-98310208D01*
X188323693Y-98320717D01*
X188307822Y-98330537D01*
X188295652Y-98334286D01*
X188282588Y-98337394D01*
X188263586Y-98345106D01*
X188258531Y-98347556D01*
X188220852Y-98365828D01*
X188182513Y-98383283D01*
X188149503Y-98397218D01*
X188142946Y-98399773D01*
X188113467Y-98414418D01*
X188092953Y-98431663D01*
X188083849Y-98449326D01*
X188083613Y-98452741D01*
X188090566Y-98474931D01*
X188108157Y-98493540D01*
X188132310Y-98504420D01*
X188151085Y-98511115D01*
X188163587Y-98519809D01*
X188176392Y-98528789D01*
X188183058Y-98530228D01*
X188196050Y-98533496D01*
X188214914Y-98541620D01*
X188220269Y-98544381D01*
X188240331Y-98554569D01*
X188267801Y-98567802D01*
X188296813Y-98581255D01*
X188297457Y-98581547D01*
X188327332Y-98595198D01*
X188364176Y-98612199D01*
X188401832Y-98629707D01*
X188417200Y-98636897D01*
X188451380Y-98652889D01*
X188485670Y-98668864D01*
X188514803Y-98682372D01*
X188526057Y-98687559D01*
X188553192Y-98700307D01*
X188579528Y-98713143D01*
X188592360Y-98719656D01*
X188611675Y-98728453D01*
X188626832Y-98733174D01*
X188629349Y-98733428D01*
X188642138Y-98737898D01*
X188656686Y-98747943D01*
X188671839Y-98758382D01*
X188683573Y-98762457D01*
X188696099Y-98765654D01*
X188714800Y-98773615D01*
X188720562Y-98776520D01*
X188742778Y-98787652D01*
X188770545Y-98800901D01*
X188787315Y-98808617D01*
X188811738Y-98819772D01*
X188844025Y-98834683D01*
X188878912Y-98850912D01*
X188896172Y-98858988D01*
X188932219Y-98875822D01*
X188970186Y-98893436D01*
X189003916Y-98908976D01*
X189015915Y-98914461D01*
X189045384Y-98927941D01*
X189073992Y-98941124D01*
X189095589Y-98951174D01*
X189095743Y-98951247D01*
X189116704Y-98960619D01*
X189133842Y-98967466D01*
X189137472Y-98968677D01*
X189146364Y-98975979D01*
X189149943Y-98992934D01*
X189150172Y-99001715D01*
X189150172Y-99030971D01*
X188888915Y-99030971D01*
X188810722Y-99030782D01*
X188746772Y-99030211D01*
X188696796Y-99029249D01*
X188660528Y-99027889D01*
X188637700Y-99026123D01*
X188628044Y-99023943D01*
X188627657Y-99023344D01*
X188621568Y-99016062D01*
X188606371Y-99007207D01*
X188600443Y-99004602D01*
X188579825Y-98995895D01*
X188553984Y-98984419D01*
X188521037Y-98969306D01*
X188479100Y-98949693D01*
X188426288Y-98924712D01*
X188417200Y-98920395D01*
X188369001Y-98897571D01*
X188318075Y-98873594D01*
X188268887Y-98850558D01*
X188225902Y-98830556D01*
X188206743Y-98821708D01*
X188188870Y-98812897D01*
X188177715Y-98806724D01*
X188167551Y-98801350D01*
X188146899Y-98791025D01*
X188118378Y-98777036D01*
X188084603Y-98760674D01*
X188068857Y-98753105D01*
X187970886Y-98706124D01*
X187967226Y-98855848D01*
X187965830Y-98901689D01*
X187964047Y-98943111D01*
X187962023Y-98977726D01*
X187959902Y-99003146D01*
X187957829Y-99016986D01*
X187957378Y-99018271D01*
X187953444Y-99023311D01*
X187945848Y-99026826D01*
X187932287Y-99029084D01*
X187910460Y-99030348D01*
X187878064Y-99030886D01*
X187847227Y-99030971D01*
X187806349Y-99030849D01*
X187777679Y-99030276D01*
X187758909Y-99028945D01*
X187747733Y-99026546D01*
X187741846Y-99022772D01*
X187738939Y-99017315D01*
X187738657Y-99016457D01*
X187732142Y-99004729D01*
X187727283Y-99001943D01*
X187726132Y-98994785D01*
X187725072Y-98973709D01*
X187724106Y-98939311D01*
X187723242Y-98892188D01*
X187722486Y-98832934D01*
X187721843Y-98762146D01*
X187721320Y-98680421D01*
X187720922Y-98588353D01*
X187720655Y-98486539D01*
X187720526Y-98375576D01*
X187720515Y-98328293D01*
X187720515Y-97654644D01*
X187737311Y-97638865D01*
X187745429Y-97632290D01*
X187755115Y-97627839D01*
X187769188Y-97625103D01*
X187790466Y-97623674D01*
X187821769Y-97623143D01*
X187846168Y-97623086D01*
X187884926Y-97623303D01*
G36*
X186646728Y-97905946D02*
X186729869Y-97906126D01*
X186810480Y-97906441D01*
X186887251Y-97906893D01*
X186958869Y-97907480D01*
X187024024Y-97908205D01*
X187081406Y-97909068D01*
X187129702Y-97910069D01*
X187167602Y-97911208D01*
X187193795Y-97912487D01*
X187205257Y-97913582D01*
X187233593Y-97919755D01*
X187263942Y-97929106D01*
X187291901Y-97939981D01*
X187313065Y-97950727D01*
X187321372Y-97957166D01*
X187329191Y-97963615D01*
X187344064Y-97974529D01*
X187348489Y-97977646D01*
X187374949Y-98001221D01*
X187402280Y-98034030D01*
X187427163Y-98071413D01*
X187446281Y-98108707D01*
X187451533Y-98122441D01*
X187455262Y-98134177D01*
X187458316Y-98146127D01*
X187460763Y-98159811D01*
X187462668Y-98176752D01*
X187464098Y-98198473D01*
X187465122Y-98226495D01*
X187465804Y-98262340D01*
X187466212Y-98307531D01*
X187466413Y-98363590D01*
X187466474Y-98432039D01*
X187466474Y-98462871D01*
X187466415Y-98541998D01*
X187466139Y-98608133D01*
X187465462Y-98662796D01*
X187464201Y-98707510D01*
X187462172Y-98743796D01*
X187459190Y-98773175D01*
X187455073Y-98797169D01*
X187449636Y-98817300D01*
X187442695Y-98835089D01*
X187434068Y-98852057D01*
X187423569Y-98869726D01*
X187415851Y-98881999D01*
X187397296Y-98907003D01*
X187373391Y-98933242D01*
X187346932Y-98958278D01*
X187320717Y-98979676D01*
X187297542Y-98994998D01*
X187280204Y-99001806D01*
X187278205Y-99001943D01*
X187267762Y-99005249D01*
X187250622Y-99013481D01*
X187245172Y-99016457D01*
X187239984Y-99019177D01*
X187234108Y-99021533D01*
X187226527Y-99023550D01*
X187216226Y-99025253D01*
X187202187Y-99026666D01*
X187183393Y-99027815D01*
X187158829Y-99028725D01*
X187127478Y-99029421D01*
X187088323Y-99029928D01*
X187040349Y-99030270D01*
X186982537Y-99030474D01*
X186913872Y-99030563D01*
X186833338Y-99030563D01*
X186739917Y-99030500D01*
X186677079Y-99030441D01*
X186575237Y-99030327D01*
X186486903Y-99030182D01*
X186411068Y-99029981D01*
X186346726Y-99029700D01*
X186292869Y-99029312D01*
X186248492Y-99028793D01*
X186212585Y-99028118D01*
X186184143Y-99027263D01*
X186162158Y-99026201D01*
X186145623Y-99024909D01*
X186133531Y-99023361D01*
X186124875Y-99021532D01*
X186118647Y-99019398D01*
X186113841Y-99016932D01*
X186113057Y-99016457D01*
X186095813Y-99007183D01*
X186082879Y-99002560D01*
X186082059Y-99002473D01*
X186064080Y-98996396D01*
X186040010Y-98981369D01*
X186012805Y-98959795D01*
X185985418Y-98934076D01*
X185960804Y-98906614D01*
X185954938Y-98899109D01*
X185931924Y-98865849D01*
X185914890Y-98833685D01*
X185903148Y-98799703D01*
X185896007Y-98760989D01*
X185892776Y-98714629D01*
X185892769Y-98666641D01*
X186138699Y-98666641D01*
X186140385Y-98705820D01*
X186145708Y-98733229D01*
X186155591Y-98751360D01*
X186170959Y-98762700D01*
X186174995Y-98764462D01*
X186183872Y-98765157D01*
X186206062Y-98765779D01*
X186240362Y-98766322D01*
X186285571Y-98766778D01*
X186340488Y-98767140D01*
X186403910Y-98767403D01*
X186474636Y-98767558D01*
X186551464Y-98767599D01*
X186633192Y-98767520D01*
X186687370Y-98767402D01*
X187189111Y-98766086D01*
X187204327Y-98747943D01*
X187210694Y-98739151D01*
X187214906Y-98728891D01*
X187217322Y-98714275D01*
X187218300Y-98692414D01*
X187218198Y-98660422D01*
X187217843Y-98639086D01*
X187216143Y-98548371D01*
X186708143Y-98546456D01*
X186609410Y-98546106D01*
X186524152Y-98545865D01*
X186451327Y-98545754D01*
X186389898Y-98545795D01*
X186338823Y-98546006D01*
X186297063Y-98546409D01*
X186263578Y-98547024D01*
X186237328Y-98547871D01*
X186217274Y-98548971D01*
X186202376Y-98550345D01*
X186191594Y-98552012D01*
X186183887Y-98553993D01*
X186178217Y-98556308D01*
X186177105Y-98556883D01*
X186160078Y-98568543D01*
X186148751Y-98583795D01*
X186142108Y-98605540D01*
X186139136Y-98636677D01*
X186138699Y-98666641D01*
X185892769Y-98666641D01*
X185892767Y-98657708D01*
X185893273Y-98638664D01*
X185895006Y-98594051D01*
X185897318Y-98560703D01*
X185900650Y-98535370D01*
X185905441Y-98514806D01*
X185912131Y-98495760D01*
X185912865Y-98493950D01*
X185937473Y-98446931D01*
X185972841Y-98400956D01*
X186020486Y-98354125D01*
X186033771Y-98342670D01*
X186044400Y-98335959D01*
X186063232Y-98325858D01*
X186077314Y-98318859D01*
X186113057Y-98301628D01*
X186664600Y-98298000D01*
X187216143Y-98294371D01*
X187218265Y-98250501D01*
X187218655Y-98224251D01*
X187215764Y-98206900D01*
X187208222Y-98192962D01*
X187201962Y-98185187D01*
X187183538Y-98163743D01*
X186554296Y-98161809D01*
X185925054Y-98159876D01*
X185908384Y-98144216D01*
X185901402Y-98136742D01*
X185896696Y-98127975D01*
X185893822Y-98115088D01*
X185892332Y-98095254D01*
X185891781Y-98065647D01*
X185891715Y-98038629D01*
X185892269Y-98002859D01*
X185893780Y-97971537D01*
X185896017Y-97947993D01*
X185898752Y-97935556D01*
X185898818Y-97935429D01*
X185910401Y-97923835D01*
X185928480Y-97914293D01*
X185928930Y-97914135D01*
X185940168Y-97912735D01*
X185964608Y-97911464D01*
X186000940Y-97910321D01*
X186047852Y-97909309D01*
X186104034Y-97908427D01*
X186168175Y-97907675D01*
X186238963Y-97907055D01*
X186315087Y-97906567D01*
X186395237Y-97906212D01*
X186478101Y-97905989D01*
X186562369Y-97905900D01*
X186646728Y-97905946D01*
X186646728Y-97905946D01*
G37*
X186646728Y-97905946D02*
X186729869Y-97906126D01*
X186810480Y-97906441D01*
X186887251Y-97906893D01*
X186958869Y-97907480D01*
X187024024Y-97908205D01*
X187081406Y-97909068D01*
X187129702Y-97910069D01*
X187167602Y-97911208D01*
X187193795Y-97912487D01*
X187205257Y-97913582D01*
X187233593Y-97919755D01*
X187263942Y-97929106D01*
X187291901Y-97939981D01*
X187313065Y-97950727D01*
X187321372Y-97957166D01*
X187329191Y-97963615D01*
X187344064Y-97974529D01*
X187348489Y-97977646D01*
X187374949Y-98001221D01*
X187402280Y-98034030D01*
X187427163Y-98071413D01*
X187446281Y-98108707D01*
X187451533Y-98122441D01*
X187455262Y-98134177D01*
X187458316Y-98146127D01*
X187460763Y-98159811D01*
X187462668Y-98176752D01*
X187464098Y-98198473D01*
X187465122Y-98226495D01*
X187465804Y-98262340D01*
X187466212Y-98307531D01*
X187466413Y-98363590D01*
X187466474Y-98432039D01*
X187466474Y-98462871D01*
X187466415Y-98541998D01*
X187466139Y-98608133D01*
X187465462Y-98662796D01*
X187464201Y-98707510D01*
X187462172Y-98743796D01*
X187459190Y-98773175D01*
X187455073Y-98797169D01*
X187449636Y-98817300D01*
X187442695Y-98835089D01*
X187434068Y-98852057D01*
X187423569Y-98869726D01*
X187415851Y-98881999D01*
X187397296Y-98907003D01*
X187373391Y-98933242D01*
X187346932Y-98958278D01*
X187320717Y-98979676D01*
X187297542Y-98994998D01*
X187280204Y-99001806D01*
X187278205Y-99001943D01*
X187267762Y-99005249D01*
X187250622Y-99013481D01*
X187245172Y-99016457D01*
X187239984Y-99019177D01*
X187234108Y-99021533D01*
X187226527Y-99023550D01*
X187216226Y-99025253D01*
X187202187Y-99026666D01*
X187183393Y-99027815D01*
X187158829Y-99028725D01*
X187127478Y-99029421D01*
X187088323Y-99029928D01*
X187040349Y-99030270D01*
X186982537Y-99030474D01*
X186913872Y-99030563D01*
X186833338Y-99030563D01*
X186739917Y-99030500D01*
X186677079Y-99030441D01*
X186575237Y-99030327D01*
X186486903Y-99030182D01*
X186411068Y-99029981D01*
X186346726Y-99029700D01*
X186292869Y-99029312D01*
X186248492Y-99028793D01*
X186212585Y-99028118D01*
X186184143Y-99027263D01*
X186162158Y-99026201D01*
X186145623Y-99024909D01*
X186133531Y-99023361D01*
X186124875Y-99021532D01*
X186118647Y-99019398D01*
X186113841Y-99016932D01*
X186113057Y-99016457D01*
X186095813Y-99007183D01*
X186082879Y-99002560D01*
X186082059Y-99002473D01*
X186064080Y-98996396D01*
X186040010Y-98981369D01*
X186012805Y-98959795D01*
X185985418Y-98934076D01*
X185960804Y-98906614D01*
X185954938Y-98899109D01*
X185931924Y-98865849D01*
X185914890Y-98833685D01*
X185903148Y-98799703D01*
X185896007Y-98760989D01*
X185892776Y-98714629D01*
X185892769Y-98666641D01*
X186138699Y-98666641D01*
X186140385Y-98705820D01*
X186145708Y-98733229D01*
X186155591Y-98751360D01*
X186170959Y-98762700D01*
X186174995Y-98764462D01*
X186183872Y-98765157D01*
X186206062Y-98765779D01*
X186240362Y-98766322D01*
X186285571Y-98766778D01*
X186340488Y-98767140D01*
X186403910Y-98767403D01*
X186474636Y-98767558D01*
X186551464Y-98767599D01*
X186633192Y-98767520D01*
X186687370Y-98767402D01*
X187189111Y-98766086D01*
X187204327Y-98747943D01*
X187210694Y-98739151D01*
X187214906Y-98728891D01*
X187217322Y-98714275D01*
X187218300Y-98692414D01*
X187218198Y-98660422D01*
X187217843Y-98639086D01*
X187216143Y-98548371D01*
X186708143Y-98546456D01*
X186609410Y-98546106D01*
X186524152Y-98545865D01*
X186451327Y-98545754D01*
X186389898Y-98545795D01*
X186338823Y-98546006D01*
X186297063Y-98546409D01*
X186263578Y-98547024D01*
X186237328Y-98547871D01*
X186217274Y-98548971D01*
X186202376Y-98550345D01*
X186191594Y-98552012D01*
X186183887Y-98553993D01*
X186178217Y-98556308D01*
X186177105Y-98556883D01*
X186160078Y-98568543D01*
X186148751Y-98583795D01*
X186142108Y-98605540D01*
X186139136Y-98636677D01*
X186138699Y-98666641D01*
X185892769Y-98666641D01*
X185892767Y-98657708D01*
X185893273Y-98638664D01*
X185895006Y-98594051D01*
X185897318Y-98560703D01*
X185900650Y-98535370D01*
X185905441Y-98514806D01*
X185912131Y-98495760D01*
X185912865Y-98493950D01*
X185937473Y-98446931D01*
X185972841Y-98400956D01*
X186020486Y-98354125D01*
X186033771Y-98342670D01*
X186044400Y-98335959D01*
X186063232Y-98325858D01*
X186077314Y-98318859D01*
X186113057Y-98301628D01*
X186664600Y-98298000D01*
X187216143Y-98294371D01*
X187218265Y-98250501D01*
X187218655Y-98224251D01*
X187215764Y-98206900D01*
X187208222Y-98192962D01*
X187201962Y-98185187D01*
X187183538Y-98163743D01*
X186554296Y-98161809D01*
X185925054Y-98159876D01*
X185908384Y-98144216D01*
X185901402Y-98136742D01*
X185896696Y-98127975D01*
X185893822Y-98115088D01*
X185892332Y-98095254D01*
X185891781Y-98065647D01*
X185891715Y-98038629D01*
X185892269Y-98002859D01*
X185893780Y-97971537D01*
X185896017Y-97947993D01*
X185898752Y-97935556D01*
X185898818Y-97935429D01*
X185910401Y-97923835D01*
X185928480Y-97914293D01*
X185928930Y-97914135D01*
X185940168Y-97912735D01*
X185964608Y-97911464D01*
X186000940Y-97910321D01*
X186047852Y-97909309D01*
X186104034Y-97908427D01*
X186168175Y-97907675D01*
X186238963Y-97907055D01*
X186315087Y-97906567D01*
X186395237Y-97906212D01*
X186478101Y-97905989D01*
X186562369Y-97905900D01*
X186646728Y-97905946D01*
G36*
X184419834Y-97623392D02*
X184446205Y-97624577D01*
X184463953Y-97627037D01*
X184476017Y-97631167D01*
X184484839Y-97636955D01*
X184501972Y-97650825D01*
X184505600Y-98186863D01*
X184509229Y-98722901D01*
X184529252Y-98744493D01*
X184549274Y-98766086D01*
X185121412Y-98769714D01*
X185227040Y-98770383D01*
X185319121Y-98770995D01*
X185398621Y-98771602D01*
X185466504Y-98772256D01*
X185523739Y-98773009D01*
X185571291Y-98773914D01*
X185610125Y-98775022D01*
X185641209Y-98776386D01*
X185665508Y-98778058D01*
X185683989Y-98780090D01*
X185697618Y-98782534D01*
X185707360Y-98785442D01*
X185714182Y-98788867D01*
X185719051Y-98792860D01*
X185722932Y-98797475D01*
X185726503Y-98802371D01*
X185728540Y-98812050D01*
X185730236Y-98833210D01*
X185731424Y-98862820D01*
X185731939Y-98897848D01*
X185731946Y-98901178D01*
X185731760Y-98940026D01*
X185730829Y-98967265D01*
X185728762Y-98985795D01*
X185725167Y-98998517D01*
X185719654Y-99008332D01*
X185717016Y-99011850D01*
X185701975Y-99030971D01*
X185107416Y-99030971D01*
X185015926Y-99030899D01*
X184928735Y-99030688D01*
X184846916Y-99030351D01*
X184771542Y-99029898D01*
X184703688Y-99029340D01*
X184644426Y-99028689D01*
X184594830Y-99027955D01*
X184555973Y-99027149D01*
X184528929Y-99026282D01*
X184514771Y-99025365D01*
X184512857Y-99024876D01*
X184506603Y-99019216D01*
X184490814Y-99012018D01*
X184482015Y-99008963D01*
X184448518Y-98994846D01*
X184411345Y-98973852D01*
X184376675Y-98949762D01*
X184356005Y-98931909D01*
X184338221Y-98912754D01*
X184320931Y-98890211D01*
X184301621Y-98860782D01*
X184284257Y-98832011D01*
X184262486Y-98795114D01*
X184260503Y-98216241D01*
X184258521Y-97637368D01*
X184277304Y-97630227D01*
X184291894Y-97627387D01*
X184317285Y-97625082D01*
X184349766Y-97623566D01*
X184381897Y-97623086D01*
X184419834Y-97623392D01*
X184419834Y-97623392D01*
G37*
X184419834Y-97623392D02*
X184446205Y-97624577D01*
X184463953Y-97627037D01*
X184476017Y-97631167D01*
X184484839Y-97636955D01*
X184501972Y-97650825D01*
X184505600Y-98186863D01*
X184509229Y-98722901D01*
X184529252Y-98744493D01*
X184549274Y-98766086D01*
X185121412Y-98769714D01*
X185227040Y-98770383D01*
X185319121Y-98770995D01*
X185398621Y-98771602D01*
X185466504Y-98772256D01*
X185523739Y-98773009D01*
X185571291Y-98773914D01*
X185610125Y-98775022D01*
X185641209Y-98776386D01*
X185665508Y-98778058D01*
X185683989Y-98780090D01*
X185697618Y-98782534D01*
X185707360Y-98785442D01*
X185714182Y-98788867D01*
X185719051Y-98792860D01*
X185722932Y-98797475D01*
X185726503Y-98802371D01*
X185728540Y-98812050D01*
X185730236Y-98833210D01*
X185731424Y-98862820D01*
X185731939Y-98897848D01*
X185731946Y-98901178D01*
X185731760Y-98940026D01*
X185730829Y-98967265D01*
X185728762Y-98985795D01*
X185725167Y-98998517D01*
X185719654Y-99008332D01*
X185717016Y-99011850D01*
X185701975Y-99030971D01*
X185107416Y-99030971D01*
X185015926Y-99030899D01*
X184928735Y-99030688D01*
X184846916Y-99030351D01*
X184771542Y-99029898D01*
X184703688Y-99029340D01*
X184644426Y-99028689D01*
X184594830Y-99027955D01*
X184555973Y-99027149D01*
X184528929Y-99026282D01*
X184514771Y-99025365D01*
X184512857Y-99024876D01*
X184506603Y-99019216D01*
X184490814Y-99012018D01*
X184482015Y-99008963D01*
X184448518Y-98994846D01*
X184411345Y-98973852D01*
X184376675Y-98949762D01*
X184356005Y-98931909D01*
X184338221Y-98912754D01*
X184320931Y-98890211D01*
X184301621Y-98860782D01*
X184284257Y-98832011D01*
X184262486Y-98795114D01*
X184260503Y-98216241D01*
X184258521Y-97637368D01*
X184277304Y-97630227D01*
X184291894Y-97627387D01*
X184317285Y-97625082D01*
X184349766Y-97623566D01*
X184381897Y-97623086D01*
X184419834Y-97623392D01*
G04 #@! TD*
M02*
