M48
;DRILL file {KiCad 5.0.1-33cea8e~68~ubuntu18.04.1} date 2018年10月29日 17時36分38秒
;FORMAT={-:-/ absolute / inch / decimal}
FMAT,2
INCH,TZ
T1C0.0157
T2C0.0394
%
G90
G05
M72
T1
X5.4737Y-3.596
X5.522Y-2.122
X5.534Y-3.2022
X5.5449Y-2.5984
X5.5596Y-3.2959
X5.5598Y-3.396
X5.5659Y-3.5912
X5.6322Y-3.0953
X5.6357Y-2.5995
X5.637Y-2.7968
X5.6734Y-3.0398
X5.68Y-2.7565
X5.6818Y-2.957
X5.6915Y-3.2232
X5.6915Y-3.3493
X5.7314Y-3.096
X5.7957Y-2.7
X5.796Y-2.5995
X5.796Y-2.9015
X5.802Y-3.4939
X5.8683Y-2.246
X5.8683Y-2.3468
X5.8683Y-2.4464
X5.9257Y-2.5455
X5.9506Y-2.9523
X6.006Y-2.24
X6.022Y-2.334
X6.118Y-2.064
X6.174Y-2.35
X6.198Y-2.444
X6.368Y-2.672
X6.428Y-2.452
X6.532Y-2.578
T2
X6.149Y-3.7075
X6.249Y-3.7075
X6.349Y-3.7075
X6.449Y-3.7075
X6.549Y-3.7075
X6.649Y-3.7075
X6.749Y-3.7075
X6.849Y-3.7075
X6.949Y-3.7075
X7.049Y-3.7075
X7.149Y-3.7075
X6.149Y-2.2075
X6.249Y-2.2075
X6.349Y-2.2075
X6.449Y-2.2075
X6.549Y-2.2075
X6.649Y-2.2075
X6.749Y-2.2075
X6.849Y-2.2075
X6.949Y-2.2075
X7.049Y-2.2075
X7.149Y-2.2075
T0
M30
