G04 #@! TF.GenerationSoftware,KiCad,Pcbnew,5.0.1-33cea8e~68~ubuntu18.04.1*
G04 #@! TF.CreationDate,2018-10-29T17:36:35+09:00*
G04 #@! TF.ProjectId,M5StackSideBB,4D35537461636B5369646542422E6B69,rev?*
G04 #@! TF.SameCoordinates,Original*
G04 #@! TF.FileFunction,Legend,Bot*
G04 #@! TF.FilePolarity,Positive*
%FSLAX46Y46*%
G04 Gerber Fmt 4.6, Leading zero omitted, Abs format (unit mm)*
G04 Created by KiCad (PCBNEW 5.0.1-33cea8e~68~ubuntu18.04.1) date 2018年10月29日 17時36分35秒*
%MOMM*%
%LPD*%
G01*
G04 APERTURE LIST*
%ADD10C,0.250000*%
%ADD11C,0.300000*%
%ADD12C,0.625000*%
%ADD13C,0.120000*%
G04 APERTURE END LIST*
D10*
X192591561Y-98191580D02*
X192591561Y-97191580D01*
X192120133Y-98191580D02*
X192120133Y-97667771D01*
X192172514Y-97572533D01*
X192277276Y-97524914D01*
X192434419Y-97524914D01*
X192539180Y-97572533D01*
X192591561Y-97620152D01*
X191753466Y-97524914D02*
X191334419Y-97524914D01*
X191596323Y-97191580D02*
X191596323Y-98048723D01*
X191543942Y-98143961D01*
X191439180Y-98191580D01*
X191334419Y-98191580D01*
X191124895Y-97524914D02*
X190705847Y-97524914D01*
X190967752Y-97191580D02*
X190967752Y-98048723D01*
X190915371Y-98143961D01*
X190810609Y-98191580D01*
X190705847Y-98191580D01*
X190339180Y-97524914D02*
X190339180Y-98524914D01*
X190339180Y-97572533D02*
X190234419Y-97524914D01*
X190024895Y-97524914D01*
X189920133Y-97572533D01*
X189867752Y-97620152D01*
X189815371Y-97715390D01*
X189815371Y-98001104D01*
X189867752Y-98096342D01*
X189920133Y-98143961D01*
X190024895Y-98191580D01*
X190234419Y-98191580D01*
X190339180Y-98143961D01*
X189396323Y-98143961D02*
X189291561Y-98191580D01*
X189082038Y-98191580D01*
X188977276Y-98143961D01*
X188924895Y-98048723D01*
X188924895Y-98001104D01*
X188977276Y-97905866D01*
X189082038Y-97858247D01*
X189239180Y-97858247D01*
X189343942Y-97810628D01*
X189396323Y-97715390D01*
X189396323Y-97667771D01*
X189343942Y-97572533D01*
X189239180Y-97524914D01*
X189082038Y-97524914D01*
X188977276Y-97572533D01*
X188453466Y-98096342D02*
X188401085Y-98143961D01*
X188453466Y-98191580D01*
X188505847Y-98143961D01*
X188453466Y-98096342D01*
X188453466Y-98191580D01*
X188453466Y-97572533D02*
X188401085Y-97620152D01*
X188453466Y-97667771D01*
X188505847Y-97620152D01*
X188453466Y-97572533D01*
X188453466Y-97667771D01*
X187143942Y-97143961D02*
X188086800Y-98429676D01*
X185991561Y-97143961D02*
X186934419Y-98429676D01*
X185153466Y-97524914D02*
X185153466Y-98334438D01*
X185205847Y-98429676D01*
X185258228Y-98477295D01*
X185362990Y-98524914D01*
X185520133Y-98524914D01*
X185624895Y-98477295D01*
X185153466Y-98143961D02*
X185258228Y-98191580D01*
X185467752Y-98191580D01*
X185572514Y-98143961D01*
X185624895Y-98096342D01*
X185677276Y-98001104D01*
X185677276Y-97715390D01*
X185624895Y-97620152D01*
X185572514Y-97572533D01*
X185467752Y-97524914D01*
X185258228Y-97524914D01*
X185153466Y-97572533D01*
X184629657Y-98191580D02*
X184629657Y-97524914D01*
X184629657Y-97191580D02*
X184682038Y-97239200D01*
X184629657Y-97286819D01*
X184577276Y-97239200D01*
X184629657Y-97191580D01*
X184629657Y-97286819D01*
X184262990Y-97524914D02*
X183843942Y-97524914D01*
X184105847Y-97191580D02*
X184105847Y-98048723D01*
X184053466Y-98143961D01*
X183948704Y-98191580D01*
X183843942Y-98191580D01*
X183477276Y-98191580D02*
X183477276Y-97191580D01*
X183005847Y-98191580D02*
X183005847Y-97667771D01*
X183058228Y-97572533D01*
X183162990Y-97524914D01*
X183320133Y-97524914D01*
X183424895Y-97572533D01*
X183477276Y-97620152D01*
X182010609Y-97524914D02*
X182010609Y-98191580D01*
X182482038Y-97524914D02*
X182482038Y-98048723D01*
X182429657Y-98143961D01*
X182324895Y-98191580D01*
X182167752Y-98191580D01*
X182062990Y-98143961D01*
X182010609Y-98096342D01*
X181486800Y-98191580D02*
X181486800Y-97191580D01*
X181486800Y-97572533D02*
X181382038Y-97524914D01*
X181172514Y-97524914D01*
X181067752Y-97572533D01*
X181015371Y-97620152D01*
X180962990Y-97715390D01*
X180962990Y-98001104D01*
X181015371Y-98096342D01*
X181067752Y-98143961D01*
X181172514Y-98191580D01*
X181382038Y-98191580D01*
X181486800Y-98143961D01*
X180491561Y-98096342D02*
X180439180Y-98143961D01*
X180491561Y-98191580D01*
X180543942Y-98143961D01*
X180491561Y-98096342D01*
X180491561Y-98191580D01*
X179496323Y-98143961D02*
X179601085Y-98191580D01*
X179810609Y-98191580D01*
X179915371Y-98143961D01*
X179967752Y-98096342D01*
X180020133Y-98001104D01*
X180020133Y-97715390D01*
X179967752Y-97620152D01*
X179915371Y-97572533D01*
X179810609Y-97524914D01*
X179601085Y-97524914D01*
X179496323Y-97572533D01*
X178867752Y-98191580D02*
X178972514Y-98143961D01*
X179024895Y-98096342D01*
X179077276Y-98001104D01*
X179077276Y-97715390D01*
X179024895Y-97620152D01*
X178972514Y-97572533D01*
X178867752Y-97524914D01*
X178710609Y-97524914D01*
X178605847Y-97572533D01*
X178553466Y-97620152D01*
X178501085Y-97715390D01*
X178501085Y-98001104D01*
X178553466Y-98096342D01*
X178605847Y-98143961D01*
X178710609Y-98191580D01*
X178867752Y-98191580D01*
X178029657Y-98191580D02*
X178029657Y-97524914D01*
X178029657Y-97620152D02*
X177977276Y-97572533D01*
X177872514Y-97524914D01*
X177715371Y-97524914D01*
X177610609Y-97572533D01*
X177558228Y-97667771D01*
X177558228Y-98191580D01*
X177558228Y-97667771D02*
X177505847Y-97572533D01*
X177401085Y-97524914D01*
X177243942Y-97524914D01*
X177139180Y-97572533D01*
X177086800Y-97667771D01*
X177086800Y-98191580D01*
X175777276Y-97143961D02*
X176720133Y-98429676D01*
X174939180Y-98191580D02*
X174939180Y-97667771D01*
X174991561Y-97572533D01*
X175096323Y-97524914D01*
X175305847Y-97524914D01*
X175410609Y-97572533D01*
X174939180Y-98143961D02*
X175043942Y-98191580D01*
X175305847Y-98191580D01*
X175410609Y-98143961D01*
X175462990Y-98048723D01*
X175462990Y-97953485D01*
X175410609Y-97858247D01*
X175305847Y-97810628D01*
X175043942Y-97810628D01*
X174939180Y-97763009D01*
X174467752Y-98143961D02*
X174362990Y-98191580D01*
X174153466Y-98191580D01*
X174048704Y-98143961D01*
X173996323Y-98048723D01*
X173996323Y-98001104D01*
X174048704Y-97905866D01*
X174153466Y-97858247D01*
X174310609Y-97858247D01*
X174415371Y-97810628D01*
X174467752Y-97715390D01*
X174467752Y-97667771D01*
X174415371Y-97572533D01*
X174310609Y-97524914D01*
X174153466Y-97524914D01*
X174048704Y-97572533D01*
X173053466Y-97524914D02*
X173053466Y-98191580D01*
X173524895Y-97524914D02*
X173524895Y-98048723D01*
X173472514Y-98143961D01*
X173367752Y-98191580D01*
X173210609Y-98191580D01*
X173105847Y-98143961D01*
X173053466Y-98096342D01*
X172529657Y-98191580D02*
X172529657Y-97191580D01*
X172424895Y-97810628D02*
X172110609Y-98191580D01*
X172110609Y-97524914D02*
X172529657Y-97905866D01*
X171639180Y-98191580D02*
X171639180Y-97524914D01*
X171639180Y-97191580D02*
X171691561Y-97239200D01*
X171639180Y-97286819D01*
X171586800Y-97239200D01*
X171639180Y-97191580D01*
X171639180Y-97286819D01*
X170643942Y-98191580D02*
X170643942Y-97667771D01*
X170696323Y-97572533D01*
X170801085Y-97524914D01*
X171010609Y-97524914D01*
X171115371Y-97572533D01*
X170643942Y-98143961D02*
X170748704Y-98191580D01*
X171010609Y-98191580D01*
X171115371Y-98143961D01*
X171167752Y-98048723D01*
X171167752Y-97953485D01*
X171115371Y-97858247D01*
X171010609Y-97810628D01*
X170748704Y-97810628D01*
X170643942Y-97763009D01*
X169648704Y-98191580D02*
X169648704Y-97667771D01*
X169701085Y-97572533D01*
X169805847Y-97524914D01*
X170015371Y-97524914D01*
X170120133Y-97572533D01*
X169648704Y-98143961D02*
X169753466Y-98191580D01*
X170015371Y-98191580D01*
X170120133Y-98143961D01*
X170172514Y-98048723D01*
X170172514Y-97953485D01*
X170120133Y-97858247D01*
X170015371Y-97810628D01*
X169753466Y-97810628D01*
X169648704Y-97763009D01*
X168653466Y-98191580D02*
X168653466Y-97667771D01*
X168705847Y-97572533D01*
X168810609Y-97524914D01*
X169020133Y-97524914D01*
X169124895Y-97572533D01*
X168653466Y-98143961D02*
X168758228Y-98191580D01*
X169020133Y-98191580D01*
X169124895Y-98143961D01*
X169177276Y-98048723D01*
X169177276Y-97953485D01*
X169124895Y-97858247D01*
X169020133Y-97810628D01*
X168758228Y-97810628D01*
X168653466Y-97763009D01*
X167343942Y-97143961D02*
X168286800Y-98429676D01*
X166977276Y-98191580D02*
X166977276Y-97191580D01*
X166610609Y-97905866D01*
X166243942Y-97191580D01*
X166243942Y-98191580D01*
X165196323Y-97191580D02*
X165720133Y-97191580D01*
X165772514Y-97667771D01*
X165720133Y-97620152D01*
X165615371Y-97572533D01*
X165353466Y-97572533D01*
X165248704Y-97620152D01*
X165196323Y-97667771D01*
X165143942Y-97763009D01*
X165143942Y-98001104D01*
X165196323Y-98096342D01*
X165248704Y-98143961D01*
X165353466Y-98191580D01*
X165615371Y-98191580D01*
X165720133Y-98143961D01*
X165772514Y-98096342D01*
X164724895Y-98143961D02*
X164567752Y-98191580D01*
X164305847Y-98191580D01*
X164201085Y-98143961D01*
X164148704Y-98096342D01*
X164096323Y-98001104D01*
X164096323Y-97905866D01*
X164148704Y-97810628D01*
X164201085Y-97763009D01*
X164305847Y-97715390D01*
X164515371Y-97667771D01*
X164620133Y-97620152D01*
X164672514Y-97572533D01*
X164724895Y-97477295D01*
X164724895Y-97382057D01*
X164672514Y-97286819D01*
X164620133Y-97239200D01*
X164515371Y-97191580D01*
X164253466Y-97191580D01*
X164096323Y-97239200D01*
X163782038Y-97524914D02*
X163362990Y-97524914D01*
X163624895Y-97191580D02*
X163624895Y-98048723D01*
X163572514Y-98143961D01*
X163467752Y-98191580D01*
X163362990Y-98191580D01*
X162524895Y-98191580D02*
X162524895Y-97667771D01*
X162577276Y-97572533D01*
X162682038Y-97524914D01*
X162891561Y-97524914D01*
X162996323Y-97572533D01*
X162524895Y-98143961D02*
X162629657Y-98191580D01*
X162891561Y-98191580D01*
X162996323Y-98143961D01*
X163048704Y-98048723D01*
X163048704Y-97953485D01*
X162996323Y-97858247D01*
X162891561Y-97810628D01*
X162629657Y-97810628D01*
X162524895Y-97763009D01*
X161529657Y-98143961D02*
X161634419Y-98191580D01*
X161843942Y-98191580D01*
X161948704Y-98143961D01*
X162001085Y-98096342D01*
X162053466Y-98001104D01*
X162053466Y-97715390D01*
X162001085Y-97620152D01*
X161948704Y-97572533D01*
X161843942Y-97524914D01*
X161634419Y-97524914D01*
X161529657Y-97572533D01*
X161058228Y-98191580D02*
X161058228Y-97191580D01*
X160953466Y-97810628D02*
X160639180Y-98191580D01*
X160639180Y-97524914D02*
X161058228Y-97905866D01*
X160220133Y-98143961D02*
X160062990Y-98191580D01*
X159801085Y-98191580D01*
X159696323Y-98143961D01*
X159643942Y-98096342D01*
X159591561Y-98001104D01*
X159591561Y-97905866D01*
X159643942Y-97810628D01*
X159696323Y-97763009D01*
X159801085Y-97715390D01*
X160010609Y-97667771D01*
X160115371Y-97620152D01*
X160167752Y-97572533D01*
X160220133Y-97477295D01*
X160220133Y-97382057D01*
X160167752Y-97286819D01*
X160115371Y-97239200D01*
X160010609Y-97191580D01*
X159748704Y-97191580D01*
X159591561Y-97239200D01*
X159120133Y-98191580D02*
X159120133Y-97524914D01*
X159120133Y-97191580D02*
X159172514Y-97239200D01*
X159120133Y-97286819D01*
X159067752Y-97239200D01*
X159120133Y-97191580D01*
X159120133Y-97286819D01*
X158124895Y-98191580D02*
X158124895Y-97191580D01*
X158124895Y-98143961D02*
X158229657Y-98191580D01*
X158439180Y-98191580D01*
X158543942Y-98143961D01*
X158596323Y-98096342D01*
X158648704Y-98001104D01*
X158648704Y-97715390D01*
X158596323Y-97620152D01*
X158543942Y-97572533D01*
X158439180Y-97524914D01*
X158229657Y-97524914D01*
X158124895Y-97572533D01*
X157182038Y-98143961D02*
X157286800Y-98191580D01*
X157496323Y-98191580D01*
X157601085Y-98143961D01*
X157653466Y-98048723D01*
X157653466Y-97667771D01*
X157601085Y-97572533D01*
X157496323Y-97524914D01*
X157286800Y-97524914D01*
X157182038Y-97572533D01*
X157129657Y-97667771D01*
X157129657Y-97763009D01*
X157653466Y-97858247D01*
X156291561Y-97667771D02*
X156134419Y-97715390D01*
X156082038Y-97763009D01*
X156029657Y-97858247D01*
X156029657Y-98001104D01*
X156082038Y-98096342D01*
X156134419Y-98143961D01*
X156239180Y-98191580D01*
X156658228Y-98191580D01*
X156658228Y-97191580D01*
X156291561Y-97191580D01*
X156186800Y-97239200D01*
X156134419Y-97286819D01*
X156082038Y-97382057D01*
X156082038Y-97477295D01*
X156134419Y-97572533D01*
X156186800Y-97620152D01*
X156291561Y-97667771D01*
X156658228Y-97667771D01*
X155191561Y-97667771D02*
X155034419Y-97715390D01*
X154982038Y-97763009D01*
X154929657Y-97858247D01*
X154929657Y-98001104D01*
X154982038Y-98096342D01*
X155034419Y-98143961D01*
X155139180Y-98191580D01*
X155558228Y-98191580D01*
X155558228Y-97191580D01*
X155191561Y-97191580D01*
X155086800Y-97239200D01*
X155034419Y-97286819D01*
X154982038Y-97382057D01*
X154982038Y-97477295D01*
X155034419Y-97572533D01*
X155086800Y-97620152D01*
X155191561Y-97667771D01*
X155558228Y-97667771D01*
D11*
X165375628Y-90916057D02*
X165775628Y-90344628D01*
X166061342Y-90916057D02*
X166061342Y-89716057D01*
X165604200Y-89716057D01*
X165489914Y-89773200D01*
X165432771Y-89830342D01*
X165375628Y-89944628D01*
X165375628Y-90116057D01*
X165432771Y-90230342D01*
X165489914Y-90287485D01*
X165604200Y-90344628D01*
X166061342Y-90344628D01*
X164404200Y-90858914D02*
X164518485Y-90916057D01*
X164747057Y-90916057D01*
X164861342Y-90858914D01*
X164918485Y-90744628D01*
X164918485Y-90287485D01*
X164861342Y-90173200D01*
X164747057Y-90116057D01*
X164518485Y-90116057D01*
X164404200Y-90173200D01*
X164347057Y-90287485D01*
X164347057Y-90401771D01*
X164918485Y-90516057D01*
X163947057Y-90116057D02*
X163661342Y-90916057D01*
X163375628Y-90116057D01*
X162061342Y-89830342D02*
X162004200Y-89773200D01*
X161889914Y-89716057D01*
X161604200Y-89716057D01*
X161489914Y-89773200D01*
X161432771Y-89830342D01*
X161375628Y-89944628D01*
X161375628Y-90058914D01*
X161432771Y-90230342D01*
X162118485Y-90916057D01*
X161375628Y-90916057D01*
X160632771Y-89716057D02*
X160518485Y-89716057D01*
X160404200Y-89773200D01*
X160347057Y-89830342D01*
X160289914Y-89944628D01*
X160232771Y-90173200D01*
X160232771Y-90458914D01*
X160289914Y-90687485D01*
X160347057Y-90801771D01*
X160404200Y-90858914D01*
X160518485Y-90916057D01*
X160632771Y-90916057D01*
X160747057Y-90858914D01*
X160804200Y-90801771D01*
X160861342Y-90687485D01*
X160918485Y-90458914D01*
X160918485Y-90173200D01*
X160861342Y-89944628D01*
X160804200Y-89830342D01*
X160747057Y-89773200D01*
X160632771Y-89716057D01*
X159089914Y-90916057D02*
X159775628Y-90916057D01*
X159432771Y-90916057D02*
X159432771Y-89716057D01*
X159547057Y-89887485D01*
X159661342Y-90001771D01*
X159775628Y-90058914D01*
X158404200Y-90230342D02*
X158518485Y-90173200D01*
X158575628Y-90116057D01*
X158632771Y-90001771D01*
X158632771Y-89944628D01*
X158575628Y-89830342D01*
X158518485Y-89773200D01*
X158404200Y-89716057D01*
X158175628Y-89716057D01*
X158061342Y-89773200D01*
X158004200Y-89830342D01*
X157947057Y-89944628D01*
X157947057Y-90001771D01*
X158004200Y-90116057D01*
X158061342Y-90173200D01*
X158175628Y-90230342D01*
X158404200Y-90230342D01*
X158518485Y-90287485D01*
X158575628Y-90344628D01*
X158632771Y-90458914D01*
X158632771Y-90687485D01*
X158575628Y-90801771D01*
X158518485Y-90858914D01*
X158404200Y-90916057D01*
X158175628Y-90916057D01*
X158061342Y-90858914D01*
X158004200Y-90801771D01*
X157947057Y-90687485D01*
X157947057Y-90458914D01*
X158004200Y-90344628D01*
X158061342Y-90287485D01*
X158175628Y-90230342D01*
X157432771Y-90801771D02*
X157375628Y-90858914D01*
X157432771Y-90916057D01*
X157489914Y-90858914D01*
X157432771Y-90801771D01*
X157432771Y-90916057D01*
X156632771Y-89716057D02*
X156518485Y-89716057D01*
X156404200Y-89773200D01*
X156347057Y-89830342D01*
X156289914Y-89944628D01*
X156232771Y-90173200D01*
X156232771Y-90458914D01*
X156289914Y-90687485D01*
X156347057Y-90801771D01*
X156404200Y-90858914D01*
X156518485Y-90916057D01*
X156632771Y-90916057D01*
X156747057Y-90858914D01*
X156804200Y-90801771D01*
X156861342Y-90687485D01*
X156918485Y-90458914D01*
X156918485Y-90173200D01*
X156861342Y-89944628D01*
X156804200Y-89830342D01*
X156747057Y-89773200D01*
X156632771Y-89716057D01*
X155547057Y-90230342D02*
X155661342Y-90173200D01*
X155718485Y-90116057D01*
X155775628Y-90001771D01*
X155775628Y-89944628D01*
X155718485Y-89830342D01*
X155661342Y-89773200D01*
X155547057Y-89716057D01*
X155318485Y-89716057D01*
X155204200Y-89773200D01*
X155147057Y-89830342D01*
X155089914Y-89944628D01*
X155089914Y-90001771D01*
X155147057Y-90116057D01*
X155204200Y-90173200D01*
X155318485Y-90230342D01*
X155547057Y-90230342D01*
X155661342Y-90287485D01*
X155718485Y-90344628D01*
X155775628Y-90458914D01*
X155775628Y-90687485D01*
X155718485Y-90801771D01*
X155661342Y-90858914D01*
X155547057Y-90916057D01*
X155318485Y-90916057D01*
X155204200Y-90858914D01*
X155147057Y-90801771D01*
X155089914Y-90687485D01*
X155089914Y-90458914D01*
X155147057Y-90344628D01*
X155204200Y-90287485D01*
X155318485Y-90230342D01*
D12*
X195240952Y-90767552D02*
X195240952Y-88267552D01*
X194407619Y-90053266D01*
X193574285Y-88267552D01*
X193574285Y-90767552D01*
X191193333Y-88267552D02*
X192383809Y-88267552D01*
X192502857Y-89458028D01*
X192383809Y-89338980D01*
X192145714Y-89219933D01*
X191550476Y-89219933D01*
X191312380Y-89338980D01*
X191193333Y-89458028D01*
X191074285Y-89696123D01*
X191074285Y-90291361D01*
X191193333Y-90529457D01*
X191312380Y-90648504D01*
X191550476Y-90767552D01*
X192145714Y-90767552D01*
X192383809Y-90648504D01*
X192502857Y-90529457D01*
X190121904Y-90648504D02*
X189764761Y-90767552D01*
X189169523Y-90767552D01*
X188931428Y-90648504D01*
X188812380Y-90529457D01*
X188693333Y-90291361D01*
X188693333Y-90053266D01*
X188812380Y-89815171D01*
X188931428Y-89696123D01*
X189169523Y-89577076D01*
X189645714Y-89458028D01*
X189883809Y-89338980D01*
X190002857Y-89219933D01*
X190121904Y-88981838D01*
X190121904Y-88743742D01*
X190002857Y-88505647D01*
X189883809Y-88386600D01*
X189645714Y-88267552D01*
X189050476Y-88267552D01*
X188693333Y-88386600D01*
X187979047Y-89100885D02*
X187026666Y-89100885D01*
X187621904Y-88267552D02*
X187621904Y-90410409D01*
X187502857Y-90648504D01*
X187264761Y-90767552D01*
X187026666Y-90767552D01*
X185121904Y-90767552D02*
X185121904Y-89458028D01*
X185240952Y-89219933D01*
X185479047Y-89100885D01*
X185955238Y-89100885D01*
X186193333Y-89219933D01*
X185121904Y-90648504D02*
X185360000Y-90767552D01*
X185955238Y-90767552D01*
X186193333Y-90648504D01*
X186312380Y-90410409D01*
X186312380Y-90172314D01*
X186193333Y-89934219D01*
X185955238Y-89815171D01*
X185360000Y-89815171D01*
X185121904Y-89696123D01*
X182860000Y-90648504D02*
X183098095Y-90767552D01*
X183574285Y-90767552D01*
X183812380Y-90648504D01*
X183931428Y-90529457D01*
X184050476Y-90291361D01*
X184050476Y-89577076D01*
X183931428Y-89338980D01*
X183812380Y-89219933D01*
X183574285Y-89100885D01*
X183098095Y-89100885D01*
X182860000Y-89219933D01*
X181788571Y-90767552D02*
X181788571Y-88267552D01*
X181550476Y-89815171D02*
X180836190Y-90767552D01*
X180836190Y-89100885D02*
X181788571Y-90053266D01*
X179883809Y-90648504D02*
X179526666Y-90767552D01*
X178931428Y-90767552D01*
X178693333Y-90648504D01*
X178574285Y-90529457D01*
X178455238Y-90291361D01*
X178455238Y-90053266D01*
X178574285Y-89815171D01*
X178693333Y-89696123D01*
X178931428Y-89577076D01*
X179407619Y-89458028D01*
X179645714Y-89338980D01*
X179764761Y-89219933D01*
X179883809Y-88981838D01*
X179883809Y-88743742D01*
X179764761Y-88505647D01*
X179645714Y-88386600D01*
X179407619Y-88267552D01*
X178812380Y-88267552D01*
X178455238Y-88386600D01*
X177383809Y-90767552D02*
X177383809Y-89100885D01*
X177383809Y-88267552D02*
X177502857Y-88386600D01*
X177383809Y-88505647D01*
X177264761Y-88386600D01*
X177383809Y-88267552D01*
X177383809Y-88505647D01*
X175121904Y-90767552D02*
X175121904Y-88267552D01*
X175121904Y-90648504D02*
X175360000Y-90767552D01*
X175836190Y-90767552D01*
X176074285Y-90648504D01*
X176193333Y-90529457D01*
X176312380Y-90291361D01*
X176312380Y-89577076D01*
X176193333Y-89338980D01*
X176074285Y-89219933D01*
X175836190Y-89100885D01*
X175360000Y-89100885D01*
X175121904Y-89219933D01*
X172979047Y-90648504D02*
X173217142Y-90767552D01*
X173693333Y-90767552D01*
X173931428Y-90648504D01*
X174050476Y-90410409D01*
X174050476Y-89458028D01*
X173931428Y-89219933D01*
X173693333Y-89100885D01*
X173217142Y-89100885D01*
X172979047Y-89219933D01*
X172860000Y-89458028D01*
X172860000Y-89696123D01*
X174050476Y-89934219D01*
X170955238Y-89458028D02*
X170598095Y-89577076D01*
X170479047Y-89696123D01*
X170360000Y-89934219D01*
X170360000Y-90291361D01*
X170479047Y-90529457D01*
X170598095Y-90648504D01*
X170836190Y-90767552D01*
X171788571Y-90767552D01*
X171788571Y-88267552D01*
X170955238Y-88267552D01*
X170717142Y-88386600D01*
X170598095Y-88505647D01*
X170479047Y-88743742D01*
X170479047Y-88981838D01*
X170598095Y-89219933D01*
X170717142Y-89338980D01*
X170955238Y-89458028D01*
X171788571Y-89458028D01*
X168455238Y-89458028D02*
X168098095Y-89577076D01*
X167979047Y-89696123D01*
X167860000Y-89934219D01*
X167860000Y-90291361D01*
X167979047Y-90529457D01*
X168098095Y-90648504D01*
X168336190Y-90767552D01*
X169288571Y-90767552D01*
X169288571Y-88267552D01*
X168455238Y-88267552D01*
X168217142Y-88386600D01*
X168098095Y-88505647D01*
X167979047Y-88743742D01*
X167979047Y-88981838D01*
X168098095Y-89219933D01*
X168217142Y-89338980D01*
X168455238Y-89458028D01*
X169288571Y-89458028D01*
D13*
G04 #@! TO.C,J4*
X141774000Y-56288400D02*
X140414000Y-56288400D01*
X146974000Y-93368400D02*
X146974000Y-93938400D01*
X146974000Y-90828400D02*
X146974000Y-91848400D01*
X146974000Y-88288400D02*
X146974000Y-89308400D01*
X146974000Y-85748400D02*
X146974000Y-86768400D01*
X146974000Y-83208400D02*
X146974000Y-84228400D01*
X146974000Y-80668400D02*
X146974000Y-81688400D01*
X146974000Y-78128400D02*
X146974000Y-79148400D01*
X146974000Y-75588400D02*
X146974000Y-76608400D01*
X146974000Y-73048400D02*
X146974000Y-74068400D01*
X146974000Y-70508400D02*
X146974000Y-71528400D01*
X146974000Y-67968400D02*
X146974000Y-68988400D01*
X146974000Y-65428400D02*
X146974000Y-66448400D01*
X146974000Y-62888400D02*
X146974000Y-63908400D01*
X146974000Y-60348400D02*
X146974000Y-61368400D01*
X146974000Y-57808400D02*
X146974000Y-58828400D01*
X146974000Y-55718400D02*
X146974000Y-56288400D01*
X146974000Y-93938400D02*
X141774000Y-93938400D01*
X141774000Y-93368400D02*
X141774000Y-93938400D01*
X141774000Y-90828400D02*
X141774000Y-91848400D01*
X141774000Y-88288400D02*
X141774000Y-89308400D01*
X141774000Y-85748400D02*
X141774000Y-86768400D01*
X141774000Y-83208400D02*
X141774000Y-84228400D01*
X141774000Y-80668400D02*
X141774000Y-81688400D01*
X141774000Y-78128400D02*
X141774000Y-79148400D01*
X141774000Y-75588400D02*
X141774000Y-76608400D01*
X141774000Y-73048400D02*
X141774000Y-74068400D01*
X141774000Y-70508400D02*
X141774000Y-71528400D01*
X141774000Y-67968400D02*
X141774000Y-68988400D01*
X141774000Y-65428400D02*
X141774000Y-66448400D01*
X141774000Y-62888400D02*
X141774000Y-63908400D01*
X141774000Y-60348400D02*
X141774000Y-61368400D01*
X141774000Y-57808400D02*
X141774000Y-58828400D01*
X141774000Y-55718400D02*
X141774000Y-56288400D01*
X146974000Y-55718400D02*
X141774000Y-55718400D01*
G04 #@! TD*
M02*
