G04 #@! TF.GenerationSoftware,KiCad,Pcbnew,5.0.2-bee76a0~70~ubuntu18.04.1*
G04 #@! TF.CreationDate,2018-12-02T18:05:12+09:00*
G04 #@! TF.ProjectId,M5StackSideBB,4d355374-6163-46b5-9369-646542422e6b,rev?*
G04 #@! TF.SameCoordinates,Original*
G04 #@! TF.FileFunction,Legend,Top*
G04 #@! TF.FilePolarity,Positive*
%FSLAX46Y46*%
G04 Gerber Fmt 4.6, Leading zero omitted, Abs format (unit mm)*
G04 Created by KiCad (PCBNEW 5.0.2-bee76a0~70~ubuntu18.04.1) date 2018年12月02日 18時05分12秒*
%MOMM*%
%LPD*%
G01*
G04 APERTURE LIST*
%ADD10C,0.250000*%
%ADD11C,0.500000*%
%ADD12C,0.200000*%
%ADD13C,0.120000*%
G04 APERTURE END LIST*
D10*
X126122609Y-88031580D02*
X125789276Y-87555390D01*
X125551180Y-88031580D02*
X125551180Y-87031580D01*
X125932133Y-87031580D01*
X126027371Y-87079200D01*
X126074990Y-87126819D01*
X126122609Y-87222057D01*
X126122609Y-87364914D01*
X126074990Y-87460152D01*
X126027371Y-87507771D01*
X125932133Y-87555390D01*
X125551180Y-87555390D01*
X126932133Y-87983961D02*
X126836895Y-88031580D01*
X126646419Y-88031580D01*
X126551180Y-87983961D01*
X126503561Y-87888723D01*
X126503561Y-87507771D01*
X126551180Y-87412533D01*
X126646419Y-87364914D01*
X126836895Y-87364914D01*
X126932133Y-87412533D01*
X126979752Y-87507771D01*
X126979752Y-87603009D01*
X126503561Y-87698247D01*
X127313085Y-87364914D02*
X127551180Y-88031580D01*
X127789276Y-87364914D01*
X128884514Y-87126819D02*
X128932133Y-87079200D01*
X129027371Y-87031580D01*
X129265466Y-87031580D01*
X129360704Y-87079200D01*
X129408323Y-87126819D01*
X129455942Y-87222057D01*
X129455942Y-87317295D01*
X129408323Y-87460152D01*
X128836895Y-88031580D01*
X129455942Y-88031580D01*
X130074990Y-87031580D02*
X130170228Y-87031580D01*
X130265466Y-87079200D01*
X130313085Y-87126819D01*
X130360704Y-87222057D01*
X130408323Y-87412533D01*
X130408323Y-87650628D01*
X130360704Y-87841104D01*
X130313085Y-87936342D01*
X130265466Y-87983961D01*
X130170228Y-88031580D01*
X130074990Y-88031580D01*
X129979752Y-87983961D01*
X129932133Y-87936342D01*
X129884514Y-87841104D01*
X129836895Y-87650628D01*
X129836895Y-87412533D01*
X129884514Y-87222057D01*
X129932133Y-87126819D01*
X129979752Y-87079200D01*
X130074990Y-87031580D01*
X131360704Y-88031580D02*
X130789276Y-88031580D01*
X131074990Y-88031580D02*
X131074990Y-87031580D01*
X130979752Y-87174438D01*
X130884514Y-87269676D01*
X130789276Y-87317295D01*
X131932133Y-87460152D02*
X131836895Y-87412533D01*
X131789276Y-87364914D01*
X131741657Y-87269676D01*
X131741657Y-87222057D01*
X131789276Y-87126819D01*
X131836895Y-87079200D01*
X131932133Y-87031580D01*
X132122609Y-87031580D01*
X132217847Y-87079200D01*
X132265466Y-87126819D01*
X132313085Y-87222057D01*
X132313085Y-87269676D01*
X132265466Y-87364914D01*
X132217847Y-87412533D01*
X132122609Y-87460152D01*
X131932133Y-87460152D01*
X131836895Y-87507771D01*
X131789276Y-87555390D01*
X131741657Y-87650628D01*
X131741657Y-87841104D01*
X131789276Y-87936342D01*
X131836895Y-87983961D01*
X131932133Y-88031580D01*
X132122609Y-88031580D01*
X132217847Y-87983961D01*
X132265466Y-87936342D01*
X132313085Y-87841104D01*
X132313085Y-87650628D01*
X132265466Y-87555390D01*
X132217847Y-87507771D01*
X132122609Y-87460152D01*
X132741657Y-87936342D02*
X132789276Y-87983961D01*
X132741657Y-88031580D01*
X132694038Y-87983961D01*
X132741657Y-87936342D01*
X132741657Y-88031580D01*
X133741657Y-88031580D02*
X133170228Y-88031580D01*
X133455942Y-88031580D02*
X133455942Y-87031580D01*
X133360704Y-87174438D01*
X133265466Y-87269676D01*
X133170228Y-87317295D01*
X134122609Y-87126819D02*
X134170228Y-87079200D01*
X134265466Y-87031580D01*
X134503561Y-87031580D01*
X134598800Y-87079200D01*
X134646419Y-87126819D01*
X134694038Y-87222057D01*
X134694038Y-87317295D01*
X134646419Y-87460152D01*
X134074990Y-88031580D01*
X134694038Y-88031580D01*
D11*
X102430038Y-87975961D02*
X102430038Y-85975961D01*
X103096704Y-87404533D01*
X103763371Y-85975961D01*
X103763371Y-87975961D01*
X105668133Y-85975961D02*
X104715752Y-85975961D01*
X104620514Y-86928342D01*
X104715752Y-86833104D01*
X104906228Y-86737866D01*
X105382419Y-86737866D01*
X105572895Y-86833104D01*
X105668133Y-86928342D01*
X105763371Y-87118819D01*
X105763371Y-87595009D01*
X105668133Y-87785485D01*
X105572895Y-87880723D01*
X105382419Y-87975961D01*
X104906228Y-87975961D01*
X104715752Y-87880723D01*
X104620514Y-87785485D01*
X106525276Y-87880723D02*
X106810990Y-87975961D01*
X107287180Y-87975961D01*
X107477657Y-87880723D01*
X107572895Y-87785485D01*
X107668133Y-87595009D01*
X107668133Y-87404533D01*
X107572895Y-87214057D01*
X107477657Y-87118819D01*
X107287180Y-87023580D01*
X106906228Y-86928342D01*
X106715752Y-86833104D01*
X106620514Y-86737866D01*
X106525276Y-86547390D01*
X106525276Y-86356914D01*
X106620514Y-86166438D01*
X106715752Y-86071200D01*
X106906228Y-85975961D01*
X107382419Y-85975961D01*
X107668133Y-86071200D01*
X108239561Y-86642628D02*
X109001466Y-86642628D01*
X108525276Y-85975961D02*
X108525276Y-87690247D01*
X108620514Y-87880723D01*
X108810990Y-87975961D01*
X109001466Y-87975961D01*
X110525276Y-87975961D02*
X110525276Y-86928342D01*
X110430038Y-86737866D01*
X110239561Y-86642628D01*
X109858609Y-86642628D01*
X109668133Y-86737866D01*
X110525276Y-87880723D02*
X110334800Y-87975961D01*
X109858609Y-87975961D01*
X109668133Y-87880723D01*
X109572895Y-87690247D01*
X109572895Y-87499771D01*
X109668133Y-87309295D01*
X109858609Y-87214057D01*
X110334800Y-87214057D01*
X110525276Y-87118819D01*
X112334800Y-87880723D02*
X112144323Y-87975961D01*
X111763371Y-87975961D01*
X111572895Y-87880723D01*
X111477657Y-87785485D01*
X111382419Y-87595009D01*
X111382419Y-87023580D01*
X111477657Y-86833104D01*
X111572895Y-86737866D01*
X111763371Y-86642628D01*
X112144323Y-86642628D01*
X112334800Y-86737866D01*
X113191942Y-87975961D02*
X113191942Y-85975961D01*
X113382419Y-87214057D02*
X113953847Y-87975961D01*
X113953847Y-86642628D02*
X113191942Y-87404533D01*
X114715752Y-87880723D02*
X115001466Y-87975961D01*
X115477657Y-87975961D01*
X115668133Y-87880723D01*
X115763371Y-87785485D01*
X115858609Y-87595009D01*
X115858609Y-87404533D01*
X115763371Y-87214057D01*
X115668133Y-87118819D01*
X115477657Y-87023580D01*
X115096704Y-86928342D01*
X114906228Y-86833104D01*
X114810990Y-86737866D01*
X114715752Y-86547390D01*
X114715752Y-86356914D01*
X114810990Y-86166438D01*
X114906228Y-86071200D01*
X115096704Y-85975961D01*
X115572895Y-85975961D01*
X115858609Y-86071200D01*
X116715752Y-87975961D02*
X116715752Y-86642628D01*
X116715752Y-85975961D02*
X116620514Y-86071200D01*
X116715752Y-86166438D01*
X116810990Y-86071200D01*
X116715752Y-85975961D01*
X116715752Y-86166438D01*
X118525276Y-87975961D02*
X118525276Y-85975961D01*
X118525276Y-87880723D02*
X118334800Y-87975961D01*
X117953847Y-87975961D01*
X117763371Y-87880723D01*
X117668133Y-87785485D01*
X117572895Y-87595009D01*
X117572895Y-87023580D01*
X117668133Y-86833104D01*
X117763371Y-86737866D01*
X117953847Y-86642628D01*
X118334800Y-86642628D01*
X118525276Y-86737866D01*
X120239561Y-87880723D02*
X120049085Y-87975961D01*
X119668133Y-87975961D01*
X119477657Y-87880723D01*
X119382419Y-87690247D01*
X119382419Y-86928342D01*
X119477657Y-86737866D01*
X119668133Y-86642628D01*
X120049085Y-86642628D01*
X120239561Y-86737866D01*
X120334799Y-86928342D01*
X120334799Y-87118819D01*
X119382419Y-87309295D01*
X121858609Y-86928342D02*
X122144323Y-87023580D01*
X122239561Y-87118819D01*
X122334799Y-87309295D01*
X122334799Y-87595009D01*
X122239561Y-87785485D01*
X122144323Y-87880723D01*
X121953847Y-87975961D01*
X121191942Y-87975961D01*
X121191942Y-85975961D01*
X121858609Y-85975961D01*
X122049085Y-86071200D01*
X122144323Y-86166438D01*
X122239561Y-86356914D01*
X122239561Y-86547390D01*
X122144323Y-86737866D01*
X122049085Y-86833104D01*
X121858609Y-86928342D01*
X121191942Y-86928342D01*
X123858609Y-86928342D02*
X124144323Y-87023580D01*
X124239561Y-87118819D01*
X124334799Y-87309295D01*
X124334799Y-87595009D01*
X124239561Y-87785485D01*
X124144323Y-87880723D01*
X123953847Y-87975961D01*
X123191942Y-87975961D01*
X123191942Y-85975961D01*
X123858609Y-85975961D01*
X124049085Y-86071200D01*
X124144323Y-86166438D01*
X124239561Y-86356914D01*
X124239561Y-86547390D01*
X124144323Y-86737866D01*
X124049085Y-86833104D01*
X123858609Y-86928342D01*
X123191942Y-86928342D01*
D10*
X102335561Y-90063580D02*
X102335561Y-89063580D01*
X102764133Y-90063580D02*
X102764133Y-89539771D01*
X102716514Y-89444533D01*
X102621276Y-89396914D01*
X102478419Y-89396914D01*
X102383180Y-89444533D01*
X102335561Y-89492152D01*
X103097466Y-89396914D02*
X103478419Y-89396914D01*
X103240323Y-89063580D02*
X103240323Y-89920723D01*
X103287942Y-90015961D01*
X103383180Y-90063580D01*
X103478419Y-90063580D01*
X103668895Y-89396914D02*
X104049847Y-89396914D01*
X103811752Y-89063580D02*
X103811752Y-89920723D01*
X103859371Y-90015961D01*
X103954609Y-90063580D01*
X104049847Y-90063580D01*
X104383180Y-89396914D02*
X104383180Y-90396914D01*
X104383180Y-89444533D02*
X104478419Y-89396914D01*
X104668895Y-89396914D01*
X104764133Y-89444533D01*
X104811752Y-89492152D01*
X104859371Y-89587390D01*
X104859371Y-89873104D01*
X104811752Y-89968342D01*
X104764133Y-90015961D01*
X104668895Y-90063580D01*
X104478419Y-90063580D01*
X104383180Y-90015961D01*
X105240323Y-90015961D02*
X105335561Y-90063580D01*
X105526038Y-90063580D01*
X105621276Y-90015961D01*
X105668895Y-89920723D01*
X105668895Y-89873104D01*
X105621276Y-89777866D01*
X105526038Y-89730247D01*
X105383180Y-89730247D01*
X105287942Y-89682628D01*
X105240323Y-89587390D01*
X105240323Y-89539771D01*
X105287942Y-89444533D01*
X105383180Y-89396914D01*
X105526038Y-89396914D01*
X105621276Y-89444533D01*
X106097466Y-89968342D02*
X106145085Y-90015961D01*
X106097466Y-90063580D01*
X106049847Y-90015961D01*
X106097466Y-89968342D01*
X106097466Y-90063580D01*
X106097466Y-89444533D02*
X106145085Y-89492152D01*
X106097466Y-89539771D01*
X106049847Y-89492152D01*
X106097466Y-89444533D01*
X106097466Y-89539771D01*
X107287942Y-89015961D02*
X106430799Y-90301676D01*
X108335561Y-89015961D02*
X107478419Y-90301676D01*
X109097466Y-89396914D02*
X109097466Y-90206438D01*
X109049847Y-90301676D01*
X109002228Y-90349295D01*
X108906990Y-90396914D01*
X108764133Y-90396914D01*
X108668895Y-90349295D01*
X109097466Y-90015961D02*
X109002228Y-90063580D01*
X108811752Y-90063580D01*
X108716514Y-90015961D01*
X108668895Y-89968342D01*
X108621276Y-89873104D01*
X108621276Y-89587390D01*
X108668895Y-89492152D01*
X108716514Y-89444533D01*
X108811752Y-89396914D01*
X109002228Y-89396914D01*
X109097466Y-89444533D01*
X109573657Y-90063580D02*
X109573657Y-89396914D01*
X109573657Y-89063580D02*
X109526038Y-89111200D01*
X109573657Y-89158819D01*
X109621276Y-89111200D01*
X109573657Y-89063580D01*
X109573657Y-89158819D01*
X109906990Y-89396914D02*
X110287942Y-89396914D01*
X110049847Y-89063580D02*
X110049847Y-89920723D01*
X110097466Y-90015961D01*
X110192704Y-90063580D01*
X110287942Y-90063580D01*
X110621276Y-90063580D02*
X110621276Y-89063580D01*
X111049847Y-90063580D02*
X111049847Y-89539771D01*
X111002228Y-89444533D01*
X110906990Y-89396914D01*
X110764133Y-89396914D01*
X110668895Y-89444533D01*
X110621276Y-89492152D01*
X111954609Y-89396914D02*
X111954609Y-90063580D01*
X111526038Y-89396914D02*
X111526038Y-89920723D01*
X111573657Y-90015961D01*
X111668895Y-90063580D01*
X111811752Y-90063580D01*
X111906990Y-90015961D01*
X111954609Y-89968342D01*
X112430799Y-90063580D02*
X112430799Y-89063580D01*
X112430799Y-89444533D02*
X112526038Y-89396914D01*
X112716514Y-89396914D01*
X112811752Y-89444533D01*
X112859371Y-89492152D01*
X112906990Y-89587390D01*
X112906990Y-89873104D01*
X112859371Y-89968342D01*
X112811752Y-90015961D01*
X112716514Y-90063580D01*
X112526038Y-90063580D01*
X112430799Y-90015961D01*
X113335561Y-89968342D02*
X113383180Y-90015961D01*
X113335561Y-90063580D01*
X113287942Y-90015961D01*
X113335561Y-89968342D01*
X113335561Y-90063580D01*
X114240323Y-90015961D02*
X114145085Y-90063580D01*
X113954609Y-90063580D01*
X113859371Y-90015961D01*
X113811752Y-89968342D01*
X113764133Y-89873104D01*
X113764133Y-89587390D01*
X113811752Y-89492152D01*
X113859371Y-89444533D01*
X113954609Y-89396914D01*
X114145085Y-89396914D01*
X114240323Y-89444533D01*
X114811752Y-90063580D02*
X114716514Y-90015961D01*
X114668895Y-89968342D01*
X114621276Y-89873104D01*
X114621276Y-89587390D01*
X114668895Y-89492152D01*
X114716514Y-89444533D01*
X114811752Y-89396914D01*
X114954609Y-89396914D01*
X115049847Y-89444533D01*
X115097466Y-89492152D01*
X115145085Y-89587390D01*
X115145085Y-89873104D01*
X115097466Y-89968342D01*
X115049847Y-90015961D01*
X114954609Y-90063580D01*
X114811752Y-90063580D01*
X115573657Y-90063580D02*
X115573657Y-89396914D01*
X115573657Y-89492152D02*
X115621276Y-89444533D01*
X115716514Y-89396914D01*
X115859371Y-89396914D01*
X115954609Y-89444533D01*
X116002228Y-89539771D01*
X116002228Y-90063580D01*
X116002228Y-89539771D02*
X116049847Y-89444533D01*
X116145085Y-89396914D01*
X116287942Y-89396914D01*
X116383180Y-89444533D01*
X116430799Y-89539771D01*
X116430799Y-90063580D01*
X117621276Y-89015961D02*
X116764133Y-90301676D01*
X118383180Y-90063580D02*
X118383180Y-89539771D01*
X118335561Y-89444533D01*
X118240323Y-89396914D01*
X118049847Y-89396914D01*
X117954609Y-89444533D01*
X118383180Y-90015961D02*
X118287942Y-90063580D01*
X118049847Y-90063580D01*
X117954609Y-90015961D01*
X117906990Y-89920723D01*
X117906990Y-89825485D01*
X117954609Y-89730247D01*
X118049847Y-89682628D01*
X118287942Y-89682628D01*
X118383180Y-89635009D01*
X118811752Y-90015961D02*
X118906990Y-90063580D01*
X119097466Y-90063580D01*
X119192704Y-90015961D01*
X119240323Y-89920723D01*
X119240323Y-89873104D01*
X119192704Y-89777866D01*
X119097466Y-89730247D01*
X118954609Y-89730247D01*
X118859371Y-89682628D01*
X118811752Y-89587390D01*
X118811752Y-89539771D01*
X118859371Y-89444533D01*
X118954609Y-89396914D01*
X119097466Y-89396914D01*
X119192704Y-89444533D01*
X120097466Y-89396914D02*
X120097466Y-90063580D01*
X119668895Y-89396914D02*
X119668895Y-89920723D01*
X119716514Y-90015961D01*
X119811752Y-90063580D01*
X119954609Y-90063580D01*
X120049847Y-90015961D01*
X120097466Y-89968342D01*
X120573657Y-90063580D02*
X120573657Y-89063580D01*
X120668895Y-89682628D02*
X120954609Y-90063580D01*
X120954609Y-89396914D02*
X120573657Y-89777866D01*
X121383180Y-90063580D02*
X121383180Y-89396914D01*
X121383180Y-89063580D02*
X121335561Y-89111200D01*
X121383180Y-89158819D01*
X121430799Y-89111200D01*
X121383180Y-89063580D01*
X121383180Y-89158819D01*
X122287942Y-90063580D02*
X122287942Y-89539771D01*
X122240323Y-89444533D01*
X122145085Y-89396914D01*
X121954609Y-89396914D01*
X121859371Y-89444533D01*
X122287942Y-90015961D02*
X122192704Y-90063580D01*
X121954609Y-90063580D01*
X121859371Y-90015961D01*
X121811752Y-89920723D01*
X121811752Y-89825485D01*
X121859371Y-89730247D01*
X121954609Y-89682628D01*
X122192704Y-89682628D01*
X122287942Y-89635009D01*
X123192704Y-90063580D02*
X123192704Y-89539771D01*
X123145085Y-89444533D01*
X123049847Y-89396914D01*
X122859371Y-89396914D01*
X122764133Y-89444533D01*
X123192704Y-90015961D02*
X123097466Y-90063580D01*
X122859371Y-90063580D01*
X122764133Y-90015961D01*
X122716514Y-89920723D01*
X122716514Y-89825485D01*
X122764133Y-89730247D01*
X122859371Y-89682628D01*
X123097466Y-89682628D01*
X123192704Y-89635009D01*
X124097466Y-90063580D02*
X124097466Y-89539771D01*
X124049847Y-89444533D01*
X123954609Y-89396914D01*
X123764133Y-89396914D01*
X123668895Y-89444533D01*
X124097466Y-90015961D02*
X124002228Y-90063580D01*
X123764133Y-90063580D01*
X123668895Y-90015961D01*
X123621276Y-89920723D01*
X123621276Y-89825485D01*
X123668895Y-89730247D01*
X123764133Y-89682628D01*
X124002228Y-89682628D01*
X124097466Y-89635009D01*
X125287942Y-89015961D02*
X124430799Y-90301676D01*
X125621276Y-90063580D02*
X125621276Y-89063580D01*
X125954609Y-89777866D01*
X126287942Y-89063580D01*
X126287942Y-90063580D01*
X127240323Y-89063580D02*
X126764133Y-89063580D01*
X126716514Y-89539771D01*
X126764133Y-89492152D01*
X126859371Y-89444533D01*
X127097466Y-89444533D01*
X127192704Y-89492152D01*
X127240323Y-89539771D01*
X127287942Y-89635009D01*
X127287942Y-89873104D01*
X127240323Y-89968342D01*
X127192704Y-90015961D01*
X127097466Y-90063580D01*
X126859371Y-90063580D01*
X126764133Y-90015961D01*
X126716514Y-89968342D01*
X127668895Y-90015961D02*
X127811752Y-90063580D01*
X128049847Y-90063580D01*
X128145085Y-90015961D01*
X128192704Y-89968342D01*
X128240323Y-89873104D01*
X128240323Y-89777866D01*
X128192704Y-89682628D01*
X128145085Y-89635009D01*
X128049847Y-89587390D01*
X127859371Y-89539771D01*
X127764133Y-89492152D01*
X127716514Y-89444533D01*
X127668895Y-89349295D01*
X127668895Y-89254057D01*
X127716514Y-89158819D01*
X127764133Y-89111200D01*
X127859371Y-89063580D01*
X128097466Y-89063580D01*
X128240323Y-89111200D01*
X128526038Y-89396914D02*
X128906990Y-89396914D01*
X128668895Y-89063580D02*
X128668895Y-89920723D01*
X128716514Y-90015961D01*
X128811752Y-90063580D01*
X128906990Y-90063580D01*
X129668895Y-90063580D02*
X129668895Y-89539771D01*
X129621276Y-89444533D01*
X129526038Y-89396914D01*
X129335561Y-89396914D01*
X129240323Y-89444533D01*
X129668895Y-90015961D02*
X129573657Y-90063580D01*
X129335561Y-90063580D01*
X129240323Y-90015961D01*
X129192704Y-89920723D01*
X129192704Y-89825485D01*
X129240323Y-89730247D01*
X129335561Y-89682628D01*
X129573657Y-89682628D01*
X129668895Y-89635009D01*
X130573657Y-90015961D02*
X130478419Y-90063580D01*
X130287942Y-90063580D01*
X130192704Y-90015961D01*
X130145085Y-89968342D01*
X130097466Y-89873104D01*
X130097466Y-89587390D01*
X130145085Y-89492152D01*
X130192704Y-89444533D01*
X130287942Y-89396914D01*
X130478419Y-89396914D01*
X130573657Y-89444533D01*
X131002228Y-90063580D02*
X131002228Y-89063580D01*
X131097466Y-89682628D02*
X131383180Y-90063580D01*
X131383180Y-89396914D02*
X131002228Y-89777866D01*
X131764133Y-90015961D02*
X131906990Y-90063580D01*
X132145085Y-90063580D01*
X132240323Y-90015961D01*
X132287942Y-89968342D01*
X132335561Y-89873104D01*
X132335561Y-89777866D01*
X132287942Y-89682628D01*
X132240323Y-89635009D01*
X132145085Y-89587390D01*
X131954609Y-89539771D01*
X131859371Y-89492152D01*
X131811752Y-89444533D01*
X131764133Y-89349295D01*
X131764133Y-89254057D01*
X131811752Y-89158819D01*
X131859371Y-89111200D01*
X131954609Y-89063580D01*
X132192704Y-89063580D01*
X132335561Y-89111200D01*
X132764133Y-90063580D02*
X132764133Y-89396914D01*
X132764133Y-89063580D02*
X132716514Y-89111200D01*
X132764133Y-89158819D01*
X132811752Y-89111200D01*
X132764133Y-89063580D01*
X132764133Y-89158819D01*
X133668895Y-90063580D02*
X133668895Y-89063580D01*
X133668895Y-90015961D02*
X133573657Y-90063580D01*
X133383180Y-90063580D01*
X133287942Y-90015961D01*
X133240323Y-89968342D01*
X133192704Y-89873104D01*
X133192704Y-89587390D01*
X133240323Y-89492152D01*
X133287942Y-89444533D01*
X133383180Y-89396914D01*
X133573657Y-89396914D01*
X133668895Y-89444533D01*
X134526038Y-90015961D02*
X134430799Y-90063580D01*
X134240323Y-90063580D01*
X134145085Y-90015961D01*
X134097466Y-89920723D01*
X134097466Y-89539771D01*
X134145085Y-89444533D01*
X134240323Y-89396914D01*
X134430799Y-89396914D01*
X134526038Y-89444533D01*
X134573657Y-89539771D01*
X134573657Y-89635009D01*
X134097466Y-89730247D01*
X135335561Y-89539771D02*
X135478419Y-89587390D01*
X135526038Y-89635009D01*
X135573657Y-89730247D01*
X135573657Y-89873104D01*
X135526038Y-89968342D01*
X135478419Y-90015961D01*
X135383180Y-90063580D01*
X135002228Y-90063580D01*
X135002228Y-89063580D01*
X135335561Y-89063580D01*
X135430799Y-89111200D01*
X135478419Y-89158819D01*
X135526038Y-89254057D01*
X135526038Y-89349295D01*
X135478419Y-89444533D01*
X135430799Y-89492152D01*
X135335561Y-89539771D01*
X135002228Y-89539771D01*
X136335561Y-89539771D02*
X136478419Y-89587390D01*
X136526038Y-89635009D01*
X136573657Y-89730247D01*
X136573657Y-89873104D01*
X136526038Y-89968342D01*
X136478419Y-90015961D01*
X136383180Y-90063580D01*
X136002228Y-90063580D01*
X136002228Y-89063580D01*
X136335561Y-89063580D01*
X136430799Y-89111200D01*
X136478419Y-89158819D01*
X136526038Y-89254057D01*
X136526038Y-89349295D01*
X136478419Y-89444533D01*
X136430799Y-89492152D01*
X136335561Y-89539771D01*
X136002228Y-89539771D01*
X155948605Y-52142898D02*
X155914933Y-52041883D01*
X155813918Y-51940868D01*
X155679231Y-51873524D01*
X155544544Y-51873524D01*
X155443529Y-51907196D01*
X155275170Y-52008211D01*
X155174155Y-52109226D01*
X155073139Y-52277585D01*
X155039468Y-52378600D01*
X155039468Y-52513287D01*
X155106811Y-52647974D01*
X155174155Y-52715318D01*
X155308842Y-52782661D01*
X155376185Y-52782661D01*
X155611887Y-52546959D01*
X155477200Y-52412272D01*
X155611887Y-53153051D02*
X156318994Y-52445944D01*
X156015948Y-53557112D01*
X156723055Y-52850005D01*
X156352666Y-53893829D02*
X157059773Y-53186722D01*
X157228131Y-53355081D01*
X157295475Y-53489768D01*
X157295475Y-53624455D01*
X157261803Y-53725470D01*
X157160788Y-53893829D01*
X157059773Y-53994844D01*
X156891414Y-54095860D01*
X156790399Y-54129531D01*
X156655712Y-54129531D01*
X156521025Y-54062188D01*
X156352666Y-53893829D01*
X155967133Y-98699580D02*
X155633800Y-98223390D01*
X155395704Y-98699580D02*
X155395704Y-97699580D01*
X155776657Y-97699580D01*
X155871895Y-97747200D01*
X155919514Y-97794819D01*
X155967133Y-97890057D01*
X155967133Y-98032914D01*
X155919514Y-98128152D01*
X155871895Y-98175771D01*
X155776657Y-98223390D01*
X155395704Y-98223390D01*
X156919514Y-98699580D02*
X156348085Y-98699580D01*
X156633800Y-98699580D02*
X156633800Y-97699580D01*
X156538561Y-97842438D01*
X156443323Y-97937676D01*
X156348085Y-97985295D01*
X157911895Y-97699580D02*
X158483323Y-97699580D01*
X158197609Y-98699580D02*
X158197609Y-97699580D01*
X159340466Y-98699580D02*
X158769038Y-98699580D01*
X159054752Y-98699580D02*
X159054752Y-97699580D01*
X158959514Y-97842438D01*
X158864276Y-97937676D01*
X158769038Y-97985295D01*
X161047133Y-98699580D02*
X160713800Y-98223390D01*
X160475704Y-98699580D02*
X160475704Y-97699580D01*
X160856657Y-97699580D01*
X160951895Y-97747200D01*
X160999514Y-97794819D01*
X161047133Y-97890057D01*
X161047133Y-98032914D01*
X160999514Y-98128152D01*
X160951895Y-98175771D01*
X160856657Y-98223390D01*
X160475704Y-98223390D01*
X161428085Y-97794819D02*
X161475704Y-97747200D01*
X161570942Y-97699580D01*
X161809038Y-97699580D01*
X161904276Y-97747200D01*
X161951895Y-97794819D01*
X161999514Y-97890057D01*
X161999514Y-97985295D01*
X161951895Y-98128152D01*
X161380466Y-98699580D01*
X161999514Y-98699580D01*
X162991895Y-97699580D02*
X163563323Y-97699580D01*
X163277609Y-98699580D02*
X163277609Y-97699580D01*
X163849038Y-97794819D02*
X163896657Y-97747200D01*
X163991895Y-97699580D01*
X164229990Y-97699580D01*
X164325228Y-97747200D01*
X164372847Y-97794819D01*
X164420466Y-97890057D01*
X164420466Y-97985295D01*
X164372847Y-98128152D01*
X163801419Y-98699580D01*
X164420466Y-98699580D01*
X175839523Y-52471580D02*
X175839523Y-51471580D01*
X176077619Y-51471580D01*
X176220476Y-51519200D01*
X176315714Y-51614438D01*
X176363333Y-51709676D01*
X176410952Y-51900152D01*
X176410952Y-52043009D01*
X176363333Y-52233485D01*
X176315714Y-52328723D01*
X176220476Y-52423961D01*
X176077619Y-52471580D01*
X175839523Y-52471580D01*
X176791904Y-52185866D02*
X177268095Y-52185866D01*
X176696666Y-52471580D02*
X177030000Y-51471580D01*
X177363333Y-52471580D01*
X173223323Y-52471580D02*
X173223323Y-51471580D01*
X173461419Y-51471580D01*
X173604276Y-51519200D01*
X173699514Y-51614438D01*
X173747133Y-51709676D01*
X173794752Y-51900152D01*
X173794752Y-52043009D01*
X173747133Y-52233485D01*
X173699514Y-52328723D01*
X173604276Y-52423961D01*
X173461419Y-52471580D01*
X173223323Y-52471580D01*
X174175704Y-52185866D02*
X174651895Y-52185866D01*
X174080466Y-52471580D02*
X174413800Y-51471580D01*
X174747133Y-52471580D01*
X170635704Y-52185866D02*
X171111895Y-52185866D01*
X170540466Y-52471580D02*
X170873800Y-51471580D01*
X171207133Y-52471580D01*
X171540466Y-52471580D02*
X171540466Y-51471580D01*
X171778561Y-51471580D01*
X171921419Y-51519200D01*
X172016657Y-51614438D01*
X172064276Y-51709676D01*
X172111895Y-51900152D01*
X172111895Y-52043009D01*
X172064276Y-52233485D01*
X172016657Y-52328723D01*
X171921419Y-52423961D01*
X171778561Y-52471580D01*
X171540466Y-52471580D01*
X168222704Y-52185866D02*
X168698895Y-52185866D01*
X168127466Y-52471580D02*
X168460800Y-51471580D01*
X168794133Y-52471580D01*
X169127466Y-52471580D02*
X169127466Y-51471580D01*
X169365561Y-51471580D01*
X169508419Y-51519200D01*
X169603657Y-51614438D01*
X169651276Y-51709676D01*
X169698895Y-51900152D01*
X169698895Y-52043009D01*
X169651276Y-52233485D01*
X169603657Y-52328723D01*
X169508419Y-52423961D01*
X169365561Y-52471580D01*
X169127466Y-52471580D01*
X165098452Y-98005272D02*
X165165796Y-98139959D01*
X165334155Y-98308318D01*
X165435170Y-98341990D01*
X165502513Y-98341990D01*
X165603529Y-98308318D01*
X165670872Y-98240974D01*
X165704544Y-98139959D01*
X165704544Y-98072616D01*
X165670872Y-97971600D01*
X165569857Y-97803242D01*
X165536185Y-97702226D01*
X165536185Y-97634883D01*
X165569857Y-97533868D01*
X165637200Y-97466524D01*
X165738216Y-97432852D01*
X165805559Y-97432852D01*
X165906574Y-97466524D01*
X166074933Y-97634883D01*
X166142277Y-97769570D01*
X166243292Y-99082768D02*
X166175948Y-99082768D01*
X166041261Y-99015425D01*
X165973918Y-98948081D01*
X165906574Y-98813394D01*
X165906574Y-98678707D01*
X165940246Y-98577692D01*
X166041261Y-98409333D01*
X166142277Y-98308318D01*
X166310635Y-98207303D01*
X166411651Y-98173631D01*
X166546338Y-98173631D01*
X166681025Y-98240974D01*
X166748368Y-98308318D01*
X166815712Y-98443005D01*
X166815712Y-98510348D01*
X166478994Y-99453157D02*
X167186101Y-98746051D01*
X166883055Y-99857218D02*
X166984070Y-99150112D01*
X167590162Y-99150112D02*
X166782040Y-99150112D01*
X166103323Y-97048580D02*
X165531895Y-97048580D01*
X165817609Y-97048580D02*
X165817609Y-96048580D01*
X165722371Y-96191438D01*
X165627133Y-96286676D01*
X165531895Y-96334295D01*
X166674752Y-96477152D02*
X166579514Y-96429533D01*
X166531895Y-96381914D01*
X166484276Y-96286676D01*
X166484276Y-96239057D01*
X166531895Y-96143819D01*
X166579514Y-96096200D01*
X166674752Y-96048580D01*
X166865228Y-96048580D01*
X166960466Y-96096200D01*
X167008085Y-96143819D01*
X167055704Y-96239057D01*
X167055704Y-96286676D01*
X167008085Y-96381914D01*
X166960466Y-96429533D01*
X166865228Y-96477152D01*
X166674752Y-96477152D01*
X166579514Y-96524771D01*
X166531895Y-96572390D01*
X166484276Y-96667628D01*
X166484276Y-96858104D01*
X166531895Y-96953342D01*
X166579514Y-97000961D01*
X166674752Y-97048580D01*
X166865228Y-97048580D01*
X166960466Y-97000961D01*
X167008085Y-96953342D01*
X167055704Y-96858104D01*
X167055704Y-96667628D01*
X167008085Y-96572390D01*
X166960466Y-96524771D01*
X166865228Y-96477152D01*
X175596657Y-98699580D02*
X175596657Y-97699580D01*
X175929990Y-98413866D01*
X176263323Y-97699580D01*
X176263323Y-98699580D01*
X176929990Y-97699580D02*
X177120466Y-97699580D01*
X177215704Y-97747200D01*
X177310942Y-97842438D01*
X177358561Y-98032914D01*
X177358561Y-98366247D01*
X177310942Y-98556723D01*
X177215704Y-98651961D01*
X177120466Y-98699580D01*
X176929990Y-98699580D01*
X176834752Y-98651961D01*
X176739514Y-98556723D01*
X176691895Y-98366247D01*
X176691895Y-98032914D01*
X176739514Y-97842438D01*
X176834752Y-97747200D01*
X176929990Y-97699580D01*
X168643323Y-97048580D02*
X168071895Y-97048580D01*
X168357609Y-97048580D02*
X168357609Y-96048580D01*
X168262371Y-96191438D01*
X168167133Y-96286676D01*
X168071895Y-96334295D01*
X169119514Y-97048580D02*
X169309990Y-97048580D01*
X169405228Y-97000961D01*
X169452847Y-96953342D01*
X169548085Y-96810485D01*
X169595704Y-96620009D01*
X169595704Y-96239057D01*
X169548085Y-96143819D01*
X169500466Y-96096200D01*
X169405228Y-96048580D01*
X169214752Y-96048580D01*
X169119514Y-96096200D01*
X169071895Y-96143819D01*
X169024276Y-96239057D01*
X169024276Y-96477152D01*
X169071895Y-96572390D01*
X169119514Y-96620009D01*
X169214752Y-96667628D01*
X169405228Y-96667628D01*
X169500466Y-96620009D01*
X169548085Y-96572390D01*
X169595704Y-96477152D01*
X175691895Y-96143819D02*
X175739514Y-96096200D01*
X175834752Y-96048580D01*
X176072847Y-96048580D01*
X176168085Y-96096200D01*
X176215704Y-96143819D01*
X176263323Y-96239057D01*
X176263323Y-96334295D01*
X176215704Y-96477152D01*
X175644276Y-97048580D01*
X176263323Y-97048580D01*
X176596657Y-96048580D02*
X177215704Y-96048580D01*
X176882371Y-96429533D01*
X177025228Y-96429533D01*
X177120466Y-96477152D01*
X177168085Y-96524771D01*
X177215704Y-96620009D01*
X177215704Y-96858104D01*
X177168085Y-96953342D01*
X177120466Y-97000961D01*
X177025228Y-97048580D01*
X176739514Y-97048580D01*
X176644276Y-97000961D01*
X176596657Y-96953342D01*
X168262371Y-98699580D02*
X168262371Y-97699580D01*
X168595704Y-98413866D01*
X168929038Y-97699580D01*
X168929038Y-98699580D01*
X169405228Y-98699580D02*
X169405228Y-97699580D01*
X172658796Y-97945616D02*
X172726139Y-98080303D01*
X172894498Y-98248661D01*
X172995513Y-98282333D01*
X173062857Y-98282333D01*
X173163872Y-98248661D01*
X173231216Y-98181318D01*
X173264887Y-98080303D01*
X173264887Y-98012959D01*
X173231216Y-97911944D01*
X173130200Y-97743585D01*
X173096529Y-97642570D01*
X173096529Y-97575226D01*
X173130200Y-97474211D01*
X173197544Y-97406868D01*
X173298559Y-97373196D01*
X173365903Y-97373196D01*
X173466918Y-97406868D01*
X173635277Y-97575226D01*
X173702620Y-97709913D01*
X173803635Y-99023112D02*
X173736292Y-99023112D01*
X173601605Y-98955768D01*
X173534261Y-98888425D01*
X173466918Y-98753738D01*
X173466918Y-98619051D01*
X173500590Y-98518035D01*
X173601605Y-98349677D01*
X173702620Y-98248661D01*
X173870979Y-98147646D01*
X173971994Y-98113974D01*
X174106681Y-98113974D01*
X174241368Y-98181318D01*
X174308712Y-98248661D01*
X174376055Y-98383348D01*
X174376055Y-98450692D01*
X174376055Y-99730218D02*
X174039338Y-99393501D01*
X174746444Y-98686394D01*
X170101960Y-97928780D02*
X170169303Y-98063467D01*
X170337662Y-98231825D01*
X170438677Y-98265497D01*
X170506021Y-98265497D01*
X170607036Y-98231825D01*
X170674380Y-98164482D01*
X170708051Y-98063467D01*
X170708051Y-97996123D01*
X170674380Y-97895108D01*
X170573364Y-97726749D01*
X170539693Y-97625734D01*
X170539693Y-97558390D01*
X170573364Y-97457375D01*
X170640708Y-97390032D01*
X170741723Y-97356360D01*
X170809067Y-97356360D01*
X170910082Y-97390032D01*
X171078441Y-97558390D01*
X171145784Y-97693077D01*
X170775395Y-98669558D02*
X171482502Y-97962451D01*
X171650861Y-98130810D01*
X171718204Y-98265497D01*
X171718204Y-98400184D01*
X171684532Y-98501199D01*
X171583517Y-98669558D01*
X171482502Y-98770574D01*
X171314143Y-98871589D01*
X171213128Y-98905261D01*
X171078441Y-98905261D01*
X170943754Y-98837917D01*
X170775395Y-98669558D01*
X171650861Y-99140963D02*
X171987578Y-99477680D01*
X171381487Y-99275650D02*
X172324296Y-98804245D01*
X171852891Y-99747054D01*
X178378559Y-96095509D02*
X178816292Y-96533242D01*
X178311216Y-96566913D01*
X178412231Y-96667929D01*
X178445903Y-96768944D01*
X178445903Y-96836287D01*
X178412231Y-96937303D01*
X178243872Y-97105661D01*
X178142857Y-97139333D01*
X178075513Y-97139333D01*
X177974498Y-97105661D01*
X177772468Y-96903631D01*
X177738796Y-96802616D01*
X177738796Y-96735272D01*
X179018322Y-96735272D02*
X178546918Y-97678081D01*
X179489727Y-97206677D01*
X179658086Y-97375035D02*
X180095818Y-97812768D01*
X179590742Y-97846440D01*
X179691757Y-97947455D01*
X179725429Y-98048470D01*
X179725429Y-98115814D01*
X179691757Y-98216829D01*
X179523399Y-98385188D01*
X179422383Y-98418860D01*
X179355040Y-98418860D01*
X179254025Y-98385188D01*
X179051994Y-98183157D01*
X179018322Y-98082142D01*
X179018322Y-98014799D01*
X173151895Y-96143819D02*
X173199514Y-96096200D01*
X173294752Y-96048580D01*
X173532847Y-96048580D01*
X173628085Y-96096200D01*
X173675704Y-96143819D01*
X173723323Y-96239057D01*
X173723323Y-96334295D01*
X173675704Y-96477152D01*
X173104276Y-97048580D01*
X173723323Y-97048580D01*
X174104276Y-96143819D02*
X174151895Y-96096200D01*
X174247133Y-96048580D01*
X174485228Y-96048580D01*
X174580466Y-96096200D01*
X174628085Y-96143819D01*
X174675704Y-96239057D01*
X174675704Y-96334295D01*
X174628085Y-96477152D01*
X174056657Y-97048580D01*
X174675704Y-97048580D01*
X181348605Y-96338898D02*
X181314933Y-96237883D01*
X181213918Y-96136868D01*
X181079231Y-96069524D01*
X180944544Y-96069524D01*
X180843529Y-96103196D01*
X180675170Y-96204211D01*
X180574155Y-96305226D01*
X180473139Y-96473585D01*
X180439468Y-96574600D01*
X180439468Y-96709287D01*
X180506811Y-96843974D01*
X180574155Y-96911318D01*
X180708842Y-96978661D01*
X180776185Y-96978661D01*
X181011887Y-96742959D01*
X180877200Y-96608272D01*
X181011887Y-97349051D02*
X181718994Y-96641944D01*
X181415948Y-97753112D01*
X182123055Y-97046005D01*
X181752666Y-98089829D02*
X182459773Y-97382722D01*
X182628131Y-97551081D01*
X182695475Y-97685768D01*
X182695475Y-97820455D01*
X182661803Y-97921470D01*
X182560788Y-98089829D01*
X182459773Y-98190844D01*
X182291414Y-98291860D01*
X182190399Y-98325531D01*
X182055712Y-98325531D01*
X181921025Y-98258188D01*
X181752666Y-98089829D01*
D12*
X170611895Y-96143819D02*
X170659514Y-96096200D01*
X170754752Y-96048580D01*
X170992847Y-96048580D01*
X171088085Y-96096200D01*
X171135704Y-96143819D01*
X171183323Y-96239057D01*
X171183323Y-96334295D01*
X171135704Y-96477152D01*
X170564276Y-97048580D01*
X171183323Y-97048580D01*
X172135704Y-97048580D02*
X171564276Y-97048580D01*
X171849990Y-97048580D02*
X171849990Y-96048580D01*
X171754752Y-96191438D01*
X171659514Y-96286676D01*
X171564276Y-96334295D01*
D10*
X168151276Y-53122580D02*
X168770323Y-53122580D01*
X168436990Y-53503533D01*
X168579847Y-53503533D01*
X168675085Y-53551152D01*
X168722704Y-53598771D01*
X168770323Y-53694009D01*
X168770323Y-53932104D01*
X168722704Y-54027342D01*
X168675085Y-54074961D01*
X168579847Y-54122580D01*
X168294133Y-54122580D01*
X168198895Y-54074961D01*
X168151276Y-54027342D01*
X169627466Y-53122580D02*
X169436990Y-53122580D01*
X169341752Y-53170200D01*
X169294133Y-53217819D01*
X169198895Y-53360676D01*
X169151276Y-53551152D01*
X169151276Y-53932104D01*
X169198895Y-54027342D01*
X169246514Y-54074961D01*
X169341752Y-54122580D01*
X169532228Y-54122580D01*
X169627466Y-54074961D01*
X169675085Y-54027342D01*
X169722704Y-53932104D01*
X169722704Y-53694009D01*
X169675085Y-53598771D01*
X169627466Y-53551152D01*
X169532228Y-53503533D01*
X169341752Y-53503533D01*
X169246514Y-53551152D01*
X169198895Y-53598771D01*
X169151276Y-53694009D01*
X160725559Y-51772509D02*
X161163292Y-52210242D01*
X160658216Y-52243913D01*
X160759231Y-52344929D01*
X160792903Y-52445944D01*
X160792903Y-52513287D01*
X160759231Y-52614303D01*
X160590872Y-52782661D01*
X160489857Y-52816333D01*
X160422513Y-52816333D01*
X160321498Y-52782661D01*
X160119468Y-52580631D01*
X160085796Y-52479616D01*
X160085796Y-52412272D01*
X161365322Y-52412272D02*
X160893918Y-53355081D01*
X161836727Y-52883677D01*
X162005086Y-53052035D02*
X162442818Y-53489768D01*
X161937742Y-53523440D01*
X162038757Y-53624455D01*
X162072429Y-53725470D01*
X162072429Y-53792814D01*
X162038757Y-53893829D01*
X161870399Y-54062188D01*
X161769383Y-54095860D01*
X161702040Y-54095860D01*
X161601025Y-54062188D01*
X161398994Y-53860157D01*
X161365322Y-53759142D01*
X161365322Y-53691799D01*
X170564276Y-53122580D02*
X171183323Y-53122580D01*
X170849990Y-53503533D01*
X170992847Y-53503533D01*
X171088085Y-53551152D01*
X171135704Y-53598771D01*
X171183323Y-53694009D01*
X171183323Y-53932104D01*
X171135704Y-54027342D01*
X171088085Y-54074961D01*
X170992847Y-54122580D01*
X170707133Y-54122580D01*
X170611895Y-54074961D01*
X170564276Y-54027342D01*
X172088085Y-53122580D02*
X171611895Y-53122580D01*
X171564276Y-53598771D01*
X171611895Y-53551152D01*
X171707133Y-53503533D01*
X171945228Y-53503533D01*
X172040466Y-53551152D01*
X172088085Y-53598771D01*
X172135704Y-53694009D01*
X172135704Y-53932104D01*
X172088085Y-54027342D01*
X172040466Y-54074961D01*
X171945228Y-54122580D01*
X171707133Y-54122580D01*
X171611895Y-54074961D01*
X171564276Y-54027342D01*
X163409395Y-52589780D02*
X163476738Y-52724467D01*
X163476738Y-52791810D01*
X163443067Y-52892825D01*
X163342051Y-52993841D01*
X163241036Y-53027512D01*
X163173693Y-53027512D01*
X163072677Y-52993841D01*
X162803303Y-52724467D01*
X163510410Y-52017360D01*
X163746112Y-52253062D01*
X163779784Y-52354077D01*
X163779784Y-52421421D01*
X163746112Y-52522436D01*
X163678769Y-52589780D01*
X163577754Y-52623451D01*
X163510410Y-52623451D01*
X163409395Y-52589780D01*
X163173693Y-52354077D01*
X163678769Y-53195871D02*
X164015487Y-53532589D01*
X163409395Y-53330558D02*
X164352204Y-52859154D01*
X163880800Y-53801963D01*
X164722593Y-53229543D02*
X165126654Y-53633604D01*
X164217517Y-54138680D02*
X164924624Y-53431574D01*
X165713693Y-52967856D02*
X165814708Y-52395436D01*
X165309632Y-52563795D02*
X166016738Y-51856688D01*
X166286112Y-52126062D01*
X166319784Y-52227077D01*
X166319784Y-52294421D01*
X166286112Y-52395436D01*
X166185097Y-52496451D01*
X166084082Y-52530123D01*
X166016738Y-52530123D01*
X165915723Y-52496451D01*
X165646349Y-52227077D01*
X166016738Y-53203558D02*
X166084082Y-53338245D01*
X166252441Y-53506604D01*
X166353456Y-53540276D01*
X166420799Y-53540276D01*
X166521815Y-53506604D01*
X166589158Y-53439261D01*
X166622830Y-53338245D01*
X166622830Y-53270902D01*
X166589158Y-53169887D01*
X166488143Y-53001528D01*
X166454471Y-52900512D01*
X166454471Y-52833169D01*
X166488143Y-52732154D01*
X166555487Y-52664810D01*
X166656502Y-52631138D01*
X166723845Y-52631138D01*
X166824861Y-52664810D01*
X166993219Y-52833169D01*
X167060563Y-52967856D01*
X167296265Y-53136215D02*
X167700326Y-53540276D01*
X166791189Y-54045352D02*
X167498296Y-53338245D01*
X158483323Y-53122580D02*
X158007133Y-53122580D01*
X157959514Y-53598771D01*
X158007133Y-53551152D01*
X158102371Y-53503533D01*
X158340466Y-53503533D01*
X158435704Y-53551152D01*
X158483323Y-53598771D01*
X158530942Y-53694009D01*
X158530942Y-53932104D01*
X158483323Y-54027342D01*
X158435704Y-54074961D01*
X158340466Y-54122580D01*
X158102371Y-54122580D01*
X158007133Y-54074961D01*
X157959514Y-54027342D01*
X158816657Y-53122580D02*
X159149990Y-54122580D01*
X159483323Y-53122580D01*
X173151895Y-53217819D02*
X173199514Y-53170200D01*
X173294752Y-53122580D01*
X173532847Y-53122580D01*
X173628085Y-53170200D01*
X173675704Y-53217819D01*
X173723323Y-53313057D01*
X173723323Y-53408295D01*
X173675704Y-53551152D01*
X173104276Y-54122580D01*
X173723323Y-54122580D01*
X174580466Y-53122580D02*
X174389990Y-53122580D01*
X174294752Y-53170200D01*
X174247133Y-53217819D01*
X174151895Y-53360676D01*
X174104276Y-53551152D01*
X174104276Y-53932104D01*
X174151895Y-54027342D01*
X174199514Y-54074961D01*
X174294752Y-54122580D01*
X174485228Y-54122580D01*
X174580466Y-54074961D01*
X174628085Y-54027342D01*
X174675704Y-53932104D01*
X174675704Y-53694009D01*
X174628085Y-53598771D01*
X174580466Y-53551152D01*
X174485228Y-53503533D01*
X174294752Y-53503533D01*
X174199514Y-53551152D01*
X174151895Y-53598771D01*
X174104276Y-53694009D01*
X175818895Y-53217819D02*
X175866514Y-53170200D01*
X175961752Y-53122580D01*
X176199847Y-53122580D01*
X176295085Y-53170200D01*
X176342704Y-53217819D01*
X176390323Y-53313057D01*
X176390323Y-53408295D01*
X176342704Y-53551152D01*
X175771276Y-54122580D01*
X176390323Y-54122580D01*
X177295085Y-53122580D02*
X176818895Y-53122580D01*
X176771276Y-53598771D01*
X176818895Y-53551152D01*
X176914133Y-53503533D01*
X177152228Y-53503533D01*
X177247466Y-53551152D01*
X177295085Y-53598771D01*
X177342704Y-53694009D01*
X177342704Y-53932104D01*
X177295085Y-54027342D01*
X177247466Y-54074961D01*
X177152228Y-54122580D01*
X176914133Y-54122580D01*
X176818895Y-54074961D01*
X176771276Y-54027342D01*
X179358895Y-53122580D02*
X178882704Y-53122580D01*
X178835085Y-53598771D01*
X178882704Y-53551152D01*
X178977942Y-53503533D01*
X179216038Y-53503533D01*
X179311276Y-53551152D01*
X179358895Y-53598771D01*
X179406514Y-53694009D01*
X179406514Y-53932104D01*
X179358895Y-54027342D01*
X179311276Y-54074961D01*
X179216038Y-54122580D01*
X178977942Y-54122580D01*
X178882704Y-54074961D01*
X178835085Y-54027342D01*
X181375085Y-53217819D02*
X181422704Y-53170200D01*
X181517942Y-53122580D01*
X181756038Y-53122580D01*
X181851276Y-53170200D01*
X181898895Y-53217819D01*
X181946514Y-53313057D01*
X181946514Y-53408295D01*
X181898895Y-53551152D01*
X181327466Y-54122580D01*
X181946514Y-54122580D01*
X163563323Y-97048580D02*
X162991895Y-97048580D01*
X163277609Y-97048580D02*
X163277609Y-96048580D01*
X163182371Y-96191438D01*
X163087133Y-96286676D01*
X162991895Y-96334295D01*
X163896657Y-96048580D02*
X164563323Y-96048580D01*
X164134752Y-97048580D01*
X161023323Y-97048580D02*
X160451895Y-97048580D01*
X160737609Y-97048580D02*
X160737609Y-96048580D01*
X160642371Y-96191438D01*
X160547133Y-96286676D01*
X160451895Y-96334295D01*
X161880466Y-96048580D02*
X161689990Y-96048580D01*
X161594752Y-96096200D01*
X161547133Y-96143819D01*
X161451895Y-96286676D01*
X161404276Y-96477152D01*
X161404276Y-96858104D01*
X161451895Y-96953342D01*
X161499514Y-97000961D01*
X161594752Y-97048580D01*
X161785228Y-97048580D01*
X161880466Y-97000961D01*
X161928085Y-96953342D01*
X161975704Y-96858104D01*
X161975704Y-96620009D01*
X161928085Y-96524771D01*
X161880466Y-96477152D01*
X161785228Y-96429533D01*
X161594752Y-96429533D01*
X161499514Y-96477152D01*
X161451895Y-96524771D01*
X161404276Y-96620009D01*
X158959514Y-97048580D02*
X158388085Y-97048580D01*
X158673800Y-97048580D02*
X158673800Y-96048580D01*
X158578561Y-96191438D01*
X158483323Y-96286676D01*
X158388085Y-96334295D01*
X155800466Y-96048580D02*
X156419514Y-96048580D01*
X156086180Y-96429533D01*
X156229038Y-96429533D01*
X156324276Y-96477152D01*
X156371895Y-96524771D01*
X156419514Y-96620009D01*
X156419514Y-96858104D01*
X156371895Y-96953342D01*
X156324276Y-97000961D01*
X156229038Y-97048580D01*
X155943323Y-97048580D01*
X155848085Y-97000961D01*
X155800466Y-96953342D01*
D13*
G04 #@! TO.C,J3*
X139394000Y-55727600D02*
X148754000Y-55727600D01*
X139394000Y-93929200D02*
X148754000Y-93929200D01*
X139400400Y-55473600D02*
X140840400Y-55473600D01*
X139394000Y-55727600D02*
X139394000Y-56127600D01*
X148754000Y-55727600D02*
X148754000Y-56127600D01*
X139394000Y-93529200D02*
X139394000Y-93929200D01*
X148754000Y-93529200D02*
X148754000Y-93929200D01*
G04 #@! TD*
M02*
