M48
;DRILL file {KiCad 5.0.2-bee76a0~70~ubuntu18.04.1} date 2018年12月24日 08時31分53秒
;FORMAT={-:-/ absolute / inch / decimal}
FMAT,2
INCH,TZ
T1C0.0157
T2C0.0394
%
G90
G05
T1
X4.1472Y-2.1614
X4.1472Y-3.7368
X5.5324Y-3.8704
X5.5409Y-3.0898
X5.558Y-2.6017
X5.5585Y-2.3022
X5.6476Y-2.8015
X5.6585Y-2.546
X5.6588Y-2.946
X5.6591Y-2.2304
X5.6596Y-3.146
X5.7118Y-2.7026
X5.7152Y-3.0022
X5.892Y-3.8116
X5.9105Y-2.9464
X5.9111Y-2.6427
X5.9136Y-2.846
X6.342Y-2.8646
X6.7384Y-2.8614
X7.4078Y-2.3248
T2
X5.488Y-2.4464
X5.488Y-3.446
X5.8565Y-2.4464
X5.8565Y-3.4456
X6.149Y-3.7075
X6.249Y-3.7075
X6.349Y-3.7075
X6.449Y-3.7075
X6.549Y-3.7075
X6.649Y-3.7075
X6.749Y-3.7075
X6.849Y-3.7075
X6.949Y-3.7075
X7.049Y-3.7075
X7.149Y-3.7075
X7.249Y-3.7075
X7.349Y-3.7075
X7.449Y-3.7075
X6.149Y-2.2075
X6.249Y-2.2075
X6.349Y-2.2075
X6.449Y-2.2075
X6.549Y-2.2075
X6.649Y-2.2075
X6.749Y-2.2075
X6.849Y-2.2075
X6.949Y-2.2075
X7.049Y-2.2075
X7.149Y-2.2075
X7.249Y-2.2075
X7.349Y-2.2075
X7.449Y-2.2075
T0
M30
