G04 #@! TF.GenerationSoftware,KiCad,Pcbnew,5.0.1-33cea8e~68~ubuntu18.04.1*
G04 #@! TF.CreationDate,2018-10-29T17:36:35+09:00*
G04 #@! TF.ProjectId,M5StackSideBB,4D35537461636B5369646542422E6B69,rev?*
G04 #@! TF.SameCoordinates,Original*
G04 #@! TF.FileFunction,Soldermask,Bot*
G04 #@! TF.FilePolarity,Negative*
%FSLAX46Y46*%
G04 Gerber Fmt 4.6, Leading zero omitted, Abs format (unit mm)*
G04 Created by KiCad (PCBNEW 5.0.1-33cea8e~68~ubuntu18.04.1) date 2018年10月29日 17時36分35秒*
%MOMM*%
%LPD*%
G01*
G04 APERTURE LIST*
%ADD10C,0.100000*%
G04 APERTURE END LIST*
D10*
G36*
X103409122Y-95246115D02*
X103525041Y-95269173D01*
X103852620Y-95404861D01*
X104143511Y-95599228D01*
X104147436Y-95601851D01*
X104398149Y-95852564D01*
X104398151Y-95852567D01*
X104595139Y-96147380D01*
X104730827Y-96474959D01*
X104800000Y-96822716D01*
X104800000Y-97177284D01*
X104730827Y-97525041D01*
X104595139Y-97852620D01*
X104400772Y-98143511D01*
X104398149Y-98147436D01*
X104147436Y-98398149D01*
X104147433Y-98398151D01*
X103852620Y-98595139D01*
X103525041Y-98730827D01*
X103409122Y-98753885D01*
X103177286Y-98800000D01*
X102822714Y-98800000D01*
X102590878Y-98753885D01*
X102474959Y-98730827D01*
X102147380Y-98595139D01*
X101852567Y-98398151D01*
X101852564Y-98398149D01*
X101601851Y-98147436D01*
X101599228Y-98143511D01*
X101404861Y-97852620D01*
X101269173Y-97525041D01*
X101200000Y-97177284D01*
X101200000Y-96822716D01*
X101269173Y-96474959D01*
X101404861Y-96147380D01*
X101601849Y-95852567D01*
X101601851Y-95852564D01*
X101852564Y-95601851D01*
X101856489Y-95599228D01*
X102147380Y-95404861D01*
X102474959Y-95269173D01*
X102590878Y-95246115D01*
X102822714Y-95200000D01*
X103177286Y-95200000D01*
X103409122Y-95246115D01*
X103409122Y-95246115D01*
G37*
G36*
X147409122Y-95246115D02*
X147525041Y-95269173D01*
X147852620Y-95404861D01*
X148143511Y-95599228D01*
X148147436Y-95601851D01*
X148398149Y-95852564D01*
X148398151Y-95852567D01*
X148595139Y-96147380D01*
X148730827Y-96474959D01*
X148800000Y-96822716D01*
X148800000Y-97177284D01*
X148730827Y-97525041D01*
X148595139Y-97852620D01*
X148400772Y-98143511D01*
X148398149Y-98147436D01*
X148147436Y-98398149D01*
X148147433Y-98398151D01*
X147852620Y-98595139D01*
X147525041Y-98730827D01*
X147409122Y-98753885D01*
X147177286Y-98800000D01*
X146822714Y-98800000D01*
X146590878Y-98753885D01*
X146474959Y-98730827D01*
X146147380Y-98595139D01*
X145852567Y-98398151D01*
X145852564Y-98398149D01*
X145601851Y-98147436D01*
X145599228Y-98143511D01*
X145404861Y-97852620D01*
X145269173Y-97525041D01*
X145200000Y-97177284D01*
X145200000Y-96822716D01*
X145269173Y-96474959D01*
X145404861Y-96147380D01*
X145601849Y-95852567D01*
X145601851Y-95852564D01*
X145852564Y-95601851D01*
X145856489Y-95599228D01*
X146147380Y-95404861D01*
X146474959Y-95269173D01*
X146590878Y-95246115D01*
X146822714Y-95200000D01*
X147177286Y-95200000D01*
X147409122Y-95246115D01*
X147409122Y-95246115D01*
G37*
G36*
X197409122Y-95246115D02*
X197525041Y-95269173D01*
X197852620Y-95404861D01*
X198143511Y-95599228D01*
X198147436Y-95601851D01*
X198398149Y-95852564D01*
X198398151Y-95852567D01*
X198595139Y-96147380D01*
X198730827Y-96474959D01*
X198800000Y-96822716D01*
X198800000Y-97177284D01*
X198730827Y-97525041D01*
X198595139Y-97852620D01*
X198400772Y-98143511D01*
X198398149Y-98147436D01*
X198147436Y-98398149D01*
X198147433Y-98398151D01*
X197852620Y-98595139D01*
X197525041Y-98730827D01*
X197409122Y-98753885D01*
X197177286Y-98800000D01*
X196822714Y-98800000D01*
X196590878Y-98753885D01*
X196474959Y-98730827D01*
X196147380Y-98595139D01*
X195852567Y-98398151D01*
X195852564Y-98398149D01*
X195601851Y-98147436D01*
X195599228Y-98143511D01*
X195404861Y-97852620D01*
X195269173Y-97525041D01*
X195200000Y-97177284D01*
X195200000Y-96822716D01*
X195269173Y-96474959D01*
X195404861Y-96147380D01*
X195601849Y-95852567D01*
X195601851Y-95852564D01*
X195852564Y-95601851D01*
X195856489Y-95599228D01*
X196147380Y-95404861D01*
X196474959Y-95269173D01*
X196590878Y-95246115D01*
X196822714Y-95200000D01*
X197177286Y-95200000D01*
X197409122Y-95246115D01*
X197409122Y-95246115D01*
G37*
G36*
X107379196Y-95749958D02*
X107615780Y-95847954D01*
X107828705Y-95990226D01*
X108009774Y-96171295D01*
X108152046Y-96384220D01*
X108250042Y-96620804D01*
X108300000Y-96871960D01*
X108300000Y-97128040D01*
X108250042Y-97379196D01*
X108152046Y-97615780D01*
X108009774Y-97828705D01*
X107828705Y-98009774D01*
X107615780Y-98152046D01*
X107379196Y-98250042D01*
X107128040Y-98300000D01*
X106871960Y-98300000D01*
X106620804Y-98250042D01*
X106384220Y-98152046D01*
X106171295Y-98009774D01*
X105990226Y-97828705D01*
X105847954Y-97615780D01*
X105749958Y-97379196D01*
X105700000Y-97128040D01*
X105700000Y-96871960D01*
X105749958Y-96620804D01*
X105847954Y-96384220D01*
X105990226Y-96171295D01*
X106171295Y-95990226D01*
X106384220Y-95847954D01*
X106620804Y-95749958D01*
X106871960Y-95700000D01*
X107128040Y-95700000D01*
X107379196Y-95749958D01*
X107379196Y-95749958D01*
G37*
G36*
X143379196Y-95749958D02*
X143615780Y-95847954D01*
X143828705Y-95990226D01*
X144009774Y-96171295D01*
X144152046Y-96384220D01*
X144250042Y-96620804D01*
X144300000Y-96871960D01*
X144300000Y-97128040D01*
X144250042Y-97379196D01*
X144152046Y-97615780D01*
X144009774Y-97828705D01*
X143828705Y-98009774D01*
X143615780Y-98152046D01*
X143379196Y-98250042D01*
X143128040Y-98300000D01*
X142871960Y-98300000D01*
X142620804Y-98250042D01*
X142384220Y-98152046D01*
X142171295Y-98009774D01*
X141990226Y-97828705D01*
X141847954Y-97615780D01*
X141749958Y-97379196D01*
X141700000Y-97128040D01*
X141700000Y-96871960D01*
X141749958Y-96620804D01*
X141847954Y-96384220D01*
X141990226Y-96171295D01*
X142171295Y-95990226D01*
X142384220Y-95847954D01*
X142620804Y-95749958D01*
X142871960Y-95700000D01*
X143128040Y-95700000D01*
X143379196Y-95749958D01*
X143379196Y-95749958D01*
G37*
G36*
X158853707Y-93127597D02*
X158930836Y-93135193D01*
X159062787Y-93175220D01*
X159128763Y-93195233D01*
X159311172Y-93292733D01*
X159471054Y-93423946D01*
X159602267Y-93583828D01*
X159699767Y-93766237D01*
X159699767Y-93766238D01*
X159759807Y-93964164D01*
X159780080Y-94170000D01*
X159759807Y-94375836D01*
X159719780Y-94507787D01*
X159699767Y-94573763D01*
X159602267Y-94756172D01*
X159471054Y-94916054D01*
X159311172Y-95047267D01*
X159128763Y-95144767D01*
X159062787Y-95164780D01*
X158930836Y-95204807D01*
X158853707Y-95212404D01*
X158776580Y-95220000D01*
X158673420Y-95220000D01*
X158596293Y-95212404D01*
X158519164Y-95204807D01*
X158387213Y-95164780D01*
X158321237Y-95144767D01*
X158138828Y-95047267D01*
X157978946Y-94916054D01*
X157847733Y-94756172D01*
X157750233Y-94573763D01*
X157730220Y-94507787D01*
X157690193Y-94375836D01*
X157669920Y-94170000D01*
X157690193Y-93964164D01*
X157750233Y-93766238D01*
X157750233Y-93766237D01*
X157847733Y-93583828D01*
X157978946Y-93423946D01*
X158138828Y-93292733D01*
X158321237Y-93195233D01*
X158387213Y-93175220D01*
X158519164Y-93135193D01*
X158596293Y-93127597D01*
X158673420Y-93120000D01*
X158776580Y-93120000D01*
X158853707Y-93127597D01*
X158853707Y-93127597D01*
G37*
G36*
X161393707Y-93127597D02*
X161470836Y-93135193D01*
X161602787Y-93175220D01*
X161668763Y-93195233D01*
X161851172Y-93292733D01*
X162011054Y-93423946D01*
X162142267Y-93583828D01*
X162239767Y-93766237D01*
X162239767Y-93766238D01*
X162299807Y-93964164D01*
X162320080Y-94170000D01*
X162299807Y-94375836D01*
X162259780Y-94507787D01*
X162239767Y-94573763D01*
X162142267Y-94756172D01*
X162011054Y-94916054D01*
X161851172Y-95047267D01*
X161668763Y-95144767D01*
X161602787Y-95164780D01*
X161470836Y-95204807D01*
X161393707Y-95212404D01*
X161316580Y-95220000D01*
X161213420Y-95220000D01*
X161136293Y-95212404D01*
X161059164Y-95204807D01*
X160927213Y-95164780D01*
X160861237Y-95144767D01*
X160678828Y-95047267D01*
X160518946Y-94916054D01*
X160387733Y-94756172D01*
X160290233Y-94573763D01*
X160270220Y-94507787D01*
X160230193Y-94375836D01*
X160209920Y-94170000D01*
X160230193Y-93964164D01*
X160290233Y-93766238D01*
X160290233Y-93766237D01*
X160387733Y-93583828D01*
X160518946Y-93423946D01*
X160678828Y-93292733D01*
X160861237Y-93195233D01*
X160927213Y-93175220D01*
X161059164Y-93135193D01*
X161136293Y-93127597D01*
X161213420Y-93120000D01*
X161316580Y-93120000D01*
X161393707Y-93127597D01*
X161393707Y-93127597D01*
G37*
G36*
X163933707Y-93127597D02*
X164010836Y-93135193D01*
X164142787Y-93175220D01*
X164208763Y-93195233D01*
X164391172Y-93292733D01*
X164551054Y-93423946D01*
X164682267Y-93583828D01*
X164779767Y-93766237D01*
X164779767Y-93766238D01*
X164839807Y-93964164D01*
X164860080Y-94170000D01*
X164839807Y-94375836D01*
X164799780Y-94507787D01*
X164779767Y-94573763D01*
X164682267Y-94756172D01*
X164551054Y-94916054D01*
X164391172Y-95047267D01*
X164208763Y-95144767D01*
X164142787Y-95164780D01*
X164010836Y-95204807D01*
X163933707Y-95212404D01*
X163856580Y-95220000D01*
X163753420Y-95220000D01*
X163676293Y-95212404D01*
X163599164Y-95204807D01*
X163467213Y-95164780D01*
X163401237Y-95144767D01*
X163218828Y-95047267D01*
X163058946Y-94916054D01*
X162927733Y-94756172D01*
X162830233Y-94573763D01*
X162810220Y-94507787D01*
X162770193Y-94375836D01*
X162749920Y-94170000D01*
X162770193Y-93964164D01*
X162830233Y-93766238D01*
X162830233Y-93766237D01*
X162927733Y-93583828D01*
X163058946Y-93423946D01*
X163218828Y-93292733D01*
X163401237Y-93195233D01*
X163467213Y-93175220D01*
X163599164Y-93135193D01*
X163676293Y-93127597D01*
X163753420Y-93120000D01*
X163856580Y-93120000D01*
X163933707Y-93127597D01*
X163933707Y-93127597D01*
G37*
G36*
X166473707Y-93127597D02*
X166550836Y-93135193D01*
X166682787Y-93175220D01*
X166748763Y-93195233D01*
X166931172Y-93292733D01*
X167091054Y-93423946D01*
X167222267Y-93583828D01*
X167319767Y-93766237D01*
X167319767Y-93766238D01*
X167379807Y-93964164D01*
X167400080Y-94170000D01*
X167379807Y-94375836D01*
X167339780Y-94507787D01*
X167319767Y-94573763D01*
X167222267Y-94756172D01*
X167091054Y-94916054D01*
X166931172Y-95047267D01*
X166748763Y-95144767D01*
X166682787Y-95164780D01*
X166550836Y-95204807D01*
X166473707Y-95212404D01*
X166396580Y-95220000D01*
X166293420Y-95220000D01*
X166216293Y-95212404D01*
X166139164Y-95204807D01*
X166007213Y-95164780D01*
X165941237Y-95144767D01*
X165758828Y-95047267D01*
X165598946Y-94916054D01*
X165467733Y-94756172D01*
X165370233Y-94573763D01*
X165350220Y-94507787D01*
X165310193Y-94375836D01*
X165289920Y-94170000D01*
X165310193Y-93964164D01*
X165370233Y-93766238D01*
X165370233Y-93766237D01*
X165467733Y-93583828D01*
X165598946Y-93423946D01*
X165758828Y-93292733D01*
X165941237Y-93195233D01*
X166007213Y-93175220D01*
X166139164Y-93135193D01*
X166216293Y-93127597D01*
X166293420Y-93120000D01*
X166396580Y-93120000D01*
X166473707Y-93127597D01*
X166473707Y-93127597D01*
G37*
G36*
X169013707Y-93127597D02*
X169090836Y-93135193D01*
X169222787Y-93175220D01*
X169288763Y-93195233D01*
X169471172Y-93292733D01*
X169631054Y-93423946D01*
X169762267Y-93583828D01*
X169859767Y-93766237D01*
X169859767Y-93766238D01*
X169919807Y-93964164D01*
X169940080Y-94170000D01*
X169919807Y-94375836D01*
X169879780Y-94507787D01*
X169859767Y-94573763D01*
X169762267Y-94756172D01*
X169631054Y-94916054D01*
X169471172Y-95047267D01*
X169288763Y-95144767D01*
X169222787Y-95164780D01*
X169090836Y-95204807D01*
X169013707Y-95212404D01*
X168936580Y-95220000D01*
X168833420Y-95220000D01*
X168756293Y-95212404D01*
X168679164Y-95204807D01*
X168547213Y-95164780D01*
X168481237Y-95144767D01*
X168298828Y-95047267D01*
X168138946Y-94916054D01*
X168007733Y-94756172D01*
X167910233Y-94573763D01*
X167890220Y-94507787D01*
X167850193Y-94375836D01*
X167829920Y-94170000D01*
X167850193Y-93964164D01*
X167910233Y-93766238D01*
X167910233Y-93766237D01*
X168007733Y-93583828D01*
X168138946Y-93423946D01*
X168298828Y-93292733D01*
X168481237Y-93195233D01*
X168547213Y-93175220D01*
X168679164Y-93135193D01*
X168756293Y-93127597D01*
X168833420Y-93120000D01*
X168936580Y-93120000D01*
X169013707Y-93127597D01*
X169013707Y-93127597D01*
G37*
G36*
X171553707Y-93127597D02*
X171630836Y-93135193D01*
X171762787Y-93175220D01*
X171828763Y-93195233D01*
X172011172Y-93292733D01*
X172171054Y-93423946D01*
X172302267Y-93583828D01*
X172399767Y-93766237D01*
X172399767Y-93766238D01*
X172459807Y-93964164D01*
X172480080Y-94170000D01*
X172459807Y-94375836D01*
X172419780Y-94507787D01*
X172399767Y-94573763D01*
X172302267Y-94756172D01*
X172171054Y-94916054D01*
X172011172Y-95047267D01*
X171828763Y-95144767D01*
X171762787Y-95164780D01*
X171630836Y-95204807D01*
X171553707Y-95212404D01*
X171476580Y-95220000D01*
X171373420Y-95220000D01*
X171296293Y-95212404D01*
X171219164Y-95204807D01*
X171087213Y-95164780D01*
X171021237Y-95144767D01*
X170838828Y-95047267D01*
X170678946Y-94916054D01*
X170547733Y-94756172D01*
X170450233Y-94573763D01*
X170430220Y-94507787D01*
X170390193Y-94375836D01*
X170369920Y-94170000D01*
X170390193Y-93964164D01*
X170450233Y-93766238D01*
X170450233Y-93766237D01*
X170547733Y-93583828D01*
X170678946Y-93423946D01*
X170838828Y-93292733D01*
X171021237Y-93195233D01*
X171087213Y-93175220D01*
X171219164Y-93135193D01*
X171296293Y-93127597D01*
X171373420Y-93120000D01*
X171476580Y-93120000D01*
X171553707Y-93127597D01*
X171553707Y-93127597D01*
G37*
G36*
X174093707Y-93127597D02*
X174170836Y-93135193D01*
X174302787Y-93175220D01*
X174368763Y-93195233D01*
X174551172Y-93292733D01*
X174711054Y-93423946D01*
X174842267Y-93583828D01*
X174939767Y-93766237D01*
X174939767Y-93766238D01*
X174999807Y-93964164D01*
X175020080Y-94170000D01*
X174999807Y-94375836D01*
X174959780Y-94507787D01*
X174939767Y-94573763D01*
X174842267Y-94756172D01*
X174711054Y-94916054D01*
X174551172Y-95047267D01*
X174368763Y-95144767D01*
X174302787Y-95164780D01*
X174170836Y-95204807D01*
X174093707Y-95212404D01*
X174016580Y-95220000D01*
X173913420Y-95220000D01*
X173836293Y-95212404D01*
X173759164Y-95204807D01*
X173627213Y-95164780D01*
X173561237Y-95144767D01*
X173378828Y-95047267D01*
X173218946Y-94916054D01*
X173087733Y-94756172D01*
X172990233Y-94573763D01*
X172970220Y-94507787D01*
X172930193Y-94375836D01*
X172909920Y-94170000D01*
X172930193Y-93964164D01*
X172990233Y-93766238D01*
X172990233Y-93766237D01*
X173087733Y-93583828D01*
X173218946Y-93423946D01*
X173378828Y-93292733D01*
X173561237Y-93195233D01*
X173627213Y-93175220D01*
X173759164Y-93135193D01*
X173836293Y-93127597D01*
X173913420Y-93120000D01*
X174016580Y-93120000D01*
X174093707Y-93127597D01*
X174093707Y-93127597D01*
G37*
G36*
X176633707Y-93127597D02*
X176710836Y-93135193D01*
X176842787Y-93175220D01*
X176908763Y-93195233D01*
X177091172Y-93292733D01*
X177251054Y-93423946D01*
X177382267Y-93583828D01*
X177479767Y-93766237D01*
X177479767Y-93766238D01*
X177539807Y-93964164D01*
X177560080Y-94170000D01*
X177539807Y-94375836D01*
X177499780Y-94507787D01*
X177479767Y-94573763D01*
X177382267Y-94756172D01*
X177251054Y-94916054D01*
X177091172Y-95047267D01*
X176908763Y-95144767D01*
X176842787Y-95164780D01*
X176710836Y-95204807D01*
X176633707Y-95212404D01*
X176556580Y-95220000D01*
X176453420Y-95220000D01*
X176376293Y-95212404D01*
X176299164Y-95204807D01*
X176167213Y-95164780D01*
X176101237Y-95144767D01*
X175918828Y-95047267D01*
X175758946Y-94916054D01*
X175627733Y-94756172D01*
X175530233Y-94573763D01*
X175510220Y-94507787D01*
X175470193Y-94375836D01*
X175449920Y-94170000D01*
X175470193Y-93964164D01*
X175530233Y-93766238D01*
X175530233Y-93766237D01*
X175627733Y-93583828D01*
X175758946Y-93423946D01*
X175918828Y-93292733D01*
X176101237Y-93195233D01*
X176167213Y-93175220D01*
X176299164Y-93135193D01*
X176376293Y-93127597D01*
X176453420Y-93120000D01*
X176556580Y-93120000D01*
X176633707Y-93127597D01*
X176633707Y-93127597D01*
G37*
G36*
X179173707Y-93127597D02*
X179250836Y-93135193D01*
X179382787Y-93175220D01*
X179448763Y-93195233D01*
X179631172Y-93292733D01*
X179791054Y-93423946D01*
X179922267Y-93583828D01*
X180019767Y-93766237D01*
X180019767Y-93766238D01*
X180079807Y-93964164D01*
X180100080Y-94170000D01*
X180079807Y-94375836D01*
X180039780Y-94507787D01*
X180019767Y-94573763D01*
X179922267Y-94756172D01*
X179791054Y-94916054D01*
X179631172Y-95047267D01*
X179448763Y-95144767D01*
X179382787Y-95164780D01*
X179250836Y-95204807D01*
X179173707Y-95212404D01*
X179096580Y-95220000D01*
X178993420Y-95220000D01*
X178916293Y-95212404D01*
X178839164Y-95204807D01*
X178707213Y-95164780D01*
X178641237Y-95144767D01*
X178458828Y-95047267D01*
X178298946Y-94916054D01*
X178167733Y-94756172D01*
X178070233Y-94573763D01*
X178050220Y-94507787D01*
X178010193Y-94375836D01*
X177989920Y-94170000D01*
X178010193Y-93964164D01*
X178070233Y-93766238D01*
X178070233Y-93766237D01*
X178167733Y-93583828D01*
X178298946Y-93423946D01*
X178458828Y-93292733D01*
X178641237Y-93195233D01*
X178707213Y-93175220D01*
X178839164Y-93135193D01*
X178916293Y-93127597D01*
X178993420Y-93120000D01*
X179096580Y-93120000D01*
X179173707Y-93127597D01*
X179173707Y-93127597D01*
G37*
G36*
X181713707Y-93127597D02*
X181790836Y-93135193D01*
X181922787Y-93175220D01*
X181988763Y-93195233D01*
X182171172Y-93292733D01*
X182331054Y-93423946D01*
X182462267Y-93583828D01*
X182559767Y-93766237D01*
X182559767Y-93766238D01*
X182619807Y-93964164D01*
X182640080Y-94170000D01*
X182619807Y-94375836D01*
X182579780Y-94507787D01*
X182559767Y-94573763D01*
X182462267Y-94756172D01*
X182331054Y-94916054D01*
X182171172Y-95047267D01*
X181988763Y-95144767D01*
X181922787Y-95164780D01*
X181790836Y-95204807D01*
X181713707Y-95212404D01*
X181636580Y-95220000D01*
X181533420Y-95220000D01*
X181456293Y-95212404D01*
X181379164Y-95204807D01*
X181247213Y-95164780D01*
X181181237Y-95144767D01*
X180998828Y-95047267D01*
X180838946Y-94916054D01*
X180707733Y-94756172D01*
X180610233Y-94573763D01*
X180590220Y-94507787D01*
X180550193Y-94375836D01*
X180529920Y-94170000D01*
X180550193Y-93964164D01*
X180610233Y-93766238D01*
X180610233Y-93766237D01*
X180707733Y-93583828D01*
X180838946Y-93423946D01*
X180998828Y-93292733D01*
X181181237Y-93195233D01*
X181247213Y-93175220D01*
X181379164Y-93135193D01*
X181456293Y-93127597D01*
X181533420Y-93120000D01*
X181636580Y-93120000D01*
X181713707Y-93127597D01*
X181713707Y-93127597D01*
G37*
G36*
X157235000Y-95220000D02*
X155135000Y-95220000D01*
X155135000Y-93120000D01*
X157235000Y-93120000D01*
X157235000Y-95220000D01*
X157235000Y-95220000D01*
G37*
G36*
X143554000Y-93308400D02*
X140154000Y-93308400D01*
X140154000Y-91908400D01*
X143554000Y-91908400D01*
X143554000Y-93308400D01*
X143554000Y-93308400D01*
G37*
G36*
X148594000Y-93308400D02*
X145194000Y-93308400D01*
X145194000Y-91908400D01*
X148594000Y-91908400D01*
X148594000Y-93308400D01*
X148594000Y-93308400D01*
G37*
G36*
X144521738Y-90705053D02*
X144563598Y-90713379D01*
X144598245Y-90727730D01*
X144681890Y-90762377D01*
X144788354Y-90833514D01*
X144878886Y-90924046D01*
X144950023Y-91030510D01*
X144999021Y-91148803D01*
X145024000Y-91274379D01*
X145024000Y-91402421D01*
X144999021Y-91527997D01*
X144950023Y-91646290D01*
X144878886Y-91752754D01*
X144788354Y-91843286D01*
X144681890Y-91914423D01*
X144598245Y-91949070D01*
X144563598Y-91963421D01*
X144521738Y-91971747D01*
X144438021Y-91988400D01*
X144309979Y-91988400D01*
X144226262Y-91971747D01*
X144184402Y-91963421D01*
X144149755Y-91949070D01*
X144066110Y-91914423D01*
X143959646Y-91843286D01*
X143869114Y-91752754D01*
X143797977Y-91646290D01*
X143748979Y-91527997D01*
X143724000Y-91402421D01*
X143724000Y-91274379D01*
X143748979Y-91148803D01*
X143797977Y-91030510D01*
X143869114Y-90924046D01*
X143959646Y-90833514D01*
X144066110Y-90762377D01*
X144149755Y-90727730D01*
X144184402Y-90713379D01*
X144226262Y-90705053D01*
X144309979Y-90688400D01*
X144438021Y-90688400D01*
X144521738Y-90705053D01*
X144521738Y-90705053D01*
G37*
G36*
X148594000Y-90768400D02*
X145194000Y-90768400D01*
X145194000Y-89368400D01*
X148594000Y-89368400D01*
X148594000Y-90768400D01*
X148594000Y-90768400D01*
G37*
G36*
X143554000Y-90768400D02*
X140154000Y-90768400D01*
X140154000Y-89368400D01*
X143554000Y-89368400D01*
X143554000Y-90768400D01*
X143554000Y-90768400D01*
G37*
G36*
X144521738Y-88165053D02*
X144563598Y-88173379D01*
X144598245Y-88187730D01*
X144681890Y-88222377D01*
X144788354Y-88293514D01*
X144878886Y-88384046D01*
X144950023Y-88490510D01*
X144999021Y-88608803D01*
X145024000Y-88734379D01*
X145024000Y-88862421D01*
X144999021Y-88987997D01*
X144950023Y-89106290D01*
X144878886Y-89212754D01*
X144788354Y-89303286D01*
X144681890Y-89374423D01*
X144598245Y-89409070D01*
X144563598Y-89423421D01*
X144521738Y-89431747D01*
X144438021Y-89448400D01*
X144309979Y-89448400D01*
X144226262Y-89431747D01*
X144184402Y-89423421D01*
X144149755Y-89409070D01*
X144066110Y-89374423D01*
X143959646Y-89303286D01*
X143869114Y-89212754D01*
X143797977Y-89106290D01*
X143748979Y-88987997D01*
X143724000Y-88862421D01*
X143724000Y-88734379D01*
X143748979Y-88608803D01*
X143797977Y-88490510D01*
X143869114Y-88384046D01*
X143959646Y-88293514D01*
X144066110Y-88222377D01*
X144149755Y-88187730D01*
X144184402Y-88173379D01*
X144226262Y-88165053D01*
X144309979Y-88148400D01*
X144438021Y-88148400D01*
X144521738Y-88165053D01*
X144521738Y-88165053D01*
G37*
G36*
X148594000Y-88228400D02*
X145194000Y-88228400D01*
X145194000Y-86828400D01*
X148594000Y-86828400D01*
X148594000Y-88228400D01*
X148594000Y-88228400D01*
G37*
G36*
X143554000Y-88228400D02*
X140154000Y-88228400D01*
X140154000Y-86828400D01*
X143554000Y-86828400D01*
X143554000Y-88228400D01*
X143554000Y-88228400D01*
G37*
G36*
X148594000Y-85688400D02*
X145194000Y-85688400D01*
X145194000Y-84288400D01*
X148594000Y-84288400D01*
X148594000Y-85688400D01*
X148594000Y-85688400D01*
G37*
G36*
X143554000Y-85688400D02*
X140154000Y-85688400D01*
X140154000Y-84288400D01*
X143554000Y-84288400D01*
X143554000Y-85688400D01*
X143554000Y-85688400D01*
G37*
G36*
X148594000Y-83148400D02*
X145194000Y-83148400D01*
X145194000Y-81748400D01*
X148594000Y-81748400D01*
X148594000Y-83148400D01*
X148594000Y-83148400D01*
G37*
G36*
X143554000Y-83148400D02*
X140154000Y-83148400D01*
X140154000Y-81748400D01*
X143554000Y-81748400D01*
X143554000Y-83148400D01*
X143554000Y-83148400D01*
G37*
G36*
X143554000Y-80608400D02*
X140154000Y-80608400D01*
X140154000Y-79208400D01*
X143554000Y-79208400D01*
X143554000Y-80608400D01*
X143554000Y-80608400D01*
G37*
G36*
X148594000Y-80608400D02*
X145194000Y-80608400D01*
X145194000Y-79208400D01*
X148594000Y-79208400D01*
X148594000Y-80608400D01*
X148594000Y-80608400D01*
G37*
G36*
X148594000Y-78068400D02*
X145194000Y-78068400D01*
X145194000Y-76668400D01*
X148594000Y-76668400D01*
X148594000Y-78068400D01*
X148594000Y-78068400D01*
G37*
G36*
X143554000Y-78068400D02*
X140154000Y-78068400D01*
X140154000Y-76668400D01*
X143554000Y-76668400D01*
X143554000Y-78068400D01*
X143554000Y-78068400D01*
G37*
G36*
X148594000Y-75528400D02*
X145194000Y-75528400D01*
X145194000Y-74128400D01*
X148594000Y-74128400D01*
X148594000Y-75528400D01*
X148594000Y-75528400D01*
G37*
G36*
X143554000Y-75528400D02*
X140154000Y-75528400D01*
X140154000Y-74128400D01*
X143554000Y-74128400D01*
X143554000Y-75528400D01*
X143554000Y-75528400D01*
G37*
G36*
X148594000Y-72988400D02*
X145194000Y-72988400D01*
X145194000Y-71588400D01*
X148594000Y-71588400D01*
X148594000Y-72988400D01*
X148594000Y-72988400D01*
G37*
G36*
X143554000Y-72988400D02*
X140154000Y-72988400D01*
X140154000Y-71588400D01*
X143554000Y-71588400D01*
X143554000Y-72988400D01*
X143554000Y-72988400D01*
G37*
G36*
X148594000Y-70448400D02*
X145194000Y-70448400D01*
X145194000Y-69048400D01*
X148594000Y-69048400D01*
X148594000Y-70448400D01*
X148594000Y-70448400D01*
G37*
G36*
X143554000Y-70448400D02*
X140154000Y-70448400D01*
X140154000Y-69048400D01*
X143554000Y-69048400D01*
X143554000Y-70448400D01*
X143554000Y-70448400D01*
G37*
G36*
X148594000Y-67908400D02*
X145194000Y-67908400D01*
X145194000Y-66508400D01*
X148594000Y-66508400D01*
X148594000Y-67908400D01*
X148594000Y-67908400D01*
G37*
G36*
X143554000Y-67908400D02*
X140154000Y-67908400D01*
X140154000Y-66508400D01*
X143554000Y-66508400D01*
X143554000Y-67908400D01*
X143554000Y-67908400D01*
G37*
G36*
X143554000Y-65368400D02*
X140154000Y-65368400D01*
X140154000Y-63968400D01*
X143554000Y-63968400D01*
X143554000Y-65368400D01*
X143554000Y-65368400D01*
G37*
G36*
X148594000Y-65368400D02*
X145194000Y-65368400D01*
X145194000Y-63968400D01*
X148594000Y-63968400D01*
X148594000Y-65368400D01*
X148594000Y-65368400D01*
G37*
G36*
X148594000Y-62828400D02*
X145194000Y-62828400D01*
X145194000Y-61428400D01*
X148594000Y-61428400D01*
X148594000Y-62828400D01*
X148594000Y-62828400D01*
G37*
G36*
X143554000Y-62828400D02*
X140154000Y-62828400D01*
X140154000Y-61428400D01*
X143554000Y-61428400D01*
X143554000Y-62828400D01*
X143554000Y-62828400D01*
G37*
G36*
X144521738Y-60225053D02*
X144563598Y-60233379D01*
X144598245Y-60247730D01*
X144681890Y-60282377D01*
X144788354Y-60353514D01*
X144878886Y-60444046D01*
X144950023Y-60550510D01*
X144999021Y-60668803D01*
X145024000Y-60794379D01*
X145024000Y-60922421D01*
X144999021Y-61047997D01*
X144950023Y-61166290D01*
X144878886Y-61272754D01*
X144788354Y-61363286D01*
X144681890Y-61434423D01*
X144598245Y-61469070D01*
X144563598Y-61483421D01*
X144521738Y-61491747D01*
X144438021Y-61508400D01*
X144309979Y-61508400D01*
X144226262Y-61491747D01*
X144184402Y-61483421D01*
X144149755Y-61469070D01*
X144066110Y-61434423D01*
X143959646Y-61363286D01*
X143869114Y-61272754D01*
X143797977Y-61166290D01*
X143748979Y-61047997D01*
X143724000Y-60922421D01*
X143724000Y-60794379D01*
X143748979Y-60668803D01*
X143797977Y-60550510D01*
X143869114Y-60444046D01*
X143959646Y-60353514D01*
X144066110Y-60282377D01*
X144149755Y-60247730D01*
X144184402Y-60233379D01*
X144226262Y-60225053D01*
X144309979Y-60208400D01*
X144438021Y-60208400D01*
X144521738Y-60225053D01*
X144521738Y-60225053D01*
G37*
G36*
X148594000Y-60288400D02*
X145194000Y-60288400D01*
X145194000Y-58888400D01*
X148594000Y-58888400D01*
X148594000Y-60288400D01*
X148594000Y-60288400D01*
G37*
G36*
X143554000Y-60288400D02*
X140154000Y-60288400D01*
X140154000Y-58888400D01*
X143554000Y-58888400D01*
X143554000Y-60288400D01*
X143554000Y-60288400D01*
G37*
G36*
X144521738Y-57685053D02*
X144563598Y-57693379D01*
X144598245Y-57707730D01*
X144681890Y-57742377D01*
X144788354Y-57813514D01*
X144878886Y-57904046D01*
X144950023Y-58010510D01*
X144999021Y-58128803D01*
X145024000Y-58254379D01*
X145024000Y-58382421D01*
X144999021Y-58507997D01*
X144950023Y-58626290D01*
X144878886Y-58732754D01*
X144788354Y-58823286D01*
X144681890Y-58894423D01*
X144598245Y-58929070D01*
X144563598Y-58943421D01*
X144521738Y-58951747D01*
X144438021Y-58968400D01*
X144309979Y-58968400D01*
X144226262Y-58951747D01*
X144184402Y-58943421D01*
X144149755Y-58929070D01*
X144066110Y-58894423D01*
X143959646Y-58823286D01*
X143869114Y-58732754D01*
X143797977Y-58626290D01*
X143748979Y-58507997D01*
X143724000Y-58382421D01*
X143724000Y-58254379D01*
X143748979Y-58128803D01*
X143797977Y-58010510D01*
X143869114Y-57904046D01*
X143959646Y-57813514D01*
X144066110Y-57742377D01*
X144149755Y-57707730D01*
X144184402Y-57693379D01*
X144226262Y-57685053D01*
X144309979Y-57668400D01*
X144438021Y-57668400D01*
X144521738Y-57685053D01*
X144521738Y-57685053D01*
G37*
G36*
X148594000Y-57748400D02*
X145194000Y-57748400D01*
X145194000Y-56348400D01*
X148594000Y-56348400D01*
X148594000Y-57748400D01*
X148594000Y-57748400D01*
G37*
G36*
X143554000Y-57748400D02*
X140154000Y-57748400D01*
X140154000Y-56348400D01*
X143554000Y-56348400D01*
X143554000Y-57748400D01*
X143554000Y-57748400D01*
G37*
G36*
X179173707Y-55027596D02*
X179250836Y-55035193D01*
X179382787Y-55075220D01*
X179448763Y-55095233D01*
X179631172Y-55192733D01*
X179791054Y-55323946D01*
X179922267Y-55483828D01*
X180019767Y-55666237D01*
X180019767Y-55666238D01*
X180079807Y-55864164D01*
X180100080Y-56070000D01*
X180079807Y-56275836D01*
X180057795Y-56348400D01*
X180019767Y-56473763D01*
X179922267Y-56656172D01*
X179791054Y-56816054D01*
X179631172Y-56947267D01*
X179448763Y-57044767D01*
X179382787Y-57064780D01*
X179250836Y-57104807D01*
X179173707Y-57112404D01*
X179096580Y-57120000D01*
X178993420Y-57120000D01*
X178916293Y-57112404D01*
X178839164Y-57104807D01*
X178707213Y-57064780D01*
X178641237Y-57044767D01*
X178458828Y-56947267D01*
X178298946Y-56816054D01*
X178167733Y-56656172D01*
X178070233Y-56473763D01*
X178032205Y-56348400D01*
X178010193Y-56275836D01*
X177989920Y-56070000D01*
X178010193Y-55864164D01*
X178070233Y-55666238D01*
X178070233Y-55666237D01*
X178167733Y-55483828D01*
X178298946Y-55323946D01*
X178458828Y-55192733D01*
X178641237Y-55095233D01*
X178707213Y-55075220D01*
X178839164Y-55035193D01*
X178916293Y-55027596D01*
X178993420Y-55020000D01*
X179096580Y-55020000D01*
X179173707Y-55027596D01*
X179173707Y-55027596D01*
G37*
G36*
X182635000Y-57120000D02*
X180535000Y-57120000D01*
X180535000Y-55020000D01*
X182635000Y-55020000D01*
X182635000Y-57120000D01*
X182635000Y-57120000D01*
G37*
G36*
X158853707Y-55027596D02*
X158930836Y-55035193D01*
X159062787Y-55075220D01*
X159128763Y-55095233D01*
X159311172Y-55192733D01*
X159471054Y-55323946D01*
X159602267Y-55483828D01*
X159699767Y-55666237D01*
X159699767Y-55666238D01*
X159759807Y-55864164D01*
X159780080Y-56070000D01*
X159759807Y-56275836D01*
X159737795Y-56348400D01*
X159699767Y-56473763D01*
X159602267Y-56656172D01*
X159471054Y-56816054D01*
X159311172Y-56947267D01*
X159128763Y-57044767D01*
X159062787Y-57064780D01*
X158930836Y-57104807D01*
X158853707Y-57112404D01*
X158776580Y-57120000D01*
X158673420Y-57120000D01*
X158596293Y-57112404D01*
X158519164Y-57104807D01*
X158387213Y-57064780D01*
X158321237Y-57044767D01*
X158138828Y-56947267D01*
X157978946Y-56816054D01*
X157847733Y-56656172D01*
X157750233Y-56473763D01*
X157712205Y-56348400D01*
X157690193Y-56275836D01*
X157669920Y-56070000D01*
X157690193Y-55864164D01*
X157750233Y-55666238D01*
X157750233Y-55666237D01*
X157847733Y-55483828D01*
X157978946Y-55323946D01*
X158138828Y-55192733D01*
X158321237Y-55095233D01*
X158387213Y-55075220D01*
X158519164Y-55035193D01*
X158596293Y-55027596D01*
X158673420Y-55020000D01*
X158776580Y-55020000D01*
X158853707Y-55027596D01*
X158853707Y-55027596D01*
G37*
G36*
X156313707Y-55027596D02*
X156390836Y-55035193D01*
X156522787Y-55075220D01*
X156588763Y-55095233D01*
X156771172Y-55192733D01*
X156931054Y-55323946D01*
X157062267Y-55483828D01*
X157159767Y-55666237D01*
X157159767Y-55666238D01*
X157219807Y-55864164D01*
X157240080Y-56070000D01*
X157219807Y-56275836D01*
X157197795Y-56348400D01*
X157159767Y-56473763D01*
X157062267Y-56656172D01*
X156931054Y-56816054D01*
X156771172Y-56947267D01*
X156588763Y-57044767D01*
X156522787Y-57064780D01*
X156390836Y-57104807D01*
X156313707Y-57112404D01*
X156236580Y-57120000D01*
X156133420Y-57120000D01*
X156056293Y-57112404D01*
X155979164Y-57104807D01*
X155847213Y-57064780D01*
X155781237Y-57044767D01*
X155598828Y-56947267D01*
X155438946Y-56816054D01*
X155307733Y-56656172D01*
X155210233Y-56473763D01*
X155172205Y-56348400D01*
X155150193Y-56275836D01*
X155129920Y-56070000D01*
X155150193Y-55864164D01*
X155210233Y-55666238D01*
X155210233Y-55666237D01*
X155307733Y-55483828D01*
X155438946Y-55323946D01*
X155598828Y-55192733D01*
X155781237Y-55095233D01*
X155847213Y-55075220D01*
X155979164Y-55035193D01*
X156056293Y-55027596D01*
X156133420Y-55020000D01*
X156236580Y-55020000D01*
X156313707Y-55027596D01*
X156313707Y-55027596D01*
G37*
G36*
X161393707Y-55027596D02*
X161470836Y-55035193D01*
X161602787Y-55075220D01*
X161668763Y-55095233D01*
X161851172Y-55192733D01*
X162011054Y-55323946D01*
X162142267Y-55483828D01*
X162239767Y-55666237D01*
X162239767Y-55666238D01*
X162299807Y-55864164D01*
X162320080Y-56070000D01*
X162299807Y-56275836D01*
X162277795Y-56348400D01*
X162239767Y-56473763D01*
X162142267Y-56656172D01*
X162011054Y-56816054D01*
X161851172Y-56947267D01*
X161668763Y-57044767D01*
X161602787Y-57064780D01*
X161470836Y-57104807D01*
X161393707Y-57112404D01*
X161316580Y-57120000D01*
X161213420Y-57120000D01*
X161136293Y-57112404D01*
X161059164Y-57104807D01*
X160927213Y-57064780D01*
X160861237Y-57044767D01*
X160678828Y-56947267D01*
X160518946Y-56816054D01*
X160387733Y-56656172D01*
X160290233Y-56473763D01*
X160252205Y-56348400D01*
X160230193Y-56275836D01*
X160209920Y-56070000D01*
X160230193Y-55864164D01*
X160290233Y-55666238D01*
X160290233Y-55666237D01*
X160387733Y-55483828D01*
X160518946Y-55323946D01*
X160678828Y-55192733D01*
X160861237Y-55095233D01*
X160927213Y-55075220D01*
X161059164Y-55035193D01*
X161136293Y-55027596D01*
X161213420Y-55020000D01*
X161316580Y-55020000D01*
X161393707Y-55027596D01*
X161393707Y-55027596D01*
G37*
G36*
X163933707Y-55027596D02*
X164010836Y-55035193D01*
X164142787Y-55075220D01*
X164208763Y-55095233D01*
X164391172Y-55192733D01*
X164551054Y-55323946D01*
X164682267Y-55483828D01*
X164779767Y-55666237D01*
X164779767Y-55666238D01*
X164839807Y-55864164D01*
X164860080Y-56070000D01*
X164839807Y-56275836D01*
X164817795Y-56348400D01*
X164779767Y-56473763D01*
X164682267Y-56656172D01*
X164551054Y-56816054D01*
X164391172Y-56947267D01*
X164208763Y-57044767D01*
X164142787Y-57064780D01*
X164010836Y-57104807D01*
X163933707Y-57112404D01*
X163856580Y-57120000D01*
X163753420Y-57120000D01*
X163676293Y-57112404D01*
X163599164Y-57104807D01*
X163467213Y-57064780D01*
X163401237Y-57044767D01*
X163218828Y-56947267D01*
X163058946Y-56816054D01*
X162927733Y-56656172D01*
X162830233Y-56473763D01*
X162792205Y-56348400D01*
X162770193Y-56275836D01*
X162749920Y-56070000D01*
X162770193Y-55864164D01*
X162830233Y-55666238D01*
X162830233Y-55666237D01*
X162927733Y-55483828D01*
X163058946Y-55323946D01*
X163218828Y-55192733D01*
X163401237Y-55095233D01*
X163467213Y-55075220D01*
X163599164Y-55035193D01*
X163676293Y-55027596D01*
X163753420Y-55020000D01*
X163856580Y-55020000D01*
X163933707Y-55027596D01*
X163933707Y-55027596D01*
G37*
G36*
X166473707Y-55027596D02*
X166550836Y-55035193D01*
X166682787Y-55075220D01*
X166748763Y-55095233D01*
X166931172Y-55192733D01*
X167091054Y-55323946D01*
X167222267Y-55483828D01*
X167319767Y-55666237D01*
X167319767Y-55666238D01*
X167379807Y-55864164D01*
X167400080Y-56070000D01*
X167379807Y-56275836D01*
X167357795Y-56348400D01*
X167319767Y-56473763D01*
X167222267Y-56656172D01*
X167091054Y-56816054D01*
X166931172Y-56947267D01*
X166748763Y-57044767D01*
X166682787Y-57064780D01*
X166550836Y-57104807D01*
X166473707Y-57112404D01*
X166396580Y-57120000D01*
X166293420Y-57120000D01*
X166216293Y-57112404D01*
X166139164Y-57104807D01*
X166007213Y-57064780D01*
X165941237Y-57044767D01*
X165758828Y-56947267D01*
X165598946Y-56816054D01*
X165467733Y-56656172D01*
X165370233Y-56473763D01*
X165332205Y-56348400D01*
X165310193Y-56275836D01*
X165289920Y-56070000D01*
X165310193Y-55864164D01*
X165370233Y-55666238D01*
X165370233Y-55666237D01*
X165467733Y-55483828D01*
X165598946Y-55323946D01*
X165758828Y-55192733D01*
X165941237Y-55095233D01*
X166007213Y-55075220D01*
X166139164Y-55035193D01*
X166216293Y-55027596D01*
X166293420Y-55020000D01*
X166396580Y-55020000D01*
X166473707Y-55027596D01*
X166473707Y-55027596D01*
G37*
G36*
X169013707Y-55027596D02*
X169090836Y-55035193D01*
X169222787Y-55075220D01*
X169288763Y-55095233D01*
X169471172Y-55192733D01*
X169631054Y-55323946D01*
X169762267Y-55483828D01*
X169859767Y-55666237D01*
X169859767Y-55666238D01*
X169919807Y-55864164D01*
X169940080Y-56070000D01*
X169919807Y-56275836D01*
X169897795Y-56348400D01*
X169859767Y-56473763D01*
X169762267Y-56656172D01*
X169631054Y-56816054D01*
X169471172Y-56947267D01*
X169288763Y-57044767D01*
X169222787Y-57064780D01*
X169090836Y-57104807D01*
X169013707Y-57112404D01*
X168936580Y-57120000D01*
X168833420Y-57120000D01*
X168756293Y-57112404D01*
X168679164Y-57104807D01*
X168547213Y-57064780D01*
X168481237Y-57044767D01*
X168298828Y-56947267D01*
X168138946Y-56816054D01*
X168007733Y-56656172D01*
X167910233Y-56473763D01*
X167872205Y-56348400D01*
X167850193Y-56275836D01*
X167829920Y-56070000D01*
X167850193Y-55864164D01*
X167910233Y-55666238D01*
X167910233Y-55666237D01*
X168007733Y-55483828D01*
X168138946Y-55323946D01*
X168298828Y-55192733D01*
X168481237Y-55095233D01*
X168547213Y-55075220D01*
X168679164Y-55035193D01*
X168756293Y-55027596D01*
X168833420Y-55020000D01*
X168936580Y-55020000D01*
X169013707Y-55027596D01*
X169013707Y-55027596D01*
G37*
G36*
X171553707Y-55027596D02*
X171630836Y-55035193D01*
X171762787Y-55075220D01*
X171828763Y-55095233D01*
X172011172Y-55192733D01*
X172171054Y-55323946D01*
X172302267Y-55483828D01*
X172399767Y-55666237D01*
X172399767Y-55666238D01*
X172459807Y-55864164D01*
X172480080Y-56070000D01*
X172459807Y-56275836D01*
X172437795Y-56348400D01*
X172399767Y-56473763D01*
X172302267Y-56656172D01*
X172171054Y-56816054D01*
X172011172Y-56947267D01*
X171828763Y-57044767D01*
X171762787Y-57064780D01*
X171630836Y-57104807D01*
X171553707Y-57112404D01*
X171476580Y-57120000D01*
X171373420Y-57120000D01*
X171296293Y-57112404D01*
X171219164Y-57104807D01*
X171087213Y-57064780D01*
X171021237Y-57044767D01*
X170838828Y-56947267D01*
X170678946Y-56816054D01*
X170547733Y-56656172D01*
X170450233Y-56473763D01*
X170412205Y-56348400D01*
X170390193Y-56275836D01*
X170369920Y-56070000D01*
X170390193Y-55864164D01*
X170450233Y-55666238D01*
X170450233Y-55666237D01*
X170547733Y-55483828D01*
X170678946Y-55323946D01*
X170838828Y-55192733D01*
X171021237Y-55095233D01*
X171087213Y-55075220D01*
X171219164Y-55035193D01*
X171296293Y-55027596D01*
X171373420Y-55020000D01*
X171476580Y-55020000D01*
X171553707Y-55027596D01*
X171553707Y-55027596D01*
G37*
G36*
X174093707Y-55027596D02*
X174170836Y-55035193D01*
X174302787Y-55075220D01*
X174368763Y-55095233D01*
X174551172Y-55192733D01*
X174711054Y-55323946D01*
X174842267Y-55483828D01*
X174939767Y-55666237D01*
X174939767Y-55666238D01*
X174999807Y-55864164D01*
X175020080Y-56070000D01*
X174999807Y-56275836D01*
X174977795Y-56348400D01*
X174939767Y-56473763D01*
X174842267Y-56656172D01*
X174711054Y-56816054D01*
X174551172Y-56947267D01*
X174368763Y-57044767D01*
X174302787Y-57064780D01*
X174170836Y-57104807D01*
X174093707Y-57112404D01*
X174016580Y-57120000D01*
X173913420Y-57120000D01*
X173836293Y-57112404D01*
X173759164Y-57104807D01*
X173627213Y-57064780D01*
X173561237Y-57044767D01*
X173378828Y-56947267D01*
X173218946Y-56816054D01*
X173087733Y-56656172D01*
X172990233Y-56473763D01*
X172952205Y-56348400D01*
X172930193Y-56275836D01*
X172909920Y-56070000D01*
X172930193Y-55864164D01*
X172990233Y-55666238D01*
X172990233Y-55666237D01*
X173087733Y-55483828D01*
X173218946Y-55323946D01*
X173378828Y-55192733D01*
X173561237Y-55095233D01*
X173627213Y-55075220D01*
X173759164Y-55035193D01*
X173836293Y-55027596D01*
X173913420Y-55020000D01*
X174016580Y-55020000D01*
X174093707Y-55027596D01*
X174093707Y-55027596D01*
G37*
G36*
X176633707Y-55027596D02*
X176710836Y-55035193D01*
X176842787Y-55075220D01*
X176908763Y-55095233D01*
X177091172Y-55192733D01*
X177251054Y-55323946D01*
X177382267Y-55483828D01*
X177479767Y-55666237D01*
X177479767Y-55666238D01*
X177539807Y-55864164D01*
X177560080Y-56070000D01*
X177539807Y-56275836D01*
X177517795Y-56348400D01*
X177479767Y-56473763D01*
X177382267Y-56656172D01*
X177251054Y-56816054D01*
X177091172Y-56947267D01*
X176908763Y-57044767D01*
X176842787Y-57064780D01*
X176710836Y-57104807D01*
X176633707Y-57112404D01*
X176556580Y-57120000D01*
X176453420Y-57120000D01*
X176376293Y-57112404D01*
X176299164Y-57104807D01*
X176167213Y-57064780D01*
X176101237Y-57044767D01*
X175918828Y-56947267D01*
X175758946Y-56816054D01*
X175627733Y-56656172D01*
X175530233Y-56473763D01*
X175492205Y-56348400D01*
X175470193Y-56275836D01*
X175449920Y-56070000D01*
X175470193Y-55864164D01*
X175530233Y-55666238D01*
X175530233Y-55666237D01*
X175627733Y-55483828D01*
X175758946Y-55323946D01*
X175918828Y-55192733D01*
X176101237Y-55095233D01*
X176167213Y-55075220D01*
X176299164Y-55035193D01*
X176376293Y-55027596D01*
X176453420Y-55020000D01*
X176556580Y-55020000D01*
X176633707Y-55027596D01*
X176633707Y-55027596D01*
G37*
G36*
X197409122Y-51246115D02*
X197525041Y-51269173D01*
X197852620Y-51404861D01*
X198143511Y-51599228D01*
X198147436Y-51601851D01*
X198398149Y-51852564D01*
X198398151Y-51852567D01*
X198595139Y-52147380D01*
X198730827Y-52474959D01*
X198800000Y-52822716D01*
X198800000Y-53177284D01*
X198730827Y-53525041D01*
X198595139Y-53852620D01*
X198400772Y-54143511D01*
X198398149Y-54147436D01*
X198147436Y-54398149D01*
X198147433Y-54398151D01*
X197852620Y-54595139D01*
X197525041Y-54730827D01*
X197409122Y-54753885D01*
X197177286Y-54800000D01*
X196822714Y-54800000D01*
X196590878Y-54753885D01*
X196474959Y-54730827D01*
X196147380Y-54595139D01*
X195852567Y-54398151D01*
X195852564Y-54398149D01*
X195601851Y-54147436D01*
X195599228Y-54143511D01*
X195404861Y-53852620D01*
X195269173Y-53525041D01*
X195200000Y-53177284D01*
X195200000Y-52822716D01*
X195269173Y-52474959D01*
X195404861Y-52147380D01*
X195601849Y-51852567D01*
X195601851Y-51852564D01*
X195852564Y-51601851D01*
X195856489Y-51599228D01*
X196147380Y-51404861D01*
X196474959Y-51269173D01*
X196590878Y-51246115D01*
X196822714Y-51200000D01*
X197177286Y-51200000D01*
X197409122Y-51246115D01*
X197409122Y-51246115D01*
G37*
G36*
X147409122Y-51246115D02*
X147525041Y-51269173D01*
X147852620Y-51404861D01*
X148143511Y-51599228D01*
X148147436Y-51601851D01*
X148398149Y-51852564D01*
X148398151Y-51852567D01*
X148595139Y-52147380D01*
X148730827Y-52474959D01*
X148800000Y-52822716D01*
X148800000Y-53177284D01*
X148730827Y-53525041D01*
X148595139Y-53852620D01*
X148400772Y-54143511D01*
X148398149Y-54147436D01*
X148147436Y-54398149D01*
X148147433Y-54398151D01*
X147852620Y-54595139D01*
X147525041Y-54730827D01*
X147409122Y-54753885D01*
X147177286Y-54800000D01*
X146822714Y-54800000D01*
X146590878Y-54753885D01*
X146474959Y-54730827D01*
X146147380Y-54595139D01*
X145852567Y-54398151D01*
X145852564Y-54398149D01*
X145601851Y-54147436D01*
X145599228Y-54143511D01*
X145404861Y-53852620D01*
X145269173Y-53525041D01*
X145200000Y-53177284D01*
X145200000Y-52822716D01*
X145269173Y-52474959D01*
X145404861Y-52147380D01*
X145601849Y-51852567D01*
X145601851Y-51852564D01*
X145852564Y-51601851D01*
X145856489Y-51599228D01*
X146147380Y-51404861D01*
X146474959Y-51269173D01*
X146590878Y-51246115D01*
X146822714Y-51200000D01*
X147177286Y-51200000D01*
X147409122Y-51246115D01*
X147409122Y-51246115D01*
G37*
G36*
X103409122Y-51246115D02*
X103525041Y-51269173D01*
X103852620Y-51404861D01*
X104143511Y-51599228D01*
X104147436Y-51601851D01*
X104398149Y-51852564D01*
X104398151Y-51852567D01*
X104595139Y-52147380D01*
X104730827Y-52474959D01*
X104800000Y-52822716D01*
X104800000Y-53177284D01*
X104730827Y-53525041D01*
X104595139Y-53852620D01*
X104400772Y-54143511D01*
X104398149Y-54147436D01*
X104147436Y-54398149D01*
X104147433Y-54398151D01*
X103852620Y-54595139D01*
X103525041Y-54730827D01*
X103409122Y-54753885D01*
X103177286Y-54800000D01*
X102822714Y-54800000D01*
X102590878Y-54753885D01*
X102474959Y-54730827D01*
X102147380Y-54595139D01*
X101852567Y-54398151D01*
X101852564Y-54398149D01*
X101601851Y-54147436D01*
X101599228Y-54143511D01*
X101404861Y-53852620D01*
X101269173Y-53525041D01*
X101200000Y-53177284D01*
X101200000Y-52822716D01*
X101269173Y-52474959D01*
X101404861Y-52147380D01*
X101601849Y-51852567D01*
X101601851Y-51852564D01*
X101852564Y-51601851D01*
X101856489Y-51599228D01*
X102147380Y-51404861D01*
X102474959Y-51269173D01*
X102590878Y-51246115D01*
X102822714Y-51200000D01*
X103177286Y-51200000D01*
X103409122Y-51246115D01*
X103409122Y-51246115D01*
G37*
G36*
X107379196Y-51749958D02*
X107615780Y-51847954D01*
X107828705Y-51990226D01*
X108009774Y-52171295D01*
X108152046Y-52384220D01*
X108250042Y-52620804D01*
X108300000Y-52871960D01*
X108300000Y-53128040D01*
X108250042Y-53379196D01*
X108152046Y-53615780D01*
X108009774Y-53828705D01*
X107828705Y-54009774D01*
X107615780Y-54152046D01*
X107379196Y-54250042D01*
X107128040Y-54300000D01*
X106871960Y-54300000D01*
X106620804Y-54250042D01*
X106384220Y-54152046D01*
X106171295Y-54009774D01*
X105990226Y-53828705D01*
X105847954Y-53615780D01*
X105749958Y-53379196D01*
X105700000Y-53128040D01*
X105700000Y-52871960D01*
X105749958Y-52620804D01*
X105847954Y-52384220D01*
X105990226Y-52171295D01*
X106171295Y-51990226D01*
X106384220Y-51847954D01*
X106620804Y-51749958D01*
X106871960Y-51700000D01*
X107128040Y-51700000D01*
X107379196Y-51749958D01*
X107379196Y-51749958D01*
G37*
G36*
X143379196Y-51749958D02*
X143615780Y-51847954D01*
X143828705Y-51990226D01*
X144009774Y-52171295D01*
X144152046Y-52384220D01*
X144250042Y-52620804D01*
X144300000Y-52871960D01*
X144300000Y-53128040D01*
X144250042Y-53379196D01*
X144152046Y-53615780D01*
X144009774Y-53828705D01*
X143828705Y-54009774D01*
X143615780Y-54152046D01*
X143379196Y-54250042D01*
X143128040Y-54300000D01*
X142871960Y-54300000D01*
X142620804Y-54250042D01*
X142384220Y-54152046D01*
X142171295Y-54009774D01*
X141990226Y-53828705D01*
X141847954Y-53615780D01*
X141749958Y-53379196D01*
X141700000Y-53128040D01*
X141700000Y-52871960D01*
X141749958Y-52620804D01*
X141847954Y-52384220D01*
X141990226Y-52171295D01*
X142171295Y-51990226D01*
X142384220Y-51847954D01*
X142620804Y-51749958D01*
X142871960Y-51700000D01*
X143128040Y-51700000D01*
X143379196Y-51749958D01*
X143379196Y-51749958D01*
G37*
M02*
