G04 #@! TF.GenerationSoftware,KiCad,Pcbnew,5.0.2-bee76a0~70~ubuntu18.04.1*
G04 #@! TF.CreationDate,2018-12-02T18:05:12+09:00*
G04 #@! TF.ProjectId,M5StackSideBB,4d355374-6163-46b5-9369-646542422e6b,rev?*
G04 #@! TF.SameCoordinates,Original*
G04 #@! TF.FileFunction,Copper,L1,Top*
G04 #@! TF.FilePolarity,Positive*
%FSLAX46Y46*%
G04 Gerber Fmt 4.6, Leading zero omitted, Abs format (unit mm)*
G04 Created by KiCad (PCBNEW 5.0.2-bee76a0~70~ubuntu18.04.1) date 2018年12月02日 18時05分12秒*
%MOMM*%
%LPD*%
G01*
G04 APERTURE LIST*
G04 #@! TA.AperFunction,SMDPad,CuDef*
%ADD10R,3.150000X1.000000*%
G04 #@! TD*
G04 #@! TA.AperFunction,BGAPad,CuDef*
%ADD11C,1.524000*%
G04 #@! TD*
G04 #@! TA.AperFunction,ComponentPad*
%ADD12C,1.700000*%
G04 #@! TD*
G04 #@! TA.AperFunction,ComponentPad*
%ADD13O,1.700000X1.700000*%
G04 #@! TD*
G04 #@! TA.AperFunction,ComponentPad*
%ADD14R,1.700000X1.700000*%
G04 #@! TD*
G04 #@! TA.AperFunction,ViaPad*
%ADD15C,0.800000*%
G04 #@! TD*
G04 #@! TA.AperFunction,Conductor*
%ADD16C,0.250000*%
G04 #@! TD*
G04 #@! TA.AperFunction,Conductor*
%ADD17C,0.254000*%
G04 #@! TD*
G04 APERTURE END LIST*
D10*
G04 #@! TO.P,J3,1*
G04 #@! TO.N,G35*
X141549000Y-57048400D03*
G04 #@! TO.P,J3,2*
G04 #@! TO.N,GND*
X146599000Y-57048400D03*
G04 #@! TO.P,J3,3*
G04 #@! TO.N,G36*
X141549000Y-59588400D03*
G04 #@! TO.P,J3,4*
G04 #@! TO.N,GND*
X146599000Y-59588400D03*
G04 #@! TO.P,J3,5*
G04 #@! TO.N,RST*
X141549000Y-62128400D03*
G04 #@! TO.P,J3,6*
G04 #@! TO.N,GND*
X146599000Y-62128400D03*
G04 #@! TO.P,J3,7*
G04 #@! TO.N,G25*
X141549000Y-64668400D03*
G04 #@! TO.P,J3,8*
G04 #@! TO.N,G23*
X146599000Y-64668400D03*
G04 #@! TO.P,J3,9*
G04 #@! TO.N,G26*
X141549000Y-67208400D03*
G04 #@! TO.P,J3,10*
G04 #@! TO.N,G19*
X146599000Y-67208400D03*
G04 #@! TO.P,J3,11*
G04 #@! TO.N,+3V3*
X141549000Y-69748400D03*
G04 #@! TO.P,J3,12*
G04 #@! TO.N,G18*
X146599000Y-69748400D03*
G04 #@! TO.P,J3,13*
G04 #@! TO.N,G1*
X141549000Y-72288400D03*
G04 #@! TO.P,J3,14*
G04 #@! TO.N,G3*
X146599000Y-72288400D03*
G04 #@! TO.P,J3,15*
G04 #@! TO.N,G17*
X141549000Y-74828400D03*
G04 #@! TO.P,J3,16*
G04 #@! TO.N,G16*
X146599000Y-74828400D03*
G04 #@! TO.P,J3,17*
G04 #@! TO.N,G22*
X141549000Y-77368400D03*
G04 #@! TO.P,J3,18*
G04 #@! TO.N,G21*
X146599000Y-77368400D03*
G04 #@! TO.P,J3,19*
G04 #@! TO.N,G5*
X141549000Y-79908400D03*
G04 #@! TO.P,J3,20*
G04 #@! TO.N,G2*
X146599000Y-79908400D03*
G04 #@! TO.P,J3,21*
G04 #@! TO.N,G13*
X141549000Y-82448400D03*
G04 #@! TO.P,J3,22*
G04 #@! TO.N,G12*
X146599000Y-82448400D03*
G04 #@! TO.P,J3,23*
G04 #@! TO.N,G0*
X141549000Y-84988400D03*
G04 #@! TO.P,J3,24*
G04 #@! TO.N,G15*
X146599000Y-84988400D03*
G04 #@! TO.P,J3,25*
G04 #@! TO.N,G34*
X141549000Y-87528400D03*
G04 #@! TO.P,J3,26*
G04 #@! TO.N,HPWR*
X146599000Y-87528400D03*
G04 #@! TO.P,J3,27*
G04 #@! TO.N,+5V*
X141549000Y-90068400D03*
G04 #@! TO.P,J3,28*
G04 #@! TO.N,HPWR*
X146599000Y-90068400D03*
G04 #@! TO.P,J3,29*
G04 #@! TO.N,+BATT*
X141549000Y-92608400D03*
G04 #@! TO.P,J3,30*
G04 #@! TO.N,HPWR*
X146599000Y-92608400D03*
D11*
G04 #@! TO.P,J3,1*
G04 #@! TO.N,G35*
X139394000Y-57048400D03*
G04 #@! TO.P,J3,3*
G04 #@! TO.N,G36*
X139394000Y-59578400D03*
D12*
G04 #@! TO.P,J3,5*
G04 #@! TO.N,RST*
X139394000Y-62138400D03*
D11*
G04 #@! TO.P,J3,7*
G04 #@! TO.N,G25*
X139394000Y-64648400D03*
G04 #@! TO.P,J3,9*
G04 #@! TO.N,G26*
X139394000Y-67178400D03*
G04 #@! TO.P,J3,11*
G04 #@! TO.N,+3V3*
X139394000Y-69758400D03*
G04 #@! TO.P,J3,13*
G04 #@! TO.N,G1*
X139394000Y-72268400D03*
G04 #@! TO.P,J3,15*
G04 #@! TO.N,G17*
X139394000Y-74838400D03*
G04 #@! TO.P,J3,17*
G04 #@! TO.N,G22*
X139394000Y-77358400D03*
G04 #@! TO.P,J3,19*
G04 #@! TO.N,G5*
X139394000Y-79888400D03*
G04 #@! TO.P,J3,21*
G04 #@! TO.N,G13*
X139394000Y-82428400D03*
G04 #@! TO.P,J3,23*
G04 #@! TO.N,G0*
X139394000Y-84998400D03*
D12*
G04 #@! TO.P,J3,25*
G04 #@! TO.N,G34*
X139394000Y-87528400D03*
D11*
G04 #@! TO.P,J3,27*
G04 #@! TO.N,+5V*
X139394000Y-90048400D03*
G04 #@! TO.P,J3,29*
G04 #@! TO.N,+BATT*
X139394000Y-92628400D03*
G04 #@! TO.P,J3,2*
G04 #@! TO.N,GND*
X148754000Y-57048400D03*
G04 #@! TO.P,J3,4*
X148754000Y-59608400D03*
D12*
G04 #@! TO.P,J3,6*
X148754000Y-62138400D03*
D11*
G04 #@! TO.P,J3,8*
G04 #@! TO.N,G23*
X148754000Y-64658400D03*
G04 #@! TO.P,J3,10*
G04 #@! TO.N,G19*
X148754000Y-67198400D03*
G04 #@! TO.P,J3,12*
G04 #@! TO.N,G18*
X148754000Y-69748400D03*
G04 #@! TO.P,J3,14*
G04 #@! TO.N,G3*
X148754000Y-72278400D03*
G04 #@! TO.P,J3,16*
G04 #@! TO.N,G16*
X148754000Y-74838400D03*
G04 #@! TO.P,J3,18*
G04 #@! TO.N,G21*
X148754000Y-77358400D03*
G04 #@! TO.P,J3,20*
G04 #@! TO.N,G2*
X148754000Y-79898400D03*
G04 #@! TO.P,J3,22*
G04 #@! TO.N,G12*
X148754000Y-82438400D03*
G04 #@! TO.P,J3,24*
G04 #@! TO.N,G15*
X148754000Y-84988400D03*
D12*
G04 #@! TO.P,J3,26*
G04 #@! TO.N,HPWR*
X148754000Y-87518400D03*
D11*
G04 #@! TO.P,J3,28*
X148754000Y-90078400D03*
G04 #@! TO.P,J3,30*
X148754000Y-92608400D03*
G04 #@! TD*
D13*
G04 #@! TO.P,J1,11*
G04 #@! TO.N,GND*
X156185000Y-56070000D03*
G04 #@! TO.P,J1,10*
G04 #@! TO.N,+5V*
X158725000Y-56070000D03*
G04 #@! TO.P,J1,9*
G04 #@! TO.N,+3V3*
X161265000Y-56070000D03*
G04 #@! TO.P,J1,8*
G04 #@! TO.N,+BATT*
X163805000Y-56070000D03*
G04 #@! TO.P,J1,7*
G04 #@! TO.N,RST*
X166345000Y-56070000D03*
G04 #@! TO.P,J1,6*
G04 #@! TO.N,G36*
X168885000Y-56070000D03*
G04 #@! TO.P,J1,5*
G04 #@! TO.N,G35*
X171425000Y-56070000D03*
G04 #@! TO.P,J1,4*
G04 #@! TO.N,G26*
X173965000Y-56070000D03*
G04 #@! TO.P,J1,3*
G04 #@! TO.N,G25*
X176505000Y-56070000D03*
G04 #@! TO.P,J1,2*
G04 #@! TO.N,G5*
X179045000Y-56070000D03*
D14*
G04 #@! TO.P,J1,1*
G04 #@! TO.N,G2*
X181585000Y-56070000D03*
G04 #@! TD*
G04 #@! TO.P,J2,1*
G04 #@! TO.N,G3*
X156185000Y-94170000D03*
D13*
G04 #@! TO.P,J2,2*
G04 #@! TO.N,G1*
X158725000Y-94170000D03*
G04 #@! TO.P,J2,3*
G04 #@! TO.N,G16*
X161265000Y-94170000D03*
G04 #@! TO.P,J2,4*
G04 #@! TO.N,G17*
X163805000Y-94170000D03*
G04 #@! TO.P,J2,5*
G04 #@! TO.N,G18*
X166345000Y-94170000D03*
G04 #@! TO.P,J2,6*
G04 #@! TO.N,G19*
X168885000Y-94170000D03*
G04 #@! TO.P,J2,7*
G04 #@! TO.N,G21*
X171425000Y-94170000D03*
G04 #@! TO.P,J2,8*
G04 #@! TO.N,G22*
X173965000Y-94170000D03*
G04 #@! TO.P,J2,9*
G04 #@! TO.N,G23*
X176505000Y-94170000D03*
G04 #@! TO.P,J2,10*
G04 #@! TO.N,+3V3*
X179045000Y-94170000D03*
G04 #@! TO.P,J2,11*
G04 #@! TO.N,GND*
X181585000Y-94170000D03*
G04 #@! TD*
D15*
G04 #@! TO.N,GND*
X150076444Y-62196362D03*
X152730853Y-62281453D03*
X163906200Y-75387200D03*
X157022800Y-64668400D03*
X148754000Y-59608400D03*
X148754000Y-57048400D03*
X146599000Y-62128400D03*
X151790400Y-54000400D03*
X135940800Y-51257200D03*
X180527960Y-59502040D03*
G04 #@! TO.N,G23*
X149790500Y-65574500D03*
G04 #@! TO.N,G19*
X150239000Y-67379700D03*
G04 #@! TO.N,G18*
X149705300Y-68757500D03*
G04 #@! TO.N,G3*
X149453100Y-73584400D03*
G04 #@! TO.N,G16*
X150321300Y-74843200D03*
G04 #@! TO.N,G21*
X149501500Y-78628400D03*
G04 #@! TO.N,G2*
X144376300Y-79915200D03*
G04 #@! TO.N,G12*
X144382900Y-82078700D03*
G04 #@! TO.N,G15*
X144382900Y-85071000D03*
G04 #@! TO.N,HPWR*
X147156600Y-91338400D03*
G04 #@! TO.N,+BATT*
X137587700Y-91523500D03*
G04 #@! TO.N,+5V*
X141122300Y-91338400D03*
G04 #@! TO.N,G34*
X142878300Y-86201100D03*
G04 #@! TO.N,G0*
X140636100Y-86259600D03*
G04 #@! TO.N,G13*
X141680000Y-83571700D03*
G04 #@! TO.N,G5*
X142891400Y-78638400D03*
G04 #@! TO.N,G22*
X140633600Y-78634600D03*
G04 #@! TO.N,G17*
X141127300Y-73698600D03*
G04 #@! TO.N,G1*
X144074000Y-72023600D03*
G04 #@! TO.N,G26*
X144136500Y-67116900D03*
G04 #@! TO.N,G25*
X143784800Y-64017900D03*
G04 #@! TO.N,G35*
X141549000Y-57048400D03*
G04 #@! TO.N,+3V3*
X143853400Y-69964900D03*
G04 #@! TD*
D16*
G04 #@! TO.N,GND*
X148754000Y-57048400D02*
X149054000Y-57048400D01*
X146899000Y-57048400D02*
X148754000Y-57048400D01*
X146899000Y-62128400D02*
X149044000Y-62128400D01*
X146899000Y-59588400D02*
X149034000Y-59588400D01*
X148754000Y-62138400D02*
X150018482Y-62138400D01*
X150018482Y-62138400D02*
X150076444Y-62196362D01*
X150076444Y-62196362D02*
X152645762Y-62196362D01*
X152645762Y-62196362D02*
X152730853Y-62281453D01*
X181585000Y-93066000D02*
X181585000Y-94170000D01*
X163906200Y-75387200D02*
X181585000Y-93066000D01*
X148754000Y-62138400D02*
X148754000Y-59608400D01*
X148754000Y-59608400D02*
X148754000Y-57048400D01*
X150076444Y-62196362D02*
X146666962Y-62196362D01*
X146666962Y-62196362D02*
X146599000Y-62128400D01*
X136123001Y-51074999D02*
X135940800Y-51257200D01*
X147924001Y-51074999D02*
X136123001Y-51074999D01*
X151790400Y-54000400D02*
X150849402Y-54000400D01*
X150849402Y-54000400D02*
X147924001Y-51074999D01*
X164471885Y-75387200D02*
X163906200Y-75387200D01*
X179957046Y-59902039D02*
X164471885Y-75387200D01*
X180127961Y-59902039D02*
X179957046Y-59902039D01*
X180527960Y-59502040D02*
X180127961Y-59902039D01*
G04 #@! TO.N,G23*
X148799000Y-64668400D02*
X148884400Y-64668400D01*
X148884400Y-64668400D02*
X149790500Y-65574500D01*
X148744000Y-64668400D02*
X148799000Y-64668400D01*
X146899000Y-64668400D02*
X146599000Y-64668400D01*
X146899000Y-64668400D02*
X148744000Y-64668400D01*
X148744000Y-64668400D02*
X148754000Y-64658400D01*
G04 #@! TO.N,G19*
X146899000Y-67208400D02*
X146599000Y-67208400D01*
X148744000Y-67208400D02*
X146899000Y-67208400D01*
X150239000Y-67379700D02*
X149235300Y-67379700D01*
X149235300Y-67379700D02*
X149054000Y-67198400D01*
X148744000Y-67208400D02*
X148754000Y-67198400D01*
X149054000Y-67198400D02*
X148809000Y-67198400D01*
X148809000Y-67198400D02*
X148799000Y-67208400D01*
X148799000Y-67208400D02*
X148744000Y-67208400D01*
G04 #@! TO.N,G18*
X148969400Y-69748400D02*
X149705300Y-69012500D01*
X149705300Y-69012500D02*
X149705300Y-68757500D01*
X148969400Y-69748400D02*
X148754000Y-69748400D01*
X149054000Y-69748400D02*
X148969400Y-69748400D01*
X146899000Y-69748400D02*
X146599000Y-69748400D01*
X148754000Y-69748400D02*
X146899000Y-69748400D01*
G04 #@! TO.N,G3*
X148771500Y-72288400D02*
X149453100Y-72970000D01*
X149453100Y-72970000D02*
X149453100Y-73584400D01*
X148771500Y-72288400D02*
X148799000Y-72288400D01*
X148744000Y-72288400D02*
X148771500Y-72288400D01*
X146899000Y-72288400D02*
X146599000Y-72288400D01*
X146899000Y-72288400D02*
X148744000Y-72288400D01*
X148744000Y-72288400D02*
X148754000Y-72278400D01*
G04 #@! TO.N,G16*
X149054000Y-74838400D02*
X150316500Y-74838400D01*
X150316500Y-74838400D02*
X150321300Y-74843200D01*
X149054000Y-74838400D02*
X148809000Y-74838400D01*
X148809000Y-74838400D02*
X148799000Y-74828400D01*
X148799000Y-74828400D02*
X148744000Y-74828400D01*
X146899000Y-74828400D02*
X146599000Y-74828400D01*
X148744000Y-74828400D02*
X146899000Y-74828400D01*
X148744000Y-74828400D02*
X148754000Y-74838400D01*
G04 #@! TO.N,G21*
X148771500Y-77368400D02*
X148771500Y-77898400D01*
X148771500Y-77898400D02*
X149501500Y-78628400D01*
X148771500Y-77368400D02*
X148799000Y-77368400D01*
X148744000Y-77368400D02*
X148771500Y-77368400D01*
X146899000Y-77368400D02*
X146599000Y-77368400D01*
X146899000Y-77368400D02*
X148744000Y-77368400D01*
X148744000Y-77368400D02*
X148754000Y-77358400D01*
G04 #@! TO.N,G2*
X181585000Y-56070000D02*
X180409700Y-56070000D01*
X149054000Y-79898400D02*
X156948600Y-79898400D01*
X156948600Y-79898400D02*
X180409700Y-56437300D01*
X180409700Y-56437300D02*
X180409700Y-56070000D01*
X149054000Y-79898400D02*
X148809000Y-79898400D01*
X148809000Y-79898400D02*
X148799000Y-79908400D01*
X148799000Y-79908400D02*
X148744000Y-79908400D01*
X148744000Y-79908400D02*
X148754000Y-79898400D01*
X148744000Y-79908400D02*
X146899000Y-79908400D01*
X146599000Y-79908400D02*
X144383100Y-79908400D01*
X144383100Y-79908400D02*
X144376300Y-79915200D01*
X146899000Y-79908400D02*
X146599000Y-79908400D01*
G04 #@! TO.N,G12*
X146599000Y-82448400D02*
X144698700Y-82448400D01*
X144698700Y-82448400D02*
X144698700Y-82394500D01*
X144698700Y-82394500D02*
X144382900Y-82078700D01*
X146899000Y-82448400D02*
X146599000Y-82448400D01*
X148744000Y-82448400D02*
X146899000Y-82448400D01*
X148744000Y-82448400D02*
X148754000Y-82438400D01*
X149054000Y-82438400D02*
X148809000Y-82438400D01*
X148809000Y-82438400D02*
X148799000Y-82448400D01*
X148799000Y-82448400D02*
X148744000Y-82448400D01*
G04 #@! TO.N,G15*
X146599000Y-84988400D02*
X144465500Y-84988400D01*
X144465500Y-84988400D02*
X144382900Y-85071000D01*
X146899000Y-84988400D02*
X146599000Y-84988400D01*
X148754000Y-84988400D02*
X146899000Y-84988400D01*
X149054000Y-84988400D02*
X148754000Y-84988400D01*
G04 #@! TO.N,HPWR*
X146899000Y-92608400D02*
X146599000Y-92608400D01*
X147156600Y-91338400D02*
X146899000Y-91596000D01*
X146899000Y-91596000D02*
X146899000Y-92608400D01*
X146749000Y-87528400D02*
X146899000Y-87528400D01*
X146599000Y-87528400D02*
X146749000Y-87528400D01*
X146749000Y-90068400D02*
X146599000Y-90068400D01*
X146899000Y-90068400D02*
X146749000Y-90068400D01*
X146749000Y-87528400D02*
X146749000Y-90068400D01*
X147156600Y-91338400D02*
X146899000Y-91080800D01*
X146899000Y-91080800D02*
X146899000Y-90068400D01*
X148744000Y-90068400D02*
X148754000Y-90078400D01*
X148744000Y-90068400D02*
X148799000Y-90068400D01*
X146899000Y-90068400D02*
X148744000Y-90068400D01*
X148744000Y-87528400D02*
X146899000Y-87528400D01*
X148744000Y-87528400D02*
X148754000Y-87518400D01*
X149054000Y-87518400D02*
X148809000Y-87518400D01*
X148809000Y-87518400D02*
X148799000Y-87528400D01*
X148799000Y-87528400D02*
X148744000Y-87528400D01*
X148754000Y-92608400D02*
X146899000Y-92608400D01*
X149054000Y-92608400D02*
X148754000Y-92608400D01*
G04 #@! TO.N,+BATT*
X139694000Y-92618400D02*
X139404000Y-92618400D01*
X139404000Y-92618400D02*
X139394000Y-92628400D01*
X139694000Y-92618400D02*
X139694000Y-92608400D01*
X139694000Y-92608400D02*
X141549000Y-92608400D01*
X139694000Y-92628400D02*
X139694000Y-92618400D01*
X137587700Y-91523500D02*
X138289100Y-91523500D01*
X138289100Y-91523500D02*
X139394000Y-92628400D01*
X141849000Y-92608400D02*
X141549000Y-92608400D01*
G04 #@! TO.N,+5V*
X141122300Y-90068400D02*
X139949000Y-90068400D01*
X139949000Y-90068400D02*
X139929000Y-90048400D01*
X139929000Y-90048400D02*
X139694000Y-90048400D01*
X141549000Y-90068400D02*
X141122300Y-90068400D01*
X141122300Y-91338400D02*
X141122300Y-90068400D01*
X139694000Y-90048400D02*
X139394000Y-90048400D01*
X141849000Y-90068400D02*
X141549000Y-90068400D01*
G04 #@! TO.N,G34*
X141699000Y-87528400D02*
X142878300Y-86349100D01*
X142878300Y-86349100D02*
X142878300Y-86201100D01*
X141699000Y-87528400D02*
X141849000Y-87528400D01*
X141549000Y-87528400D02*
X141699000Y-87528400D01*
X139694000Y-87528400D02*
X139648700Y-87528400D01*
X139648700Y-87528400D02*
X139394000Y-87528400D01*
X139694000Y-87528400D02*
X141549000Y-87528400D01*
G04 #@! TO.N,G0*
X140564500Y-84988400D02*
X140636100Y-85060000D01*
X140636100Y-85060000D02*
X140636100Y-86259600D01*
X140564500Y-84988400D02*
X141549000Y-84988400D01*
X139694000Y-84998400D02*
X139939000Y-84998400D01*
X139939000Y-84998400D02*
X139949000Y-84988400D01*
X139949000Y-84988400D02*
X140564500Y-84988400D01*
X139694000Y-84998400D02*
X139394000Y-84998400D01*
X141549000Y-84988400D02*
X141849000Y-84988400D01*
G04 #@! TO.N,G13*
X141699000Y-82448400D02*
X141680000Y-82467400D01*
X141680000Y-82467400D02*
X141680000Y-83571700D01*
X141699000Y-82448400D02*
X141849000Y-82448400D01*
X141549000Y-82448400D02*
X141699000Y-82448400D01*
X139694000Y-82428400D02*
X139394000Y-82428400D01*
X139694000Y-82428400D02*
X139929000Y-82428400D01*
X139929000Y-82428400D02*
X139949000Y-82448400D01*
X139949000Y-82448400D02*
X141549000Y-82448400D01*
G04 #@! TO.N,G5*
X142891400Y-78638400D02*
X144698700Y-76831100D01*
X144698700Y-76831100D02*
X144698700Y-76721400D01*
X144698700Y-76721400D02*
X145196300Y-76223800D01*
X145196300Y-76223800D02*
X158083200Y-76223800D01*
X158083200Y-76223800D02*
X177869700Y-56437300D01*
X177869700Y-56437300D02*
X177869700Y-56070000D01*
X141699000Y-79908400D02*
X142891400Y-78716000D01*
X142891400Y-78716000D02*
X142891400Y-78638400D01*
X179045000Y-56070000D02*
X177869700Y-56070000D01*
X141699000Y-79908400D02*
X141849000Y-79908400D01*
X141549000Y-79908400D02*
X141699000Y-79908400D01*
X139694000Y-79888400D02*
X139394000Y-79888400D01*
X139694000Y-79888400D02*
X139929000Y-79888400D01*
X139929000Y-79888400D02*
X139949000Y-79908400D01*
X139949000Y-79908400D02*
X141549000Y-79908400D01*
G04 #@! TO.N,G22*
X139394000Y-77358400D02*
X138297700Y-78454700D01*
X138297700Y-78454700D02*
X138297700Y-80346900D01*
X138297700Y-80346900D02*
X139119200Y-81168400D01*
X139119200Y-81168400D02*
X160155400Y-81168400D01*
X160155400Y-81168400D02*
X172789700Y-93802700D01*
X172789700Y-93802700D02*
X172789700Y-94170000D01*
X139694000Y-77358400D02*
X139394000Y-77358400D01*
X173965000Y-94170000D02*
X172789700Y-94170000D01*
X140749000Y-77368400D02*
X140633600Y-77483800D01*
X140633600Y-77483800D02*
X140633600Y-78634600D01*
X140749000Y-77368400D02*
X141549000Y-77368400D01*
X139694000Y-77358400D02*
X139939000Y-77358400D01*
X139939000Y-77358400D02*
X139949000Y-77368400D01*
X139949000Y-77368400D02*
X140749000Y-77368400D01*
X141549000Y-77368400D02*
X141849000Y-77368400D01*
G04 #@! TO.N,G17*
X140655500Y-74828400D02*
X141127300Y-74356600D01*
X141127300Y-74356600D02*
X141127300Y-73698600D01*
X140655500Y-74828400D02*
X141362000Y-74828400D01*
X139694000Y-74838400D02*
X139939000Y-74838400D01*
X139939000Y-74838400D02*
X139949000Y-74828400D01*
X139949000Y-74828400D02*
X140655500Y-74828400D01*
X141362000Y-74828400D02*
X141549000Y-74828400D01*
X139394000Y-74838400D02*
X139694000Y-74838400D01*
G04 #@! TO.N,G1*
X141849000Y-72288400D02*
X143449300Y-72288400D01*
X144074000Y-72023600D02*
X143714100Y-72023600D01*
X143714100Y-72023600D02*
X143449300Y-72288400D01*
X139694000Y-72278400D02*
X139404000Y-72278400D01*
X139404000Y-72278400D02*
X139394000Y-72268400D01*
X139694000Y-72278400D02*
X139694000Y-72288400D01*
X139694000Y-72288400D02*
X141549000Y-72288400D01*
X139694000Y-72268400D02*
X139694000Y-72278400D01*
X141849000Y-72288400D02*
X141549000Y-72288400D01*
G04 #@! TO.N,G26*
X144136500Y-67116900D02*
X145162600Y-66090800D01*
X145162600Y-66090800D02*
X149281100Y-66090800D01*
X149281100Y-66090800D02*
X149490100Y-66299800D01*
X149490100Y-66299800D02*
X162927200Y-66299800D01*
X162927200Y-66299800D02*
X172789700Y-56437300D01*
X172789700Y-56437300D02*
X172789700Y-56070000D01*
X173965000Y-56070000D02*
X172789700Y-56070000D01*
X139694000Y-67178400D02*
X139394000Y-67178400D01*
X141674000Y-67208400D02*
X144045000Y-67208400D01*
X144045000Y-67208400D02*
X144136500Y-67116900D01*
X141549000Y-67208400D02*
X141674000Y-67208400D01*
X139694000Y-67178400D02*
X139919000Y-67178400D01*
X139919000Y-67178400D02*
X139949000Y-67208400D01*
X139949000Y-67208400D02*
X141549000Y-67208400D01*
G04 #@! TO.N,G25*
X139394000Y-64648400D02*
X137838500Y-66203900D01*
X137838500Y-66203900D02*
X137838500Y-69783500D01*
X137838500Y-69783500D02*
X138954000Y-70899000D01*
X138954000Y-70899000D02*
X160868000Y-70899000D01*
X160868000Y-70899000D02*
X175329700Y-56437300D01*
X175329700Y-56437300D02*
X175329700Y-56070000D01*
X139694000Y-64648400D02*
X139394000Y-64648400D01*
X176505000Y-56070000D02*
X175329700Y-56070000D01*
X143784800Y-64017900D02*
X142499500Y-64017900D01*
X142499500Y-64017900D02*
X141849000Y-64668400D01*
X139694000Y-64648400D02*
X139929000Y-64648400D01*
X139929000Y-64648400D02*
X139949000Y-64668400D01*
X139949000Y-64668400D02*
X141549000Y-64668400D01*
X141549000Y-64668400D02*
X141849000Y-64668400D01*
G04 #@! TO.N,RST*
X139694000Y-62138400D02*
X139394000Y-62138400D01*
X139694000Y-62138400D02*
X139939000Y-62138400D01*
X139939000Y-62138400D02*
X139949000Y-62128400D01*
X139949000Y-62128400D02*
X141549000Y-62128400D01*
G04 #@! TO.N,G36*
X141849000Y-59588400D02*
X141849000Y-59394500D01*
X141849000Y-59394500D02*
X143573300Y-57670200D01*
X143573300Y-57670200D02*
X143573300Y-57456400D01*
X143573300Y-57456400D02*
X145079700Y-55950000D01*
X145079700Y-55950000D02*
X152655800Y-55950000D01*
X152655800Y-55950000D02*
X153719400Y-54886400D01*
X153719400Y-54886400D02*
X166891400Y-54886400D01*
X166891400Y-54886400D02*
X167709700Y-55704700D01*
X167709700Y-55704700D02*
X167709700Y-56070000D01*
X168885000Y-56070000D02*
X167709700Y-56070000D01*
X141549000Y-59588400D02*
X141849000Y-59588400D01*
X139694000Y-59578400D02*
X139394000Y-59578400D01*
X139694000Y-59578400D02*
X139939000Y-59578400D01*
X139939000Y-59578400D02*
X139949000Y-59588400D01*
X139949000Y-59588400D02*
X141549000Y-59588400D01*
G04 #@! TO.N,G35*
X139694000Y-57048400D02*
X139394000Y-57048400D01*
X139694000Y-57048400D02*
X141549000Y-57048400D01*
X142624000Y-57048400D02*
X144325800Y-55346600D01*
X141549000Y-57048400D02*
X142624000Y-57048400D01*
X144325800Y-55346600D02*
X152622790Y-55346600D01*
X152622790Y-55346600D02*
X153613390Y-54356000D01*
X170575001Y-54751001D02*
X170180000Y-54356000D01*
X170575001Y-55220001D02*
X170575001Y-54751001D01*
X153613390Y-54356000D02*
X170180000Y-54356000D01*
X171425000Y-56070000D02*
X170575001Y-55220001D01*
X170180000Y-54356000D02*
X170408600Y-54356000D01*
G04 #@! TO.N,+3V3*
X139694000Y-69758400D02*
X139394000Y-69758400D01*
X141849000Y-69748400D02*
X143636900Y-69748400D01*
X143636900Y-69748400D02*
X143853400Y-69964900D01*
X141549000Y-69748400D02*
X141849000Y-69748400D01*
X139694000Y-69758400D02*
X139939000Y-69758400D01*
X139939000Y-69758400D02*
X139949000Y-69748400D01*
X139949000Y-69748400D02*
X141549000Y-69748400D01*
X138288900Y-68653300D02*
X139394000Y-69758400D01*
X138288900Y-66722100D02*
X138288900Y-68653300D01*
X138946600Y-66064400D02*
X138288900Y-66722100D01*
X161265000Y-56070000D02*
X160089700Y-56070000D01*
X160089700Y-56070000D02*
X160089700Y-56437300D01*
X142767700Y-66064400D02*
X138946600Y-66064400D01*
X160089700Y-56437300D02*
X152971120Y-63555880D01*
X144510200Y-64321900D02*
X142767700Y-66064400D01*
X152971120Y-63555880D02*
X145156420Y-63555880D01*
X145156420Y-63555880D02*
X144510200Y-64202100D01*
X144510200Y-64202100D02*
X144510200Y-64321900D01*
G04 #@! TD*
D17*
G04 #@! TO.N,GND*
G36*
X147643175Y-50847265D02*
X147444569Y-50765000D01*
X146555431Y-50765000D01*
X145733974Y-51105259D01*
X145105259Y-51733974D01*
X144765000Y-52555431D01*
X144765000Y-53444569D01*
X145105259Y-54266026D01*
X145425833Y-54586600D01*
X144400648Y-54586600D01*
X144325800Y-54571712D01*
X144250952Y-54586600D01*
X144250948Y-54586600D01*
X144029263Y-54630696D01*
X143777871Y-54798671D01*
X143735471Y-54862127D01*
X142696639Y-55900960D01*
X140222217Y-55900960D01*
X140185337Y-55864080D01*
X139671881Y-55651400D01*
X139116119Y-55651400D01*
X138602663Y-55864080D01*
X138209680Y-56257063D01*
X137997000Y-56770519D01*
X137997000Y-57326281D01*
X138209680Y-57839737D01*
X138602663Y-58232720D01*
X138797442Y-58313400D01*
X138602663Y-58394080D01*
X138209680Y-58787063D01*
X137997000Y-59300519D01*
X137997000Y-59856281D01*
X138209680Y-60369737D01*
X138602663Y-60762720D01*
X138718678Y-60810775D01*
X138552815Y-60879478D01*
X138135078Y-61297215D01*
X137909000Y-61843015D01*
X137909000Y-62433785D01*
X138135078Y-62979585D01*
X138552815Y-63397322D01*
X138658323Y-63441025D01*
X138602663Y-63464080D01*
X138209680Y-63857063D01*
X137997000Y-64370519D01*
X137997000Y-64926281D01*
X138009980Y-64957618D01*
X137354030Y-65613569D01*
X137290571Y-65655971D01*
X137122596Y-65907364D01*
X137078500Y-66129049D01*
X137078500Y-66129053D01*
X137063612Y-66203900D01*
X137078500Y-66278747D01*
X137078501Y-69708648D01*
X137063612Y-69783500D01*
X137122597Y-70080037D01*
X137243805Y-70261437D01*
X137290572Y-70331429D01*
X137354028Y-70373829D01*
X138333471Y-71353272D01*
X138209680Y-71477063D01*
X137997000Y-71990519D01*
X137997000Y-72546281D01*
X138209680Y-73059737D01*
X138602663Y-73452720D01*
X138845727Y-73553400D01*
X138602663Y-73654080D01*
X138209680Y-74047063D01*
X137997000Y-74560519D01*
X137997000Y-75116281D01*
X138209680Y-75629737D01*
X138602663Y-76022720D01*
X138785371Y-76098400D01*
X138602663Y-76174080D01*
X138209680Y-76567063D01*
X137997000Y-77080519D01*
X137997000Y-77636281D01*
X138009980Y-77667618D01*
X137813229Y-77864369D01*
X137749771Y-77906771D01*
X137581796Y-78158164D01*
X137537700Y-78379849D01*
X137537700Y-78379853D01*
X137522812Y-78454700D01*
X137537700Y-78529547D01*
X137537701Y-80272048D01*
X137522812Y-80346900D01*
X137537701Y-80421752D01*
X137581797Y-80643437D01*
X137749772Y-80894829D01*
X137813227Y-80937229D01*
X138361370Y-81485373D01*
X138209680Y-81637063D01*
X137997000Y-82150519D01*
X137997000Y-82706281D01*
X138209680Y-83219737D01*
X138602663Y-83612720D01*
X138845727Y-83713400D01*
X138602663Y-83814080D01*
X138209680Y-84207063D01*
X137997000Y-84720519D01*
X137997000Y-85276281D01*
X138209680Y-85789737D01*
X138602663Y-86182720D01*
X138682465Y-86215775D01*
X138552815Y-86269478D01*
X138135078Y-86687215D01*
X137909000Y-87233015D01*
X137909000Y-87823785D01*
X138135078Y-88369585D01*
X138552815Y-88787322D01*
X138670394Y-88836025D01*
X138602663Y-88864080D01*
X138209680Y-89257063D01*
X137997000Y-89770519D01*
X137997000Y-90326281D01*
X138120240Y-90623809D01*
X137793574Y-90488500D01*
X137381826Y-90488500D01*
X137001420Y-90646069D01*
X136710269Y-90937220D01*
X136552700Y-91317626D01*
X136552700Y-91729374D01*
X136710269Y-92109780D01*
X137001420Y-92400931D01*
X137381826Y-92558500D01*
X137793574Y-92558500D01*
X137997000Y-92474238D01*
X137997000Y-92906281D01*
X138209680Y-93419737D01*
X138602663Y-93812720D01*
X139116119Y-94025400D01*
X139671881Y-94025400D01*
X140185337Y-93812720D01*
X140242217Y-93755840D01*
X143124000Y-93755840D01*
X143371765Y-93706557D01*
X143581809Y-93566209D01*
X143722157Y-93356165D01*
X143771440Y-93108400D01*
X143771440Y-92387471D01*
X143858180Y-92423400D01*
X144289820Y-92423400D01*
X144376560Y-92387471D01*
X144376560Y-93108400D01*
X144425843Y-93356165D01*
X144566191Y-93566209D01*
X144776235Y-93706557D01*
X145024000Y-93755840D01*
X147925783Y-93755840D01*
X147962663Y-93792720D01*
X148476119Y-94005400D01*
X149031881Y-94005400D01*
X149545337Y-93792720D01*
X149938320Y-93399737D01*
X150151000Y-92886281D01*
X150151000Y-92330519D01*
X149938320Y-91817063D01*
X149545337Y-91424080D01*
X149350558Y-91343400D01*
X149545337Y-91262720D01*
X149938320Y-90869737D01*
X150151000Y-90356281D01*
X150151000Y-89800519D01*
X149938320Y-89287063D01*
X149545337Y-88894080D01*
X149429322Y-88846025D01*
X149595185Y-88777322D01*
X150012922Y-88359585D01*
X150239000Y-87813785D01*
X150239000Y-87223015D01*
X150012922Y-86677215D01*
X149595185Y-86259478D01*
X149465535Y-86205775D01*
X149545337Y-86172720D01*
X149938320Y-85779737D01*
X150151000Y-85266281D01*
X150151000Y-84710519D01*
X149938320Y-84197063D01*
X149545337Y-83804080D01*
X149326416Y-83713400D01*
X149545337Y-83622720D01*
X149938320Y-83229737D01*
X150151000Y-82716281D01*
X150151000Y-82160519D01*
X150054853Y-81928400D01*
X159840599Y-81928400D01*
X170748336Y-92836139D01*
X170354375Y-93099375D01*
X170155000Y-93397761D01*
X169955625Y-93099375D01*
X169464418Y-92771161D01*
X169031256Y-92685000D01*
X168738744Y-92685000D01*
X168305582Y-92771161D01*
X167814375Y-93099375D01*
X167615000Y-93397761D01*
X167415625Y-93099375D01*
X166924418Y-92771161D01*
X166491256Y-92685000D01*
X166198744Y-92685000D01*
X165765582Y-92771161D01*
X165274375Y-93099375D01*
X165075000Y-93397761D01*
X164875625Y-93099375D01*
X164384418Y-92771161D01*
X163951256Y-92685000D01*
X163658744Y-92685000D01*
X163225582Y-92771161D01*
X162734375Y-93099375D01*
X162535000Y-93397761D01*
X162335625Y-93099375D01*
X161844418Y-92771161D01*
X161411256Y-92685000D01*
X161118744Y-92685000D01*
X160685582Y-92771161D01*
X160194375Y-93099375D01*
X159995000Y-93397761D01*
X159795625Y-93099375D01*
X159304418Y-92771161D01*
X158871256Y-92685000D01*
X158578744Y-92685000D01*
X158145582Y-92771161D01*
X157654375Y-93099375D01*
X157642184Y-93117619D01*
X157633157Y-93072235D01*
X157492809Y-92862191D01*
X157282765Y-92721843D01*
X157035000Y-92672560D01*
X155335000Y-92672560D01*
X155087235Y-92721843D01*
X154877191Y-92862191D01*
X154736843Y-93072235D01*
X154687560Y-93320000D01*
X154687560Y-95020000D01*
X154736843Y-95267765D01*
X154877191Y-95477809D01*
X155087235Y-95618157D01*
X155335000Y-95667440D01*
X157035000Y-95667440D01*
X157282765Y-95618157D01*
X157492809Y-95477809D01*
X157633157Y-95267765D01*
X157642184Y-95222381D01*
X157654375Y-95240625D01*
X158145582Y-95568839D01*
X158578744Y-95655000D01*
X158871256Y-95655000D01*
X159304418Y-95568839D01*
X159795625Y-95240625D01*
X159995000Y-94942239D01*
X160194375Y-95240625D01*
X160685582Y-95568839D01*
X161118744Y-95655000D01*
X161411256Y-95655000D01*
X161844418Y-95568839D01*
X162335625Y-95240625D01*
X162535000Y-94942239D01*
X162734375Y-95240625D01*
X163225582Y-95568839D01*
X163658744Y-95655000D01*
X163951256Y-95655000D01*
X164384418Y-95568839D01*
X164875625Y-95240625D01*
X165075000Y-94942239D01*
X165274375Y-95240625D01*
X165765582Y-95568839D01*
X166198744Y-95655000D01*
X166491256Y-95655000D01*
X166924418Y-95568839D01*
X167415625Y-95240625D01*
X167615000Y-94942239D01*
X167814375Y-95240625D01*
X168305582Y-95568839D01*
X168738744Y-95655000D01*
X169031256Y-95655000D01*
X169464418Y-95568839D01*
X169955625Y-95240625D01*
X170155000Y-94942239D01*
X170354375Y-95240625D01*
X170845582Y-95568839D01*
X171278744Y-95655000D01*
X171571256Y-95655000D01*
X172004418Y-95568839D01*
X172495625Y-95240625D01*
X172695000Y-94942239D01*
X172894375Y-95240625D01*
X173385582Y-95568839D01*
X173818744Y-95655000D01*
X174111256Y-95655000D01*
X174544418Y-95568839D01*
X175035625Y-95240625D01*
X175235000Y-94942239D01*
X175434375Y-95240625D01*
X175925582Y-95568839D01*
X176358744Y-95655000D01*
X176651256Y-95655000D01*
X177084418Y-95568839D01*
X177575625Y-95240625D01*
X177775000Y-94942239D01*
X177974375Y-95240625D01*
X178465582Y-95568839D01*
X178898744Y-95655000D01*
X179191256Y-95655000D01*
X179624418Y-95568839D01*
X180115625Y-95240625D01*
X180328843Y-94921522D01*
X180389817Y-95051358D01*
X180818076Y-95441645D01*
X181228110Y-95611476D01*
X181458000Y-95490155D01*
X181458000Y-94297000D01*
X181712000Y-94297000D01*
X181712000Y-95490155D01*
X181941890Y-95611476D01*
X182351924Y-95441645D01*
X182780183Y-95051358D01*
X183026486Y-94526892D01*
X182905819Y-94297000D01*
X181712000Y-94297000D01*
X181458000Y-94297000D01*
X181438000Y-94297000D01*
X181438000Y-94043000D01*
X181458000Y-94043000D01*
X181458000Y-92849845D01*
X181712000Y-92849845D01*
X181712000Y-94043000D01*
X182905819Y-94043000D01*
X183026486Y-93813108D01*
X182780183Y-93288642D01*
X182351924Y-92898355D01*
X181941890Y-92728524D01*
X181712000Y-92849845D01*
X181458000Y-92849845D01*
X181228110Y-92728524D01*
X180818076Y-92898355D01*
X180389817Y-93288642D01*
X180328843Y-93418478D01*
X180115625Y-93099375D01*
X179624418Y-92771161D01*
X179191256Y-92685000D01*
X178898744Y-92685000D01*
X178465582Y-92771161D01*
X177974375Y-93099375D01*
X177775000Y-93397761D01*
X177575625Y-93099375D01*
X177084418Y-92771161D01*
X176651256Y-92685000D01*
X176358744Y-92685000D01*
X175925582Y-92771161D01*
X175434375Y-93099375D01*
X175235000Y-93397761D01*
X175035625Y-93099375D01*
X174544418Y-92771161D01*
X174111256Y-92685000D01*
X173818744Y-92685000D01*
X173385582Y-92771161D01*
X173054312Y-92992509D01*
X160745731Y-80683930D01*
X160703329Y-80620471D01*
X160451937Y-80452496D01*
X160230252Y-80408400D01*
X160230247Y-80408400D01*
X160155400Y-80393512D01*
X160080553Y-80408400D01*
X157521872Y-80408400D01*
X157538931Y-80382870D01*
X180437127Y-57484675D01*
X180487235Y-57518157D01*
X180735000Y-57567440D01*
X182435000Y-57567440D01*
X182682765Y-57518157D01*
X182892809Y-57377809D01*
X183033157Y-57167765D01*
X183082440Y-56920000D01*
X183082440Y-55220000D01*
X183033157Y-54972235D01*
X182892809Y-54762191D01*
X182682765Y-54621843D01*
X182435000Y-54572560D01*
X180735000Y-54572560D01*
X180487235Y-54621843D01*
X180277191Y-54762191D01*
X180136843Y-54972235D01*
X180127816Y-55017619D01*
X180115625Y-54999375D01*
X179624418Y-54671161D01*
X179191256Y-54585000D01*
X178898744Y-54585000D01*
X178465582Y-54671161D01*
X177974375Y-54999375D01*
X177775000Y-55297761D01*
X177575625Y-54999375D01*
X177084418Y-54671161D01*
X176651256Y-54585000D01*
X176358744Y-54585000D01*
X175925582Y-54671161D01*
X175434375Y-54999375D01*
X175235000Y-55297761D01*
X175035625Y-54999375D01*
X174544418Y-54671161D01*
X174111256Y-54585000D01*
X173818744Y-54585000D01*
X173385582Y-54671161D01*
X172894375Y-54999375D01*
X172695000Y-55297761D01*
X172495625Y-54999375D01*
X172004418Y-54671161D01*
X171571256Y-54585000D01*
X171316870Y-54585000D01*
X171290905Y-54454464D01*
X171290905Y-54454463D01*
X171185070Y-54296071D01*
X171165845Y-54267299D01*
X171124504Y-54059463D01*
X170956529Y-53808071D01*
X170705137Y-53640096D01*
X170483452Y-53596000D01*
X170254847Y-53596000D01*
X170180000Y-53581112D01*
X170105153Y-53596000D01*
X153688237Y-53596000D01*
X153613390Y-53581112D01*
X153538543Y-53596000D01*
X153538538Y-53596000D01*
X153316853Y-53640096D01*
X153065461Y-53808071D01*
X153023061Y-53871527D01*
X152307989Y-54586600D01*
X148574167Y-54586600D01*
X148894741Y-54266026D01*
X149235000Y-53444569D01*
X149235000Y-52555431D01*
X149152736Y-52356827D01*
X149448510Y-52652602D01*
X149488119Y-52711881D01*
X149547398Y-52751490D01*
X149547399Y-52751491D01*
X149722971Y-52868805D01*
X150000000Y-52923909D01*
X150069926Y-52910000D01*
X152930076Y-52910000D01*
X153000000Y-52923909D01*
X153069924Y-52910000D01*
X153069926Y-52910000D01*
X153277028Y-52868805D01*
X153511881Y-52711881D01*
X153551494Y-52652596D01*
X155494092Y-50710000D01*
X197505910Y-50710000D01*
X197643175Y-50847265D01*
X197444569Y-50765000D01*
X196555431Y-50765000D01*
X195733974Y-51105259D01*
X195105259Y-51733974D01*
X194765000Y-52555431D01*
X194765000Y-53444569D01*
X195105259Y-54266026D01*
X195733974Y-54894741D01*
X196555431Y-55235000D01*
X197444569Y-55235000D01*
X198266026Y-54894741D01*
X198894741Y-54266026D01*
X199235000Y-53444569D01*
X199235000Y-52555431D01*
X199152736Y-52356827D01*
X199290000Y-52494092D01*
X199290001Y-97505907D01*
X199152736Y-97643173D01*
X199235000Y-97444569D01*
X199235000Y-96555431D01*
X198894741Y-95733974D01*
X198266026Y-95105259D01*
X197444569Y-94765000D01*
X196555431Y-94765000D01*
X195733974Y-95105259D01*
X195105259Y-95733974D01*
X194765000Y-96555431D01*
X194765000Y-97444569D01*
X195105259Y-98266026D01*
X195733974Y-98894741D01*
X196555431Y-99235000D01*
X197444569Y-99235000D01*
X197643175Y-99152735D01*
X197505910Y-99290000D01*
X155494092Y-99290000D01*
X153551494Y-97347404D01*
X153511881Y-97288119D01*
X153277028Y-97131195D01*
X153069926Y-97090000D01*
X153069924Y-97090000D01*
X153000000Y-97076091D01*
X152930076Y-97090000D01*
X150069926Y-97090000D01*
X150000000Y-97076091D01*
X149722971Y-97131195D01*
X149547399Y-97248509D01*
X149488119Y-97288119D01*
X149448510Y-97347398D01*
X149152736Y-97643173D01*
X149235000Y-97444569D01*
X149235000Y-96555431D01*
X148894741Y-95733974D01*
X148266026Y-95105259D01*
X147444569Y-94765000D01*
X146555431Y-94765000D01*
X145733974Y-95105259D01*
X145105259Y-95733974D01*
X144765000Y-96555431D01*
X144765000Y-97444569D01*
X145105259Y-98266026D01*
X145733974Y-98894741D01*
X146555431Y-99235000D01*
X147444569Y-99235000D01*
X147643175Y-99152735D01*
X147505910Y-99290000D01*
X102494092Y-99290000D01*
X102356827Y-99152736D01*
X102555431Y-99235000D01*
X103444569Y-99235000D01*
X104266026Y-98894741D01*
X104894741Y-98266026D01*
X105235000Y-97444569D01*
X105235000Y-96654887D01*
X105265000Y-96654887D01*
X105265000Y-97345113D01*
X105529138Y-97982799D01*
X106017201Y-98470862D01*
X106654887Y-98735000D01*
X107345113Y-98735000D01*
X107982799Y-98470862D01*
X108470862Y-97982799D01*
X108735000Y-97345113D01*
X108735000Y-96654887D01*
X141265000Y-96654887D01*
X141265000Y-97345113D01*
X141529138Y-97982799D01*
X142017201Y-98470862D01*
X142654887Y-98735000D01*
X143345113Y-98735000D01*
X143982799Y-98470862D01*
X144470862Y-97982799D01*
X144735000Y-97345113D01*
X144735000Y-96654887D01*
X144470862Y-96017201D01*
X143982799Y-95529138D01*
X143345113Y-95265000D01*
X142654887Y-95265000D01*
X142017201Y-95529138D01*
X141529138Y-96017201D01*
X141265000Y-96654887D01*
X108735000Y-96654887D01*
X108470862Y-96017201D01*
X107982799Y-95529138D01*
X107345113Y-95265000D01*
X106654887Y-95265000D01*
X106017201Y-95529138D01*
X105529138Y-96017201D01*
X105265000Y-96654887D01*
X105235000Y-96654887D01*
X105235000Y-96555431D01*
X104894741Y-95733974D01*
X104266026Y-95105259D01*
X103444569Y-94765000D01*
X102555431Y-94765000D01*
X101733974Y-95105259D01*
X101105259Y-95733974D01*
X100765000Y-96555431D01*
X100765000Y-97444569D01*
X100847265Y-97643175D01*
X100710000Y-97505910D01*
X100710000Y-52494090D01*
X100847265Y-52356825D01*
X100765000Y-52555431D01*
X100765000Y-53444569D01*
X101105259Y-54266026D01*
X101733974Y-54894741D01*
X102555431Y-55235000D01*
X103444569Y-55235000D01*
X104266026Y-54894741D01*
X104894741Y-54266026D01*
X105235000Y-53444569D01*
X105235000Y-52654887D01*
X105265000Y-52654887D01*
X105265000Y-53345113D01*
X105529138Y-53982799D01*
X106017201Y-54470862D01*
X106654887Y-54735000D01*
X107345113Y-54735000D01*
X107982799Y-54470862D01*
X108470862Y-53982799D01*
X108735000Y-53345113D01*
X108735000Y-52654887D01*
X141265000Y-52654887D01*
X141265000Y-53345113D01*
X141529138Y-53982799D01*
X142017201Y-54470862D01*
X142654887Y-54735000D01*
X143345113Y-54735000D01*
X143982799Y-54470862D01*
X144470862Y-53982799D01*
X144735000Y-53345113D01*
X144735000Y-52654887D01*
X144470862Y-52017201D01*
X143982799Y-51529138D01*
X143345113Y-51265000D01*
X142654887Y-51265000D01*
X142017201Y-51529138D01*
X141529138Y-52017201D01*
X141265000Y-52654887D01*
X108735000Y-52654887D01*
X108470862Y-52017201D01*
X107982799Y-51529138D01*
X107345113Y-51265000D01*
X106654887Y-51265000D01*
X106017201Y-51529138D01*
X105529138Y-52017201D01*
X105265000Y-52654887D01*
X105235000Y-52654887D01*
X105235000Y-52555431D01*
X104894741Y-51733974D01*
X104266026Y-51105259D01*
X103444569Y-50765000D01*
X102555431Y-50765000D01*
X102356827Y-50847264D01*
X102494092Y-50710000D01*
X147505910Y-50710000D01*
X147643175Y-50847265D01*
X147643175Y-50847265D01*
G37*
X147643175Y-50847265D02*
X147444569Y-50765000D01*
X146555431Y-50765000D01*
X145733974Y-51105259D01*
X145105259Y-51733974D01*
X144765000Y-52555431D01*
X144765000Y-53444569D01*
X145105259Y-54266026D01*
X145425833Y-54586600D01*
X144400648Y-54586600D01*
X144325800Y-54571712D01*
X144250952Y-54586600D01*
X144250948Y-54586600D01*
X144029263Y-54630696D01*
X143777871Y-54798671D01*
X143735471Y-54862127D01*
X142696639Y-55900960D01*
X140222217Y-55900960D01*
X140185337Y-55864080D01*
X139671881Y-55651400D01*
X139116119Y-55651400D01*
X138602663Y-55864080D01*
X138209680Y-56257063D01*
X137997000Y-56770519D01*
X137997000Y-57326281D01*
X138209680Y-57839737D01*
X138602663Y-58232720D01*
X138797442Y-58313400D01*
X138602663Y-58394080D01*
X138209680Y-58787063D01*
X137997000Y-59300519D01*
X137997000Y-59856281D01*
X138209680Y-60369737D01*
X138602663Y-60762720D01*
X138718678Y-60810775D01*
X138552815Y-60879478D01*
X138135078Y-61297215D01*
X137909000Y-61843015D01*
X137909000Y-62433785D01*
X138135078Y-62979585D01*
X138552815Y-63397322D01*
X138658323Y-63441025D01*
X138602663Y-63464080D01*
X138209680Y-63857063D01*
X137997000Y-64370519D01*
X137997000Y-64926281D01*
X138009980Y-64957618D01*
X137354030Y-65613569D01*
X137290571Y-65655971D01*
X137122596Y-65907364D01*
X137078500Y-66129049D01*
X137078500Y-66129053D01*
X137063612Y-66203900D01*
X137078500Y-66278747D01*
X137078501Y-69708648D01*
X137063612Y-69783500D01*
X137122597Y-70080037D01*
X137243805Y-70261437D01*
X137290572Y-70331429D01*
X137354028Y-70373829D01*
X138333471Y-71353272D01*
X138209680Y-71477063D01*
X137997000Y-71990519D01*
X137997000Y-72546281D01*
X138209680Y-73059737D01*
X138602663Y-73452720D01*
X138845727Y-73553400D01*
X138602663Y-73654080D01*
X138209680Y-74047063D01*
X137997000Y-74560519D01*
X137997000Y-75116281D01*
X138209680Y-75629737D01*
X138602663Y-76022720D01*
X138785371Y-76098400D01*
X138602663Y-76174080D01*
X138209680Y-76567063D01*
X137997000Y-77080519D01*
X137997000Y-77636281D01*
X138009980Y-77667618D01*
X137813229Y-77864369D01*
X137749771Y-77906771D01*
X137581796Y-78158164D01*
X137537700Y-78379849D01*
X137537700Y-78379853D01*
X137522812Y-78454700D01*
X137537700Y-78529547D01*
X137537701Y-80272048D01*
X137522812Y-80346900D01*
X137537701Y-80421752D01*
X137581797Y-80643437D01*
X137749772Y-80894829D01*
X137813227Y-80937229D01*
X138361370Y-81485373D01*
X138209680Y-81637063D01*
X137997000Y-82150519D01*
X137997000Y-82706281D01*
X138209680Y-83219737D01*
X138602663Y-83612720D01*
X138845727Y-83713400D01*
X138602663Y-83814080D01*
X138209680Y-84207063D01*
X137997000Y-84720519D01*
X137997000Y-85276281D01*
X138209680Y-85789737D01*
X138602663Y-86182720D01*
X138682465Y-86215775D01*
X138552815Y-86269478D01*
X138135078Y-86687215D01*
X137909000Y-87233015D01*
X137909000Y-87823785D01*
X138135078Y-88369585D01*
X138552815Y-88787322D01*
X138670394Y-88836025D01*
X138602663Y-88864080D01*
X138209680Y-89257063D01*
X137997000Y-89770519D01*
X137997000Y-90326281D01*
X138120240Y-90623809D01*
X137793574Y-90488500D01*
X137381826Y-90488500D01*
X137001420Y-90646069D01*
X136710269Y-90937220D01*
X136552700Y-91317626D01*
X136552700Y-91729374D01*
X136710269Y-92109780D01*
X137001420Y-92400931D01*
X137381826Y-92558500D01*
X137793574Y-92558500D01*
X137997000Y-92474238D01*
X137997000Y-92906281D01*
X138209680Y-93419737D01*
X138602663Y-93812720D01*
X139116119Y-94025400D01*
X139671881Y-94025400D01*
X140185337Y-93812720D01*
X140242217Y-93755840D01*
X143124000Y-93755840D01*
X143371765Y-93706557D01*
X143581809Y-93566209D01*
X143722157Y-93356165D01*
X143771440Y-93108400D01*
X143771440Y-92387471D01*
X143858180Y-92423400D01*
X144289820Y-92423400D01*
X144376560Y-92387471D01*
X144376560Y-93108400D01*
X144425843Y-93356165D01*
X144566191Y-93566209D01*
X144776235Y-93706557D01*
X145024000Y-93755840D01*
X147925783Y-93755840D01*
X147962663Y-93792720D01*
X148476119Y-94005400D01*
X149031881Y-94005400D01*
X149545337Y-93792720D01*
X149938320Y-93399737D01*
X150151000Y-92886281D01*
X150151000Y-92330519D01*
X149938320Y-91817063D01*
X149545337Y-91424080D01*
X149350558Y-91343400D01*
X149545337Y-91262720D01*
X149938320Y-90869737D01*
X150151000Y-90356281D01*
X150151000Y-89800519D01*
X149938320Y-89287063D01*
X149545337Y-88894080D01*
X149429322Y-88846025D01*
X149595185Y-88777322D01*
X150012922Y-88359585D01*
X150239000Y-87813785D01*
X150239000Y-87223015D01*
X150012922Y-86677215D01*
X149595185Y-86259478D01*
X149465535Y-86205775D01*
X149545337Y-86172720D01*
X149938320Y-85779737D01*
X150151000Y-85266281D01*
X150151000Y-84710519D01*
X149938320Y-84197063D01*
X149545337Y-83804080D01*
X149326416Y-83713400D01*
X149545337Y-83622720D01*
X149938320Y-83229737D01*
X150151000Y-82716281D01*
X150151000Y-82160519D01*
X150054853Y-81928400D01*
X159840599Y-81928400D01*
X170748336Y-92836139D01*
X170354375Y-93099375D01*
X170155000Y-93397761D01*
X169955625Y-93099375D01*
X169464418Y-92771161D01*
X169031256Y-92685000D01*
X168738744Y-92685000D01*
X168305582Y-92771161D01*
X167814375Y-93099375D01*
X167615000Y-93397761D01*
X167415625Y-93099375D01*
X166924418Y-92771161D01*
X166491256Y-92685000D01*
X166198744Y-92685000D01*
X165765582Y-92771161D01*
X165274375Y-93099375D01*
X165075000Y-93397761D01*
X164875625Y-93099375D01*
X164384418Y-92771161D01*
X163951256Y-92685000D01*
X163658744Y-92685000D01*
X163225582Y-92771161D01*
X162734375Y-93099375D01*
X162535000Y-93397761D01*
X162335625Y-93099375D01*
X161844418Y-92771161D01*
X161411256Y-92685000D01*
X161118744Y-92685000D01*
X160685582Y-92771161D01*
X160194375Y-93099375D01*
X159995000Y-93397761D01*
X159795625Y-93099375D01*
X159304418Y-92771161D01*
X158871256Y-92685000D01*
X158578744Y-92685000D01*
X158145582Y-92771161D01*
X157654375Y-93099375D01*
X157642184Y-93117619D01*
X157633157Y-93072235D01*
X157492809Y-92862191D01*
X157282765Y-92721843D01*
X157035000Y-92672560D01*
X155335000Y-92672560D01*
X155087235Y-92721843D01*
X154877191Y-92862191D01*
X154736843Y-93072235D01*
X154687560Y-93320000D01*
X154687560Y-95020000D01*
X154736843Y-95267765D01*
X154877191Y-95477809D01*
X155087235Y-95618157D01*
X155335000Y-95667440D01*
X157035000Y-95667440D01*
X157282765Y-95618157D01*
X157492809Y-95477809D01*
X157633157Y-95267765D01*
X157642184Y-95222381D01*
X157654375Y-95240625D01*
X158145582Y-95568839D01*
X158578744Y-95655000D01*
X158871256Y-95655000D01*
X159304418Y-95568839D01*
X159795625Y-95240625D01*
X159995000Y-94942239D01*
X160194375Y-95240625D01*
X160685582Y-95568839D01*
X161118744Y-95655000D01*
X161411256Y-95655000D01*
X161844418Y-95568839D01*
X162335625Y-95240625D01*
X162535000Y-94942239D01*
X162734375Y-95240625D01*
X163225582Y-95568839D01*
X163658744Y-95655000D01*
X163951256Y-95655000D01*
X164384418Y-95568839D01*
X164875625Y-95240625D01*
X165075000Y-94942239D01*
X165274375Y-95240625D01*
X165765582Y-95568839D01*
X166198744Y-95655000D01*
X166491256Y-95655000D01*
X166924418Y-95568839D01*
X167415625Y-95240625D01*
X167615000Y-94942239D01*
X167814375Y-95240625D01*
X168305582Y-95568839D01*
X168738744Y-95655000D01*
X169031256Y-95655000D01*
X169464418Y-95568839D01*
X169955625Y-95240625D01*
X170155000Y-94942239D01*
X170354375Y-95240625D01*
X170845582Y-95568839D01*
X171278744Y-95655000D01*
X171571256Y-95655000D01*
X172004418Y-95568839D01*
X172495625Y-95240625D01*
X172695000Y-94942239D01*
X172894375Y-95240625D01*
X173385582Y-95568839D01*
X173818744Y-95655000D01*
X174111256Y-95655000D01*
X174544418Y-95568839D01*
X175035625Y-95240625D01*
X175235000Y-94942239D01*
X175434375Y-95240625D01*
X175925582Y-95568839D01*
X176358744Y-95655000D01*
X176651256Y-95655000D01*
X177084418Y-95568839D01*
X177575625Y-95240625D01*
X177775000Y-94942239D01*
X177974375Y-95240625D01*
X178465582Y-95568839D01*
X178898744Y-95655000D01*
X179191256Y-95655000D01*
X179624418Y-95568839D01*
X180115625Y-95240625D01*
X180328843Y-94921522D01*
X180389817Y-95051358D01*
X180818076Y-95441645D01*
X181228110Y-95611476D01*
X181458000Y-95490155D01*
X181458000Y-94297000D01*
X181712000Y-94297000D01*
X181712000Y-95490155D01*
X181941890Y-95611476D01*
X182351924Y-95441645D01*
X182780183Y-95051358D01*
X183026486Y-94526892D01*
X182905819Y-94297000D01*
X181712000Y-94297000D01*
X181458000Y-94297000D01*
X181438000Y-94297000D01*
X181438000Y-94043000D01*
X181458000Y-94043000D01*
X181458000Y-92849845D01*
X181712000Y-92849845D01*
X181712000Y-94043000D01*
X182905819Y-94043000D01*
X183026486Y-93813108D01*
X182780183Y-93288642D01*
X182351924Y-92898355D01*
X181941890Y-92728524D01*
X181712000Y-92849845D01*
X181458000Y-92849845D01*
X181228110Y-92728524D01*
X180818076Y-92898355D01*
X180389817Y-93288642D01*
X180328843Y-93418478D01*
X180115625Y-93099375D01*
X179624418Y-92771161D01*
X179191256Y-92685000D01*
X178898744Y-92685000D01*
X178465582Y-92771161D01*
X177974375Y-93099375D01*
X177775000Y-93397761D01*
X177575625Y-93099375D01*
X177084418Y-92771161D01*
X176651256Y-92685000D01*
X176358744Y-92685000D01*
X175925582Y-92771161D01*
X175434375Y-93099375D01*
X175235000Y-93397761D01*
X175035625Y-93099375D01*
X174544418Y-92771161D01*
X174111256Y-92685000D01*
X173818744Y-92685000D01*
X173385582Y-92771161D01*
X173054312Y-92992509D01*
X160745731Y-80683930D01*
X160703329Y-80620471D01*
X160451937Y-80452496D01*
X160230252Y-80408400D01*
X160230247Y-80408400D01*
X160155400Y-80393512D01*
X160080553Y-80408400D01*
X157521872Y-80408400D01*
X157538931Y-80382870D01*
X180437127Y-57484675D01*
X180487235Y-57518157D01*
X180735000Y-57567440D01*
X182435000Y-57567440D01*
X182682765Y-57518157D01*
X182892809Y-57377809D01*
X183033157Y-57167765D01*
X183082440Y-56920000D01*
X183082440Y-55220000D01*
X183033157Y-54972235D01*
X182892809Y-54762191D01*
X182682765Y-54621843D01*
X182435000Y-54572560D01*
X180735000Y-54572560D01*
X180487235Y-54621843D01*
X180277191Y-54762191D01*
X180136843Y-54972235D01*
X180127816Y-55017619D01*
X180115625Y-54999375D01*
X179624418Y-54671161D01*
X179191256Y-54585000D01*
X178898744Y-54585000D01*
X178465582Y-54671161D01*
X177974375Y-54999375D01*
X177775000Y-55297761D01*
X177575625Y-54999375D01*
X177084418Y-54671161D01*
X176651256Y-54585000D01*
X176358744Y-54585000D01*
X175925582Y-54671161D01*
X175434375Y-54999375D01*
X175235000Y-55297761D01*
X175035625Y-54999375D01*
X174544418Y-54671161D01*
X174111256Y-54585000D01*
X173818744Y-54585000D01*
X173385582Y-54671161D01*
X172894375Y-54999375D01*
X172695000Y-55297761D01*
X172495625Y-54999375D01*
X172004418Y-54671161D01*
X171571256Y-54585000D01*
X171316870Y-54585000D01*
X171290905Y-54454464D01*
X171290905Y-54454463D01*
X171185070Y-54296071D01*
X171165845Y-54267299D01*
X171124504Y-54059463D01*
X170956529Y-53808071D01*
X170705137Y-53640096D01*
X170483452Y-53596000D01*
X170254847Y-53596000D01*
X170180000Y-53581112D01*
X170105153Y-53596000D01*
X153688237Y-53596000D01*
X153613390Y-53581112D01*
X153538543Y-53596000D01*
X153538538Y-53596000D01*
X153316853Y-53640096D01*
X153065461Y-53808071D01*
X153023061Y-53871527D01*
X152307989Y-54586600D01*
X148574167Y-54586600D01*
X148894741Y-54266026D01*
X149235000Y-53444569D01*
X149235000Y-52555431D01*
X149152736Y-52356827D01*
X149448510Y-52652602D01*
X149488119Y-52711881D01*
X149547398Y-52751490D01*
X149547399Y-52751491D01*
X149722971Y-52868805D01*
X150000000Y-52923909D01*
X150069926Y-52910000D01*
X152930076Y-52910000D01*
X153000000Y-52923909D01*
X153069924Y-52910000D01*
X153069926Y-52910000D01*
X153277028Y-52868805D01*
X153511881Y-52711881D01*
X153551494Y-52652596D01*
X155494092Y-50710000D01*
X197505910Y-50710000D01*
X197643175Y-50847265D01*
X197444569Y-50765000D01*
X196555431Y-50765000D01*
X195733974Y-51105259D01*
X195105259Y-51733974D01*
X194765000Y-52555431D01*
X194765000Y-53444569D01*
X195105259Y-54266026D01*
X195733974Y-54894741D01*
X196555431Y-55235000D01*
X197444569Y-55235000D01*
X198266026Y-54894741D01*
X198894741Y-54266026D01*
X199235000Y-53444569D01*
X199235000Y-52555431D01*
X199152736Y-52356827D01*
X199290000Y-52494092D01*
X199290001Y-97505907D01*
X199152736Y-97643173D01*
X199235000Y-97444569D01*
X199235000Y-96555431D01*
X198894741Y-95733974D01*
X198266026Y-95105259D01*
X197444569Y-94765000D01*
X196555431Y-94765000D01*
X195733974Y-95105259D01*
X195105259Y-95733974D01*
X194765000Y-96555431D01*
X194765000Y-97444569D01*
X195105259Y-98266026D01*
X195733974Y-98894741D01*
X196555431Y-99235000D01*
X197444569Y-99235000D01*
X197643175Y-99152735D01*
X197505910Y-99290000D01*
X155494092Y-99290000D01*
X153551494Y-97347404D01*
X153511881Y-97288119D01*
X153277028Y-97131195D01*
X153069926Y-97090000D01*
X153069924Y-97090000D01*
X153000000Y-97076091D01*
X152930076Y-97090000D01*
X150069926Y-97090000D01*
X150000000Y-97076091D01*
X149722971Y-97131195D01*
X149547399Y-97248509D01*
X149488119Y-97288119D01*
X149448510Y-97347398D01*
X149152736Y-97643173D01*
X149235000Y-97444569D01*
X149235000Y-96555431D01*
X148894741Y-95733974D01*
X148266026Y-95105259D01*
X147444569Y-94765000D01*
X146555431Y-94765000D01*
X145733974Y-95105259D01*
X145105259Y-95733974D01*
X144765000Y-96555431D01*
X144765000Y-97444569D01*
X145105259Y-98266026D01*
X145733974Y-98894741D01*
X146555431Y-99235000D01*
X147444569Y-99235000D01*
X147643175Y-99152735D01*
X147505910Y-99290000D01*
X102494092Y-99290000D01*
X102356827Y-99152736D01*
X102555431Y-99235000D01*
X103444569Y-99235000D01*
X104266026Y-98894741D01*
X104894741Y-98266026D01*
X105235000Y-97444569D01*
X105235000Y-96654887D01*
X105265000Y-96654887D01*
X105265000Y-97345113D01*
X105529138Y-97982799D01*
X106017201Y-98470862D01*
X106654887Y-98735000D01*
X107345113Y-98735000D01*
X107982799Y-98470862D01*
X108470862Y-97982799D01*
X108735000Y-97345113D01*
X108735000Y-96654887D01*
X141265000Y-96654887D01*
X141265000Y-97345113D01*
X141529138Y-97982799D01*
X142017201Y-98470862D01*
X142654887Y-98735000D01*
X143345113Y-98735000D01*
X143982799Y-98470862D01*
X144470862Y-97982799D01*
X144735000Y-97345113D01*
X144735000Y-96654887D01*
X144470862Y-96017201D01*
X143982799Y-95529138D01*
X143345113Y-95265000D01*
X142654887Y-95265000D01*
X142017201Y-95529138D01*
X141529138Y-96017201D01*
X141265000Y-96654887D01*
X108735000Y-96654887D01*
X108470862Y-96017201D01*
X107982799Y-95529138D01*
X107345113Y-95265000D01*
X106654887Y-95265000D01*
X106017201Y-95529138D01*
X105529138Y-96017201D01*
X105265000Y-96654887D01*
X105235000Y-96654887D01*
X105235000Y-96555431D01*
X104894741Y-95733974D01*
X104266026Y-95105259D01*
X103444569Y-94765000D01*
X102555431Y-94765000D01*
X101733974Y-95105259D01*
X101105259Y-95733974D01*
X100765000Y-96555431D01*
X100765000Y-97444569D01*
X100847265Y-97643175D01*
X100710000Y-97505910D01*
X100710000Y-52494090D01*
X100847265Y-52356825D01*
X100765000Y-52555431D01*
X100765000Y-53444569D01*
X101105259Y-54266026D01*
X101733974Y-54894741D01*
X102555431Y-55235000D01*
X103444569Y-55235000D01*
X104266026Y-54894741D01*
X104894741Y-54266026D01*
X105235000Y-53444569D01*
X105235000Y-52654887D01*
X105265000Y-52654887D01*
X105265000Y-53345113D01*
X105529138Y-53982799D01*
X106017201Y-54470862D01*
X106654887Y-54735000D01*
X107345113Y-54735000D01*
X107982799Y-54470862D01*
X108470862Y-53982799D01*
X108735000Y-53345113D01*
X108735000Y-52654887D01*
X141265000Y-52654887D01*
X141265000Y-53345113D01*
X141529138Y-53982799D01*
X142017201Y-54470862D01*
X142654887Y-54735000D01*
X143345113Y-54735000D01*
X143982799Y-54470862D01*
X144470862Y-53982799D01*
X144735000Y-53345113D01*
X144735000Y-52654887D01*
X144470862Y-52017201D01*
X143982799Y-51529138D01*
X143345113Y-51265000D01*
X142654887Y-51265000D01*
X142017201Y-51529138D01*
X141529138Y-52017201D01*
X141265000Y-52654887D01*
X108735000Y-52654887D01*
X108470862Y-52017201D01*
X107982799Y-51529138D01*
X107345113Y-51265000D01*
X106654887Y-51265000D01*
X106017201Y-51529138D01*
X105529138Y-52017201D01*
X105265000Y-52654887D01*
X105235000Y-52654887D01*
X105235000Y-52555431D01*
X104894741Y-51733974D01*
X104266026Y-51105259D01*
X103444569Y-50765000D01*
X102555431Y-50765000D01*
X102356827Y-50847264D01*
X102494092Y-50710000D01*
X147505910Y-50710000D01*
X147643175Y-50847265D01*
G36*
X170354375Y-57140625D02*
X170748337Y-57403862D01*
X162612399Y-65539800D01*
X150825500Y-65539800D01*
X150825500Y-65368626D01*
X150667931Y-64988220D01*
X150376780Y-64697069D01*
X150151000Y-64603548D01*
X150151000Y-64380519D01*
X150124226Y-64315880D01*
X152896273Y-64315880D01*
X152971120Y-64330768D01*
X153045967Y-64315880D01*
X153045972Y-64315880D01*
X153267657Y-64271784D01*
X153519049Y-64103809D01*
X153561451Y-64040350D01*
X160354312Y-57247491D01*
X160685582Y-57468839D01*
X161118744Y-57555000D01*
X161411256Y-57555000D01*
X161844418Y-57468839D01*
X162335625Y-57140625D01*
X162535000Y-56842239D01*
X162734375Y-57140625D01*
X163225582Y-57468839D01*
X163658744Y-57555000D01*
X163951256Y-57555000D01*
X164384418Y-57468839D01*
X164875625Y-57140625D01*
X165075000Y-56842239D01*
X165274375Y-57140625D01*
X165765582Y-57468839D01*
X166198744Y-57555000D01*
X166491256Y-57555000D01*
X166924418Y-57468839D01*
X167415625Y-57140625D01*
X167615000Y-56842239D01*
X167814375Y-57140625D01*
X168305582Y-57468839D01*
X168738744Y-57555000D01*
X169031256Y-57555000D01*
X169464418Y-57468839D01*
X169955625Y-57140625D01*
X170155000Y-56842239D01*
X170354375Y-57140625D01*
X170354375Y-57140625D01*
G37*
X170354375Y-57140625D02*
X170748337Y-57403862D01*
X162612399Y-65539800D01*
X150825500Y-65539800D01*
X150825500Y-65368626D01*
X150667931Y-64988220D01*
X150376780Y-64697069D01*
X150151000Y-64603548D01*
X150151000Y-64380519D01*
X150124226Y-64315880D01*
X152896273Y-64315880D01*
X152971120Y-64330768D01*
X153045967Y-64315880D01*
X153045972Y-64315880D01*
X153267657Y-64271784D01*
X153519049Y-64103809D01*
X153561451Y-64040350D01*
X160354312Y-57247491D01*
X160685582Y-57468839D01*
X161118744Y-57555000D01*
X161411256Y-57555000D01*
X161844418Y-57468839D01*
X162335625Y-57140625D01*
X162535000Y-56842239D01*
X162734375Y-57140625D01*
X163225582Y-57468839D01*
X163658744Y-57555000D01*
X163951256Y-57555000D01*
X164384418Y-57468839D01*
X164875625Y-57140625D01*
X165075000Y-56842239D01*
X165274375Y-57140625D01*
X165765582Y-57468839D01*
X166198744Y-57555000D01*
X166491256Y-57555000D01*
X166924418Y-57468839D01*
X167415625Y-57140625D01*
X167615000Y-56842239D01*
X167814375Y-57140625D01*
X168305582Y-57468839D01*
X168738744Y-57555000D01*
X169031256Y-57555000D01*
X169464418Y-57468839D01*
X169955625Y-57140625D01*
X170155000Y-56842239D01*
X170354375Y-57140625D01*
G36*
X146726000Y-56921400D02*
X147348895Y-56921400D01*
X147361608Y-57175400D01*
X146726000Y-57175400D01*
X146726000Y-58024650D01*
X146884750Y-58183400D01*
X147997789Y-58183400D01*
X148022857Y-58270797D01*
X148172285Y-58324108D01*
X148022857Y-58386003D01*
X148003526Y-58453400D01*
X146884750Y-58453400D01*
X146726000Y-58612150D01*
X146726000Y-59461400D01*
X147347894Y-59461400D01*
X147360607Y-59715400D01*
X146726000Y-59715400D01*
X146726000Y-60564650D01*
X146884750Y-60723400D01*
X147992053Y-60723400D01*
X148020400Y-60822231D01*
X147969920Y-60843141D01*
X147921923Y-60993400D01*
X147788608Y-60993400D01*
X147774938Y-60979730D01*
X147761268Y-60993400D01*
X146884750Y-60993400D01*
X146726000Y-61152150D01*
X146726000Y-62001400D01*
X147261385Y-62001400D01*
X147272749Y-62255400D01*
X146726000Y-62255400D01*
X146726000Y-62275400D01*
X146472000Y-62275400D01*
X146472000Y-62255400D01*
X144547750Y-62255400D01*
X144389000Y-62414150D01*
X144389000Y-62754710D01*
X144485673Y-62988099D01*
X144567249Y-63069674D01*
X144566091Y-63071407D01*
X144434055Y-63203444D01*
X144371080Y-63140469D01*
X143990674Y-62982900D01*
X143650838Y-62982900D01*
X143722157Y-62876165D01*
X143771440Y-62628400D01*
X143771440Y-61907471D01*
X143858180Y-61943400D01*
X144289820Y-61943400D01*
X144431192Y-61884842D01*
X144547750Y-62001400D01*
X146472000Y-62001400D01*
X146472000Y-61152150D01*
X146313250Y-60993400D01*
X145159000Y-60993400D01*
X145159000Y-60723400D01*
X146313250Y-60723400D01*
X146472000Y-60564650D01*
X146472000Y-59715400D01*
X144547750Y-59715400D01*
X144431192Y-59831958D01*
X144289820Y-59773400D01*
X143858180Y-59773400D01*
X143771440Y-59809329D01*
X143771440Y-59367471D01*
X143858180Y-59403400D01*
X144289820Y-59403400D01*
X144431192Y-59344842D01*
X144547750Y-59461400D01*
X146472000Y-59461400D01*
X146472000Y-58612150D01*
X146313250Y-58453400D01*
X145159000Y-58453400D01*
X145159000Y-58183400D01*
X146313250Y-58183400D01*
X146472000Y-58024650D01*
X146472000Y-57175400D01*
X146452000Y-57175400D01*
X146452000Y-56921400D01*
X146472000Y-56921400D01*
X146472000Y-56901400D01*
X146726000Y-56901400D01*
X146726000Y-56921400D01*
X146726000Y-56921400D01*
G37*
X146726000Y-56921400D02*
X147348895Y-56921400D01*
X147361608Y-57175400D01*
X146726000Y-57175400D01*
X146726000Y-58024650D01*
X146884750Y-58183400D01*
X147997789Y-58183400D01*
X148022857Y-58270797D01*
X148172285Y-58324108D01*
X148022857Y-58386003D01*
X148003526Y-58453400D01*
X146884750Y-58453400D01*
X146726000Y-58612150D01*
X146726000Y-59461400D01*
X147347894Y-59461400D01*
X147360607Y-59715400D01*
X146726000Y-59715400D01*
X146726000Y-60564650D01*
X146884750Y-60723400D01*
X147992053Y-60723400D01*
X148020400Y-60822231D01*
X147969920Y-60843141D01*
X147921923Y-60993400D01*
X147788608Y-60993400D01*
X147774938Y-60979730D01*
X147761268Y-60993400D01*
X146884750Y-60993400D01*
X146726000Y-61152150D01*
X146726000Y-62001400D01*
X147261385Y-62001400D01*
X147272749Y-62255400D01*
X146726000Y-62255400D01*
X146726000Y-62275400D01*
X146472000Y-62275400D01*
X146472000Y-62255400D01*
X144547750Y-62255400D01*
X144389000Y-62414150D01*
X144389000Y-62754710D01*
X144485673Y-62988099D01*
X144567249Y-63069674D01*
X144566091Y-63071407D01*
X144434055Y-63203444D01*
X144371080Y-63140469D01*
X143990674Y-62982900D01*
X143650838Y-62982900D01*
X143722157Y-62876165D01*
X143771440Y-62628400D01*
X143771440Y-61907471D01*
X143858180Y-61943400D01*
X144289820Y-61943400D01*
X144431192Y-61884842D01*
X144547750Y-62001400D01*
X146472000Y-62001400D01*
X146472000Y-61152150D01*
X146313250Y-60993400D01*
X145159000Y-60993400D01*
X145159000Y-60723400D01*
X146313250Y-60723400D01*
X146472000Y-60564650D01*
X146472000Y-59715400D01*
X144547750Y-59715400D01*
X144431192Y-59831958D01*
X144289820Y-59773400D01*
X143858180Y-59773400D01*
X143771440Y-59809329D01*
X143771440Y-59367471D01*
X143858180Y-59403400D01*
X144289820Y-59403400D01*
X144431192Y-59344842D01*
X144547750Y-59461400D01*
X146472000Y-59461400D01*
X146472000Y-58612150D01*
X146313250Y-58453400D01*
X145159000Y-58453400D01*
X145159000Y-58183400D01*
X146313250Y-58183400D01*
X146472000Y-58024650D01*
X146472000Y-57175400D01*
X146452000Y-57175400D01*
X146452000Y-56921400D01*
X146472000Y-56921400D01*
X146472000Y-56901400D01*
X146726000Y-56901400D01*
X146726000Y-56921400D01*
G36*
X154743514Y-55713108D02*
X154864181Y-55943000D01*
X156058000Y-55943000D01*
X156058000Y-55923000D01*
X156312000Y-55923000D01*
X156312000Y-55943000D01*
X156332000Y-55943000D01*
X156332000Y-56197000D01*
X156312000Y-56197000D01*
X156312000Y-57390155D01*
X156541890Y-57511476D01*
X156951924Y-57341645D01*
X157380183Y-56951358D01*
X157441157Y-56821522D01*
X157654375Y-57140625D01*
X158048336Y-57403861D01*
X152656319Y-62795880D01*
X150095184Y-62795880D01*
X150250718Y-62367121D01*
X150224315Y-61776942D01*
X150049259Y-61354320D01*
X149797958Y-61274047D01*
X148933605Y-62138400D01*
X148947748Y-62152543D01*
X148768143Y-62332148D01*
X148754000Y-62318005D01*
X148739858Y-62332148D01*
X148560253Y-62152543D01*
X148574395Y-62138400D01*
X148560253Y-62124258D01*
X148739858Y-61944653D01*
X148754000Y-61958795D01*
X149618353Y-61094442D01*
X149538080Y-60843141D01*
X149486925Y-60824584D01*
X149554608Y-60588613D01*
X148754000Y-59788005D01*
X148739858Y-59802148D01*
X148560253Y-59622543D01*
X148574395Y-59608400D01*
X148933605Y-59608400D01*
X149734213Y-60409008D01*
X149976397Y-60339543D01*
X150163144Y-59816098D01*
X150135362Y-59261032D01*
X149976397Y-58877257D01*
X149734213Y-58807792D01*
X148933605Y-59608400D01*
X148574395Y-59608400D01*
X148560253Y-59594258D01*
X148739858Y-59414653D01*
X148754000Y-59428795D01*
X149554608Y-58628187D01*
X149485143Y-58386003D01*
X149335715Y-58332692D01*
X149485143Y-58270797D01*
X149554608Y-58028613D01*
X148754000Y-57228005D01*
X148739858Y-57242148D01*
X148560253Y-57062543D01*
X148574395Y-57048400D01*
X148560253Y-57034258D01*
X148739858Y-56854653D01*
X148754000Y-56868795D01*
X148768143Y-56854653D01*
X148947748Y-57034258D01*
X148933605Y-57048400D01*
X149734213Y-57849008D01*
X149976397Y-57779543D01*
X150163144Y-57256098D01*
X150135811Y-56710000D01*
X152580953Y-56710000D01*
X152655800Y-56724888D01*
X152730647Y-56710000D01*
X152730652Y-56710000D01*
X152952337Y-56665904D01*
X153203729Y-56497929D01*
X153246131Y-56434470D01*
X153253709Y-56426892D01*
X154743514Y-56426892D01*
X154989817Y-56951358D01*
X155418076Y-57341645D01*
X155828110Y-57511476D01*
X156058000Y-57390155D01*
X156058000Y-56197000D01*
X154864181Y-56197000D01*
X154743514Y-56426892D01*
X153253709Y-56426892D01*
X154034202Y-55646400D01*
X154774842Y-55646400D01*
X154743514Y-55713108D01*
X154743514Y-55713108D01*
G37*
X154743514Y-55713108D02*
X154864181Y-55943000D01*
X156058000Y-55943000D01*
X156058000Y-55923000D01*
X156312000Y-55923000D01*
X156312000Y-55943000D01*
X156332000Y-55943000D01*
X156332000Y-56197000D01*
X156312000Y-56197000D01*
X156312000Y-57390155D01*
X156541890Y-57511476D01*
X156951924Y-57341645D01*
X157380183Y-56951358D01*
X157441157Y-56821522D01*
X157654375Y-57140625D01*
X158048336Y-57403861D01*
X152656319Y-62795880D01*
X150095184Y-62795880D01*
X150250718Y-62367121D01*
X150224315Y-61776942D01*
X150049259Y-61354320D01*
X149797958Y-61274047D01*
X148933605Y-62138400D01*
X148947748Y-62152543D01*
X148768143Y-62332148D01*
X148754000Y-62318005D01*
X148739858Y-62332148D01*
X148560253Y-62152543D01*
X148574395Y-62138400D01*
X148560253Y-62124258D01*
X148739858Y-61944653D01*
X148754000Y-61958795D01*
X149618353Y-61094442D01*
X149538080Y-60843141D01*
X149486925Y-60824584D01*
X149554608Y-60588613D01*
X148754000Y-59788005D01*
X148739858Y-59802148D01*
X148560253Y-59622543D01*
X148574395Y-59608400D01*
X148933605Y-59608400D01*
X149734213Y-60409008D01*
X149976397Y-60339543D01*
X150163144Y-59816098D01*
X150135362Y-59261032D01*
X149976397Y-58877257D01*
X149734213Y-58807792D01*
X148933605Y-59608400D01*
X148574395Y-59608400D01*
X148560253Y-59594258D01*
X148739858Y-59414653D01*
X148754000Y-59428795D01*
X149554608Y-58628187D01*
X149485143Y-58386003D01*
X149335715Y-58332692D01*
X149485143Y-58270797D01*
X149554608Y-58028613D01*
X148754000Y-57228005D01*
X148739858Y-57242148D01*
X148560253Y-57062543D01*
X148574395Y-57048400D01*
X148560253Y-57034258D01*
X148739858Y-56854653D01*
X148754000Y-56868795D01*
X148768143Y-56854653D01*
X148947748Y-57034258D01*
X148933605Y-57048400D01*
X149734213Y-57849008D01*
X149976397Y-57779543D01*
X150163144Y-57256098D01*
X150135811Y-56710000D01*
X152580953Y-56710000D01*
X152655800Y-56724888D01*
X152730647Y-56710000D01*
X152730652Y-56710000D01*
X152952337Y-56665904D01*
X153203729Y-56497929D01*
X153246131Y-56434470D01*
X153253709Y-56426892D01*
X154743514Y-56426892D01*
X154989817Y-56951358D01*
X155418076Y-57341645D01*
X155828110Y-57511476D01*
X156058000Y-57390155D01*
X156058000Y-56197000D01*
X154864181Y-56197000D01*
X154743514Y-56426892D01*
X153253709Y-56426892D01*
X154034202Y-55646400D01*
X154774842Y-55646400D01*
X154743514Y-55713108D01*
G04 #@! TD*
M02*
