M48
;DRILL file {KiCad 5.0.2-bee76a0~70~ubuntu18.04.1} date 2019年05月05日 14時27分46秒
;FORMAT={-:-/ absolute / metric / decimal}
FMAT,2
METRIC,TZ
T1C0.400
T2C1.000
%
G90
G05
T1
X105.339Y-54.9
X105.339Y-94.915
X137.211Y-63.403
X137.262Y-86.309
X139.394Y-62.138
X139.394Y-87.528
X140.523Y-98.308
X140.739Y-78.481
X141.173Y-66.084
X141.187Y-58.475
X142.936Y-83.901
X142.969Y-81.328
X142.969Y-81.328
X143.242Y-69.748
X143.379Y-92.608
X143.449Y-71.157
X143.725Y-64.668
X143.732Y-74.828
X143.742Y-56.651
X143.753Y-79.908
X143.9Y-90.068
X144.78Y-69.748
X144.882Y-54.747
X145.166Y-76.257
X148.754Y-62.138
X148.754Y-87.518
X149.657Y-96.815
X150.126Y-74.838
X150.141Y-67.126
X150.205Y-72.288
X150.266Y-77.267
X150.317Y-79.903
X150.419Y-82.438
X150.419Y-84.988
X150.52Y-91.389
X150.638Y-70.831
X150.927Y-87.173
X151.521Y-68.971
X151.689Y-53.34
X152.298Y-63.805
X152.552Y-94.234
X153.721Y-70.866
X154.932Y-87.13
X155.651Y-50.698
X155.651Y-68.936
X156.007Y-85.801
X158.039Y-58.42
X159.98Y-60.513
X160.071Y-92.659
X161.087Y-72.761
X162.052Y-63.652
X162.755Y-92.413
X168.91Y-58.623
X171.155Y-72.68
X177.648Y-92.405
X180.086Y-92.405
X182.931Y-92.354
X188.158Y-59.05
T2
X156.185Y-56.07
X158.725Y-56.07
X161.265Y-56.07
X163.805Y-56.07
X166.345Y-56.07
X168.885Y-56.07
X171.425Y-56.07
X173.965Y-56.07
X176.505Y-56.07
X179.045Y-56.07
X181.585Y-56.07
X184.125Y-56.07
X186.665Y-56.07
X189.205Y-56.07
X156.185Y-94.17
X158.725Y-94.17
X161.265Y-94.17
X163.805Y-94.17
X166.345Y-94.17
X168.885Y-94.17
X171.425Y-94.17
X173.965Y-94.17
X176.505Y-94.17
X179.045Y-94.17
X181.585Y-94.17
X184.125Y-94.17
X186.665Y-94.17
X189.205Y-94.17
T0
M30
