G04 #@! TF.GenerationSoftware,KiCad,Pcbnew,5.0.0-rc3-6a2723a~65~ubuntu17.10.1*
G04 #@! TF.CreationDate,2018-07-07T11:57:14+09:00*
G04 #@! TF.ProjectId,M5StackSideBB,4D35537461636B5369646542422E6B69,rev?*
G04 #@! TF.SameCoordinates,Original*
G04 #@! TF.FileFunction,Paste,Top*
G04 #@! TF.FilePolarity,Positive*
%FSLAX46Y46*%
G04 Gerber Fmt 4.6, Leading zero omitted, Abs format (unit mm)*
G04 Created by KiCad (PCBNEW 5.0.0-rc3-6a2723a~65~ubuntu17.10.1) date Sat Jul  7 11:57:14 2018*
%MOMM*%
%LPD*%
G01*
G04 APERTURE LIST*
%ADD10C,1.524000*%
%ADD11R,3.150000X1.000000*%
G04 APERTURE END LIST*
D10*
G04 #@! TO.C,J4*
X149054000Y-92608400D03*
X149054000Y-90078400D03*
X149054000Y-87518400D03*
X149054000Y-84988400D03*
X149054000Y-82438400D03*
X149054000Y-79898400D03*
X149054000Y-77358400D03*
X149054000Y-74838400D03*
X149054000Y-72278400D03*
X149054000Y-69748400D03*
X149054000Y-67198400D03*
X149054000Y-64658400D03*
X149054000Y-62138400D03*
X149054000Y-59608400D03*
X149054000Y-57048400D03*
X139694000Y-92628400D03*
X139694000Y-90048400D03*
X139694000Y-87528400D03*
X139694000Y-84998400D03*
X139694000Y-82428400D03*
X139694000Y-79888400D03*
X139694000Y-77358400D03*
X139694000Y-74838400D03*
X139694000Y-72268400D03*
X139694000Y-69758400D03*
X139694000Y-67178400D03*
X139694000Y-64648400D03*
X139694000Y-62138400D03*
X139694000Y-59578400D03*
X139694000Y-57048400D03*
D11*
X146899000Y-92608400D03*
X141849000Y-92608400D03*
X146899000Y-90068400D03*
X141849000Y-90068400D03*
X146899000Y-87528400D03*
X141849000Y-87528400D03*
X146899000Y-84988400D03*
X141849000Y-84988400D03*
X146899000Y-82448400D03*
X141849000Y-82448400D03*
X146899000Y-79908400D03*
X141849000Y-79908400D03*
X146899000Y-77368400D03*
X141849000Y-77368400D03*
X146899000Y-74828400D03*
X141849000Y-74828400D03*
X146899000Y-72288400D03*
X141849000Y-72288400D03*
X146899000Y-69748400D03*
X141849000Y-69748400D03*
X146899000Y-67208400D03*
X141849000Y-67208400D03*
X146899000Y-64668400D03*
X141849000Y-64668400D03*
X146899000Y-62128400D03*
X141849000Y-62128400D03*
X146899000Y-59588400D03*
X141849000Y-59588400D03*
X146899000Y-57048400D03*
X141849000Y-57048400D03*
G04 #@! TD*
M02*
