G04 #@! TF.GenerationSoftware,KiCad,Pcbnew,5.0.2-bee76a0~70~ubuntu18.04.1*
G04 #@! TF.CreationDate,2018-12-24T08:31:51+09:00*
G04 #@! TF.ProjectId,M5StackSideBB,4d355374-6163-46b5-9369-646542422e6b,rev?*
G04 #@! TF.SameCoordinates,Original*
G04 #@! TF.FileFunction,Copper,L1,Top*
G04 #@! TF.FilePolarity,Positive*
%FSLAX46Y46*%
G04 Gerber Fmt 4.6, Leading zero omitted, Abs format (unit mm)*
G04 Created by KiCad (PCBNEW 5.0.2-bee76a0~70~ubuntu18.04.1) date 2018年12月24日 08時31分51秒*
%MOMM*%
%LPD*%
G01*
G04 APERTURE LIST*
G04 #@! TA.AperFunction,ComponentPad*
%ADD10O,1.700000X1.700000*%
G04 #@! TD*
G04 #@! TA.AperFunction,ComponentPad*
%ADD11R,1.700000X1.700000*%
G04 #@! TD*
G04 #@! TA.AperFunction,BGAPad,CuDef*
%ADD12C,1.524000*%
G04 #@! TD*
G04 #@! TA.AperFunction,ComponentPad*
%ADD13C,1.700000*%
G04 #@! TD*
G04 #@! TA.AperFunction,ViaPad*
%ADD14C,0.800000*%
G04 #@! TD*
G04 #@! TA.AperFunction,Conductor*
%ADD15C,0.250000*%
G04 #@! TD*
G04 #@! TA.AperFunction,Conductor*
%ADD16C,0.254000*%
G04 #@! TD*
G04 APERTURE END LIST*
D10*
G04 #@! TO.P,J1,14*
G04 #@! TO.N,RST*
X189205000Y-56070000D03*
G04 #@! TO.P,J1,13*
G04 #@! TO.N,G36*
X186665000Y-56070000D03*
G04 #@! TO.P,J1,12*
G04 #@! TO.N,G35*
X184125000Y-56070000D03*
G04 #@! TO.P,J1,11*
G04 #@! TO.N,G26*
X181585000Y-56070000D03*
G04 #@! TO.P,J1,10*
G04 #@! TO.N,G25*
X179045000Y-56070000D03*
G04 #@! TO.P,J1,9*
G04 #@! TO.N,G23*
X176505000Y-56070000D03*
G04 #@! TO.P,J1,8*
G04 #@! TO.N,G19*
X173965000Y-56070000D03*
G04 #@! TO.P,J1,7*
G04 #@! TO.N,G18*
X171425000Y-56070000D03*
G04 #@! TO.P,J1,6*
G04 #@! TO.N,G1*
X168885000Y-56070000D03*
G04 #@! TO.P,J1,5*
G04 #@! TO.N,G3*
X166345000Y-56070000D03*
G04 #@! TO.P,J1,4*
G04 #@! TO.N,G22*
X163805000Y-56070000D03*
G04 #@! TO.P,J1,3*
G04 #@! TO.N,G21*
X161265000Y-56070000D03*
G04 #@! TO.P,J1,2*
G04 #@! TO.N,+3V3*
X158725000Y-56070000D03*
D11*
G04 #@! TO.P,J1,1*
G04 #@! TO.N,GND*
X156185000Y-56070000D03*
G04 #@! TD*
G04 #@! TO.P,J2,1*
G04 #@! TO.N,HPWR*
X156185000Y-94170000D03*
D10*
G04 #@! TO.P,J2,2*
G04 #@! TO.N,+BATT*
X158725000Y-94170000D03*
G04 #@! TO.P,J2,3*
G04 #@! TO.N,+5V*
X161265000Y-94170000D03*
G04 #@! TO.P,J2,4*
G04 #@! TO.N,G34*
X163805000Y-94170000D03*
G04 #@! TO.P,J2,5*
G04 #@! TO.N,G15*
X166345000Y-94170000D03*
G04 #@! TO.P,J2,6*
G04 #@! TO.N,G0*
X168885000Y-94170000D03*
G04 #@! TO.P,J2,7*
G04 #@! TO.N,G12*
X171425000Y-94170000D03*
G04 #@! TO.P,J2,8*
G04 #@! TO.N,G13*
X173965000Y-94170000D03*
G04 #@! TO.P,J2,9*
G04 #@! TO.N,G2*
X176505000Y-94170000D03*
G04 #@! TO.P,J2,10*
G04 #@! TO.N,G5*
X179045000Y-94170000D03*
G04 #@! TO.P,J2,11*
G04 #@! TO.N,G16*
X181585000Y-94170000D03*
G04 #@! TO.P,J2,12*
G04 #@! TO.N,G17*
X184125000Y-94170000D03*
G04 #@! TO.P,J2,13*
G04 #@! TO.N,+3V3*
X186665000Y-94170000D03*
G04 #@! TO.P,J2,14*
G04 #@! TO.N,GND*
X189205000Y-94170000D03*
G04 #@! TD*
D12*
G04 #@! TO.P,J3,30*
G04 #@! TO.N,HPWR*
X148754000Y-92608400D03*
G04 #@! TO.P,J3,28*
X148754000Y-90078400D03*
D13*
G04 #@! TO.P,J3,26*
X148754000Y-87518400D03*
D12*
G04 #@! TO.P,J3,24*
G04 #@! TO.N,G15*
X148754000Y-84988400D03*
G04 #@! TO.P,J3,22*
G04 #@! TO.N,G12*
X148754000Y-82438400D03*
G04 #@! TO.P,J3,20*
G04 #@! TO.N,G2*
X148754000Y-79898400D03*
G04 #@! TO.P,J3,18*
G04 #@! TO.N,G21*
X148754000Y-77358400D03*
G04 #@! TO.P,J3,16*
G04 #@! TO.N,G16*
X148754000Y-74838400D03*
G04 #@! TO.P,J3,14*
G04 #@! TO.N,G3*
X148754000Y-72278400D03*
G04 #@! TO.P,J3,12*
G04 #@! TO.N,G18*
X148754000Y-69748400D03*
G04 #@! TO.P,J3,10*
G04 #@! TO.N,G19*
X148754000Y-67198400D03*
G04 #@! TO.P,J3,8*
G04 #@! TO.N,G23*
X148754000Y-64658400D03*
D13*
G04 #@! TO.P,J3,6*
G04 #@! TO.N,GND*
X148754000Y-62138400D03*
D12*
G04 #@! TO.P,J3,4*
X148754000Y-59608400D03*
G04 #@! TO.P,J3,2*
X148754000Y-57048400D03*
G04 #@! TO.P,J3,29*
G04 #@! TO.N,+BATT*
X139394000Y-92628400D03*
G04 #@! TO.P,J3,27*
G04 #@! TO.N,+5V*
X139394000Y-90048400D03*
D13*
G04 #@! TO.P,J3,25*
G04 #@! TO.N,G34*
X139394000Y-87528400D03*
D12*
G04 #@! TO.P,J3,23*
G04 #@! TO.N,G0*
X139394000Y-84998400D03*
G04 #@! TO.P,J3,21*
G04 #@! TO.N,G13*
X139394000Y-82428400D03*
G04 #@! TO.P,J3,19*
G04 #@! TO.N,G5*
X139394000Y-79888400D03*
G04 #@! TO.P,J3,17*
G04 #@! TO.N,G22*
X139394000Y-77358400D03*
G04 #@! TO.P,J3,15*
G04 #@! TO.N,G17*
X139394000Y-74838400D03*
G04 #@! TO.P,J3,13*
G04 #@! TO.N,G1*
X139394000Y-72268400D03*
G04 #@! TO.P,J3,11*
G04 #@! TO.N,+3V3*
X139394000Y-69758400D03*
G04 #@! TO.P,J3,9*
G04 #@! TO.N,G26*
X139394000Y-67178400D03*
G04 #@! TO.P,J3,7*
G04 #@! TO.N,G25*
X139394000Y-64648400D03*
D13*
G04 #@! TO.P,J3,5*
G04 #@! TO.N,RST*
X139394000Y-62138400D03*
D12*
G04 #@! TO.P,J3,3*
G04 #@! TO.N,G36*
X139394000Y-59578400D03*
G04 #@! TO.P,J3,1*
G04 #@! TO.N,G35*
X139394000Y-57048400D03*
G04 #@! TD*
D14*
G04 #@! TO.N,GND*
X171155360Y-72679560D03*
X161086800Y-72760840D03*
X188158120Y-59049920D03*
X105338880Y-54899560D03*
X105338880Y-94914720D03*
X140522960Y-98308160D03*
X149656800Y-96814640D03*
G04 #@! TO.N,G19*
X150141200Y-67125700D03*
G04 #@! TO.N,G18*
X145078900Y-68646000D03*
G04 #@! TO.N,G3*
X150205200Y-72288400D03*
G04 #@! TO.N,G16*
X150126200Y-74838400D03*
G04 #@! TO.N,G21*
X145166300Y-76257100D03*
G04 #@! TO.N,G5*
X143752900Y-79908400D03*
G04 #@! TO.N,G22*
X140739000Y-78480900D03*
G04 #@! TO.N,G17*
X143732400Y-74828400D03*
G04 #@! TO.N,G1*
X143449300Y-71157200D03*
G04 #@! TO.N,G26*
X141173500Y-66084400D03*
G04 #@! TO.N,G25*
X143725300Y-64668400D03*
G04 #@! TO.N,G36*
X141186800Y-58474900D03*
G04 #@! TO.N,G35*
X143742300Y-56651000D03*
G04 #@! TD*
D15*
G04 #@! TO.N,GND*
X156185000Y-56070000D02*
X155009700Y-56070000D01*
X149054000Y-57048400D02*
X154031300Y-57048400D01*
X154031300Y-57048400D02*
X155009700Y-56070000D01*
X148754000Y-57048400D02*
X149054000Y-57048400D01*
X147826500Y-57048400D02*
X148754000Y-57048400D01*
X146899000Y-57048400D02*
X147826500Y-57048400D01*
X147826500Y-59588400D02*
X148754000Y-59588400D01*
X146899000Y-59588400D02*
X147826500Y-59588400D01*
X147826500Y-57048400D02*
X147826500Y-59588400D01*
X146599000Y-62128400D02*
X146899000Y-62128400D01*
X148754000Y-59608400D02*
X148754000Y-62128400D01*
X148754000Y-59588400D02*
X148754000Y-59608400D01*
X146899000Y-62128400D02*
X148754000Y-62128400D01*
X148754000Y-59588400D02*
X149034000Y-59588400D01*
X148754000Y-62128400D02*
X149044000Y-62128400D01*
X148754000Y-62138400D02*
X148754000Y-62128400D01*
X146899000Y-59588400D02*
X146599000Y-59588400D01*
X146899000Y-57048400D02*
X146599000Y-57048400D01*
X171155360Y-72679560D02*
X161168080Y-72679560D01*
X161168080Y-72679560D02*
X161086800Y-72760840D01*
X144774000Y-62128400D02*
X143498920Y-63403480D01*
X146599000Y-62128400D02*
X144774000Y-62128400D01*
X113842800Y-63403480D02*
X105338880Y-54899560D01*
X138719560Y-63403480D02*
X113842800Y-63403480D01*
X138719560Y-63403480D02*
X136479280Y-63403480D01*
X143498920Y-63403480D02*
X138719560Y-63403480D01*
X105338880Y-94914720D02*
X137129520Y-94914720D01*
X137129520Y-94914720D02*
X140522960Y-98308160D01*
G04 #@! TO.N,G23*
X176505000Y-56070000D02*
X174874300Y-54439300D01*
X174874300Y-54439300D02*
X166311200Y-54439300D01*
X166311200Y-54439300D02*
X165075000Y-55675500D01*
X165075000Y-55675500D02*
X165075000Y-56481800D01*
X165075000Y-56481800D02*
X156893400Y-64663400D01*
X156893400Y-64663400D02*
X148749000Y-64663400D01*
X148749000Y-64663400D02*
X148754000Y-64658400D01*
X146599000Y-64668400D02*
X148744000Y-64668400D01*
X148744000Y-64668400D02*
X148749000Y-64663400D01*
G04 #@! TO.N,G19*
X150141200Y-67125700D02*
X162101400Y-67125700D01*
X162101400Y-67125700D02*
X172789700Y-56437400D01*
X172789700Y-56437400D02*
X172789700Y-56070000D01*
X173965000Y-56070000D02*
X172789700Y-56070000D01*
X148754000Y-67198400D02*
X148826700Y-67125700D01*
X148826700Y-67125700D02*
X150141200Y-67125700D01*
X146599000Y-67208400D02*
X148744000Y-67208400D01*
X148744000Y-67208400D02*
X148754000Y-67198400D01*
G04 #@! TO.N,G18*
X144698700Y-69748400D02*
X144698700Y-69026200D01*
X144698700Y-69026200D02*
X145078900Y-68646000D01*
X146599000Y-69748400D02*
X144698700Y-69748400D01*
X148754000Y-69748400D02*
X146599000Y-69748400D01*
X149054000Y-69748400D02*
X161962100Y-69748400D01*
X161962100Y-69748400D02*
X175180300Y-56530200D01*
X175180300Y-56530200D02*
X175180300Y-55502500D01*
X175180300Y-55502500D02*
X174572500Y-54894700D01*
X174572500Y-54894700D02*
X172600300Y-54894700D01*
X172600300Y-54894700D02*
X171425000Y-56070000D01*
X149054000Y-69748400D02*
X148754000Y-69748400D01*
G04 #@! TO.N,G3*
X148799000Y-72288400D02*
X150205200Y-72288400D01*
X148744000Y-72288400D02*
X148799000Y-72288400D01*
X148744000Y-72288400D02*
X148754000Y-72278400D01*
X146599000Y-72288400D02*
X148744000Y-72288400D01*
G04 #@! TO.N,G16*
X150126200Y-74838400D02*
X148754000Y-74838400D01*
X180409700Y-94170000D02*
X180409700Y-93802700D01*
X180409700Y-93802700D02*
X161445400Y-74838400D01*
X161445400Y-74838400D02*
X150126200Y-74838400D01*
X146599000Y-74828400D02*
X148744000Y-74828400D01*
X148744000Y-74828400D02*
X148754000Y-74838400D01*
X181585000Y-94170000D02*
X180409700Y-94170000D01*
G04 #@! TO.N,G21*
X144698700Y-77368400D02*
X144698700Y-76724700D01*
X144698700Y-76724700D02*
X145166300Y-76257100D01*
X146599000Y-77368400D02*
X144698700Y-77368400D01*
X146599000Y-77368400D02*
X148744000Y-77368400D01*
X148744000Y-77368400D02*
X148754000Y-77358400D01*
X148744000Y-77368400D02*
X148799000Y-77368400D01*
G04 #@! TO.N,G2*
X148749000Y-79903400D02*
X161430400Y-79903400D01*
X161430400Y-79903400D02*
X175329700Y-93802700D01*
X175329700Y-93802700D02*
X175329700Y-94170000D01*
X176505000Y-94170000D02*
X175329700Y-94170000D01*
X148749000Y-79903400D02*
X148744000Y-79908400D01*
X148744000Y-79908400D02*
X146599000Y-79908400D01*
X148754000Y-79898400D02*
X148749000Y-79903400D01*
G04 #@! TO.N,G12*
X171425000Y-94170000D02*
X170249700Y-94170000D01*
X149054000Y-82438400D02*
X158885400Y-82438400D01*
X158885400Y-82438400D02*
X170249700Y-93802700D01*
X170249700Y-93802700D02*
X170249700Y-94170000D01*
X149054000Y-82438400D02*
X148809000Y-82438400D01*
X148809000Y-82438400D02*
X148799000Y-82448400D01*
X148799000Y-82448400D02*
X148744000Y-82448400D01*
X148744000Y-82448400D02*
X146599000Y-82448400D01*
X148744000Y-82448400D02*
X148754000Y-82438400D01*
G04 #@! TO.N,G15*
X149054000Y-84988400D02*
X156355400Y-84988400D01*
X156355400Y-84988400D02*
X165169700Y-93802700D01*
X165169700Y-93802700D02*
X165169700Y-94170000D01*
X166345000Y-94170000D02*
X165169700Y-94170000D01*
X149054000Y-84988400D02*
X148754000Y-84988400D01*
X148754000Y-84988400D02*
X146599000Y-84988400D01*
G04 #@! TO.N,HPWR*
X148754000Y-90078400D02*
X148754000Y-92608400D01*
X148744000Y-90068400D02*
X148754000Y-90078400D01*
X148771500Y-90068400D02*
X148799000Y-90068400D01*
X148744000Y-90068400D02*
X148771500Y-90068400D01*
X148771500Y-87528400D02*
X148744000Y-87528400D01*
X149054000Y-87518400D02*
X148809000Y-87518400D01*
X148809000Y-87518400D02*
X148799000Y-87528400D01*
X148799000Y-87528400D02*
X148771500Y-87528400D01*
X148771500Y-90068400D02*
X148771500Y-87528400D01*
X149054000Y-92608400D02*
X148754000Y-92608400D01*
X148754000Y-92608400D02*
X146599000Y-92608400D01*
X148744000Y-87528400D02*
X148754000Y-87518400D01*
X148744000Y-87528400D02*
X146599000Y-87528400D01*
X146599000Y-90068400D02*
X148744000Y-90068400D01*
G04 #@! TO.N,+BATT*
X158725000Y-94170000D02*
X157549700Y-94170000D01*
X141699000Y-92608400D02*
X143985400Y-94894800D01*
X143985400Y-94894800D02*
X150968600Y-94894800D01*
X150968600Y-94894800D02*
X151419100Y-95345300D01*
X151419100Y-95345300D02*
X157182500Y-95345300D01*
X157182500Y-95345300D02*
X157549700Y-94978100D01*
X157549700Y-94978100D02*
X157549700Y-94170000D01*
X141699000Y-92608400D02*
X141549000Y-92608400D01*
X141849000Y-92608400D02*
X141699000Y-92608400D01*
X139694000Y-92628400D02*
X139694000Y-92618400D01*
X139694000Y-92618400D02*
X139694000Y-92608400D01*
X139694000Y-92608400D02*
X141549000Y-92608400D01*
X139694000Y-92618400D02*
X139404000Y-92618400D01*
X139404000Y-92618400D02*
X139394000Y-92628400D01*
G04 #@! TO.N,+5V*
X161265000Y-94170000D02*
X160089700Y-94170000D01*
X160089700Y-94170000D02*
X160089700Y-93802700D01*
X160089700Y-93802700D02*
X159281600Y-92994600D01*
X159281600Y-92994600D02*
X151770100Y-92994600D01*
X151770100Y-92994600D02*
X151054200Y-93710500D01*
X151054200Y-93710500D02*
X145148200Y-93710500D01*
X145148200Y-93710500D02*
X144698600Y-93260900D01*
X144698600Y-93260900D02*
X144698600Y-93183000D01*
X144698600Y-93183000D02*
X141849000Y-90333400D01*
X141849000Y-90333400D02*
X141849000Y-90068400D01*
X141849000Y-90068400D02*
X141549000Y-90068400D01*
X141549000Y-90068400D02*
X139949000Y-90068400D01*
X139949000Y-90068400D02*
X139929000Y-90048400D01*
X139929000Y-90048400D02*
X139394000Y-90048400D01*
G04 #@! TO.N,G34*
X139394000Y-87528400D02*
X141549000Y-87528400D01*
X141549000Y-87528400D02*
X141849000Y-87528400D01*
G04 #@! TO.N,G0*
X141849000Y-84988400D02*
X142936500Y-83900900D01*
X142936500Y-83900900D02*
X157807900Y-83900900D01*
X157807900Y-83900900D02*
X167709700Y-93802700D01*
X167709700Y-93802700D02*
X167709700Y-94170000D01*
X168885000Y-94170000D02*
X167709700Y-94170000D01*
X141549000Y-84988400D02*
X141849000Y-84988400D01*
X140564000Y-84988400D02*
X139949000Y-84988400D01*
X139949000Y-84988400D02*
X139939000Y-84998400D01*
X139939000Y-84998400D02*
X139394000Y-84998400D01*
X140564000Y-84988400D02*
X141549000Y-84988400D01*
X140564000Y-84988400D02*
X140636000Y-85060000D01*
G04 #@! TO.N,G13*
X141849000Y-82448400D02*
X142969000Y-81328400D01*
X142969000Y-81328400D02*
X160315400Y-81328400D01*
X160315400Y-81328400D02*
X172789700Y-93802700D01*
X172789700Y-93802700D02*
X172789700Y-94170000D01*
X173965000Y-94170000D02*
X172789700Y-94170000D01*
X141699000Y-82448400D02*
X141849000Y-82448400D01*
X139394000Y-82428400D02*
X139929000Y-82428400D01*
X139929000Y-82428400D02*
X139949000Y-82448400D01*
X139949000Y-82448400D02*
X141549000Y-82448400D01*
X141549000Y-82448400D02*
X141699000Y-82448400D01*
X141699000Y-82448400D02*
X141680000Y-82467400D01*
G04 #@! TO.N,G5*
X143752900Y-79908400D02*
X144901700Y-78759600D01*
X144901700Y-78759600D02*
X162826600Y-78759600D01*
X162826600Y-78759600D02*
X177869700Y-93802700D01*
X177869700Y-93802700D02*
X177869700Y-94170000D01*
X141849000Y-79908400D02*
X143752900Y-79908400D01*
X179045000Y-94170000D02*
X177869700Y-94170000D01*
X141549000Y-79908400D02*
X141849000Y-79908400D01*
X139394000Y-79888400D02*
X139929000Y-79888400D01*
X139929000Y-79888400D02*
X139949000Y-79908400D01*
X139949000Y-79908400D02*
X141549000Y-79908400D01*
G04 #@! TO.N,G22*
X140749000Y-77368400D02*
X140739000Y-77378400D01*
X140739000Y-77378400D02*
X140739000Y-78480900D01*
X140749000Y-77368400D02*
X141549000Y-77368400D01*
X139394000Y-77358400D02*
X139939000Y-77358400D01*
X139939000Y-77358400D02*
X139949000Y-77368400D01*
X139949000Y-77368400D02*
X140749000Y-77368400D01*
X141549000Y-77368400D02*
X141849000Y-77368400D01*
G04 #@! TO.N,G17*
X143449300Y-74828400D02*
X143732400Y-74828400D01*
X141549000Y-74828400D02*
X143449300Y-74828400D01*
X140656000Y-74828400D02*
X141549000Y-74828400D01*
X139394000Y-74838400D02*
X139939000Y-74838400D01*
X139939000Y-74838400D02*
X139949000Y-74828400D01*
X139949000Y-74828400D02*
X140656000Y-74828400D01*
X140656000Y-74828400D02*
X141127000Y-74356600D01*
G04 #@! TO.N,G1*
X143449300Y-71157200D02*
X143449300Y-72288400D01*
X167709700Y-56070000D02*
X167709700Y-56437300D01*
X167709700Y-56437300D02*
X158347000Y-65800000D01*
X158347000Y-65800000D02*
X145403200Y-65800000D01*
X145403200Y-65800000D02*
X143967300Y-67235900D01*
X143967300Y-67235900D02*
X143967300Y-70639200D01*
X143967300Y-70639200D02*
X143449300Y-71157200D01*
X168885000Y-56070000D02*
X167709700Y-56070000D01*
X141549000Y-72288400D02*
X143449300Y-72288400D01*
X139694000Y-72278400D02*
X139694000Y-72288400D01*
X139694000Y-72288400D02*
X141549000Y-72288400D01*
X139694000Y-72268400D02*
X139694000Y-72278400D01*
X139694000Y-72278400D02*
X139404000Y-72278400D01*
X139404000Y-72278400D02*
X139394000Y-72268400D01*
G04 #@! TO.N,G26*
X140749000Y-67208400D02*
X141173500Y-66783900D01*
X141173500Y-66783900D02*
X141173500Y-66084400D01*
X140749000Y-67208400D02*
X141549000Y-67208400D01*
X139394000Y-67178400D02*
X139919000Y-67178400D01*
X139919000Y-67178400D02*
X139949000Y-67208400D01*
X139949000Y-67208400D02*
X140749000Y-67208400D01*
G04 #@! TO.N,G25*
X141549000Y-64668400D02*
X143725300Y-64668400D01*
X139394000Y-64648400D02*
X139929000Y-64648400D01*
X139929000Y-64648400D02*
X139949000Y-64668400D01*
X139949000Y-64668400D02*
X141549000Y-64668400D01*
G04 #@! TO.N,RST*
X139394000Y-62138400D02*
X139939000Y-62138400D01*
X139939000Y-62138400D02*
X139949000Y-62128400D01*
X139949000Y-62128400D02*
X141549000Y-62128400D01*
G04 #@! TO.N,G36*
X140749000Y-59588400D02*
X141186700Y-59150700D01*
X141186700Y-59150700D02*
X141186700Y-58474900D01*
X141186700Y-58474900D02*
X141186800Y-58474900D01*
X140749000Y-59588400D02*
X141549000Y-59588400D01*
X139394000Y-59578400D02*
X139939000Y-59578400D01*
X139939000Y-59578400D02*
X139949000Y-59588400D01*
X139949000Y-59588400D02*
X140749000Y-59588400D01*
G04 #@! TO.N,G35*
X182949700Y-56070000D02*
X182949700Y-55702700D01*
X182949700Y-55702700D02*
X181235900Y-53988900D01*
X181235900Y-53988900D02*
X148755200Y-53988900D01*
X148755200Y-53988900D02*
X147197200Y-55546900D01*
X147197200Y-55546900D02*
X144846400Y-55546900D01*
X144846400Y-55546900D02*
X143742300Y-56651000D01*
X184125000Y-56070000D02*
X182949700Y-56070000D01*
X141549000Y-57048400D02*
X143449300Y-57048400D01*
X143449300Y-57048400D02*
X143449300Y-56944000D01*
X143449300Y-56944000D02*
X143742300Y-56651000D01*
X139394000Y-57048400D02*
X141549000Y-57048400D01*
G04 #@! TO.N,+3V3*
X141549000Y-69748400D02*
X143449300Y-69748400D01*
X158725000Y-56070000D02*
X157549700Y-56070000D01*
X143449300Y-69748400D02*
X143449300Y-66797700D01*
X143449300Y-66797700D02*
X144556800Y-65690200D01*
X144556800Y-65690200D02*
X144556800Y-64144800D01*
X144556800Y-64144800D02*
X145241000Y-63460600D01*
X145241000Y-63460600D02*
X150967100Y-63460600D01*
X150967100Y-63460600D02*
X157549700Y-56878000D01*
X157549700Y-56878000D02*
X157549700Y-56070000D01*
X139394000Y-69758400D02*
X139939000Y-69758400D01*
X139939000Y-69758400D02*
X139949000Y-69748400D01*
X139949000Y-69748400D02*
X141549000Y-69748400D01*
G04 #@! TD*
D16*
G04 #@! TO.N,GND*
G36*
X197643175Y-50847265D02*
X197444569Y-50765000D01*
X196555431Y-50765000D01*
X195733974Y-51105259D01*
X195105259Y-51733974D01*
X194765000Y-52555431D01*
X194765000Y-53444569D01*
X195105259Y-54266026D01*
X195733974Y-54894741D01*
X196555431Y-55235000D01*
X197444569Y-55235000D01*
X198266026Y-54894741D01*
X198894741Y-54266026D01*
X199235000Y-53444569D01*
X199235000Y-52555431D01*
X199152736Y-52356827D01*
X199290000Y-52494092D01*
X199290001Y-97505907D01*
X199152736Y-97643173D01*
X199235000Y-97444569D01*
X199235000Y-96555431D01*
X198894741Y-95733974D01*
X198266026Y-95105259D01*
X197444569Y-94765000D01*
X196555431Y-94765000D01*
X195733974Y-95105259D01*
X195105259Y-95733974D01*
X194765000Y-96555431D01*
X194765000Y-97444569D01*
X195105259Y-98266026D01*
X195733974Y-98894741D01*
X196555431Y-99235000D01*
X197444569Y-99235000D01*
X197643175Y-99152735D01*
X197505910Y-99290000D01*
X155494092Y-99290000D01*
X153551494Y-97347404D01*
X153511881Y-97288119D01*
X153277028Y-97131195D01*
X153069926Y-97090000D01*
X153069924Y-97090000D01*
X153000000Y-97076091D01*
X152930076Y-97090000D01*
X150069926Y-97090000D01*
X150000000Y-97076091D01*
X149722971Y-97131195D01*
X149547399Y-97248509D01*
X149488119Y-97288119D01*
X149448510Y-97347398D01*
X149152736Y-97643173D01*
X149235000Y-97444569D01*
X149235000Y-96555431D01*
X148894741Y-95733974D01*
X148815567Y-95654800D01*
X150653799Y-95654800D01*
X150828769Y-95829770D01*
X150871171Y-95893229D01*
X151122563Y-96061204D01*
X151344248Y-96105300D01*
X151344252Y-96105300D01*
X151419099Y-96120188D01*
X151493946Y-96105300D01*
X157107653Y-96105300D01*
X157182500Y-96120188D01*
X157257347Y-96105300D01*
X157257352Y-96105300D01*
X157479037Y-96061204D01*
X157730429Y-95893229D01*
X157772831Y-95829770D01*
X158034170Y-95568431D01*
X158089571Y-95531413D01*
X158145582Y-95568839D01*
X158578744Y-95655000D01*
X158871256Y-95655000D01*
X159304418Y-95568839D01*
X159795625Y-95240625D01*
X159995000Y-94942239D01*
X160194375Y-95240625D01*
X160685582Y-95568839D01*
X161118744Y-95655000D01*
X161411256Y-95655000D01*
X161844418Y-95568839D01*
X162335625Y-95240625D01*
X162535000Y-94942239D01*
X162734375Y-95240625D01*
X163225582Y-95568839D01*
X163658744Y-95655000D01*
X163951256Y-95655000D01*
X164384418Y-95568839D01*
X164875625Y-95240625D01*
X165075000Y-94942239D01*
X165274375Y-95240625D01*
X165765582Y-95568839D01*
X166198744Y-95655000D01*
X166491256Y-95655000D01*
X166924418Y-95568839D01*
X167415625Y-95240625D01*
X167615000Y-94942239D01*
X167814375Y-95240625D01*
X168305582Y-95568839D01*
X168738744Y-95655000D01*
X169031256Y-95655000D01*
X169464418Y-95568839D01*
X169955625Y-95240625D01*
X170155000Y-94942239D01*
X170354375Y-95240625D01*
X170845582Y-95568839D01*
X171278744Y-95655000D01*
X171571256Y-95655000D01*
X172004418Y-95568839D01*
X172495625Y-95240625D01*
X172695000Y-94942239D01*
X172894375Y-95240625D01*
X173385582Y-95568839D01*
X173818744Y-95655000D01*
X174111256Y-95655000D01*
X174544418Y-95568839D01*
X175035625Y-95240625D01*
X175235000Y-94942239D01*
X175434375Y-95240625D01*
X175925582Y-95568839D01*
X176358744Y-95655000D01*
X176651256Y-95655000D01*
X177084418Y-95568839D01*
X177575625Y-95240625D01*
X177775000Y-94942239D01*
X177974375Y-95240625D01*
X178465582Y-95568839D01*
X178898744Y-95655000D01*
X179191256Y-95655000D01*
X179624418Y-95568839D01*
X180115625Y-95240625D01*
X180315000Y-94942239D01*
X180514375Y-95240625D01*
X181005582Y-95568839D01*
X181438744Y-95655000D01*
X181731256Y-95655000D01*
X182164418Y-95568839D01*
X182655625Y-95240625D01*
X182855000Y-94942239D01*
X183054375Y-95240625D01*
X183545582Y-95568839D01*
X183978744Y-95655000D01*
X184271256Y-95655000D01*
X184704418Y-95568839D01*
X185195625Y-95240625D01*
X185395000Y-94942239D01*
X185594375Y-95240625D01*
X186085582Y-95568839D01*
X186518744Y-95655000D01*
X186811256Y-95655000D01*
X187244418Y-95568839D01*
X187735625Y-95240625D01*
X187948843Y-94921522D01*
X188009817Y-95051358D01*
X188438076Y-95441645D01*
X188848110Y-95611476D01*
X189078000Y-95490155D01*
X189078000Y-94297000D01*
X189332000Y-94297000D01*
X189332000Y-95490155D01*
X189561890Y-95611476D01*
X189971924Y-95441645D01*
X190400183Y-95051358D01*
X190646486Y-94526892D01*
X190525819Y-94297000D01*
X189332000Y-94297000D01*
X189078000Y-94297000D01*
X189058000Y-94297000D01*
X189058000Y-94043000D01*
X189078000Y-94043000D01*
X189078000Y-92849845D01*
X189332000Y-92849845D01*
X189332000Y-94043000D01*
X190525819Y-94043000D01*
X190646486Y-93813108D01*
X190400183Y-93288642D01*
X189971924Y-92898355D01*
X189561890Y-92728524D01*
X189332000Y-92849845D01*
X189078000Y-92849845D01*
X188848110Y-92728524D01*
X188438076Y-92898355D01*
X188009817Y-93288642D01*
X187948843Y-93418478D01*
X187735625Y-93099375D01*
X187244418Y-92771161D01*
X186811256Y-92685000D01*
X186518744Y-92685000D01*
X186085582Y-92771161D01*
X185594375Y-93099375D01*
X185395000Y-93397761D01*
X185195625Y-93099375D01*
X184704418Y-92771161D01*
X184271256Y-92685000D01*
X183978744Y-92685000D01*
X183545582Y-92771161D01*
X183054375Y-93099375D01*
X182855000Y-93397761D01*
X182655625Y-93099375D01*
X182164418Y-92771161D01*
X181731256Y-92685000D01*
X181438744Y-92685000D01*
X181005582Y-92771161D01*
X180674311Y-92992509D01*
X162035731Y-74353930D01*
X161993329Y-74290471D01*
X161741937Y-74122496D01*
X161520252Y-74078400D01*
X161520247Y-74078400D01*
X161445400Y-74063512D01*
X161370553Y-74078400D01*
X150829911Y-74078400D01*
X150712480Y-73960969D01*
X150332074Y-73803400D01*
X149920326Y-73803400D01*
X149760754Y-73869497D01*
X149545337Y-73654080D01*
X149314345Y-73558400D01*
X149545337Y-73462720D01*
X149776821Y-73231236D01*
X149999326Y-73323400D01*
X150411074Y-73323400D01*
X150791480Y-73165831D01*
X151082631Y-72874680D01*
X151240200Y-72494274D01*
X151240200Y-72082526D01*
X151082631Y-71702120D01*
X150791480Y-71410969D01*
X150411074Y-71253400D01*
X149999326Y-71253400D01*
X149790963Y-71339706D01*
X149545337Y-71094080D01*
X149350558Y-71013400D01*
X149545337Y-70932720D01*
X149938320Y-70539737D01*
X149951300Y-70508400D01*
X161887253Y-70508400D01*
X161962100Y-70523288D01*
X162036947Y-70508400D01*
X162036952Y-70508400D01*
X162258637Y-70464304D01*
X162510029Y-70296329D01*
X162552431Y-70232870D01*
X175560442Y-57224860D01*
X175925582Y-57468839D01*
X176358744Y-57555000D01*
X176651256Y-57555000D01*
X177084418Y-57468839D01*
X177575625Y-57140625D01*
X177775000Y-56842239D01*
X177974375Y-57140625D01*
X178465582Y-57468839D01*
X178898744Y-57555000D01*
X179191256Y-57555000D01*
X179624418Y-57468839D01*
X180115625Y-57140625D01*
X180315000Y-56842239D01*
X180514375Y-57140625D01*
X181005582Y-57468839D01*
X181438744Y-57555000D01*
X181731256Y-57555000D01*
X182164418Y-57468839D01*
X182655625Y-57140625D01*
X182855000Y-56842239D01*
X183054375Y-57140625D01*
X183545582Y-57468839D01*
X183978744Y-57555000D01*
X184271256Y-57555000D01*
X184704418Y-57468839D01*
X185195625Y-57140625D01*
X185395000Y-56842239D01*
X185594375Y-57140625D01*
X186085582Y-57468839D01*
X186518744Y-57555000D01*
X186811256Y-57555000D01*
X187244418Y-57468839D01*
X187735625Y-57140625D01*
X187935000Y-56842239D01*
X188134375Y-57140625D01*
X188625582Y-57468839D01*
X189058744Y-57555000D01*
X189351256Y-57555000D01*
X189784418Y-57468839D01*
X190275625Y-57140625D01*
X190603839Y-56649418D01*
X190719092Y-56070000D01*
X190603839Y-55490582D01*
X190275625Y-54999375D01*
X189784418Y-54671161D01*
X189351256Y-54585000D01*
X189058744Y-54585000D01*
X188625582Y-54671161D01*
X188134375Y-54999375D01*
X187935000Y-55297761D01*
X187735625Y-54999375D01*
X187244418Y-54671161D01*
X186811256Y-54585000D01*
X186518744Y-54585000D01*
X186085582Y-54671161D01*
X185594375Y-54999375D01*
X185395000Y-55297761D01*
X185195625Y-54999375D01*
X184704418Y-54671161D01*
X184271256Y-54585000D01*
X183978744Y-54585000D01*
X183545582Y-54671161D01*
X183214311Y-54892509D01*
X181826231Y-53504430D01*
X181783829Y-53440971D01*
X181532437Y-53272996D01*
X181310752Y-53228900D01*
X181310747Y-53228900D01*
X181235900Y-53214012D01*
X181161053Y-53228900D01*
X149235000Y-53228900D01*
X149235000Y-52555431D01*
X149152736Y-52356827D01*
X149448510Y-52652602D01*
X149488119Y-52711881D01*
X149547398Y-52751490D01*
X149547399Y-52751491D01*
X149722971Y-52868805D01*
X150000000Y-52923909D01*
X150069926Y-52910000D01*
X152930076Y-52910000D01*
X153000000Y-52923909D01*
X153069924Y-52910000D01*
X153069926Y-52910000D01*
X153277028Y-52868805D01*
X153511881Y-52711881D01*
X153551494Y-52652596D01*
X155494092Y-50710000D01*
X197505910Y-50710000D01*
X197643175Y-50847265D01*
X197643175Y-50847265D01*
G37*
X197643175Y-50847265D02*
X197444569Y-50765000D01*
X196555431Y-50765000D01*
X195733974Y-51105259D01*
X195105259Y-51733974D01*
X194765000Y-52555431D01*
X194765000Y-53444569D01*
X195105259Y-54266026D01*
X195733974Y-54894741D01*
X196555431Y-55235000D01*
X197444569Y-55235000D01*
X198266026Y-54894741D01*
X198894741Y-54266026D01*
X199235000Y-53444569D01*
X199235000Y-52555431D01*
X199152736Y-52356827D01*
X199290000Y-52494092D01*
X199290001Y-97505907D01*
X199152736Y-97643173D01*
X199235000Y-97444569D01*
X199235000Y-96555431D01*
X198894741Y-95733974D01*
X198266026Y-95105259D01*
X197444569Y-94765000D01*
X196555431Y-94765000D01*
X195733974Y-95105259D01*
X195105259Y-95733974D01*
X194765000Y-96555431D01*
X194765000Y-97444569D01*
X195105259Y-98266026D01*
X195733974Y-98894741D01*
X196555431Y-99235000D01*
X197444569Y-99235000D01*
X197643175Y-99152735D01*
X197505910Y-99290000D01*
X155494092Y-99290000D01*
X153551494Y-97347404D01*
X153511881Y-97288119D01*
X153277028Y-97131195D01*
X153069926Y-97090000D01*
X153069924Y-97090000D01*
X153000000Y-97076091D01*
X152930076Y-97090000D01*
X150069926Y-97090000D01*
X150000000Y-97076091D01*
X149722971Y-97131195D01*
X149547399Y-97248509D01*
X149488119Y-97288119D01*
X149448510Y-97347398D01*
X149152736Y-97643173D01*
X149235000Y-97444569D01*
X149235000Y-96555431D01*
X148894741Y-95733974D01*
X148815567Y-95654800D01*
X150653799Y-95654800D01*
X150828769Y-95829770D01*
X150871171Y-95893229D01*
X151122563Y-96061204D01*
X151344248Y-96105300D01*
X151344252Y-96105300D01*
X151419099Y-96120188D01*
X151493946Y-96105300D01*
X157107653Y-96105300D01*
X157182500Y-96120188D01*
X157257347Y-96105300D01*
X157257352Y-96105300D01*
X157479037Y-96061204D01*
X157730429Y-95893229D01*
X157772831Y-95829770D01*
X158034170Y-95568431D01*
X158089571Y-95531413D01*
X158145582Y-95568839D01*
X158578744Y-95655000D01*
X158871256Y-95655000D01*
X159304418Y-95568839D01*
X159795625Y-95240625D01*
X159995000Y-94942239D01*
X160194375Y-95240625D01*
X160685582Y-95568839D01*
X161118744Y-95655000D01*
X161411256Y-95655000D01*
X161844418Y-95568839D01*
X162335625Y-95240625D01*
X162535000Y-94942239D01*
X162734375Y-95240625D01*
X163225582Y-95568839D01*
X163658744Y-95655000D01*
X163951256Y-95655000D01*
X164384418Y-95568839D01*
X164875625Y-95240625D01*
X165075000Y-94942239D01*
X165274375Y-95240625D01*
X165765582Y-95568839D01*
X166198744Y-95655000D01*
X166491256Y-95655000D01*
X166924418Y-95568839D01*
X167415625Y-95240625D01*
X167615000Y-94942239D01*
X167814375Y-95240625D01*
X168305582Y-95568839D01*
X168738744Y-95655000D01*
X169031256Y-95655000D01*
X169464418Y-95568839D01*
X169955625Y-95240625D01*
X170155000Y-94942239D01*
X170354375Y-95240625D01*
X170845582Y-95568839D01*
X171278744Y-95655000D01*
X171571256Y-95655000D01*
X172004418Y-95568839D01*
X172495625Y-95240625D01*
X172695000Y-94942239D01*
X172894375Y-95240625D01*
X173385582Y-95568839D01*
X173818744Y-95655000D01*
X174111256Y-95655000D01*
X174544418Y-95568839D01*
X175035625Y-95240625D01*
X175235000Y-94942239D01*
X175434375Y-95240625D01*
X175925582Y-95568839D01*
X176358744Y-95655000D01*
X176651256Y-95655000D01*
X177084418Y-95568839D01*
X177575625Y-95240625D01*
X177775000Y-94942239D01*
X177974375Y-95240625D01*
X178465582Y-95568839D01*
X178898744Y-95655000D01*
X179191256Y-95655000D01*
X179624418Y-95568839D01*
X180115625Y-95240625D01*
X180315000Y-94942239D01*
X180514375Y-95240625D01*
X181005582Y-95568839D01*
X181438744Y-95655000D01*
X181731256Y-95655000D01*
X182164418Y-95568839D01*
X182655625Y-95240625D01*
X182855000Y-94942239D01*
X183054375Y-95240625D01*
X183545582Y-95568839D01*
X183978744Y-95655000D01*
X184271256Y-95655000D01*
X184704418Y-95568839D01*
X185195625Y-95240625D01*
X185395000Y-94942239D01*
X185594375Y-95240625D01*
X186085582Y-95568839D01*
X186518744Y-95655000D01*
X186811256Y-95655000D01*
X187244418Y-95568839D01*
X187735625Y-95240625D01*
X187948843Y-94921522D01*
X188009817Y-95051358D01*
X188438076Y-95441645D01*
X188848110Y-95611476D01*
X189078000Y-95490155D01*
X189078000Y-94297000D01*
X189332000Y-94297000D01*
X189332000Y-95490155D01*
X189561890Y-95611476D01*
X189971924Y-95441645D01*
X190400183Y-95051358D01*
X190646486Y-94526892D01*
X190525819Y-94297000D01*
X189332000Y-94297000D01*
X189078000Y-94297000D01*
X189058000Y-94297000D01*
X189058000Y-94043000D01*
X189078000Y-94043000D01*
X189078000Y-92849845D01*
X189332000Y-92849845D01*
X189332000Y-94043000D01*
X190525819Y-94043000D01*
X190646486Y-93813108D01*
X190400183Y-93288642D01*
X189971924Y-92898355D01*
X189561890Y-92728524D01*
X189332000Y-92849845D01*
X189078000Y-92849845D01*
X188848110Y-92728524D01*
X188438076Y-92898355D01*
X188009817Y-93288642D01*
X187948843Y-93418478D01*
X187735625Y-93099375D01*
X187244418Y-92771161D01*
X186811256Y-92685000D01*
X186518744Y-92685000D01*
X186085582Y-92771161D01*
X185594375Y-93099375D01*
X185395000Y-93397761D01*
X185195625Y-93099375D01*
X184704418Y-92771161D01*
X184271256Y-92685000D01*
X183978744Y-92685000D01*
X183545582Y-92771161D01*
X183054375Y-93099375D01*
X182855000Y-93397761D01*
X182655625Y-93099375D01*
X182164418Y-92771161D01*
X181731256Y-92685000D01*
X181438744Y-92685000D01*
X181005582Y-92771161D01*
X180674311Y-92992509D01*
X162035731Y-74353930D01*
X161993329Y-74290471D01*
X161741937Y-74122496D01*
X161520252Y-74078400D01*
X161520247Y-74078400D01*
X161445400Y-74063512D01*
X161370553Y-74078400D01*
X150829911Y-74078400D01*
X150712480Y-73960969D01*
X150332074Y-73803400D01*
X149920326Y-73803400D01*
X149760754Y-73869497D01*
X149545337Y-73654080D01*
X149314345Y-73558400D01*
X149545337Y-73462720D01*
X149776821Y-73231236D01*
X149999326Y-73323400D01*
X150411074Y-73323400D01*
X150791480Y-73165831D01*
X151082631Y-72874680D01*
X151240200Y-72494274D01*
X151240200Y-72082526D01*
X151082631Y-71702120D01*
X150791480Y-71410969D01*
X150411074Y-71253400D01*
X149999326Y-71253400D01*
X149790963Y-71339706D01*
X149545337Y-71094080D01*
X149350558Y-71013400D01*
X149545337Y-70932720D01*
X149938320Y-70539737D01*
X149951300Y-70508400D01*
X161887253Y-70508400D01*
X161962100Y-70523288D01*
X162036947Y-70508400D01*
X162036952Y-70508400D01*
X162258637Y-70464304D01*
X162510029Y-70296329D01*
X162552431Y-70232870D01*
X175560442Y-57224860D01*
X175925582Y-57468839D01*
X176358744Y-57555000D01*
X176651256Y-57555000D01*
X177084418Y-57468839D01*
X177575625Y-57140625D01*
X177775000Y-56842239D01*
X177974375Y-57140625D01*
X178465582Y-57468839D01*
X178898744Y-57555000D01*
X179191256Y-57555000D01*
X179624418Y-57468839D01*
X180115625Y-57140625D01*
X180315000Y-56842239D01*
X180514375Y-57140625D01*
X181005582Y-57468839D01*
X181438744Y-57555000D01*
X181731256Y-57555000D01*
X182164418Y-57468839D01*
X182655625Y-57140625D01*
X182855000Y-56842239D01*
X183054375Y-57140625D01*
X183545582Y-57468839D01*
X183978744Y-57555000D01*
X184271256Y-57555000D01*
X184704418Y-57468839D01*
X185195625Y-57140625D01*
X185395000Y-56842239D01*
X185594375Y-57140625D01*
X186085582Y-57468839D01*
X186518744Y-57555000D01*
X186811256Y-57555000D01*
X187244418Y-57468839D01*
X187735625Y-57140625D01*
X187935000Y-56842239D01*
X188134375Y-57140625D01*
X188625582Y-57468839D01*
X189058744Y-57555000D01*
X189351256Y-57555000D01*
X189784418Y-57468839D01*
X190275625Y-57140625D01*
X190603839Y-56649418D01*
X190719092Y-56070000D01*
X190603839Y-55490582D01*
X190275625Y-54999375D01*
X189784418Y-54671161D01*
X189351256Y-54585000D01*
X189058744Y-54585000D01*
X188625582Y-54671161D01*
X188134375Y-54999375D01*
X187935000Y-55297761D01*
X187735625Y-54999375D01*
X187244418Y-54671161D01*
X186811256Y-54585000D01*
X186518744Y-54585000D01*
X186085582Y-54671161D01*
X185594375Y-54999375D01*
X185395000Y-55297761D01*
X185195625Y-54999375D01*
X184704418Y-54671161D01*
X184271256Y-54585000D01*
X183978744Y-54585000D01*
X183545582Y-54671161D01*
X183214311Y-54892509D01*
X181826231Y-53504430D01*
X181783829Y-53440971D01*
X181532437Y-53272996D01*
X181310752Y-53228900D01*
X181310747Y-53228900D01*
X181235900Y-53214012D01*
X181161053Y-53228900D01*
X149235000Y-53228900D01*
X149235000Y-52555431D01*
X149152736Y-52356827D01*
X149448510Y-52652602D01*
X149488119Y-52711881D01*
X149547398Y-52751490D01*
X149547399Y-52751491D01*
X149722971Y-52868805D01*
X150000000Y-52923909D01*
X150069926Y-52910000D01*
X152930076Y-52910000D01*
X153000000Y-52923909D01*
X153069924Y-52910000D01*
X153069926Y-52910000D01*
X153277028Y-52868805D01*
X153511881Y-52711881D01*
X153551494Y-52652596D01*
X155494092Y-50710000D01*
X197505910Y-50710000D01*
X197643175Y-50847265D01*
G36*
X147643175Y-50847265D02*
X147444569Y-50765000D01*
X146555431Y-50765000D01*
X145733974Y-51105259D01*
X145105259Y-51733974D01*
X144765000Y-52555431D01*
X144765000Y-53444569D01*
X145105259Y-54266026D01*
X145626133Y-54786900D01*
X144921246Y-54786900D01*
X144846399Y-54772012D01*
X144771552Y-54786900D01*
X144771548Y-54786900D01*
X144549863Y-54830996D01*
X144298471Y-54998971D01*
X144256071Y-55062427D01*
X143702499Y-55616000D01*
X143536426Y-55616000D01*
X143156020Y-55773569D01*
X142864869Y-56064720D01*
X142772218Y-56288400D01*
X140591300Y-56288400D01*
X140578320Y-56257063D01*
X140185337Y-55864080D01*
X139671881Y-55651400D01*
X139116119Y-55651400D01*
X138602663Y-55864080D01*
X138209680Y-56257063D01*
X137997000Y-56770519D01*
X137997000Y-57326281D01*
X138209680Y-57839737D01*
X138602663Y-58232720D01*
X138797442Y-58313400D01*
X138602663Y-58394080D01*
X138209680Y-58787063D01*
X137997000Y-59300519D01*
X137997000Y-59856281D01*
X138209680Y-60369737D01*
X138602663Y-60762720D01*
X138718678Y-60810775D01*
X138552815Y-60879478D01*
X138135078Y-61297215D01*
X137909000Y-61843015D01*
X137909000Y-62433785D01*
X138135078Y-62979585D01*
X138552815Y-63397322D01*
X138658323Y-63441025D01*
X138602663Y-63464080D01*
X138209680Y-63857063D01*
X137997000Y-64370519D01*
X137997000Y-64926281D01*
X138209680Y-65439737D01*
X138602663Y-65832720D01*
X138797442Y-65913400D01*
X138602663Y-65994080D01*
X138209680Y-66387063D01*
X137997000Y-66900519D01*
X137997000Y-67456281D01*
X138209680Y-67969737D01*
X138602663Y-68362720D01*
X138857798Y-68468400D01*
X138602663Y-68574080D01*
X138209680Y-68967063D01*
X137997000Y-69480519D01*
X137997000Y-70036281D01*
X138209680Y-70549737D01*
X138602663Y-70942720D01*
X138773300Y-71013400D01*
X138602663Y-71084080D01*
X138209680Y-71477063D01*
X137997000Y-71990519D01*
X137997000Y-72546281D01*
X138209680Y-73059737D01*
X138602663Y-73452720D01*
X138845727Y-73553400D01*
X138602663Y-73654080D01*
X138209680Y-74047063D01*
X137997000Y-74560519D01*
X137997000Y-75116281D01*
X138209680Y-75629737D01*
X138602663Y-76022720D01*
X138785371Y-76098400D01*
X138602663Y-76174080D01*
X138209680Y-76567063D01*
X137997000Y-77080519D01*
X137997000Y-77636281D01*
X138209680Y-78149737D01*
X138602663Y-78542720D01*
X138797442Y-78623400D01*
X138602663Y-78704080D01*
X138209680Y-79097063D01*
X137997000Y-79610519D01*
X137997000Y-80166281D01*
X138209680Y-80679737D01*
X138602663Y-81072720D01*
X138809513Y-81158400D01*
X138602663Y-81244080D01*
X138209680Y-81637063D01*
X137997000Y-82150519D01*
X137997000Y-82706281D01*
X138209680Y-83219737D01*
X138602663Y-83612720D01*
X138845727Y-83713400D01*
X138602663Y-83814080D01*
X138209680Y-84207063D01*
X137997000Y-84720519D01*
X137997000Y-85276281D01*
X138209680Y-85789737D01*
X138602663Y-86182720D01*
X138682465Y-86215775D01*
X138552815Y-86269478D01*
X138135078Y-86687215D01*
X137909000Y-87233015D01*
X137909000Y-87823785D01*
X138135078Y-88369585D01*
X138552815Y-88787322D01*
X138670394Y-88836025D01*
X138602663Y-88864080D01*
X138209680Y-89257063D01*
X137997000Y-89770519D01*
X137997000Y-90326281D01*
X138209680Y-90839737D01*
X138602663Y-91232720D01*
X138857798Y-91338400D01*
X138602663Y-91444080D01*
X138209680Y-91837063D01*
X137997000Y-92350519D01*
X137997000Y-92906281D01*
X138209680Y-93419737D01*
X138602663Y-93812720D01*
X139116119Y-94025400D01*
X139671881Y-94025400D01*
X140185337Y-93812720D01*
X140578320Y-93419737D01*
X140599584Y-93368400D01*
X141384199Y-93368400D01*
X143280798Y-95265000D01*
X142654887Y-95265000D01*
X142017201Y-95529138D01*
X141529138Y-96017201D01*
X141265000Y-96654887D01*
X141265000Y-97345113D01*
X141529138Y-97982799D01*
X142017201Y-98470862D01*
X142654887Y-98735000D01*
X143345113Y-98735000D01*
X143982799Y-98470862D01*
X144470862Y-97982799D01*
X144735000Y-97345113D01*
X144735000Y-96654887D01*
X144470862Y-96017201D01*
X144108461Y-95654800D01*
X145184433Y-95654800D01*
X145105259Y-95733974D01*
X144765000Y-96555431D01*
X144765000Y-97444569D01*
X145105259Y-98266026D01*
X145733974Y-98894741D01*
X146555431Y-99235000D01*
X147444569Y-99235000D01*
X147643175Y-99152735D01*
X147505910Y-99290000D01*
X102494092Y-99290000D01*
X102356827Y-99152736D01*
X102555431Y-99235000D01*
X103444569Y-99235000D01*
X104266026Y-98894741D01*
X104894741Y-98266026D01*
X105235000Y-97444569D01*
X105235000Y-96654887D01*
X105265000Y-96654887D01*
X105265000Y-97345113D01*
X105529138Y-97982799D01*
X106017201Y-98470862D01*
X106654887Y-98735000D01*
X107345113Y-98735000D01*
X107982799Y-98470862D01*
X108470862Y-97982799D01*
X108735000Y-97345113D01*
X108735000Y-96654887D01*
X108470862Y-96017201D01*
X107982799Y-95529138D01*
X107345113Y-95265000D01*
X106654887Y-95265000D01*
X106017201Y-95529138D01*
X105529138Y-96017201D01*
X105265000Y-96654887D01*
X105235000Y-96654887D01*
X105235000Y-96555431D01*
X104894741Y-95733974D01*
X104266026Y-95105259D01*
X103444569Y-94765000D01*
X102555431Y-94765000D01*
X101733974Y-95105259D01*
X101105259Y-95733974D01*
X100765000Y-96555431D01*
X100765000Y-97444569D01*
X100847265Y-97643175D01*
X100710000Y-97505910D01*
X100710000Y-52494090D01*
X100847265Y-52356825D01*
X100765000Y-52555431D01*
X100765000Y-53444569D01*
X101105259Y-54266026D01*
X101733974Y-54894741D01*
X102555431Y-55235000D01*
X103444569Y-55235000D01*
X104266026Y-54894741D01*
X104894741Y-54266026D01*
X105235000Y-53444569D01*
X105235000Y-52654887D01*
X105265000Y-52654887D01*
X105265000Y-53345113D01*
X105529138Y-53982799D01*
X106017201Y-54470862D01*
X106654887Y-54735000D01*
X107345113Y-54735000D01*
X107982799Y-54470862D01*
X108470862Y-53982799D01*
X108735000Y-53345113D01*
X108735000Y-52654887D01*
X141265000Y-52654887D01*
X141265000Y-53345113D01*
X141529138Y-53982799D01*
X142017201Y-54470862D01*
X142654887Y-54735000D01*
X143345113Y-54735000D01*
X143982799Y-54470862D01*
X144470862Y-53982799D01*
X144735000Y-53345113D01*
X144735000Y-52654887D01*
X144470862Y-52017201D01*
X143982799Y-51529138D01*
X143345113Y-51265000D01*
X142654887Y-51265000D01*
X142017201Y-51529138D01*
X141529138Y-52017201D01*
X141265000Y-52654887D01*
X108735000Y-52654887D01*
X108470862Y-52017201D01*
X107982799Y-51529138D01*
X107345113Y-51265000D01*
X106654887Y-51265000D01*
X106017201Y-51529138D01*
X105529138Y-52017201D01*
X105265000Y-52654887D01*
X105235000Y-52654887D01*
X105235000Y-52555431D01*
X104894741Y-51733974D01*
X104266026Y-51105259D01*
X103444569Y-50765000D01*
X102555431Y-50765000D01*
X102356827Y-50847264D01*
X102494092Y-50710000D01*
X147505910Y-50710000D01*
X147643175Y-50847265D01*
X147643175Y-50847265D01*
G37*
X147643175Y-50847265D02*
X147444569Y-50765000D01*
X146555431Y-50765000D01*
X145733974Y-51105259D01*
X145105259Y-51733974D01*
X144765000Y-52555431D01*
X144765000Y-53444569D01*
X145105259Y-54266026D01*
X145626133Y-54786900D01*
X144921246Y-54786900D01*
X144846399Y-54772012D01*
X144771552Y-54786900D01*
X144771548Y-54786900D01*
X144549863Y-54830996D01*
X144298471Y-54998971D01*
X144256071Y-55062427D01*
X143702499Y-55616000D01*
X143536426Y-55616000D01*
X143156020Y-55773569D01*
X142864869Y-56064720D01*
X142772218Y-56288400D01*
X140591300Y-56288400D01*
X140578320Y-56257063D01*
X140185337Y-55864080D01*
X139671881Y-55651400D01*
X139116119Y-55651400D01*
X138602663Y-55864080D01*
X138209680Y-56257063D01*
X137997000Y-56770519D01*
X137997000Y-57326281D01*
X138209680Y-57839737D01*
X138602663Y-58232720D01*
X138797442Y-58313400D01*
X138602663Y-58394080D01*
X138209680Y-58787063D01*
X137997000Y-59300519D01*
X137997000Y-59856281D01*
X138209680Y-60369737D01*
X138602663Y-60762720D01*
X138718678Y-60810775D01*
X138552815Y-60879478D01*
X138135078Y-61297215D01*
X137909000Y-61843015D01*
X137909000Y-62433785D01*
X138135078Y-62979585D01*
X138552815Y-63397322D01*
X138658323Y-63441025D01*
X138602663Y-63464080D01*
X138209680Y-63857063D01*
X137997000Y-64370519D01*
X137997000Y-64926281D01*
X138209680Y-65439737D01*
X138602663Y-65832720D01*
X138797442Y-65913400D01*
X138602663Y-65994080D01*
X138209680Y-66387063D01*
X137997000Y-66900519D01*
X137997000Y-67456281D01*
X138209680Y-67969737D01*
X138602663Y-68362720D01*
X138857798Y-68468400D01*
X138602663Y-68574080D01*
X138209680Y-68967063D01*
X137997000Y-69480519D01*
X137997000Y-70036281D01*
X138209680Y-70549737D01*
X138602663Y-70942720D01*
X138773300Y-71013400D01*
X138602663Y-71084080D01*
X138209680Y-71477063D01*
X137997000Y-71990519D01*
X137997000Y-72546281D01*
X138209680Y-73059737D01*
X138602663Y-73452720D01*
X138845727Y-73553400D01*
X138602663Y-73654080D01*
X138209680Y-74047063D01*
X137997000Y-74560519D01*
X137997000Y-75116281D01*
X138209680Y-75629737D01*
X138602663Y-76022720D01*
X138785371Y-76098400D01*
X138602663Y-76174080D01*
X138209680Y-76567063D01*
X137997000Y-77080519D01*
X137997000Y-77636281D01*
X138209680Y-78149737D01*
X138602663Y-78542720D01*
X138797442Y-78623400D01*
X138602663Y-78704080D01*
X138209680Y-79097063D01*
X137997000Y-79610519D01*
X137997000Y-80166281D01*
X138209680Y-80679737D01*
X138602663Y-81072720D01*
X138809513Y-81158400D01*
X138602663Y-81244080D01*
X138209680Y-81637063D01*
X137997000Y-82150519D01*
X137997000Y-82706281D01*
X138209680Y-83219737D01*
X138602663Y-83612720D01*
X138845727Y-83713400D01*
X138602663Y-83814080D01*
X138209680Y-84207063D01*
X137997000Y-84720519D01*
X137997000Y-85276281D01*
X138209680Y-85789737D01*
X138602663Y-86182720D01*
X138682465Y-86215775D01*
X138552815Y-86269478D01*
X138135078Y-86687215D01*
X137909000Y-87233015D01*
X137909000Y-87823785D01*
X138135078Y-88369585D01*
X138552815Y-88787322D01*
X138670394Y-88836025D01*
X138602663Y-88864080D01*
X138209680Y-89257063D01*
X137997000Y-89770519D01*
X137997000Y-90326281D01*
X138209680Y-90839737D01*
X138602663Y-91232720D01*
X138857798Y-91338400D01*
X138602663Y-91444080D01*
X138209680Y-91837063D01*
X137997000Y-92350519D01*
X137997000Y-92906281D01*
X138209680Y-93419737D01*
X138602663Y-93812720D01*
X139116119Y-94025400D01*
X139671881Y-94025400D01*
X140185337Y-93812720D01*
X140578320Y-93419737D01*
X140599584Y-93368400D01*
X141384199Y-93368400D01*
X143280798Y-95265000D01*
X142654887Y-95265000D01*
X142017201Y-95529138D01*
X141529138Y-96017201D01*
X141265000Y-96654887D01*
X141265000Y-97345113D01*
X141529138Y-97982799D01*
X142017201Y-98470862D01*
X142654887Y-98735000D01*
X143345113Y-98735000D01*
X143982799Y-98470862D01*
X144470862Y-97982799D01*
X144735000Y-97345113D01*
X144735000Y-96654887D01*
X144470862Y-96017201D01*
X144108461Y-95654800D01*
X145184433Y-95654800D01*
X145105259Y-95733974D01*
X144765000Y-96555431D01*
X144765000Y-97444569D01*
X145105259Y-98266026D01*
X145733974Y-98894741D01*
X146555431Y-99235000D01*
X147444569Y-99235000D01*
X147643175Y-99152735D01*
X147505910Y-99290000D01*
X102494092Y-99290000D01*
X102356827Y-99152736D01*
X102555431Y-99235000D01*
X103444569Y-99235000D01*
X104266026Y-98894741D01*
X104894741Y-98266026D01*
X105235000Y-97444569D01*
X105235000Y-96654887D01*
X105265000Y-96654887D01*
X105265000Y-97345113D01*
X105529138Y-97982799D01*
X106017201Y-98470862D01*
X106654887Y-98735000D01*
X107345113Y-98735000D01*
X107982799Y-98470862D01*
X108470862Y-97982799D01*
X108735000Y-97345113D01*
X108735000Y-96654887D01*
X108470862Y-96017201D01*
X107982799Y-95529138D01*
X107345113Y-95265000D01*
X106654887Y-95265000D01*
X106017201Y-95529138D01*
X105529138Y-96017201D01*
X105265000Y-96654887D01*
X105235000Y-96654887D01*
X105235000Y-96555431D01*
X104894741Y-95733974D01*
X104266026Y-95105259D01*
X103444569Y-94765000D01*
X102555431Y-94765000D01*
X101733974Y-95105259D01*
X101105259Y-95733974D01*
X100765000Y-96555431D01*
X100765000Y-97444569D01*
X100847265Y-97643175D01*
X100710000Y-97505910D01*
X100710000Y-52494090D01*
X100847265Y-52356825D01*
X100765000Y-52555431D01*
X100765000Y-53444569D01*
X101105259Y-54266026D01*
X101733974Y-54894741D01*
X102555431Y-55235000D01*
X103444569Y-55235000D01*
X104266026Y-54894741D01*
X104894741Y-54266026D01*
X105235000Y-53444569D01*
X105235000Y-52654887D01*
X105265000Y-52654887D01*
X105265000Y-53345113D01*
X105529138Y-53982799D01*
X106017201Y-54470862D01*
X106654887Y-54735000D01*
X107345113Y-54735000D01*
X107982799Y-54470862D01*
X108470862Y-53982799D01*
X108735000Y-53345113D01*
X108735000Y-52654887D01*
X141265000Y-52654887D01*
X141265000Y-53345113D01*
X141529138Y-53982799D01*
X142017201Y-54470862D01*
X142654887Y-54735000D01*
X143345113Y-54735000D01*
X143982799Y-54470862D01*
X144470862Y-53982799D01*
X144735000Y-53345113D01*
X144735000Y-52654887D01*
X144470862Y-52017201D01*
X143982799Y-51529138D01*
X143345113Y-51265000D01*
X142654887Y-51265000D01*
X142017201Y-51529138D01*
X141529138Y-52017201D01*
X141265000Y-52654887D01*
X108735000Y-52654887D01*
X108470862Y-52017201D01*
X107982799Y-51529138D01*
X107345113Y-51265000D01*
X106654887Y-51265000D01*
X106017201Y-51529138D01*
X105529138Y-52017201D01*
X105265000Y-52654887D01*
X105235000Y-52654887D01*
X105235000Y-52555431D01*
X104894741Y-51733974D01*
X104266026Y-51105259D01*
X103444569Y-50765000D01*
X102555431Y-50765000D01*
X102356827Y-50847264D01*
X102494092Y-50710000D01*
X147505910Y-50710000D01*
X147643175Y-50847265D01*
G36*
X154796673Y-54860302D02*
X154700000Y-55093691D01*
X154700000Y-55784250D01*
X154858750Y-55943000D01*
X156058000Y-55943000D01*
X156058000Y-55923000D01*
X156312000Y-55923000D01*
X156312000Y-55943000D01*
X156332000Y-55943000D01*
X156332000Y-56197000D01*
X156312000Y-56197000D01*
X156312000Y-56217000D01*
X156058000Y-56217000D01*
X156058000Y-56197000D01*
X154858750Y-56197000D01*
X154700000Y-56355750D01*
X154700000Y-57046309D01*
X154796673Y-57279698D01*
X154975301Y-57458327D01*
X155208690Y-57555000D01*
X155797898Y-57555000D01*
X150652299Y-62700600D01*
X150129747Y-62700600D01*
X150250718Y-62367121D01*
X150224315Y-61776942D01*
X150049259Y-61354320D01*
X149797958Y-61274047D01*
X148933605Y-62138400D01*
X148947748Y-62152543D01*
X148768143Y-62332148D01*
X148754000Y-62318005D01*
X148739858Y-62332148D01*
X148560253Y-62152543D01*
X148574395Y-62138400D01*
X147710042Y-61274047D01*
X147458741Y-61354320D01*
X147257282Y-61909679D01*
X147283685Y-62499858D01*
X147366835Y-62700600D01*
X145315847Y-62700600D01*
X145241000Y-62685712D01*
X145166153Y-62700600D01*
X145166148Y-62700600D01*
X144944463Y-62744696D01*
X144693071Y-62912671D01*
X144650671Y-62976127D01*
X144072328Y-63554471D01*
X144008872Y-63596871D01*
X143972912Y-63650689D01*
X143931174Y-63633400D01*
X143519426Y-63633400D01*
X143139020Y-63790969D01*
X143021589Y-63908400D01*
X140599584Y-63908400D01*
X140578320Y-63857063D01*
X140185337Y-63464080D01*
X140129677Y-63441025D01*
X140235185Y-63397322D01*
X140652922Y-62979585D01*
X140690692Y-62888400D01*
X141623852Y-62888400D01*
X141845537Y-62844304D01*
X142096929Y-62676329D01*
X142264904Y-62424937D01*
X142323889Y-62128400D01*
X142264904Y-61831863D01*
X142096929Y-61580471D01*
X141845537Y-61412496D01*
X141623852Y-61368400D01*
X140682408Y-61368400D01*
X140652922Y-61297215D01*
X140235185Y-60879478D01*
X140069322Y-60810775D01*
X140185337Y-60762720D01*
X140305477Y-60642580D01*
X142989000Y-60642580D01*
X142989000Y-61074220D01*
X143154182Y-61473003D01*
X143459397Y-61778218D01*
X143858180Y-61943400D01*
X144289820Y-61943400D01*
X144688603Y-61778218D01*
X144993818Y-61473003D01*
X145150623Y-61094442D01*
X147889647Y-61094442D01*
X148754000Y-61958795D01*
X149618353Y-61094442D01*
X149538080Y-60843141D01*
X149486925Y-60824584D01*
X149554608Y-60588613D01*
X148754000Y-59788005D01*
X147953392Y-60588613D01*
X148020400Y-60822231D01*
X147969920Y-60843141D01*
X147889647Y-61094442D01*
X145150623Y-61094442D01*
X145159000Y-61074220D01*
X145159000Y-60642580D01*
X144993818Y-60243797D01*
X144688603Y-59938582D01*
X144289820Y-59773400D01*
X143858180Y-59773400D01*
X143459397Y-59938582D01*
X143154182Y-60243797D01*
X142989000Y-60642580D01*
X140305477Y-60642580D01*
X140578320Y-60369737D01*
X140587158Y-60348400D01*
X140674153Y-60348400D01*
X140749000Y-60363288D01*
X140823847Y-60348400D01*
X141623852Y-60348400D01*
X141845537Y-60304304D01*
X142096929Y-60136329D01*
X142264904Y-59884937D01*
X142323889Y-59588400D01*
X142264904Y-59291863D01*
X142096929Y-59040471D01*
X142078038Y-59027848D01*
X142221800Y-58680774D01*
X142221800Y-58269026D01*
X142064231Y-57888620D01*
X141984011Y-57808400D01*
X143110854Y-57808400D01*
X142989000Y-58102580D01*
X142989000Y-58534220D01*
X143154182Y-58933003D01*
X143459397Y-59238218D01*
X143858180Y-59403400D01*
X144289820Y-59403400D01*
X144296333Y-59400702D01*
X147344856Y-59400702D01*
X147372638Y-59955768D01*
X147531603Y-60339543D01*
X147773787Y-60409008D01*
X148574395Y-59608400D01*
X148933605Y-59608400D01*
X149734213Y-60409008D01*
X149976397Y-60339543D01*
X150163144Y-59816098D01*
X150135362Y-59261032D01*
X149976397Y-58877257D01*
X149734213Y-58807792D01*
X148933605Y-59608400D01*
X148574395Y-59608400D01*
X147773787Y-58807792D01*
X147531603Y-58877257D01*
X147344856Y-59400702D01*
X144296333Y-59400702D01*
X144688603Y-59238218D01*
X144993818Y-58933003D01*
X145159000Y-58534220D01*
X145159000Y-58102580D01*
X145128362Y-58028613D01*
X147953392Y-58028613D01*
X148022857Y-58270797D01*
X148172285Y-58324108D01*
X148022857Y-58386003D01*
X147953392Y-58628187D01*
X148754000Y-59428795D01*
X149554608Y-58628187D01*
X149485143Y-58386003D01*
X149335715Y-58332692D01*
X149485143Y-58270797D01*
X149554608Y-58028613D01*
X148754000Y-57228005D01*
X147953392Y-58028613D01*
X145128362Y-58028613D01*
X144993818Y-57703797D01*
X144688603Y-57398582D01*
X144525846Y-57331165D01*
X144619731Y-57237280D01*
X144777300Y-56856874D01*
X144777300Y-56690801D01*
X145161202Y-56306900D01*
X147122353Y-56306900D01*
X147197200Y-56321788D01*
X147272047Y-56306900D01*
X147272052Y-56306900D01*
X147493737Y-56262804D01*
X147670612Y-56144620D01*
X147773785Y-56247793D01*
X147531603Y-56317257D01*
X147344856Y-56840702D01*
X147372638Y-57395768D01*
X147531603Y-57779543D01*
X147773787Y-57849008D01*
X148574395Y-57048400D01*
X148933605Y-57048400D01*
X149734213Y-57849008D01*
X149976397Y-57779543D01*
X150163144Y-57256098D01*
X150135362Y-56701032D01*
X149976397Y-56317257D01*
X149734213Y-56247792D01*
X148933605Y-57048400D01*
X148574395Y-57048400D01*
X148560253Y-57034258D01*
X148739858Y-56854653D01*
X148754000Y-56868795D01*
X149554608Y-56068187D01*
X149485143Y-55826003D01*
X148961698Y-55639256D01*
X148406632Y-55667038D01*
X148022857Y-55826003D01*
X147953393Y-56068185D01*
X147852055Y-55966847D01*
X149070002Y-54748900D01*
X154908074Y-54748900D01*
X154796673Y-54860302D01*
X154796673Y-54860302D01*
G37*
X154796673Y-54860302D02*
X154700000Y-55093691D01*
X154700000Y-55784250D01*
X154858750Y-55943000D01*
X156058000Y-55943000D01*
X156058000Y-55923000D01*
X156312000Y-55923000D01*
X156312000Y-55943000D01*
X156332000Y-55943000D01*
X156332000Y-56197000D01*
X156312000Y-56197000D01*
X156312000Y-56217000D01*
X156058000Y-56217000D01*
X156058000Y-56197000D01*
X154858750Y-56197000D01*
X154700000Y-56355750D01*
X154700000Y-57046309D01*
X154796673Y-57279698D01*
X154975301Y-57458327D01*
X155208690Y-57555000D01*
X155797898Y-57555000D01*
X150652299Y-62700600D01*
X150129747Y-62700600D01*
X150250718Y-62367121D01*
X150224315Y-61776942D01*
X150049259Y-61354320D01*
X149797958Y-61274047D01*
X148933605Y-62138400D01*
X148947748Y-62152543D01*
X148768143Y-62332148D01*
X148754000Y-62318005D01*
X148739858Y-62332148D01*
X148560253Y-62152543D01*
X148574395Y-62138400D01*
X147710042Y-61274047D01*
X147458741Y-61354320D01*
X147257282Y-61909679D01*
X147283685Y-62499858D01*
X147366835Y-62700600D01*
X145315847Y-62700600D01*
X145241000Y-62685712D01*
X145166153Y-62700600D01*
X145166148Y-62700600D01*
X144944463Y-62744696D01*
X144693071Y-62912671D01*
X144650671Y-62976127D01*
X144072328Y-63554471D01*
X144008872Y-63596871D01*
X143972912Y-63650689D01*
X143931174Y-63633400D01*
X143519426Y-63633400D01*
X143139020Y-63790969D01*
X143021589Y-63908400D01*
X140599584Y-63908400D01*
X140578320Y-63857063D01*
X140185337Y-63464080D01*
X140129677Y-63441025D01*
X140235185Y-63397322D01*
X140652922Y-62979585D01*
X140690692Y-62888400D01*
X141623852Y-62888400D01*
X141845537Y-62844304D01*
X142096929Y-62676329D01*
X142264904Y-62424937D01*
X142323889Y-62128400D01*
X142264904Y-61831863D01*
X142096929Y-61580471D01*
X141845537Y-61412496D01*
X141623852Y-61368400D01*
X140682408Y-61368400D01*
X140652922Y-61297215D01*
X140235185Y-60879478D01*
X140069322Y-60810775D01*
X140185337Y-60762720D01*
X140305477Y-60642580D01*
X142989000Y-60642580D01*
X142989000Y-61074220D01*
X143154182Y-61473003D01*
X143459397Y-61778218D01*
X143858180Y-61943400D01*
X144289820Y-61943400D01*
X144688603Y-61778218D01*
X144993818Y-61473003D01*
X145150623Y-61094442D01*
X147889647Y-61094442D01*
X148754000Y-61958795D01*
X149618353Y-61094442D01*
X149538080Y-60843141D01*
X149486925Y-60824584D01*
X149554608Y-60588613D01*
X148754000Y-59788005D01*
X147953392Y-60588613D01*
X148020400Y-60822231D01*
X147969920Y-60843141D01*
X147889647Y-61094442D01*
X145150623Y-61094442D01*
X145159000Y-61074220D01*
X145159000Y-60642580D01*
X144993818Y-60243797D01*
X144688603Y-59938582D01*
X144289820Y-59773400D01*
X143858180Y-59773400D01*
X143459397Y-59938582D01*
X143154182Y-60243797D01*
X142989000Y-60642580D01*
X140305477Y-60642580D01*
X140578320Y-60369737D01*
X140587158Y-60348400D01*
X140674153Y-60348400D01*
X140749000Y-60363288D01*
X140823847Y-60348400D01*
X141623852Y-60348400D01*
X141845537Y-60304304D01*
X142096929Y-60136329D01*
X142264904Y-59884937D01*
X142323889Y-59588400D01*
X142264904Y-59291863D01*
X142096929Y-59040471D01*
X142078038Y-59027848D01*
X142221800Y-58680774D01*
X142221800Y-58269026D01*
X142064231Y-57888620D01*
X141984011Y-57808400D01*
X143110854Y-57808400D01*
X142989000Y-58102580D01*
X142989000Y-58534220D01*
X143154182Y-58933003D01*
X143459397Y-59238218D01*
X143858180Y-59403400D01*
X144289820Y-59403400D01*
X144296333Y-59400702D01*
X147344856Y-59400702D01*
X147372638Y-59955768D01*
X147531603Y-60339543D01*
X147773787Y-60409008D01*
X148574395Y-59608400D01*
X148933605Y-59608400D01*
X149734213Y-60409008D01*
X149976397Y-60339543D01*
X150163144Y-59816098D01*
X150135362Y-59261032D01*
X149976397Y-58877257D01*
X149734213Y-58807792D01*
X148933605Y-59608400D01*
X148574395Y-59608400D01*
X147773787Y-58807792D01*
X147531603Y-58877257D01*
X147344856Y-59400702D01*
X144296333Y-59400702D01*
X144688603Y-59238218D01*
X144993818Y-58933003D01*
X145159000Y-58534220D01*
X145159000Y-58102580D01*
X145128362Y-58028613D01*
X147953392Y-58028613D01*
X148022857Y-58270797D01*
X148172285Y-58324108D01*
X148022857Y-58386003D01*
X147953392Y-58628187D01*
X148754000Y-59428795D01*
X149554608Y-58628187D01*
X149485143Y-58386003D01*
X149335715Y-58332692D01*
X149485143Y-58270797D01*
X149554608Y-58028613D01*
X148754000Y-57228005D01*
X147953392Y-58028613D01*
X145128362Y-58028613D01*
X144993818Y-57703797D01*
X144688603Y-57398582D01*
X144525846Y-57331165D01*
X144619731Y-57237280D01*
X144777300Y-56856874D01*
X144777300Y-56690801D01*
X145161202Y-56306900D01*
X147122353Y-56306900D01*
X147197200Y-56321788D01*
X147272047Y-56306900D01*
X147272052Y-56306900D01*
X147493737Y-56262804D01*
X147670612Y-56144620D01*
X147773785Y-56247793D01*
X147531603Y-56317257D01*
X147344856Y-56840702D01*
X147372638Y-57395768D01*
X147531603Y-57779543D01*
X147773787Y-57849008D01*
X148574395Y-57048400D01*
X148933605Y-57048400D01*
X149734213Y-57849008D01*
X149976397Y-57779543D01*
X150163144Y-57256098D01*
X150135362Y-56701032D01*
X149976397Y-56317257D01*
X149734213Y-56247792D01*
X148933605Y-57048400D01*
X148574395Y-57048400D01*
X148560253Y-57034258D01*
X148739858Y-56854653D01*
X148754000Y-56868795D01*
X149554608Y-56068187D01*
X149485143Y-55826003D01*
X148961698Y-55639256D01*
X148406632Y-55667038D01*
X148022857Y-55826003D01*
X147953393Y-56068185D01*
X147852055Y-55966847D01*
X149070002Y-54748900D01*
X154908074Y-54748900D01*
X154796673Y-54860302D01*
G04 #@! TD*
M02*
