G04 #@! TF.GenerationSoftware,KiCad,Pcbnew,5.0.0-rc2-be01b52~65~ubuntu17.10.1*
G04 #@! TF.CreationDate,2018-06-19T20:11:22+09:00*
G04 #@! TF.ProjectId,M5StackSideBB,4D35537461636B5369646542422E6B69,rev?*
G04 #@! TF.SameCoordinates,Original*
G04 #@! TF.FileFunction,Legend,Bot*
G04 #@! TF.FilePolarity,Positive*
%FSLAX46Y46*%
G04 Gerber Fmt 4.6, Leading zero omitted, Abs format (unit mm)*
G04 Created by KiCad (PCBNEW 5.0.0-rc2-be01b52~65~ubuntu17.10.1) date Tue Jun 19 20:11:22 2018*
%MOMM*%
%LPD*%
G01*
G04 APERTURE LIST*
%ADD10C,0.225000*%
%ADD11C,0.300000*%
%ADD12C,0.120000*%
%ADD13C,0.010000*%
G04 APERTURE END LIST*
D10*
X170926685Y-96063542D02*
X171226685Y-95634971D01*
X171440971Y-96063542D02*
X171440971Y-95163542D01*
X171098114Y-95163542D01*
X171012400Y-95206400D01*
X170969542Y-95249257D01*
X170926685Y-95334971D01*
X170926685Y-95463542D01*
X170969542Y-95549257D01*
X171012400Y-95592114D01*
X171098114Y-95634971D01*
X171440971Y-95634971D01*
X170198114Y-96020685D02*
X170283828Y-96063542D01*
X170455257Y-96063542D01*
X170540971Y-96020685D01*
X170583828Y-95934971D01*
X170583828Y-95592114D01*
X170540971Y-95506400D01*
X170455257Y-95463542D01*
X170283828Y-95463542D01*
X170198114Y-95506400D01*
X170155257Y-95592114D01*
X170155257Y-95677828D01*
X170583828Y-95763542D01*
X169855257Y-95463542D02*
X169640971Y-96063542D01*
X169426685Y-95463542D01*
X167926685Y-96063542D02*
X168440971Y-96063542D01*
X168183828Y-96063542D02*
X168183828Y-95163542D01*
X168269542Y-95292114D01*
X168355257Y-95377828D01*
X168440971Y-95420685D01*
X167540971Y-95977828D02*
X167498114Y-96020685D01*
X167540971Y-96063542D01*
X167583828Y-96020685D01*
X167540971Y-95977828D01*
X167540971Y-96063542D01*
X166940971Y-95163542D02*
X166855257Y-95163542D01*
X166769542Y-95206400D01*
X166726685Y-95249257D01*
X166683828Y-95334971D01*
X166640971Y-95506400D01*
X166640971Y-95720685D01*
X166683828Y-95892114D01*
X166726685Y-95977828D01*
X166769542Y-96020685D01*
X166855257Y-96063542D01*
X166940971Y-96063542D01*
X167026685Y-96020685D01*
X167069542Y-95977828D01*
X167112400Y-95892114D01*
X167155257Y-95720685D01*
X167155257Y-95506400D01*
X167112400Y-95334971D01*
X167069542Y-95249257D01*
X167026685Y-95206400D01*
X166940971Y-95163542D01*
D11*
X189026571Y-95928571D02*
X189026571Y-94428571D01*
X188526571Y-95500000D01*
X188026571Y-94428571D01*
X188026571Y-95928571D01*
X186598000Y-94428571D02*
X187312285Y-94428571D01*
X187383714Y-95142857D01*
X187312285Y-95071428D01*
X187169428Y-95000000D01*
X186812285Y-95000000D01*
X186669428Y-95071428D01*
X186598000Y-95142857D01*
X186526571Y-95285714D01*
X186526571Y-95642857D01*
X186598000Y-95785714D01*
X186669428Y-95857142D01*
X186812285Y-95928571D01*
X187169428Y-95928571D01*
X187312285Y-95857142D01*
X187383714Y-95785714D01*
X185955142Y-95857142D02*
X185740857Y-95928571D01*
X185383714Y-95928571D01*
X185240857Y-95857142D01*
X185169428Y-95785714D01*
X185098000Y-95642857D01*
X185098000Y-95500000D01*
X185169428Y-95357142D01*
X185240857Y-95285714D01*
X185383714Y-95214285D01*
X185669428Y-95142857D01*
X185812285Y-95071428D01*
X185883714Y-95000000D01*
X185955142Y-94857142D01*
X185955142Y-94714285D01*
X185883714Y-94571428D01*
X185812285Y-94500000D01*
X185669428Y-94428571D01*
X185312285Y-94428571D01*
X185098000Y-94500000D01*
X184669428Y-94928571D02*
X184098000Y-94928571D01*
X184455142Y-94428571D02*
X184455142Y-95714285D01*
X184383714Y-95857142D01*
X184240857Y-95928571D01*
X184098000Y-95928571D01*
X182955142Y-95928571D02*
X182955142Y-95142857D01*
X183026571Y-95000000D01*
X183169428Y-94928571D01*
X183455142Y-94928571D01*
X183598000Y-95000000D01*
X182955142Y-95857142D02*
X183098000Y-95928571D01*
X183455142Y-95928571D01*
X183598000Y-95857142D01*
X183669428Y-95714285D01*
X183669428Y-95571428D01*
X183598000Y-95428571D01*
X183455142Y-95357142D01*
X183098000Y-95357142D01*
X182955142Y-95285714D01*
X181598000Y-95857142D02*
X181740857Y-95928571D01*
X182026571Y-95928571D01*
X182169428Y-95857142D01*
X182240857Y-95785714D01*
X182312285Y-95642857D01*
X182312285Y-95214285D01*
X182240857Y-95071428D01*
X182169428Y-95000000D01*
X182026571Y-94928571D01*
X181740857Y-94928571D01*
X181598000Y-95000000D01*
X180955142Y-95928571D02*
X180955142Y-94428571D01*
X180812285Y-95357142D02*
X180383714Y-95928571D01*
X180383714Y-94928571D02*
X180955142Y-95500000D01*
X179812285Y-95857142D02*
X179598000Y-95928571D01*
X179240857Y-95928571D01*
X179098000Y-95857142D01*
X179026571Y-95785714D01*
X178955142Y-95642857D01*
X178955142Y-95500000D01*
X179026571Y-95357142D01*
X179098000Y-95285714D01*
X179240857Y-95214285D01*
X179526571Y-95142857D01*
X179669428Y-95071428D01*
X179740857Y-95000000D01*
X179812285Y-94857142D01*
X179812285Y-94714285D01*
X179740857Y-94571428D01*
X179669428Y-94500000D01*
X179526571Y-94428571D01*
X179169428Y-94428571D01*
X178955142Y-94500000D01*
X178312285Y-95928571D02*
X178312285Y-94928571D01*
X178312285Y-94428571D02*
X178383714Y-94500000D01*
X178312285Y-94571428D01*
X178240857Y-94500000D01*
X178312285Y-94428571D01*
X178312285Y-94571428D01*
X176955142Y-95928571D02*
X176955142Y-94428571D01*
X176955142Y-95857142D02*
X177098000Y-95928571D01*
X177383714Y-95928571D01*
X177526571Y-95857142D01*
X177598000Y-95785714D01*
X177669428Y-95642857D01*
X177669428Y-95214285D01*
X177598000Y-95071428D01*
X177526571Y-95000000D01*
X177383714Y-94928571D01*
X177098000Y-94928571D01*
X176955142Y-95000000D01*
X175669428Y-95857142D02*
X175812285Y-95928571D01*
X176098000Y-95928571D01*
X176240857Y-95857142D01*
X176312285Y-95714285D01*
X176312285Y-95142857D01*
X176240857Y-95000000D01*
X176098000Y-94928571D01*
X175812285Y-94928571D01*
X175669428Y-95000000D01*
X175598000Y-95142857D01*
X175598000Y-95285714D01*
X176312285Y-95428571D01*
X174455142Y-95142857D02*
X174240857Y-95214285D01*
X174169428Y-95285714D01*
X174098000Y-95428571D01*
X174098000Y-95642857D01*
X174169428Y-95785714D01*
X174240857Y-95857142D01*
X174383714Y-95928571D01*
X174955142Y-95928571D01*
X174955142Y-94428571D01*
X174455142Y-94428571D01*
X174312285Y-94500000D01*
X174240857Y-94571428D01*
X174169428Y-94714285D01*
X174169428Y-94857142D01*
X174240857Y-95000000D01*
X174312285Y-95071428D01*
X174455142Y-95142857D01*
X174955142Y-95142857D01*
X172955142Y-95142857D02*
X172740857Y-95214285D01*
X172669428Y-95285714D01*
X172598000Y-95428571D01*
X172598000Y-95642857D01*
X172669428Y-95785714D01*
X172740857Y-95857142D01*
X172883714Y-95928571D01*
X173455142Y-95928571D01*
X173455142Y-94428571D01*
X172955142Y-94428571D01*
X172812285Y-94500000D01*
X172740857Y-94571428D01*
X172669428Y-94714285D01*
X172669428Y-94857142D01*
X172740857Y-95000000D01*
X172812285Y-95071428D01*
X172955142Y-95142857D01*
X173455142Y-95142857D01*
D12*
G04 #@! TO.C,J3*
X146974000Y-55718400D02*
X141774000Y-55718400D01*
X141774000Y-55718400D02*
X141774000Y-56288400D01*
X141774000Y-57808400D02*
X141774000Y-58828400D01*
X141774000Y-60348400D02*
X141774000Y-61368400D01*
X141774000Y-62888400D02*
X141774000Y-63908400D01*
X141774000Y-65428400D02*
X141774000Y-66448400D01*
X141774000Y-67968400D02*
X141774000Y-68988400D01*
X141774000Y-70508400D02*
X141774000Y-71528400D01*
X141774000Y-73048400D02*
X141774000Y-74068400D01*
X141774000Y-75588400D02*
X141774000Y-76608400D01*
X141774000Y-78128400D02*
X141774000Y-79148400D01*
X141774000Y-80668400D02*
X141774000Y-81688400D01*
X141774000Y-83208400D02*
X141774000Y-84228400D01*
X141774000Y-85748400D02*
X141774000Y-86768400D01*
X141774000Y-88288400D02*
X141774000Y-89308400D01*
X141774000Y-90828400D02*
X141774000Y-91848400D01*
X141774000Y-93368400D02*
X141774000Y-93938400D01*
X146974000Y-93938400D02*
X141774000Y-93938400D01*
X146974000Y-55718400D02*
X146974000Y-56288400D01*
X146974000Y-57808400D02*
X146974000Y-58828400D01*
X146974000Y-60348400D02*
X146974000Y-61368400D01*
X146974000Y-62888400D02*
X146974000Y-63908400D01*
X146974000Y-65428400D02*
X146974000Y-66448400D01*
X146974000Y-67968400D02*
X146974000Y-68988400D01*
X146974000Y-70508400D02*
X146974000Y-71528400D01*
X146974000Y-73048400D02*
X146974000Y-74068400D01*
X146974000Y-75588400D02*
X146974000Y-76608400D01*
X146974000Y-78128400D02*
X146974000Y-79148400D01*
X146974000Y-80668400D02*
X146974000Y-81688400D01*
X146974000Y-83208400D02*
X146974000Y-84228400D01*
X146974000Y-85748400D02*
X146974000Y-86768400D01*
X146974000Y-88288400D02*
X146974000Y-89308400D01*
X146974000Y-90828400D02*
X146974000Y-91848400D01*
X146974000Y-93368400D02*
X146974000Y-93938400D01*
X141774000Y-56288400D02*
X140414000Y-56288400D01*
D13*
G04 #@! TO.C,G\002A\002A\002A*
G36*
X165709358Y-63939829D02*
X165457021Y-64011297D01*
X165222453Y-64128374D01*
X165014335Y-64290188D01*
X165004620Y-64299593D01*
X164909618Y-64401260D01*
X164827368Y-64505272D01*
X164766426Y-64599376D01*
X164735352Y-64671320D01*
X164733111Y-64688262D01*
X164721569Y-64729277D01*
X164709356Y-64736134D01*
X164680236Y-64763145D01*
X164655656Y-64839547D01*
X164636723Y-64958390D01*
X164624543Y-65112724D01*
X164620222Y-65295599D01*
X164620222Y-65296090D01*
X164621070Y-65443389D01*
X164625253Y-65549072D01*
X164635234Y-65627964D01*
X164653475Y-65694888D01*
X164682440Y-65764665D01*
X164706407Y-65814927D01*
X164773491Y-65950615D01*
X164825997Y-66048185D01*
X164873100Y-66120723D01*
X164923974Y-66181312D01*
X164987795Y-66243038D01*
X165037784Y-66287526D01*
X165200689Y-66416924D01*
X165357460Y-66509126D01*
X165529582Y-66576162D01*
X165579778Y-66591033D01*
X165688203Y-66614867D01*
X165815254Y-66632887D01*
X165945672Y-66644129D01*
X166064199Y-66647626D01*
X166155576Y-66642414D01*
X166200667Y-66630316D01*
X166250527Y-66610936D01*
X166334720Y-66587597D01*
X166405278Y-66571636D01*
X166491933Y-66550125D01*
X166550811Y-66528356D01*
X166567556Y-66514322D01*
X166591601Y-66490848D01*
X166651122Y-66463062D01*
X166668309Y-66457037D01*
X166738276Y-66425399D01*
X166781053Y-66390227D01*
X166784218Y-66384293D01*
X166813382Y-66348723D01*
X166826746Y-66344800D01*
X166864399Y-66325346D01*
X166919317Y-66278486D01*
X166974250Y-66221471D01*
X167011944Y-66171555D01*
X167019111Y-66152435D01*
X167041501Y-66119210D01*
X167058727Y-66109860D01*
X167094920Y-66074197D01*
X167142316Y-65997732D01*
X167194792Y-65893378D01*
X167246222Y-65774051D01*
X167290480Y-65652667D01*
X167314834Y-65569815D01*
X167348101Y-65404334D01*
X167355323Y-65253153D01*
X167337325Y-65087010D01*
X167329662Y-65043375D01*
X167312387Y-64957822D01*
X167292716Y-64886005D01*
X167264401Y-64810632D01*
X167221196Y-64714410D01*
X167178397Y-64624662D01*
X167119446Y-64529826D01*
X167029785Y-64416819D01*
X166923830Y-64301375D01*
X166815998Y-64199228D01*
X166722778Y-64127431D01*
X166486175Y-64007770D01*
X166232617Y-63937195D01*
X165970784Y-63914838D01*
X165709358Y-63939829D01*
X165709358Y-63939829D01*
G37*
X165709358Y-63939829D02*
X165457021Y-64011297D01*
X165222453Y-64128374D01*
X165014335Y-64290188D01*
X165004620Y-64299593D01*
X164909618Y-64401260D01*
X164827368Y-64505272D01*
X164766426Y-64599376D01*
X164735352Y-64671320D01*
X164733111Y-64688262D01*
X164721569Y-64729277D01*
X164709356Y-64736134D01*
X164680236Y-64763145D01*
X164655656Y-64839547D01*
X164636723Y-64958390D01*
X164624543Y-65112724D01*
X164620222Y-65295599D01*
X164620222Y-65296090D01*
X164621070Y-65443389D01*
X164625253Y-65549072D01*
X164635234Y-65627964D01*
X164653475Y-65694888D01*
X164682440Y-65764665D01*
X164706407Y-65814927D01*
X164773491Y-65950615D01*
X164825997Y-66048185D01*
X164873100Y-66120723D01*
X164923974Y-66181312D01*
X164987795Y-66243038D01*
X165037784Y-66287526D01*
X165200689Y-66416924D01*
X165357460Y-66509126D01*
X165529582Y-66576162D01*
X165579778Y-66591033D01*
X165688203Y-66614867D01*
X165815254Y-66632887D01*
X165945672Y-66644129D01*
X166064199Y-66647626D01*
X166155576Y-66642414D01*
X166200667Y-66630316D01*
X166250527Y-66610936D01*
X166334720Y-66587597D01*
X166405278Y-66571636D01*
X166491933Y-66550125D01*
X166550811Y-66528356D01*
X166567556Y-66514322D01*
X166591601Y-66490848D01*
X166651122Y-66463062D01*
X166668309Y-66457037D01*
X166738276Y-66425399D01*
X166781053Y-66390227D01*
X166784218Y-66384293D01*
X166813382Y-66348723D01*
X166826746Y-66344800D01*
X166864399Y-66325346D01*
X166919317Y-66278486D01*
X166974250Y-66221471D01*
X167011944Y-66171555D01*
X167019111Y-66152435D01*
X167041501Y-66119210D01*
X167058727Y-66109860D01*
X167094920Y-66074197D01*
X167142316Y-65997732D01*
X167194792Y-65893378D01*
X167246222Y-65774051D01*
X167290480Y-65652667D01*
X167314834Y-65569815D01*
X167348101Y-65404334D01*
X167355323Y-65253153D01*
X167337325Y-65087010D01*
X167329662Y-65043375D01*
X167312387Y-64957822D01*
X167292716Y-64886005D01*
X167264401Y-64810632D01*
X167221196Y-64714410D01*
X167178397Y-64624662D01*
X167119446Y-64529826D01*
X167029785Y-64416819D01*
X166923830Y-64301375D01*
X166815998Y-64199228D01*
X166722778Y-64127431D01*
X166486175Y-64007770D01*
X166232617Y-63937195D01*
X165970784Y-63914838D01*
X165709358Y-63939829D01*
G36*
X168736882Y-65966010D02*
X168644618Y-65974851D01*
X168573047Y-65993643D01*
X168504342Y-66025705D01*
X168488749Y-66034356D01*
X168309305Y-66162917D01*
X168179963Y-66317428D01*
X168100875Y-66497557D01*
X168072190Y-66702970D01*
X168090339Y-66913384D01*
X168110185Y-67013487D01*
X168133443Y-67085556D01*
X168169993Y-67147052D01*
X168229717Y-67215438D01*
X168302749Y-67288741D01*
X168392984Y-67374823D01*
X168461953Y-67429594D01*
X168526906Y-67463008D01*
X168605091Y-67485017D01*
X168662546Y-67496340D01*
X168782514Y-67516884D01*
X168869890Y-67525293D01*
X168947282Y-67521225D01*
X169037298Y-67504333D01*
X169099421Y-67489685D01*
X169184735Y-67458922D01*
X169280697Y-67409327D01*
X169373607Y-67350099D01*
X169449764Y-67290439D01*
X169495470Y-67239545D01*
X169502667Y-67218899D01*
X169521435Y-67183547D01*
X169566167Y-67134509D01*
X169593826Y-67104522D01*
X169612058Y-67068349D01*
X169622803Y-67014381D01*
X169628003Y-66931009D01*
X169629600Y-66806627D01*
X169629667Y-66754805D01*
X169628605Y-66612261D01*
X169624106Y-66513524D01*
X169614199Y-66445973D01*
X169596911Y-66396990D01*
X169570271Y-66353953D01*
X169566167Y-66348339D01*
X169525081Y-66289407D01*
X169503584Y-66252054D01*
X169502667Y-66248448D01*
X169480803Y-66212837D01*
X169424182Y-66159122D01*
X169346258Y-66098554D01*
X169260487Y-66042382D01*
X169246584Y-66034356D01*
X169176234Y-65999113D01*
X169106729Y-65977832D01*
X169020242Y-65967193D01*
X168898946Y-65963877D01*
X168867667Y-65963800D01*
X168736882Y-65966010D01*
X168736882Y-65966010D01*
G37*
X168736882Y-65966010D02*
X168644618Y-65974851D01*
X168573047Y-65993643D01*
X168504342Y-66025705D01*
X168488749Y-66034356D01*
X168309305Y-66162917D01*
X168179963Y-66317428D01*
X168100875Y-66497557D01*
X168072190Y-66702970D01*
X168090339Y-66913384D01*
X168110185Y-67013487D01*
X168133443Y-67085556D01*
X168169993Y-67147052D01*
X168229717Y-67215438D01*
X168302749Y-67288741D01*
X168392984Y-67374823D01*
X168461953Y-67429594D01*
X168526906Y-67463008D01*
X168605091Y-67485017D01*
X168662546Y-67496340D01*
X168782514Y-67516884D01*
X168869890Y-67525293D01*
X168947282Y-67521225D01*
X169037298Y-67504333D01*
X169099421Y-67489685D01*
X169184735Y-67458922D01*
X169280697Y-67409327D01*
X169373607Y-67350099D01*
X169449764Y-67290439D01*
X169495470Y-67239545D01*
X169502667Y-67218899D01*
X169521435Y-67183547D01*
X169566167Y-67134509D01*
X169593826Y-67104522D01*
X169612058Y-67068349D01*
X169622803Y-67014381D01*
X169628003Y-66931009D01*
X169629600Y-66806627D01*
X169629667Y-66754805D01*
X169628605Y-66612261D01*
X169624106Y-66513524D01*
X169614199Y-66445973D01*
X169596911Y-66396990D01*
X169570271Y-66353953D01*
X169566167Y-66348339D01*
X169525081Y-66289407D01*
X169503584Y-66252054D01*
X169502667Y-66248448D01*
X169480803Y-66212837D01*
X169424182Y-66159122D01*
X169346258Y-66098554D01*
X169260487Y-66042382D01*
X169246584Y-66034356D01*
X169176234Y-65999113D01*
X169106729Y-65977832D01*
X169020242Y-65967193D01*
X168898946Y-65963877D01*
X168867667Y-65963800D01*
X168736882Y-65966010D01*
G36*
X172306578Y-63863190D02*
X172169855Y-63866613D01*
X172054842Y-63872068D01*
X171972698Y-63879540D01*
X171936451Y-63887776D01*
X171885816Y-63908502D01*
X171798988Y-63937928D01*
X171694223Y-63969888D01*
X171688097Y-63971656D01*
X171489986Y-64041725D01*
X171267039Y-64143321D01*
X171054889Y-64257774D01*
X170964838Y-64318216D01*
X170856635Y-64403306D01*
X170739815Y-64504032D01*
X170623916Y-64611384D01*
X170518474Y-64716350D01*
X170433024Y-64809920D01*
X170377103Y-64883081D01*
X170361987Y-64912523D01*
X170337894Y-64954159D01*
X170323496Y-64961912D01*
X170299601Y-64985241D01*
X170265282Y-65044004D01*
X170250556Y-65074800D01*
X170214687Y-65143359D01*
X170184150Y-65183419D01*
X170175714Y-65187689D01*
X170154340Y-65210551D01*
X170151778Y-65229164D01*
X170138673Y-65280115D01*
X170106485Y-65351335D01*
X170100023Y-65363220D01*
X170065339Y-65438150D01*
X170024951Y-65544113D01*
X169989108Y-65653356D01*
X169906460Y-66013297D01*
X169875368Y-66373412D01*
X169895958Y-66739953D01*
X169968356Y-67119170D01*
X170022369Y-67310182D01*
X170063671Y-67443008D01*
X169881947Y-67528869D01*
X169792532Y-67574797D01*
X169727661Y-67615138D01*
X169700389Y-67641695D01*
X169700222Y-67642987D01*
X169677910Y-67669194D01*
X169664635Y-67671245D01*
X169625009Y-67693235D01*
X169567088Y-67750100D01*
X169501395Y-67828183D01*
X169438454Y-67913826D01*
X169388791Y-67993373D01*
X169362927Y-68053165D01*
X169361382Y-68064783D01*
X169348533Y-68119118D01*
X169317686Y-68190245D01*
X169316041Y-68193356D01*
X169274682Y-68313504D01*
X169256017Y-68461578D01*
X169261156Y-68613354D01*
X169290860Y-68743689D01*
X169323346Y-68838157D01*
X169348012Y-68924286D01*
X169353319Y-68948238D01*
X169380697Y-69005976D01*
X169441491Y-69089425D01*
X169526870Y-69186863D01*
X169555250Y-69216349D01*
X169680657Y-69340442D01*
X169776285Y-69426212D01*
X169848558Y-69478645D01*
X169903902Y-69502721D01*
X169928294Y-69505689D01*
X169984534Y-69516201D01*
X170062200Y-69542088D01*
X170076869Y-69548023D01*
X170177475Y-69573848D01*
X170308077Y-69585999D01*
X170446470Y-69584515D01*
X170570447Y-69569436D01*
X170645667Y-69547003D01*
X170719706Y-69519218D01*
X170778469Y-69506962D01*
X170857383Y-69482642D01*
X170955455Y-69419614D01*
X171062751Y-69327537D01*
X171169334Y-69216072D01*
X171265268Y-69094878D01*
X171340618Y-68973615D01*
X171353390Y-68948005D01*
X171386962Y-68878749D01*
X171416817Y-68835493D01*
X171454439Y-68816358D01*
X171511313Y-68819465D01*
X171598921Y-68842935D01*
X171728748Y-68884890D01*
X171732222Y-68886025D01*
X171937986Y-68937325D01*
X172175989Y-68970871D01*
X172424309Y-68984785D01*
X172661020Y-68977192D01*
X172723295Y-68970829D01*
X172941104Y-68937022D01*
X173148865Y-68890777D01*
X173331608Y-68836022D01*
X173474368Y-68776685D01*
X173485843Y-68770665D01*
X173561961Y-68735408D01*
X173623394Y-68716488D01*
X173634009Y-68715467D01*
X173673615Y-68703314D01*
X173679556Y-68691531D01*
X173702898Y-68666377D01*
X173761591Y-68631444D01*
X173790782Y-68617439D01*
X173863023Y-68577896D01*
X173910108Y-68539215D01*
X173916897Y-68528486D01*
X173952058Y-68493270D01*
X173969005Y-68489689D01*
X174005175Y-68470296D01*
X174070281Y-68418047D01*
X174155350Y-68341840D01*
X174251410Y-68250573D01*
X174349487Y-68153144D01*
X174440610Y-68058450D01*
X174515805Y-67975389D01*
X174566100Y-67912859D01*
X174582667Y-67881159D01*
X174596469Y-67853251D01*
X174632414Y-67791808D01*
X174675847Y-67721182D01*
X174821558Y-67450380D01*
X174925222Y-67166393D01*
X174989404Y-66859435D01*
X175016666Y-66519719D01*
X175018034Y-66415356D01*
X175016593Y-66243450D01*
X175011052Y-66111222D01*
X174999510Y-66001949D01*
X174980064Y-65898906D01*
X174950816Y-65785371D01*
X174943478Y-65759427D01*
X174817250Y-65410321D01*
X174645728Y-65079876D01*
X174540186Y-64919578D01*
X174468156Y-64823487D01*
X174388833Y-64725175D01*
X174311166Y-64634834D01*
X174244106Y-64562653D01*
X174196604Y-64518824D01*
X174180764Y-64510356D01*
X174152654Y-64492795D01*
X174099696Y-64448470D01*
X174072704Y-64423855D01*
X173992753Y-64357820D01*
X173910535Y-64302466D01*
X173893330Y-64293032D01*
X173827331Y-64251858D01*
X173785290Y-64212280D01*
X173783987Y-64210199D01*
X173744889Y-64175598D01*
X173727542Y-64171515D01*
X173680607Y-64159137D01*
X173613242Y-64129389D01*
X173609515Y-64127462D01*
X173495529Y-64073847D01*
X173361416Y-64019318D01*
X173227819Y-63971552D01*
X173115379Y-63938224D01*
X173079522Y-63930394D01*
X173006918Y-63911974D01*
X172961889Y-63890634D01*
X172957912Y-63886268D01*
X172925271Y-63877147D01*
X172847385Y-63870158D01*
X172735414Y-63865284D01*
X172600517Y-63862509D01*
X172453852Y-63861817D01*
X172306578Y-63863190D01*
X172306578Y-63863190D01*
G37*
X172306578Y-63863190D02*
X172169855Y-63866613D01*
X172054842Y-63872068D01*
X171972698Y-63879540D01*
X171936451Y-63887776D01*
X171885816Y-63908502D01*
X171798988Y-63937928D01*
X171694223Y-63969888D01*
X171688097Y-63971656D01*
X171489986Y-64041725D01*
X171267039Y-64143321D01*
X171054889Y-64257774D01*
X170964838Y-64318216D01*
X170856635Y-64403306D01*
X170739815Y-64504032D01*
X170623916Y-64611384D01*
X170518474Y-64716350D01*
X170433024Y-64809920D01*
X170377103Y-64883081D01*
X170361987Y-64912523D01*
X170337894Y-64954159D01*
X170323496Y-64961912D01*
X170299601Y-64985241D01*
X170265282Y-65044004D01*
X170250556Y-65074800D01*
X170214687Y-65143359D01*
X170184150Y-65183419D01*
X170175714Y-65187689D01*
X170154340Y-65210551D01*
X170151778Y-65229164D01*
X170138673Y-65280115D01*
X170106485Y-65351335D01*
X170100023Y-65363220D01*
X170065339Y-65438150D01*
X170024951Y-65544113D01*
X169989108Y-65653356D01*
X169906460Y-66013297D01*
X169875368Y-66373412D01*
X169895958Y-66739953D01*
X169968356Y-67119170D01*
X170022369Y-67310182D01*
X170063671Y-67443008D01*
X169881947Y-67528869D01*
X169792532Y-67574797D01*
X169727661Y-67615138D01*
X169700389Y-67641695D01*
X169700222Y-67642987D01*
X169677910Y-67669194D01*
X169664635Y-67671245D01*
X169625009Y-67693235D01*
X169567088Y-67750100D01*
X169501395Y-67828183D01*
X169438454Y-67913826D01*
X169388791Y-67993373D01*
X169362927Y-68053165D01*
X169361382Y-68064783D01*
X169348533Y-68119118D01*
X169317686Y-68190245D01*
X169316041Y-68193356D01*
X169274682Y-68313504D01*
X169256017Y-68461578D01*
X169261156Y-68613354D01*
X169290860Y-68743689D01*
X169323346Y-68838157D01*
X169348012Y-68924286D01*
X169353319Y-68948238D01*
X169380697Y-69005976D01*
X169441491Y-69089425D01*
X169526870Y-69186863D01*
X169555250Y-69216349D01*
X169680657Y-69340442D01*
X169776285Y-69426212D01*
X169848558Y-69478645D01*
X169903902Y-69502721D01*
X169928294Y-69505689D01*
X169984534Y-69516201D01*
X170062200Y-69542088D01*
X170076869Y-69548023D01*
X170177475Y-69573848D01*
X170308077Y-69585999D01*
X170446470Y-69584515D01*
X170570447Y-69569436D01*
X170645667Y-69547003D01*
X170719706Y-69519218D01*
X170778469Y-69506962D01*
X170857383Y-69482642D01*
X170955455Y-69419614D01*
X171062751Y-69327537D01*
X171169334Y-69216072D01*
X171265268Y-69094878D01*
X171340618Y-68973615D01*
X171353390Y-68948005D01*
X171386962Y-68878749D01*
X171416817Y-68835493D01*
X171454439Y-68816358D01*
X171511313Y-68819465D01*
X171598921Y-68842935D01*
X171728748Y-68884890D01*
X171732222Y-68886025D01*
X171937986Y-68937325D01*
X172175989Y-68970871D01*
X172424309Y-68984785D01*
X172661020Y-68977192D01*
X172723295Y-68970829D01*
X172941104Y-68937022D01*
X173148865Y-68890777D01*
X173331608Y-68836022D01*
X173474368Y-68776685D01*
X173485843Y-68770665D01*
X173561961Y-68735408D01*
X173623394Y-68716488D01*
X173634009Y-68715467D01*
X173673615Y-68703314D01*
X173679556Y-68691531D01*
X173702898Y-68666377D01*
X173761591Y-68631444D01*
X173790782Y-68617439D01*
X173863023Y-68577896D01*
X173910108Y-68539215D01*
X173916897Y-68528486D01*
X173952058Y-68493270D01*
X173969005Y-68489689D01*
X174005175Y-68470296D01*
X174070281Y-68418047D01*
X174155350Y-68341840D01*
X174251410Y-68250573D01*
X174349487Y-68153144D01*
X174440610Y-68058450D01*
X174515805Y-67975389D01*
X174566100Y-67912859D01*
X174582667Y-67881159D01*
X174596469Y-67853251D01*
X174632414Y-67791808D01*
X174675847Y-67721182D01*
X174821558Y-67450380D01*
X174925222Y-67166393D01*
X174989404Y-66859435D01*
X175016666Y-66519719D01*
X175018034Y-66415356D01*
X175016593Y-66243450D01*
X175011052Y-66111222D01*
X174999510Y-66001949D01*
X174980064Y-65898906D01*
X174950816Y-65785371D01*
X174943478Y-65759427D01*
X174817250Y-65410321D01*
X174645728Y-65079876D01*
X174540186Y-64919578D01*
X174468156Y-64823487D01*
X174388833Y-64725175D01*
X174311166Y-64634834D01*
X174244106Y-64562653D01*
X174196604Y-64518824D01*
X174180764Y-64510356D01*
X174152654Y-64492795D01*
X174099696Y-64448470D01*
X174072704Y-64423855D01*
X173992753Y-64357820D01*
X173910535Y-64302466D01*
X173893330Y-64293032D01*
X173827331Y-64251858D01*
X173785290Y-64212280D01*
X173783987Y-64210199D01*
X173744889Y-64175598D01*
X173727542Y-64171515D01*
X173680607Y-64159137D01*
X173613242Y-64129389D01*
X173609515Y-64127462D01*
X173495529Y-64073847D01*
X173361416Y-64019318D01*
X173227819Y-63971552D01*
X173115379Y-63938224D01*
X173079522Y-63930394D01*
X173006918Y-63911974D01*
X172961889Y-63890634D01*
X172957912Y-63886268D01*
X172925271Y-63877147D01*
X172847385Y-63870158D01*
X172735414Y-63865284D01*
X172600517Y-63862509D01*
X172453852Y-63861817D01*
X172306578Y-63863190D01*
G36*
X161951726Y-67568028D02*
X161795293Y-67598742D01*
X161726588Y-67622989D01*
X161501184Y-67748456D01*
X161313017Y-67912550D01*
X161251693Y-67983520D01*
X161135123Y-68148416D01*
X161057413Y-68311485D01*
X161013377Y-68488924D01*
X160997831Y-68696931D01*
X160998082Y-68775753D01*
X161003485Y-68908830D01*
X161017308Y-69008615D01*
X161044522Y-69098154D01*
X161089419Y-69199086D01*
X161148988Y-69319333D01*
X161198789Y-69407748D01*
X161250645Y-69479802D01*
X161316381Y-69550966D01*
X161407819Y-69636712D01*
X161459333Y-69683129D01*
X161542191Y-69738811D01*
X161661899Y-69796461D01*
X161799672Y-69848517D01*
X161936726Y-69887417D01*
X161995556Y-69899005D01*
X162108109Y-69916366D01*
X162187713Y-69923969D01*
X162257120Y-69921202D01*
X162339078Y-69907453D01*
X162433000Y-69887251D01*
X162682915Y-69805454D01*
X162900347Y-69680063D01*
X163081489Y-69516100D01*
X163222533Y-69318587D01*
X163319671Y-69092546D01*
X163369097Y-68843001D01*
X163372788Y-68647490D01*
X163332365Y-68399634D01*
X163241163Y-68171167D01*
X163103076Y-67967437D01*
X162921995Y-67793791D01*
X162701812Y-67655580D01*
X162625324Y-67620383D01*
X162488131Y-67580901D01*
X162317339Y-67559052D01*
X162132139Y-67554779D01*
X161951726Y-67568028D01*
X161951726Y-67568028D01*
G37*
X161951726Y-67568028D02*
X161795293Y-67598742D01*
X161726588Y-67622989D01*
X161501184Y-67748456D01*
X161313017Y-67912550D01*
X161251693Y-67983520D01*
X161135123Y-68148416D01*
X161057413Y-68311485D01*
X161013377Y-68488924D01*
X160997831Y-68696931D01*
X160998082Y-68775753D01*
X161003485Y-68908830D01*
X161017308Y-69008615D01*
X161044522Y-69098154D01*
X161089419Y-69199086D01*
X161148988Y-69319333D01*
X161198789Y-69407748D01*
X161250645Y-69479802D01*
X161316381Y-69550966D01*
X161407819Y-69636712D01*
X161459333Y-69683129D01*
X161542191Y-69738811D01*
X161661899Y-69796461D01*
X161799672Y-69848517D01*
X161936726Y-69887417D01*
X161995556Y-69899005D01*
X162108109Y-69916366D01*
X162187713Y-69923969D01*
X162257120Y-69921202D01*
X162339078Y-69907453D01*
X162433000Y-69887251D01*
X162682915Y-69805454D01*
X162900347Y-69680063D01*
X163081489Y-69516100D01*
X163222533Y-69318587D01*
X163319671Y-69092546D01*
X163369097Y-68843001D01*
X163372788Y-68647490D01*
X163332365Y-68399634D01*
X163241163Y-68171167D01*
X163103076Y-67967437D01*
X162921995Y-67793791D01*
X162701812Y-67655580D01*
X162625324Y-67620383D01*
X162488131Y-67580901D01*
X162317339Y-67559052D01*
X162132139Y-67554779D01*
X161951726Y-67568028D01*
G36*
X166190336Y-67155392D02*
X166031220Y-67180187D01*
X165882031Y-67213565D01*
X165760262Y-67252426D01*
X165703447Y-67279550D01*
X165635726Y-67314994D01*
X165585266Y-67332254D01*
X165580910Y-67332578D01*
X165522578Y-67354936D01*
X165430276Y-67421823D01*
X165304358Y-67532958D01*
X165188232Y-67645018D01*
X165016436Y-67848179D01*
X164878159Y-68078851D01*
X164782639Y-68320581D01*
X164760578Y-68406773D01*
X164738652Y-68565922D01*
X164732679Y-68752072D01*
X164741497Y-68946880D01*
X164763946Y-69132007D01*
X164798863Y-69289113D01*
X164820336Y-69350703D01*
X164962174Y-69630774D01*
X165140264Y-69869564D01*
X165356931Y-70069129D01*
X165614502Y-70231522D01*
X165915303Y-70358798D01*
X165988814Y-70382692D01*
X166050129Y-70392427D01*
X166152458Y-70399496D01*
X166280428Y-70403778D01*
X166418665Y-70405155D01*
X166551798Y-70403507D01*
X166664452Y-70398713D01*
X166741255Y-70390655D01*
X166751000Y-70388631D01*
X166891127Y-70342108D01*
X167054337Y-70268102D01*
X167221412Y-70176499D01*
X167373134Y-70077187D01*
X167409782Y-70049707D01*
X167613307Y-69857122D01*
X167776610Y-69630846D01*
X167897981Y-69378451D01*
X167975710Y-69107513D01*
X168008084Y-68825605D01*
X167993393Y-68540303D01*
X167929925Y-68259181D01*
X167856677Y-68071339D01*
X167774172Y-67922121D01*
X167667421Y-67769725D01*
X167549986Y-67631305D01*
X167435425Y-67524015D01*
X167407548Y-67503172D01*
X167328710Y-67445684D01*
X167263789Y-67394485D01*
X167242522Y-67375718D01*
X167191844Y-67340685D01*
X167163446Y-67332578D01*
X167118115Y-67320411D01*
X167047370Y-67290090D01*
X167024703Y-67278807D01*
X166866533Y-67217010D01*
X166664798Y-67170049D01*
X166468394Y-67143955D01*
X166341891Y-67142282D01*
X166190336Y-67155392D01*
X166190336Y-67155392D01*
G37*
X166190336Y-67155392D02*
X166031220Y-67180187D01*
X165882031Y-67213565D01*
X165760262Y-67252426D01*
X165703447Y-67279550D01*
X165635726Y-67314994D01*
X165585266Y-67332254D01*
X165580910Y-67332578D01*
X165522578Y-67354936D01*
X165430276Y-67421823D01*
X165304358Y-67532958D01*
X165188232Y-67645018D01*
X165016436Y-67848179D01*
X164878159Y-68078851D01*
X164782639Y-68320581D01*
X164760578Y-68406773D01*
X164738652Y-68565922D01*
X164732679Y-68752072D01*
X164741497Y-68946880D01*
X164763946Y-69132007D01*
X164798863Y-69289113D01*
X164820336Y-69350703D01*
X164962174Y-69630774D01*
X165140264Y-69869564D01*
X165356931Y-70069129D01*
X165614502Y-70231522D01*
X165915303Y-70358798D01*
X165988814Y-70382692D01*
X166050129Y-70392427D01*
X166152458Y-70399496D01*
X166280428Y-70403778D01*
X166418665Y-70405155D01*
X166551798Y-70403507D01*
X166664452Y-70398713D01*
X166741255Y-70390655D01*
X166751000Y-70388631D01*
X166891127Y-70342108D01*
X167054337Y-70268102D01*
X167221412Y-70176499D01*
X167373134Y-70077187D01*
X167409782Y-70049707D01*
X167613307Y-69857122D01*
X167776610Y-69630846D01*
X167897981Y-69378451D01*
X167975710Y-69107513D01*
X168008084Y-68825605D01*
X167993393Y-68540303D01*
X167929925Y-68259181D01*
X167856677Y-68071339D01*
X167774172Y-67922121D01*
X167667421Y-67769725D01*
X167549986Y-67631305D01*
X167435425Y-67524015D01*
X167407548Y-67503172D01*
X167328710Y-67445684D01*
X167263789Y-67394485D01*
X167242522Y-67375718D01*
X167191844Y-67340685D01*
X167163446Y-67332578D01*
X167118115Y-67320411D01*
X167047370Y-67290090D01*
X167024703Y-67278807D01*
X166866533Y-67217010D01*
X166664798Y-67170049D01*
X166468394Y-67143955D01*
X166341891Y-67142282D01*
X166190336Y-67155392D01*
G36*
X176447584Y-68185491D02*
X176301497Y-68202255D01*
X176162459Y-68226833D01*
X176044733Y-68256487D01*
X175962586Y-68288477D01*
X175940634Y-68303258D01*
X175883192Y-68339284D01*
X175845923Y-68348578D01*
X175782522Y-68369588D01*
X175695143Y-68426270D01*
X175593623Y-68509103D01*
X175487799Y-68608566D01*
X175387511Y-68715139D01*
X175302596Y-68819299D01*
X175242891Y-68911527D01*
X175226243Y-68948300D01*
X175198742Y-69003812D01*
X175173851Y-69025912D01*
X175153861Y-69050686D01*
X175134470Y-69112165D01*
X175130507Y-69131745D01*
X175104656Y-69229031D01*
X175068428Y-69319048D01*
X175066770Y-69322245D01*
X175036421Y-69418510D01*
X175020421Y-69554313D01*
X175018390Y-69714704D01*
X175029946Y-69884733D01*
X175054710Y-70049450D01*
X175088692Y-70183023D01*
X175123412Y-70284529D01*
X175153840Y-70363454D01*
X175174461Y-70405734D01*
X175177242Y-70408800D01*
X175199906Y-70441803D01*
X175231761Y-70506618D01*
X175241277Y-70528745D01*
X175275573Y-70595209D01*
X175307418Y-70631993D01*
X175315005Y-70634578D01*
X175343428Y-70656297D01*
X175344667Y-70664971D01*
X175367930Y-70715487D01*
X175430886Y-70785040D01*
X175523288Y-70866366D01*
X175634886Y-70952199D01*
X175755432Y-71035275D01*
X175874678Y-71108330D01*
X175982375Y-71164099D01*
X176068274Y-71195317D01*
X176098673Y-71199448D01*
X176156404Y-71209012D01*
X176237970Y-71232293D01*
X176261889Y-71240542D01*
X176353706Y-71261195D01*
X176480706Y-71274130D01*
X176622052Y-71278526D01*
X176756906Y-71273561D01*
X176840445Y-71263345D01*
X176905099Y-71243957D01*
X176937811Y-71224855D01*
X176985414Y-71204200D01*
X177029841Y-71199023D01*
X177126697Y-71179784D01*
X177249759Y-71127273D01*
X177386527Y-71049300D01*
X177524497Y-70953672D01*
X177651169Y-70848200D01*
X177743556Y-70753219D01*
X177854955Y-70618951D01*
X177927929Y-70521748D01*
X177964288Y-70459088D01*
X177969333Y-70438622D01*
X177983727Y-70393835D01*
X178016511Y-70334812D01*
X178064181Y-70228132D01*
X178099691Y-70080493D01*
X178121790Y-69906319D01*
X178129225Y-69720030D01*
X178120743Y-69536050D01*
X178098889Y-69386403D01*
X178032612Y-69150017D01*
X177934045Y-68939453D01*
X177796988Y-68745591D01*
X177615243Y-68559308D01*
X177436741Y-68412078D01*
X177371762Y-68369924D01*
X177320379Y-68349062D01*
X177314983Y-68348578D01*
X177264307Y-68333321D01*
X177211827Y-68303393D01*
X177132498Y-68266143D01*
X177012902Y-68231902D01*
X176869216Y-68203882D01*
X176717615Y-68185292D01*
X176586455Y-68179278D01*
X176447584Y-68185491D01*
X176447584Y-68185491D01*
G37*
X176447584Y-68185491D02*
X176301497Y-68202255D01*
X176162459Y-68226833D01*
X176044733Y-68256487D01*
X175962586Y-68288477D01*
X175940634Y-68303258D01*
X175883192Y-68339284D01*
X175845923Y-68348578D01*
X175782522Y-68369588D01*
X175695143Y-68426270D01*
X175593623Y-68509103D01*
X175487799Y-68608566D01*
X175387511Y-68715139D01*
X175302596Y-68819299D01*
X175242891Y-68911527D01*
X175226243Y-68948300D01*
X175198742Y-69003812D01*
X175173851Y-69025912D01*
X175153861Y-69050686D01*
X175134470Y-69112165D01*
X175130507Y-69131745D01*
X175104656Y-69229031D01*
X175068428Y-69319048D01*
X175066770Y-69322245D01*
X175036421Y-69418510D01*
X175020421Y-69554313D01*
X175018390Y-69714704D01*
X175029946Y-69884733D01*
X175054710Y-70049450D01*
X175088692Y-70183023D01*
X175123412Y-70284529D01*
X175153840Y-70363454D01*
X175174461Y-70405734D01*
X175177242Y-70408800D01*
X175199906Y-70441803D01*
X175231761Y-70506618D01*
X175241277Y-70528745D01*
X175275573Y-70595209D01*
X175307418Y-70631993D01*
X175315005Y-70634578D01*
X175343428Y-70656297D01*
X175344667Y-70664971D01*
X175367930Y-70715487D01*
X175430886Y-70785040D01*
X175523288Y-70866366D01*
X175634886Y-70952199D01*
X175755432Y-71035275D01*
X175874678Y-71108330D01*
X175982375Y-71164099D01*
X176068274Y-71195317D01*
X176098673Y-71199448D01*
X176156404Y-71209012D01*
X176237970Y-71232293D01*
X176261889Y-71240542D01*
X176353706Y-71261195D01*
X176480706Y-71274130D01*
X176622052Y-71278526D01*
X176756906Y-71273561D01*
X176840445Y-71263345D01*
X176905099Y-71243957D01*
X176937811Y-71224855D01*
X176985414Y-71204200D01*
X177029841Y-71199023D01*
X177126697Y-71179784D01*
X177249759Y-71127273D01*
X177386527Y-71049300D01*
X177524497Y-70953672D01*
X177651169Y-70848200D01*
X177743556Y-70753219D01*
X177854955Y-70618951D01*
X177927929Y-70521748D01*
X177964288Y-70459088D01*
X177969333Y-70438622D01*
X177983727Y-70393835D01*
X178016511Y-70334812D01*
X178064181Y-70228132D01*
X178099691Y-70080493D01*
X178121790Y-69906319D01*
X178129225Y-69720030D01*
X178120743Y-69536050D01*
X178098889Y-69386403D01*
X178032612Y-69150017D01*
X177934045Y-68939453D01*
X177796988Y-68745591D01*
X177615243Y-68559308D01*
X177436741Y-68412078D01*
X177371762Y-68369924D01*
X177320379Y-68349062D01*
X177314983Y-68348578D01*
X177264307Y-68333321D01*
X177211827Y-68303393D01*
X177132498Y-68266143D01*
X177012902Y-68231902D01*
X176869216Y-68203882D01*
X176717615Y-68185292D01*
X176586455Y-68179278D01*
X176447584Y-68185491D01*
G36*
X168807538Y-69901359D02*
X168698884Y-69924058D01*
X168579137Y-69958871D01*
X168460619Y-70000894D01*
X168355654Y-70045223D01*
X168276566Y-70086953D01*
X168235678Y-70121180D01*
X168232667Y-70130143D01*
X168210916Y-70153921D01*
X168203101Y-70154800D01*
X168168978Y-70173861D01*
X168110673Y-70222504D01*
X168041138Y-70287924D01*
X167973323Y-70357314D01*
X167920180Y-70417868D01*
X167894661Y-70456778D01*
X167894000Y-70460445D01*
X167874679Y-70498799D01*
X167853966Y-70519782D01*
X167825534Y-70561154D01*
X167786783Y-70640339D01*
X167745267Y-70741607D01*
X167737972Y-70761274D01*
X167704320Y-70858792D01*
X167683107Y-70940442D01*
X167672219Y-71023626D01*
X167669540Y-71125748D01*
X167672956Y-71264212D01*
X167673852Y-71288892D01*
X167680602Y-71434400D01*
X167690496Y-71540389D01*
X167707008Y-71623784D01*
X167733611Y-71701511D01*
X167773778Y-71790493D01*
X167779026Y-71801390D01*
X167842308Y-71909840D01*
X167928873Y-72027722D01*
X168029787Y-72145939D01*
X168136115Y-72255392D01*
X168238924Y-72346983D01*
X168329280Y-72411612D01*
X168398249Y-72440183D01*
X168406882Y-72440800D01*
X168454499Y-72453424D01*
X168526578Y-72484928D01*
X168550482Y-72497245D01*
X168603001Y-72521331D01*
X168662037Y-72537367D01*
X168739800Y-72546773D01*
X168848500Y-72550964D01*
X169000345Y-72551359D01*
X169015731Y-72551262D01*
X169167754Y-72549415D01*
X169277346Y-72544776D01*
X169358520Y-72535099D01*
X169425285Y-72518138D01*
X169491653Y-72491646D01*
X169545000Y-72466412D01*
X169663150Y-72407552D01*
X169748526Y-72359169D01*
X169819142Y-72308334D01*
X169893010Y-72242119D01*
X169985567Y-72150200D01*
X170145890Y-71963524D01*
X170251561Y-71782238D01*
X170295278Y-71650578D01*
X170316855Y-71558458D01*
X170343106Y-71451782D01*
X170349963Y-71424800D01*
X170368910Y-71281888D01*
X170363973Y-71115810D01*
X170336519Y-70953884D01*
X170324214Y-70910567D01*
X170298500Y-70820988D01*
X170279714Y-70742385D01*
X170252733Y-70668864D01*
X170222291Y-70624456D01*
X170187622Y-70576906D01*
X170180000Y-70552142D01*
X170159809Y-70505753D01*
X170106111Y-70434008D01*
X170029221Y-70347129D01*
X169939456Y-70255336D01*
X169847130Y-70168849D01*
X169762557Y-70097890D01*
X169696055Y-70052679D01*
X169664945Y-70041806D01*
X169618328Y-70027963D01*
X169551890Y-69994361D01*
X169545000Y-69990241D01*
X169430386Y-69941947D01*
X169277643Y-69907679D01*
X169103802Y-69889490D01*
X168925895Y-69889432D01*
X168807538Y-69901359D01*
X168807538Y-69901359D01*
G37*
X168807538Y-69901359D02*
X168698884Y-69924058D01*
X168579137Y-69958871D01*
X168460619Y-70000894D01*
X168355654Y-70045223D01*
X168276566Y-70086953D01*
X168235678Y-70121180D01*
X168232667Y-70130143D01*
X168210916Y-70153921D01*
X168203101Y-70154800D01*
X168168978Y-70173861D01*
X168110673Y-70222504D01*
X168041138Y-70287924D01*
X167973323Y-70357314D01*
X167920180Y-70417868D01*
X167894661Y-70456778D01*
X167894000Y-70460445D01*
X167874679Y-70498799D01*
X167853966Y-70519782D01*
X167825534Y-70561154D01*
X167786783Y-70640339D01*
X167745267Y-70741607D01*
X167737972Y-70761274D01*
X167704320Y-70858792D01*
X167683107Y-70940442D01*
X167672219Y-71023626D01*
X167669540Y-71125748D01*
X167672956Y-71264212D01*
X167673852Y-71288892D01*
X167680602Y-71434400D01*
X167690496Y-71540389D01*
X167707008Y-71623784D01*
X167733611Y-71701511D01*
X167773778Y-71790493D01*
X167779026Y-71801390D01*
X167842308Y-71909840D01*
X167928873Y-72027722D01*
X168029787Y-72145939D01*
X168136115Y-72255392D01*
X168238924Y-72346983D01*
X168329280Y-72411612D01*
X168398249Y-72440183D01*
X168406882Y-72440800D01*
X168454499Y-72453424D01*
X168526578Y-72484928D01*
X168550482Y-72497245D01*
X168603001Y-72521331D01*
X168662037Y-72537367D01*
X168739800Y-72546773D01*
X168848500Y-72550964D01*
X169000345Y-72551359D01*
X169015731Y-72551262D01*
X169167754Y-72549415D01*
X169277346Y-72544776D01*
X169358520Y-72535099D01*
X169425285Y-72518138D01*
X169491653Y-72491646D01*
X169545000Y-72466412D01*
X169663150Y-72407552D01*
X169748526Y-72359169D01*
X169819142Y-72308334D01*
X169893010Y-72242119D01*
X169985567Y-72150200D01*
X170145890Y-71963524D01*
X170251561Y-71782238D01*
X170295278Y-71650578D01*
X170316855Y-71558458D01*
X170343106Y-71451782D01*
X170349963Y-71424800D01*
X170368910Y-71281888D01*
X170363973Y-71115810D01*
X170336519Y-70953884D01*
X170324214Y-70910567D01*
X170298500Y-70820988D01*
X170279714Y-70742385D01*
X170252733Y-70668864D01*
X170222291Y-70624456D01*
X170187622Y-70576906D01*
X170180000Y-70552142D01*
X170159809Y-70505753D01*
X170106111Y-70434008D01*
X170029221Y-70347129D01*
X169939456Y-70255336D01*
X169847130Y-70168849D01*
X169762557Y-70097890D01*
X169696055Y-70052679D01*
X169664945Y-70041806D01*
X169618328Y-70027963D01*
X169551890Y-69994361D01*
X169545000Y-69990241D01*
X169430386Y-69941947D01*
X169277643Y-69907679D01*
X169103802Y-69889490D01*
X168925895Y-69889432D01*
X168807538Y-69901359D01*
G36*
X164339131Y-70222436D02*
X164206084Y-70238163D01*
X164193853Y-70239902D01*
X164073449Y-70260187D01*
X163968178Y-70283343D01*
X163895373Y-70305370D01*
X163880404Y-70312277D01*
X163808563Y-70350351D01*
X163725125Y-70391088D01*
X163723669Y-70391765D01*
X163640168Y-70445213D01*
X163537735Y-70532105D01*
X163429330Y-70639317D01*
X163327915Y-70753721D01*
X163246451Y-70862192D01*
X163224471Y-70897318D01*
X163155682Y-71044235D01*
X163097425Y-71221938D01*
X163056539Y-71405182D01*
X163039862Y-71568718D01*
X163039778Y-71579240D01*
X163047470Y-71691000D01*
X163067159Y-71819844D01*
X163083005Y-71891593D01*
X163177465Y-72153663D01*
X163315047Y-72384719D01*
X163490083Y-72580982D01*
X163696907Y-72738673D01*
X163929851Y-72854015D01*
X164183248Y-72923228D01*
X164451429Y-72942533D01*
X164634423Y-72925999D01*
X164743613Y-72902180D01*
X164865144Y-72865011D01*
X164985679Y-72819949D01*
X165091876Y-72772450D01*
X165170399Y-72727972D01*
X165207907Y-72691971D01*
X165208185Y-72691275D01*
X165240614Y-72668548D01*
X165256581Y-72666578D01*
X165299557Y-72644232D01*
X165325778Y-72610134D01*
X165365245Y-72565230D01*
X165394975Y-72553689D01*
X165437567Y-72533569D01*
X165444955Y-72520714D01*
X165462100Y-72521511D01*
X165491515Y-72563681D01*
X165501976Y-72584214D01*
X165577389Y-72698024D01*
X165689352Y-72812992D01*
X165820743Y-72912813D01*
X165887881Y-72951696D01*
X165997707Y-72990046D01*
X166141695Y-73015834D01*
X166298634Y-73027459D01*
X166447316Y-73023318D01*
X166563620Y-73002714D01*
X166746835Y-72918462D01*
X166910156Y-72787213D01*
X167043756Y-72617509D01*
X167080082Y-72553689D01*
X167112711Y-72481814D01*
X167132652Y-72408332D01*
X167142769Y-72316069D01*
X167145926Y-72187851D01*
X167145976Y-72158578D01*
X167143977Y-72024774D01*
X167135981Y-71929588D01*
X167118747Y-71855260D01*
X167089037Y-71784029D01*
X167071315Y-71749356D01*
X166970901Y-71598884D01*
X166838520Y-71474891D01*
X166662219Y-71366273D01*
X166654783Y-71362449D01*
X166476207Y-71299753D01*
X166279948Y-71278934D01*
X166085106Y-71300249D01*
X165932556Y-71352802D01*
X165791445Y-71421399D01*
X165783679Y-71345488D01*
X165766861Y-71272291D01*
X165731867Y-71168571D01*
X165686133Y-71054106D01*
X165637094Y-70948671D01*
X165627814Y-70930912D01*
X165591822Y-70862198D01*
X165559781Y-70799609D01*
X165518956Y-70739931D01*
X165480307Y-70708773D01*
X165443328Y-70678083D01*
X165438667Y-70662332D01*
X165417752Y-70622608D01*
X165367749Y-70570367D01*
X165307772Y-70522462D01*
X165256935Y-70495746D01*
X165248167Y-70494359D01*
X165215362Y-70474749D01*
X165212889Y-70463805D01*
X165189262Y-70435339D01*
X165130284Y-70400473D01*
X165107056Y-70390077D01*
X165036082Y-70356144D01*
X164990336Y-70326194D01*
X164984916Y-70320105D01*
X164951615Y-70304372D01*
X164875702Y-70283546D01*
X164770375Y-70260978D01*
X164705699Y-70249210D01*
X164563115Y-70227490D01*
X164449533Y-70218721D01*
X164339131Y-70222436D01*
X164339131Y-70222436D01*
G37*
X164339131Y-70222436D02*
X164206084Y-70238163D01*
X164193853Y-70239902D01*
X164073449Y-70260187D01*
X163968178Y-70283343D01*
X163895373Y-70305370D01*
X163880404Y-70312277D01*
X163808563Y-70350351D01*
X163725125Y-70391088D01*
X163723669Y-70391765D01*
X163640168Y-70445213D01*
X163537735Y-70532105D01*
X163429330Y-70639317D01*
X163327915Y-70753721D01*
X163246451Y-70862192D01*
X163224471Y-70897318D01*
X163155682Y-71044235D01*
X163097425Y-71221938D01*
X163056539Y-71405182D01*
X163039862Y-71568718D01*
X163039778Y-71579240D01*
X163047470Y-71691000D01*
X163067159Y-71819844D01*
X163083005Y-71891593D01*
X163177465Y-72153663D01*
X163315047Y-72384719D01*
X163490083Y-72580982D01*
X163696907Y-72738673D01*
X163929851Y-72854015D01*
X164183248Y-72923228D01*
X164451429Y-72942533D01*
X164634423Y-72925999D01*
X164743613Y-72902180D01*
X164865144Y-72865011D01*
X164985679Y-72819949D01*
X165091876Y-72772450D01*
X165170399Y-72727972D01*
X165207907Y-72691971D01*
X165208185Y-72691275D01*
X165240614Y-72668548D01*
X165256581Y-72666578D01*
X165299557Y-72644232D01*
X165325778Y-72610134D01*
X165365245Y-72565230D01*
X165394975Y-72553689D01*
X165437567Y-72533569D01*
X165444955Y-72520714D01*
X165462100Y-72521511D01*
X165491515Y-72563681D01*
X165501976Y-72584214D01*
X165577389Y-72698024D01*
X165689352Y-72812992D01*
X165820743Y-72912813D01*
X165887881Y-72951696D01*
X165997707Y-72990046D01*
X166141695Y-73015834D01*
X166298634Y-73027459D01*
X166447316Y-73023318D01*
X166563620Y-73002714D01*
X166746835Y-72918462D01*
X166910156Y-72787213D01*
X167043756Y-72617509D01*
X167080082Y-72553689D01*
X167112711Y-72481814D01*
X167132652Y-72408332D01*
X167142769Y-72316069D01*
X167145926Y-72187851D01*
X167145976Y-72158578D01*
X167143977Y-72024774D01*
X167135981Y-71929588D01*
X167118747Y-71855260D01*
X167089037Y-71784029D01*
X167071315Y-71749356D01*
X166970901Y-71598884D01*
X166838520Y-71474891D01*
X166662219Y-71366273D01*
X166654783Y-71362449D01*
X166476207Y-71299753D01*
X166279948Y-71278934D01*
X166085106Y-71300249D01*
X165932556Y-71352802D01*
X165791445Y-71421399D01*
X165783679Y-71345488D01*
X165766861Y-71272291D01*
X165731867Y-71168571D01*
X165686133Y-71054106D01*
X165637094Y-70948671D01*
X165627814Y-70930912D01*
X165591822Y-70862198D01*
X165559781Y-70799609D01*
X165518956Y-70739931D01*
X165480307Y-70708773D01*
X165443328Y-70678083D01*
X165438667Y-70662332D01*
X165417752Y-70622608D01*
X165367749Y-70570367D01*
X165307772Y-70522462D01*
X165256935Y-70495746D01*
X165248167Y-70494359D01*
X165215362Y-70474749D01*
X165212889Y-70463805D01*
X165189262Y-70435339D01*
X165130284Y-70400473D01*
X165107056Y-70390077D01*
X165036082Y-70356144D01*
X164990336Y-70326194D01*
X164984916Y-70320105D01*
X164951615Y-70304372D01*
X164875702Y-70283546D01*
X164770375Y-70260978D01*
X164705699Y-70249210D01*
X164563115Y-70227490D01*
X164449533Y-70218721D01*
X164339131Y-70222436D01*
G36*
X172666177Y-69561874D02*
X172359512Y-69635082D01*
X172272374Y-69665702D01*
X172149461Y-69719324D01*
X172014199Y-69789381D01*
X171884505Y-69865592D01*
X171778301Y-69937672D01*
X171732222Y-69975671D01*
X171684242Y-70020165D01*
X171618652Y-70080481D01*
X171602786Y-70095008D01*
X171543142Y-70156538D01*
X171502987Y-70210598D01*
X171497838Y-70221187D01*
X171467947Y-70261111D01*
X171450187Y-70267689D01*
X171417231Y-70290561D01*
X171392355Y-70331189D01*
X171362673Y-70388520D01*
X171313966Y-70473112D01*
X171267152Y-70549912D01*
X171216360Y-70637721D01*
X171180786Y-70711943D01*
X171168877Y-70752183D01*
X171157536Y-70804623D01*
X171129932Y-70885044D01*
X171111333Y-70930911D01*
X171087205Y-70996424D01*
X171070894Y-71068386D01*
X171061004Y-71159425D01*
X171056136Y-71282169D01*
X171054889Y-71440657D01*
X171056188Y-71604844D01*
X171061369Y-71728337D01*
X171072359Y-71826855D01*
X171091084Y-71916115D01*
X171119470Y-72011833D01*
X171128111Y-72038040D01*
X171167279Y-72146560D01*
X171205488Y-72237670D01*
X171235749Y-72295039D01*
X171240999Y-72301912D01*
X171273653Y-72352319D01*
X171280667Y-72378108D01*
X171295791Y-72420331D01*
X171333609Y-72486203D01*
X171382791Y-72559344D01*
X171432006Y-72623374D01*
X171469922Y-72661915D01*
X171480222Y-72666578D01*
X171505036Y-72688633D01*
X171506445Y-72699136D01*
X171529275Y-72746386D01*
X171591228Y-72814036D01*
X171682498Y-72894343D01*
X171793281Y-72979565D01*
X171913769Y-73061960D01*
X172034158Y-73133785D01*
X172099111Y-73167091D01*
X172248080Y-73235860D01*
X172364531Y-73283006D01*
X172465609Y-73313727D01*
X172568459Y-73333225D01*
X172690228Y-73346700D01*
X172691778Y-73346837D01*
X172823458Y-73357916D01*
X172923489Y-73363709D01*
X173012318Y-73364130D01*
X173110391Y-73359092D01*
X173238153Y-73348508D01*
X173284445Y-73344318D01*
X173406992Y-73327589D01*
X173523916Y-73302368D01*
X173609000Y-73274462D01*
X173877897Y-73142351D01*
X174098564Y-73007133D01*
X174279160Y-72863131D01*
X174427841Y-72704669D01*
X174428000Y-72704472D01*
X174488711Y-72630520D01*
X174535667Y-72575504D01*
X174556235Y-72553689D01*
X174588066Y-72510458D01*
X174632602Y-72426903D01*
X174684271Y-72316103D01*
X174737501Y-72191137D01*
X174786720Y-72065085D01*
X174826357Y-71951027D01*
X174850796Y-71862245D01*
X174889921Y-71541359D01*
X174875220Y-71221416D01*
X174808811Y-70909483D01*
X174692817Y-70612625D01*
X174529356Y-70337911D01*
X174320549Y-70092406D01*
X174319432Y-70091300D01*
X174234148Y-70009308D01*
X174162793Y-69945015D01*
X174115329Y-69907176D01*
X174102726Y-69900800D01*
X174064201Y-69883167D01*
X174041405Y-69864246D01*
X173998769Y-69835132D01*
X173920289Y-69791220D01*
X173821772Y-69740473D01*
X173719025Y-69690859D01*
X173627853Y-69650340D01*
X173580778Y-69632132D01*
X173288426Y-69560101D01*
X172979687Y-69536781D01*
X172666177Y-69561874D01*
X172666177Y-69561874D01*
G37*
X172666177Y-69561874D02*
X172359512Y-69635082D01*
X172272374Y-69665702D01*
X172149461Y-69719324D01*
X172014199Y-69789381D01*
X171884505Y-69865592D01*
X171778301Y-69937672D01*
X171732222Y-69975671D01*
X171684242Y-70020165D01*
X171618652Y-70080481D01*
X171602786Y-70095008D01*
X171543142Y-70156538D01*
X171502987Y-70210598D01*
X171497838Y-70221187D01*
X171467947Y-70261111D01*
X171450187Y-70267689D01*
X171417231Y-70290561D01*
X171392355Y-70331189D01*
X171362673Y-70388520D01*
X171313966Y-70473112D01*
X171267152Y-70549912D01*
X171216360Y-70637721D01*
X171180786Y-70711943D01*
X171168877Y-70752183D01*
X171157536Y-70804623D01*
X171129932Y-70885044D01*
X171111333Y-70930911D01*
X171087205Y-70996424D01*
X171070894Y-71068386D01*
X171061004Y-71159425D01*
X171056136Y-71282169D01*
X171054889Y-71440657D01*
X171056188Y-71604844D01*
X171061369Y-71728337D01*
X171072359Y-71826855D01*
X171091084Y-71916115D01*
X171119470Y-72011833D01*
X171128111Y-72038040D01*
X171167279Y-72146560D01*
X171205488Y-72237670D01*
X171235749Y-72295039D01*
X171240999Y-72301912D01*
X171273653Y-72352319D01*
X171280667Y-72378108D01*
X171295791Y-72420331D01*
X171333609Y-72486203D01*
X171382791Y-72559344D01*
X171432006Y-72623374D01*
X171469922Y-72661915D01*
X171480222Y-72666578D01*
X171505036Y-72688633D01*
X171506445Y-72699136D01*
X171529275Y-72746386D01*
X171591228Y-72814036D01*
X171682498Y-72894343D01*
X171793281Y-72979565D01*
X171913769Y-73061960D01*
X172034158Y-73133785D01*
X172099111Y-73167091D01*
X172248080Y-73235860D01*
X172364531Y-73283006D01*
X172465609Y-73313727D01*
X172568459Y-73333225D01*
X172690228Y-73346700D01*
X172691778Y-73346837D01*
X172823458Y-73357916D01*
X172923489Y-73363709D01*
X173012318Y-73364130D01*
X173110391Y-73359092D01*
X173238153Y-73348508D01*
X173284445Y-73344318D01*
X173406992Y-73327589D01*
X173523916Y-73302368D01*
X173609000Y-73274462D01*
X173877897Y-73142351D01*
X174098564Y-73007133D01*
X174279160Y-72863131D01*
X174427841Y-72704669D01*
X174428000Y-72704472D01*
X174488711Y-72630520D01*
X174535667Y-72575504D01*
X174556235Y-72553689D01*
X174588066Y-72510458D01*
X174632602Y-72426903D01*
X174684271Y-72316103D01*
X174737501Y-72191137D01*
X174786720Y-72065085D01*
X174826357Y-71951027D01*
X174850796Y-71862245D01*
X174889921Y-71541359D01*
X174875220Y-71221416D01*
X174808811Y-70909483D01*
X174692817Y-70612625D01*
X174529356Y-70337911D01*
X174320549Y-70092406D01*
X174319432Y-70091300D01*
X174234148Y-70009308D01*
X174162793Y-69945015D01*
X174115329Y-69907176D01*
X174102726Y-69900800D01*
X174064201Y-69883167D01*
X174041405Y-69864246D01*
X173998769Y-69835132D01*
X173920289Y-69791220D01*
X173821772Y-69740473D01*
X173719025Y-69690859D01*
X173627853Y-69650340D01*
X173580778Y-69632132D01*
X173288426Y-69560101D01*
X172979687Y-69536781D01*
X172666177Y-69561874D01*
G36*
X161343179Y-71574647D02*
X161151884Y-71596293D01*
X160988209Y-71634370D01*
X160907859Y-71668040D01*
X160808988Y-71721827D01*
X160703235Y-71787726D01*
X160602236Y-71857730D01*
X160517628Y-71923833D01*
X160461049Y-71978027D01*
X160443682Y-72009009D01*
X160421772Y-72051521D01*
X160403828Y-72065454D01*
X160373659Y-72100206D01*
X160328565Y-72172498D01*
X160276975Y-72268482D01*
X160262717Y-72297299D01*
X160218151Y-72391846D01*
X160188979Y-72466926D01*
X160171947Y-72539346D01*
X160163799Y-72625910D01*
X160161278Y-72743425D01*
X160161111Y-72821800D01*
X160162063Y-72962440D01*
X160166991Y-73063209D01*
X160179003Y-73140673D01*
X160201208Y-73211399D01*
X160236714Y-73291952D01*
X160257372Y-73334820D01*
X160371579Y-73523194D01*
X160520124Y-73699554D01*
X160687549Y-73847171D01*
X160796507Y-73918298D01*
X161010022Y-74009329D01*
X161245548Y-74061185D01*
X161485178Y-74071595D01*
X161711004Y-74038291D01*
X161721245Y-74035538D01*
X161874915Y-73983775D01*
X162022428Y-73917502D01*
X162141276Y-73847105D01*
X162160162Y-73833024D01*
X162238299Y-73765092D01*
X162321565Y-73682318D01*
X162399580Y-73596437D01*
X162461962Y-73519181D01*
X162498333Y-73462285D01*
X162503521Y-73444912D01*
X162520713Y-73405391D01*
X162547634Y-73370205D01*
X162571585Y-73321522D01*
X162598341Y-73232527D01*
X162623526Y-73118893D01*
X162633157Y-73064035D01*
X162652763Y-72928505D01*
X162660363Y-72823396D01*
X162655906Y-72723968D01*
X162639340Y-72605478D01*
X162632119Y-72563190D01*
X162608619Y-72447330D01*
X162582820Y-72349571D01*
X162559162Y-72285919D01*
X162552054Y-72274471D01*
X162512794Y-72214381D01*
X162481396Y-72151523D01*
X162449251Y-72096313D01*
X162419494Y-72073912D01*
X162391864Y-72052170D01*
X162390667Y-72043518D01*
X162370948Y-72003472D01*
X162323371Y-71947028D01*
X162265309Y-71891559D01*
X162214134Y-71854437D01*
X162195282Y-71848134D01*
X162166116Y-71830664D01*
X162164889Y-71823844D01*
X162140504Y-71795132D01*
X162076206Y-71753972D01*
X161985278Y-71706780D01*
X161881006Y-71659975D01*
X161776673Y-71619975D01*
X161689218Y-71594034D01*
X161530149Y-71573442D01*
X161343179Y-71574647D01*
X161343179Y-71574647D01*
G37*
X161343179Y-71574647D02*
X161151884Y-71596293D01*
X160988209Y-71634370D01*
X160907859Y-71668040D01*
X160808988Y-71721827D01*
X160703235Y-71787726D01*
X160602236Y-71857730D01*
X160517628Y-71923833D01*
X160461049Y-71978027D01*
X160443682Y-72009009D01*
X160421772Y-72051521D01*
X160403828Y-72065454D01*
X160373659Y-72100206D01*
X160328565Y-72172498D01*
X160276975Y-72268482D01*
X160262717Y-72297299D01*
X160218151Y-72391846D01*
X160188979Y-72466926D01*
X160171947Y-72539346D01*
X160163799Y-72625910D01*
X160161278Y-72743425D01*
X160161111Y-72821800D01*
X160162063Y-72962440D01*
X160166991Y-73063209D01*
X160179003Y-73140673D01*
X160201208Y-73211399D01*
X160236714Y-73291952D01*
X160257372Y-73334820D01*
X160371579Y-73523194D01*
X160520124Y-73699554D01*
X160687549Y-73847171D01*
X160796507Y-73918298D01*
X161010022Y-74009329D01*
X161245548Y-74061185D01*
X161485178Y-74071595D01*
X161711004Y-74038291D01*
X161721245Y-74035538D01*
X161874915Y-73983775D01*
X162022428Y-73917502D01*
X162141276Y-73847105D01*
X162160162Y-73833024D01*
X162238299Y-73765092D01*
X162321565Y-73682318D01*
X162399580Y-73596437D01*
X162461962Y-73519181D01*
X162498333Y-73462285D01*
X162503521Y-73444912D01*
X162520713Y-73405391D01*
X162547634Y-73370205D01*
X162571585Y-73321522D01*
X162598341Y-73232527D01*
X162623526Y-73118893D01*
X162633157Y-73064035D01*
X162652763Y-72928505D01*
X162660363Y-72823396D01*
X162655906Y-72723968D01*
X162639340Y-72605478D01*
X162632119Y-72563190D01*
X162608619Y-72447330D01*
X162582820Y-72349571D01*
X162559162Y-72285919D01*
X162552054Y-72274471D01*
X162512794Y-72214381D01*
X162481396Y-72151523D01*
X162449251Y-72096313D01*
X162419494Y-72073912D01*
X162391864Y-72052170D01*
X162390667Y-72043518D01*
X162370948Y-72003472D01*
X162323371Y-71947028D01*
X162265309Y-71891559D01*
X162214134Y-71854437D01*
X162195282Y-71848134D01*
X162166116Y-71830664D01*
X162164889Y-71823844D01*
X162140504Y-71795132D01*
X162076206Y-71753972D01*
X161985278Y-71706780D01*
X161881006Y-71659975D01*
X161776673Y-71619975D01*
X161689218Y-71594034D01*
X161530149Y-71573442D01*
X161343179Y-71574647D01*
G36*
X175823353Y-72075379D02*
X175707701Y-72080474D01*
X175624663Y-72090652D01*
X175562348Y-72107263D01*
X175517843Y-72126907D01*
X175431959Y-72170336D01*
X175354343Y-72208152D01*
X175344667Y-72212691D01*
X175168279Y-72321013D01*
X174999234Y-72475395D01*
X174876356Y-72626188D01*
X174760385Y-72834665D01*
X174685491Y-73071006D01*
X174653131Y-73322874D01*
X174664760Y-73577932D01*
X174721833Y-73823844D01*
X174731717Y-73851912D01*
X174775443Y-73954477D01*
X174829657Y-74057961D01*
X174886384Y-74149627D01*
X174937647Y-74216736D01*
X174975468Y-74246550D01*
X174979134Y-74247023D01*
X175002976Y-74269902D01*
X175006000Y-74289356D01*
X175021338Y-74326912D01*
X175034409Y-74331689D01*
X175070876Y-74351154D01*
X175120774Y-74398393D01*
X175124165Y-74402245D01*
X175175306Y-74450883D01*
X175215749Y-74472711D01*
X175217435Y-74472800D01*
X175260970Y-74490229D01*
X175304067Y-74522292D01*
X175403739Y-74584093D01*
X175544446Y-74633943D01*
X175711741Y-74670246D01*
X175891172Y-74691405D01*
X176068289Y-74695824D01*
X176228643Y-74681905D01*
X176357784Y-74648054D01*
X176374778Y-74640589D01*
X176451475Y-74607568D01*
X176509447Y-74588349D01*
X176521691Y-74586429D01*
X176573057Y-74568227D01*
X176651422Y-74521131D01*
X176745613Y-74454183D01*
X176844460Y-74376423D01*
X176936792Y-74296892D01*
X177011436Y-74224630D01*
X177057222Y-74168677D01*
X177066222Y-74145758D01*
X177085336Y-74105184D01*
X177122667Y-74063578D01*
X177165695Y-74009287D01*
X177180069Y-73967482D01*
X177192435Y-73915249D01*
X177222278Y-73838358D01*
X177235556Y-73809578D01*
X177266771Y-73709603D01*
X177286804Y-73573051D01*
X177295654Y-73416384D01*
X177293321Y-73256062D01*
X177279806Y-73108549D01*
X177255108Y-72990305D01*
X177235556Y-72941429D01*
X177200190Y-72867925D01*
X177180539Y-72812476D01*
X177179111Y-72802253D01*
X177158006Y-72738501D01*
X177101262Y-72651246D01*
X177018735Y-72550357D01*
X176920281Y-72445701D01*
X176815756Y-72347149D01*
X176715017Y-72264569D01*
X176627920Y-72207830D01*
X176564443Y-72186800D01*
X176520282Y-72173044D01*
X176453506Y-72139092D01*
X176438960Y-72130461D01*
X176392593Y-72106572D01*
X176338366Y-72090433D01*
X176264604Y-72080597D01*
X176159633Y-72075618D01*
X176011778Y-72074048D01*
X175983509Y-72074017D01*
X175823353Y-72075379D01*
X175823353Y-72075379D01*
G37*
X175823353Y-72075379D02*
X175707701Y-72080474D01*
X175624663Y-72090652D01*
X175562348Y-72107263D01*
X175517843Y-72126907D01*
X175431959Y-72170336D01*
X175354343Y-72208152D01*
X175344667Y-72212691D01*
X175168279Y-72321013D01*
X174999234Y-72475395D01*
X174876356Y-72626188D01*
X174760385Y-72834665D01*
X174685491Y-73071006D01*
X174653131Y-73322874D01*
X174664760Y-73577932D01*
X174721833Y-73823844D01*
X174731717Y-73851912D01*
X174775443Y-73954477D01*
X174829657Y-74057961D01*
X174886384Y-74149627D01*
X174937647Y-74216736D01*
X174975468Y-74246550D01*
X174979134Y-74247023D01*
X175002976Y-74269902D01*
X175006000Y-74289356D01*
X175021338Y-74326912D01*
X175034409Y-74331689D01*
X175070876Y-74351154D01*
X175120774Y-74398393D01*
X175124165Y-74402245D01*
X175175306Y-74450883D01*
X175215749Y-74472711D01*
X175217435Y-74472800D01*
X175260970Y-74490229D01*
X175304067Y-74522292D01*
X175403739Y-74584093D01*
X175544446Y-74633943D01*
X175711741Y-74670246D01*
X175891172Y-74691405D01*
X176068289Y-74695824D01*
X176228643Y-74681905D01*
X176357784Y-74648054D01*
X176374778Y-74640589D01*
X176451475Y-74607568D01*
X176509447Y-74588349D01*
X176521691Y-74586429D01*
X176573057Y-74568227D01*
X176651422Y-74521131D01*
X176745613Y-74454183D01*
X176844460Y-74376423D01*
X176936792Y-74296892D01*
X177011436Y-74224630D01*
X177057222Y-74168677D01*
X177066222Y-74145758D01*
X177085336Y-74105184D01*
X177122667Y-74063578D01*
X177165695Y-74009287D01*
X177180069Y-73967482D01*
X177192435Y-73915249D01*
X177222278Y-73838358D01*
X177235556Y-73809578D01*
X177266771Y-73709603D01*
X177286804Y-73573051D01*
X177295654Y-73416384D01*
X177293321Y-73256062D01*
X177279806Y-73108549D01*
X177255108Y-72990305D01*
X177235556Y-72941429D01*
X177200190Y-72867925D01*
X177180539Y-72812476D01*
X177179111Y-72802253D01*
X177158006Y-72738501D01*
X177101262Y-72651246D01*
X177018735Y-72550357D01*
X176920281Y-72445701D01*
X176815756Y-72347149D01*
X176715017Y-72264569D01*
X176627920Y-72207830D01*
X176564443Y-72186800D01*
X176520282Y-72173044D01*
X176453506Y-72139092D01*
X176438960Y-72130461D01*
X176392593Y-72106572D01*
X176338366Y-72090433D01*
X176264604Y-72080597D01*
X176159633Y-72075618D01*
X176011778Y-72074048D01*
X175983509Y-72074017D01*
X175823353Y-72075379D01*
G36*
X172260639Y-74071435D02*
X172121917Y-74096241D01*
X172012159Y-74137480D01*
X171970292Y-74166224D01*
X171921698Y-74204816D01*
X171893964Y-74218800D01*
X171853271Y-74241168D01*
X171796097Y-74299146D01*
X171733447Y-74379046D01*
X171676332Y-74467182D01*
X171644286Y-74529245D01*
X171618679Y-74620883D01*
X171602544Y-74746149D01*
X171597014Y-74882847D01*
X171603217Y-75008780D01*
X171616108Y-75082284D01*
X171684103Y-75239085D01*
X171796143Y-75388399D01*
X171940419Y-75514604D01*
X171945751Y-75518303D01*
X172016807Y-75563641D01*
X172080610Y-75591676D01*
X172155654Y-75607317D01*
X172260437Y-75615473D01*
X172321300Y-75617976D01*
X172441885Y-75619762D01*
X172548252Y-75616762D01*
X172622113Y-75609629D01*
X172635333Y-75606743D01*
X172781477Y-75539920D01*
X172921262Y-75430831D01*
X173041075Y-75293185D01*
X173127304Y-75140693D01*
X173144721Y-75093689D01*
X173172733Y-74965975D01*
X173182770Y-74826522D01*
X173174646Y-74697171D01*
X173148925Y-74601338D01*
X173111367Y-74521300D01*
X173085279Y-74465745D01*
X172990111Y-74324832D01*
X172853182Y-74205919D01*
X172687829Y-74118735D01*
X172557722Y-74080887D01*
X172411512Y-74065503D01*
X172260639Y-74071435D01*
X172260639Y-74071435D01*
G37*
X172260639Y-74071435D02*
X172121917Y-74096241D01*
X172012159Y-74137480D01*
X171970292Y-74166224D01*
X171921698Y-74204816D01*
X171893964Y-74218800D01*
X171853271Y-74241168D01*
X171796097Y-74299146D01*
X171733447Y-74379046D01*
X171676332Y-74467182D01*
X171644286Y-74529245D01*
X171618679Y-74620883D01*
X171602544Y-74746149D01*
X171597014Y-74882847D01*
X171603217Y-75008780D01*
X171616108Y-75082284D01*
X171684103Y-75239085D01*
X171796143Y-75388399D01*
X171940419Y-75514604D01*
X171945751Y-75518303D01*
X172016807Y-75563641D01*
X172080610Y-75591676D01*
X172155654Y-75607317D01*
X172260437Y-75615473D01*
X172321300Y-75617976D01*
X172441885Y-75619762D01*
X172548252Y-75616762D01*
X172622113Y-75609629D01*
X172635333Y-75606743D01*
X172781477Y-75539920D01*
X172921262Y-75430831D01*
X173041075Y-75293185D01*
X173127304Y-75140693D01*
X173144721Y-75093689D01*
X173172733Y-74965975D01*
X173182770Y-74826522D01*
X173174646Y-74697171D01*
X173148925Y-74601338D01*
X173111367Y-74521300D01*
X173085279Y-74465745D01*
X172990111Y-74324832D01*
X172853182Y-74205919D01*
X172687829Y-74118735D01*
X172557722Y-74080887D01*
X172411512Y-74065503D01*
X172260639Y-74071435D01*
G36*
X164697301Y-73318507D02*
X164600598Y-73327118D01*
X164512120Y-73344045D01*
X164415841Y-73370719D01*
X164415039Y-73370962D01*
X164308142Y-73405053D01*
X164217260Y-73436921D01*
X164160642Y-73460136D01*
X164157745Y-73461638D01*
X163929926Y-73592981D01*
X163747474Y-73718939D01*
X163600896Y-73847412D01*
X163480699Y-73986299D01*
X163417439Y-74077689D01*
X163364438Y-74157293D01*
X163318639Y-74220563D01*
X163300883Y-74241983D01*
X163270155Y-74291087D01*
X163265382Y-74312538D01*
X163253013Y-74358946D01*
X163223252Y-74426169D01*
X163221031Y-74430467D01*
X163163037Y-74581386D01*
X163121732Y-74771405D01*
X163098438Y-74985313D01*
X163094475Y-75207899D01*
X163111163Y-75423950D01*
X163126519Y-75518922D01*
X163201421Y-75774066D01*
X163322435Y-76025849D01*
X163480398Y-76259468D01*
X163666150Y-76460120D01*
X163755242Y-76534854D01*
X163836089Y-76597163D01*
X163901680Y-76648185D01*
X163934302Y-76674048D01*
X163993092Y-76710062D01*
X164089144Y-76756514D01*
X164206056Y-76806355D01*
X164327422Y-76852536D01*
X164422667Y-76883895D01*
X164525444Y-76906387D01*
X164660807Y-76925220D01*
X164810617Y-76939040D01*
X164956739Y-76946487D01*
X165081035Y-76946207D01*
X165156445Y-76938788D01*
X165355377Y-76888577D01*
X165567069Y-76815590D01*
X165768315Y-76728783D01*
X165932556Y-76639241D01*
X165989241Y-76594764D01*
X166070629Y-76520265D01*
X166165730Y-76427056D01*
X166263554Y-76326446D01*
X166353114Y-76229745D01*
X166423418Y-76148263D01*
X166463479Y-76093311D01*
X166464108Y-76092173D01*
X166507086Y-76009636D01*
X166540708Y-75940356D01*
X166573608Y-75868863D01*
X166614936Y-75779360D01*
X166625323Y-75756912D01*
X166668287Y-75627262D01*
X166699446Y-75457873D01*
X166717367Y-75264487D01*
X166720618Y-75062849D01*
X166707766Y-74868700D01*
X166706842Y-74860856D01*
X166688023Y-74729066D01*
X166663092Y-74615221D01*
X166626774Y-74504101D01*
X166573793Y-74380486D01*
X166498873Y-74229156D01*
X166465828Y-74165558D01*
X166407264Y-74076913D01*
X166317926Y-73968321D01*
X166211509Y-73854601D01*
X166101709Y-73750570D01*
X166021874Y-73685199D01*
X165910846Y-73607451D01*
X165796948Y-73535819D01*
X165692787Y-73477448D01*
X165610970Y-73439479D01*
X165569001Y-73428578D01*
X165520827Y-73416593D01*
X165449803Y-73387077D01*
X165435947Y-73380297D01*
X165370920Y-73356822D01*
X165277398Y-73339794D01*
X165145892Y-73327969D01*
X164979483Y-73320498D01*
X164818254Y-73316778D01*
X164697301Y-73318507D01*
X164697301Y-73318507D01*
G37*
X164697301Y-73318507D02*
X164600598Y-73327118D01*
X164512120Y-73344045D01*
X164415841Y-73370719D01*
X164415039Y-73370962D01*
X164308142Y-73405053D01*
X164217260Y-73436921D01*
X164160642Y-73460136D01*
X164157745Y-73461638D01*
X163929926Y-73592981D01*
X163747474Y-73718939D01*
X163600896Y-73847412D01*
X163480699Y-73986299D01*
X163417439Y-74077689D01*
X163364438Y-74157293D01*
X163318639Y-74220563D01*
X163300883Y-74241983D01*
X163270155Y-74291087D01*
X163265382Y-74312538D01*
X163253013Y-74358946D01*
X163223252Y-74426169D01*
X163221031Y-74430467D01*
X163163037Y-74581386D01*
X163121732Y-74771405D01*
X163098438Y-74985313D01*
X163094475Y-75207899D01*
X163111163Y-75423950D01*
X163126519Y-75518922D01*
X163201421Y-75774066D01*
X163322435Y-76025849D01*
X163480398Y-76259468D01*
X163666150Y-76460120D01*
X163755242Y-76534854D01*
X163836089Y-76597163D01*
X163901680Y-76648185D01*
X163934302Y-76674048D01*
X163993092Y-76710062D01*
X164089144Y-76756514D01*
X164206056Y-76806355D01*
X164327422Y-76852536D01*
X164422667Y-76883895D01*
X164525444Y-76906387D01*
X164660807Y-76925220D01*
X164810617Y-76939040D01*
X164956739Y-76946487D01*
X165081035Y-76946207D01*
X165156445Y-76938788D01*
X165355377Y-76888577D01*
X165567069Y-76815590D01*
X165768315Y-76728783D01*
X165932556Y-76639241D01*
X165989241Y-76594764D01*
X166070629Y-76520265D01*
X166165730Y-76427056D01*
X166263554Y-76326446D01*
X166353114Y-76229745D01*
X166423418Y-76148263D01*
X166463479Y-76093311D01*
X166464108Y-76092173D01*
X166507086Y-76009636D01*
X166540708Y-75940356D01*
X166573608Y-75868863D01*
X166614936Y-75779360D01*
X166625323Y-75756912D01*
X166668287Y-75627262D01*
X166699446Y-75457873D01*
X166717367Y-75264487D01*
X166720618Y-75062849D01*
X166707766Y-74868700D01*
X166706842Y-74860856D01*
X166688023Y-74729066D01*
X166663092Y-74615221D01*
X166626774Y-74504101D01*
X166573793Y-74380486D01*
X166498873Y-74229156D01*
X166465828Y-74165558D01*
X166407264Y-74076913D01*
X166317926Y-73968321D01*
X166211509Y-73854601D01*
X166101709Y-73750570D01*
X166021874Y-73685199D01*
X165910846Y-73607451D01*
X165796948Y-73535819D01*
X165692787Y-73477448D01*
X165610970Y-73439479D01*
X165569001Y-73428578D01*
X165520827Y-73416593D01*
X165449803Y-73387077D01*
X165435947Y-73380297D01*
X165370920Y-73356822D01*
X165277398Y-73339794D01*
X165145892Y-73327969D01*
X164979483Y-73320498D01*
X164818254Y-73316778D01*
X164697301Y-73318507D01*
G36*
X173685921Y-75397031D02*
X173465421Y-75480898D01*
X173266241Y-75610988D01*
X173099899Y-75781039D01*
X173033215Y-75871727D01*
X172976750Y-75958547D01*
X172948439Y-76010912D01*
X172913979Y-76086547D01*
X172886041Y-76144584D01*
X172875623Y-76192302D01*
X172867341Y-76282068D01*
X172862237Y-76399496D01*
X172861111Y-76489448D01*
X172863066Y-76633627D01*
X172870267Y-76735522D01*
X172884717Y-76809202D01*
X172908419Y-76868734D01*
X172917556Y-76885800D01*
X172953294Y-76955579D01*
X172972787Y-77005602D01*
X172974000Y-77013336D01*
X172994416Y-77061098D01*
X173048689Y-77133085D01*
X173126355Y-77218569D01*
X173216948Y-77306823D01*
X173310006Y-77387120D01*
X173395065Y-77448732D01*
X173404143Y-77454304D01*
X173519425Y-77507526D01*
X173667140Y-77554018D01*
X173823284Y-77587717D01*
X173963851Y-77602563D01*
X173991803Y-77602666D01*
X174090969Y-77593554D01*
X174211271Y-77573161D01*
X174286333Y-77556037D01*
X174377447Y-77530000D01*
X174444292Y-77506315D01*
X174469778Y-77492221D01*
X174502121Y-77467393D01*
X174564380Y-77431156D01*
X174581178Y-77422357D01*
X174684981Y-77351050D01*
X174790476Y-77248263D01*
X174887875Y-77127370D01*
X174967388Y-77001747D01*
X175019226Y-76884770D01*
X175034222Y-76803319D01*
X175044554Y-76743356D01*
X175062445Y-76716467D01*
X175075742Y-76681840D01*
X175085668Y-76605683D01*
X175090471Y-76502890D01*
X175090667Y-76476578D01*
X175087316Y-76369700D01*
X175078432Y-76285973D01*
X175065768Y-76240287D01*
X175062445Y-76236689D01*
X175041123Y-76198046D01*
X175034222Y-76145781D01*
X175020078Y-76078280D01*
X174984201Y-75990682D01*
X174961351Y-75947970D01*
X174904234Y-75862611D01*
X174832133Y-75771476D01*
X174755688Y-75686094D01*
X174685540Y-75617995D01*
X174632329Y-75578707D01*
X174615727Y-75573467D01*
X174584535Y-75556585D01*
X174582667Y-75548246D01*
X174558500Y-75526018D01*
X174494749Y-75490747D01*
X174404536Y-75449583D01*
X174392167Y-75444426D01*
X174157612Y-75376628D01*
X173919424Y-75361552D01*
X173685921Y-75397031D01*
X173685921Y-75397031D01*
G37*
X173685921Y-75397031D02*
X173465421Y-75480898D01*
X173266241Y-75610988D01*
X173099899Y-75781039D01*
X173033215Y-75871727D01*
X172976750Y-75958547D01*
X172948439Y-76010912D01*
X172913979Y-76086547D01*
X172886041Y-76144584D01*
X172875623Y-76192302D01*
X172867341Y-76282068D01*
X172862237Y-76399496D01*
X172861111Y-76489448D01*
X172863066Y-76633627D01*
X172870267Y-76735522D01*
X172884717Y-76809202D01*
X172908419Y-76868734D01*
X172917556Y-76885800D01*
X172953294Y-76955579D01*
X172972787Y-77005602D01*
X172974000Y-77013336D01*
X172994416Y-77061098D01*
X173048689Y-77133085D01*
X173126355Y-77218569D01*
X173216948Y-77306823D01*
X173310006Y-77387120D01*
X173395065Y-77448732D01*
X173404143Y-77454304D01*
X173519425Y-77507526D01*
X173667140Y-77554018D01*
X173823284Y-77587717D01*
X173963851Y-77602563D01*
X173991803Y-77602666D01*
X174090969Y-77593554D01*
X174211271Y-77573161D01*
X174286333Y-77556037D01*
X174377447Y-77530000D01*
X174444292Y-77506315D01*
X174469778Y-77492221D01*
X174502121Y-77467393D01*
X174564380Y-77431156D01*
X174581178Y-77422357D01*
X174684981Y-77351050D01*
X174790476Y-77248263D01*
X174887875Y-77127370D01*
X174967388Y-77001747D01*
X175019226Y-76884770D01*
X175034222Y-76803319D01*
X175044554Y-76743356D01*
X175062445Y-76716467D01*
X175075742Y-76681840D01*
X175085668Y-76605683D01*
X175090471Y-76502890D01*
X175090667Y-76476578D01*
X175087316Y-76369700D01*
X175078432Y-76285973D01*
X175065768Y-76240287D01*
X175062445Y-76236689D01*
X175041123Y-76198046D01*
X175034222Y-76145781D01*
X175020078Y-76078280D01*
X174984201Y-75990682D01*
X174961351Y-75947970D01*
X174904234Y-75862611D01*
X174832133Y-75771476D01*
X174755688Y-75686094D01*
X174685540Y-75617995D01*
X174632329Y-75578707D01*
X174615727Y-75573467D01*
X174584535Y-75556585D01*
X174582667Y-75548246D01*
X174558500Y-75526018D01*
X174494749Y-75490747D01*
X174404536Y-75449583D01*
X174392167Y-75444426D01*
X174157612Y-75376628D01*
X173919424Y-75361552D01*
X173685921Y-75397031D01*
G36*
X181512971Y-75009642D02*
X181078747Y-75009781D01*
X180697343Y-75010020D01*
X180365133Y-75010438D01*
X180078491Y-75011112D01*
X179833791Y-75012119D01*
X179627410Y-75013538D01*
X179455721Y-75015446D01*
X179315098Y-75017920D01*
X179201918Y-75021039D01*
X179112553Y-75024879D01*
X179043379Y-75029519D01*
X178990771Y-75035035D01*
X178951102Y-75041507D01*
X178920749Y-75049010D01*
X178896084Y-75057623D01*
X178876418Y-75066087D01*
X178795196Y-75099380D01*
X178731321Y-75119350D01*
X178713864Y-75121912D01*
X178666887Y-75141725D01*
X178626007Y-75178356D01*
X178577957Y-75221028D01*
X178544521Y-75234800D01*
X178501648Y-75256914D01*
X178437579Y-75316092D01*
X178361125Y-75401589D01*
X178281097Y-75502662D01*
X178206304Y-75608565D01*
X178145557Y-75708555D01*
X178127972Y-75742800D01*
X178039889Y-75926245D01*
X178039889Y-78467486D01*
X178135689Y-78662057D01*
X178217274Y-78800076D01*
X178322335Y-78938181D01*
X178438317Y-79062522D01*
X178552663Y-79159245D01*
X178626920Y-79204003D01*
X178718806Y-79249438D01*
X178801889Y-79293692D01*
X178821562Y-79302633D01*
X178849054Y-79310402D01*
X178888239Y-79317091D01*
X178942989Y-79322788D01*
X179017177Y-79327583D01*
X179114677Y-79331565D01*
X179239362Y-79334825D01*
X179395104Y-79337451D01*
X179585776Y-79339534D01*
X179815252Y-79341163D01*
X180087404Y-79342427D01*
X180406106Y-79343416D01*
X180775230Y-79344221D01*
X181003222Y-79344620D01*
X181345907Y-79345032D01*
X181673615Y-79345130D01*
X181981748Y-79344932D01*
X182265708Y-79344454D01*
X182520896Y-79343713D01*
X182742713Y-79342726D01*
X182926561Y-79341509D01*
X183067841Y-79340079D01*
X183161955Y-79338452D01*
X183204303Y-79336646D01*
X183204556Y-79336613D01*
X183279296Y-79317223D01*
X183374844Y-79280425D01*
X183473981Y-79234417D01*
X183559487Y-79187395D01*
X183614144Y-79147557D01*
X183622236Y-79137780D01*
X183658378Y-79104774D01*
X183672324Y-79101245D01*
X183704771Y-79081971D01*
X183761052Y-79031937D01*
X183815970Y-78975759D01*
X183938403Y-78826160D01*
X184029721Y-78671022D01*
X184092777Y-78500423D01*
X184130420Y-78304443D01*
X184145503Y-78073159D01*
X184143635Y-77921130D01*
X183190339Y-77921130D01*
X183185473Y-78073463D01*
X183167876Y-78182013D01*
X183133313Y-78258796D01*
X183077546Y-78315831D01*
X183042981Y-78339126D01*
X183023093Y-78350344D01*
X183000158Y-78359966D01*
X182969953Y-78368116D01*
X182928252Y-78374914D01*
X182870829Y-78380485D01*
X182793460Y-78384950D01*
X182691918Y-78388433D01*
X182561979Y-78391055D01*
X182399417Y-78392940D01*
X182200007Y-78394210D01*
X181959523Y-78394987D01*
X181673740Y-78395395D01*
X181338432Y-78395555D01*
X181096782Y-78395584D01*
X180768366Y-78395221D01*
X180458076Y-78394133D01*
X180170547Y-78392384D01*
X179910413Y-78390033D01*
X179682307Y-78387143D01*
X179490866Y-78383774D01*
X179340722Y-78379988D01*
X179236510Y-78375846D01*
X179182864Y-78371410D01*
X179177671Y-78370177D01*
X179108127Y-78331266D01*
X179048833Y-78284411D01*
X179022270Y-78255428D01*
X179004349Y-78220866D01*
X178993384Y-78169789D01*
X178987690Y-78091261D01*
X178985581Y-77974345D01*
X178985333Y-77872479D01*
X178985333Y-77520800D01*
X183078385Y-77520800D01*
X183134309Y-77612523D01*
X183166412Y-77682109D01*
X183183992Y-77769840D01*
X183190190Y-77893001D01*
X183190339Y-77921130D01*
X184143635Y-77921130D01*
X184142625Y-77839021D01*
X184132622Y-77645659D01*
X184116580Y-77494419D01*
X184090659Y-77371021D01*
X184051020Y-77261186D01*
X183993824Y-77150634D01*
X183929739Y-77047291D01*
X183771297Y-76853837D01*
X183573689Y-76700861D01*
X183337499Y-76588763D01*
X183205682Y-76548316D01*
X183166392Y-76539817D01*
X183116194Y-76532472D01*
X183051049Y-76526200D01*
X182966918Y-76520920D01*
X182859762Y-76516553D01*
X182725542Y-76513018D01*
X182560221Y-76510236D01*
X182359759Y-76508127D01*
X182120118Y-76506609D01*
X181837258Y-76505604D01*
X181507142Y-76505031D01*
X181125731Y-76504810D01*
X181011404Y-76504800D01*
X178985333Y-76504800D01*
X178985333Y-76337041D01*
X178990213Y-76230105D01*
X179008823Y-76157486D01*
X179047115Y-76097593D01*
X179053436Y-76090096D01*
X179121538Y-76010912D01*
X181581828Y-75996800D01*
X184042117Y-75982689D01*
X184096059Y-75916063D01*
X184119567Y-75879717D01*
X184135195Y-75832163D01*
X184144463Y-75762029D01*
X184148891Y-75657946D01*
X184150000Y-75512753D01*
X184149012Y-75366228D01*
X184144866Y-75264056D01*
X184135788Y-75194165D01*
X184120002Y-75144479D01*
X184095735Y-75102926D01*
X184088248Y-75092546D01*
X184026496Y-75009023D01*
X181512971Y-75009642D01*
X181512971Y-75009642D01*
G37*
X181512971Y-75009642D02*
X181078747Y-75009781D01*
X180697343Y-75010020D01*
X180365133Y-75010438D01*
X180078491Y-75011112D01*
X179833791Y-75012119D01*
X179627410Y-75013538D01*
X179455721Y-75015446D01*
X179315098Y-75017920D01*
X179201918Y-75021039D01*
X179112553Y-75024879D01*
X179043379Y-75029519D01*
X178990771Y-75035035D01*
X178951102Y-75041507D01*
X178920749Y-75049010D01*
X178896084Y-75057623D01*
X178876418Y-75066087D01*
X178795196Y-75099380D01*
X178731321Y-75119350D01*
X178713864Y-75121912D01*
X178666887Y-75141725D01*
X178626007Y-75178356D01*
X178577957Y-75221028D01*
X178544521Y-75234800D01*
X178501648Y-75256914D01*
X178437579Y-75316092D01*
X178361125Y-75401589D01*
X178281097Y-75502662D01*
X178206304Y-75608565D01*
X178145557Y-75708555D01*
X178127972Y-75742800D01*
X178039889Y-75926245D01*
X178039889Y-78467486D01*
X178135689Y-78662057D01*
X178217274Y-78800076D01*
X178322335Y-78938181D01*
X178438317Y-79062522D01*
X178552663Y-79159245D01*
X178626920Y-79204003D01*
X178718806Y-79249438D01*
X178801889Y-79293692D01*
X178821562Y-79302633D01*
X178849054Y-79310402D01*
X178888239Y-79317091D01*
X178942989Y-79322788D01*
X179017177Y-79327583D01*
X179114677Y-79331565D01*
X179239362Y-79334825D01*
X179395104Y-79337451D01*
X179585776Y-79339534D01*
X179815252Y-79341163D01*
X180087404Y-79342427D01*
X180406106Y-79343416D01*
X180775230Y-79344221D01*
X181003222Y-79344620D01*
X181345907Y-79345032D01*
X181673615Y-79345130D01*
X181981748Y-79344932D01*
X182265708Y-79344454D01*
X182520896Y-79343713D01*
X182742713Y-79342726D01*
X182926561Y-79341509D01*
X183067841Y-79340079D01*
X183161955Y-79338452D01*
X183204303Y-79336646D01*
X183204556Y-79336613D01*
X183279296Y-79317223D01*
X183374844Y-79280425D01*
X183473981Y-79234417D01*
X183559487Y-79187395D01*
X183614144Y-79147557D01*
X183622236Y-79137780D01*
X183658378Y-79104774D01*
X183672324Y-79101245D01*
X183704771Y-79081971D01*
X183761052Y-79031937D01*
X183815970Y-78975759D01*
X183938403Y-78826160D01*
X184029721Y-78671022D01*
X184092777Y-78500423D01*
X184130420Y-78304443D01*
X184145503Y-78073159D01*
X184143635Y-77921130D01*
X183190339Y-77921130D01*
X183185473Y-78073463D01*
X183167876Y-78182013D01*
X183133313Y-78258796D01*
X183077546Y-78315831D01*
X183042981Y-78339126D01*
X183023093Y-78350344D01*
X183000158Y-78359966D01*
X182969953Y-78368116D01*
X182928252Y-78374914D01*
X182870829Y-78380485D01*
X182793460Y-78384950D01*
X182691918Y-78388433D01*
X182561979Y-78391055D01*
X182399417Y-78392940D01*
X182200007Y-78394210D01*
X181959523Y-78394987D01*
X181673740Y-78395395D01*
X181338432Y-78395555D01*
X181096782Y-78395584D01*
X180768366Y-78395221D01*
X180458076Y-78394133D01*
X180170547Y-78392384D01*
X179910413Y-78390033D01*
X179682307Y-78387143D01*
X179490866Y-78383774D01*
X179340722Y-78379988D01*
X179236510Y-78375846D01*
X179182864Y-78371410D01*
X179177671Y-78370177D01*
X179108127Y-78331266D01*
X179048833Y-78284411D01*
X179022270Y-78255428D01*
X179004349Y-78220866D01*
X178993384Y-78169789D01*
X178987690Y-78091261D01*
X178985581Y-77974345D01*
X178985333Y-77872479D01*
X178985333Y-77520800D01*
X183078385Y-77520800D01*
X183134309Y-77612523D01*
X183166412Y-77682109D01*
X183183992Y-77769840D01*
X183190190Y-77893001D01*
X183190339Y-77921130D01*
X184143635Y-77921130D01*
X184142625Y-77839021D01*
X184132622Y-77645659D01*
X184116580Y-77494419D01*
X184090659Y-77371021D01*
X184051020Y-77261186D01*
X183993824Y-77150634D01*
X183929739Y-77047291D01*
X183771297Y-76853837D01*
X183573689Y-76700861D01*
X183337499Y-76588763D01*
X183205682Y-76548316D01*
X183166392Y-76539817D01*
X183116194Y-76532472D01*
X183051049Y-76526200D01*
X182966918Y-76520920D01*
X182859762Y-76516553D01*
X182725542Y-76513018D01*
X182560221Y-76510236D01*
X182359759Y-76508127D01*
X182120118Y-76506609D01*
X181837258Y-76505604D01*
X181507142Y-76505031D01*
X181125731Y-76504810D01*
X181011404Y-76504800D01*
X178985333Y-76504800D01*
X178985333Y-76337041D01*
X178990213Y-76230105D01*
X179008823Y-76157486D01*
X179047115Y-76097593D01*
X179053436Y-76090096D01*
X179121538Y-76010912D01*
X181581828Y-75996800D01*
X184042117Y-75982689D01*
X184096059Y-75916063D01*
X184119567Y-75879717D01*
X184135195Y-75832163D01*
X184144463Y-75762029D01*
X184148891Y-75657946D01*
X184150000Y-75512753D01*
X184149012Y-75366228D01*
X184144866Y-75264056D01*
X184135788Y-75194165D01*
X184120002Y-75144479D01*
X184095735Y-75102926D01*
X184088248Y-75092546D01*
X184026496Y-75009023D01*
X181512971Y-75009642D01*
G36*
X185489460Y-73881351D02*
X185395057Y-73885937D01*
X185331116Y-73896287D01*
X185284653Y-73914656D01*
X185242685Y-73943301D01*
X185236556Y-73948158D01*
X185151889Y-74015901D01*
X185151889Y-76641832D01*
X185152022Y-77101183D01*
X185152449Y-77507094D01*
X185153212Y-77862569D01*
X185154350Y-78170614D01*
X185155907Y-78434231D01*
X185157923Y-78656426D01*
X185160439Y-78840202D01*
X185163497Y-78988563D01*
X185167138Y-79104515D01*
X185171403Y-79191061D01*
X185176334Y-79251205D01*
X185181972Y-79287952D01*
X185188358Y-79304306D01*
X185188497Y-79304449D01*
X185234983Y-79323000D01*
X185324420Y-79337312D01*
X185443457Y-79347186D01*
X185578744Y-79352423D01*
X185716933Y-79352823D01*
X185844674Y-79348189D01*
X185948617Y-79338322D01*
X186015413Y-79323022D01*
X186026778Y-79316934D01*
X186041278Y-79304158D01*
X186053171Y-79285717D01*
X186062806Y-79256107D01*
X186070534Y-79209824D01*
X186076705Y-79141363D01*
X186081669Y-79045219D01*
X186085776Y-78915888D01*
X186089375Y-78747866D01*
X186092818Y-78535649D01*
X186096454Y-78273731D01*
X186097333Y-78207488D01*
X186111445Y-77139800D01*
X188389418Y-77132578D01*
X190667392Y-77125356D01*
X190675418Y-78196584D01*
X190678003Y-78485825D01*
X190681132Y-78723094D01*
X190684984Y-78912861D01*
X190689741Y-79059598D01*
X190695581Y-79167775D01*
X190702686Y-79241863D01*
X190711236Y-79286333D01*
X190720053Y-79304473D01*
X190762223Y-79319496D01*
X190847590Y-79331924D01*
X190962950Y-79341378D01*
X191095099Y-79347477D01*
X191230833Y-79349841D01*
X191356948Y-79348090D01*
X191460240Y-79341844D01*
X191527505Y-79330723D01*
X191535322Y-79327944D01*
X191598355Y-79282816D01*
X191627481Y-79244987D01*
X191633244Y-79212495D01*
X191638217Y-79137090D01*
X191642413Y-79017334D01*
X191645842Y-78851790D01*
X191648519Y-78639019D01*
X191650456Y-78377582D01*
X191651665Y-78066042D01*
X191652159Y-77702961D01*
X191651951Y-77286900D01*
X191651052Y-76816422D01*
X191650492Y-76609327D01*
X191643000Y-74030664D01*
X191558333Y-73956291D01*
X191518052Y-73923735D01*
X191477429Y-73902339D01*
X191423853Y-73889725D01*
X191344710Y-73883514D01*
X191227386Y-73881328D01*
X191159151Y-73881026D01*
X191021625Y-73881207D01*
X190927965Y-73884367D01*
X190865595Y-73893038D01*
X190821938Y-73909754D01*
X190784419Y-73937046D01*
X190756985Y-73962012D01*
X190669333Y-74043891D01*
X190669333Y-76138245D01*
X188390389Y-76131023D01*
X186111445Y-76123800D01*
X186104051Y-75060093D01*
X186096658Y-73996385D01*
X186015028Y-73938259D01*
X185970539Y-73911810D01*
X185917724Y-73894723D01*
X185843702Y-73885070D01*
X185735595Y-73880927D01*
X185627310Y-73880274D01*
X185489460Y-73881351D01*
X185489460Y-73881351D01*
G37*
X185489460Y-73881351D02*
X185395057Y-73885937D01*
X185331116Y-73896287D01*
X185284653Y-73914656D01*
X185242685Y-73943301D01*
X185236556Y-73948158D01*
X185151889Y-74015901D01*
X185151889Y-76641832D01*
X185152022Y-77101183D01*
X185152449Y-77507094D01*
X185153212Y-77862569D01*
X185154350Y-78170614D01*
X185155907Y-78434231D01*
X185157923Y-78656426D01*
X185160439Y-78840202D01*
X185163497Y-78988563D01*
X185167138Y-79104515D01*
X185171403Y-79191061D01*
X185176334Y-79251205D01*
X185181972Y-79287952D01*
X185188358Y-79304306D01*
X185188497Y-79304449D01*
X185234983Y-79323000D01*
X185324420Y-79337312D01*
X185443457Y-79347186D01*
X185578744Y-79352423D01*
X185716933Y-79352823D01*
X185844674Y-79348189D01*
X185948617Y-79338322D01*
X186015413Y-79323022D01*
X186026778Y-79316934D01*
X186041278Y-79304158D01*
X186053171Y-79285717D01*
X186062806Y-79256107D01*
X186070534Y-79209824D01*
X186076705Y-79141363D01*
X186081669Y-79045219D01*
X186085776Y-78915888D01*
X186089375Y-78747866D01*
X186092818Y-78535649D01*
X186096454Y-78273731D01*
X186097333Y-78207488D01*
X186111445Y-77139800D01*
X188389418Y-77132578D01*
X190667392Y-77125356D01*
X190675418Y-78196584D01*
X190678003Y-78485825D01*
X190681132Y-78723094D01*
X190684984Y-78912861D01*
X190689741Y-79059598D01*
X190695581Y-79167775D01*
X190702686Y-79241863D01*
X190711236Y-79286333D01*
X190720053Y-79304473D01*
X190762223Y-79319496D01*
X190847590Y-79331924D01*
X190962950Y-79341378D01*
X191095099Y-79347477D01*
X191230833Y-79349841D01*
X191356948Y-79348090D01*
X191460240Y-79341844D01*
X191527505Y-79330723D01*
X191535322Y-79327944D01*
X191598355Y-79282816D01*
X191627481Y-79244987D01*
X191633244Y-79212495D01*
X191638217Y-79137090D01*
X191642413Y-79017334D01*
X191645842Y-78851790D01*
X191648519Y-78639019D01*
X191650456Y-78377582D01*
X191651665Y-78066042D01*
X191652159Y-77702961D01*
X191651951Y-77286900D01*
X191651052Y-76816422D01*
X191650492Y-76609327D01*
X191643000Y-74030664D01*
X191558333Y-73956291D01*
X191518052Y-73923735D01*
X191477429Y-73902339D01*
X191423853Y-73889725D01*
X191344710Y-73883514D01*
X191227386Y-73881328D01*
X191159151Y-73881026D01*
X191021625Y-73881207D01*
X190927965Y-73884367D01*
X190865595Y-73893038D01*
X190821938Y-73909754D01*
X190784419Y-73937046D01*
X190756985Y-73962012D01*
X190669333Y-74043891D01*
X190669333Y-76138245D01*
X188390389Y-76131023D01*
X186111445Y-76123800D01*
X186104051Y-75060093D01*
X186096658Y-73996385D01*
X186015028Y-73938259D01*
X185970539Y-73911810D01*
X185917724Y-73894723D01*
X185843702Y-73885070D01*
X185735595Y-73880927D01*
X185627310Y-73880274D01*
X185489460Y-73881351D01*
G36*
X167374272Y-72958594D02*
X167316667Y-72993593D01*
X167277336Y-73052778D01*
X167272598Y-73089664D01*
X167268206Y-73179000D01*
X167264159Y-73316792D01*
X167260458Y-73499049D01*
X167257103Y-73721775D01*
X167254094Y-73980979D01*
X167251431Y-74272667D01*
X167249115Y-74592846D01*
X167247145Y-74937522D01*
X167245522Y-75302702D01*
X167244247Y-75684394D01*
X167243318Y-76078603D01*
X167242737Y-76481337D01*
X167242503Y-76888602D01*
X167242617Y-77296405D01*
X167243079Y-77700753D01*
X167243888Y-78097652D01*
X167245046Y-78483110D01*
X167246553Y-78853133D01*
X167248408Y-79203728D01*
X167250611Y-79530901D01*
X167253164Y-79830660D01*
X167256065Y-80099011D01*
X167259316Y-80331961D01*
X167262916Y-80525517D01*
X167266866Y-80675685D01*
X167271165Y-80778473D01*
X167275815Y-80829886D01*
X167277001Y-80834179D01*
X167326451Y-80894187D01*
X167394102Y-80934285D01*
X167453335Y-80954167D01*
X167481649Y-80962176D01*
X167481934Y-80962123D01*
X167506708Y-80951626D01*
X167545258Y-80935927D01*
X167607816Y-80894033D01*
X167651092Y-80846770D01*
X167657538Y-80833859D01*
X167663350Y-80812610D01*
X167668559Y-80780225D01*
X167673198Y-80733911D01*
X167677299Y-80670870D01*
X167680895Y-80588306D01*
X167684018Y-80483424D01*
X167686700Y-80353429D01*
X167688974Y-80195523D01*
X167690874Y-80006912D01*
X167692429Y-79784798D01*
X167693675Y-79526388D01*
X167694642Y-79228884D01*
X167695364Y-78889491D01*
X167695872Y-78505413D01*
X167696200Y-78073854D01*
X167696379Y-77592018D01*
X167696443Y-77057109D01*
X167696445Y-76940086D01*
X167696445Y-73098154D01*
X167627237Y-73023477D01*
X167541785Y-72962323D01*
X167464959Y-72949233D01*
X167374272Y-72958594D01*
X167374272Y-72958594D01*
G37*
X167374272Y-72958594D02*
X167316667Y-72993593D01*
X167277336Y-73052778D01*
X167272598Y-73089664D01*
X167268206Y-73179000D01*
X167264159Y-73316792D01*
X167260458Y-73499049D01*
X167257103Y-73721775D01*
X167254094Y-73980979D01*
X167251431Y-74272667D01*
X167249115Y-74592846D01*
X167247145Y-74937522D01*
X167245522Y-75302702D01*
X167244247Y-75684394D01*
X167243318Y-76078603D01*
X167242737Y-76481337D01*
X167242503Y-76888602D01*
X167242617Y-77296405D01*
X167243079Y-77700753D01*
X167243888Y-78097652D01*
X167245046Y-78483110D01*
X167246553Y-78853133D01*
X167248408Y-79203728D01*
X167250611Y-79530901D01*
X167253164Y-79830660D01*
X167256065Y-80099011D01*
X167259316Y-80331961D01*
X167262916Y-80525517D01*
X167266866Y-80675685D01*
X167271165Y-80778473D01*
X167275815Y-80829886D01*
X167277001Y-80834179D01*
X167326451Y-80894187D01*
X167394102Y-80934285D01*
X167453335Y-80954167D01*
X167481649Y-80962176D01*
X167481934Y-80962123D01*
X167506708Y-80951626D01*
X167545258Y-80935927D01*
X167607816Y-80894033D01*
X167651092Y-80846770D01*
X167657538Y-80833859D01*
X167663350Y-80812610D01*
X167668559Y-80780225D01*
X167673198Y-80733911D01*
X167677299Y-80670870D01*
X167680895Y-80588306D01*
X167684018Y-80483424D01*
X167686700Y-80353429D01*
X167688974Y-80195523D01*
X167690874Y-80006912D01*
X167692429Y-79784798D01*
X167693675Y-79526388D01*
X167694642Y-79228884D01*
X167695364Y-78889491D01*
X167695872Y-78505413D01*
X167696200Y-78073854D01*
X167696379Y-77592018D01*
X167696443Y-77057109D01*
X167696445Y-76940086D01*
X167696445Y-73098154D01*
X167627237Y-73023477D01*
X167541785Y-72962323D01*
X167464959Y-72949233D01*
X167374272Y-72958594D01*
G36*
X168149675Y-72978495D02*
X168126058Y-72992734D01*
X168063333Y-73036668D01*
X168063333Y-76939471D01*
X168063362Y-77487795D01*
X168063471Y-77982463D01*
X168063696Y-78426264D01*
X168064071Y-78821986D01*
X168064632Y-79172417D01*
X168065412Y-79480346D01*
X168066448Y-79748561D01*
X168067774Y-79979852D01*
X168069424Y-80177005D01*
X168071435Y-80342811D01*
X168073840Y-80480057D01*
X168076674Y-80591532D01*
X168079973Y-80680024D01*
X168083772Y-80748322D01*
X168088104Y-80799214D01*
X168093006Y-80835488D01*
X168098512Y-80859934D01*
X168104657Y-80875340D01*
X168111476Y-80884493D01*
X168112722Y-80885644D01*
X168207470Y-80941076D01*
X168305509Y-80940940D01*
X168359023Y-80919562D01*
X168423474Y-80879730D01*
X168463663Y-80843461D01*
X168464424Y-80842314D01*
X168466983Y-80810556D01*
X168469461Y-80725616D01*
X168471840Y-80590757D01*
X168474101Y-80409241D01*
X168476226Y-80184331D01*
X168478197Y-79919290D01*
X168479995Y-79617380D01*
X168481604Y-79281864D01*
X168483003Y-78916004D01*
X168484175Y-78523063D01*
X168485102Y-78106305D01*
X168485766Y-77668990D01*
X168486148Y-77214382D01*
X168486235Y-76935189D01*
X168486285Y-76390198D01*
X168486280Y-75898829D01*
X168486181Y-75458260D01*
X168485946Y-75065668D01*
X168485536Y-74718231D01*
X168484911Y-74413126D01*
X168484030Y-74147531D01*
X168482853Y-73918624D01*
X168481340Y-73723582D01*
X168479450Y-73559583D01*
X168477144Y-73423805D01*
X168474381Y-73313425D01*
X168471120Y-73225620D01*
X168467323Y-73157569D01*
X168462947Y-73106448D01*
X168457955Y-73069436D01*
X168452304Y-73043710D01*
X168445954Y-73026448D01*
X168438867Y-73014827D01*
X168431000Y-73006026D01*
X168430222Y-73005245D01*
X168349551Y-72960376D01*
X168248107Y-72951133D01*
X168149675Y-72978495D01*
X168149675Y-72978495D01*
G37*
X168149675Y-72978495D02*
X168126058Y-72992734D01*
X168063333Y-73036668D01*
X168063333Y-76939471D01*
X168063362Y-77487795D01*
X168063471Y-77982463D01*
X168063696Y-78426264D01*
X168064071Y-78821986D01*
X168064632Y-79172417D01*
X168065412Y-79480346D01*
X168066448Y-79748561D01*
X168067774Y-79979852D01*
X168069424Y-80177005D01*
X168071435Y-80342811D01*
X168073840Y-80480057D01*
X168076674Y-80591532D01*
X168079973Y-80680024D01*
X168083772Y-80748322D01*
X168088104Y-80799214D01*
X168093006Y-80835488D01*
X168098512Y-80859934D01*
X168104657Y-80875340D01*
X168111476Y-80884493D01*
X168112722Y-80885644D01*
X168207470Y-80941076D01*
X168305509Y-80940940D01*
X168359023Y-80919562D01*
X168423474Y-80879730D01*
X168463663Y-80843461D01*
X168464424Y-80842314D01*
X168466983Y-80810556D01*
X168469461Y-80725616D01*
X168471840Y-80590757D01*
X168474101Y-80409241D01*
X168476226Y-80184331D01*
X168478197Y-79919290D01*
X168479995Y-79617380D01*
X168481604Y-79281864D01*
X168483003Y-78916004D01*
X168484175Y-78523063D01*
X168485102Y-78106305D01*
X168485766Y-77668990D01*
X168486148Y-77214382D01*
X168486235Y-76935189D01*
X168486285Y-76390198D01*
X168486280Y-75898829D01*
X168486181Y-75458260D01*
X168485946Y-75065668D01*
X168485536Y-74718231D01*
X168484911Y-74413126D01*
X168484030Y-74147531D01*
X168482853Y-73918624D01*
X168481340Y-73723582D01*
X168479450Y-73559583D01*
X168477144Y-73423805D01*
X168474381Y-73313425D01*
X168471120Y-73225620D01*
X168467323Y-73157569D01*
X168462947Y-73106448D01*
X168457955Y-73069436D01*
X168452304Y-73043710D01*
X168445954Y-73026448D01*
X168438867Y-73014827D01*
X168431000Y-73006026D01*
X168430222Y-73005245D01*
X168349551Y-72960376D01*
X168248107Y-72951133D01*
X168149675Y-72978495D01*
G36*
X168980005Y-72979400D02*
X168917473Y-73033394D01*
X168908308Y-73052030D01*
X168905273Y-73087770D01*
X168902396Y-73175961D01*
X168899683Y-73312621D01*
X168897137Y-73493765D01*
X168894763Y-73715411D01*
X168892566Y-73973575D01*
X168890551Y-74264273D01*
X168888721Y-74583522D01*
X168887082Y-74927338D01*
X168885638Y-75291739D01*
X168884394Y-75672741D01*
X168883355Y-76066359D01*
X168882524Y-76468612D01*
X168881908Y-76875515D01*
X168881509Y-77283086D01*
X168881333Y-77687340D01*
X168881385Y-78084294D01*
X168881669Y-78469965D01*
X168882189Y-78840369D01*
X168882951Y-79191524D01*
X168883958Y-79519444D01*
X168885216Y-79820149D01*
X168886729Y-80089652D01*
X168888502Y-80323972D01*
X168890539Y-80519125D01*
X168892845Y-80671128D01*
X168895425Y-80775996D01*
X168898282Y-80829747D01*
X168899309Y-80835647D01*
X168935350Y-80878164D01*
X168999297Y-80923710D01*
X169065935Y-80956237D01*
X169099099Y-80962782D01*
X169137779Y-80949640D01*
X169199144Y-80919620D01*
X169199278Y-80919547D01*
X169276889Y-80877442D01*
X169276889Y-72981507D01*
X169192222Y-72962912D01*
X169076230Y-72954449D01*
X168980005Y-72979400D01*
X168980005Y-72979400D01*
G37*
X168980005Y-72979400D02*
X168917473Y-73033394D01*
X168908308Y-73052030D01*
X168905273Y-73087770D01*
X168902396Y-73175961D01*
X168899683Y-73312621D01*
X168897137Y-73493765D01*
X168894763Y-73715411D01*
X168892566Y-73973575D01*
X168890551Y-74264273D01*
X168888721Y-74583522D01*
X168887082Y-74927338D01*
X168885638Y-75291739D01*
X168884394Y-75672741D01*
X168883355Y-76066359D01*
X168882524Y-76468612D01*
X168881908Y-76875515D01*
X168881509Y-77283086D01*
X168881333Y-77687340D01*
X168881385Y-78084294D01*
X168881669Y-78469965D01*
X168882189Y-78840369D01*
X168882951Y-79191524D01*
X168883958Y-79519444D01*
X168885216Y-79820149D01*
X168886729Y-80089652D01*
X168888502Y-80323972D01*
X168890539Y-80519125D01*
X168892845Y-80671128D01*
X168895425Y-80775996D01*
X168898282Y-80829747D01*
X168899309Y-80835647D01*
X168935350Y-80878164D01*
X168999297Y-80923710D01*
X169065935Y-80956237D01*
X169099099Y-80962782D01*
X169137779Y-80949640D01*
X169199144Y-80919620D01*
X169199278Y-80919547D01*
X169276889Y-80877442D01*
X169276889Y-72981507D01*
X169192222Y-72962912D01*
X169076230Y-72954449D01*
X168980005Y-72979400D01*
G36*
X169772476Y-72975762D02*
X169722800Y-72999597D01*
X169717425Y-73014150D01*
X169712525Y-73048224D01*
X169708074Y-73104308D01*
X169704041Y-73184895D01*
X169700397Y-73292474D01*
X169697115Y-73429536D01*
X169694164Y-73598572D01*
X169691517Y-73802072D01*
X169689144Y-74042528D01*
X169687017Y-74322429D01*
X169685106Y-74644268D01*
X169683383Y-75010533D01*
X169681819Y-75423716D01*
X169680386Y-75886307D01*
X169679053Y-76400798D01*
X169678009Y-76866042D01*
X169677151Y-77327945D01*
X169676551Y-77775228D01*
X169676204Y-78204545D01*
X169676101Y-78612551D01*
X169676238Y-78995899D01*
X169676605Y-79351243D01*
X169677197Y-79675237D01*
X169678007Y-79964535D01*
X169679028Y-80215790D01*
X169680253Y-80425658D01*
X169681676Y-80590790D01*
X169683288Y-80707843D01*
X169685084Y-80773469D01*
X169686048Y-80785946D01*
X169721865Y-80869020D01*
X169790208Y-80920002D01*
X169870228Y-80954049D01*
X169928134Y-80957616D01*
X169988771Y-80931544D01*
X169996556Y-80926974D01*
X170050369Y-80888463D01*
X170073735Y-80865134D01*
X170076911Y-80833058D01*
X170079816Y-80748477D01*
X170082452Y-80615328D01*
X170084822Y-80437549D01*
X170086930Y-80219077D01*
X170088777Y-79963852D01*
X170090369Y-79675811D01*
X170091706Y-79358892D01*
X170092793Y-79017032D01*
X170093632Y-78654170D01*
X170094227Y-78274244D01*
X170094580Y-77881192D01*
X170094694Y-77478951D01*
X170094573Y-77071459D01*
X170094220Y-76662655D01*
X170093637Y-76256477D01*
X170092827Y-75856862D01*
X170091794Y-75467748D01*
X170090541Y-75093074D01*
X170089070Y-74736777D01*
X170087385Y-74402795D01*
X170085488Y-74095066D01*
X170083383Y-73817528D01*
X170081073Y-73574119D01*
X170078560Y-73368777D01*
X170075848Y-73205440D01*
X170072940Y-73088046D01*
X170069838Y-73020533D01*
X170067709Y-73005245D01*
X170023145Y-72978831D01*
X169944832Y-72964880D01*
X169854149Y-72963740D01*
X169772476Y-72975762D01*
X169772476Y-72975762D01*
G37*
X169772476Y-72975762D02*
X169722800Y-72999597D01*
X169717425Y-73014150D01*
X169712525Y-73048224D01*
X169708074Y-73104308D01*
X169704041Y-73184895D01*
X169700397Y-73292474D01*
X169697115Y-73429536D01*
X169694164Y-73598572D01*
X169691517Y-73802072D01*
X169689144Y-74042528D01*
X169687017Y-74322429D01*
X169685106Y-74644268D01*
X169683383Y-75010533D01*
X169681819Y-75423716D01*
X169680386Y-75886307D01*
X169679053Y-76400798D01*
X169678009Y-76866042D01*
X169677151Y-77327945D01*
X169676551Y-77775228D01*
X169676204Y-78204545D01*
X169676101Y-78612551D01*
X169676238Y-78995899D01*
X169676605Y-79351243D01*
X169677197Y-79675237D01*
X169678007Y-79964535D01*
X169679028Y-80215790D01*
X169680253Y-80425658D01*
X169681676Y-80590790D01*
X169683288Y-80707843D01*
X169685084Y-80773469D01*
X169686048Y-80785946D01*
X169721865Y-80869020D01*
X169790208Y-80920002D01*
X169870228Y-80954049D01*
X169928134Y-80957616D01*
X169988771Y-80931544D01*
X169996556Y-80926974D01*
X170050369Y-80888463D01*
X170073735Y-80865134D01*
X170076911Y-80833058D01*
X170079816Y-80748477D01*
X170082452Y-80615328D01*
X170084822Y-80437549D01*
X170086930Y-80219077D01*
X170088777Y-79963852D01*
X170090369Y-79675811D01*
X170091706Y-79358892D01*
X170092793Y-79017032D01*
X170093632Y-78654170D01*
X170094227Y-78274244D01*
X170094580Y-77881192D01*
X170094694Y-77478951D01*
X170094573Y-77071459D01*
X170094220Y-76662655D01*
X170093637Y-76256477D01*
X170092827Y-75856862D01*
X170091794Y-75467748D01*
X170090541Y-75093074D01*
X170089070Y-74736777D01*
X170087385Y-74402795D01*
X170085488Y-74095066D01*
X170083383Y-73817528D01*
X170081073Y-73574119D01*
X170078560Y-73368777D01*
X170075848Y-73205440D01*
X170072940Y-73088046D01*
X170069838Y-73020533D01*
X170067709Y-73005245D01*
X170023145Y-72978831D01*
X169944832Y-72964880D01*
X169854149Y-72963740D01*
X169772476Y-72975762D01*
G36*
X170686839Y-72954872D02*
X170602618Y-72980321D01*
X170581391Y-72992734D01*
X170518667Y-73036668D01*
X170518667Y-80851852D01*
X170610389Y-80907776D01*
X170674761Y-80945942D01*
X170716286Y-80958611D01*
X170761402Y-80947801D01*
X170817832Y-80923612D01*
X170883609Y-80883807D01*
X170922866Y-80839676D01*
X170923665Y-80837742D01*
X170925869Y-80804242D01*
X170927996Y-80717592D01*
X170930033Y-80581085D01*
X170931962Y-80398017D01*
X170933770Y-80171681D01*
X170935439Y-79905372D01*
X170936956Y-79602383D01*
X170938303Y-79266008D01*
X170939466Y-78899543D01*
X170940429Y-78506280D01*
X170941176Y-78089515D01*
X170941693Y-77652541D01*
X170941963Y-77198652D01*
X170942000Y-76952192D01*
X170941981Y-76403917D01*
X170941877Y-75909274D01*
X170941622Y-75465454D01*
X170941147Y-75069643D01*
X170940385Y-74719032D01*
X170939269Y-74410808D01*
X170937729Y-74142160D01*
X170935699Y-73910277D01*
X170933110Y-73712347D01*
X170929896Y-73545559D01*
X170925988Y-73407102D01*
X170921318Y-73294165D01*
X170915820Y-73203935D01*
X170909424Y-73133602D01*
X170902064Y-73080354D01*
X170893671Y-73041379D01*
X170884178Y-73013867D01*
X170873517Y-72995006D01*
X170861621Y-72981985D01*
X170848421Y-72971992D01*
X170846053Y-72970399D01*
X170777378Y-72950772D01*
X170686839Y-72954872D01*
X170686839Y-72954872D01*
G37*
X170686839Y-72954872D02*
X170602618Y-72980321D01*
X170581391Y-72992734D01*
X170518667Y-73036668D01*
X170518667Y-80851852D01*
X170610389Y-80907776D01*
X170674761Y-80945942D01*
X170716286Y-80958611D01*
X170761402Y-80947801D01*
X170817832Y-80923612D01*
X170883609Y-80883807D01*
X170922866Y-80839676D01*
X170923665Y-80837742D01*
X170925869Y-80804242D01*
X170927996Y-80717592D01*
X170930033Y-80581085D01*
X170931962Y-80398017D01*
X170933770Y-80171681D01*
X170935439Y-79905372D01*
X170936956Y-79602383D01*
X170938303Y-79266008D01*
X170939466Y-78899543D01*
X170940429Y-78506280D01*
X170941176Y-78089515D01*
X170941693Y-77652541D01*
X170941963Y-77198652D01*
X170942000Y-76952192D01*
X170941981Y-76403917D01*
X170941877Y-75909274D01*
X170941622Y-75465454D01*
X170941147Y-75069643D01*
X170940385Y-74719032D01*
X170939269Y-74410808D01*
X170937729Y-74142160D01*
X170935699Y-73910277D01*
X170933110Y-73712347D01*
X170929896Y-73545559D01*
X170925988Y-73407102D01*
X170921318Y-73294165D01*
X170915820Y-73203935D01*
X170909424Y-73133602D01*
X170902064Y-73080354D01*
X170893671Y-73041379D01*
X170884178Y-73013867D01*
X170873517Y-72995006D01*
X170861621Y-72981985D01*
X170848421Y-72971992D01*
X170846053Y-72970399D01*
X170777378Y-72950772D01*
X170686839Y-72954872D01*
G36*
X168537859Y-81613342D02*
X168245272Y-81614606D01*
X167967897Y-81616557D01*
X167711704Y-81619197D01*
X167482665Y-81622531D01*
X167286751Y-81626560D01*
X167129933Y-81631289D01*
X167018182Y-81636719D01*
X166962667Y-81641953D01*
X166834919Y-81670586D01*
X166701965Y-81713832D01*
X166627267Y-81745799D01*
X166477803Y-81840301D01*
X166324655Y-81972281D01*
X166183577Y-82126228D01*
X166070320Y-82286627D01*
X166059972Y-82304467D01*
X165964107Y-82473800D01*
X165962442Y-83038245D01*
X165962200Y-83231727D01*
X165963311Y-83377617D01*
X165966584Y-83484764D01*
X165972826Y-83562018D01*
X165982848Y-83618229D01*
X165997455Y-83662244D01*
X166017459Y-83702916D01*
X166024278Y-83715160D01*
X166062762Y-83790624D01*
X166085319Y-83848977D01*
X166087778Y-83863088D01*
X166109371Y-83904414D01*
X166144222Y-83933794D01*
X166188309Y-83971108D01*
X166200667Y-83994966D01*
X166221567Y-84031270D01*
X166276262Y-84089969D01*
X166352746Y-84160471D01*
X166439012Y-84232184D01*
X166523054Y-84294516D01*
X166581667Y-84331080D01*
X166672840Y-84376089D01*
X166760029Y-84412467D01*
X166779222Y-84419070D01*
X166821763Y-84423906D01*
X166916704Y-84428845D01*
X167060001Y-84433807D01*
X167247609Y-84438713D01*
X167475486Y-84443485D01*
X167739586Y-84448044D01*
X168035866Y-84452310D01*
X168360282Y-84456204D01*
X168708789Y-84459649D01*
X168966445Y-84461761D01*
X171069000Y-84477578D01*
X171069000Y-84680811D01*
X171063380Y-84808867D01*
X171047281Y-84893309D01*
X171032323Y-84920700D01*
X171015387Y-84927541D01*
X170976931Y-84933678D01*
X170913824Y-84939179D01*
X170822938Y-84944110D01*
X170701142Y-84948537D01*
X170545306Y-84952528D01*
X170352302Y-84956148D01*
X170118998Y-84959464D01*
X169842266Y-84962544D01*
X169518976Y-84965453D01*
X169145997Y-84968258D01*
X168720201Y-84971027D01*
X168647545Y-84971467D01*
X168287553Y-84973909D01*
X167943244Y-84976785D01*
X167618875Y-84980028D01*
X167318704Y-84983570D01*
X167046989Y-84987344D01*
X166807987Y-84991282D01*
X166605956Y-84995316D01*
X166445154Y-84999380D01*
X166329837Y-85003405D01*
X166264265Y-85007324D01*
X166250749Y-85009498D01*
X166188736Y-85063619D01*
X166146548Y-85158039D01*
X166122788Y-85297526D01*
X166116000Y-85468937D01*
X166118824Y-85609601D01*
X166129170Y-85711712D01*
X166149848Y-85792964D01*
X166178068Y-85859712D01*
X166240136Y-85987467D01*
X168689846Y-85987467D01*
X169056294Y-85987201D01*
X169406144Y-85986427D01*
X169735339Y-85985186D01*
X170039825Y-85983516D01*
X170315545Y-85981457D01*
X170558445Y-85979048D01*
X170764468Y-85976329D01*
X170929560Y-85973338D01*
X171049664Y-85970114D01*
X171120725Y-85966698D01*
X171139556Y-85963762D01*
X171163881Y-85941757D01*
X171225283Y-85913781D01*
X171259500Y-85901909D01*
X171450020Y-85815150D01*
X171632013Y-85683898D01*
X171792602Y-85519934D01*
X171918910Y-85335043D01*
X171952530Y-85267800D01*
X171981400Y-85201667D01*
X172005157Y-85138950D01*
X172024299Y-85073498D01*
X172039322Y-84999159D01*
X172050724Y-84909781D01*
X172059000Y-84799214D01*
X172064647Y-84661306D01*
X172068162Y-84489905D01*
X172070041Y-84278860D01*
X172070782Y-84022019D01*
X172070889Y-83801760D01*
X172070589Y-83510872D01*
X172070438Y-83475689D01*
X171087485Y-83475689D01*
X167044626Y-83475689D01*
X166976316Y-83398078D01*
X166945000Y-83357810D01*
X166924954Y-83313995D01*
X166913644Y-83253291D01*
X166908536Y-83162353D01*
X166907114Y-83033698D01*
X166907251Y-82903908D01*
X166910675Y-82817722D01*
X166920453Y-82762298D01*
X166939652Y-82724797D01*
X166971338Y-82692377D01*
X166993054Y-82673865D01*
X167079886Y-82600800D01*
X169003888Y-82601428D01*
X169380548Y-82601601D01*
X169704855Y-82601932D01*
X169980900Y-82602532D01*
X170212773Y-82603514D01*
X170404566Y-82604991D01*
X170560370Y-82607074D01*
X170684277Y-82609877D01*
X170780376Y-82613511D01*
X170852759Y-82618089D01*
X170905517Y-82623722D01*
X170942741Y-82630525D01*
X170968523Y-82638608D01*
X170986953Y-82648084D01*
X170998445Y-82656198D01*
X171026839Y-82680441D01*
X171046679Y-82708851D01*
X171059821Y-82751586D01*
X171068121Y-82818804D01*
X171073435Y-82920662D01*
X171077617Y-83067320D01*
X171078242Y-83093015D01*
X171087485Y-83475689D01*
X172070438Y-83475689D01*
X172069552Y-83270725D01*
X172067578Y-83075617D01*
X172064463Y-82919848D01*
X172060005Y-82797717D01*
X172054001Y-82703522D01*
X172046250Y-82631563D01*
X172036549Y-82576138D01*
X172025942Y-82535548D01*
X171981464Y-82395905D01*
X171947825Y-82303871D01*
X171922014Y-82252337D01*
X171901019Y-82234193D01*
X171898132Y-82233912D01*
X171875201Y-82211480D01*
X171873333Y-82197749D01*
X171854481Y-82162469D01*
X171805017Y-82100293D01*
X171735577Y-82022854D01*
X171656799Y-81941786D01*
X171579321Y-81868720D01*
X171547301Y-81841210D01*
X171438957Y-81772490D01*
X171294976Y-81709714D01*
X171136116Y-81661159D01*
X171052577Y-81643953D01*
X170986749Y-81637852D01*
X170870452Y-81632406D01*
X170709655Y-81627617D01*
X170510331Y-81623489D01*
X170278451Y-81620025D01*
X170019985Y-81617228D01*
X169740905Y-81615100D01*
X169447181Y-81613644D01*
X169144785Y-81612864D01*
X168839687Y-81612763D01*
X168537859Y-81613342D01*
X168537859Y-81613342D01*
G37*
X168537859Y-81613342D02*
X168245272Y-81614606D01*
X167967897Y-81616557D01*
X167711704Y-81619197D01*
X167482665Y-81622531D01*
X167286751Y-81626560D01*
X167129933Y-81631289D01*
X167018182Y-81636719D01*
X166962667Y-81641953D01*
X166834919Y-81670586D01*
X166701965Y-81713832D01*
X166627267Y-81745799D01*
X166477803Y-81840301D01*
X166324655Y-81972281D01*
X166183577Y-82126228D01*
X166070320Y-82286627D01*
X166059972Y-82304467D01*
X165964107Y-82473800D01*
X165962442Y-83038245D01*
X165962200Y-83231727D01*
X165963311Y-83377617D01*
X165966584Y-83484764D01*
X165972826Y-83562018D01*
X165982848Y-83618229D01*
X165997455Y-83662244D01*
X166017459Y-83702916D01*
X166024278Y-83715160D01*
X166062762Y-83790624D01*
X166085319Y-83848977D01*
X166087778Y-83863088D01*
X166109371Y-83904414D01*
X166144222Y-83933794D01*
X166188309Y-83971108D01*
X166200667Y-83994966D01*
X166221567Y-84031270D01*
X166276262Y-84089969D01*
X166352746Y-84160471D01*
X166439012Y-84232184D01*
X166523054Y-84294516D01*
X166581667Y-84331080D01*
X166672840Y-84376089D01*
X166760029Y-84412467D01*
X166779222Y-84419070D01*
X166821763Y-84423906D01*
X166916704Y-84428845D01*
X167060001Y-84433807D01*
X167247609Y-84438713D01*
X167475486Y-84443485D01*
X167739586Y-84448044D01*
X168035866Y-84452310D01*
X168360282Y-84456204D01*
X168708789Y-84459649D01*
X168966445Y-84461761D01*
X171069000Y-84477578D01*
X171069000Y-84680811D01*
X171063380Y-84808867D01*
X171047281Y-84893309D01*
X171032323Y-84920700D01*
X171015387Y-84927541D01*
X170976931Y-84933678D01*
X170913824Y-84939179D01*
X170822938Y-84944110D01*
X170701142Y-84948537D01*
X170545306Y-84952528D01*
X170352302Y-84956148D01*
X170118998Y-84959464D01*
X169842266Y-84962544D01*
X169518976Y-84965453D01*
X169145997Y-84968258D01*
X168720201Y-84971027D01*
X168647545Y-84971467D01*
X168287553Y-84973909D01*
X167943244Y-84976785D01*
X167618875Y-84980028D01*
X167318704Y-84983570D01*
X167046989Y-84987344D01*
X166807987Y-84991282D01*
X166605956Y-84995316D01*
X166445154Y-84999380D01*
X166329837Y-85003405D01*
X166264265Y-85007324D01*
X166250749Y-85009498D01*
X166188736Y-85063619D01*
X166146548Y-85158039D01*
X166122788Y-85297526D01*
X166116000Y-85468937D01*
X166118824Y-85609601D01*
X166129170Y-85711712D01*
X166149848Y-85792964D01*
X166178068Y-85859712D01*
X166240136Y-85987467D01*
X168689846Y-85987467D01*
X169056294Y-85987201D01*
X169406144Y-85986427D01*
X169735339Y-85985186D01*
X170039825Y-85983516D01*
X170315545Y-85981457D01*
X170558445Y-85979048D01*
X170764468Y-85976329D01*
X170929560Y-85973338D01*
X171049664Y-85970114D01*
X171120725Y-85966698D01*
X171139556Y-85963762D01*
X171163881Y-85941757D01*
X171225283Y-85913781D01*
X171259500Y-85901909D01*
X171450020Y-85815150D01*
X171632013Y-85683898D01*
X171792602Y-85519934D01*
X171918910Y-85335043D01*
X171952530Y-85267800D01*
X171981400Y-85201667D01*
X172005157Y-85138950D01*
X172024299Y-85073498D01*
X172039322Y-84999159D01*
X172050724Y-84909781D01*
X172059000Y-84799214D01*
X172064647Y-84661306D01*
X172068162Y-84489905D01*
X172070041Y-84278860D01*
X172070782Y-84022019D01*
X172070889Y-83801760D01*
X172070589Y-83510872D01*
X172070438Y-83475689D01*
X171087485Y-83475689D01*
X167044626Y-83475689D01*
X166976316Y-83398078D01*
X166945000Y-83357810D01*
X166924954Y-83313995D01*
X166913644Y-83253291D01*
X166908536Y-83162353D01*
X166907114Y-83033698D01*
X166907251Y-82903908D01*
X166910675Y-82817722D01*
X166920453Y-82762298D01*
X166939652Y-82724797D01*
X166971338Y-82692377D01*
X166993054Y-82673865D01*
X167079886Y-82600800D01*
X169003888Y-82601428D01*
X169380548Y-82601601D01*
X169704855Y-82601932D01*
X169980900Y-82602532D01*
X170212773Y-82603514D01*
X170404566Y-82604991D01*
X170560370Y-82607074D01*
X170684277Y-82609877D01*
X170780376Y-82613511D01*
X170852759Y-82618089D01*
X170905517Y-82623722D01*
X170942741Y-82630525D01*
X170968523Y-82638608D01*
X170986953Y-82648084D01*
X170998445Y-82656198D01*
X171026839Y-82680441D01*
X171046679Y-82708851D01*
X171059821Y-82751586D01*
X171068121Y-82818804D01*
X171073435Y-82920662D01*
X171077617Y-83067320D01*
X171078242Y-83093015D01*
X171087485Y-83475689D01*
X172070438Y-83475689D01*
X172069552Y-83270725D01*
X172067578Y-83075617D01*
X172064463Y-82919848D01*
X172060005Y-82797717D01*
X172054001Y-82703522D01*
X172046250Y-82631563D01*
X172036549Y-82576138D01*
X172025942Y-82535548D01*
X171981464Y-82395905D01*
X171947825Y-82303871D01*
X171922014Y-82252337D01*
X171901019Y-82234193D01*
X171898132Y-82233912D01*
X171875201Y-82211480D01*
X171873333Y-82197749D01*
X171854481Y-82162469D01*
X171805017Y-82100293D01*
X171735577Y-82022854D01*
X171656799Y-81941786D01*
X171579321Y-81868720D01*
X171547301Y-81841210D01*
X171438957Y-81772490D01*
X171294976Y-81709714D01*
X171136116Y-81661159D01*
X171052577Y-81643953D01*
X170986749Y-81637852D01*
X170870452Y-81632406D01*
X170709655Y-81627617D01*
X170510331Y-81623489D01*
X170278451Y-81620025D01*
X170019985Y-81617228D01*
X169740905Y-81615100D01*
X169447181Y-81613644D01*
X169144785Y-81612864D01*
X168839687Y-81612763D01*
X168537859Y-81613342D01*
G36*
X177555733Y-80513203D02*
X177450775Y-80516711D01*
X177380923Y-80524333D01*
X177335514Y-80537521D01*
X177303885Y-80557727D01*
X177292000Y-80568800D01*
X177277556Y-80585193D01*
X177265811Y-80606313D01*
X177256485Y-80637730D01*
X177249300Y-80685014D01*
X177243978Y-80753734D01*
X177240240Y-80849461D01*
X177237808Y-80977763D01*
X177236403Y-81144210D01*
X177235747Y-81354373D01*
X177235561Y-81613821D01*
X177235556Y-81697689D01*
X177234927Y-81941077D01*
X177233131Y-82164268D01*
X177230306Y-82361334D01*
X177226588Y-82526346D01*
X177222115Y-82653375D01*
X177217022Y-82736493D01*
X177211448Y-82769770D01*
X177210789Y-82770134D01*
X177174009Y-82750825D01*
X177150889Y-82727800D01*
X177103574Y-82691974D01*
X177078264Y-82685467D01*
X177038173Y-82673990D01*
X176960001Y-82643040D01*
X176856420Y-82597842D01*
X176778331Y-82561821D01*
X176559702Y-82459155D01*
X176386854Y-82378830D01*
X176254749Y-82318618D01*
X176158349Y-82276292D01*
X176092619Y-82249623D01*
X176052522Y-82236383D01*
X176037051Y-82233912D01*
X175989688Y-82214116D01*
X175966176Y-82192325D01*
X175915557Y-82158483D01*
X175840409Y-82133645D01*
X175836725Y-82132928D01*
X175762451Y-82110156D01*
X175712146Y-82079299D01*
X175710611Y-82077551D01*
X175662215Y-82045258D01*
X175589661Y-82020381D01*
X175501865Y-81988880D01*
X175432583Y-81948011D01*
X175370863Y-81909823D01*
X175323537Y-81895245D01*
X175272922Y-81882930D01*
X175199272Y-81852352D01*
X175179176Y-81842387D01*
X174992381Y-81749586D01*
X174842117Y-81683220D01*
X174717614Y-81638926D01*
X174614093Y-81613448D01*
X174546583Y-81606038D01*
X174431437Y-81599339D01*
X174277463Y-81593610D01*
X174093466Y-81589109D01*
X173888255Y-81586095D01*
X173670636Y-81584825D01*
X173636497Y-81584800D01*
X173396585Y-81585064D01*
X173206686Y-81586095D01*
X173060366Y-81588255D01*
X172951197Y-81591903D01*
X172872745Y-81597401D01*
X172818581Y-81605109D01*
X172782273Y-81615387D01*
X172757390Y-81628597D01*
X172749497Y-81634537D01*
X172707929Y-81679570D01*
X172706932Y-81730069D01*
X172717642Y-81762044D01*
X172766764Y-81830951D01*
X172825327Y-81869248D01*
X172894342Y-81897570D01*
X172989488Y-81939391D01*
X173058667Y-81971047D01*
X173168425Y-82021679D01*
X173279521Y-82072099D01*
X173333833Y-82096328D01*
X173441135Y-82144015D01*
X173553417Y-82194409D01*
X173573722Y-82203592D01*
X173670541Y-82245682D01*
X173763927Y-82283567D01*
X173785389Y-82291683D01*
X173846766Y-82320673D01*
X173876572Y-82347339D01*
X173877111Y-82350224D01*
X173900135Y-82371990D01*
X173921192Y-82375023D01*
X173969108Y-82386231D01*
X174048859Y-82415336D01*
X174125803Y-82448291D01*
X174246580Y-82503458D01*
X174377194Y-82563184D01*
X174441556Y-82592642D01*
X174528690Y-82632152D01*
X174651193Y-82687180D01*
X174792800Y-82750443D01*
X174937246Y-82814655D01*
X174937250Y-82814657D01*
X175072644Y-82875165D01*
X175196311Y-82931316D01*
X175295367Y-82977202D01*
X175356930Y-83006915D01*
X175360583Y-83008798D01*
X175432226Y-83039241D01*
X175488974Y-83052179D01*
X175489378Y-83052182D01*
X175545861Y-83072546D01*
X175568939Y-83092875D01*
X175619319Y-83127377D01*
X175692339Y-83152998D01*
X175780135Y-83184499D01*
X175849417Y-83225367D01*
X175911137Y-83263556D01*
X175958464Y-83278134D01*
X176009269Y-83290221D01*
X176083166Y-83320215D01*
X176102824Y-83329739D01*
X176249354Y-83400797D01*
X176398450Y-83468681D01*
X176526822Y-83522870D01*
X176552322Y-83532806D01*
X176666963Y-83589759D01*
X176746739Y-83656823D01*
X176782143Y-83725513D01*
X176783061Y-83738793D01*
X176756021Y-83825088D01*
X176687613Y-83897458D01*
X176593683Y-83939766D01*
X176520671Y-83965804D01*
X176472050Y-83999614D01*
X176422256Y-84034537D01*
X176396332Y-84040134D01*
X176345808Y-84052843D01*
X176272448Y-84084436D01*
X176251621Y-84095172D01*
X176173603Y-84134792D01*
X176066776Y-84186254D01*
X175953952Y-84238571D01*
X175951445Y-84239708D01*
X175835264Y-84292793D01*
X175691983Y-84358910D01*
X175545543Y-84426994D01*
X175485778Y-84454957D01*
X175352855Y-84517146D01*
X175219506Y-84579273D01*
X175106213Y-84631805D01*
X175062445Y-84651974D01*
X174956920Y-84701552D01*
X174854503Y-84751469D01*
X174804602Y-84776797D01*
X174729486Y-84811008D01*
X174670543Y-84829365D01*
X174660754Y-84830356D01*
X174611019Y-84847739D01*
X174554445Y-84886800D01*
X174495516Y-84927398D01*
X174449884Y-84943245D01*
X174401171Y-84955676D01*
X174328445Y-84986638D01*
X174306036Y-84997933D01*
X174219642Y-85041227D01*
X174111659Y-85092748D01*
X174046445Y-85122757D01*
X173951466Y-85166138D01*
X173825905Y-85224122D01*
X173690232Y-85287236D01*
X173623111Y-85318644D01*
X173482929Y-85384111D01*
X173335278Y-85452608D01*
X173204107Y-85513041D01*
X173157445Y-85534372D01*
X173042842Y-85586795D01*
X172931589Y-85638060D01*
X172847601Y-85677146D01*
X172847000Y-85677429D01*
X172765484Y-85713873D01*
X172698837Y-85740504D01*
X172684722Y-85745213D01*
X172650139Y-85773609D01*
X172636224Y-85839545D01*
X172635333Y-85873692D01*
X172635333Y-85987467D01*
X173651333Y-85987467D01*
X173955416Y-85986733D01*
X174204112Y-85984511D01*
X174398461Y-85980770D01*
X174539504Y-85975481D01*
X174628280Y-85968612D01*
X174665828Y-85960134D01*
X174667333Y-85957805D01*
X174691016Y-85929486D01*
X174750114Y-85895049D01*
X174773167Y-85884921D01*
X174853349Y-85851061D01*
X174953840Y-85806430D01*
X175081967Y-85747660D01*
X175245057Y-85671384D01*
X175450436Y-85574236D01*
X175485778Y-85557449D01*
X175673219Y-85468689D01*
X175871265Y-85375446D01*
X176062550Y-85285860D01*
X176229714Y-85208074D01*
X176304222Y-85173665D01*
X176373727Y-85139401D01*
X176417111Y-85115396D01*
X176456638Y-85094497D01*
X176536948Y-85054341D01*
X176647865Y-84999941D01*
X176779213Y-84936310D01*
X176840445Y-84906877D01*
X177221445Y-84724173D01*
X177235677Y-85306431D01*
X177241108Y-85484703D01*
X177248041Y-85645787D01*
X177255913Y-85780401D01*
X177264161Y-85879260D01*
X177272222Y-85933080D01*
X177273975Y-85938078D01*
X177289273Y-85957675D01*
X177318814Y-85971348D01*
X177371552Y-85980127D01*
X177456436Y-85985045D01*
X177582418Y-85987135D01*
X177702340Y-85987467D01*
X177861309Y-85986991D01*
X177972806Y-85984764D01*
X178045799Y-85979586D01*
X178089260Y-85970258D01*
X178112157Y-85955582D01*
X178123460Y-85934358D01*
X178124556Y-85931023D01*
X178149893Y-85885412D01*
X178168791Y-85874578D01*
X178173264Y-85846743D01*
X178177389Y-85764782D01*
X178181143Y-85631013D01*
X178184502Y-85447754D01*
X178187444Y-85217322D01*
X178189944Y-84942037D01*
X178191979Y-84624214D01*
X178193527Y-84266173D01*
X178194563Y-83870232D01*
X178195065Y-83438707D01*
X178195111Y-83254831D01*
X178195111Y-80635084D01*
X178129792Y-80573720D01*
X178098221Y-80548150D01*
X178060553Y-80530841D01*
X178005827Y-80520202D01*
X177923078Y-80514644D01*
X177801346Y-80512580D01*
X177706459Y-80512356D01*
X177555733Y-80513203D01*
X177555733Y-80513203D01*
G37*
X177555733Y-80513203D02*
X177450775Y-80516711D01*
X177380923Y-80524333D01*
X177335514Y-80537521D01*
X177303885Y-80557727D01*
X177292000Y-80568800D01*
X177277556Y-80585193D01*
X177265811Y-80606313D01*
X177256485Y-80637730D01*
X177249300Y-80685014D01*
X177243978Y-80753734D01*
X177240240Y-80849461D01*
X177237808Y-80977763D01*
X177236403Y-81144210D01*
X177235747Y-81354373D01*
X177235561Y-81613821D01*
X177235556Y-81697689D01*
X177234927Y-81941077D01*
X177233131Y-82164268D01*
X177230306Y-82361334D01*
X177226588Y-82526346D01*
X177222115Y-82653375D01*
X177217022Y-82736493D01*
X177211448Y-82769770D01*
X177210789Y-82770134D01*
X177174009Y-82750825D01*
X177150889Y-82727800D01*
X177103574Y-82691974D01*
X177078264Y-82685467D01*
X177038173Y-82673990D01*
X176960001Y-82643040D01*
X176856420Y-82597842D01*
X176778331Y-82561821D01*
X176559702Y-82459155D01*
X176386854Y-82378830D01*
X176254749Y-82318618D01*
X176158349Y-82276292D01*
X176092619Y-82249623D01*
X176052522Y-82236383D01*
X176037051Y-82233912D01*
X175989688Y-82214116D01*
X175966176Y-82192325D01*
X175915557Y-82158483D01*
X175840409Y-82133645D01*
X175836725Y-82132928D01*
X175762451Y-82110156D01*
X175712146Y-82079299D01*
X175710611Y-82077551D01*
X175662215Y-82045258D01*
X175589661Y-82020381D01*
X175501865Y-81988880D01*
X175432583Y-81948011D01*
X175370863Y-81909823D01*
X175323537Y-81895245D01*
X175272922Y-81882930D01*
X175199272Y-81852352D01*
X175179176Y-81842387D01*
X174992381Y-81749586D01*
X174842117Y-81683220D01*
X174717614Y-81638926D01*
X174614093Y-81613448D01*
X174546583Y-81606038D01*
X174431437Y-81599339D01*
X174277463Y-81593610D01*
X174093466Y-81589109D01*
X173888255Y-81586095D01*
X173670636Y-81584825D01*
X173636497Y-81584800D01*
X173396585Y-81585064D01*
X173206686Y-81586095D01*
X173060366Y-81588255D01*
X172951197Y-81591903D01*
X172872745Y-81597401D01*
X172818581Y-81605109D01*
X172782273Y-81615387D01*
X172757390Y-81628597D01*
X172749497Y-81634537D01*
X172707929Y-81679570D01*
X172706932Y-81730069D01*
X172717642Y-81762044D01*
X172766764Y-81830951D01*
X172825327Y-81869248D01*
X172894342Y-81897570D01*
X172989488Y-81939391D01*
X173058667Y-81971047D01*
X173168425Y-82021679D01*
X173279521Y-82072099D01*
X173333833Y-82096328D01*
X173441135Y-82144015D01*
X173553417Y-82194409D01*
X173573722Y-82203592D01*
X173670541Y-82245682D01*
X173763927Y-82283567D01*
X173785389Y-82291683D01*
X173846766Y-82320673D01*
X173876572Y-82347339D01*
X173877111Y-82350224D01*
X173900135Y-82371990D01*
X173921192Y-82375023D01*
X173969108Y-82386231D01*
X174048859Y-82415336D01*
X174125803Y-82448291D01*
X174246580Y-82503458D01*
X174377194Y-82563184D01*
X174441556Y-82592642D01*
X174528690Y-82632152D01*
X174651193Y-82687180D01*
X174792800Y-82750443D01*
X174937246Y-82814655D01*
X174937250Y-82814657D01*
X175072644Y-82875165D01*
X175196311Y-82931316D01*
X175295367Y-82977202D01*
X175356930Y-83006915D01*
X175360583Y-83008798D01*
X175432226Y-83039241D01*
X175488974Y-83052179D01*
X175489378Y-83052182D01*
X175545861Y-83072546D01*
X175568939Y-83092875D01*
X175619319Y-83127377D01*
X175692339Y-83152998D01*
X175780135Y-83184499D01*
X175849417Y-83225367D01*
X175911137Y-83263556D01*
X175958464Y-83278134D01*
X176009269Y-83290221D01*
X176083166Y-83320215D01*
X176102824Y-83329739D01*
X176249354Y-83400797D01*
X176398450Y-83468681D01*
X176526822Y-83522870D01*
X176552322Y-83532806D01*
X176666963Y-83589759D01*
X176746739Y-83656823D01*
X176782143Y-83725513D01*
X176783061Y-83738793D01*
X176756021Y-83825088D01*
X176687613Y-83897458D01*
X176593683Y-83939766D01*
X176520671Y-83965804D01*
X176472050Y-83999614D01*
X176422256Y-84034537D01*
X176396332Y-84040134D01*
X176345808Y-84052843D01*
X176272448Y-84084436D01*
X176251621Y-84095172D01*
X176173603Y-84134792D01*
X176066776Y-84186254D01*
X175953952Y-84238571D01*
X175951445Y-84239708D01*
X175835264Y-84292793D01*
X175691983Y-84358910D01*
X175545543Y-84426994D01*
X175485778Y-84454957D01*
X175352855Y-84517146D01*
X175219506Y-84579273D01*
X175106213Y-84631805D01*
X175062445Y-84651974D01*
X174956920Y-84701552D01*
X174854503Y-84751469D01*
X174804602Y-84776797D01*
X174729486Y-84811008D01*
X174670543Y-84829365D01*
X174660754Y-84830356D01*
X174611019Y-84847739D01*
X174554445Y-84886800D01*
X174495516Y-84927398D01*
X174449884Y-84943245D01*
X174401171Y-84955676D01*
X174328445Y-84986638D01*
X174306036Y-84997933D01*
X174219642Y-85041227D01*
X174111659Y-85092748D01*
X174046445Y-85122757D01*
X173951466Y-85166138D01*
X173825905Y-85224122D01*
X173690232Y-85287236D01*
X173623111Y-85318644D01*
X173482929Y-85384111D01*
X173335278Y-85452608D01*
X173204107Y-85513041D01*
X173157445Y-85534372D01*
X173042842Y-85586795D01*
X172931589Y-85638060D01*
X172847601Y-85677146D01*
X172847000Y-85677429D01*
X172765484Y-85713873D01*
X172698837Y-85740504D01*
X172684722Y-85745213D01*
X172650139Y-85773609D01*
X172636224Y-85839545D01*
X172635333Y-85873692D01*
X172635333Y-85987467D01*
X173651333Y-85987467D01*
X173955416Y-85986733D01*
X174204112Y-85984511D01*
X174398461Y-85980770D01*
X174539504Y-85975481D01*
X174628280Y-85968612D01*
X174665828Y-85960134D01*
X174667333Y-85957805D01*
X174691016Y-85929486D01*
X174750114Y-85895049D01*
X174773167Y-85884921D01*
X174853349Y-85851061D01*
X174953840Y-85806430D01*
X175081967Y-85747660D01*
X175245057Y-85671384D01*
X175450436Y-85574236D01*
X175485778Y-85557449D01*
X175673219Y-85468689D01*
X175871265Y-85375446D01*
X176062550Y-85285860D01*
X176229714Y-85208074D01*
X176304222Y-85173665D01*
X176373727Y-85139401D01*
X176417111Y-85115396D01*
X176456638Y-85094497D01*
X176536948Y-85054341D01*
X176647865Y-84999941D01*
X176779213Y-84936310D01*
X176840445Y-84906877D01*
X177221445Y-84724173D01*
X177235677Y-85306431D01*
X177241108Y-85484703D01*
X177248041Y-85645787D01*
X177255913Y-85780401D01*
X177264161Y-85879260D01*
X177272222Y-85933080D01*
X177273975Y-85938078D01*
X177289273Y-85957675D01*
X177318814Y-85971348D01*
X177371552Y-85980127D01*
X177456436Y-85985045D01*
X177582418Y-85987135D01*
X177702340Y-85987467D01*
X177861309Y-85986991D01*
X177972806Y-85984764D01*
X178045799Y-85979586D01*
X178089260Y-85970258D01*
X178112157Y-85955582D01*
X178123460Y-85934358D01*
X178124556Y-85931023D01*
X178149893Y-85885412D01*
X178168791Y-85874578D01*
X178173264Y-85846743D01*
X178177389Y-85764782D01*
X178181143Y-85631013D01*
X178184502Y-85447754D01*
X178187444Y-85217322D01*
X178189944Y-84942037D01*
X178191979Y-84624214D01*
X178193527Y-84266173D01*
X178194563Y-83870232D01*
X178195065Y-83438707D01*
X178195111Y-83254831D01*
X178195111Y-80635084D01*
X178129792Y-80573720D01*
X178098221Y-80548150D01*
X178060553Y-80530841D01*
X178005827Y-80520202D01*
X177923078Y-80514644D01*
X177801346Y-80512580D01*
X177706459Y-80512356D01*
X177555733Y-80513203D01*
G36*
X182370947Y-81612367D02*
X182047621Y-81613068D01*
X181734133Y-81614294D01*
X181435582Y-81616050D01*
X181157066Y-81618336D01*
X180903684Y-81621155D01*
X180680534Y-81624510D01*
X180492715Y-81628401D01*
X180345325Y-81632833D01*
X180243463Y-81637806D01*
X180198889Y-81642064D01*
X180088694Y-81666072D01*
X179970669Y-81702436D01*
X179861941Y-81744728D01*
X179779637Y-81786518D01*
X179747333Y-81811557D01*
X179716927Y-81836636D01*
X179659085Y-81879080D01*
X179641878Y-81891202D01*
X179538976Y-81982881D01*
X179432690Y-82110475D01*
X179335921Y-82255852D01*
X179261573Y-82400884D01*
X179241151Y-82454293D01*
X179226649Y-82499935D01*
X179214771Y-82546405D01*
X179205258Y-82599622D01*
X179197849Y-82665505D01*
X179192285Y-82749973D01*
X179188306Y-82858947D01*
X179185653Y-82998346D01*
X179184065Y-83174089D01*
X179183283Y-83392096D01*
X179183046Y-83658286D01*
X179183046Y-83778188D01*
X179183276Y-84085906D01*
X179184349Y-84343096D01*
X179186981Y-84555676D01*
X179191886Y-84729564D01*
X179199778Y-84870675D01*
X179211373Y-84984928D01*
X179227385Y-85078238D01*
X179248529Y-85156524D01*
X179275520Y-85225702D01*
X179309071Y-85291690D01*
X179349899Y-85360404D01*
X179379915Y-85408131D01*
X179452073Y-85505367D01*
X179545037Y-85607407D01*
X179647932Y-85704773D01*
X179749880Y-85787987D01*
X179840005Y-85847571D01*
X179907431Y-85874047D01*
X179915203Y-85874578D01*
X179955815Y-85887436D01*
X180022470Y-85919451D01*
X180043667Y-85931023D01*
X180063842Y-85941602D01*
X180086692Y-85950765D01*
X180116172Y-85958608D01*
X180156234Y-85965229D01*
X180210831Y-85970725D01*
X180283916Y-85975194D01*
X180379443Y-85978733D01*
X180501364Y-85981439D01*
X180653632Y-85983409D01*
X180840201Y-85984741D01*
X181065024Y-85985532D01*
X181332053Y-85985880D01*
X181645243Y-85985881D01*
X182008545Y-85985633D01*
X182252914Y-85985404D01*
X182648966Y-85984962D01*
X182992491Y-85984399D01*
X183287404Y-85983618D01*
X183537624Y-85982522D01*
X183747065Y-85981013D01*
X183919645Y-85978996D01*
X184059281Y-85976372D01*
X184169889Y-85973045D01*
X184255386Y-85968917D01*
X184319688Y-85963892D01*
X184366713Y-85957872D01*
X184400377Y-85950760D01*
X184424596Y-85942459D01*
X184443287Y-85932872D01*
X184446333Y-85931023D01*
X184513393Y-85894959D01*
X184563695Y-85876980D01*
X184566883Y-85876641D01*
X184636803Y-85853007D01*
X184730407Y-85794569D01*
X184836205Y-85710671D01*
X184942710Y-85610653D01*
X185038431Y-85503857D01*
X185061241Y-85474670D01*
X185150742Y-85345324D01*
X185216983Y-85220242D01*
X185262648Y-85088090D01*
X185290420Y-84937536D01*
X185302981Y-84757245D01*
X185303010Y-84570628D01*
X184346617Y-84570628D01*
X184340060Y-84722989D01*
X184319360Y-84829582D01*
X184280924Y-84900089D01*
X184221159Y-84944192D01*
X184205465Y-84951044D01*
X184170943Y-84953746D01*
X184084650Y-84956165D01*
X183951260Y-84958274D01*
X183775446Y-84960048D01*
X183561881Y-84961458D01*
X183315240Y-84962479D01*
X183040195Y-84963082D01*
X182741420Y-84963243D01*
X182423587Y-84962933D01*
X182212895Y-84962477D01*
X180261679Y-84957356D01*
X180202508Y-84886800D01*
X180177747Y-84852612D01*
X180161367Y-84812712D01*
X180151972Y-84755871D01*
X180148169Y-84670857D01*
X180148564Y-84546442D01*
X180149946Y-84463467D01*
X180156556Y-84110689D01*
X182132111Y-84103243D01*
X182516072Y-84101879D01*
X182847634Y-84100943D01*
X183130839Y-84100513D01*
X183369732Y-84100669D01*
X183568357Y-84101491D01*
X183730757Y-84103058D01*
X183860976Y-84105450D01*
X183963057Y-84108745D01*
X184041045Y-84113023D01*
X184098983Y-84118364D01*
X184140915Y-84124847D01*
X184170884Y-84132551D01*
X184192934Y-84141556D01*
X184197261Y-84143793D01*
X184263476Y-84189133D01*
X184307526Y-84248447D01*
X184333358Y-84333011D01*
X184344918Y-84454102D01*
X184346617Y-84570628D01*
X185303010Y-84570628D01*
X185303016Y-84535886D01*
X185301049Y-84461830D01*
X185294312Y-84288333D01*
X185285320Y-84158644D01*
X185272364Y-84060130D01*
X185253732Y-83980157D01*
X185227714Y-83906091D01*
X185224858Y-83899052D01*
X185129161Y-83716201D01*
X184991620Y-83537407D01*
X184806333Y-83355286D01*
X184754670Y-83310739D01*
X184713334Y-83284641D01*
X184640099Y-83245359D01*
X184585337Y-83218143D01*
X184446333Y-83151134D01*
X182301445Y-83137023D01*
X180156556Y-83122912D01*
X180148304Y-82952305D01*
X180146788Y-82850221D01*
X180158030Y-82782747D01*
X180187358Y-82728541D01*
X180211703Y-82698305D01*
X180283355Y-82614912D01*
X185177459Y-82599874D01*
X185242285Y-82538973D01*
X185269439Y-82509910D01*
X185287737Y-82475816D01*
X185298915Y-82425699D01*
X185304708Y-82348568D01*
X185306852Y-82233430D01*
X185307111Y-82128359D01*
X185304955Y-81989252D01*
X185299081Y-81867445D01*
X185290379Y-81775886D01*
X185279742Y-81727521D01*
X185279485Y-81727025D01*
X185234442Y-81681939D01*
X185164133Y-81644831D01*
X185162384Y-81644213D01*
X185118683Y-81638770D01*
X185023637Y-81633826D01*
X184882347Y-81629384D01*
X184699909Y-81625447D01*
X184481424Y-81622016D01*
X184231988Y-81619094D01*
X183956702Y-81616683D01*
X183660662Y-81614785D01*
X183348968Y-81613402D01*
X183026719Y-81612536D01*
X182699012Y-81612191D01*
X182370947Y-81612367D01*
X182370947Y-81612367D01*
G37*
X182370947Y-81612367D02*
X182047621Y-81613068D01*
X181734133Y-81614294D01*
X181435582Y-81616050D01*
X181157066Y-81618336D01*
X180903684Y-81621155D01*
X180680534Y-81624510D01*
X180492715Y-81628401D01*
X180345325Y-81632833D01*
X180243463Y-81637806D01*
X180198889Y-81642064D01*
X180088694Y-81666072D01*
X179970669Y-81702436D01*
X179861941Y-81744728D01*
X179779637Y-81786518D01*
X179747333Y-81811557D01*
X179716927Y-81836636D01*
X179659085Y-81879080D01*
X179641878Y-81891202D01*
X179538976Y-81982881D01*
X179432690Y-82110475D01*
X179335921Y-82255852D01*
X179261573Y-82400884D01*
X179241151Y-82454293D01*
X179226649Y-82499935D01*
X179214771Y-82546405D01*
X179205258Y-82599622D01*
X179197849Y-82665505D01*
X179192285Y-82749973D01*
X179188306Y-82858947D01*
X179185653Y-82998346D01*
X179184065Y-83174089D01*
X179183283Y-83392096D01*
X179183046Y-83658286D01*
X179183046Y-83778188D01*
X179183276Y-84085906D01*
X179184349Y-84343096D01*
X179186981Y-84555676D01*
X179191886Y-84729564D01*
X179199778Y-84870675D01*
X179211373Y-84984928D01*
X179227385Y-85078238D01*
X179248529Y-85156524D01*
X179275520Y-85225702D01*
X179309071Y-85291690D01*
X179349899Y-85360404D01*
X179379915Y-85408131D01*
X179452073Y-85505367D01*
X179545037Y-85607407D01*
X179647932Y-85704773D01*
X179749880Y-85787987D01*
X179840005Y-85847571D01*
X179907431Y-85874047D01*
X179915203Y-85874578D01*
X179955815Y-85887436D01*
X180022470Y-85919451D01*
X180043667Y-85931023D01*
X180063842Y-85941602D01*
X180086692Y-85950765D01*
X180116172Y-85958608D01*
X180156234Y-85965229D01*
X180210831Y-85970725D01*
X180283916Y-85975194D01*
X180379443Y-85978733D01*
X180501364Y-85981439D01*
X180653632Y-85983409D01*
X180840201Y-85984741D01*
X181065024Y-85985532D01*
X181332053Y-85985880D01*
X181645243Y-85985881D01*
X182008545Y-85985633D01*
X182252914Y-85985404D01*
X182648966Y-85984962D01*
X182992491Y-85984399D01*
X183287404Y-85983618D01*
X183537624Y-85982522D01*
X183747065Y-85981013D01*
X183919645Y-85978996D01*
X184059281Y-85976372D01*
X184169889Y-85973045D01*
X184255386Y-85968917D01*
X184319688Y-85963892D01*
X184366713Y-85957872D01*
X184400377Y-85950760D01*
X184424596Y-85942459D01*
X184443287Y-85932872D01*
X184446333Y-85931023D01*
X184513393Y-85894959D01*
X184563695Y-85876980D01*
X184566883Y-85876641D01*
X184636803Y-85853007D01*
X184730407Y-85794569D01*
X184836205Y-85710671D01*
X184942710Y-85610653D01*
X185038431Y-85503857D01*
X185061241Y-85474670D01*
X185150742Y-85345324D01*
X185216983Y-85220242D01*
X185262648Y-85088090D01*
X185290420Y-84937536D01*
X185302981Y-84757245D01*
X185303010Y-84570628D01*
X184346617Y-84570628D01*
X184340060Y-84722989D01*
X184319360Y-84829582D01*
X184280924Y-84900089D01*
X184221159Y-84944192D01*
X184205465Y-84951044D01*
X184170943Y-84953746D01*
X184084650Y-84956165D01*
X183951260Y-84958274D01*
X183775446Y-84960048D01*
X183561881Y-84961458D01*
X183315240Y-84962479D01*
X183040195Y-84963082D01*
X182741420Y-84963243D01*
X182423587Y-84962933D01*
X182212895Y-84962477D01*
X180261679Y-84957356D01*
X180202508Y-84886800D01*
X180177747Y-84852612D01*
X180161367Y-84812712D01*
X180151972Y-84755871D01*
X180148169Y-84670857D01*
X180148564Y-84546442D01*
X180149946Y-84463467D01*
X180156556Y-84110689D01*
X182132111Y-84103243D01*
X182516072Y-84101879D01*
X182847634Y-84100943D01*
X183130839Y-84100513D01*
X183369732Y-84100669D01*
X183568357Y-84101491D01*
X183730757Y-84103058D01*
X183860976Y-84105450D01*
X183963057Y-84108745D01*
X184041045Y-84113023D01*
X184098983Y-84118364D01*
X184140915Y-84124847D01*
X184170884Y-84132551D01*
X184192934Y-84141556D01*
X184197261Y-84143793D01*
X184263476Y-84189133D01*
X184307526Y-84248447D01*
X184333358Y-84333011D01*
X184344918Y-84454102D01*
X184346617Y-84570628D01*
X185303010Y-84570628D01*
X185303016Y-84535886D01*
X185301049Y-84461830D01*
X185294312Y-84288333D01*
X185285320Y-84158644D01*
X185272364Y-84060130D01*
X185253732Y-83980157D01*
X185227714Y-83906091D01*
X185224858Y-83899052D01*
X185129161Y-83716201D01*
X184991620Y-83537407D01*
X184806333Y-83355286D01*
X184754670Y-83310739D01*
X184713334Y-83284641D01*
X184640099Y-83245359D01*
X184585337Y-83218143D01*
X184446333Y-83151134D01*
X182301445Y-83137023D01*
X180156556Y-83122912D01*
X180148304Y-82952305D01*
X180146788Y-82850221D01*
X180158030Y-82782747D01*
X180187358Y-82728541D01*
X180211703Y-82698305D01*
X180283355Y-82614912D01*
X185177459Y-82599874D01*
X185242285Y-82538973D01*
X185269439Y-82509910D01*
X185287737Y-82475816D01*
X185298915Y-82425699D01*
X185304708Y-82348568D01*
X185306852Y-82233430D01*
X185307111Y-82128359D01*
X185304955Y-81989252D01*
X185299081Y-81867445D01*
X185290379Y-81775886D01*
X185279742Y-81727521D01*
X185279485Y-81727025D01*
X185234442Y-81681939D01*
X185164133Y-81644831D01*
X185162384Y-81644213D01*
X185118683Y-81638770D01*
X185023637Y-81633826D01*
X184882347Y-81629384D01*
X184699909Y-81625447D01*
X184481424Y-81622016D01*
X184231988Y-81619094D01*
X183956702Y-81616683D01*
X183660662Y-81614785D01*
X183348968Y-81613402D01*
X183026719Y-81612536D01*
X182699012Y-81612191D01*
X182370947Y-81612367D01*
G36*
X191031091Y-80513550D02*
X190928535Y-80518158D01*
X190859518Y-80527722D01*
X190812602Y-80543783D01*
X190778293Y-80566294D01*
X190711667Y-80620231D01*
X190697556Y-82704824D01*
X190683445Y-84789416D01*
X190605578Y-84873386D01*
X190527712Y-84957356D01*
X188302733Y-84971467D01*
X187891955Y-84974069D01*
X187533863Y-84976448D01*
X187224699Y-84978808D01*
X186960706Y-84981351D01*
X186738127Y-84984280D01*
X186553204Y-84987799D01*
X186402181Y-84992109D01*
X186281299Y-84997413D01*
X186186802Y-85003915D01*
X186114932Y-85011817D01*
X186061932Y-85021322D01*
X186024046Y-85032632D01*
X185997514Y-85045951D01*
X185978581Y-85061481D01*
X185963489Y-85079425D01*
X185949599Y-85098467D01*
X185941680Y-85136107D01*
X185935085Y-85218396D01*
X185930462Y-85333545D01*
X185928462Y-85469764D01*
X185928432Y-85482717D01*
X185929158Y-85633793D01*
X185932779Y-85739721D01*
X185940817Y-85811783D01*
X185954795Y-85861257D01*
X185976234Y-85899424D01*
X185986493Y-85913105D01*
X186044986Y-85987467D01*
X188357160Y-85987467D01*
X188712955Y-85987185D01*
X189052032Y-85986367D01*
X189370218Y-85985056D01*
X189663337Y-85983294D01*
X189927216Y-85981125D01*
X190157679Y-85978591D01*
X190350553Y-85975736D01*
X190501663Y-85972601D01*
X190606834Y-85969230D01*
X190661893Y-85965666D01*
X190669333Y-85963762D01*
X190693657Y-85941752D01*
X190755057Y-85913762D01*
X190789278Y-85901881D01*
X190919540Y-85846978D01*
X191064102Y-85765338D01*
X191198932Y-85671654D01*
X191279314Y-85602227D01*
X191348474Y-85527734D01*
X191415714Y-85440067D01*
X191490809Y-85325619D01*
X191558333Y-85213734D01*
X191643000Y-85070245D01*
X191658420Y-80567901D01*
X191585373Y-80540128D01*
X191528635Y-80529083D01*
X191429893Y-80520120D01*
X191303576Y-80514225D01*
X191178623Y-80512356D01*
X191031091Y-80513550D01*
X191031091Y-80513550D01*
G37*
X191031091Y-80513550D02*
X190928535Y-80518158D01*
X190859518Y-80527722D01*
X190812602Y-80543783D01*
X190778293Y-80566294D01*
X190711667Y-80620231D01*
X190697556Y-82704824D01*
X190683445Y-84789416D01*
X190605578Y-84873386D01*
X190527712Y-84957356D01*
X188302733Y-84971467D01*
X187891955Y-84974069D01*
X187533863Y-84976448D01*
X187224699Y-84978808D01*
X186960706Y-84981351D01*
X186738127Y-84984280D01*
X186553204Y-84987799D01*
X186402181Y-84992109D01*
X186281299Y-84997413D01*
X186186802Y-85003915D01*
X186114932Y-85011817D01*
X186061932Y-85021322D01*
X186024046Y-85032632D01*
X185997514Y-85045951D01*
X185978581Y-85061481D01*
X185963489Y-85079425D01*
X185949599Y-85098467D01*
X185941680Y-85136107D01*
X185935085Y-85218396D01*
X185930462Y-85333545D01*
X185928462Y-85469764D01*
X185928432Y-85482717D01*
X185929158Y-85633793D01*
X185932779Y-85739721D01*
X185940817Y-85811783D01*
X185954795Y-85861257D01*
X185976234Y-85899424D01*
X185986493Y-85913105D01*
X186044986Y-85987467D01*
X188357160Y-85987467D01*
X188712955Y-85987185D01*
X189052032Y-85986367D01*
X189370218Y-85985056D01*
X189663337Y-85983294D01*
X189927216Y-85981125D01*
X190157679Y-85978591D01*
X190350553Y-85975736D01*
X190501663Y-85972601D01*
X190606834Y-85969230D01*
X190661893Y-85965666D01*
X190669333Y-85963762D01*
X190693657Y-85941752D01*
X190755057Y-85913762D01*
X190789278Y-85901881D01*
X190919540Y-85846978D01*
X191064102Y-85765338D01*
X191198932Y-85671654D01*
X191279314Y-85602227D01*
X191348474Y-85527734D01*
X191415714Y-85440067D01*
X191490809Y-85325619D01*
X191558333Y-85213734D01*
X191643000Y-85070245D01*
X191658420Y-80567901D01*
X191585373Y-80540128D01*
X191528635Y-80529083D01*
X191429893Y-80520120D01*
X191303576Y-80514225D01*
X191178623Y-80512356D01*
X191031091Y-80513550D01*
G04 #@! TD*
M02*
