G04 #@! TF.GenerationSoftware,KiCad,Pcbnew,5.0.0-rc3-6a2723a~65~ubuntu17.10.1*
G04 #@! TF.CreationDate,2018-07-07T11:57:14+09:00*
G04 #@! TF.ProjectId,M5StackSideBB,4D35537461636B5369646542422E6B69,rev?*
G04 #@! TF.SameCoordinates,Original*
G04 #@! TF.FileFunction,Copper,L1,Top,Signal*
G04 #@! TF.FilePolarity,Positive*
%FSLAX46Y46*%
G04 Gerber Fmt 4.6, Leading zero omitted, Abs format (unit mm)*
G04 Created by KiCad (PCBNEW 5.0.0-rc3-6a2723a~65~ubuntu17.10.1) date Sat Jul  7 11:57:14 2018*
%MOMM*%
%LPD*%
G01*
G04 APERTURE LIST*
G04 #@! TA.AperFunction,BGAPad,CuDef*
%ADD10C,1.524000*%
G04 #@! TD*
G04 #@! TA.AperFunction,SMDPad,CuDef*
%ADD11R,3.150000X1.000000*%
G04 #@! TD*
G04 #@! TA.AperFunction,ComponentPad*
%ADD12R,1.700000X1.700000*%
G04 #@! TD*
G04 #@! TA.AperFunction,ComponentPad*
%ADD13O,1.700000X1.700000*%
G04 #@! TD*
G04 #@! TA.AperFunction,ViaPad*
%ADD14C,0.800000*%
G04 #@! TD*
G04 #@! TA.AperFunction,Conductor*
%ADD15C,0.250000*%
G04 #@! TD*
G04 #@! TA.AperFunction,Conductor*
%ADD16C,0.254000*%
G04 #@! TD*
G04 APERTURE END LIST*
D10*
G04 #@! TO.P,J4,30*
G04 #@! TO.N,HPWR*
X149054000Y-92608400D03*
G04 #@! TO.P,J4,28*
X149054000Y-90078400D03*
G04 #@! TO.P,J4,26*
X149054000Y-87518400D03*
G04 #@! TO.P,J4,24*
G04 #@! TO.N,G15*
X149054000Y-84988400D03*
G04 #@! TO.P,J4,22*
G04 #@! TO.N,G12*
X149054000Y-82438400D03*
G04 #@! TO.P,J4,20*
G04 #@! TO.N,G2*
X149054000Y-79898400D03*
G04 #@! TO.P,J4,18*
G04 #@! TO.N,G21*
X149054000Y-77358400D03*
G04 #@! TO.P,J4,16*
G04 #@! TO.N,G16*
X149054000Y-74838400D03*
G04 #@! TO.P,J4,14*
G04 #@! TO.N,G3*
X149054000Y-72278400D03*
G04 #@! TO.P,J4,12*
G04 #@! TO.N,G18*
X149054000Y-69748400D03*
G04 #@! TO.P,J4,10*
G04 #@! TO.N,G19*
X149054000Y-67198400D03*
G04 #@! TO.P,J4,8*
G04 #@! TO.N,G23*
X149054000Y-64658400D03*
G04 #@! TO.P,J4,6*
G04 #@! TO.N,GND*
X149054000Y-62138400D03*
G04 #@! TO.P,J4,4*
X149054000Y-59608400D03*
G04 #@! TO.P,J4,2*
X149054000Y-57048400D03*
G04 #@! TO.P,J4,29*
G04 #@! TO.N,+BATT*
X139694000Y-92628400D03*
G04 #@! TO.P,J4,27*
G04 #@! TO.N,+5V*
X139694000Y-90048400D03*
G04 #@! TO.P,J4,25*
G04 #@! TO.N,G34*
X139694000Y-87528400D03*
G04 #@! TO.P,J4,23*
G04 #@! TO.N,G0*
X139694000Y-84998400D03*
G04 #@! TO.P,J4,21*
G04 #@! TO.N,G13*
X139694000Y-82428400D03*
G04 #@! TO.P,J4,19*
G04 #@! TO.N,G5*
X139694000Y-79888400D03*
G04 #@! TO.P,J4,17*
G04 #@! TO.N,G22*
X139694000Y-77358400D03*
G04 #@! TO.P,J4,15*
G04 #@! TO.N,G17*
X139694000Y-74838400D03*
G04 #@! TO.P,J4,13*
G04 #@! TO.N,G1*
X139694000Y-72268400D03*
G04 #@! TO.P,J4,11*
G04 #@! TO.N,+3V3*
X139694000Y-69758400D03*
G04 #@! TO.P,J4,9*
G04 #@! TO.N,G26*
X139694000Y-67178400D03*
G04 #@! TO.P,J4,7*
G04 #@! TO.N,G25*
X139694000Y-64648400D03*
G04 #@! TO.P,J4,5*
G04 #@! TO.N,RST*
X139694000Y-62138400D03*
G04 #@! TO.P,J4,3*
G04 #@! TO.N,G36*
X139694000Y-59578400D03*
G04 #@! TO.P,J4,1*
G04 #@! TO.N,G35*
X139694000Y-57048400D03*
D11*
G04 #@! TO.P,J4,30*
G04 #@! TO.N,HPWR*
X146899000Y-92608400D03*
G04 #@! TO.P,J4,29*
G04 #@! TO.N,+BATT*
X141849000Y-92608400D03*
G04 #@! TO.P,J4,28*
G04 #@! TO.N,HPWR*
X146899000Y-90068400D03*
G04 #@! TO.P,J4,27*
G04 #@! TO.N,+5V*
X141849000Y-90068400D03*
G04 #@! TO.P,J4,26*
G04 #@! TO.N,HPWR*
X146899000Y-87528400D03*
G04 #@! TO.P,J4,25*
G04 #@! TO.N,G34*
X141849000Y-87528400D03*
G04 #@! TO.P,J4,24*
G04 #@! TO.N,G15*
X146899000Y-84988400D03*
G04 #@! TO.P,J4,23*
G04 #@! TO.N,G0*
X141849000Y-84988400D03*
G04 #@! TO.P,J4,22*
G04 #@! TO.N,G12*
X146899000Y-82448400D03*
G04 #@! TO.P,J4,21*
G04 #@! TO.N,G13*
X141849000Y-82448400D03*
G04 #@! TO.P,J4,20*
G04 #@! TO.N,G2*
X146899000Y-79908400D03*
G04 #@! TO.P,J4,19*
G04 #@! TO.N,G5*
X141849000Y-79908400D03*
G04 #@! TO.P,J4,18*
G04 #@! TO.N,G21*
X146899000Y-77368400D03*
G04 #@! TO.P,J4,17*
G04 #@! TO.N,G22*
X141849000Y-77368400D03*
G04 #@! TO.P,J4,16*
G04 #@! TO.N,G16*
X146899000Y-74828400D03*
G04 #@! TO.P,J4,15*
G04 #@! TO.N,G17*
X141849000Y-74828400D03*
G04 #@! TO.P,J4,14*
G04 #@! TO.N,G3*
X146899000Y-72288400D03*
G04 #@! TO.P,J4,13*
G04 #@! TO.N,G1*
X141849000Y-72288400D03*
G04 #@! TO.P,J4,12*
G04 #@! TO.N,G18*
X146899000Y-69748400D03*
G04 #@! TO.P,J4,11*
G04 #@! TO.N,+3V3*
X141849000Y-69748400D03*
G04 #@! TO.P,J4,10*
G04 #@! TO.N,G19*
X146899000Y-67208400D03*
G04 #@! TO.P,J4,9*
G04 #@! TO.N,G26*
X141849000Y-67208400D03*
G04 #@! TO.P,J4,8*
G04 #@! TO.N,G23*
X146899000Y-64668400D03*
G04 #@! TO.P,J4,7*
G04 #@! TO.N,G25*
X141849000Y-64668400D03*
G04 #@! TO.P,J4,6*
G04 #@! TO.N,GND*
X146899000Y-62128400D03*
G04 #@! TO.P,J4,5*
G04 #@! TO.N,RST*
X141849000Y-62128400D03*
G04 #@! TO.P,J4,4*
G04 #@! TO.N,GND*
X146899000Y-59588400D03*
G04 #@! TO.P,J4,3*
G04 #@! TO.N,G36*
X141849000Y-59588400D03*
G04 #@! TO.P,J4,2*
G04 #@! TO.N,GND*
X146899000Y-57048400D03*
G04 #@! TO.P,J4,1*
G04 #@! TO.N,G35*
X141849000Y-57048400D03*
G04 #@! TD*
D12*
G04 #@! TO.P,J1,1*
G04 #@! TO.N,GND*
X157120000Y-54800000D03*
D13*
G04 #@! TO.P,J1,2*
G04 #@! TO.N,+3V3*
X157120000Y-57340000D03*
G04 #@! TO.P,J1,3*
G04 #@! TO.N,G3*
X157120000Y-59880000D03*
G04 #@! TO.P,J1,4*
G04 #@! TO.N,G1*
X157120000Y-62420000D03*
G04 #@! TO.P,J1,5*
G04 #@! TO.N,G16*
X157120000Y-64960000D03*
G04 #@! TO.P,J1,6*
G04 #@! TO.N,G17*
X157120000Y-67500000D03*
G04 #@! TO.P,J1,7*
G04 #@! TO.N,G2*
X157120000Y-70040000D03*
G04 #@! TO.P,J1,8*
G04 #@! TO.N,G5*
X157120000Y-72580000D03*
G04 #@! TO.P,J1,9*
G04 #@! TO.N,G25*
X157120000Y-75120000D03*
G04 #@! TO.P,J1,10*
G04 #@! TO.N,G26*
X157120000Y-77660000D03*
G04 #@! TO.P,J1,11*
G04 #@! TO.N,G35*
X157120000Y-80200000D03*
G04 #@! TO.P,J1,12*
G04 #@! TO.N,G36*
X157120000Y-82740000D03*
G04 #@! TO.P,J1,13*
G04 #@! TO.N,RST*
X157120000Y-85280000D03*
G04 #@! TO.P,J1,14*
G04 #@! TO.N,+BATT*
X157120000Y-87820000D03*
G04 #@! TO.P,J1,15*
G04 #@! TO.N,+3V3*
X157120000Y-90360000D03*
G04 #@! TO.P,J1,16*
G04 #@! TO.N,+5V*
X157120000Y-92900000D03*
G04 #@! TO.P,J1,17*
G04 #@! TO.N,GND*
X157120000Y-95440000D03*
G04 #@! TD*
D12*
G04 #@! TO.P,J2,1*
G04 #@! TO.N,GND*
X195720000Y-64960000D03*
D13*
G04 #@! TO.P,J2,2*
G04 #@! TO.N,G18*
X195720000Y-67500000D03*
G04 #@! TO.P,J2,3*
G04 #@! TO.N,G19*
X195720000Y-70040000D03*
G04 #@! TO.P,J2,4*
G04 #@! TO.N,G23*
X195720000Y-72580000D03*
G04 #@! TO.P,J2,5*
G04 #@! TO.N,G22*
X195720000Y-75120000D03*
G04 #@! TO.P,J2,6*
G04 #@! TO.N,G21*
X195720000Y-77660000D03*
G04 #@! TO.P,J2,7*
G04 #@! TO.N,GND*
X195720000Y-80200000D03*
G04 #@! TO.P,J2,8*
G04 #@! TO.N,+3V3*
X195720000Y-82740000D03*
G04 #@! TO.P,J2,9*
G04 #@! TO.N,+5V*
X195720000Y-85280000D03*
G04 #@! TD*
D14*
G04 #@! TO.N,G23*
X144219900Y-65494800D03*
G04 #@! TO.N,G18*
X144453300Y-68828700D03*
G04 #@! TO.N,G3*
X145670300Y-71018400D03*
G04 #@! TO.N,G16*
X147048500Y-73698600D03*
G04 #@! TO.N,G21*
X144571700Y-77465900D03*
G04 #@! TO.N,G2*
X144526700Y-80403100D03*
G04 #@! TO.N,G12*
X144183900Y-81718300D03*
G04 #@! TO.N,G15*
X144372400Y-85978300D03*
G04 #@! TO.N,HPWR*
X144183900Y-92242600D03*
G04 #@! TO.N,G34*
X144536700Y-87243300D03*
G04 #@! TO.N,G0*
X144374000Y-84571000D03*
G04 #@! TO.N,G13*
X144325000Y-82732200D03*
G04 #@! TO.N,G5*
X144510000Y-78636000D03*
G04 #@! TO.N,G22*
X147301600Y-76098400D03*
G04 #@! TO.N,G17*
X144720700Y-74986900D03*
G04 #@! TO.N,G1*
X144564200Y-72012500D03*
G04 #@! TO.N,G26*
X147780900Y-68362300D03*
G04 #@! TO.N,G25*
X147370600Y-65899400D03*
X155468000Y-68388000D03*
G04 #@! TO.N,RST*
X140956900Y-63398400D03*
G04 #@! TO.N,G36*
X144374000Y-59553200D03*
G04 #@! TO.N,G35*
X159811000Y-76730000D03*
X144374000Y-57085400D03*
G04 #@! TO.N,+3V3*
X144536700Y-69845900D03*
G04 #@! TD*
D15*
G04 #@! TO.N,G23*
X146899000Y-64668400D02*
X144998700Y-64668400D01*
X144998700Y-64668400D02*
X144998700Y-64716000D01*
X144998700Y-64716000D02*
X144219900Y-65494800D01*
X146899000Y-64668400D02*
X148799000Y-64668400D01*
X149044000Y-64658400D02*
X150615600Y-66230000D01*
X150615600Y-66230000D02*
X192549800Y-66230000D01*
X192549800Y-66230000D02*
X195089800Y-68770000D01*
X195089800Y-68770000D02*
X196140800Y-68770000D01*
X196140800Y-68770000D02*
X196895300Y-69524500D01*
X196895300Y-69524500D02*
X196895300Y-70596800D01*
X196895300Y-70596800D02*
X196087400Y-71404700D01*
X196087400Y-71404700D02*
X195720000Y-71404700D01*
X148799000Y-64668400D02*
X149034000Y-64668400D01*
X149034000Y-64668400D02*
X149044000Y-64658400D01*
X195720000Y-72580000D02*
X195720000Y-71404700D01*
G04 #@! TO.N,G19*
X146899000Y-67208400D02*
X148799300Y-67208400D01*
X148799300Y-67208400D02*
X148809300Y-67198400D01*
X148809300Y-67198400D02*
X149044000Y-67198400D01*
X149044000Y-67198400D02*
X150958900Y-69113300D01*
X150958900Y-69113300D02*
X155768500Y-69113300D01*
X155768500Y-69113300D02*
X156017100Y-68864700D01*
X156017100Y-68864700D02*
X193369400Y-68864700D01*
X193369400Y-68864700D02*
X194544700Y-70040000D01*
X195720000Y-70040000D02*
X194544700Y-70040000D01*
G04 #@! TO.N,G18*
X147849000Y-69748400D02*
X146929300Y-68828700D01*
X146929300Y-68828700D02*
X144453300Y-68828700D01*
X147849000Y-69748400D02*
X148799000Y-69748400D01*
X146899000Y-69748400D02*
X147849000Y-69748400D01*
X149044000Y-69748400D02*
X150605600Y-71310000D01*
X150605600Y-71310000D02*
X191534400Y-71310000D01*
X191534400Y-71310000D02*
X194001200Y-73776800D01*
X194001200Y-73776800D02*
X196247400Y-73776800D01*
X196247400Y-73776800D02*
X197396000Y-72628200D01*
X197396000Y-72628200D02*
X197396000Y-69176000D01*
X197396000Y-69176000D02*
X195720000Y-67500000D01*
X148799000Y-69748400D02*
X149044000Y-69748400D01*
G04 #@! TO.N,G3*
X146899000Y-72288400D02*
X148799300Y-72288400D01*
X149044000Y-72278400D02*
X148809300Y-72278400D01*
X148809300Y-72278400D02*
X148799300Y-72288400D01*
X145670300Y-71018400D02*
X146899000Y-72247100D01*
X146899000Y-72247100D02*
X146899000Y-72288400D01*
G04 #@! TO.N,G16*
X147048500Y-74828400D02*
X148799300Y-74828400D01*
X146899000Y-74828400D02*
X147048500Y-74828400D01*
X147048500Y-73698600D02*
X147048500Y-74828400D01*
X148799300Y-74828400D02*
X149034000Y-74828400D01*
X149034000Y-74828400D02*
X149044000Y-74838400D01*
G04 #@! TO.N,G21*
X146899000Y-77368400D02*
X144669200Y-77368400D01*
X144669200Y-77368400D02*
X144571700Y-77465900D01*
X146899000Y-77368400D02*
X148799000Y-77368400D01*
X194544700Y-77660000D02*
X192889400Y-76004700D01*
X192889400Y-76004700D02*
X159510600Y-76004700D01*
X159510600Y-76004700D02*
X159036900Y-76478400D01*
X159036900Y-76478400D02*
X149924000Y-76478400D01*
X149924000Y-76478400D02*
X149044000Y-77358400D01*
X195720000Y-77660000D02*
X194544700Y-77660000D01*
X148799000Y-77368400D02*
X149034000Y-77368400D01*
X149034000Y-77368400D02*
X149044000Y-77358400D01*
G04 #@! TO.N,G2*
X146899000Y-79908400D02*
X144998700Y-79908400D01*
X144998700Y-79908400D02*
X144998700Y-79931100D01*
X144998700Y-79931100D02*
X144526700Y-80403100D01*
X146899000Y-79908400D02*
X148799000Y-79908400D01*
X148799000Y-79908400D02*
X149034000Y-79908400D01*
X149034000Y-79908400D02*
X149044000Y-79898400D01*
G04 #@! TO.N,G12*
X144183900Y-81718300D02*
X146168900Y-81718300D01*
X146168900Y-81718300D02*
X146899000Y-82448400D01*
X146899000Y-82448400D02*
X148799300Y-82448400D01*
X149044000Y-82438400D02*
X148809300Y-82438400D01*
X148809300Y-82438400D02*
X148799300Y-82448400D01*
G04 #@! TO.N,G15*
X149044000Y-84988400D02*
X146899000Y-84988400D01*
X146899000Y-84988400D02*
X144998700Y-84988400D01*
X144372400Y-85978300D02*
X144998700Y-85352000D01*
X144998700Y-85352000D02*
X144998700Y-84988400D01*
G04 #@! TO.N,HPWR*
X146899000Y-92608400D02*
X144998700Y-92608400D01*
X144183900Y-92242600D02*
X144632900Y-92242600D01*
X144632900Y-92242600D02*
X144998700Y-92608400D01*
X149044000Y-87518400D02*
X148809300Y-87518400D01*
X148809300Y-87518400D02*
X148799300Y-87528400D01*
X146899000Y-87528400D02*
X148799300Y-87528400D01*
X147435300Y-90068400D02*
X148799300Y-88704400D01*
X148799300Y-88704400D02*
X148799300Y-87528400D01*
X147435300Y-90068400D02*
X147971500Y-90068400D01*
X146899000Y-90068400D02*
X147435300Y-90068400D01*
X147971500Y-90068400D02*
X148799300Y-90068400D01*
X147971500Y-92608400D02*
X147971500Y-90068400D01*
X147971500Y-92608400D02*
X146899000Y-92608400D01*
X149044000Y-92608400D02*
X147971500Y-92608400D01*
X149044000Y-90078400D02*
X148809300Y-90078400D01*
X148809300Y-90078400D02*
X148799300Y-90068400D01*
G04 #@! TO.N,+BATT*
X157120000Y-87820000D02*
X155944700Y-87820000D01*
X155944700Y-87820000D02*
X150064000Y-93700700D01*
X150064000Y-93700700D02*
X142941300Y-93700700D01*
X142941300Y-93700700D02*
X141849000Y-92608400D01*
X140898900Y-92608400D02*
X141849000Y-92608400D01*
X140898900Y-92608400D02*
X139948700Y-92608400D01*
X139694000Y-92628400D02*
X139928700Y-92628400D01*
X139928700Y-92628400D02*
X139948700Y-92608400D01*
G04 #@! TO.N,+5V*
X139714000Y-90068400D02*
X139694000Y-90048400D01*
X139949000Y-90068400D02*
X139714000Y-90068400D01*
X139714000Y-90068400D02*
X138589600Y-91192800D01*
X138589600Y-91192800D02*
X138589600Y-93131300D01*
X138589600Y-93131300D02*
X139652100Y-94193800D01*
X139652100Y-94193800D02*
X154650900Y-94193800D01*
X154650900Y-94193800D02*
X155944700Y-92900000D01*
X157120000Y-92900000D02*
X155944700Y-92900000D01*
X141849000Y-90068400D02*
X139949000Y-90068400D01*
X194544700Y-85280000D02*
X186924700Y-92900000D01*
X186924700Y-92900000D02*
X157120000Y-92900000D01*
X195720000Y-85280000D02*
X194544700Y-85280000D01*
G04 #@! TO.N,G34*
X139674000Y-87528400D02*
X141849000Y-87528400D01*
X141849000Y-87528400D02*
X143749300Y-87528400D01*
X144536700Y-87243300D02*
X144034400Y-87243300D01*
X144034400Y-87243300D02*
X143749300Y-87528400D01*
G04 #@! TO.N,G0*
X141849000Y-84988400D02*
X139948700Y-84988400D01*
X139694000Y-84998400D02*
X139938700Y-84998400D01*
X139938700Y-84998400D02*
X139948700Y-84988400D01*
X141849000Y-84988400D02*
X143749300Y-84988400D01*
X144374000Y-84571000D02*
X144166700Y-84571000D01*
X144166700Y-84571000D02*
X143749300Y-84988400D01*
G04 #@! TO.N,G13*
X141849000Y-82448400D02*
X143749300Y-82448400D01*
X144325000Y-82732200D02*
X144033100Y-82732200D01*
X144033100Y-82732200D02*
X143749300Y-82448400D01*
X141849000Y-82448400D02*
X139948700Y-82448400D01*
X139684000Y-82428400D02*
X139928700Y-82428400D01*
X139928700Y-82428400D02*
X139948700Y-82448400D01*
G04 #@! TO.N,G5*
X144510000Y-78636000D02*
X143121400Y-78636000D01*
X143121400Y-78636000D02*
X141849000Y-79908400D01*
X141849000Y-79908400D02*
X139948700Y-79908400D01*
X139694000Y-79888400D02*
X139928700Y-79888400D01*
X139928700Y-79888400D02*
X139948700Y-79908400D01*
G04 #@! TO.N,G22*
X147301600Y-76098400D02*
X144913500Y-76098400D01*
X144913500Y-76098400D02*
X143749300Y-77262600D01*
X143749300Y-77262600D02*
X143749300Y-77368400D01*
X141849000Y-77368400D02*
X143749300Y-77368400D01*
X194544700Y-75120000D02*
X193354100Y-73929400D01*
X193354100Y-73929400D02*
X151836100Y-73929400D01*
X151836100Y-73929400D02*
X149667100Y-76098400D01*
X149667100Y-76098400D02*
X147301600Y-76098400D01*
X141849000Y-77368400D02*
X139948700Y-77368400D01*
X139694000Y-77358400D02*
X139938700Y-77358400D01*
X139938700Y-77358400D02*
X139948700Y-77368400D01*
X195720000Y-75120000D02*
X194544700Y-75120000D01*
G04 #@! TO.N,G17*
X141849000Y-74828400D02*
X143749300Y-74828400D01*
X144720700Y-74986900D02*
X143907800Y-74986900D01*
X143907800Y-74986900D02*
X143749300Y-74828400D01*
X139948700Y-74828400D02*
X139704000Y-74828400D01*
X139704000Y-74828400D02*
X139694000Y-74838400D01*
X141849000Y-74828400D02*
X139948700Y-74828400D01*
G04 #@! TO.N,G1*
X139878500Y-72358500D02*
X139774100Y-72358500D01*
X139774100Y-72358500D02*
X139684000Y-72268400D01*
X139878500Y-72358500D02*
X139949000Y-72288400D01*
X139949000Y-72288400D02*
X141849000Y-72288400D01*
X139808000Y-72428600D02*
X139878500Y-72358500D01*
X141849000Y-72288400D02*
X143749300Y-72288400D01*
X144564200Y-72012500D02*
X144025200Y-72012500D01*
X144025200Y-72012500D02*
X143749300Y-72288400D01*
G04 #@! TO.N,G26*
X139724000Y-67208400D02*
X139724000Y-67178400D01*
X155944700Y-77660000D02*
X155113600Y-78491100D01*
X155113600Y-78491100D02*
X145771100Y-78491100D01*
X145771100Y-78491100D02*
X144584400Y-79677800D01*
X144584400Y-79677800D02*
X144226300Y-79677800D01*
X144226300Y-79677800D02*
X143801400Y-80102700D01*
X143801400Y-80102700D02*
X143801400Y-80518900D01*
X143801400Y-80518900D02*
X143332000Y-80988300D01*
X143332000Y-80988300D02*
X139197200Y-80988300D01*
X139197200Y-80988300D02*
X138593600Y-80384700D01*
X138593600Y-80384700D02*
X138593600Y-68338800D01*
X138593600Y-68338800D02*
X139724000Y-67208400D01*
X139724000Y-67208400D02*
X139948700Y-67208400D01*
X141849000Y-67208400D02*
X139948700Y-67208400D01*
X141849000Y-67208400D02*
X143749300Y-67208400D01*
X143749300Y-67208400D02*
X144574600Y-68033700D01*
X144574600Y-68033700D02*
X147452300Y-68033700D01*
X147452300Y-68033700D02*
X147780900Y-68362300D01*
X157120000Y-77660000D02*
X155944700Y-77660000D01*
G04 #@! TO.N,G25*
X141828200Y-64668400D02*
X143405700Y-66245900D01*
X143405700Y-66245900D02*
X147024100Y-66245900D01*
X147024100Y-66245900D02*
X147370600Y-65899400D01*
X141828200Y-64668400D02*
X141849000Y-64668400D01*
X139904500Y-64712700D02*
X139949000Y-64668400D01*
X139949000Y-64668400D02*
X141828200Y-64668400D01*
X139904500Y-64712700D02*
X139748300Y-64712700D01*
X139748300Y-64712700D02*
X139684000Y-64648400D01*
X139860000Y-64757000D02*
X139904500Y-64712700D01*
X155468000Y-68388000D02*
X151873500Y-68388000D01*
X151873500Y-68388000D02*
X149384900Y-65899400D01*
X149384900Y-65899400D02*
X147370600Y-65899400D01*
G04 #@! TO.N,RST*
X140956900Y-62128400D02*
X139949000Y-62128400D01*
X141849000Y-62128400D02*
X140956900Y-62128400D01*
X140956900Y-63398400D02*
X140956900Y-62128400D01*
X139949000Y-62128400D02*
X139704000Y-62128400D01*
X139704000Y-62128400D02*
X139694000Y-62138400D01*
G04 #@! TO.N,G36*
X141849000Y-59588400D02*
X144338800Y-59588400D01*
X144338800Y-59588400D02*
X144374000Y-59553200D01*
X141849000Y-59588400D02*
X139949000Y-59588400D01*
X139694000Y-59588400D02*
X139684000Y-59578400D01*
X139949000Y-59588400D02*
X139694000Y-59588400D01*
X139694000Y-59588400D02*
X138122500Y-61159900D01*
X138122500Y-61159900D02*
X138122500Y-82408400D01*
X138122500Y-82408400D02*
X139244900Y-83530800D01*
X139244900Y-83530800D02*
X155153900Y-83530800D01*
X155153900Y-83530800D02*
X155944700Y-82740000D01*
X157120000Y-82740000D02*
X155944700Y-82740000D01*
G04 #@! TO.N,G35*
X157120000Y-80200000D02*
X157120000Y-79024700D01*
X157120000Y-79024700D02*
X157516300Y-79024700D01*
X157516300Y-79024700D02*
X159811000Y-76730000D01*
X139694000Y-57048400D02*
X141849000Y-57048400D01*
X141849000Y-57048400D02*
X143749300Y-57048400D01*
X144374000Y-57085400D02*
X143786300Y-57085400D01*
X143786300Y-57085400D02*
X143749300Y-57048400D01*
G04 #@! TO.N,+3V3*
X141849000Y-69748400D02*
X143749300Y-69748400D01*
X144536700Y-69845900D02*
X143846800Y-69845900D01*
X143846800Y-69845900D02*
X143749300Y-69748400D01*
X140898900Y-69748400D02*
X141849000Y-69748400D01*
X140898900Y-69748400D02*
X139948700Y-69748400D01*
X139684000Y-69758400D02*
X139938700Y-69758400D01*
X139938700Y-69758400D02*
X139948700Y-69748400D01*
G04 #@! TD*
D16*
G04 #@! TO.N,GND*
G36*
X147643175Y-50847265D02*
X147444569Y-50765000D01*
X146555431Y-50765000D01*
X145733974Y-51105259D01*
X145105259Y-51733974D01*
X144765000Y-52555431D01*
X144765000Y-53444569D01*
X145105259Y-54266026D01*
X145733974Y-54894741D01*
X146555431Y-55235000D01*
X147444569Y-55235000D01*
X148266026Y-54894741D01*
X148894741Y-54266026D01*
X149077962Y-53823690D01*
X155635000Y-53823690D01*
X155635000Y-54514250D01*
X155793750Y-54673000D01*
X156993000Y-54673000D01*
X156993000Y-53473750D01*
X157247000Y-53473750D01*
X157247000Y-54673000D01*
X158446250Y-54673000D01*
X158605000Y-54514250D01*
X158605000Y-53823690D01*
X158508327Y-53590301D01*
X158329698Y-53411673D01*
X158096309Y-53315000D01*
X157405750Y-53315000D01*
X157247000Y-53473750D01*
X156993000Y-53473750D01*
X156834250Y-53315000D01*
X156143691Y-53315000D01*
X155910302Y-53411673D01*
X155731673Y-53590301D01*
X155635000Y-53823690D01*
X149077962Y-53823690D01*
X149235000Y-53444569D01*
X149235000Y-52555431D01*
X149152736Y-52356827D01*
X149448510Y-52652602D01*
X149488119Y-52711881D01*
X149547398Y-52751490D01*
X149547399Y-52751491D01*
X149722971Y-52868805D01*
X150000000Y-52923909D01*
X150069926Y-52910000D01*
X197505910Y-52910000D01*
X199290000Y-54694092D01*
X199290000Y-55879233D01*
X198766026Y-55355259D01*
X197944569Y-55015000D01*
X197055431Y-55015000D01*
X196233974Y-55355259D01*
X195605259Y-55983974D01*
X195265000Y-56805431D01*
X195265000Y-57694569D01*
X195605259Y-58516026D01*
X196233974Y-59144741D01*
X197055431Y-59485000D01*
X197944569Y-59485000D01*
X198766026Y-59144741D01*
X199290000Y-58620767D01*
X199290001Y-91379234D01*
X198766026Y-90855259D01*
X197944569Y-90515000D01*
X197055431Y-90515000D01*
X196233974Y-90855259D01*
X195605259Y-91483974D01*
X195265000Y-92305431D01*
X195265000Y-93194569D01*
X195605259Y-94016026D01*
X196233974Y-94644741D01*
X197055431Y-94985000D01*
X197944569Y-94985000D01*
X198766026Y-94644741D01*
X199290001Y-94120766D01*
X199290001Y-95305907D01*
X197505910Y-97090000D01*
X150069926Y-97090000D01*
X150000000Y-97076091D01*
X149722971Y-97131195D01*
X149547399Y-97248509D01*
X149488119Y-97288119D01*
X149448510Y-97347398D01*
X149152736Y-97643173D01*
X149235000Y-97444569D01*
X149235000Y-96555431D01*
X148920802Y-95796890D01*
X155678524Y-95796890D01*
X155848355Y-96206924D01*
X156238642Y-96635183D01*
X156763108Y-96881486D01*
X156993000Y-96760819D01*
X156993000Y-95567000D01*
X157247000Y-95567000D01*
X157247000Y-96760819D01*
X157476892Y-96881486D01*
X158001358Y-96635183D01*
X158391645Y-96206924D01*
X158561476Y-95796890D01*
X158440155Y-95567000D01*
X157247000Y-95567000D01*
X156993000Y-95567000D01*
X155799845Y-95567000D01*
X155678524Y-95796890D01*
X148920802Y-95796890D01*
X148894741Y-95733974D01*
X148266026Y-95105259D01*
X147900372Y-94953800D01*
X154576053Y-94953800D01*
X154650900Y-94968688D01*
X154725747Y-94953800D01*
X154725752Y-94953800D01*
X154947437Y-94909704D01*
X155198829Y-94741729D01*
X155241231Y-94678270D01*
X156009121Y-93910381D01*
X156049375Y-93970625D01*
X156368478Y-94183843D01*
X156238642Y-94244817D01*
X155848355Y-94673076D01*
X155678524Y-95083110D01*
X155799845Y-95313000D01*
X156993000Y-95313000D01*
X156993000Y-95293000D01*
X157247000Y-95293000D01*
X157247000Y-95313000D01*
X158440155Y-95313000D01*
X158561476Y-95083110D01*
X158391645Y-94673076D01*
X158001358Y-94244817D01*
X157871522Y-94183843D01*
X158190625Y-93970625D01*
X158398178Y-93660000D01*
X186849853Y-93660000D01*
X186924700Y-93674888D01*
X186999547Y-93660000D01*
X186999552Y-93660000D01*
X187221237Y-93615904D01*
X187472629Y-93447929D01*
X187515031Y-93384470D01*
X194609121Y-86290381D01*
X194649375Y-86350625D01*
X195140582Y-86678839D01*
X195573744Y-86765000D01*
X195866256Y-86765000D01*
X196299418Y-86678839D01*
X196790625Y-86350625D01*
X197118839Y-85859418D01*
X197234092Y-85280000D01*
X197118839Y-84700582D01*
X196790625Y-84209375D01*
X196492239Y-84010000D01*
X196790625Y-83810625D01*
X197118839Y-83319418D01*
X197234092Y-82740000D01*
X197118839Y-82160582D01*
X196790625Y-81669375D01*
X196471522Y-81456157D01*
X196601358Y-81395183D01*
X196991645Y-80966924D01*
X197161476Y-80556890D01*
X197040155Y-80327000D01*
X195847000Y-80327000D01*
X195847000Y-80347000D01*
X195593000Y-80347000D01*
X195593000Y-80327000D01*
X194399845Y-80327000D01*
X194278524Y-80556890D01*
X194448355Y-80966924D01*
X194838642Y-81395183D01*
X194968478Y-81456157D01*
X194649375Y-81669375D01*
X194321161Y-82160582D01*
X194205908Y-82740000D01*
X194321161Y-83319418D01*
X194649375Y-83810625D01*
X194947761Y-84010000D01*
X194649375Y-84209375D01*
X194437526Y-84526429D01*
X194248163Y-84564096D01*
X194185602Y-84605898D01*
X194060226Y-84689671D01*
X194060224Y-84689673D01*
X193996771Y-84732071D01*
X193954373Y-84795524D01*
X186609899Y-92140000D01*
X158398178Y-92140000D01*
X158190625Y-91829375D01*
X157892239Y-91630000D01*
X158190625Y-91430625D01*
X158518839Y-90939418D01*
X158634092Y-90360000D01*
X158518839Y-89780582D01*
X158190625Y-89289375D01*
X157892239Y-89090000D01*
X158190625Y-88890625D01*
X158518839Y-88399418D01*
X158634092Y-87820000D01*
X158518839Y-87240582D01*
X158190625Y-86749375D01*
X157892239Y-86550000D01*
X158190625Y-86350625D01*
X158518839Y-85859418D01*
X158634092Y-85280000D01*
X158518839Y-84700582D01*
X158190625Y-84209375D01*
X157892239Y-84010000D01*
X158190625Y-83810625D01*
X158518839Y-83319418D01*
X158634092Y-82740000D01*
X158518839Y-82160582D01*
X158190625Y-81669375D01*
X157892239Y-81470000D01*
X158190625Y-81270625D01*
X158518839Y-80779418D01*
X158634092Y-80200000D01*
X158518839Y-79620582D01*
X158309106Y-79306695D01*
X159850802Y-77765000D01*
X160016874Y-77765000D01*
X160397280Y-77607431D01*
X160688431Y-77316280D01*
X160846000Y-76935874D01*
X160846000Y-76764700D01*
X192574599Y-76764700D01*
X193954371Y-78144473D01*
X193996771Y-78207929D01*
X194060227Y-78250329D01*
X194248162Y-78375904D01*
X194296305Y-78385480D01*
X194437526Y-78413571D01*
X194649375Y-78730625D01*
X194968478Y-78943843D01*
X194838642Y-79004817D01*
X194448355Y-79433076D01*
X194278524Y-79843110D01*
X194399845Y-80073000D01*
X195593000Y-80073000D01*
X195593000Y-80053000D01*
X195847000Y-80053000D01*
X195847000Y-80073000D01*
X197040155Y-80073000D01*
X197161476Y-79843110D01*
X196991645Y-79433076D01*
X196601358Y-79004817D01*
X196471522Y-78943843D01*
X196790625Y-78730625D01*
X197118839Y-78239418D01*
X197234092Y-77660000D01*
X197118839Y-77080582D01*
X196790625Y-76589375D01*
X196492239Y-76390000D01*
X196790625Y-76190625D01*
X197118839Y-75699418D01*
X197234092Y-75120000D01*
X197118839Y-74540582D01*
X196894366Y-74204635D01*
X197880473Y-73218529D01*
X197943929Y-73176129D01*
X198015018Y-73069737D01*
X198111904Y-72924738D01*
X198129489Y-72836329D01*
X198156000Y-72703052D01*
X198156000Y-72703048D01*
X198170888Y-72628200D01*
X198156000Y-72553352D01*
X198156000Y-69250847D01*
X198170888Y-69176000D01*
X198156000Y-69101153D01*
X198156000Y-69101148D01*
X198111904Y-68879463D01*
X197943929Y-68628071D01*
X197880473Y-68585671D01*
X197161209Y-67866408D01*
X197234092Y-67500000D01*
X197118839Y-66920582D01*
X196790625Y-66429375D01*
X196768967Y-66414904D01*
X196929698Y-66348327D01*
X197108327Y-66169699D01*
X197205000Y-65936310D01*
X197205000Y-65245750D01*
X197046250Y-65087000D01*
X195847000Y-65087000D01*
X195847000Y-65107000D01*
X195593000Y-65107000D01*
X195593000Y-65087000D01*
X194393750Y-65087000D01*
X194235000Y-65245750D01*
X194235000Y-65936310D01*
X194331673Y-66169699D01*
X194510302Y-66348327D01*
X194671033Y-66414904D01*
X194649375Y-66429375D01*
X194321161Y-66920582D01*
X194320169Y-66925567D01*
X193140131Y-65745530D01*
X193097729Y-65682071D01*
X192846337Y-65514096D01*
X192624652Y-65470000D01*
X192624647Y-65470000D01*
X192549800Y-65455112D01*
X192474953Y-65470000D01*
X158532647Y-65470000D01*
X158634092Y-64960000D01*
X158518839Y-64380582D01*
X158253645Y-63983690D01*
X194235000Y-63983690D01*
X194235000Y-64674250D01*
X194393750Y-64833000D01*
X195593000Y-64833000D01*
X195593000Y-63633750D01*
X195847000Y-63633750D01*
X195847000Y-64833000D01*
X197046250Y-64833000D01*
X197205000Y-64674250D01*
X197205000Y-63983690D01*
X197108327Y-63750301D01*
X196929698Y-63571673D01*
X196696309Y-63475000D01*
X196005750Y-63475000D01*
X195847000Y-63633750D01*
X195593000Y-63633750D01*
X195434250Y-63475000D01*
X194743691Y-63475000D01*
X194510302Y-63571673D01*
X194331673Y-63750301D01*
X194235000Y-63983690D01*
X158253645Y-63983690D01*
X158190625Y-63889375D01*
X157892239Y-63690000D01*
X158190625Y-63490625D01*
X158518839Y-62999418D01*
X158634092Y-62420000D01*
X158518839Y-61840582D01*
X158190625Y-61349375D01*
X157892239Y-61150000D01*
X158190625Y-60950625D01*
X158518839Y-60459418D01*
X158634092Y-59880000D01*
X158518839Y-59300582D01*
X158190625Y-58809375D01*
X157892239Y-58610000D01*
X158190625Y-58410625D01*
X158518839Y-57919418D01*
X158634092Y-57340000D01*
X158518839Y-56760582D01*
X158190625Y-56269375D01*
X158168967Y-56254904D01*
X158329698Y-56188327D01*
X158508327Y-56009699D01*
X158605000Y-55776310D01*
X158605000Y-55085750D01*
X158446250Y-54927000D01*
X157247000Y-54927000D01*
X157247000Y-54947000D01*
X156993000Y-54947000D01*
X156993000Y-54927000D01*
X155793750Y-54927000D01*
X155635000Y-55085750D01*
X155635000Y-55776310D01*
X155731673Y-56009699D01*
X155910302Y-56188327D01*
X156071033Y-56254904D01*
X156049375Y-56269375D01*
X155721161Y-56760582D01*
X155605908Y-57340000D01*
X155721161Y-57919418D01*
X156049375Y-58410625D01*
X156347761Y-58610000D01*
X156049375Y-58809375D01*
X155721161Y-59300582D01*
X155605908Y-59880000D01*
X155721161Y-60459418D01*
X156049375Y-60950625D01*
X156347761Y-61150000D01*
X156049375Y-61349375D01*
X155721161Y-61840582D01*
X155605908Y-62420000D01*
X155721161Y-62999418D01*
X156049375Y-63490625D01*
X156347761Y-63690000D01*
X156049375Y-63889375D01*
X155721161Y-64380582D01*
X155605908Y-64960000D01*
X155707353Y-65470000D01*
X150930402Y-65470000D01*
X150435091Y-64974689D01*
X150451000Y-64936281D01*
X150451000Y-64380519D01*
X150238320Y-63867063D01*
X149845337Y-63474080D01*
X149678495Y-63404972D01*
X149785143Y-63360797D01*
X149854608Y-63118613D01*
X149054000Y-62318005D01*
X149039858Y-62332148D01*
X148860253Y-62152543D01*
X148874395Y-62138400D01*
X149233605Y-62138400D01*
X150034213Y-62939008D01*
X150276397Y-62869543D01*
X150463144Y-62346098D01*
X150435362Y-61791032D01*
X150276397Y-61407257D01*
X150034213Y-61337792D01*
X149233605Y-62138400D01*
X148874395Y-62138400D01*
X148860253Y-62124258D01*
X149039858Y-61944653D01*
X149054000Y-61958795D01*
X149854608Y-61158187D01*
X149785143Y-60916003D01*
X149674626Y-60876575D01*
X149785143Y-60830797D01*
X149854608Y-60588613D01*
X149054000Y-59788005D01*
X149039858Y-59802148D01*
X148860253Y-59622543D01*
X148874395Y-59608400D01*
X149233605Y-59608400D01*
X150034213Y-60409008D01*
X150276397Y-60339543D01*
X150463144Y-59816098D01*
X150435362Y-59261032D01*
X150276397Y-58877257D01*
X150034213Y-58807792D01*
X149233605Y-59608400D01*
X148874395Y-59608400D01*
X148860253Y-59594258D01*
X149039858Y-59414653D01*
X149054000Y-59428795D01*
X149854608Y-58628187D01*
X149785143Y-58386003D01*
X149635715Y-58332692D01*
X149785143Y-58270797D01*
X149854608Y-58028613D01*
X149054000Y-57228005D01*
X149039858Y-57242148D01*
X148860253Y-57062543D01*
X148874395Y-57048400D01*
X149233605Y-57048400D01*
X150034213Y-57849008D01*
X150276397Y-57779543D01*
X150463144Y-57256098D01*
X150435362Y-56701032D01*
X150276397Y-56317257D01*
X150034213Y-56247792D01*
X149233605Y-57048400D01*
X148874395Y-57048400D01*
X148860253Y-57034258D01*
X149039858Y-56854653D01*
X149054000Y-56868795D01*
X149854608Y-56068187D01*
X149785143Y-55826003D01*
X149261698Y-55639256D01*
X148706632Y-55667038D01*
X148322857Y-55826003D01*
X148297789Y-55913400D01*
X147184750Y-55913400D01*
X147026000Y-56072150D01*
X147026000Y-56921400D01*
X147648895Y-56921400D01*
X147661608Y-57175400D01*
X147026000Y-57175400D01*
X147026000Y-58024650D01*
X147184750Y-58183400D01*
X148297789Y-58183400D01*
X148322857Y-58270797D01*
X148472285Y-58324108D01*
X148322857Y-58386003D01*
X148303526Y-58453400D01*
X147184750Y-58453400D01*
X147026000Y-58612150D01*
X147026000Y-59461400D01*
X147647894Y-59461400D01*
X147660607Y-59715400D01*
X147026000Y-59715400D01*
X147026000Y-60564650D01*
X147184750Y-60723400D01*
X148292053Y-60723400D01*
X148322857Y-60830797D01*
X148433374Y-60870225D01*
X148322857Y-60916003D01*
X148300657Y-60993400D01*
X147184750Y-60993400D01*
X147026000Y-61152150D01*
X147026000Y-62001400D01*
X147648395Y-62001400D01*
X147661108Y-62255400D01*
X147026000Y-62255400D01*
X147026000Y-63104650D01*
X147184750Y-63263400D01*
X148294921Y-63263400D01*
X148322857Y-63360797D01*
X148437452Y-63401680D01*
X148262663Y-63474080D01*
X148215783Y-63520960D01*
X145324000Y-63520960D01*
X145076235Y-63570243D01*
X144866191Y-63710591D01*
X144725843Y-63920635D01*
X144720220Y-63948904D01*
X144702163Y-63952496D01*
X144450771Y-64120471D01*
X144312519Y-64327379D01*
X144180098Y-64459800D01*
X144071440Y-64459800D01*
X144071440Y-64168400D01*
X144022157Y-63920635D01*
X143881809Y-63710591D01*
X143671765Y-63570243D01*
X143424000Y-63520960D01*
X141991900Y-63520960D01*
X141991900Y-63275840D01*
X143424000Y-63275840D01*
X143671765Y-63226557D01*
X143881809Y-63086209D01*
X144022157Y-62876165D01*
X144071440Y-62628400D01*
X144071440Y-62414150D01*
X144689000Y-62414150D01*
X144689000Y-62754710D01*
X144785673Y-62988099D01*
X144964302Y-63166727D01*
X145197691Y-63263400D01*
X146613250Y-63263400D01*
X146772000Y-63104650D01*
X146772000Y-62255400D01*
X144847750Y-62255400D01*
X144689000Y-62414150D01*
X144071440Y-62414150D01*
X144071440Y-61628400D01*
X144046316Y-61502090D01*
X144689000Y-61502090D01*
X144689000Y-61842650D01*
X144847750Y-62001400D01*
X146772000Y-62001400D01*
X146772000Y-61152150D01*
X146613250Y-60993400D01*
X145197691Y-60993400D01*
X144964302Y-61090073D01*
X144785673Y-61268701D01*
X144689000Y-61502090D01*
X144046316Y-61502090D01*
X144022157Y-61380635D01*
X143881809Y-61170591D01*
X143671765Y-61030243D01*
X143424000Y-60980960D01*
X140512217Y-60980960D01*
X140485337Y-60954080D01*
X140254345Y-60858400D01*
X140485337Y-60762720D01*
X140512217Y-60735840D01*
X143424000Y-60735840D01*
X143671765Y-60686557D01*
X143881809Y-60546209D01*
X143921899Y-60486210D01*
X144168126Y-60588200D01*
X144579874Y-60588200D01*
X144824463Y-60486888D01*
X144964302Y-60626727D01*
X145197691Y-60723400D01*
X146613250Y-60723400D01*
X146772000Y-60564650D01*
X146772000Y-59715400D01*
X146752000Y-59715400D01*
X146752000Y-59461400D01*
X146772000Y-59461400D01*
X146772000Y-58612150D01*
X146613250Y-58453400D01*
X145197691Y-58453400D01*
X144964302Y-58550073D01*
X144874243Y-58640131D01*
X144579874Y-58518200D01*
X144168126Y-58518200D01*
X143885056Y-58635451D01*
X143881809Y-58630591D01*
X143671765Y-58490243D01*
X143424000Y-58440960D01*
X140532217Y-58440960D01*
X140485337Y-58394080D01*
X140290558Y-58313400D01*
X140485337Y-58232720D01*
X140522217Y-58195840D01*
X143424000Y-58195840D01*
X143671765Y-58146557D01*
X143881809Y-58006209D01*
X143884114Y-58002759D01*
X144168126Y-58120400D01*
X144579874Y-58120400D01*
X144875516Y-57997941D01*
X144964302Y-58086727D01*
X145197691Y-58183400D01*
X146613250Y-58183400D01*
X146772000Y-58024650D01*
X146772000Y-57175400D01*
X146752000Y-57175400D01*
X146752000Y-56921400D01*
X146772000Y-56921400D01*
X146772000Y-56072150D01*
X146613250Y-55913400D01*
X145197691Y-55913400D01*
X144964302Y-56010073D01*
X144823190Y-56151184D01*
X144579874Y-56050400D01*
X144168126Y-56050400D01*
X143922841Y-56152000D01*
X143881809Y-56090591D01*
X143671765Y-55950243D01*
X143424000Y-55900960D01*
X140522217Y-55900960D01*
X140485337Y-55864080D01*
X139971881Y-55651400D01*
X139416119Y-55651400D01*
X138902663Y-55864080D01*
X138509680Y-56257063D01*
X138297000Y-56770519D01*
X138297000Y-57326281D01*
X138509680Y-57839737D01*
X138902663Y-58232720D01*
X139097442Y-58313400D01*
X138902663Y-58394080D01*
X138509680Y-58787063D01*
X138297000Y-59300519D01*
X138297000Y-59856281D01*
X138312909Y-59894689D01*
X137638030Y-60569569D01*
X137574571Y-60611971D01*
X137406596Y-60863364D01*
X137362500Y-61085049D01*
X137362500Y-61085053D01*
X137347612Y-61159900D01*
X137362500Y-61234747D01*
X137362501Y-82333548D01*
X137347612Y-82408400D01*
X137362501Y-82483252D01*
X137406597Y-82704937D01*
X137574572Y-82956329D01*
X137638027Y-82998729D01*
X138654573Y-84015275D01*
X138673356Y-84043387D01*
X138509680Y-84207063D01*
X138297000Y-84720519D01*
X138297000Y-85276281D01*
X138509680Y-85789737D01*
X138902663Y-86182720D01*
X139097442Y-86263400D01*
X138902663Y-86344080D01*
X138509680Y-86737063D01*
X138297000Y-87250519D01*
X138297000Y-87806281D01*
X138509680Y-88319737D01*
X138902663Y-88712720D01*
X139085371Y-88788400D01*
X138902663Y-88864080D01*
X138509680Y-89257063D01*
X138297000Y-89770519D01*
X138297000Y-90326281D01*
X138321696Y-90385903D01*
X138105130Y-90602469D01*
X138041671Y-90644871D01*
X137873696Y-90896264D01*
X137829600Y-91117949D01*
X137829600Y-91117953D01*
X137814712Y-91192800D01*
X137829600Y-91267647D01*
X137829601Y-93056448D01*
X137814712Y-93131300D01*
X137829601Y-93206152D01*
X137873697Y-93427837D01*
X138041672Y-93679229D01*
X138105128Y-93721629D01*
X139061771Y-94678273D01*
X139104171Y-94741729D01*
X139355563Y-94909704D01*
X139577248Y-94953800D01*
X139577253Y-94953800D01*
X139652100Y-94968688D01*
X139726947Y-94953800D01*
X146099628Y-94953800D01*
X145733974Y-95105259D01*
X145105259Y-95733974D01*
X144765000Y-96555431D01*
X144765000Y-97444569D01*
X145105259Y-98266026D01*
X145733974Y-98894741D01*
X146555431Y-99235000D01*
X147444569Y-99235000D01*
X147643175Y-99152735D01*
X147505910Y-99290000D01*
X102494092Y-99290000D01*
X102356827Y-99152736D01*
X102555431Y-99235000D01*
X103444569Y-99235000D01*
X104266026Y-98894741D01*
X104894741Y-98266026D01*
X105235000Y-97444569D01*
X105235000Y-96654887D01*
X105265000Y-96654887D01*
X105265000Y-97345113D01*
X105529138Y-97982799D01*
X106017201Y-98470862D01*
X106654887Y-98735000D01*
X107345113Y-98735000D01*
X107982799Y-98470862D01*
X108470862Y-97982799D01*
X108735000Y-97345113D01*
X108735000Y-96654887D01*
X141265000Y-96654887D01*
X141265000Y-97345113D01*
X141529138Y-97982799D01*
X142017201Y-98470862D01*
X142654887Y-98735000D01*
X143345113Y-98735000D01*
X143982799Y-98470862D01*
X144470862Y-97982799D01*
X144735000Y-97345113D01*
X144735000Y-96654887D01*
X144470862Y-96017201D01*
X143982799Y-95529138D01*
X143345113Y-95265000D01*
X142654887Y-95265000D01*
X142017201Y-95529138D01*
X141529138Y-96017201D01*
X141265000Y-96654887D01*
X108735000Y-96654887D01*
X108470862Y-96017201D01*
X107982799Y-95529138D01*
X107345113Y-95265000D01*
X106654887Y-95265000D01*
X106017201Y-95529138D01*
X105529138Y-96017201D01*
X105265000Y-96654887D01*
X105235000Y-96654887D01*
X105235000Y-96555431D01*
X104894741Y-95733974D01*
X104266026Y-95105259D01*
X103444569Y-94765000D01*
X102555431Y-94765000D01*
X101733974Y-95105259D01*
X101105259Y-95733974D01*
X100765000Y-96555431D01*
X100765000Y-97444569D01*
X100847265Y-97643175D01*
X100710000Y-97505910D01*
X100710000Y-52494090D01*
X100847265Y-52356825D01*
X100765000Y-52555431D01*
X100765000Y-53444569D01*
X101105259Y-54266026D01*
X101733974Y-54894741D01*
X102555431Y-55235000D01*
X103444569Y-55235000D01*
X104266026Y-54894741D01*
X104894741Y-54266026D01*
X105235000Y-53444569D01*
X105235000Y-52654887D01*
X105265000Y-52654887D01*
X105265000Y-53345113D01*
X105529138Y-53982799D01*
X106017201Y-54470862D01*
X106654887Y-54735000D01*
X107345113Y-54735000D01*
X107982799Y-54470862D01*
X108470862Y-53982799D01*
X108735000Y-53345113D01*
X108735000Y-52654887D01*
X141265000Y-52654887D01*
X141265000Y-53345113D01*
X141529138Y-53982799D01*
X142017201Y-54470862D01*
X142654887Y-54735000D01*
X143345113Y-54735000D01*
X143982799Y-54470862D01*
X144470862Y-53982799D01*
X144735000Y-53345113D01*
X144735000Y-52654887D01*
X144470862Y-52017201D01*
X143982799Y-51529138D01*
X143345113Y-51265000D01*
X142654887Y-51265000D01*
X142017201Y-51529138D01*
X141529138Y-52017201D01*
X141265000Y-52654887D01*
X108735000Y-52654887D01*
X108470862Y-52017201D01*
X107982799Y-51529138D01*
X107345113Y-51265000D01*
X106654887Y-51265000D01*
X106017201Y-51529138D01*
X105529138Y-52017201D01*
X105265000Y-52654887D01*
X105235000Y-52654887D01*
X105235000Y-52555431D01*
X104894741Y-51733974D01*
X104266026Y-51105259D01*
X103444569Y-50765000D01*
X102555431Y-50765000D01*
X102356827Y-50847264D01*
X102494092Y-50710000D01*
X147505910Y-50710000D01*
X147643175Y-50847265D01*
X147643175Y-50847265D01*
G37*
X147643175Y-50847265D02*
X147444569Y-50765000D01*
X146555431Y-50765000D01*
X145733974Y-51105259D01*
X145105259Y-51733974D01*
X144765000Y-52555431D01*
X144765000Y-53444569D01*
X145105259Y-54266026D01*
X145733974Y-54894741D01*
X146555431Y-55235000D01*
X147444569Y-55235000D01*
X148266026Y-54894741D01*
X148894741Y-54266026D01*
X149077962Y-53823690D01*
X155635000Y-53823690D01*
X155635000Y-54514250D01*
X155793750Y-54673000D01*
X156993000Y-54673000D01*
X156993000Y-53473750D01*
X157247000Y-53473750D01*
X157247000Y-54673000D01*
X158446250Y-54673000D01*
X158605000Y-54514250D01*
X158605000Y-53823690D01*
X158508327Y-53590301D01*
X158329698Y-53411673D01*
X158096309Y-53315000D01*
X157405750Y-53315000D01*
X157247000Y-53473750D01*
X156993000Y-53473750D01*
X156834250Y-53315000D01*
X156143691Y-53315000D01*
X155910302Y-53411673D01*
X155731673Y-53590301D01*
X155635000Y-53823690D01*
X149077962Y-53823690D01*
X149235000Y-53444569D01*
X149235000Y-52555431D01*
X149152736Y-52356827D01*
X149448510Y-52652602D01*
X149488119Y-52711881D01*
X149547398Y-52751490D01*
X149547399Y-52751491D01*
X149722971Y-52868805D01*
X150000000Y-52923909D01*
X150069926Y-52910000D01*
X197505910Y-52910000D01*
X199290000Y-54694092D01*
X199290000Y-55879233D01*
X198766026Y-55355259D01*
X197944569Y-55015000D01*
X197055431Y-55015000D01*
X196233974Y-55355259D01*
X195605259Y-55983974D01*
X195265000Y-56805431D01*
X195265000Y-57694569D01*
X195605259Y-58516026D01*
X196233974Y-59144741D01*
X197055431Y-59485000D01*
X197944569Y-59485000D01*
X198766026Y-59144741D01*
X199290000Y-58620767D01*
X199290001Y-91379234D01*
X198766026Y-90855259D01*
X197944569Y-90515000D01*
X197055431Y-90515000D01*
X196233974Y-90855259D01*
X195605259Y-91483974D01*
X195265000Y-92305431D01*
X195265000Y-93194569D01*
X195605259Y-94016026D01*
X196233974Y-94644741D01*
X197055431Y-94985000D01*
X197944569Y-94985000D01*
X198766026Y-94644741D01*
X199290001Y-94120766D01*
X199290001Y-95305907D01*
X197505910Y-97090000D01*
X150069926Y-97090000D01*
X150000000Y-97076091D01*
X149722971Y-97131195D01*
X149547399Y-97248509D01*
X149488119Y-97288119D01*
X149448510Y-97347398D01*
X149152736Y-97643173D01*
X149235000Y-97444569D01*
X149235000Y-96555431D01*
X148920802Y-95796890D01*
X155678524Y-95796890D01*
X155848355Y-96206924D01*
X156238642Y-96635183D01*
X156763108Y-96881486D01*
X156993000Y-96760819D01*
X156993000Y-95567000D01*
X157247000Y-95567000D01*
X157247000Y-96760819D01*
X157476892Y-96881486D01*
X158001358Y-96635183D01*
X158391645Y-96206924D01*
X158561476Y-95796890D01*
X158440155Y-95567000D01*
X157247000Y-95567000D01*
X156993000Y-95567000D01*
X155799845Y-95567000D01*
X155678524Y-95796890D01*
X148920802Y-95796890D01*
X148894741Y-95733974D01*
X148266026Y-95105259D01*
X147900372Y-94953800D01*
X154576053Y-94953800D01*
X154650900Y-94968688D01*
X154725747Y-94953800D01*
X154725752Y-94953800D01*
X154947437Y-94909704D01*
X155198829Y-94741729D01*
X155241231Y-94678270D01*
X156009121Y-93910381D01*
X156049375Y-93970625D01*
X156368478Y-94183843D01*
X156238642Y-94244817D01*
X155848355Y-94673076D01*
X155678524Y-95083110D01*
X155799845Y-95313000D01*
X156993000Y-95313000D01*
X156993000Y-95293000D01*
X157247000Y-95293000D01*
X157247000Y-95313000D01*
X158440155Y-95313000D01*
X158561476Y-95083110D01*
X158391645Y-94673076D01*
X158001358Y-94244817D01*
X157871522Y-94183843D01*
X158190625Y-93970625D01*
X158398178Y-93660000D01*
X186849853Y-93660000D01*
X186924700Y-93674888D01*
X186999547Y-93660000D01*
X186999552Y-93660000D01*
X187221237Y-93615904D01*
X187472629Y-93447929D01*
X187515031Y-93384470D01*
X194609121Y-86290381D01*
X194649375Y-86350625D01*
X195140582Y-86678839D01*
X195573744Y-86765000D01*
X195866256Y-86765000D01*
X196299418Y-86678839D01*
X196790625Y-86350625D01*
X197118839Y-85859418D01*
X197234092Y-85280000D01*
X197118839Y-84700582D01*
X196790625Y-84209375D01*
X196492239Y-84010000D01*
X196790625Y-83810625D01*
X197118839Y-83319418D01*
X197234092Y-82740000D01*
X197118839Y-82160582D01*
X196790625Y-81669375D01*
X196471522Y-81456157D01*
X196601358Y-81395183D01*
X196991645Y-80966924D01*
X197161476Y-80556890D01*
X197040155Y-80327000D01*
X195847000Y-80327000D01*
X195847000Y-80347000D01*
X195593000Y-80347000D01*
X195593000Y-80327000D01*
X194399845Y-80327000D01*
X194278524Y-80556890D01*
X194448355Y-80966924D01*
X194838642Y-81395183D01*
X194968478Y-81456157D01*
X194649375Y-81669375D01*
X194321161Y-82160582D01*
X194205908Y-82740000D01*
X194321161Y-83319418D01*
X194649375Y-83810625D01*
X194947761Y-84010000D01*
X194649375Y-84209375D01*
X194437526Y-84526429D01*
X194248163Y-84564096D01*
X194185602Y-84605898D01*
X194060226Y-84689671D01*
X194060224Y-84689673D01*
X193996771Y-84732071D01*
X193954373Y-84795524D01*
X186609899Y-92140000D01*
X158398178Y-92140000D01*
X158190625Y-91829375D01*
X157892239Y-91630000D01*
X158190625Y-91430625D01*
X158518839Y-90939418D01*
X158634092Y-90360000D01*
X158518839Y-89780582D01*
X158190625Y-89289375D01*
X157892239Y-89090000D01*
X158190625Y-88890625D01*
X158518839Y-88399418D01*
X158634092Y-87820000D01*
X158518839Y-87240582D01*
X158190625Y-86749375D01*
X157892239Y-86550000D01*
X158190625Y-86350625D01*
X158518839Y-85859418D01*
X158634092Y-85280000D01*
X158518839Y-84700582D01*
X158190625Y-84209375D01*
X157892239Y-84010000D01*
X158190625Y-83810625D01*
X158518839Y-83319418D01*
X158634092Y-82740000D01*
X158518839Y-82160582D01*
X158190625Y-81669375D01*
X157892239Y-81470000D01*
X158190625Y-81270625D01*
X158518839Y-80779418D01*
X158634092Y-80200000D01*
X158518839Y-79620582D01*
X158309106Y-79306695D01*
X159850802Y-77765000D01*
X160016874Y-77765000D01*
X160397280Y-77607431D01*
X160688431Y-77316280D01*
X160846000Y-76935874D01*
X160846000Y-76764700D01*
X192574599Y-76764700D01*
X193954371Y-78144473D01*
X193996771Y-78207929D01*
X194060227Y-78250329D01*
X194248162Y-78375904D01*
X194296305Y-78385480D01*
X194437526Y-78413571D01*
X194649375Y-78730625D01*
X194968478Y-78943843D01*
X194838642Y-79004817D01*
X194448355Y-79433076D01*
X194278524Y-79843110D01*
X194399845Y-80073000D01*
X195593000Y-80073000D01*
X195593000Y-80053000D01*
X195847000Y-80053000D01*
X195847000Y-80073000D01*
X197040155Y-80073000D01*
X197161476Y-79843110D01*
X196991645Y-79433076D01*
X196601358Y-79004817D01*
X196471522Y-78943843D01*
X196790625Y-78730625D01*
X197118839Y-78239418D01*
X197234092Y-77660000D01*
X197118839Y-77080582D01*
X196790625Y-76589375D01*
X196492239Y-76390000D01*
X196790625Y-76190625D01*
X197118839Y-75699418D01*
X197234092Y-75120000D01*
X197118839Y-74540582D01*
X196894366Y-74204635D01*
X197880473Y-73218529D01*
X197943929Y-73176129D01*
X198015018Y-73069737D01*
X198111904Y-72924738D01*
X198129489Y-72836329D01*
X198156000Y-72703052D01*
X198156000Y-72703048D01*
X198170888Y-72628200D01*
X198156000Y-72553352D01*
X198156000Y-69250847D01*
X198170888Y-69176000D01*
X198156000Y-69101153D01*
X198156000Y-69101148D01*
X198111904Y-68879463D01*
X197943929Y-68628071D01*
X197880473Y-68585671D01*
X197161209Y-67866408D01*
X197234092Y-67500000D01*
X197118839Y-66920582D01*
X196790625Y-66429375D01*
X196768967Y-66414904D01*
X196929698Y-66348327D01*
X197108327Y-66169699D01*
X197205000Y-65936310D01*
X197205000Y-65245750D01*
X197046250Y-65087000D01*
X195847000Y-65087000D01*
X195847000Y-65107000D01*
X195593000Y-65107000D01*
X195593000Y-65087000D01*
X194393750Y-65087000D01*
X194235000Y-65245750D01*
X194235000Y-65936310D01*
X194331673Y-66169699D01*
X194510302Y-66348327D01*
X194671033Y-66414904D01*
X194649375Y-66429375D01*
X194321161Y-66920582D01*
X194320169Y-66925567D01*
X193140131Y-65745530D01*
X193097729Y-65682071D01*
X192846337Y-65514096D01*
X192624652Y-65470000D01*
X192624647Y-65470000D01*
X192549800Y-65455112D01*
X192474953Y-65470000D01*
X158532647Y-65470000D01*
X158634092Y-64960000D01*
X158518839Y-64380582D01*
X158253645Y-63983690D01*
X194235000Y-63983690D01*
X194235000Y-64674250D01*
X194393750Y-64833000D01*
X195593000Y-64833000D01*
X195593000Y-63633750D01*
X195847000Y-63633750D01*
X195847000Y-64833000D01*
X197046250Y-64833000D01*
X197205000Y-64674250D01*
X197205000Y-63983690D01*
X197108327Y-63750301D01*
X196929698Y-63571673D01*
X196696309Y-63475000D01*
X196005750Y-63475000D01*
X195847000Y-63633750D01*
X195593000Y-63633750D01*
X195434250Y-63475000D01*
X194743691Y-63475000D01*
X194510302Y-63571673D01*
X194331673Y-63750301D01*
X194235000Y-63983690D01*
X158253645Y-63983690D01*
X158190625Y-63889375D01*
X157892239Y-63690000D01*
X158190625Y-63490625D01*
X158518839Y-62999418D01*
X158634092Y-62420000D01*
X158518839Y-61840582D01*
X158190625Y-61349375D01*
X157892239Y-61150000D01*
X158190625Y-60950625D01*
X158518839Y-60459418D01*
X158634092Y-59880000D01*
X158518839Y-59300582D01*
X158190625Y-58809375D01*
X157892239Y-58610000D01*
X158190625Y-58410625D01*
X158518839Y-57919418D01*
X158634092Y-57340000D01*
X158518839Y-56760582D01*
X158190625Y-56269375D01*
X158168967Y-56254904D01*
X158329698Y-56188327D01*
X158508327Y-56009699D01*
X158605000Y-55776310D01*
X158605000Y-55085750D01*
X158446250Y-54927000D01*
X157247000Y-54927000D01*
X157247000Y-54947000D01*
X156993000Y-54947000D01*
X156993000Y-54927000D01*
X155793750Y-54927000D01*
X155635000Y-55085750D01*
X155635000Y-55776310D01*
X155731673Y-56009699D01*
X155910302Y-56188327D01*
X156071033Y-56254904D01*
X156049375Y-56269375D01*
X155721161Y-56760582D01*
X155605908Y-57340000D01*
X155721161Y-57919418D01*
X156049375Y-58410625D01*
X156347761Y-58610000D01*
X156049375Y-58809375D01*
X155721161Y-59300582D01*
X155605908Y-59880000D01*
X155721161Y-60459418D01*
X156049375Y-60950625D01*
X156347761Y-61150000D01*
X156049375Y-61349375D01*
X155721161Y-61840582D01*
X155605908Y-62420000D01*
X155721161Y-62999418D01*
X156049375Y-63490625D01*
X156347761Y-63690000D01*
X156049375Y-63889375D01*
X155721161Y-64380582D01*
X155605908Y-64960000D01*
X155707353Y-65470000D01*
X150930402Y-65470000D01*
X150435091Y-64974689D01*
X150451000Y-64936281D01*
X150451000Y-64380519D01*
X150238320Y-63867063D01*
X149845337Y-63474080D01*
X149678495Y-63404972D01*
X149785143Y-63360797D01*
X149854608Y-63118613D01*
X149054000Y-62318005D01*
X149039858Y-62332148D01*
X148860253Y-62152543D01*
X148874395Y-62138400D01*
X149233605Y-62138400D01*
X150034213Y-62939008D01*
X150276397Y-62869543D01*
X150463144Y-62346098D01*
X150435362Y-61791032D01*
X150276397Y-61407257D01*
X150034213Y-61337792D01*
X149233605Y-62138400D01*
X148874395Y-62138400D01*
X148860253Y-62124258D01*
X149039858Y-61944653D01*
X149054000Y-61958795D01*
X149854608Y-61158187D01*
X149785143Y-60916003D01*
X149674626Y-60876575D01*
X149785143Y-60830797D01*
X149854608Y-60588613D01*
X149054000Y-59788005D01*
X149039858Y-59802148D01*
X148860253Y-59622543D01*
X148874395Y-59608400D01*
X149233605Y-59608400D01*
X150034213Y-60409008D01*
X150276397Y-60339543D01*
X150463144Y-59816098D01*
X150435362Y-59261032D01*
X150276397Y-58877257D01*
X150034213Y-58807792D01*
X149233605Y-59608400D01*
X148874395Y-59608400D01*
X148860253Y-59594258D01*
X149039858Y-59414653D01*
X149054000Y-59428795D01*
X149854608Y-58628187D01*
X149785143Y-58386003D01*
X149635715Y-58332692D01*
X149785143Y-58270797D01*
X149854608Y-58028613D01*
X149054000Y-57228005D01*
X149039858Y-57242148D01*
X148860253Y-57062543D01*
X148874395Y-57048400D01*
X149233605Y-57048400D01*
X150034213Y-57849008D01*
X150276397Y-57779543D01*
X150463144Y-57256098D01*
X150435362Y-56701032D01*
X150276397Y-56317257D01*
X150034213Y-56247792D01*
X149233605Y-57048400D01*
X148874395Y-57048400D01*
X148860253Y-57034258D01*
X149039858Y-56854653D01*
X149054000Y-56868795D01*
X149854608Y-56068187D01*
X149785143Y-55826003D01*
X149261698Y-55639256D01*
X148706632Y-55667038D01*
X148322857Y-55826003D01*
X148297789Y-55913400D01*
X147184750Y-55913400D01*
X147026000Y-56072150D01*
X147026000Y-56921400D01*
X147648895Y-56921400D01*
X147661608Y-57175400D01*
X147026000Y-57175400D01*
X147026000Y-58024650D01*
X147184750Y-58183400D01*
X148297789Y-58183400D01*
X148322857Y-58270797D01*
X148472285Y-58324108D01*
X148322857Y-58386003D01*
X148303526Y-58453400D01*
X147184750Y-58453400D01*
X147026000Y-58612150D01*
X147026000Y-59461400D01*
X147647894Y-59461400D01*
X147660607Y-59715400D01*
X147026000Y-59715400D01*
X147026000Y-60564650D01*
X147184750Y-60723400D01*
X148292053Y-60723400D01*
X148322857Y-60830797D01*
X148433374Y-60870225D01*
X148322857Y-60916003D01*
X148300657Y-60993400D01*
X147184750Y-60993400D01*
X147026000Y-61152150D01*
X147026000Y-62001400D01*
X147648395Y-62001400D01*
X147661108Y-62255400D01*
X147026000Y-62255400D01*
X147026000Y-63104650D01*
X147184750Y-63263400D01*
X148294921Y-63263400D01*
X148322857Y-63360797D01*
X148437452Y-63401680D01*
X148262663Y-63474080D01*
X148215783Y-63520960D01*
X145324000Y-63520960D01*
X145076235Y-63570243D01*
X144866191Y-63710591D01*
X144725843Y-63920635D01*
X144720220Y-63948904D01*
X144702163Y-63952496D01*
X144450771Y-64120471D01*
X144312519Y-64327379D01*
X144180098Y-64459800D01*
X144071440Y-64459800D01*
X144071440Y-64168400D01*
X144022157Y-63920635D01*
X143881809Y-63710591D01*
X143671765Y-63570243D01*
X143424000Y-63520960D01*
X141991900Y-63520960D01*
X141991900Y-63275840D01*
X143424000Y-63275840D01*
X143671765Y-63226557D01*
X143881809Y-63086209D01*
X144022157Y-62876165D01*
X144071440Y-62628400D01*
X144071440Y-62414150D01*
X144689000Y-62414150D01*
X144689000Y-62754710D01*
X144785673Y-62988099D01*
X144964302Y-63166727D01*
X145197691Y-63263400D01*
X146613250Y-63263400D01*
X146772000Y-63104650D01*
X146772000Y-62255400D01*
X144847750Y-62255400D01*
X144689000Y-62414150D01*
X144071440Y-62414150D01*
X144071440Y-61628400D01*
X144046316Y-61502090D01*
X144689000Y-61502090D01*
X144689000Y-61842650D01*
X144847750Y-62001400D01*
X146772000Y-62001400D01*
X146772000Y-61152150D01*
X146613250Y-60993400D01*
X145197691Y-60993400D01*
X144964302Y-61090073D01*
X144785673Y-61268701D01*
X144689000Y-61502090D01*
X144046316Y-61502090D01*
X144022157Y-61380635D01*
X143881809Y-61170591D01*
X143671765Y-61030243D01*
X143424000Y-60980960D01*
X140512217Y-60980960D01*
X140485337Y-60954080D01*
X140254345Y-60858400D01*
X140485337Y-60762720D01*
X140512217Y-60735840D01*
X143424000Y-60735840D01*
X143671765Y-60686557D01*
X143881809Y-60546209D01*
X143921899Y-60486210D01*
X144168126Y-60588200D01*
X144579874Y-60588200D01*
X144824463Y-60486888D01*
X144964302Y-60626727D01*
X145197691Y-60723400D01*
X146613250Y-60723400D01*
X146772000Y-60564650D01*
X146772000Y-59715400D01*
X146752000Y-59715400D01*
X146752000Y-59461400D01*
X146772000Y-59461400D01*
X146772000Y-58612150D01*
X146613250Y-58453400D01*
X145197691Y-58453400D01*
X144964302Y-58550073D01*
X144874243Y-58640131D01*
X144579874Y-58518200D01*
X144168126Y-58518200D01*
X143885056Y-58635451D01*
X143881809Y-58630591D01*
X143671765Y-58490243D01*
X143424000Y-58440960D01*
X140532217Y-58440960D01*
X140485337Y-58394080D01*
X140290558Y-58313400D01*
X140485337Y-58232720D01*
X140522217Y-58195840D01*
X143424000Y-58195840D01*
X143671765Y-58146557D01*
X143881809Y-58006209D01*
X143884114Y-58002759D01*
X144168126Y-58120400D01*
X144579874Y-58120400D01*
X144875516Y-57997941D01*
X144964302Y-58086727D01*
X145197691Y-58183400D01*
X146613250Y-58183400D01*
X146772000Y-58024650D01*
X146772000Y-57175400D01*
X146752000Y-57175400D01*
X146752000Y-56921400D01*
X146772000Y-56921400D01*
X146772000Y-56072150D01*
X146613250Y-55913400D01*
X145197691Y-55913400D01*
X144964302Y-56010073D01*
X144823190Y-56151184D01*
X144579874Y-56050400D01*
X144168126Y-56050400D01*
X143922841Y-56152000D01*
X143881809Y-56090591D01*
X143671765Y-55950243D01*
X143424000Y-55900960D01*
X140522217Y-55900960D01*
X140485337Y-55864080D01*
X139971881Y-55651400D01*
X139416119Y-55651400D01*
X138902663Y-55864080D01*
X138509680Y-56257063D01*
X138297000Y-56770519D01*
X138297000Y-57326281D01*
X138509680Y-57839737D01*
X138902663Y-58232720D01*
X139097442Y-58313400D01*
X138902663Y-58394080D01*
X138509680Y-58787063D01*
X138297000Y-59300519D01*
X138297000Y-59856281D01*
X138312909Y-59894689D01*
X137638030Y-60569569D01*
X137574571Y-60611971D01*
X137406596Y-60863364D01*
X137362500Y-61085049D01*
X137362500Y-61085053D01*
X137347612Y-61159900D01*
X137362500Y-61234747D01*
X137362501Y-82333548D01*
X137347612Y-82408400D01*
X137362501Y-82483252D01*
X137406597Y-82704937D01*
X137574572Y-82956329D01*
X137638027Y-82998729D01*
X138654573Y-84015275D01*
X138673356Y-84043387D01*
X138509680Y-84207063D01*
X138297000Y-84720519D01*
X138297000Y-85276281D01*
X138509680Y-85789737D01*
X138902663Y-86182720D01*
X139097442Y-86263400D01*
X138902663Y-86344080D01*
X138509680Y-86737063D01*
X138297000Y-87250519D01*
X138297000Y-87806281D01*
X138509680Y-88319737D01*
X138902663Y-88712720D01*
X139085371Y-88788400D01*
X138902663Y-88864080D01*
X138509680Y-89257063D01*
X138297000Y-89770519D01*
X138297000Y-90326281D01*
X138321696Y-90385903D01*
X138105130Y-90602469D01*
X138041671Y-90644871D01*
X137873696Y-90896264D01*
X137829600Y-91117949D01*
X137829600Y-91117953D01*
X137814712Y-91192800D01*
X137829600Y-91267647D01*
X137829601Y-93056448D01*
X137814712Y-93131300D01*
X137829601Y-93206152D01*
X137873697Y-93427837D01*
X138041672Y-93679229D01*
X138105128Y-93721629D01*
X139061771Y-94678273D01*
X139104171Y-94741729D01*
X139355563Y-94909704D01*
X139577248Y-94953800D01*
X139577253Y-94953800D01*
X139652100Y-94968688D01*
X139726947Y-94953800D01*
X146099628Y-94953800D01*
X145733974Y-95105259D01*
X145105259Y-95733974D01*
X144765000Y-96555431D01*
X144765000Y-97444569D01*
X145105259Y-98266026D01*
X145733974Y-98894741D01*
X146555431Y-99235000D01*
X147444569Y-99235000D01*
X147643175Y-99152735D01*
X147505910Y-99290000D01*
X102494092Y-99290000D01*
X102356827Y-99152736D01*
X102555431Y-99235000D01*
X103444569Y-99235000D01*
X104266026Y-98894741D01*
X104894741Y-98266026D01*
X105235000Y-97444569D01*
X105235000Y-96654887D01*
X105265000Y-96654887D01*
X105265000Y-97345113D01*
X105529138Y-97982799D01*
X106017201Y-98470862D01*
X106654887Y-98735000D01*
X107345113Y-98735000D01*
X107982799Y-98470862D01*
X108470862Y-97982799D01*
X108735000Y-97345113D01*
X108735000Y-96654887D01*
X141265000Y-96654887D01*
X141265000Y-97345113D01*
X141529138Y-97982799D01*
X142017201Y-98470862D01*
X142654887Y-98735000D01*
X143345113Y-98735000D01*
X143982799Y-98470862D01*
X144470862Y-97982799D01*
X144735000Y-97345113D01*
X144735000Y-96654887D01*
X144470862Y-96017201D01*
X143982799Y-95529138D01*
X143345113Y-95265000D01*
X142654887Y-95265000D01*
X142017201Y-95529138D01*
X141529138Y-96017201D01*
X141265000Y-96654887D01*
X108735000Y-96654887D01*
X108470862Y-96017201D01*
X107982799Y-95529138D01*
X107345113Y-95265000D01*
X106654887Y-95265000D01*
X106017201Y-95529138D01*
X105529138Y-96017201D01*
X105265000Y-96654887D01*
X105235000Y-96654887D01*
X105235000Y-96555431D01*
X104894741Y-95733974D01*
X104266026Y-95105259D01*
X103444569Y-94765000D01*
X102555431Y-94765000D01*
X101733974Y-95105259D01*
X101105259Y-95733974D01*
X100765000Y-96555431D01*
X100765000Y-97444569D01*
X100847265Y-97643175D01*
X100710000Y-97505910D01*
X100710000Y-52494090D01*
X100847265Y-52356825D01*
X100765000Y-52555431D01*
X100765000Y-53444569D01*
X101105259Y-54266026D01*
X101733974Y-54894741D01*
X102555431Y-55235000D01*
X103444569Y-55235000D01*
X104266026Y-54894741D01*
X104894741Y-54266026D01*
X105235000Y-53444569D01*
X105235000Y-52654887D01*
X105265000Y-52654887D01*
X105265000Y-53345113D01*
X105529138Y-53982799D01*
X106017201Y-54470862D01*
X106654887Y-54735000D01*
X107345113Y-54735000D01*
X107982799Y-54470862D01*
X108470862Y-53982799D01*
X108735000Y-53345113D01*
X108735000Y-52654887D01*
X141265000Y-52654887D01*
X141265000Y-53345113D01*
X141529138Y-53982799D01*
X142017201Y-54470862D01*
X142654887Y-54735000D01*
X143345113Y-54735000D01*
X143982799Y-54470862D01*
X144470862Y-53982799D01*
X144735000Y-53345113D01*
X144735000Y-52654887D01*
X144470862Y-52017201D01*
X143982799Y-51529138D01*
X143345113Y-51265000D01*
X142654887Y-51265000D01*
X142017201Y-51529138D01*
X141529138Y-52017201D01*
X141265000Y-52654887D01*
X108735000Y-52654887D01*
X108470862Y-52017201D01*
X107982799Y-51529138D01*
X107345113Y-51265000D01*
X106654887Y-51265000D01*
X106017201Y-51529138D01*
X105529138Y-52017201D01*
X105265000Y-52654887D01*
X105235000Y-52654887D01*
X105235000Y-52555431D01*
X104894741Y-51733974D01*
X104266026Y-51105259D01*
X103444569Y-50765000D01*
X102555431Y-50765000D01*
X102356827Y-50847264D01*
X102494092Y-50710000D01*
X147505910Y-50710000D01*
X147643175Y-50847265D01*
G04 #@! TD*
M02*
