M48
METRIC,TZ
T1C0.400
T2C1.000
%
G90
G05
T1
X139615Y-64757
X139628Y-72429
X143221Y-83648
X143248Y-76048
X143538Y-71011
X144239Y-86803
X144330Y-85758
X144374Y-57085
X144374Y-84571
X144374Y-90312
X144549Y-74530
X144591Y-62681
X144598Y-79893
X144599Y-77369
X144599Y-82533
X144611Y-68683
X144655Y-66959
X144657Y-59463
X145610Y-71018
X145635Y-66027
X146585Y-76098
X149072Y-79026
X149123Y-68036
X155929Y-70917
T2
X157120Y-54800
X157120Y-57340
X157120Y-59880
X157120Y-62420
X157120Y-64960
X157120Y-67500
X157120Y-70040
X157120Y-72580
X157120Y-75120
X157120Y-77660
X157120Y-80200
X157120Y-82740
X157120Y-85280
X157120Y-87820
X157120Y-90360
X157120Y-92900
X157120Y-95440
X195720Y-64960
X195720Y-67500
X195720Y-70040
X195720Y-72580
X195720Y-75120
X195720Y-77660
X195720Y-80200
X195720Y-82740
X195720Y-85280
T0
M30
