G04 #@! TF.GenerationSoftware,KiCad,Pcbnew,5.0.0-fee4fd1~65~ubuntu17.10.1*
G04 #@! TF.CreationDate,2018-07-21T10:10:14+09:00*
G04 #@! TF.ProjectId,M5StackSideBB,4D35537461636B5369646542422E6B69,rev?*
G04 #@! TF.SameCoordinates,Original*
G04 #@! TF.FileFunction,Copper,L1,Top,Signal*
G04 #@! TF.FilePolarity,Positive*
%FSLAX46Y46*%
G04 Gerber Fmt 4.6, Leading zero omitted, Abs format (unit mm)*
G04 Created by KiCad (PCBNEW 5.0.0-fee4fd1~65~ubuntu17.10.1) date Sat Jul 21 10:10:14 2018*
%MOMM*%
%LPD*%
G01*
G04 APERTURE LIST*
G04 #@! TA.AperFunction,SMDPad,CuDef*
%ADD10R,3.150000X1.000000*%
G04 #@! TD*
G04 #@! TA.AperFunction,BGAPad,CuDef*
%ADD11C,1.524000*%
G04 #@! TD*
G04 #@! TA.AperFunction,ComponentPad*
%ADD12R,1.700000X1.700000*%
G04 #@! TD*
G04 #@! TA.AperFunction,ComponentPad*
%ADD13O,1.700000X1.700000*%
G04 #@! TD*
G04 #@! TA.AperFunction,ViaPad*
%ADD14C,0.800000*%
G04 #@! TD*
G04 #@! TA.AperFunction,Conductor*
%ADD15C,0.250000*%
G04 #@! TD*
G04 #@! TA.AperFunction,Conductor*
%ADD16C,0.254000*%
G04 #@! TD*
G04 APERTURE END LIST*
D10*
G04 #@! TO.P,J3,1*
G04 #@! TO.N,G35*
X141849000Y-57048400D03*
G04 #@! TO.P,J3,2*
G04 #@! TO.N,GND*
X146899000Y-57048400D03*
G04 #@! TO.P,J3,3*
G04 #@! TO.N,G36*
X141849000Y-59588400D03*
G04 #@! TO.P,J3,4*
G04 #@! TO.N,GND*
X146899000Y-59588400D03*
G04 #@! TO.P,J3,5*
G04 #@! TO.N,RST*
X141849000Y-62128400D03*
G04 #@! TO.P,J3,6*
G04 #@! TO.N,GND*
X146899000Y-62128400D03*
G04 #@! TO.P,J3,7*
G04 #@! TO.N,G25*
X141849000Y-64668400D03*
G04 #@! TO.P,J3,8*
G04 #@! TO.N,G23*
X146899000Y-64668400D03*
G04 #@! TO.P,J3,9*
G04 #@! TO.N,G26*
X141849000Y-67208400D03*
G04 #@! TO.P,J3,10*
G04 #@! TO.N,G19*
X146899000Y-67208400D03*
G04 #@! TO.P,J3,11*
G04 #@! TO.N,+3V3*
X141849000Y-69748400D03*
G04 #@! TO.P,J3,12*
G04 #@! TO.N,G18*
X146899000Y-69748400D03*
G04 #@! TO.P,J3,13*
G04 #@! TO.N,G1*
X141849000Y-72288400D03*
G04 #@! TO.P,J3,14*
G04 #@! TO.N,G3*
X146899000Y-72288400D03*
G04 #@! TO.P,J3,15*
G04 #@! TO.N,G17*
X141849000Y-74828400D03*
G04 #@! TO.P,J3,16*
G04 #@! TO.N,G16*
X146899000Y-74828400D03*
G04 #@! TO.P,J3,17*
G04 #@! TO.N,G22*
X141849000Y-77368400D03*
G04 #@! TO.P,J3,18*
G04 #@! TO.N,G21*
X146899000Y-77368400D03*
G04 #@! TO.P,J3,19*
G04 #@! TO.N,G5*
X141849000Y-79908400D03*
G04 #@! TO.P,J3,20*
G04 #@! TO.N,G2*
X146899000Y-79908400D03*
G04 #@! TO.P,J3,21*
G04 #@! TO.N,G13*
X141849000Y-82448400D03*
G04 #@! TO.P,J3,22*
G04 #@! TO.N,G12*
X146899000Y-82448400D03*
G04 #@! TO.P,J3,23*
G04 #@! TO.N,G0*
X141849000Y-84988400D03*
G04 #@! TO.P,J3,24*
G04 #@! TO.N,G15*
X146899000Y-84988400D03*
G04 #@! TO.P,J3,25*
G04 #@! TO.N,G34*
X141849000Y-87528400D03*
G04 #@! TO.P,J3,26*
G04 #@! TO.N,HPWR*
X146899000Y-87528400D03*
G04 #@! TO.P,J3,27*
G04 #@! TO.N,+5V*
X141849000Y-90068400D03*
G04 #@! TO.P,J3,28*
G04 #@! TO.N,HPWR*
X146899000Y-90068400D03*
G04 #@! TO.P,J3,29*
G04 #@! TO.N,+BATT*
X141849000Y-92608400D03*
G04 #@! TO.P,J3,30*
G04 #@! TO.N,HPWR*
X146899000Y-92608400D03*
D11*
G04 #@! TO.P,J3,1*
G04 #@! TO.N,G35*
X139694000Y-57048400D03*
G04 #@! TO.P,J3,3*
G04 #@! TO.N,G36*
X139694000Y-59578400D03*
G04 #@! TO.P,J3,5*
G04 #@! TO.N,RST*
X139694000Y-62138400D03*
G04 #@! TO.P,J3,7*
G04 #@! TO.N,G25*
X139694000Y-64648400D03*
G04 #@! TO.P,J3,9*
G04 #@! TO.N,G26*
X139694000Y-67178400D03*
G04 #@! TO.P,J3,11*
G04 #@! TO.N,+3V3*
X139694000Y-69758400D03*
G04 #@! TO.P,J3,13*
G04 #@! TO.N,G1*
X139694000Y-72268400D03*
G04 #@! TO.P,J3,15*
G04 #@! TO.N,G17*
X139694000Y-74838400D03*
G04 #@! TO.P,J3,17*
G04 #@! TO.N,G22*
X139694000Y-77358400D03*
G04 #@! TO.P,J3,19*
G04 #@! TO.N,G5*
X139694000Y-79888400D03*
G04 #@! TO.P,J3,21*
G04 #@! TO.N,G13*
X139694000Y-82428400D03*
G04 #@! TO.P,J3,23*
G04 #@! TO.N,G0*
X139694000Y-84998400D03*
G04 #@! TO.P,J3,25*
G04 #@! TO.N,G34*
X139694000Y-87528400D03*
G04 #@! TO.P,J3,27*
G04 #@! TO.N,+5V*
X139694000Y-90048400D03*
G04 #@! TO.P,J3,29*
G04 #@! TO.N,+BATT*
X139694000Y-92628400D03*
G04 #@! TO.P,J3,2*
G04 #@! TO.N,GND*
X149054000Y-57048400D03*
G04 #@! TO.P,J3,4*
X149054000Y-59608400D03*
G04 #@! TO.P,J3,6*
X149054000Y-62138400D03*
G04 #@! TO.P,J3,8*
G04 #@! TO.N,G23*
X149054000Y-64658400D03*
G04 #@! TO.P,J3,10*
G04 #@! TO.N,G19*
X149054000Y-67198400D03*
G04 #@! TO.P,J3,12*
G04 #@! TO.N,G18*
X149054000Y-69748400D03*
G04 #@! TO.P,J3,14*
G04 #@! TO.N,G3*
X149054000Y-72278400D03*
G04 #@! TO.P,J3,16*
G04 #@! TO.N,G16*
X149054000Y-74838400D03*
G04 #@! TO.P,J3,18*
G04 #@! TO.N,G21*
X149054000Y-77358400D03*
G04 #@! TO.P,J3,20*
G04 #@! TO.N,G2*
X149054000Y-79898400D03*
G04 #@! TO.P,J3,22*
G04 #@! TO.N,G12*
X149054000Y-82438400D03*
G04 #@! TO.P,J3,24*
G04 #@! TO.N,G15*
X149054000Y-84988400D03*
G04 #@! TO.P,J3,26*
G04 #@! TO.N,HPWR*
X149054000Y-87518400D03*
G04 #@! TO.P,J3,28*
X149054000Y-90078400D03*
G04 #@! TO.P,J3,30*
X149054000Y-92608400D03*
G04 #@! TD*
D12*
G04 #@! TO.P,J1,1*
G04 #@! TO.N,G2*
X181585000Y-56070000D03*
D13*
G04 #@! TO.P,J1,2*
G04 #@! TO.N,G5*
X179045000Y-56070000D03*
G04 #@! TO.P,J1,3*
G04 #@! TO.N,G25*
X176505000Y-56070000D03*
G04 #@! TO.P,J1,4*
G04 #@! TO.N,G26*
X173965000Y-56070000D03*
G04 #@! TO.P,J1,5*
G04 #@! TO.N,G35*
X171425000Y-56070000D03*
G04 #@! TO.P,J1,6*
G04 #@! TO.N,G36*
X168885000Y-56070000D03*
G04 #@! TO.P,J1,7*
G04 #@! TO.N,RST*
X166345000Y-56070000D03*
G04 #@! TO.P,J1,8*
G04 #@! TO.N,+BATT*
X163805000Y-56070000D03*
G04 #@! TO.P,J1,9*
G04 #@! TO.N,+3V3*
X161265000Y-56070000D03*
G04 #@! TO.P,J1,10*
G04 #@! TO.N,+5V*
X158725000Y-56070000D03*
G04 #@! TO.P,J1,11*
G04 #@! TO.N,GND*
X156185000Y-56070000D03*
G04 #@! TD*
G04 #@! TO.P,J2,11*
G04 #@! TO.N,GND*
X181585000Y-94170000D03*
G04 #@! TO.P,J2,10*
G04 #@! TO.N,+3V3*
X179045000Y-94170000D03*
G04 #@! TO.P,J2,9*
G04 #@! TO.N,G23*
X176505000Y-94170000D03*
G04 #@! TO.P,J2,8*
G04 #@! TO.N,G22*
X173965000Y-94170000D03*
G04 #@! TO.P,J2,7*
G04 #@! TO.N,G21*
X171425000Y-94170000D03*
G04 #@! TO.P,J2,6*
G04 #@! TO.N,G19*
X168885000Y-94170000D03*
G04 #@! TO.P,J2,5*
G04 #@! TO.N,G18*
X166345000Y-94170000D03*
G04 #@! TO.P,J2,4*
G04 #@! TO.N,G17*
X163805000Y-94170000D03*
G04 #@! TO.P,J2,3*
G04 #@! TO.N,G16*
X161265000Y-94170000D03*
G04 #@! TO.P,J2,2*
G04 #@! TO.N,G1*
X158725000Y-94170000D03*
D12*
G04 #@! TO.P,J2,1*
G04 #@! TO.N,G3*
X156185000Y-94170000D03*
G04 #@! TD*
D14*
G04 #@! TO.N,GND*
X149054000Y-57048400D03*
X149054000Y-59608400D03*
X149054000Y-62138400D03*
X152552400Y-56896000D03*
X152958800Y-59283600D03*
X155397200Y-52425600D03*
X140258800Y-53898800D03*
X156819600Y-59690000D03*
X157429200Y-62077600D03*
X163271200Y-62280800D03*
X165912800Y-65481200D03*
X161747200Y-67868800D03*
G04 #@! TO.N,G23*
X150512800Y-64656800D03*
G04 #@! TO.N,G19*
X147219400Y-66027000D03*
G04 #@! TO.N,G18*
X147210300Y-68579700D03*
G04 #@! TO.N,G3*
X151144400Y-74988400D03*
G04 #@! TO.N,G16*
X147219400Y-73698600D03*
G04 #@! TO.N,G2*
X145577500Y-78638400D03*
G04 #@! TO.N,G12*
X144564200Y-81870200D03*
G04 #@! TO.N,G15*
X144564200Y-85071000D03*
G04 #@! TO.N,HPWR*
X147370600Y-88744600D03*
G04 #@! TO.N,+BATT*
X139031300Y-91338400D03*
G04 #@! TO.N,+5V*
X141374500Y-91217400D03*
G04 #@! TO.N,G34*
X141218100Y-86259600D03*
G04 #@! TO.N,G0*
X141213100Y-83717100D03*
G04 #@! TO.N,G13*
X140563900Y-81334900D03*
G04 #@! TO.N,G5*
X143058000Y-78621600D03*
G04 #@! TO.N,G22*
X144104500Y-77211900D03*
G04 #@! TO.N,G17*
X144317700Y-75108700D03*
G04 #@! TO.N,G1*
X143179200Y-71039400D03*
G04 #@! TO.N,G26*
X143147300Y-66027000D03*
G04 #@! TO.N,G25*
X140840300Y-65998600D03*
G04 #@! TO.N,+3V3*
X144273000Y-70016300D03*
G04 #@! TD*
D15*
G04 #@! TO.N,GND*
X155206600Y-57048400D02*
X156185000Y-56070000D01*
X149054000Y-57048400D02*
X155206600Y-57048400D01*
X146899000Y-57048400D02*
X149054000Y-57048400D01*
X149034000Y-59588400D02*
X149054000Y-59608400D01*
X146899000Y-59588400D02*
X149034000Y-59588400D01*
X149044000Y-62128400D02*
X149054000Y-62138400D01*
X146899000Y-62128400D02*
X149044000Y-62128400D01*
X153378400Y-56070000D02*
X156185000Y-56070000D01*
X152552400Y-56896000D02*
X153378400Y-56070000D01*
X185420000Y-91537081D02*
X185420000Y-57619998D01*
X182787081Y-94170000D02*
X185420000Y-91537081D01*
X181585000Y-94170000D02*
X182787081Y-94170000D01*
X185420000Y-57619998D02*
X180225602Y-52425600D01*
X180225602Y-52425600D02*
X155397200Y-52425600D01*
X152958800Y-59283600D02*
X156413200Y-59283600D01*
X156413200Y-59283600D02*
X156819600Y-59690000D01*
X157429200Y-62077600D02*
X163068000Y-62077600D01*
X163068000Y-62077600D02*
X163271200Y-62280800D01*
X165912800Y-65481200D02*
X164134800Y-65481200D01*
X164134800Y-65481200D02*
X161747200Y-67868800D01*
G04 #@! TO.N,G23*
X149054000Y-64658400D02*
X150511200Y-64658400D01*
X150511200Y-64658400D02*
X150512800Y-64656800D01*
X148799300Y-64668400D02*
X148809300Y-64658400D01*
X148809300Y-64658400D02*
X149054000Y-64658400D01*
X146899000Y-64668400D02*
X148799300Y-64668400D01*
G04 #@! TO.N,G19*
X147219400Y-67208400D02*
X148799300Y-67208400D01*
X146899000Y-67208400D02*
X147219400Y-67208400D01*
X147219400Y-66027000D02*
X147219400Y-67208400D01*
X149054000Y-67198400D02*
X148809300Y-67198400D01*
X148809300Y-67198400D02*
X148799300Y-67208400D01*
G04 #@! TO.N,G18*
X147210300Y-69748400D02*
X146899000Y-69748400D01*
X149054000Y-69748400D02*
X147210300Y-69748400D01*
X147210300Y-69748400D02*
X147210300Y-68579700D01*
G04 #@! TO.N,G3*
X151144400Y-74988400D02*
X151144400Y-74368800D01*
X151144400Y-74368800D02*
X149054000Y-72278400D01*
X146899000Y-72288400D02*
X148799300Y-72288400D01*
X148799300Y-72288400D02*
X148809300Y-72278400D01*
X148809300Y-72278400D02*
X149054000Y-72278400D01*
G04 #@! TO.N,G16*
X147219400Y-74828400D02*
X148799300Y-74828400D01*
X146899000Y-74828400D02*
X147219400Y-74828400D01*
X147219400Y-73698600D02*
X147219400Y-74828400D01*
X149054000Y-74838400D02*
X148809300Y-74838400D01*
X148809300Y-74838400D02*
X148799300Y-74828400D01*
G04 #@! TO.N,G21*
X146899000Y-77368400D02*
X148799300Y-77368400D01*
X149054000Y-77358400D02*
X148809300Y-77358400D01*
X148809300Y-77358400D02*
X148799300Y-77368400D01*
X170249700Y-94170000D02*
X170249700Y-93802700D01*
X170249700Y-93802700D02*
X153805400Y-77358400D01*
X153805400Y-77358400D02*
X149054000Y-77358400D01*
X171425000Y-94170000D02*
X170249700Y-94170000D01*
G04 #@! TO.N,G2*
X144998700Y-78638400D02*
X144998700Y-79908400D01*
X180409700Y-56070000D02*
X180409700Y-56437300D01*
X180409700Y-56437300D02*
X160748600Y-76098400D01*
X160748600Y-76098400D02*
X145603600Y-76098400D01*
X145603600Y-76098400D02*
X144998700Y-76703300D01*
X144998700Y-76703300D02*
X144998700Y-78638400D01*
X144998700Y-78638400D02*
X145577500Y-78638400D01*
X146899000Y-79908400D02*
X144998700Y-79908400D01*
X181585000Y-56070000D02*
X180409700Y-56070000D01*
X146899000Y-79908400D02*
X148799300Y-79908400D01*
X149054000Y-79898400D02*
X148809300Y-79898400D01*
X148809300Y-79898400D02*
X148799300Y-79908400D01*
G04 #@! TO.N,G12*
X146899000Y-82448400D02*
X148799300Y-82448400D01*
X149054000Y-82438400D02*
X148809300Y-82438400D01*
X148809300Y-82438400D02*
X148799300Y-82448400D01*
X146899000Y-82448400D02*
X144998700Y-82448400D01*
X144998700Y-82448400D02*
X144998700Y-82304700D01*
X144998700Y-82304700D02*
X144564200Y-81870200D01*
G04 #@! TO.N,G15*
X146899000Y-84988400D02*
X144646800Y-84988400D01*
X144646800Y-84988400D02*
X144564200Y-85071000D01*
X149054000Y-84988400D02*
X146899000Y-84988400D01*
G04 #@! TO.N,HPWR*
X149054000Y-90078400D02*
X149054000Y-92608400D01*
X149054000Y-90078400D02*
X148809300Y-90078400D01*
X148809300Y-90078400D02*
X148799300Y-90068400D01*
X149054000Y-92608400D02*
X146899000Y-92608400D01*
X147849200Y-88744600D02*
X147849200Y-87528400D01*
X147849200Y-90068400D02*
X147849200Y-88744600D01*
X147849200Y-88744600D02*
X147370600Y-88744600D01*
X147849200Y-90068400D02*
X148799300Y-90068400D01*
X146899000Y-90068400D02*
X147849200Y-90068400D01*
X147849200Y-87528400D02*
X148799300Y-87528400D01*
X146899000Y-87528400D02*
X147849200Y-87528400D01*
X149054000Y-87518400D02*
X148809300Y-87518400D01*
X148809300Y-87518400D02*
X148799300Y-87528400D01*
G04 #@! TO.N,+BATT*
X139694000Y-92608400D02*
X139694000Y-92001100D01*
X139694000Y-92001100D02*
X139031300Y-91338400D01*
X139694000Y-92628400D02*
X139694000Y-92608400D01*
X139694000Y-92608400D02*
X139948700Y-92608400D01*
X141849000Y-92608400D02*
X139948700Y-92608400D01*
G04 #@! TO.N,+5V*
X140898900Y-90068400D02*
X140898900Y-90741800D01*
X140898900Y-90741800D02*
X141374500Y-91217400D01*
X140898900Y-90068400D02*
X139948700Y-90068400D01*
X141849000Y-90068400D02*
X140898900Y-90068400D01*
X139948700Y-90068400D02*
X139928700Y-90048400D01*
X139928700Y-90048400D02*
X139694000Y-90048400D01*
G04 #@! TO.N,G34*
X141218100Y-87528400D02*
X141849000Y-87528400D01*
X139694000Y-87528400D02*
X141218100Y-87528400D01*
X141218100Y-87528400D02*
X141218100Y-86259600D01*
G04 #@! TO.N,G0*
X141218100Y-84988400D02*
X141213100Y-84983400D01*
X141213100Y-84983400D02*
X141213100Y-83717100D01*
X141218100Y-84988400D02*
X139948700Y-84988400D01*
X141849000Y-84988400D02*
X141218100Y-84988400D01*
X139694000Y-84998400D02*
X139938700Y-84998400D01*
X139938700Y-84998400D02*
X139948700Y-84988400D01*
G04 #@! TO.N,G13*
X140330900Y-82448400D02*
X140330900Y-81567900D01*
X140330900Y-81567900D02*
X140563900Y-81334900D01*
X140330900Y-82448400D02*
X139948700Y-82448400D01*
X141849000Y-82448400D02*
X140330900Y-82448400D01*
X139694000Y-82428400D02*
X139928700Y-82428400D01*
X139928700Y-82428400D02*
X139948700Y-82448400D01*
G04 #@! TO.N,G5*
X141810100Y-79908400D02*
X143058000Y-78660500D01*
X143058000Y-78660500D02*
X143058000Y-78621600D01*
X141810100Y-79908400D02*
X141771200Y-79908400D01*
X141849000Y-79908400D02*
X141810100Y-79908400D01*
X140956400Y-79908400D02*
X139948700Y-79908400D01*
X140956400Y-79908400D02*
X141771200Y-79908400D01*
X179045000Y-56070000D02*
X177869700Y-56070000D01*
X177869700Y-56070000D02*
X177869700Y-56437300D01*
X177869700Y-56437300D02*
X163293600Y-71013400D01*
X163293600Y-71013400D02*
X145573200Y-71013400D01*
X145573200Y-71013400D02*
X143820000Y-72766600D01*
X143820000Y-72766600D02*
X143820000Y-72884400D01*
X143820000Y-72884400D02*
X143151000Y-73553400D01*
X143151000Y-73553400D02*
X139388400Y-73553400D01*
X139388400Y-73553400D02*
X138606700Y-74335100D01*
X138606700Y-74335100D02*
X138606700Y-78801100D01*
X138606700Y-78801100D02*
X139694000Y-79888400D01*
X139694000Y-79888400D02*
X139928700Y-79888400D01*
X139928700Y-79888400D02*
X139948700Y-79908400D01*
G04 #@! TO.N,G22*
X143948000Y-77368400D02*
X144104500Y-77211900D01*
X142799200Y-77368400D02*
X143948000Y-77368400D01*
X172789700Y-94170000D02*
X172789700Y-94537300D01*
X172789700Y-94537300D02*
X171960000Y-95367000D01*
X171960000Y-95367000D02*
X168355800Y-95367000D01*
X168355800Y-95367000D02*
X167615000Y-94626200D01*
X167615000Y-94626200D02*
X167615000Y-93708400D01*
X167615000Y-93708400D02*
X155051400Y-81144800D01*
X155051400Y-81144800D02*
X145593000Y-81144800D01*
X145593000Y-81144800D02*
X143948000Y-79499800D01*
X143948000Y-79499800D02*
X143948000Y-77368400D01*
X141849000Y-77368400D02*
X142799200Y-77368400D01*
X173965000Y-94170000D02*
X172789700Y-94170000D01*
X141849000Y-77368400D02*
X139948700Y-77368400D01*
X139694000Y-77358400D02*
X139938700Y-77358400D01*
X139938700Y-77358400D02*
X139948700Y-77368400D01*
G04 #@! TO.N,G17*
X141849000Y-74828400D02*
X143749300Y-74828400D01*
X144317700Y-75108700D02*
X144029600Y-75108700D01*
X144029600Y-75108700D02*
X143749300Y-74828400D01*
X141361700Y-74828400D02*
X141849000Y-74828400D01*
X141361700Y-74828400D02*
X139948700Y-74828400D01*
X139694000Y-74838400D02*
X139938700Y-74838400D01*
X139938700Y-74838400D02*
X139948700Y-74828400D01*
G04 #@! TO.N,G1*
X139694000Y-72288400D02*
X139694000Y-72268400D01*
X149482200Y-93754300D02*
X139281800Y-93754300D01*
X138131300Y-92603800D02*
X138131300Y-73851100D01*
X138131300Y-73851100D02*
X139694000Y-72288400D01*
X139694000Y-72288400D02*
X139948700Y-72288400D01*
X141849000Y-72288400D02*
X139948700Y-72288400D01*
X143179200Y-71039400D02*
X143098000Y-71039400D01*
X143098000Y-71039400D02*
X141849000Y-72288400D01*
X158725000Y-94170000D02*
X157549700Y-94170000D01*
X157549700Y-93362000D02*
X157182300Y-92994600D01*
X157549700Y-94170000D02*
X157549700Y-93362000D01*
X157182300Y-92994600D02*
X150241900Y-92994600D01*
X150241900Y-92994600D02*
X149482200Y-93754300D01*
X139281800Y-93754300D02*
X138131300Y-92603800D01*
G04 #@! TO.N,G26*
X172789700Y-56070000D02*
X172789700Y-56437300D01*
X172789700Y-56437300D02*
X165828600Y-63398400D01*
X165828600Y-63398400D02*
X145583000Y-63398400D01*
X145583000Y-63398400D02*
X144195400Y-64786000D01*
X144195400Y-64786000D02*
X144195400Y-64978900D01*
X144195400Y-64978900D02*
X143147300Y-66027000D01*
X143147300Y-66027000D02*
X143147300Y-66860300D01*
X143147300Y-66860300D02*
X142799200Y-67208400D01*
X173965000Y-56070000D02*
X172789700Y-56070000D01*
X141849000Y-67208400D02*
X142799200Y-67208400D01*
X141761600Y-67208400D02*
X141849000Y-67208400D01*
X141761600Y-67208400D02*
X141674200Y-67208400D01*
X140898900Y-67208400D02*
X139948700Y-67208400D01*
X140898900Y-67208400D02*
X141674200Y-67208400D01*
X139694000Y-67178400D02*
X139918700Y-67178400D01*
X139918700Y-67178400D02*
X139948700Y-67208400D01*
G04 #@! TO.N,G25*
X176505000Y-56070000D02*
X175329700Y-56070000D01*
X175329700Y-56070000D02*
X175329700Y-55702700D01*
X175329700Y-55702700D02*
X173570400Y-53943400D01*
X173570400Y-53943400D02*
X149607300Y-53943400D01*
X149607300Y-53943400D02*
X148420700Y-55130000D01*
X148420700Y-55130000D02*
X140069300Y-55130000D01*
X140069300Y-55130000D02*
X138538100Y-56661200D01*
X138538100Y-56661200D02*
X138538100Y-63492500D01*
X138538100Y-63492500D02*
X139694000Y-64648400D01*
X140898900Y-64668400D02*
X140840300Y-64727000D01*
X140840300Y-64727000D02*
X140840300Y-65998600D01*
X140898900Y-64668400D02*
X139948700Y-64668400D01*
X141849000Y-64668400D02*
X140898900Y-64668400D01*
X139694000Y-64648400D02*
X139928700Y-64648400D01*
X139928700Y-64648400D02*
X139948700Y-64668400D01*
G04 #@! TO.N,RST*
X166345000Y-56070000D02*
X165169700Y-56070000D01*
X165169700Y-56070000D02*
X165169700Y-56437300D01*
X165169700Y-56437300D02*
X160733600Y-60873400D01*
X160733600Y-60873400D02*
X145598200Y-60873400D01*
X145598200Y-60873400D02*
X144343200Y-62128400D01*
X144343200Y-62128400D02*
X141849000Y-62128400D01*
X141849000Y-62128400D02*
X139948700Y-62128400D01*
X139694000Y-62138400D02*
X139938700Y-62138400D01*
X139938700Y-62138400D02*
X139948700Y-62128400D01*
G04 #@! TO.N,G36*
X143749300Y-59588400D02*
X144343200Y-59588400D01*
X144343200Y-59588400D02*
X145603200Y-58328400D01*
X145603200Y-58328400D02*
X160762100Y-58328400D01*
X160762100Y-58328400D02*
X162535000Y-56555500D01*
X162535000Y-56555500D02*
X162535000Y-55668300D01*
X162535000Y-55668300D02*
X163334700Y-54868600D01*
X163334700Y-54868600D02*
X166875600Y-54868600D01*
X166875600Y-54868600D02*
X167709700Y-55702700D01*
X167709700Y-55702700D02*
X167709700Y-56070000D01*
X141849000Y-59588400D02*
X143749300Y-59588400D01*
X141849000Y-59588400D02*
X139948700Y-59588400D01*
X139694000Y-59578400D02*
X139938700Y-59578400D01*
X139938700Y-59578400D02*
X139948700Y-59588400D01*
X168885000Y-56070000D02*
X167709700Y-56070000D01*
G04 #@! TO.N,G35*
X141849000Y-57048400D02*
X143749300Y-57048400D01*
X171425000Y-56070000D02*
X170249700Y-56070000D01*
X170249700Y-56070000D02*
X170249700Y-55702700D01*
X170249700Y-55702700D02*
X168940800Y-54393800D01*
X168940800Y-54393800D02*
X152015900Y-54393800D01*
X152015900Y-54393800D02*
X150829300Y-55580400D01*
X150829300Y-55580400D02*
X145217300Y-55580400D01*
X145217300Y-55580400D02*
X143749300Y-57048400D01*
X139694000Y-57048400D02*
X141849000Y-57048400D01*
G04 #@! TO.N,+3V3*
X144273000Y-70016300D02*
X144005100Y-69748400D01*
X144005100Y-69748400D02*
X141849000Y-69748400D01*
X140898900Y-69748400D02*
X141849000Y-69748400D01*
X140898900Y-69748400D02*
X139948700Y-69748400D01*
X139694000Y-69758400D02*
X139938700Y-69758400D01*
X139938700Y-69758400D02*
X139948700Y-69748400D01*
G04 #@! TD*
D16*
G04 #@! TO.N,GND*
G36*
X147643175Y-50847265D02*
X147444569Y-50765000D01*
X146555431Y-50765000D01*
X145733974Y-51105259D01*
X145105259Y-51733974D01*
X144765000Y-52555431D01*
X144765000Y-53444569D01*
X145105259Y-54266026D01*
X145209233Y-54370000D01*
X144083661Y-54370000D01*
X144470862Y-53982799D01*
X144735000Y-53345113D01*
X144735000Y-52654887D01*
X144470862Y-52017201D01*
X143982799Y-51529138D01*
X143345113Y-51265000D01*
X142654887Y-51265000D01*
X142017201Y-51529138D01*
X141529138Y-52017201D01*
X141265000Y-52654887D01*
X141265000Y-53345113D01*
X141529138Y-53982799D01*
X141916339Y-54370000D01*
X140144148Y-54370000D01*
X140069300Y-54355112D01*
X139994452Y-54370000D01*
X139994448Y-54370000D01*
X139820905Y-54404520D01*
X139772762Y-54414096D01*
X139585718Y-54539076D01*
X139521371Y-54582071D01*
X139478971Y-54645527D01*
X138053630Y-56070869D01*
X137990171Y-56113271D01*
X137822196Y-56364664D01*
X137778100Y-56586349D01*
X137778100Y-56586353D01*
X137763212Y-56661200D01*
X137778100Y-56736047D01*
X137778101Y-63417648D01*
X137763212Y-63492500D01*
X137778101Y-63567352D01*
X137806593Y-63710591D01*
X137822197Y-63789037D01*
X137931418Y-63952497D01*
X137990172Y-64040429D01*
X138053628Y-64082829D01*
X138309980Y-64339182D01*
X138297000Y-64370519D01*
X138297000Y-64926281D01*
X138509680Y-65439737D01*
X138902663Y-65832720D01*
X139097442Y-65913400D01*
X138902663Y-65994080D01*
X138509680Y-66387063D01*
X138297000Y-66900519D01*
X138297000Y-67456281D01*
X138509680Y-67969737D01*
X138902663Y-68362720D01*
X139157798Y-68468400D01*
X138902663Y-68574080D01*
X138509680Y-68967063D01*
X138297000Y-69480519D01*
X138297000Y-70036281D01*
X138509680Y-70549737D01*
X138902663Y-70942720D01*
X139073300Y-71013400D01*
X138902663Y-71084080D01*
X138509680Y-71477063D01*
X138297000Y-71990519D01*
X138297000Y-72546281D01*
X138315838Y-72591760D01*
X137646828Y-73260771D01*
X137583372Y-73303171D01*
X137540972Y-73366627D01*
X137540971Y-73366628D01*
X137415397Y-73554563D01*
X137356412Y-73851100D01*
X137371301Y-73925952D01*
X137371300Y-92528953D01*
X137356412Y-92603800D01*
X137371300Y-92678647D01*
X137371300Y-92678651D01*
X137415396Y-92900336D01*
X137583371Y-93151729D01*
X137646830Y-93194131D01*
X138691471Y-94238773D01*
X138733871Y-94302229D01*
X138797327Y-94344629D01*
X138985262Y-94470204D01*
X139033405Y-94479780D01*
X139206948Y-94514300D01*
X139206952Y-94514300D01*
X139281800Y-94529188D01*
X139356648Y-94514300D01*
X149407353Y-94514300D01*
X149482200Y-94529188D01*
X149557047Y-94514300D01*
X149557052Y-94514300D01*
X149778737Y-94470204D01*
X150030129Y-94302229D01*
X150072531Y-94238770D01*
X150556702Y-93754600D01*
X154687560Y-93754600D01*
X154687560Y-95020000D01*
X154736843Y-95267765D01*
X154877191Y-95477809D01*
X155087235Y-95618157D01*
X155335000Y-95667440D01*
X157035000Y-95667440D01*
X157282765Y-95618157D01*
X157492809Y-95477809D01*
X157633157Y-95267765D01*
X157642184Y-95222381D01*
X157654375Y-95240625D01*
X158145582Y-95568839D01*
X158578744Y-95655000D01*
X158871256Y-95655000D01*
X159304418Y-95568839D01*
X159795625Y-95240625D01*
X159995000Y-94942239D01*
X160194375Y-95240625D01*
X160685582Y-95568839D01*
X161118744Y-95655000D01*
X161411256Y-95655000D01*
X161844418Y-95568839D01*
X162335625Y-95240625D01*
X162535000Y-94942239D01*
X162734375Y-95240625D01*
X163225582Y-95568839D01*
X163658744Y-95655000D01*
X163951256Y-95655000D01*
X164384418Y-95568839D01*
X164875625Y-95240625D01*
X165075000Y-94942239D01*
X165274375Y-95240625D01*
X165765582Y-95568839D01*
X166198744Y-95655000D01*
X166491256Y-95655000D01*
X166924418Y-95568839D01*
X167259166Y-95345168D01*
X167765473Y-95851475D01*
X167807871Y-95914929D01*
X167871324Y-95957327D01*
X167871326Y-95957329D01*
X167996702Y-96041102D01*
X168059263Y-96082904D01*
X168280948Y-96127000D01*
X168280952Y-96127000D01*
X168355799Y-96141888D01*
X168430646Y-96127000D01*
X171885153Y-96127000D01*
X171960000Y-96141888D01*
X172034847Y-96127000D01*
X172034852Y-96127000D01*
X172256537Y-96082904D01*
X172507929Y-95914929D01*
X172550331Y-95851470D01*
X173054311Y-95347491D01*
X173385582Y-95568839D01*
X173818744Y-95655000D01*
X174111256Y-95655000D01*
X174544418Y-95568839D01*
X175035625Y-95240625D01*
X175235000Y-94942239D01*
X175434375Y-95240625D01*
X175925582Y-95568839D01*
X176358744Y-95655000D01*
X176651256Y-95655000D01*
X177084418Y-95568839D01*
X177575625Y-95240625D01*
X177775000Y-94942239D01*
X177974375Y-95240625D01*
X178465582Y-95568839D01*
X178898744Y-95655000D01*
X179191256Y-95655000D01*
X179624418Y-95568839D01*
X180115625Y-95240625D01*
X180328843Y-94921522D01*
X180389817Y-95051358D01*
X180818076Y-95441645D01*
X181228110Y-95611476D01*
X181458000Y-95490155D01*
X181458000Y-94297000D01*
X181712000Y-94297000D01*
X181712000Y-95490155D01*
X181941890Y-95611476D01*
X182351924Y-95441645D01*
X182780183Y-95051358D01*
X183026486Y-94526892D01*
X182905819Y-94297000D01*
X181712000Y-94297000D01*
X181458000Y-94297000D01*
X181438000Y-94297000D01*
X181438000Y-94043000D01*
X181458000Y-94043000D01*
X181458000Y-92849845D01*
X181712000Y-92849845D01*
X181712000Y-94043000D01*
X182905819Y-94043000D01*
X183026486Y-93813108D01*
X182780183Y-93288642D01*
X182351924Y-92898355D01*
X181941890Y-92728524D01*
X181712000Y-92849845D01*
X181458000Y-92849845D01*
X181228110Y-92728524D01*
X180818076Y-92898355D01*
X180389817Y-93288642D01*
X180328843Y-93418478D01*
X180115625Y-93099375D01*
X179624418Y-92771161D01*
X179191256Y-92685000D01*
X178898744Y-92685000D01*
X178465582Y-92771161D01*
X177974375Y-93099375D01*
X177775000Y-93397761D01*
X177575625Y-93099375D01*
X177084418Y-92771161D01*
X176651256Y-92685000D01*
X176358744Y-92685000D01*
X175925582Y-92771161D01*
X175434375Y-93099375D01*
X175235000Y-93397761D01*
X175035625Y-93099375D01*
X174544418Y-92771161D01*
X174111256Y-92685000D01*
X173818744Y-92685000D01*
X173385582Y-92771161D01*
X172894375Y-93099375D01*
X172695000Y-93397761D01*
X172495625Y-93099375D01*
X172004418Y-92771161D01*
X171571256Y-92685000D01*
X171278744Y-92685000D01*
X170845582Y-92771161D01*
X170514311Y-92992509D01*
X154395731Y-76873930D01*
X154385354Y-76858400D01*
X160673753Y-76858400D01*
X160748600Y-76873288D01*
X160823447Y-76858400D01*
X160823452Y-76858400D01*
X161045137Y-76814304D01*
X161296529Y-76646329D01*
X161338931Y-76582870D01*
X180437127Y-57484675D01*
X180487235Y-57518157D01*
X180735000Y-57567440D01*
X182435000Y-57567440D01*
X182682765Y-57518157D01*
X182892809Y-57377809D01*
X183033157Y-57167765D01*
X183082440Y-56920000D01*
X183082440Y-55220000D01*
X183033157Y-54972235D01*
X182892809Y-54762191D01*
X182682765Y-54621843D01*
X182435000Y-54572560D01*
X180735000Y-54572560D01*
X180487235Y-54621843D01*
X180277191Y-54762191D01*
X180136843Y-54972235D01*
X180127816Y-55017619D01*
X180115625Y-54999375D01*
X179624418Y-54671161D01*
X179191256Y-54585000D01*
X178898744Y-54585000D01*
X178465582Y-54671161D01*
X177974375Y-54999375D01*
X177775000Y-55297761D01*
X177575625Y-54999375D01*
X177084418Y-54671161D01*
X176651256Y-54585000D01*
X176358744Y-54585000D01*
X175925582Y-54671161D01*
X175594311Y-54892509D01*
X174160731Y-53458930D01*
X174118329Y-53395471D01*
X173866937Y-53227496D01*
X173645252Y-53183400D01*
X173645247Y-53183400D01*
X173570400Y-53168512D01*
X173495553Y-53183400D01*
X149682148Y-53183400D01*
X149607300Y-53168512D01*
X149532452Y-53183400D01*
X149532448Y-53183400D01*
X149358905Y-53217920D01*
X149310762Y-53227496D01*
X149235000Y-53278119D01*
X149235000Y-52555431D01*
X149152736Y-52356827D01*
X149448510Y-52652602D01*
X149488119Y-52711881D01*
X149547398Y-52751490D01*
X149547399Y-52751491D01*
X149722971Y-52868805D01*
X150000000Y-52923909D01*
X150069926Y-52910000D01*
X152930076Y-52910000D01*
X153000000Y-52923909D01*
X153069924Y-52910000D01*
X153069926Y-52910000D01*
X153277028Y-52868805D01*
X153511881Y-52711881D01*
X153551494Y-52652596D01*
X155494092Y-50710000D01*
X197505910Y-50710000D01*
X197643175Y-50847265D01*
X197444569Y-50765000D01*
X196555431Y-50765000D01*
X195733974Y-51105259D01*
X195105259Y-51733974D01*
X194765000Y-52555431D01*
X194765000Y-53444569D01*
X195105259Y-54266026D01*
X195733974Y-54894741D01*
X196555431Y-55235000D01*
X197444569Y-55235000D01*
X198266026Y-54894741D01*
X198894741Y-54266026D01*
X199235000Y-53444569D01*
X199235000Y-52555431D01*
X199152736Y-52356827D01*
X199290000Y-52494092D01*
X199290001Y-97505907D01*
X199152736Y-97643173D01*
X199235000Y-97444569D01*
X199235000Y-96555431D01*
X198894741Y-95733974D01*
X198266026Y-95105259D01*
X197444569Y-94765000D01*
X196555431Y-94765000D01*
X195733974Y-95105259D01*
X195105259Y-95733974D01*
X194765000Y-96555431D01*
X194765000Y-97444569D01*
X195105259Y-98266026D01*
X195733974Y-98894741D01*
X196555431Y-99235000D01*
X197444569Y-99235000D01*
X197643175Y-99152735D01*
X197505910Y-99290000D01*
X155494092Y-99290000D01*
X153551494Y-97347404D01*
X153511881Y-97288119D01*
X153277028Y-97131195D01*
X153069926Y-97090000D01*
X153069924Y-97090000D01*
X153000000Y-97076091D01*
X152930076Y-97090000D01*
X150069926Y-97090000D01*
X150000000Y-97076091D01*
X149722971Y-97131195D01*
X149547399Y-97248509D01*
X149488119Y-97288119D01*
X149448510Y-97347398D01*
X149152736Y-97643173D01*
X149235000Y-97444569D01*
X149235000Y-96555431D01*
X148894741Y-95733974D01*
X148266026Y-95105259D01*
X147444569Y-94765000D01*
X146555431Y-94765000D01*
X145733974Y-95105259D01*
X145105259Y-95733974D01*
X144765000Y-96555431D01*
X144765000Y-97444569D01*
X145105259Y-98266026D01*
X145733974Y-98894741D01*
X146555431Y-99235000D01*
X147444569Y-99235000D01*
X147643175Y-99152735D01*
X147505910Y-99290000D01*
X102494092Y-99290000D01*
X102356827Y-99152736D01*
X102555431Y-99235000D01*
X103444569Y-99235000D01*
X104266026Y-98894741D01*
X104894741Y-98266026D01*
X105235000Y-97444569D01*
X105235000Y-96654887D01*
X105265000Y-96654887D01*
X105265000Y-97345113D01*
X105529138Y-97982799D01*
X106017201Y-98470862D01*
X106654887Y-98735000D01*
X107345113Y-98735000D01*
X107982799Y-98470862D01*
X108470862Y-97982799D01*
X108735000Y-97345113D01*
X108735000Y-96654887D01*
X141265000Y-96654887D01*
X141265000Y-97345113D01*
X141529138Y-97982799D01*
X142017201Y-98470862D01*
X142654887Y-98735000D01*
X143345113Y-98735000D01*
X143982799Y-98470862D01*
X144470862Y-97982799D01*
X144735000Y-97345113D01*
X144735000Y-96654887D01*
X144470862Y-96017201D01*
X143982799Y-95529138D01*
X143345113Y-95265000D01*
X142654887Y-95265000D01*
X142017201Y-95529138D01*
X141529138Y-96017201D01*
X141265000Y-96654887D01*
X108735000Y-96654887D01*
X108470862Y-96017201D01*
X107982799Y-95529138D01*
X107345113Y-95265000D01*
X106654887Y-95265000D01*
X106017201Y-95529138D01*
X105529138Y-96017201D01*
X105265000Y-96654887D01*
X105235000Y-96654887D01*
X105235000Y-96555431D01*
X104894741Y-95733974D01*
X104266026Y-95105259D01*
X103444569Y-94765000D01*
X102555431Y-94765000D01*
X101733974Y-95105259D01*
X101105259Y-95733974D01*
X100765000Y-96555431D01*
X100765000Y-97444569D01*
X100847265Y-97643175D01*
X100710000Y-97505910D01*
X100710000Y-52494090D01*
X100847265Y-52356825D01*
X100765000Y-52555431D01*
X100765000Y-53444569D01*
X101105259Y-54266026D01*
X101733974Y-54894741D01*
X102555431Y-55235000D01*
X103444569Y-55235000D01*
X104266026Y-54894741D01*
X104894741Y-54266026D01*
X105235000Y-53444569D01*
X105235000Y-52654887D01*
X105265000Y-52654887D01*
X105265000Y-53345113D01*
X105529138Y-53982799D01*
X106017201Y-54470862D01*
X106654887Y-54735000D01*
X107345113Y-54735000D01*
X107982799Y-54470862D01*
X108470862Y-53982799D01*
X108735000Y-53345113D01*
X108735000Y-52654887D01*
X108470862Y-52017201D01*
X107982799Y-51529138D01*
X107345113Y-51265000D01*
X106654887Y-51265000D01*
X106017201Y-51529138D01*
X105529138Y-52017201D01*
X105265000Y-52654887D01*
X105235000Y-52654887D01*
X105235000Y-52555431D01*
X104894741Y-51733974D01*
X104266026Y-51105259D01*
X103444569Y-50765000D01*
X102555431Y-50765000D01*
X102356827Y-50847264D01*
X102494092Y-50710000D01*
X147505910Y-50710000D01*
X147643175Y-50847265D01*
X147643175Y-50847265D01*
G37*
X147643175Y-50847265D02*
X147444569Y-50765000D01*
X146555431Y-50765000D01*
X145733974Y-51105259D01*
X145105259Y-51733974D01*
X144765000Y-52555431D01*
X144765000Y-53444569D01*
X145105259Y-54266026D01*
X145209233Y-54370000D01*
X144083661Y-54370000D01*
X144470862Y-53982799D01*
X144735000Y-53345113D01*
X144735000Y-52654887D01*
X144470862Y-52017201D01*
X143982799Y-51529138D01*
X143345113Y-51265000D01*
X142654887Y-51265000D01*
X142017201Y-51529138D01*
X141529138Y-52017201D01*
X141265000Y-52654887D01*
X141265000Y-53345113D01*
X141529138Y-53982799D01*
X141916339Y-54370000D01*
X140144148Y-54370000D01*
X140069300Y-54355112D01*
X139994452Y-54370000D01*
X139994448Y-54370000D01*
X139820905Y-54404520D01*
X139772762Y-54414096D01*
X139585718Y-54539076D01*
X139521371Y-54582071D01*
X139478971Y-54645527D01*
X138053630Y-56070869D01*
X137990171Y-56113271D01*
X137822196Y-56364664D01*
X137778100Y-56586349D01*
X137778100Y-56586353D01*
X137763212Y-56661200D01*
X137778100Y-56736047D01*
X137778101Y-63417648D01*
X137763212Y-63492500D01*
X137778101Y-63567352D01*
X137806593Y-63710591D01*
X137822197Y-63789037D01*
X137931418Y-63952497D01*
X137990172Y-64040429D01*
X138053628Y-64082829D01*
X138309980Y-64339182D01*
X138297000Y-64370519D01*
X138297000Y-64926281D01*
X138509680Y-65439737D01*
X138902663Y-65832720D01*
X139097442Y-65913400D01*
X138902663Y-65994080D01*
X138509680Y-66387063D01*
X138297000Y-66900519D01*
X138297000Y-67456281D01*
X138509680Y-67969737D01*
X138902663Y-68362720D01*
X139157798Y-68468400D01*
X138902663Y-68574080D01*
X138509680Y-68967063D01*
X138297000Y-69480519D01*
X138297000Y-70036281D01*
X138509680Y-70549737D01*
X138902663Y-70942720D01*
X139073300Y-71013400D01*
X138902663Y-71084080D01*
X138509680Y-71477063D01*
X138297000Y-71990519D01*
X138297000Y-72546281D01*
X138315838Y-72591760D01*
X137646828Y-73260771D01*
X137583372Y-73303171D01*
X137540972Y-73366627D01*
X137540971Y-73366628D01*
X137415397Y-73554563D01*
X137356412Y-73851100D01*
X137371301Y-73925952D01*
X137371300Y-92528953D01*
X137356412Y-92603800D01*
X137371300Y-92678647D01*
X137371300Y-92678651D01*
X137415396Y-92900336D01*
X137583371Y-93151729D01*
X137646830Y-93194131D01*
X138691471Y-94238773D01*
X138733871Y-94302229D01*
X138797327Y-94344629D01*
X138985262Y-94470204D01*
X139033405Y-94479780D01*
X139206948Y-94514300D01*
X139206952Y-94514300D01*
X139281800Y-94529188D01*
X139356648Y-94514300D01*
X149407353Y-94514300D01*
X149482200Y-94529188D01*
X149557047Y-94514300D01*
X149557052Y-94514300D01*
X149778737Y-94470204D01*
X150030129Y-94302229D01*
X150072531Y-94238770D01*
X150556702Y-93754600D01*
X154687560Y-93754600D01*
X154687560Y-95020000D01*
X154736843Y-95267765D01*
X154877191Y-95477809D01*
X155087235Y-95618157D01*
X155335000Y-95667440D01*
X157035000Y-95667440D01*
X157282765Y-95618157D01*
X157492809Y-95477809D01*
X157633157Y-95267765D01*
X157642184Y-95222381D01*
X157654375Y-95240625D01*
X158145582Y-95568839D01*
X158578744Y-95655000D01*
X158871256Y-95655000D01*
X159304418Y-95568839D01*
X159795625Y-95240625D01*
X159995000Y-94942239D01*
X160194375Y-95240625D01*
X160685582Y-95568839D01*
X161118744Y-95655000D01*
X161411256Y-95655000D01*
X161844418Y-95568839D01*
X162335625Y-95240625D01*
X162535000Y-94942239D01*
X162734375Y-95240625D01*
X163225582Y-95568839D01*
X163658744Y-95655000D01*
X163951256Y-95655000D01*
X164384418Y-95568839D01*
X164875625Y-95240625D01*
X165075000Y-94942239D01*
X165274375Y-95240625D01*
X165765582Y-95568839D01*
X166198744Y-95655000D01*
X166491256Y-95655000D01*
X166924418Y-95568839D01*
X167259166Y-95345168D01*
X167765473Y-95851475D01*
X167807871Y-95914929D01*
X167871324Y-95957327D01*
X167871326Y-95957329D01*
X167996702Y-96041102D01*
X168059263Y-96082904D01*
X168280948Y-96127000D01*
X168280952Y-96127000D01*
X168355799Y-96141888D01*
X168430646Y-96127000D01*
X171885153Y-96127000D01*
X171960000Y-96141888D01*
X172034847Y-96127000D01*
X172034852Y-96127000D01*
X172256537Y-96082904D01*
X172507929Y-95914929D01*
X172550331Y-95851470D01*
X173054311Y-95347491D01*
X173385582Y-95568839D01*
X173818744Y-95655000D01*
X174111256Y-95655000D01*
X174544418Y-95568839D01*
X175035625Y-95240625D01*
X175235000Y-94942239D01*
X175434375Y-95240625D01*
X175925582Y-95568839D01*
X176358744Y-95655000D01*
X176651256Y-95655000D01*
X177084418Y-95568839D01*
X177575625Y-95240625D01*
X177775000Y-94942239D01*
X177974375Y-95240625D01*
X178465582Y-95568839D01*
X178898744Y-95655000D01*
X179191256Y-95655000D01*
X179624418Y-95568839D01*
X180115625Y-95240625D01*
X180328843Y-94921522D01*
X180389817Y-95051358D01*
X180818076Y-95441645D01*
X181228110Y-95611476D01*
X181458000Y-95490155D01*
X181458000Y-94297000D01*
X181712000Y-94297000D01*
X181712000Y-95490155D01*
X181941890Y-95611476D01*
X182351924Y-95441645D01*
X182780183Y-95051358D01*
X183026486Y-94526892D01*
X182905819Y-94297000D01*
X181712000Y-94297000D01*
X181458000Y-94297000D01*
X181438000Y-94297000D01*
X181438000Y-94043000D01*
X181458000Y-94043000D01*
X181458000Y-92849845D01*
X181712000Y-92849845D01*
X181712000Y-94043000D01*
X182905819Y-94043000D01*
X183026486Y-93813108D01*
X182780183Y-93288642D01*
X182351924Y-92898355D01*
X181941890Y-92728524D01*
X181712000Y-92849845D01*
X181458000Y-92849845D01*
X181228110Y-92728524D01*
X180818076Y-92898355D01*
X180389817Y-93288642D01*
X180328843Y-93418478D01*
X180115625Y-93099375D01*
X179624418Y-92771161D01*
X179191256Y-92685000D01*
X178898744Y-92685000D01*
X178465582Y-92771161D01*
X177974375Y-93099375D01*
X177775000Y-93397761D01*
X177575625Y-93099375D01*
X177084418Y-92771161D01*
X176651256Y-92685000D01*
X176358744Y-92685000D01*
X175925582Y-92771161D01*
X175434375Y-93099375D01*
X175235000Y-93397761D01*
X175035625Y-93099375D01*
X174544418Y-92771161D01*
X174111256Y-92685000D01*
X173818744Y-92685000D01*
X173385582Y-92771161D01*
X172894375Y-93099375D01*
X172695000Y-93397761D01*
X172495625Y-93099375D01*
X172004418Y-92771161D01*
X171571256Y-92685000D01*
X171278744Y-92685000D01*
X170845582Y-92771161D01*
X170514311Y-92992509D01*
X154395731Y-76873930D01*
X154385354Y-76858400D01*
X160673753Y-76858400D01*
X160748600Y-76873288D01*
X160823447Y-76858400D01*
X160823452Y-76858400D01*
X161045137Y-76814304D01*
X161296529Y-76646329D01*
X161338931Y-76582870D01*
X180437127Y-57484675D01*
X180487235Y-57518157D01*
X180735000Y-57567440D01*
X182435000Y-57567440D01*
X182682765Y-57518157D01*
X182892809Y-57377809D01*
X183033157Y-57167765D01*
X183082440Y-56920000D01*
X183082440Y-55220000D01*
X183033157Y-54972235D01*
X182892809Y-54762191D01*
X182682765Y-54621843D01*
X182435000Y-54572560D01*
X180735000Y-54572560D01*
X180487235Y-54621843D01*
X180277191Y-54762191D01*
X180136843Y-54972235D01*
X180127816Y-55017619D01*
X180115625Y-54999375D01*
X179624418Y-54671161D01*
X179191256Y-54585000D01*
X178898744Y-54585000D01*
X178465582Y-54671161D01*
X177974375Y-54999375D01*
X177775000Y-55297761D01*
X177575625Y-54999375D01*
X177084418Y-54671161D01*
X176651256Y-54585000D01*
X176358744Y-54585000D01*
X175925582Y-54671161D01*
X175594311Y-54892509D01*
X174160731Y-53458930D01*
X174118329Y-53395471D01*
X173866937Y-53227496D01*
X173645252Y-53183400D01*
X173645247Y-53183400D01*
X173570400Y-53168512D01*
X173495553Y-53183400D01*
X149682148Y-53183400D01*
X149607300Y-53168512D01*
X149532452Y-53183400D01*
X149532448Y-53183400D01*
X149358905Y-53217920D01*
X149310762Y-53227496D01*
X149235000Y-53278119D01*
X149235000Y-52555431D01*
X149152736Y-52356827D01*
X149448510Y-52652602D01*
X149488119Y-52711881D01*
X149547398Y-52751490D01*
X149547399Y-52751491D01*
X149722971Y-52868805D01*
X150000000Y-52923909D01*
X150069926Y-52910000D01*
X152930076Y-52910000D01*
X153000000Y-52923909D01*
X153069924Y-52910000D01*
X153069926Y-52910000D01*
X153277028Y-52868805D01*
X153511881Y-52711881D01*
X153551494Y-52652596D01*
X155494092Y-50710000D01*
X197505910Y-50710000D01*
X197643175Y-50847265D01*
X197444569Y-50765000D01*
X196555431Y-50765000D01*
X195733974Y-51105259D01*
X195105259Y-51733974D01*
X194765000Y-52555431D01*
X194765000Y-53444569D01*
X195105259Y-54266026D01*
X195733974Y-54894741D01*
X196555431Y-55235000D01*
X197444569Y-55235000D01*
X198266026Y-54894741D01*
X198894741Y-54266026D01*
X199235000Y-53444569D01*
X199235000Y-52555431D01*
X199152736Y-52356827D01*
X199290000Y-52494092D01*
X199290001Y-97505907D01*
X199152736Y-97643173D01*
X199235000Y-97444569D01*
X199235000Y-96555431D01*
X198894741Y-95733974D01*
X198266026Y-95105259D01*
X197444569Y-94765000D01*
X196555431Y-94765000D01*
X195733974Y-95105259D01*
X195105259Y-95733974D01*
X194765000Y-96555431D01*
X194765000Y-97444569D01*
X195105259Y-98266026D01*
X195733974Y-98894741D01*
X196555431Y-99235000D01*
X197444569Y-99235000D01*
X197643175Y-99152735D01*
X197505910Y-99290000D01*
X155494092Y-99290000D01*
X153551494Y-97347404D01*
X153511881Y-97288119D01*
X153277028Y-97131195D01*
X153069926Y-97090000D01*
X153069924Y-97090000D01*
X153000000Y-97076091D01*
X152930076Y-97090000D01*
X150069926Y-97090000D01*
X150000000Y-97076091D01*
X149722971Y-97131195D01*
X149547399Y-97248509D01*
X149488119Y-97288119D01*
X149448510Y-97347398D01*
X149152736Y-97643173D01*
X149235000Y-97444569D01*
X149235000Y-96555431D01*
X148894741Y-95733974D01*
X148266026Y-95105259D01*
X147444569Y-94765000D01*
X146555431Y-94765000D01*
X145733974Y-95105259D01*
X145105259Y-95733974D01*
X144765000Y-96555431D01*
X144765000Y-97444569D01*
X145105259Y-98266026D01*
X145733974Y-98894741D01*
X146555431Y-99235000D01*
X147444569Y-99235000D01*
X147643175Y-99152735D01*
X147505910Y-99290000D01*
X102494092Y-99290000D01*
X102356827Y-99152736D01*
X102555431Y-99235000D01*
X103444569Y-99235000D01*
X104266026Y-98894741D01*
X104894741Y-98266026D01*
X105235000Y-97444569D01*
X105235000Y-96654887D01*
X105265000Y-96654887D01*
X105265000Y-97345113D01*
X105529138Y-97982799D01*
X106017201Y-98470862D01*
X106654887Y-98735000D01*
X107345113Y-98735000D01*
X107982799Y-98470862D01*
X108470862Y-97982799D01*
X108735000Y-97345113D01*
X108735000Y-96654887D01*
X141265000Y-96654887D01*
X141265000Y-97345113D01*
X141529138Y-97982799D01*
X142017201Y-98470862D01*
X142654887Y-98735000D01*
X143345113Y-98735000D01*
X143982799Y-98470862D01*
X144470862Y-97982799D01*
X144735000Y-97345113D01*
X144735000Y-96654887D01*
X144470862Y-96017201D01*
X143982799Y-95529138D01*
X143345113Y-95265000D01*
X142654887Y-95265000D01*
X142017201Y-95529138D01*
X141529138Y-96017201D01*
X141265000Y-96654887D01*
X108735000Y-96654887D01*
X108470862Y-96017201D01*
X107982799Y-95529138D01*
X107345113Y-95265000D01*
X106654887Y-95265000D01*
X106017201Y-95529138D01*
X105529138Y-96017201D01*
X105265000Y-96654887D01*
X105235000Y-96654887D01*
X105235000Y-96555431D01*
X104894741Y-95733974D01*
X104266026Y-95105259D01*
X103444569Y-94765000D01*
X102555431Y-94765000D01*
X101733974Y-95105259D01*
X101105259Y-95733974D01*
X100765000Y-96555431D01*
X100765000Y-97444569D01*
X100847265Y-97643175D01*
X100710000Y-97505910D01*
X100710000Y-52494090D01*
X100847265Y-52356825D01*
X100765000Y-52555431D01*
X100765000Y-53444569D01*
X101105259Y-54266026D01*
X101733974Y-54894741D01*
X102555431Y-55235000D01*
X103444569Y-55235000D01*
X104266026Y-54894741D01*
X104894741Y-54266026D01*
X105235000Y-53444569D01*
X105235000Y-52654887D01*
X105265000Y-52654887D01*
X105265000Y-53345113D01*
X105529138Y-53982799D01*
X106017201Y-54470862D01*
X106654887Y-54735000D01*
X107345113Y-54735000D01*
X107982799Y-54470862D01*
X108470862Y-53982799D01*
X108735000Y-53345113D01*
X108735000Y-52654887D01*
X108470862Y-52017201D01*
X107982799Y-51529138D01*
X107345113Y-51265000D01*
X106654887Y-51265000D01*
X106017201Y-51529138D01*
X105529138Y-52017201D01*
X105265000Y-52654887D01*
X105235000Y-52654887D01*
X105235000Y-52555431D01*
X104894741Y-51733974D01*
X104266026Y-51105259D01*
X103444569Y-50765000D01*
X102555431Y-50765000D01*
X102356827Y-50847264D01*
X102494092Y-50710000D01*
X147505910Y-50710000D01*
X147643175Y-50847265D01*
G36*
X175434375Y-57140625D02*
X175828336Y-57403861D01*
X162978799Y-70253400D01*
X150356924Y-70253400D01*
X150451000Y-70026281D01*
X150451000Y-69470519D01*
X150238320Y-68957063D01*
X149845337Y-68564080D01*
X149626416Y-68473400D01*
X149845337Y-68382720D01*
X150238320Y-67989737D01*
X150451000Y-67476281D01*
X150451000Y-66920519D01*
X150238320Y-66407063D01*
X149845337Y-66014080D01*
X149638487Y-65928400D01*
X149845337Y-65842720D01*
X150087250Y-65600807D01*
X150306926Y-65691800D01*
X150718674Y-65691800D01*
X151099080Y-65534231D01*
X151390231Y-65243080D01*
X151547800Y-64862674D01*
X151547800Y-64450926D01*
X151426632Y-64158400D01*
X165753753Y-64158400D01*
X165828600Y-64173288D01*
X165903447Y-64158400D01*
X165903452Y-64158400D01*
X166125137Y-64114304D01*
X166376529Y-63946329D01*
X166418931Y-63882870D01*
X173054311Y-57247491D01*
X173385582Y-57468839D01*
X173818744Y-57555000D01*
X174111256Y-57555000D01*
X174544418Y-57468839D01*
X175035625Y-57140625D01*
X175235000Y-56842239D01*
X175434375Y-57140625D01*
X175434375Y-57140625D01*
G37*
X175434375Y-57140625D02*
X175828336Y-57403861D01*
X162978799Y-70253400D01*
X150356924Y-70253400D01*
X150451000Y-70026281D01*
X150451000Y-69470519D01*
X150238320Y-68957063D01*
X149845337Y-68564080D01*
X149626416Y-68473400D01*
X149845337Y-68382720D01*
X150238320Y-67989737D01*
X150451000Y-67476281D01*
X150451000Y-66920519D01*
X150238320Y-66407063D01*
X149845337Y-66014080D01*
X149638487Y-65928400D01*
X149845337Y-65842720D01*
X150087250Y-65600807D01*
X150306926Y-65691800D01*
X150718674Y-65691800D01*
X151099080Y-65534231D01*
X151390231Y-65243080D01*
X151547800Y-64862674D01*
X151547800Y-64450926D01*
X151426632Y-64158400D01*
X165753753Y-64158400D01*
X165828600Y-64173288D01*
X165903447Y-64158400D01*
X165903452Y-64158400D01*
X166125137Y-64114304D01*
X166376529Y-63946329D01*
X166418931Y-63882870D01*
X173054311Y-57247491D01*
X173385582Y-57468839D01*
X173818744Y-57555000D01*
X174111256Y-57555000D01*
X174544418Y-57468839D01*
X175035625Y-57140625D01*
X175235000Y-56842239D01*
X175434375Y-57140625D01*
G36*
X170354375Y-57140625D02*
X170748337Y-57403862D01*
X165513799Y-62638400D01*
X150358861Y-62638400D01*
X150463144Y-62346098D01*
X150435362Y-61791032D01*
X150370069Y-61633400D01*
X160658753Y-61633400D01*
X160733600Y-61648288D01*
X160808447Y-61633400D01*
X160808452Y-61633400D01*
X161030137Y-61589304D01*
X161281529Y-61421329D01*
X161323931Y-61357870D01*
X165434311Y-57247491D01*
X165765582Y-57468839D01*
X166198744Y-57555000D01*
X166491256Y-57555000D01*
X166924418Y-57468839D01*
X167415625Y-57140625D01*
X167615000Y-56842239D01*
X167814375Y-57140625D01*
X168305582Y-57468839D01*
X168738744Y-57555000D01*
X169031256Y-57555000D01*
X169464418Y-57468839D01*
X169955625Y-57140625D01*
X170155000Y-56842239D01*
X170354375Y-57140625D01*
X170354375Y-57140625D01*
G37*
X170354375Y-57140625D02*
X170748337Y-57403862D01*
X165513799Y-62638400D01*
X150358861Y-62638400D01*
X150463144Y-62346098D01*
X150435362Y-61791032D01*
X150370069Y-61633400D01*
X160658753Y-61633400D01*
X160733600Y-61648288D01*
X160808447Y-61633400D01*
X160808452Y-61633400D01*
X161030137Y-61589304D01*
X161281529Y-61421329D01*
X161323931Y-61357870D01*
X165434311Y-57247491D01*
X165765582Y-57468839D01*
X166198744Y-57555000D01*
X166491256Y-57555000D01*
X166924418Y-57468839D01*
X167415625Y-57140625D01*
X167615000Y-56842239D01*
X167814375Y-57140625D01*
X168305582Y-57468839D01*
X168738744Y-57555000D01*
X169031256Y-57555000D01*
X169464418Y-57468839D01*
X169955625Y-57140625D01*
X170155000Y-56842239D01*
X170354375Y-57140625D01*
G36*
X149247748Y-62124258D02*
X149233605Y-62138400D01*
X149247748Y-62152543D01*
X149068143Y-62332148D01*
X149054000Y-62318005D01*
X149039858Y-62332148D01*
X148860253Y-62152543D01*
X148874395Y-62138400D01*
X148860253Y-62124258D01*
X149039858Y-61944653D01*
X149054000Y-61958795D01*
X149068143Y-61944653D01*
X149247748Y-62124258D01*
X149247748Y-62124258D01*
G37*
X149247748Y-62124258D02*
X149233605Y-62138400D01*
X149247748Y-62152543D01*
X149068143Y-62332148D01*
X149054000Y-62318005D01*
X149039858Y-62332148D01*
X148860253Y-62152543D01*
X148874395Y-62138400D01*
X148860253Y-62124258D01*
X149039858Y-61944653D01*
X149054000Y-61958795D01*
X149068143Y-61944653D01*
X149247748Y-62124258D01*
G36*
X147026000Y-62001400D02*
X147648395Y-62001400D01*
X147661108Y-62255400D01*
X147026000Y-62255400D01*
X147026000Y-62275400D01*
X146772000Y-62275400D01*
X146772000Y-62255400D01*
X146752000Y-62255400D01*
X146752000Y-62001400D01*
X146772000Y-62001400D01*
X146772000Y-61981400D01*
X147026000Y-61981400D01*
X147026000Y-62001400D01*
X147026000Y-62001400D01*
G37*
X147026000Y-62001400D02*
X147648395Y-62001400D01*
X147661108Y-62255400D01*
X147026000Y-62255400D01*
X147026000Y-62275400D01*
X146772000Y-62275400D01*
X146772000Y-62255400D01*
X146752000Y-62255400D01*
X146752000Y-62001400D01*
X146772000Y-62001400D01*
X146772000Y-61981400D01*
X147026000Y-61981400D01*
X147026000Y-62001400D01*
G36*
X163128337Y-57403862D02*
X160418799Y-60113400D01*
X150357077Y-60113400D01*
X150463144Y-59816098D01*
X150435362Y-59261032D01*
X150363855Y-59088400D01*
X160687253Y-59088400D01*
X160762100Y-59103288D01*
X160836947Y-59088400D01*
X160836952Y-59088400D01*
X161058637Y-59044304D01*
X161310029Y-58876329D01*
X161352431Y-58812870D01*
X162908398Y-57256904D01*
X163128337Y-57403862D01*
X163128337Y-57403862D01*
G37*
X163128337Y-57403862D02*
X160418799Y-60113400D01*
X150357077Y-60113400D01*
X150463144Y-59816098D01*
X150435362Y-59261032D01*
X150363855Y-59088400D01*
X160687253Y-59088400D01*
X160762100Y-59103288D01*
X160836947Y-59088400D01*
X160836952Y-59088400D01*
X161058637Y-59044304D01*
X161310029Y-58876329D01*
X161352431Y-58812870D01*
X162908398Y-57256904D01*
X163128337Y-57403862D01*
G36*
X149247748Y-59594258D02*
X149233605Y-59608400D01*
X149247748Y-59622543D01*
X149068143Y-59802148D01*
X149054000Y-59788005D01*
X149039858Y-59802148D01*
X148860253Y-59622543D01*
X148874395Y-59608400D01*
X148860253Y-59594258D01*
X149039858Y-59414653D01*
X149054000Y-59428795D01*
X149068143Y-59414653D01*
X149247748Y-59594258D01*
X149247748Y-59594258D01*
G37*
X149247748Y-59594258D02*
X149233605Y-59608400D01*
X149247748Y-59622543D01*
X149068143Y-59802148D01*
X149054000Y-59788005D01*
X149039858Y-59802148D01*
X148860253Y-59622543D01*
X148874395Y-59608400D01*
X148860253Y-59594258D01*
X149039858Y-59414653D01*
X149054000Y-59428795D01*
X149068143Y-59414653D01*
X149247748Y-59594258D01*
G36*
X147026000Y-59461400D02*
X147647894Y-59461400D01*
X147660607Y-59715400D01*
X147026000Y-59715400D01*
X147026000Y-59735400D01*
X146772000Y-59735400D01*
X146772000Y-59715400D01*
X146752000Y-59715400D01*
X146752000Y-59461400D01*
X146772000Y-59461400D01*
X146772000Y-59441400D01*
X147026000Y-59441400D01*
X147026000Y-59461400D01*
X147026000Y-59461400D01*
G37*
X147026000Y-59461400D02*
X147647894Y-59461400D01*
X147660607Y-59715400D01*
X147026000Y-59715400D01*
X147026000Y-59735400D01*
X146772000Y-59735400D01*
X146772000Y-59715400D01*
X146752000Y-59715400D01*
X146752000Y-59461400D01*
X146772000Y-59461400D01*
X146772000Y-59441400D01*
X147026000Y-59441400D01*
X147026000Y-59461400D01*
G36*
X154989817Y-55188642D02*
X154743514Y-55713108D01*
X154864181Y-55943000D01*
X156058000Y-55943000D01*
X156058000Y-55923000D01*
X156312000Y-55923000D01*
X156312000Y-55943000D01*
X156332000Y-55943000D01*
X156332000Y-56197000D01*
X156312000Y-56197000D01*
X156312000Y-57390155D01*
X156541890Y-57511476D01*
X156951924Y-57341645D01*
X157380183Y-56951358D01*
X157441157Y-56821522D01*
X157654375Y-57140625D01*
X158145582Y-57468839D01*
X158578744Y-57555000D01*
X158871256Y-57555000D01*
X159304418Y-57468839D01*
X159795625Y-57140625D01*
X159995000Y-56842239D01*
X160194375Y-57140625D01*
X160602424Y-57413275D01*
X160447299Y-57568400D01*
X150351725Y-57568400D01*
X150463144Y-57256098D01*
X150435362Y-56701032D01*
X150321810Y-56426892D01*
X154743514Y-56426892D01*
X154989817Y-56951358D01*
X155418076Y-57341645D01*
X155828110Y-57511476D01*
X156058000Y-57390155D01*
X156058000Y-56197000D01*
X154864181Y-56197000D01*
X154743514Y-56426892D01*
X150321810Y-56426892D01*
X150285983Y-56340400D01*
X150754453Y-56340400D01*
X150829300Y-56355288D01*
X150904147Y-56340400D01*
X150904152Y-56340400D01*
X151125837Y-56296304D01*
X151377229Y-56128329D01*
X151419631Y-56064870D01*
X152330702Y-55153800D01*
X155028049Y-55153800D01*
X154989817Y-55188642D01*
X154989817Y-55188642D01*
G37*
X154989817Y-55188642D02*
X154743514Y-55713108D01*
X154864181Y-55943000D01*
X156058000Y-55943000D01*
X156058000Y-55923000D01*
X156312000Y-55923000D01*
X156312000Y-55943000D01*
X156332000Y-55943000D01*
X156332000Y-56197000D01*
X156312000Y-56197000D01*
X156312000Y-57390155D01*
X156541890Y-57511476D01*
X156951924Y-57341645D01*
X157380183Y-56951358D01*
X157441157Y-56821522D01*
X157654375Y-57140625D01*
X158145582Y-57468839D01*
X158578744Y-57555000D01*
X158871256Y-57555000D01*
X159304418Y-57468839D01*
X159795625Y-57140625D01*
X159995000Y-56842239D01*
X160194375Y-57140625D01*
X160602424Y-57413275D01*
X160447299Y-57568400D01*
X150351725Y-57568400D01*
X150463144Y-57256098D01*
X150435362Y-56701032D01*
X150321810Y-56426892D01*
X154743514Y-56426892D01*
X154989817Y-56951358D01*
X155418076Y-57341645D01*
X155828110Y-57511476D01*
X156058000Y-57390155D01*
X156058000Y-56197000D01*
X154864181Y-56197000D01*
X154743514Y-56426892D01*
X150321810Y-56426892D01*
X150285983Y-56340400D01*
X150754453Y-56340400D01*
X150829300Y-56355288D01*
X150904147Y-56340400D01*
X150904152Y-56340400D01*
X151125837Y-56296304D01*
X151377229Y-56128329D01*
X151419631Y-56064870D01*
X152330702Y-55153800D01*
X155028049Y-55153800D01*
X154989817Y-55188642D01*
G36*
X149247748Y-57034258D02*
X149233605Y-57048400D01*
X149247748Y-57062543D01*
X149068143Y-57242148D01*
X149054000Y-57228005D01*
X149039858Y-57242148D01*
X148860253Y-57062543D01*
X148874395Y-57048400D01*
X148860253Y-57034258D01*
X149039858Y-56854653D01*
X149054000Y-56868795D01*
X149068143Y-56854653D01*
X149247748Y-57034258D01*
X149247748Y-57034258D01*
G37*
X149247748Y-57034258D02*
X149233605Y-57048400D01*
X149247748Y-57062543D01*
X149068143Y-57242148D01*
X149054000Y-57228005D01*
X149039858Y-57242148D01*
X148860253Y-57062543D01*
X148874395Y-57048400D01*
X148860253Y-57034258D01*
X149039858Y-56854653D01*
X149054000Y-56868795D01*
X149068143Y-56854653D01*
X149247748Y-57034258D01*
G36*
X147026000Y-56921400D02*
X147648895Y-56921400D01*
X147661608Y-57175400D01*
X147026000Y-57175400D01*
X147026000Y-57195400D01*
X146772000Y-57195400D01*
X146772000Y-57175400D01*
X146752000Y-57175400D01*
X146752000Y-56921400D01*
X146772000Y-56921400D01*
X146772000Y-56901400D01*
X147026000Y-56901400D01*
X147026000Y-56921400D01*
X147026000Y-56921400D01*
G37*
X147026000Y-56921400D02*
X147648895Y-56921400D01*
X147661608Y-57175400D01*
X147026000Y-57175400D01*
X147026000Y-57195400D01*
X146772000Y-57195400D01*
X146772000Y-57175400D01*
X146752000Y-57175400D01*
X146752000Y-56921400D01*
X146772000Y-56921400D01*
X146772000Y-56901400D01*
X147026000Y-56901400D01*
X147026000Y-56921400D01*
G04 #@! TD*
M02*
