G04 #@! TF.GenerationSoftware,KiCad,Pcbnew,5.0.0-rc2-be01b52~65~ubuntu17.10.1*
G04 #@! TF.CreationDate,2018-06-19T20:11:22+09:00*
G04 #@! TF.ProjectId,M5StackSideBB,4D35537461636B5369646542422E6B69,rev?*
G04 #@! TF.SameCoordinates,Original*
G04 #@! TF.FileFunction,Soldermask,Top*
G04 #@! TF.FilePolarity,Negative*
%FSLAX46Y46*%
G04 Gerber Fmt 4.6, Leading zero omitted, Abs format (unit mm)*
G04 Created by KiCad (PCBNEW 5.0.0-rc2-be01b52~65~ubuntu17.10.1) date Tue Jun 19 20:11:22 2018*
%MOMM*%
%LPD*%
G01*
G04 APERTURE LIST*
%ADD10R,3.150000X1.000000*%
%ADD11C,2.600000*%
%ADD12C,3.600000*%
%ADD13R,1.700000X1.700000*%
%ADD14O,2.100000X2.100000*%
G04 APERTURE END LIST*
D10*
G04 #@! TO.C,J4*
X141849000Y-57048400D03*
X146899000Y-57048400D03*
X141849000Y-59588400D03*
X146899000Y-59588400D03*
X141849000Y-62128400D03*
X146899000Y-62128400D03*
X141849000Y-64668400D03*
X146899000Y-64668400D03*
X141849000Y-67208400D03*
X146899000Y-67208400D03*
X141849000Y-69748400D03*
X146899000Y-69748400D03*
X141849000Y-72288400D03*
X146899000Y-72288400D03*
X141849000Y-74828400D03*
X146899000Y-74828400D03*
X141849000Y-77368400D03*
X146899000Y-77368400D03*
X141849000Y-79908400D03*
X146899000Y-79908400D03*
X141849000Y-82448400D03*
X146899000Y-82448400D03*
X141849000Y-84988400D03*
X146899000Y-84988400D03*
X141849000Y-87528400D03*
X146899000Y-87528400D03*
X141849000Y-90068400D03*
X146899000Y-90068400D03*
X141849000Y-92608400D03*
X146899000Y-92608400D03*
G04 #@! TD*
D11*
G04 #@! TO.C,REF10*
X197000000Y-94800000D03*
G04 #@! TD*
G04 #@! TO.C,REF5*
X197000000Y-55200000D03*
G04 #@! TD*
D12*
G04 #@! TO.C,REF1*
X103000000Y-53000000D03*
G04 #@! TD*
G04 #@! TO.C,REF4*
X147000000Y-53000000D03*
G04 #@! TD*
G04 #@! TO.C,REF6*
X103000000Y-97000000D03*
G04 #@! TD*
G04 #@! TO.C,REF9*
X147000000Y-97000000D03*
G04 #@! TD*
D11*
G04 #@! TO.C,REF2*
X107000000Y-53000000D03*
G04 #@! TD*
D13*
G04 #@! TO.C,J1*
X157120000Y-54800000D03*
D14*
X157120000Y-57340000D03*
X157120000Y-59880000D03*
X157120000Y-62420000D03*
X157120000Y-64960000D03*
X157120000Y-67500000D03*
X157120000Y-70040000D03*
X157120000Y-72580000D03*
X157120000Y-75120000D03*
X157120000Y-77660000D03*
X157120000Y-80200000D03*
X157120000Y-82740000D03*
X157120000Y-85280000D03*
X157120000Y-87820000D03*
X157120000Y-90360000D03*
X157120000Y-92900000D03*
X157120000Y-95440000D03*
G04 #@! TD*
D13*
G04 #@! TO.C,J2*
X195720000Y-64960000D03*
D14*
X195720000Y-67500000D03*
X195720000Y-70040000D03*
X195720000Y-72580000D03*
X195720000Y-75120000D03*
X195720000Y-77660000D03*
X195720000Y-80200000D03*
X195720000Y-82740000D03*
X195720000Y-85280000D03*
G04 #@! TD*
D11*
G04 #@! TO.C,REF3*
X143000000Y-53000000D03*
G04 #@! TD*
G04 #@! TO.C,REF7*
X107000000Y-97000000D03*
G04 #@! TD*
G04 #@! TO.C,REF8*
X143000000Y-97000000D03*
G04 #@! TD*
M02*
