M48
;DRILL file {KiCad 5.0.2-bee76a0~70~ubuntu18.04.1} date 2019年03月15日 07時27分40秒
;FORMAT={-:-/ absolute / inch / decimal}
FMAT,2
INCH,TZ
T1C0.0157
T2C0.0394
%
G90
G05
T1
X4.1472Y-2.1614
X4.1472Y-3.7368
X5.402Y-2.4962
X5.404Y-3.398
X5.488Y-2.4464
X5.488Y-3.446
X5.5324Y-3.8704
X5.5409Y-3.0898
X5.558Y-2.6017
X5.5585Y-2.3022
X5.6274Y-3.3032
X5.6287Y-3.2019
X5.6287Y-3.2019
X5.6395Y-2.746
X5.6449Y-3.646
X5.6476Y-2.8015
X5.6585Y-2.546
X5.6588Y-2.946
X5.6591Y-2.2304
X5.6596Y-3.146
X5.6654Y-3.546
X5.7Y-2.746
X5.704Y-2.1554
X5.7152Y-3.0022
X5.8565Y-3.4456
X5.892Y-3.8116
X5.9105Y-2.9464
X5.9111Y-2.6427
X5.9136Y-2.846
X5.916Y-3.042
X5.918Y-3.1458
X5.922Y-3.2456
X5.922Y-3.346
X5.926Y-3.598
X5.9306Y-2.7886
X5.942Y-3.432
X5.9654Y-2.7154
X5.972Y-2.1
X5.996Y-2.512
X6.006Y-3.71
X6.052Y-2.79
X6.0997Y-3.4303
X6.128Y-1.996
X6.128Y-2.714
X6.142Y-3.378
X6.222Y-2.3
X6.2984Y-2.3824
X6.302Y-3.648
X6.342Y-2.8646
X6.38Y-2.506
X6.4077Y-3.6383
X6.65Y-2.308
X6.7384Y-2.8614
X6.994Y-3.638
X7.09Y-3.638
X7.202Y-3.636
X7.4078Y-2.3248
T2
X6.149Y-2.2075
X6.249Y-2.2075
X6.349Y-2.2075
X6.449Y-2.2075
X6.549Y-2.2075
X6.649Y-2.2075
X6.749Y-2.2075
X6.849Y-2.2075
X6.949Y-2.2075
X7.049Y-2.2075
X7.149Y-2.2075
X7.249Y-2.2075
X7.349Y-2.2075
X7.449Y-2.2075
X6.149Y-3.7075
X6.249Y-3.7075
X6.349Y-3.7075
X6.449Y-3.7075
X6.549Y-3.7075
X6.649Y-3.7075
X6.749Y-3.7075
X6.849Y-3.7075
X6.949Y-3.7075
X7.049Y-3.7075
X7.149Y-3.7075
X7.249Y-3.7075
X7.349Y-3.7075
X7.449Y-3.7075
T0
M30
