G04 #@! TF.GenerationSoftware,KiCad,Pcbnew,5.0.0-rc2-be01b52~65~ubuntu17.10.1*
G04 #@! TF.CreationDate,2018-06-19T20:11:22+09:00*
G04 #@! TF.ProjectId,M5StackSideBB,4D35537461636B5369646542422E6B69,rev?*
G04 #@! TF.SameCoordinates,Original*
G04 #@! TF.FileFunction,Copper,L2,Bot,Signal*
G04 #@! TF.FilePolarity,Positive*
%FSLAX46Y46*%
G04 Gerber Fmt 4.6, Leading zero omitted, Abs format (unit mm)*
G04 Created by KiCad (PCBNEW 5.0.0-rc2-be01b52~65~ubuntu17.10.1) date Tue Jun 19 20:11:22 2018*
%MOMM*%
%LPD*%
G01*
G04 APERTURE LIST*
G04 #@! TA.AperFunction,SMDPad,CuDef*
%ADD10R,3.000000X1.000000*%
G04 #@! TD*
G04 #@! TA.AperFunction,ComponentPad*
%ADD11R,1.700000X1.700000*%
G04 #@! TD*
G04 #@! TA.AperFunction,ComponentPad*
%ADD12O,1.700000X1.700000*%
G04 #@! TD*
G04 #@! TA.AperFunction,ViaPad*
%ADD13C,0.800000*%
G04 #@! TD*
G04 #@! TA.AperFunction,Conductor*
%ADD14C,0.250000*%
G04 #@! TD*
G04 #@! TA.AperFunction,Conductor*
%ADD15C,0.254000*%
G04 #@! TD*
G04 APERTURE END LIST*
D10*
G04 #@! TO.P,J3,1*
G04 #@! TO.N,GND*
X141854000Y-57048400D03*
G04 #@! TO.P,J3,2*
G04 #@! TO.N,G35*
X146894000Y-57048400D03*
G04 #@! TO.P,J3,3*
G04 #@! TO.N,GND*
X141854000Y-59588400D03*
G04 #@! TO.P,J3,4*
G04 #@! TO.N,G36*
X146894000Y-59588400D03*
G04 #@! TO.P,J3,5*
G04 #@! TO.N,GND*
X141854000Y-62128400D03*
G04 #@! TO.P,J3,6*
G04 #@! TO.N,RST*
X146894000Y-62128400D03*
G04 #@! TO.P,J3,7*
G04 #@! TO.N,G23*
X141854000Y-64668400D03*
G04 #@! TO.P,J3,8*
G04 #@! TO.N,G25*
X146894000Y-64668400D03*
G04 #@! TO.P,J3,9*
G04 #@! TO.N,G19*
X141854000Y-67208400D03*
G04 #@! TO.P,J3,10*
G04 #@! TO.N,G26*
X146894000Y-67208400D03*
G04 #@! TO.P,J3,11*
G04 #@! TO.N,G18*
X141854000Y-69748400D03*
G04 #@! TO.P,J3,12*
G04 #@! TO.N,+3V3*
X146894000Y-69748400D03*
G04 #@! TO.P,J3,13*
G04 #@! TO.N,G3*
X141854000Y-72288400D03*
G04 #@! TO.P,J3,14*
G04 #@! TO.N,G1*
X146894000Y-72288400D03*
G04 #@! TO.P,J3,15*
G04 #@! TO.N,G16*
X141854000Y-74828400D03*
G04 #@! TO.P,J3,16*
G04 #@! TO.N,G17*
X146894000Y-74828400D03*
G04 #@! TO.P,J3,17*
G04 #@! TO.N,G21*
X141854000Y-77368400D03*
G04 #@! TO.P,J3,18*
G04 #@! TO.N,G22*
X146894000Y-77368400D03*
G04 #@! TO.P,J3,19*
G04 #@! TO.N,G2*
X141854000Y-79908400D03*
G04 #@! TO.P,J3,20*
G04 #@! TO.N,G5*
X146894000Y-79908400D03*
G04 #@! TO.P,J3,21*
G04 #@! TO.N,G12*
X141854000Y-82448400D03*
G04 #@! TO.P,J3,22*
G04 #@! TO.N,G13*
X146894000Y-82448400D03*
G04 #@! TO.P,J3,23*
G04 #@! TO.N,G15*
X141854000Y-84988400D03*
G04 #@! TO.P,J3,24*
G04 #@! TO.N,G0*
X146894000Y-84988400D03*
G04 #@! TO.P,J3,25*
G04 #@! TO.N,HPWR*
X141854000Y-87528400D03*
G04 #@! TO.P,J3,26*
G04 #@! TO.N,G34*
X146894000Y-87528400D03*
G04 #@! TO.P,J3,27*
G04 #@! TO.N,HPWR*
X141854000Y-90068400D03*
G04 #@! TO.P,J3,28*
G04 #@! TO.N,+5V*
X146894000Y-90068400D03*
G04 #@! TO.P,J3,29*
G04 #@! TO.N,HPWR*
X141854000Y-92608400D03*
G04 #@! TO.P,J3,30*
G04 #@! TO.N,+BATT*
X146894000Y-92608400D03*
G04 #@! TD*
D11*
G04 #@! TO.P,J1,1*
G04 #@! TO.N,GND*
X157120000Y-54800000D03*
D12*
G04 #@! TO.P,J1,2*
G04 #@! TO.N,+3V3*
X157120000Y-57340000D03*
G04 #@! TO.P,J1,3*
G04 #@! TO.N,G3*
X157120000Y-59880000D03*
G04 #@! TO.P,J1,4*
G04 #@! TO.N,G1*
X157120000Y-62420000D03*
G04 #@! TO.P,J1,5*
G04 #@! TO.N,G16*
X157120000Y-64960000D03*
G04 #@! TO.P,J1,6*
G04 #@! TO.N,G17*
X157120000Y-67500000D03*
G04 #@! TO.P,J1,7*
G04 #@! TO.N,G2*
X157120000Y-70040000D03*
G04 #@! TO.P,J1,8*
G04 #@! TO.N,G5*
X157120000Y-72580000D03*
G04 #@! TO.P,J1,9*
G04 #@! TO.N,G25*
X157120000Y-75120000D03*
G04 #@! TO.P,J1,10*
G04 #@! TO.N,G26*
X157120000Y-77660000D03*
G04 #@! TO.P,J1,11*
G04 #@! TO.N,G35*
X157120000Y-80200000D03*
G04 #@! TO.P,J1,12*
G04 #@! TO.N,G36*
X157120000Y-82740000D03*
G04 #@! TO.P,J1,13*
G04 #@! TO.N,RST*
X157120000Y-85280000D03*
G04 #@! TO.P,J1,14*
G04 #@! TO.N,+BATT*
X157120000Y-87820000D03*
G04 #@! TO.P,J1,15*
G04 #@! TO.N,+3V3*
X157120000Y-90360000D03*
G04 #@! TO.P,J1,16*
G04 #@! TO.N,+5V*
X157120000Y-92900000D03*
G04 #@! TO.P,J1,17*
G04 #@! TO.N,GND*
X157120000Y-95440000D03*
G04 #@! TD*
D11*
G04 #@! TO.P,J2,1*
G04 #@! TO.N,GND*
X195720000Y-64960000D03*
D12*
G04 #@! TO.P,J2,2*
G04 #@! TO.N,G18*
X195720000Y-67500000D03*
G04 #@! TO.P,J2,3*
G04 #@! TO.N,G19*
X195720000Y-70040000D03*
G04 #@! TO.P,J2,4*
G04 #@! TO.N,G23*
X195720000Y-72580000D03*
G04 #@! TO.P,J2,5*
G04 #@! TO.N,G22*
X195720000Y-75120000D03*
G04 #@! TO.P,J2,6*
G04 #@! TO.N,G21*
X195720000Y-77660000D03*
G04 #@! TO.P,J2,7*
G04 #@! TO.N,GND*
X195720000Y-80200000D03*
G04 #@! TO.P,J2,8*
G04 #@! TO.N,+3V3*
X195720000Y-82740000D03*
G04 #@! TO.P,J2,9*
G04 #@! TO.N,+5V*
X195720000Y-85280000D03*
G04 #@! TD*
D13*
G04 #@! TO.N,G23*
X145635300Y-66027000D03*
G04 #@! TO.N,G19*
X144654600Y-66958600D03*
G04 #@! TO.N,G18*
X144611200Y-68682900D03*
G04 #@! TO.N,G3*
X145610400Y-71018400D03*
G04 #@! TO.N,G16*
X144549000Y-74530400D03*
G04 #@! TO.N,G21*
X144599200Y-77369400D03*
G04 #@! TO.N,G2*
X149072400Y-79025700D03*
G04 #@! TO.N,G12*
X144599200Y-82533300D03*
G04 #@! TO.N,G15*
X144374000Y-84571000D03*
G04 #@! TO.N,HPWR*
X144374000Y-90311800D03*
G04 #@! TO.N,G34*
X144238900Y-86803300D03*
G04 #@! TO.N,G0*
X144330000Y-85758300D03*
G04 #@! TO.N,G13*
X143221400Y-83647600D03*
G04 #@! TO.N,G5*
X144597800Y-79892700D03*
G04 #@! TO.N,G22*
X146585400Y-76098400D03*
G04 #@! TO.N,G17*
X143248000Y-76047500D03*
G04 #@! TO.N,G1*
X139628000Y-72428600D03*
G04 #@! TO.N,G26*
X149122700Y-68036100D03*
X155928800Y-70917000D03*
G04 #@! TO.N,G25*
X139614900Y-64757000D03*
G04 #@! TO.N,RST*
X144591300Y-62681300D03*
G04 #@! TO.N,G36*
X144656600Y-59463100D03*
G04 #@! TO.N,G35*
X144374000Y-57085400D03*
G04 #@! TO.N,+3V3*
X143538100Y-71011100D03*
G04 #@! TD*
D14*
G04 #@! TO.N,GND*
X143604000Y-62128400D02*
X144729200Y-61003200D01*
X141854000Y-62128400D02*
X143604000Y-62128400D01*
G04 #@! TO.N,G23*
X141854000Y-64668400D02*
X143679300Y-64668400D01*
X145635300Y-66027000D02*
X145037900Y-66027000D01*
X145037900Y-66027000D02*
X143679300Y-64668400D01*
G04 #@! TO.N,G19*
X141854000Y-67208400D02*
X143679300Y-67208400D01*
X144654600Y-66958600D02*
X143929100Y-66958600D01*
X143929100Y-66958600D02*
X143679300Y-67208400D01*
G04 #@! TO.N,G18*
X141854000Y-69748400D02*
X143679300Y-69748400D01*
X143679300Y-69748400D02*
X143679300Y-69614800D01*
X143679300Y-69614800D02*
X144611200Y-68682900D01*
G04 #@! TO.N,G3*
X143679300Y-72288400D02*
X144340400Y-72288400D01*
X144340400Y-72288400D02*
X145610400Y-71018400D01*
X141854000Y-72288400D02*
X143679300Y-72288400D01*
G04 #@! TO.N,G16*
X143679300Y-74828400D02*
X143977300Y-74530400D01*
X143977300Y-74530400D02*
X144549000Y-74530400D01*
X144549000Y-74530400D02*
X145713100Y-73366300D01*
X145713100Y-73366300D02*
X148312000Y-73366300D01*
X148312000Y-73366300D02*
X155944700Y-65733600D01*
X155944700Y-65733600D02*
X155944700Y-64960000D01*
X141854000Y-74828400D02*
X143679300Y-74828400D01*
X157120000Y-64960000D02*
X155944700Y-64960000D01*
G04 #@! TO.N,G21*
X141854000Y-77368400D02*
X143679300Y-77368400D01*
X144599200Y-77369400D02*
X143680300Y-77369400D01*
X143680300Y-77369400D02*
X143679300Y-77368400D01*
G04 #@! TO.N,G2*
X155944700Y-70040000D02*
X155780100Y-70040000D01*
X155780100Y-70040000D02*
X149072400Y-76747700D01*
X149072400Y-76747700D02*
X149072400Y-79025700D01*
X149072400Y-79025700D02*
X144355600Y-79025700D01*
X144355600Y-79025700D02*
X143679300Y-79702000D01*
X143679300Y-79702000D02*
X143679300Y-79908400D01*
X141854000Y-79908400D02*
X143679300Y-79908400D01*
X157120000Y-70040000D02*
X155944700Y-70040000D01*
G04 #@! TO.N,G12*
X141854000Y-82448400D02*
X143679300Y-82448400D01*
X143679300Y-82448400D02*
X143764200Y-82533300D01*
X143764200Y-82533300D02*
X144599200Y-82533300D01*
G04 #@! TO.N,G15*
X141854000Y-84988400D02*
X143956600Y-84988400D01*
X143956600Y-84988400D02*
X144374000Y-84571000D01*
G04 #@! TO.N,HPWR*
X141854000Y-87528400D02*
X143679300Y-87528400D01*
X142766700Y-90068400D02*
X143679300Y-89155800D01*
X143679300Y-89155800D02*
X143679300Y-87528400D01*
X142766700Y-90068400D02*
X143679300Y-90068400D01*
X141854000Y-90068400D02*
X142766700Y-90068400D01*
X143679300Y-90311800D02*
X143679300Y-90068400D01*
X143679300Y-90311800D02*
X144374000Y-90311800D01*
X142082200Y-92608400D02*
X143679300Y-91011300D01*
X143679300Y-91011300D02*
X143679300Y-90311800D01*
X141854000Y-92608400D02*
X142082200Y-92608400D01*
G04 #@! TO.N,+BATT*
X146894000Y-92608400D02*
X148719300Y-92608400D01*
X157120000Y-87820000D02*
X153507700Y-87820000D01*
X153507700Y-87820000D02*
X148719300Y-92608400D01*
G04 #@! TO.N,+5V*
X157120000Y-92900000D02*
X155944700Y-92900000D01*
X155944700Y-92900000D02*
X155373400Y-93471300D01*
X155373400Y-93471300D02*
X145237300Y-93471300D01*
X145237300Y-93471300D02*
X145031600Y-93265600D01*
X145031600Y-93265600D02*
X145031600Y-91930800D01*
X145031600Y-91930800D02*
X146894000Y-90068400D01*
G04 #@! TO.N,G34*
X146894000Y-87528400D02*
X145068700Y-87528400D01*
X145068700Y-87528400D02*
X144343600Y-86803300D01*
X144343600Y-86803300D02*
X144238900Y-86803300D01*
G04 #@! TO.N,G0*
X146894000Y-84988400D02*
X145068700Y-84988400D01*
X145068700Y-84988400D02*
X145068700Y-85019600D01*
X145068700Y-85019600D02*
X144330000Y-85758300D01*
G04 #@! TO.N,G13*
X146894000Y-82448400D02*
X145694800Y-83647600D01*
X145694800Y-83647600D02*
X143221400Y-83647600D01*
G04 #@! TO.N,G5*
X148719300Y-79908400D02*
X149215500Y-79908400D01*
X149215500Y-79908400D02*
X155944700Y-73179200D01*
X155944700Y-73179200D02*
X155944700Y-72580000D01*
X146894000Y-79908400D02*
X148719300Y-79908400D01*
X157120000Y-72580000D02*
X155944700Y-72580000D01*
X146894000Y-79908400D02*
X145068700Y-79908400D01*
X145068700Y-79908400D02*
X145053000Y-79892700D01*
X145053000Y-79892700D02*
X144597800Y-79892700D01*
G04 #@! TO.N,G22*
X146894000Y-77368400D02*
X146585400Y-77059800D01*
X146585400Y-77059800D02*
X146585400Y-76098400D01*
G04 #@! TO.N,G17*
X146894000Y-74828400D02*
X148719300Y-74828400D01*
X157120000Y-67500000D02*
X155944700Y-67500000D01*
X155944700Y-67500000D02*
X148719300Y-74725400D01*
X148719300Y-74725400D02*
X148719300Y-74828400D01*
X146894000Y-74828400D02*
X146193400Y-74828400D01*
X146193400Y-74828400D02*
X144974300Y-76047500D01*
X144974300Y-76047500D02*
X143248000Y-76047500D01*
G04 #@! TO.N,G1*
X146894000Y-72288400D02*
X145068700Y-72288400D01*
X145068700Y-72288400D02*
X144243400Y-73113700D01*
X144243400Y-73113700D02*
X140170800Y-73113700D01*
X140170800Y-73113700D02*
X139628000Y-72570900D01*
X139628000Y-72570900D02*
X139628000Y-72428600D01*
X155944700Y-62420000D02*
X155944700Y-63237700D01*
X155944700Y-63237700D02*
X146894000Y-72288400D01*
X157120000Y-62420000D02*
X155944700Y-62420000D01*
G04 #@! TO.N,G26*
X146894000Y-67208400D02*
X148719300Y-67208400D01*
X149122700Y-68036100D02*
X148719300Y-67632700D01*
X148719300Y-67632700D02*
X148719300Y-67208400D01*
X157120000Y-77660000D02*
X157120000Y-76484700D01*
X157120000Y-76484700D02*
X157487300Y-76484700D01*
X157487300Y-76484700D02*
X158299800Y-75672200D01*
X158299800Y-75672200D02*
X158299800Y-72094600D01*
X158299800Y-72094600D02*
X157609800Y-71404600D01*
X157609800Y-71404600D02*
X156416400Y-71404600D01*
X156416400Y-71404600D02*
X155928800Y-70917000D01*
G04 #@! TO.N,G25*
X155944700Y-75120000D02*
X150330900Y-80733800D01*
X150330900Y-80733800D02*
X140189000Y-80733800D01*
X140189000Y-80733800D02*
X138848500Y-79393300D01*
X138848500Y-79393300D02*
X138848500Y-65523400D01*
X138848500Y-65523400D02*
X139614900Y-64757000D01*
X139614900Y-64757000D02*
X139614900Y-64429000D01*
X139614900Y-64429000D02*
X140200800Y-63843100D01*
X140200800Y-63843100D02*
X144243400Y-63843100D01*
X144243400Y-63843100D02*
X145068700Y-64668400D01*
X146894000Y-64668400D02*
X145068700Y-64668400D01*
X157120000Y-75120000D02*
X155944700Y-75120000D01*
G04 #@! TO.N,RST*
X146894000Y-62128400D02*
X145068700Y-62128400D01*
X144591300Y-62681300D02*
X145068700Y-62203900D01*
X145068700Y-62203900D02*
X145068700Y-62128400D01*
G04 #@! TO.N,G36*
X145068700Y-59588400D02*
X144943400Y-59463100D01*
X144943400Y-59463100D02*
X144656600Y-59463100D01*
X146894000Y-59588400D02*
X145068700Y-59588400D01*
G04 #@! TO.N,G35*
X157120000Y-80200000D02*
X155944700Y-80200000D01*
X155944700Y-80200000D02*
X154946800Y-81197900D01*
X154946800Y-81197900D02*
X140016200Y-81197900D01*
X140016200Y-81197900D02*
X138398100Y-79579800D01*
X138398100Y-79579800D02*
X138398100Y-63099000D01*
X138398100Y-63099000D02*
X141083400Y-60413700D01*
X141083400Y-60413700D02*
X143488800Y-60413700D01*
X143488800Y-60413700D02*
X143679400Y-60223100D01*
X143679400Y-60223100D02*
X143679400Y-57780000D01*
X143679400Y-57780000D02*
X144374000Y-57085400D01*
X146894000Y-57048400D02*
X144411000Y-57048400D01*
X144411000Y-57048400D02*
X144374000Y-57085400D01*
G04 #@! TO.N,+3V3*
X163901100Y-82740000D02*
X157456400Y-89184700D01*
X157456400Y-89184700D02*
X157120000Y-89184700D01*
X194544700Y-82740000D02*
X163901100Y-82740000D01*
X163901100Y-82740000D02*
X163901100Y-67537900D01*
X163901100Y-67537900D02*
X157476600Y-61113400D01*
X157476600Y-61113400D02*
X156605500Y-61113400D01*
X157120000Y-90360000D02*
X157120000Y-89184700D01*
X156605500Y-61113400D02*
X150125500Y-67593400D01*
X150125500Y-67593400D02*
X150125500Y-68342200D01*
X150125500Y-68342200D02*
X148719300Y-69748400D01*
X156605500Y-61113400D02*
X155944700Y-60452600D01*
X155944700Y-60452600D02*
X155944700Y-59323200D01*
X155944700Y-59323200D02*
X156752600Y-58515300D01*
X156752600Y-58515300D02*
X157120000Y-58515300D01*
X195720000Y-82740000D02*
X194544700Y-82740000D01*
X146894000Y-69748400D02*
X148719300Y-69748400D01*
X157120000Y-57340000D02*
X157120000Y-58515300D01*
X143538100Y-71011100D02*
X144800800Y-69748400D01*
X144800800Y-69748400D02*
X146894000Y-69748400D01*
G04 #@! TD*
D15*
G04 #@! TO.N,GND*
G36*
X147643175Y-50847265D02*
X147444569Y-50765000D01*
X146555431Y-50765000D01*
X145733974Y-51105259D01*
X145105259Y-51733974D01*
X144765000Y-52555431D01*
X144765000Y-53444569D01*
X145105259Y-54266026D01*
X145733974Y-54894741D01*
X146555431Y-55235000D01*
X147444569Y-55235000D01*
X148266026Y-54894741D01*
X148305880Y-54854887D01*
X195265000Y-54854887D01*
X195265000Y-55545113D01*
X195529138Y-56182799D01*
X196017201Y-56670862D01*
X196654887Y-56935000D01*
X197345113Y-56935000D01*
X197982799Y-56670862D01*
X198470862Y-56182799D01*
X198735000Y-55545113D01*
X198735000Y-54854887D01*
X198470862Y-54217201D01*
X197982799Y-53729138D01*
X197345113Y-53465000D01*
X196654887Y-53465000D01*
X196017201Y-53729138D01*
X195529138Y-54217201D01*
X195265000Y-54854887D01*
X148305880Y-54854887D01*
X148894741Y-54266026D01*
X149077962Y-53823690D01*
X155635000Y-53823690D01*
X155635000Y-54514250D01*
X155793750Y-54673000D01*
X156993000Y-54673000D01*
X156993000Y-53473750D01*
X157247000Y-53473750D01*
X157247000Y-54673000D01*
X158446250Y-54673000D01*
X158605000Y-54514250D01*
X158605000Y-53823690D01*
X158508327Y-53590301D01*
X158329698Y-53411673D01*
X158096309Y-53315000D01*
X157405750Y-53315000D01*
X157247000Y-53473750D01*
X156993000Y-53473750D01*
X156834250Y-53315000D01*
X156143691Y-53315000D01*
X155910302Y-53411673D01*
X155731673Y-53590301D01*
X155635000Y-53823690D01*
X149077962Y-53823690D01*
X149235000Y-53444569D01*
X149235000Y-52555431D01*
X149152736Y-52356827D01*
X149448510Y-52652602D01*
X149488119Y-52711881D01*
X149547398Y-52751490D01*
X149547399Y-52751491D01*
X149722971Y-52868805D01*
X150000000Y-52923909D01*
X150069926Y-52910000D01*
X197505910Y-52910000D01*
X199290000Y-54694092D01*
X199290001Y-95305907D01*
X197505910Y-97090000D01*
X150069926Y-97090000D01*
X150000000Y-97076091D01*
X149722971Y-97131195D01*
X149547399Y-97248509D01*
X149488119Y-97288119D01*
X149448510Y-97347398D01*
X149152736Y-97643173D01*
X149235000Y-97444569D01*
X149235000Y-96555431D01*
X148920802Y-95796890D01*
X155678524Y-95796890D01*
X155848355Y-96206924D01*
X156238642Y-96635183D01*
X156763108Y-96881486D01*
X156993000Y-96760819D01*
X156993000Y-95567000D01*
X157247000Y-95567000D01*
X157247000Y-96760819D01*
X157476892Y-96881486D01*
X158001358Y-96635183D01*
X158391645Y-96206924D01*
X158561476Y-95796890D01*
X158440155Y-95567000D01*
X157247000Y-95567000D01*
X156993000Y-95567000D01*
X155799845Y-95567000D01*
X155678524Y-95796890D01*
X148920802Y-95796890D01*
X148894741Y-95733974D01*
X148266026Y-95105259D01*
X147444569Y-94765000D01*
X146555431Y-94765000D01*
X145733974Y-95105259D01*
X145105259Y-95733974D01*
X144765000Y-96555431D01*
X144765000Y-97444569D01*
X145105259Y-98266026D01*
X145733974Y-98894741D01*
X146555431Y-99235000D01*
X147444569Y-99235000D01*
X147643175Y-99152735D01*
X147505910Y-99290000D01*
X102494092Y-99290000D01*
X102356827Y-99152736D01*
X102555431Y-99235000D01*
X103444569Y-99235000D01*
X104266026Y-98894741D01*
X104894741Y-98266026D01*
X105235000Y-97444569D01*
X105235000Y-96654887D01*
X105265000Y-96654887D01*
X105265000Y-97345113D01*
X105529138Y-97982799D01*
X106017201Y-98470862D01*
X106654887Y-98735000D01*
X107345113Y-98735000D01*
X107982799Y-98470862D01*
X108470862Y-97982799D01*
X108735000Y-97345113D01*
X108735000Y-96654887D01*
X141265000Y-96654887D01*
X141265000Y-97345113D01*
X141529138Y-97982799D01*
X142017201Y-98470862D01*
X142654887Y-98735000D01*
X143345113Y-98735000D01*
X143982799Y-98470862D01*
X144470862Y-97982799D01*
X144735000Y-97345113D01*
X144735000Y-96654887D01*
X144470862Y-96017201D01*
X143982799Y-95529138D01*
X143345113Y-95265000D01*
X142654887Y-95265000D01*
X142017201Y-95529138D01*
X141529138Y-96017201D01*
X141265000Y-96654887D01*
X108735000Y-96654887D01*
X108470862Y-96017201D01*
X107982799Y-95529138D01*
X107345113Y-95265000D01*
X106654887Y-95265000D01*
X106017201Y-95529138D01*
X105529138Y-96017201D01*
X105265000Y-96654887D01*
X105235000Y-96654887D01*
X105235000Y-96555431D01*
X104894741Y-95733974D01*
X104266026Y-95105259D01*
X103444569Y-94765000D01*
X102555431Y-94765000D01*
X101733974Y-95105259D01*
X101105259Y-95733974D01*
X100765000Y-96555431D01*
X100765000Y-97444569D01*
X100847265Y-97643175D01*
X100710000Y-97505910D01*
X100710000Y-63099000D01*
X137623212Y-63099000D01*
X137638101Y-63173852D01*
X137638100Y-79504953D01*
X137623212Y-79579800D01*
X137638100Y-79654647D01*
X137638100Y-79654651D01*
X137682196Y-79876336D01*
X137850171Y-80127729D01*
X137913630Y-80170131D01*
X139425871Y-81682373D01*
X139468271Y-81745829D01*
X139714171Y-81910135D01*
X139706560Y-81948400D01*
X139706560Y-82948400D01*
X139755843Y-83196165D01*
X139896191Y-83406209D01*
X140106235Y-83546557D01*
X140354000Y-83595840D01*
X142186400Y-83595840D01*
X142186400Y-83840960D01*
X140354000Y-83840960D01*
X140106235Y-83890243D01*
X139896191Y-84030591D01*
X139755843Y-84240635D01*
X139706560Y-84488400D01*
X139706560Y-85488400D01*
X139755843Y-85736165D01*
X139896191Y-85946209D01*
X140106235Y-86086557D01*
X140354000Y-86135840D01*
X143354000Y-86135840D01*
X143365185Y-86133615D01*
X143388525Y-86189964D01*
X143361469Y-86217020D01*
X143293563Y-86380960D01*
X140354000Y-86380960D01*
X140106235Y-86430243D01*
X139896191Y-86570591D01*
X139755843Y-86780635D01*
X139706560Y-87028400D01*
X139706560Y-88028400D01*
X139755843Y-88276165D01*
X139896191Y-88486209D01*
X140106235Y-88626557D01*
X140354000Y-88675840D01*
X142919300Y-88675840D01*
X142919300Y-88840997D01*
X142839338Y-88920960D01*
X140354000Y-88920960D01*
X140106235Y-88970243D01*
X139896191Y-89110591D01*
X139755843Y-89320635D01*
X139706560Y-89568400D01*
X139706560Y-90568400D01*
X139755843Y-90816165D01*
X139896191Y-91026209D01*
X140106235Y-91166557D01*
X140354000Y-91215840D01*
X142399958Y-91215840D01*
X142154838Y-91460960D01*
X140354000Y-91460960D01*
X140106235Y-91510243D01*
X139896191Y-91650591D01*
X139755843Y-91860635D01*
X139706560Y-92108400D01*
X139706560Y-93108400D01*
X139755843Y-93356165D01*
X139896191Y-93566209D01*
X140106235Y-93706557D01*
X140354000Y-93755840D01*
X143354000Y-93755840D01*
X143601765Y-93706557D01*
X143811809Y-93566209D01*
X143952157Y-93356165D01*
X144001440Y-93108400D01*
X144001440Y-92108400D01*
X143952157Y-91860635D01*
X143933175Y-91832227D01*
X144163776Y-91601627D01*
X144227229Y-91559229D01*
X144269627Y-91495776D01*
X144269629Y-91495774D01*
X144369170Y-91346800D01*
X144537656Y-91346800D01*
X144483672Y-91382871D01*
X144441272Y-91446327D01*
X144441271Y-91446328D01*
X144315697Y-91634263D01*
X144256712Y-91930800D01*
X144271601Y-92005651D01*
X144271600Y-93190753D01*
X144256712Y-93265600D01*
X144271600Y-93340447D01*
X144271600Y-93340451D01*
X144315696Y-93562136D01*
X144483671Y-93813529D01*
X144547130Y-93855931D01*
X144646969Y-93955770D01*
X144689371Y-94019229D01*
X144940763Y-94187204D01*
X145162448Y-94231300D01*
X145162452Y-94231300D01*
X145237300Y-94246188D01*
X145312148Y-94231300D01*
X155298553Y-94231300D01*
X155373400Y-94246188D01*
X155448247Y-94231300D01*
X155448252Y-94231300D01*
X155669937Y-94187204D01*
X155921329Y-94019229D01*
X155963731Y-93955770D01*
X156009121Y-93910380D01*
X156049375Y-93970625D01*
X156368478Y-94183843D01*
X156238642Y-94244817D01*
X155848355Y-94673076D01*
X155678524Y-95083110D01*
X155799845Y-95313000D01*
X156993000Y-95313000D01*
X156993000Y-95293000D01*
X157247000Y-95293000D01*
X157247000Y-95313000D01*
X158440155Y-95313000D01*
X158561476Y-95083110D01*
X158391645Y-94673076D01*
X158192802Y-94454887D01*
X195265000Y-94454887D01*
X195265000Y-95145113D01*
X195529138Y-95782799D01*
X196017201Y-96270862D01*
X196654887Y-96535000D01*
X197345113Y-96535000D01*
X197982799Y-96270862D01*
X198470862Y-95782799D01*
X198735000Y-95145113D01*
X198735000Y-94454887D01*
X198470862Y-93817201D01*
X197982799Y-93329138D01*
X197345113Y-93065000D01*
X196654887Y-93065000D01*
X196017201Y-93329138D01*
X195529138Y-93817201D01*
X195265000Y-94454887D01*
X158192802Y-94454887D01*
X158001358Y-94244817D01*
X157871522Y-94183843D01*
X158190625Y-93970625D01*
X158518839Y-93479418D01*
X158634092Y-92900000D01*
X158518839Y-92320582D01*
X158190625Y-91829375D01*
X157892239Y-91630000D01*
X158190625Y-91430625D01*
X158518839Y-90939418D01*
X158634092Y-90360000D01*
X158518839Y-89780582D01*
X158285114Y-89430787D01*
X164215902Y-83500000D01*
X194441822Y-83500000D01*
X194649375Y-83810625D01*
X194947761Y-84010000D01*
X194649375Y-84209375D01*
X194321161Y-84700582D01*
X194205908Y-85280000D01*
X194321161Y-85859418D01*
X194649375Y-86350625D01*
X195140582Y-86678839D01*
X195573744Y-86765000D01*
X195866256Y-86765000D01*
X196299418Y-86678839D01*
X196790625Y-86350625D01*
X197118839Y-85859418D01*
X197234092Y-85280000D01*
X197118839Y-84700582D01*
X196790625Y-84209375D01*
X196492239Y-84010000D01*
X196790625Y-83810625D01*
X197118839Y-83319418D01*
X197234092Y-82740000D01*
X197118839Y-82160582D01*
X196790625Y-81669375D01*
X196471522Y-81456157D01*
X196601358Y-81395183D01*
X196991645Y-80966924D01*
X197161476Y-80556890D01*
X197040155Y-80327000D01*
X195847000Y-80327000D01*
X195847000Y-80347000D01*
X195593000Y-80347000D01*
X195593000Y-80327000D01*
X194399845Y-80327000D01*
X194278524Y-80556890D01*
X194448355Y-80966924D01*
X194838642Y-81395183D01*
X194968478Y-81456157D01*
X194649375Y-81669375D01*
X194441822Y-81980000D01*
X164661100Y-81980000D01*
X164661100Y-67612746D01*
X164675988Y-67537899D01*
X164668450Y-67500000D01*
X194205908Y-67500000D01*
X194321161Y-68079418D01*
X194649375Y-68570625D01*
X194947761Y-68770000D01*
X194649375Y-68969375D01*
X194321161Y-69460582D01*
X194205908Y-70040000D01*
X194321161Y-70619418D01*
X194649375Y-71110625D01*
X194947761Y-71310000D01*
X194649375Y-71509375D01*
X194321161Y-72000582D01*
X194205908Y-72580000D01*
X194321161Y-73159418D01*
X194649375Y-73650625D01*
X194947761Y-73850000D01*
X194649375Y-74049375D01*
X194321161Y-74540582D01*
X194205908Y-75120000D01*
X194321161Y-75699418D01*
X194649375Y-76190625D01*
X194947761Y-76390000D01*
X194649375Y-76589375D01*
X194321161Y-77080582D01*
X194205908Y-77660000D01*
X194321161Y-78239418D01*
X194649375Y-78730625D01*
X194968478Y-78943843D01*
X194838642Y-79004817D01*
X194448355Y-79433076D01*
X194278524Y-79843110D01*
X194399845Y-80073000D01*
X195593000Y-80073000D01*
X195593000Y-80053000D01*
X195847000Y-80053000D01*
X195847000Y-80073000D01*
X197040155Y-80073000D01*
X197161476Y-79843110D01*
X196991645Y-79433076D01*
X196601358Y-79004817D01*
X196471522Y-78943843D01*
X196790625Y-78730625D01*
X197118839Y-78239418D01*
X197234092Y-77660000D01*
X197118839Y-77080582D01*
X196790625Y-76589375D01*
X196492239Y-76390000D01*
X196790625Y-76190625D01*
X197118839Y-75699418D01*
X197234092Y-75120000D01*
X197118839Y-74540582D01*
X196790625Y-74049375D01*
X196492239Y-73850000D01*
X196790625Y-73650625D01*
X197118839Y-73159418D01*
X197234092Y-72580000D01*
X197118839Y-72000582D01*
X196790625Y-71509375D01*
X196492239Y-71310000D01*
X196790625Y-71110625D01*
X197118839Y-70619418D01*
X197234092Y-70040000D01*
X197118839Y-69460582D01*
X196790625Y-68969375D01*
X196492239Y-68770000D01*
X196790625Y-68570625D01*
X197118839Y-68079418D01*
X197234092Y-67500000D01*
X197118839Y-66920582D01*
X196790625Y-66429375D01*
X196768967Y-66414904D01*
X196929698Y-66348327D01*
X197108327Y-66169699D01*
X197205000Y-65936310D01*
X197205000Y-65245750D01*
X197046250Y-65087000D01*
X195847000Y-65087000D01*
X195847000Y-65107000D01*
X195593000Y-65107000D01*
X195593000Y-65087000D01*
X194393750Y-65087000D01*
X194235000Y-65245750D01*
X194235000Y-65936310D01*
X194331673Y-66169699D01*
X194510302Y-66348327D01*
X194671033Y-66414904D01*
X194649375Y-66429375D01*
X194321161Y-66920582D01*
X194205908Y-67500000D01*
X164668450Y-67500000D01*
X164661100Y-67463052D01*
X164661100Y-67463048D01*
X164617004Y-67241363D01*
X164449029Y-66989971D01*
X164385573Y-66947571D01*
X161421692Y-63983690D01*
X194235000Y-63983690D01*
X194235000Y-64674250D01*
X194393750Y-64833000D01*
X195593000Y-64833000D01*
X195593000Y-63633750D01*
X195847000Y-63633750D01*
X195847000Y-64833000D01*
X197046250Y-64833000D01*
X197205000Y-64674250D01*
X197205000Y-63983690D01*
X197108327Y-63750301D01*
X196929698Y-63571673D01*
X196696309Y-63475000D01*
X196005750Y-63475000D01*
X195847000Y-63633750D01*
X195593000Y-63633750D01*
X195434250Y-63475000D01*
X194743691Y-63475000D01*
X194510302Y-63571673D01*
X194331673Y-63750301D01*
X194235000Y-63983690D01*
X161421692Y-63983690D01*
X158269933Y-60831932D01*
X158518839Y-60459418D01*
X158634092Y-59880000D01*
X158518839Y-59300582D01*
X158190625Y-58809375D01*
X157892239Y-58610000D01*
X158190625Y-58410625D01*
X158518839Y-57919418D01*
X158634092Y-57340000D01*
X158518839Y-56760582D01*
X158190625Y-56269375D01*
X158168967Y-56254904D01*
X158329698Y-56188327D01*
X158508327Y-56009699D01*
X158605000Y-55776310D01*
X158605000Y-55085750D01*
X158446250Y-54927000D01*
X157247000Y-54927000D01*
X157247000Y-54947000D01*
X156993000Y-54947000D01*
X156993000Y-54927000D01*
X155793750Y-54927000D01*
X155635000Y-55085750D01*
X155635000Y-55776310D01*
X155731673Y-56009699D01*
X155910302Y-56188327D01*
X156071033Y-56254904D01*
X156049375Y-56269375D01*
X155721161Y-56760582D01*
X155605908Y-57340000D01*
X155721161Y-57919418D01*
X155942469Y-58250629D01*
X155460228Y-58732871D01*
X155396772Y-58775271D01*
X155354372Y-58838727D01*
X155354371Y-58838728D01*
X155228797Y-59026663D01*
X155169812Y-59323200D01*
X155184701Y-59398051D01*
X155184700Y-60377753D01*
X155169812Y-60452600D01*
X155184700Y-60527447D01*
X155184700Y-60527451D01*
X155228796Y-60749136D01*
X155396771Y-61000529D01*
X155460229Y-61042930D01*
X155530698Y-61113400D01*
X149641030Y-67003069D01*
X149577571Y-67045471D01*
X149546816Y-67091499D01*
X149464123Y-67057246D01*
X149435204Y-66911863D01*
X149267229Y-66660471D01*
X149015837Y-66492496D01*
X148997780Y-66488904D01*
X148992157Y-66460635D01*
X148851809Y-66250591D01*
X148641765Y-66110243D01*
X148394000Y-66060960D01*
X146670300Y-66060960D01*
X146670300Y-65821126D01*
X146668110Y-65815840D01*
X148394000Y-65815840D01*
X148641765Y-65766557D01*
X148851809Y-65626209D01*
X148992157Y-65416165D01*
X149041440Y-65168400D01*
X149041440Y-64168400D01*
X148992157Y-63920635D01*
X148851809Y-63710591D01*
X148641765Y-63570243D01*
X148394000Y-63520960D01*
X145394000Y-63520960D01*
X145153070Y-63568884D01*
X145177580Y-63558731D01*
X145460471Y-63275840D01*
X148394000Y-63275840D01*
X148641765Y-63226557D01*
X148851809Y-63086209D01*
X148992157Y-62876165D01*
X149041440Y-62628400D01*
X149041440Y-61628400D01*
X148992157Y-61380635D01*
X148851809Y-61170591D01*
X148641765Y-61030243D01*
X148394000Y-60980960D01*
X145394000Y-60980960D01*
X145146235Y-61030243D01*
X144936191Y-61170591D01*
X144795843Y-61380635D01*
X144790220Y-61408904D01*
X144772163Y-61412496D01*
X144520771Y-61580471D01*
X144476785Y-61646300D01*
X144385426Y-61646300D01*
X144005020Y-61803869D01*
X143989000Y-61819889D01*
X143989000Y-61502090D01*
X143892327Y-61268701D01*
X143758556Y-61134931D01*
X143785337Y-61129604D01*
X144036729Y-60961629D01*
X144079131Y-60898170D01*
X144163870Y-60813431D01*
X144227329Y-60771029D01*
X144395304Y-60519637D01*
X144403481Y-60478530D01*
X144450726Y-60498100D01*
X144862474Y-60498100D01*
X144895034Y-60484613D01*
X144936191Y-60546209D01*
X145146235Y-60686557D01*
X145394000Y-60735840D01*
X148394000Y-60735840D01*
X148641765Y-60686557D01*
X148851809Y-60546209D01*
X148992157Y-60336165D01*
X149041440Y-60088400D01*
X149041440Y-59088400D01*
X148992157Y-58840635D01*
X148851809Y-58630591D01*
X148641765Y-58490243D01*
X148394000Y-58440960D01*
X145394000Y-58440960D01*
X145146235Y-58490243D01*
X145095057Y-58524439D01*
X144862474Y-58428100D01*
X144450726Y-58428100D01*
X144439400Y-58432791D01*
X144439400Y-58120400D01*
X144579874Y-58120400D01*
X144918711Y-57980049D01*
X144936191Y-58006209D01*
X145146235Y-58146557D01*
X145394000Y-58195840D01*
X148394000Y-58195840D01*
X148641765Y-58146557D01*
X148851809Y-58006209D01*
X148992157Y-57796165D01*
X149041440Y-57548400D01*
X149041440Y-56548400D01*
X148992157Y-56300635D01*
X148851809Y-56090591D01*
X148641765Y-55950243D01*
X148394000Y-55900960D01*
X145394000Y-55900960D01*
X145146235Y-55950243D01*
X144936191Y-56090591D01*
X144879984Y-56174710D01*
X144579874Y-56050400D01*
X144168126Y-56050400D01*
X143875313Y-56171687D01*
X143713698Y-56010073D01*
X143480309Y-55913400D01*
X142139750Y-55913400D01*
X141981000Y-56072150D01*
X141981000Y-56921400D01*
X142001000Y-56921400D01*
X142001000Y-57175400D01*
X141981000Y-57175400D01*
X141981000Y-58024650D01*
X142139750Y-58183400D01*
X142919401Y-58183400D01*
X142919401Y-58453400D01*
X142139750Y-58453400D01*
X141981000Y-58612150D01*
X141981000Y-59461400D01*
X142001000Y-59461400D01*
X142001000Y-59653700D01*
X141158248Y-59653700D01*
X141083400Y-59638812D01*
X141008552Y-59653700D01*
X141008548Y-59653700D01*
X140835005Y-59688220D01*
X140786862Y-59697796D01*
X140760516Y-59715400D01*
X139877750Y-59715400D01*
X139719000Y-59874150D01*
X139719000Y-60214710D01*
X139815673Y-60448099D01*
X139894936Y-60527362D01*
X137913628Y-62508671D01*
X137850172Y-62551071D01*
X137807772Y-62614527D01*
X137807771Y-62614528D01*
X137682197Y-62802463D01*
X137647124Y-62978789D01*
X137623212Y-63099000D01*
X100710000Y-63099000D01*
X100710000Y-58962090D01*
X139719000Y-58962090D01*
X139719000Y-59302650D01*
X139877750Y-59461400D01*
X141727000Y-59461400D01*
X141727000Y-58612150D01*
X141568250Y-58453400D01*
X140227691Y-58453400D01*
X139994302Y-58550073D01*
X139815673Y-58728701D01*
X139719000Y-58962090D01*
X100710000Y-58962090D01*
X100710000Y-57334150D01*
X139719000Y-57334150D01*
X139719000Y-57674710D01*
X139815673Y-57908099D01*
X139994302Y-58086727D01*
X140227691Y-58183400D01*
X141568250Y-58183400D01*
X141727000Y-58024650D01*
X141727000Y-57175400D01*
X139877750Y-57175400D01*
X139719000Y-57334150D01*
X100710000Y-57334150D01*
X100710000Y-56422090D01*
X139719000Y-56422090D01*
X139719000Y-56762650D01*
X139877750Y-56921400D01*
X141727000Y-56921400D01*
X141727000Y-56072150D01*
X141568250Y-55913400D01*
X140227691Y-55913400D01*
X139994302Y-56010073D01*
X139815673Y-56188701D01*
X139719000Y-56422090D01*
X100710000Y-56422090D01*
X100710000Y-52494090D01*
X100847265Y-52356825D01*
X100765000Y-52555431D01*
X100765000Y-53444569D01*
X101105259Y-54266026D01*
X101733974Y-54894741D01*
X102555431Y-55235000D01*
X103444569Y-55235000D01*
X104266026Y-54894741D01*
X104894741Y-54266026D01*
X105235000Y-53444569D01*
X105235000Y-52654887D01*
X105265000Y-52654887D01*
X105265000Y-53345113D01*
X105529138Y-53982799D01*
X106017201Y-54470862D01*
X106654887Y-54735000D01*
X107345113Y-54735000D01*
X107982799Y-54470862D01*
X108470862Y-53982799D01*
X108735000Y-53345113D01*
X108735000Y-52654887D01*
X141265000Y-52654887D01*
X141265000Y-53345113D01*
X141529138Y-53982799D01*
X142017201Y-54470862D01*
X142654887Y-54735000D01*
X143345113Y-54735000D01*
X143982799Y-54470862D01*
X144470862Y-53982799D01*
X144735000Y-53345113D01*
X144735000Y-52654887D01*
X144470862Y-52017201D01*
X143982799Y-51529138D01*
X143345113Y-51265000D01*
X142654887Y-51265000D01*
X142017201Y-51529138D01*
X141529138Y-52017201D01*
X141265000Y-52654887D01*
X108735000Y-52654887D01*
X108470862Y-52017201D01*
X107982799Y-51529138D01*
X107345113Y-51265000D01*
X106654887Y-51265000D01*
X106017201Y-51529138D01*
X105529138Y-52017201D01*
X105265000Y-52654887D01*
X105235000Y-52654887D01*
X105235000Y-52555431D01*
X104894741Y-51733974D01*
X104266026Y-51105259D01*
X103444569Y-50765000D01*
X102555431Y-50765000D01*
X102356827Y-50847264D01*
X102494092Y-50710000D01*
X147505910Y-50710000D01*
X147643175Y-50847265D01*
X147643175Y-50847265D01*
G37*
X147643175Y-50847265D02*
X147444569Y-50765000D01*
X146555431Y-50765000D01*
X145733974Y-51105259D01*
X145105259Y-51733974D01*
X144765000Y-52555431D01*
X144765000Y-53444569D01*
X145105259Y-54266026D01*
X145733974Y-54894741D01*
X146555431Y-55235000D01*
X147444569Y-55235000D01*
X148266026Y-54894741D01*
X148305880Y-54854887D01*
X195265000Y-54854887D01*
X195265000Y-55545113D01*
X195529138Y-56182799D01*
X196017201Y-56670862D01*
X196654887Y-56935000D01*
X197345113Y-56935000D01*
X197982799Y-56670862D01*
X198470862Y-56182799D01*
X198735000Y-55545113D01*
X198735000Y-54854887D01*
X198470862Y-54217201D01*
X197982799Y-53729138D01*
X197345113Y-53465000D01*
X196654887Y-53465000D01*
X196017201Y-53729138D01*
X195529138Y-54217201D01*
X195265000Y-54854887D01*
X148305880Y-54854887D01*
X148894741Y-54266026D01*
X149077962Y-53823690D01*
X155635000Y-53823690D01*
X155635000Y-54514250D01*
X155793750Y-54673000D01*
X156993000Y-54673000D01*
X156993000Y-53473750D01*
X157247000Y-53473750D01*
X157247000Y-54673000D01*
X158446250Y-54673000D01*
X158605000Y-54514250D01*
X158605000Y-53823690D01*
X158508327Y-53590301D01*
X158329698Y-53411673D01*
X158096309Y-53315000D01*
X157405750Y-53315000D01*
X157247000Y-53473750D01*
X156993000Y-53473750D01*
X156834250Y-53315000D01*
X156143691Y-53315000D01*
X155910302Y-53411673D01*
X155731673Y-53590301D01*
X155635000Y-53823690D01*
X149077962Y-53823690D01*
X149235000Y-53444569D01*
X149235000Y-52555431D01*
X149152736Y-52356827D01*
X149448510Y-52652602D01*
X149488119Y-52711881D01*
X149547398Y-52751490D01*
X149547399Y-52751491D01*
X149722971Y-52868805D01*
X150000000Y-52923909D01*
X150069926Y-52910000D01*
X197505910Y-52910000D01*
X199290000Y-54694092D01*
X199290001Y-95305907D01*
X197505910Y-97090000D01*
X150069926Y-97090000D01*
X150000000Y-97076091D01*
X149722971Y-97131195D01*
X149547399Y-97248509D01*
X149488119Y-97288119D01*
X149448510Y-97347398D01*
X149152736Y-97643173D01*
X149235000Y-97444569D01*
X149235000Y-96555431D01*
X148920802Y-95796890D01*
X155678524Y-95796890D01*
X155848355Y-96206924D01*
X156238642Y-96635183D01*
X156763108Y-96881486D01*
X156993000Y-96760819D01*
X156993000Y-95567000D01*
X157247000Y-95567000D01*
X157247000Y-96760819D01*
X157476892Y-96881486D01*
X158001358Y-96635183D01*
X158391645Y-96206924D01*
X158561476Y-95796890D01*
X158440155Y-95567000D01*
X157247000Y-95567000D01*
X156993000Y-95567000D01*
X155799845Y-95567000D01*
X155678524Y-95796890D01*
X148920802Y-95796890D01*
X148894741Y-95733974D01*
X148266026Y-95105259D01*
X147444569Y-94765000D01*
X146555431Y-94765000D01*
X145733974Y-95105259D01*
X145105259Y-95733974D01*
X144765000Y-96555431D01*
X144765000Y-97444569D01*
X145105259Y-98266026D01*
X145733974Y-98894741D01*
X146555431Y-99235000D01*
X147444569Y-99235000D01*
X147643175Y-99152735D01*
X147505910Y-99290000D01*
X102494092Y-99290000D01*
X102356827Y-99152736D01*
X102555431Y-99235000D01*
X103444569Y-99235000D01*
X104266026Y-98894741D01*
X104894741Y-98266026D01*
X105235000Y-97444569D01*
X105235000Y-96654887D01*
X105265000Y-96654887D01*
X105265000Y-97345113D01*
X105529138Y-97982799D01*
X106017201Y-98470862D01*
X106654887Y-98735000D01*
X107345113Y-98735000D01*
X107982799Y-98470862D01*
X108470862Y-97982799D01*
X108735000Y-97345113D01*
X108735000Y-96654887D01*
X141265000Y-96654887D01*
X141265000Y-97345113D01*
X141529138Y-97982799D01*
X142017201Y-98470862D01*
X142654887Y-98735000D01*
X143345113Y-98735000D01*
X143982799Y-98470862D01*
X144470862Y-97982799D01*
X144735000Y-97345113D01*
X144735000Y-96654887D01*
X144470862Y-96017201D01*
X143982799Y-95529138D01*
X143345113Y-95265000D01*
X142654887Y-95265000D01*
X142017201Y-95529138D01*
X141529138Y-96017201D01*
X141265000Y-96654887D01*
X108735000Y-96654887D01*
X108470862Y-96017201D01*
X107982799Y-95529138D01*
X107345113Y-95265000D01*
X106654887Y-95265000D01*
X106017201Y-95529138D01*
X105529138Y-96017201D01*
X105265000Y-96654887D01*
X105235000Y-96654887D01*
X105235000Y-96555431D01*
X104894741Y-95733974D01*
X104266026Y-95105259D01*
X103444569Y-94765000D01*
X102555431Y-94765000D01*
X101733974Y-95105259D01*
X101105259Y-95733974D01*
X100765000Y-96555431D01*
X100765000Y-97444569D01*
X100847265Y-97643175D01*
X100710000Y-97505910D01*
X100710000Y-63099000D01*
X137623212Y-63099000D01*
X137638101Y-63173852D01*
X137638100Y-79504953D01*
X137623212Y-79579800D01*
X137638100Y-79654647D01*
X137638100Y-79654651D01*
X137682196Y-79876336D01*
X137850171Y-80127729D01*
X137913630Y-80170131D01*
X139425871Y-81682373D01*
X139468271Y-81745829D01*
X139714171Y-81910135D01*
X139706560Y-81948400D01*
X139706560Y-82948400D01*
X139755843Y-83196165D01*
X139896191Y-83406209D01*
X140106235Y-83546557D01*
X140354000Y-83595840D01*
X142186400Y-83595840D01*
X142186400Y-83840960D01*
X140354000Y-83840960D01*
X140106235Y-83890243D01*
X139896191Y-84030591D01*
X139755843Y-84240635D01*
X139706560Y-84488400D01*
X139706560Y-85488400D01*
X139755843Y-85736165D01*
X139896191Y-85946209D01*
X140106235Y-86086557D01*
X140354000Y-86135840D01*
X143354000Y-86135840D01*
X143365185Y-86133615D01*
X143388525Y-86189964D01*
X143361469Y-86217020D01*
X143293563Y-86380960D01*
X140354000Y-86380960D01*
X140106235Y-86430243D01*
X139896191Y-86570591D01*
X139755843Y-86780635D01*
X139706560Y-87028400D01*
X139706560Y-88028400D01*
X139755843Y-88276165D01*
X139896191Y-88486209D01*
X140106235Y-88626557D01*
X140354000Y-88675840D01*
X142919300Y-88675840D01*
X142919300Y-88840997D01*
X142839338Y-88920960D01*
X140354000Y-88920960D01*
X140106235Y-88970243D01*
X139896191Y-89110591D01*
X139755843Y-89320635D01*
X139706560Y-89568400D01*
X139706560Y-90568400D01*
X139755843Y-90816165D01*
X139896191Y-91026209D01*
X140106235Y-91166557D01*
X140354000Y-91215840D01*
X142399958Y-91215840D01*
X142154838Y-91460960D01*
X140354000Y-91460960D01*
X140106235Y-91510243D01*
X139896191Y-91650591D01*
X139755843Y-91860635D01*
X139706560Y-92108400D01*
X139706560Y-93108400D01*
X139755843Y-93356165D01*
X139896191Y-93566209D01*
X140106235Y-93706557D01*
X140354000Y-93755840D01*
X143354000Y-93755840D01*
X143601765Y-93706557D01*
X143811809Y-93566209D01*
X143952157Y-93356165D01*
X144001440Y-93108400D01*
X144001440Y-92108400D01*
X143952157Y-91860635D01*
X143933175Y-91832227D01*
X144163776Y-91601627D01*
X144227229Y-91559229D01*
X144269627Y-91495776D01*
X144269629Y-91495774D01*
X144369170Y-91346800D01*
X144537656Y-91346800D01*
X144483672Y-91382871D01*
X144441272Y-91446327D01*
X144441271Y-91446328D01*
X144315697Y-91634263D01*
X144256712Y-91930800D01*
X144271601Y-92005651D01*
X144271600Y-93190753D01*
X144256712Y-93265600D01*
X144271600Y-93340447D01*
X144271600Y-93340451D01*
X144315696Y-93562136D01*
X144483671Y-93813529D01*
X144547130Y-93855931D01*
X144646969Y-93955770D01*
X144689371Y-94019229D01*
X144940763Y-94187204D01*
X145162448Y-94231300D01*
X145162452Y-94231300D01*
X145237300Y-94246188D01*
X145312148Y-94231300D01*
X155298553Y-94231300D01*
X155373400Y-94246188D01*
X155448247Y-94231300D01*
X155448252Y-94231300D01*
X155669937Y-94187204D01*
X155921329Y-94019229D01*
X155963731Y-93955770D01*
X156009121Y-93910380D01*
X156049375Y-93970625D01*
X156368478Y-94183843D01*
X156238642Y-94244817D01*
X155848355Y-94673076D01*
X155678524Y-95083110D01*
X155799845Y-95313000D01*
X156993000Y-95313000D01*
X156993000Y-95293000D01*
X157247000Y-95293000D01*
X157247000Y-95313000D01*
X158440155Y-95313000D01*
X158561476Y-95083110D01*
X158391645Y-94673076D01*
X158192802Y-94454887D01*
X195265000Y-94454887D01*
X195265000Y-95145113D01*
X195529138Y-95782799D01*
X196017201Y-96270862D01*
X196654887Y-96535000D01*
X197345113Y-96535000D01*
X197982799Y-96270862D01*
X198470862Y-95782799D01*
X198735000Y-95145113D01*
X198735000Y-94454887D01*
X198470862Y-93817201D01*
X197982799Y-93329138D01*
X197345113Y-93065000D01*
X196654887Y-93065000D01*
X196017201Y-93329138D01*
X195529138Y-93817201D01*
X195265000Y-94454887D01*
X158192802Y-94454887D01*
X158001358Y-94244817D01*
X157871522Y-94183843D01*
X158190625Y-93970625D01*
X158518839Y-93479418D01*
X158634092Y-92900000D01*
X158518839Y-92320582D01*
X158190625Y-91829375D01*
X157892239Y-91630000D01*
X158190625Y-91430625D01*
X158518839Y-90939418D01*
X158634092Y-90360000D01*
X158518839Y-89780582D01*
X158285114Y-89430787D01*
X164215902Y-83500000D01*
X194441822Y-83500000D01*
X194649375Y-83810625D01*
X194947761Y-84010000D01*
X194649375Y-84209375D01*
X194321161Y-84700582D01*
X194205908Y-85280000D01*
X194321161Y-85859418D01*
X194649375Y-86350625D01*
X195140582Y-86678839D01*
X195573744Y-86765000D01*
X195866256Y-86765000D01*
X196299418Y-86678839D01*
X196790625Y-86350625D01*
X197118839Y-85859418D01*
X197234092Y-85280000D01*
X197118839Y-84700582D01*
X196790625Y-84209375D01*
X196492239Y-84010000D01*
X196790625Y-83810625D01*
X197118839Y-83319418D01*
X197234092Y-82740000D01*
X197118839Y-82160582D01*
X196790625Y-81669375D01*
X196471522Y-81456157D01*
X196601358Y-81395183D01*
X196991645Y-80966924D01*
X197161476Y-80556890D01*
X197040155Y-80327000D01*
X195847000Y-80327000D01*
X195847000Y-80347000D01*
X195593000Y-80347000D01*
X195593000Y-80327000D01*
X194399845Y-80327000D01*
X194278524Y-80556890D01*
X194448355Y-80966924D01*
X194838642Y-81395183D01*
X194968478Y-81456157D01*
X194649375Y-81669375D01*
X194441822Y-81980000D01*
X164661100Y-81980000D01*
X164661100Y-67612746D01*
X164675988Y-67537899D01*
X164668450Y-67500000D01*
X194205908Y-67500000D01*
X194321161Y-68079418D01*
X194649375Y-68570625D01*
X194947761Y-68770000D01*
X194649375Y-68969375D01*
X194321161Y-69460582D01*
X194205908Y-70040000D01*
X194321161Y-70619418D01*
X194649375Y-71110625D01*
X194947761Y-71310000D01*
X194649375Y-71509375D01*
X194321161Y-72000582D01*
X194205908Y-72580000D01*
X194321161Y-73159418D01*
X194649375Y-73650625D01*
X194947761Y-73850000D01*
X194649375Y-74049375D01*
X194321161Y-74540582D01*
X194205908Y-75120000D01*
X194321161Y-75699418D01*
X194649375Y-76190625D01*
X194947761Y-76390000D01*
X194649375Y-76589375D01*
X194321161Y-77080582D01*
X194205908Y-77660000D01*
X194321161Y-78239418D01*
X194649375Y-78730625D01*
X194968478Y-78943843D01*
X194838642Y-79004817D01*
X194448355Y-79433076D01*
X194278524Y-79843110D01*
X194399845Y-80073000D01*
X195593000Y-80073000D01*
X195593000Y-80053000D01*
X195847000Y-80053000D01*
X195847000Y-80073000D01*
X197040155Y-80073000D01*
X197161476Y-79843110D01*
X196991645Y-79433076D01*
X196601358Y-79004817D01*
X196471522Y-78943843D01*
X196790625Y-78730625D01*
X197118839Y-78239418D01*
X197234092Y-77660000D01*
X197118839Y-77080582D01*
X196790625Y-76589375D01*
X196492239Y-76390000D01*
X196790625Y-76190625D01*
X197118839Y-75699418D01*
X197234092Y-75120000D01*
X197118839Y-74540582D01*
X196790625Y-74049375D01*
X196492239Y-73850000D01*
X196790625Y-73650625D01*
X197118839Y-73159418D01*
X197234092Y-72580000D01*
X197118839Y-72000582D01*
X196790625Y-71509375D01*
X196492239Y-71310000D01*
X196790625Y-71110625D01*
X197118839Y-70619418D01*
X197234092Y-70040000D01*
X197118839Y-69460582D01*
X196790625Y-68969375D01*
X196492239Y-68770000D01*
X196790625Y-68570625D01*
X197118839Y-68079418D01*
X197234092Y-67500000D01*
X197118839Y-66920582D01*
X196790625Y-66429375D01*
X196768967Y-66414904D01*
X196929698Y-66348327D01*
X197108327Y-66169699D01*
X197205000Y-65936310D01*
X197205000Y-65245750D01*
X197046250Y-65087000D01*
X195847000Y-65087000D01*
X195847000Y-65107000D01*
X195593000Y-65107000D01*
X195593000Y-65087000D01*
X194393750Y-65087000D01*
X194235000Y-65245750D01*
X194235000Y-65936310D01*
X194331673Y-66169699D01*
X194510302Y-66348327D01*
X194671033Y-66414904D01*
X194649375Y-66429375D01*
X194321161Y-66920582D01*
X194205908Y-67500000D01*
X164668450Y-67500000D01*
X164661100Y-67463052D01*
X164661100Y-67463048D01*
X164617004Y-67241363D01*
X164449029Y-66989971D01*
X164385573Y-66947571D01*
X161421692Y-63983690D01*
X194235000Y-63983690D01*
X194235000Y-64674250D01*
X194393750Y-64833000D01*
X195593000Y-64833000D01*
X195593000Y-63633750D01*
X195847000Y-63633750D01*
X195847000Y-64833000D01*
X197046250Y-64833000D01*
X197205000Y-64674250D01*
X197205000Y-63983690D01*
X197108327Y-63750301D01*
X196929698Y-63571673D01*
X196696309Y-63475000D01*
X196005750Y-63475000D01*
X195847000Y-63633750D01*
X195593000Y-63633750D01*
X195434250Y-63475000D01*
X194743691Y-63475000D01*
X194510302Y-63571673D01*
X194331673Y-63750301D01*
X194235000Y-63983690D01*
X161421692Y-63983690D01*
X158269933Y-60831932D01*
X158518839Y-60459418D01*
X158634092Y-59880000D01*
X158518839Y-59300582D01*
X158190625Y-58809375D01*
X157892239Y-58610000D01*
X158190625Y-58410625D01*
X158518839Y-57919418D01*
X158634092Y-57340000D01*
X158518839Y-56760582D01*
X158190625Y-56269375D01*
X158168967Y-56254904D01*
X158329698Y-56188327D01*
X158508327Y-56009699D01*
X158605000Y-55776310D01*
X158605000Y-55085750D01*
X158446250Y-54927000D01*
X157247000Y-54927000D01*
X157247000Y-54947000D01*
X156993000Y-54947000D01*
X156993000Y-54927000D01*
X155793750Y-54927000D01*
X155635000Y-55085750D01*
X155635000Y-55776310D01*
X155731673Y-56009699D01*
X155910302Y-56188327D01*
X156071033Y-56254904D01*
X156049375Y-56269375D01*
X155721161Y-56760582D01*
X155605908Y-57340000D01*
X155721161Y-57919418D01*
X155942469Y-58250629D01*
X155460228Y-58732871D01*
X155396772Y-58775271D01*
X155354372Y-58838727D01*
X155354371Y-58838728D01*
X155228797Y-59026663D01*
X155169812Y-59323200D01*
X155184701Y-59398051D01*
X155184700Y-60377753D01*
X155169812Y-60452600D01*
X155184700Y-60527447D01*
X155184700Y-60527451D01*
X155228796Y-60749136D01*
X155396771Y-61000529D01*
X155460229Y-61042930D01*
X155530698Y-61113400D01*
X149641030Y-67003069D01*
X149577571Y-67045471D01*
X149546816Y-67091499D01*
X149464123Y-67057246D01*
X149435204Y-66911863D01*
X149267229Y-66660471D01*
X149015837Y-66492496D01*
X148997780Y-66488904D01*
X148992157Y-66460635D01*
X148851809Y-66250591D01*
X148641765Y-66110243D01*
X148394000Y-66060960D01*
X146670300Y-66060960D01*
X146670300Y-65821126D01*
X146668110Y-65815840D01*
X148394000Y-65815840D01*
X148641765Y-65766557D01*
X148851809Y-65626209D01*
X148992157Y-65416165D01*
X149041440Y-65168400D01*
X149041440Y-64168400D01*
X148992157Y-63920635D01*
X148851809Y-63710591D01*
X148641765Y-63570243D01*
X148394000Y-63520960D01*
X145394000Y-63520960D01*
X145153070Y-63568884D01*
X145177580Y-63558731D01*
X145460471Y-63275840D01*
X148394000Y-63275840D01*
X148641765Y-63226557D01*
X148851809Y-63086209D01*
X148992157Y-62876165D01*
X149041440Y-62628400D01*
X149041440Y-61628400D01*
X148992157Y-61380635D01*
X148851809Y-61170591D01*
X148641765Y-61030243D01*
X148394000Y-60980960D01*
X145394000Y-60980960D01*
X145146235Y-61030243D01*
X144936191Y-61170591D01*
X144795843Y-61380635D01*
X144790220Y-61408904D01*
X144772163Y-61412496D01*
X144520771Y-61580471D01*
X144476785Y-61646300D01*
X144385426Y-61646300D01*
X144005020Y-61803869D01*
X143989000Y-61819889D01*
X143989000Y-61502090D01*
X143892327Y-61268701D01*
X143758556Y-61134931D01*
X143785337Y-61129604D01*
X144036729Y-60961629D01*
X144079131Y-60898170D01*
X144163870Y-60813431D01*
X144227329Y-60771029D01*
X144395304Y-60519637D01*
X144403481Y-60478530D01*
X144450726Y-60498100D01*
X144862474Y-60498100D01*
X144895034Y-60484613D01*
X144936191Y-60546209D01*
X145146235Y-60686557D01*
X145394000Y-60735840D01*
X148394000Y-60735840D01*
X148641765Y-60686557D01*
X148851809Y-60546209D01*
X148992157Y-60336165D01*
X149041440Y-60088400D01*
X149041440Y-59088400D01*
X148992157Y-58840635D01*
X148851809Y-58630591D01*
X148641765Y-58490243D01*
X148394000Y-58440960D01*
X145394000Y-58440960D01*
X145146235Y-58490243D01*
X145095057Y-58524439D01*
X144862474Y-58428100D01*
X144450726Y-58428100D01*
X144439400Y-58432791D01*
X144439400Y-58120400D01*
X144579874Y-58120400D01*
X144918711Y-57980049D01*
X144936191Y-58006209D01*
X145146235Y-58146557D01*
X145394000Y-58195840D01*
X148394000Y-58195840D01*
X148641765Y-58146557D01*
X148851809Y-58006209D01*
X148992157Y-57796165D01*
X149041440Y-57548400D01*
X149041440Y-56548400D01*
X148992157Y-56300635D01*
X148851809Y-56090591D01*
X148641765Y-55950243D01*
X148394000Y-55900960D01*
X145394000Y-55900960D01*
X145146235Y-55950243D01*
X144936191Y-56090591D01*
X144879984Y-56174710D01*
X144579874Y-56050400D01*
X144168126Y-56050400D01*
X143875313Y-56171687D01*
X143713698Y-56010073D01*
X143480309Y-55913400D01*
X142139750Y-55913400D01*
X141981000Y-56072150D01*
X141981000Y-56921400D01*
X142001000Y-56921400D01*
X142001000Y-57175400D01*
X141981000Y-57175400D01*
X141981000Y-58024650D01*
X142139750Y-58183400D01*
X142919401Y-58183400D01*
X142919401Y-58453400D01*
X142139750Y-58453400D01*
X141981000Y-58612150D01*
X141981000Y-59461400D01*
X142001000Y-59461400D01*
X142001000Y-59653700D01*
X141158248Y-59653700D01*
X141083400Y-59638812D01*
X141008552Y-59653700D01*
X141008548Y-59653700D01*
X140835005Y-59688220D01*
X140786862Y-59697796D01*
X140760516Y-59715400D01*
X139877750Y-59715400D01*
X139719000Y-59874150D01*
X139719000Y-60214710D01*
X139815673Y-60448099D01*
X139894936Y-60527362D01*
X137913628Y-62508671D01*
X137850172Y-62551071D01*
X137807772Y-62614527D01*
X137807771Y-62614528D01*
X137682197Y-62802463D01*
X137647124Y-62978789D01*
X137623212Y-63099000D01*
X100710000Y-63099000D01*
X100710000Y-58962090D01*
X139719000Y-58962090D01*
X139719000Y-59302650D01*
X139877750Y-59461400D01*
X141727000Y-59461400D01*
X141727000Y-58612150D01*
X141568250Y-58453400D01*
X140227691Y-58453400D01*
X139994302Y-58550073D01*
X139815673Y-58728701D01*
X139719000Y-58962090D01*
X100710000Y-58962090D01*
X100710000Y-57334150D01*
X139719000Y-57334150D01*
X139719000Y-57674710D01*
X139815673Y-57908099D01*
X139994302Y-58086727D01*
X140227691Y-58183400D01*
X141568250Y-58183400D01*
X141727000Y-58024650D01*
X141727000Y-57175400D01*
X139877750Y-57175400D01*
X139719000Y-57334150D01*
X100710000Y-57334150D01*
X100710000Y-56422090D01*
X139719000Y-56422090D01*
X139719000Y-56762650D01*
X139877750Y-56921400D01*
X141727000Y-56921400D01*
X141727000Y-56072150D01*
X141568250Y-55913400D01*
X140227691Y-55913400D01*
X139994302Y-56010073D01*
X139815673Y-56188701D01*
X139719000Y-56422090D01*
X100710000Y-56422090D01*
X100710000Y-52494090D01*
X100847265Y-52356825D01*
X100765000Y-52555431D01*
X100765000Y-53444569D01*
X101105259Y-54266026D01*
X101733974Y-54894741D01*
X102555431Y-55235000D01*
X103444569Y-55235000D01*
X104266026Y-54894741D01*
X104894741Y-54266026D01*
X105235000Y-53444569D01*
X105235000Y-52654887D01*
X105265000Y-52654887D01*
X105265000Y-53345113D01*
X105529138Y-53982799D01*
X106017201Y-54470862D01*
X106654887Y-54735000D01*
X107345113Y-54735000D01*
X107982799Y-54470862D01*
X108470862Y-53982799D01*
X108735000Y-53345113D01*
X108735000Y-52654887D01*
X141265000Y-52654887D01*
X141265000Y-53345113D01*
X141529138Y-53982799D01*
X142017201Y-54470862D01*
X142654887Y-54735000D01*
X143345113Y-54735000D01*
X143982799Y-54470862D01*
X144470862Y-53982799D01*
X144735000Y-53345113D01*
X144735000Y-52654887D01*
X144470862Y-52017201D01*
X143982799Y-51529138D01*
X143345113Y-51265000D01*
X142654887Y-51265000D01*
X142017201Y-51529138D01*
X141529138Y-52017201D01*
X141265000Y-52654887D01*
X108735000Y-52654887D01*
X108470862Y-52017201D01*
X107982799Y-51529138D01*
X107345113Y-51265000D01*
X106654887Y-51265000D01*
X106017201Y-51529138D01*
X105529138Y-52017201D01*
X105265000Y-52654887D01*
X105235000Y-52654887D01*
X105235000Y-52555431D01*
X104894741Y-51733974D01*
X104266026Y-51105259D01*
X103444569Y-50765000D01*
X102555431Y-50765000D01*
X102356827Y-50847264D01*
X102494092Y-50710000D01*
X147505910Y-50710000D01*
X147643175Y-50847265D01*
G36*
X141981000Y-62001400D02*
X142001000Y-62001400D01*
X142001000Y-62255400D01*
X141981000Y-62255400D01*
X141981000Y-62275400D01*
X141727000Y-62275400D01*
X141727000Y-62255400D01*
X141707000Y-62255400D01*
X141707000Y-62001400D01*
X141727000Y-62001400D01*
X141727000Y-61981400D01*
X141981000Y-61981400D01*
X141981000Y-62001400D01*
X141981000Y-62001400D01*
G37*
X141981000Y-62001400D02*
X142001000Y-62001400D01*
X142001000Y-62255400D01*
X141981000Y-62255400D01*
X141981000Y-62275400D01*
X141727000Y-62275400D01*
X141727000Y-62255400D01*
X141707000Y-62255400D01*
X141707000Y-62001400D01*
X141727000Y-62001400D01*
X141727000Y-61981400D01*
X141981000Y-61981400D01*
X141981000Y-62001400D01*
G04 #@! TD*
M02*
