G04 #@! TF.GenerationSoftware,KiCad,Pcbnew,5.0.0-fee4fd1~65~ubuntu17.10.1*
G04 #@! TF.CreationDate,2018-07-21T10:10:14+09:00*
G04 #@! TF.ProjectId,M5StackSideBB,4D35537461636B5369646542422E6B69,rev?*
G04 #@! TF.SameCoordinates,Original*
G04 #@! TF.FileFunction,Legend,Bot*
G04 #@! TF.FilePolarity,Positive*
%FSLAX46Y46*%
G04 Gerber Fmt 4.6, Leading zero omitted, Abs format (unit mm)*
G04 Created by KiCad (PCBNEW 5.0.0-fee4fd1~65~ubuntu17.10.1) date Sat Jul 21 10:10:14 2018*
%MOMM*%
%LPD*%
G01*
G04 APERTURE LIST*
%ADD10C,0.225000*%
%ADD11C,0.300000*%
%ADD12C,0.120000*%
%ADD13C,0.010000*%
G04 APERTURE END LIST*
D10*
X164221085Y-98705142D02*
X164521085Y-98276571D01*
X164735371Y-98705142D02*
X164735371Y-97805142D01*
X164392514Y-97805142D01*
X164306800Y-97848000D01*
X164263942Y-97890857D01*
X164221085Y-97976571D01*
X164221085Y-98105142D01*
X164263942Y-98190857D01*
X164306800Y-98233714D01*
X164392514Y-98276571D01*
X164735371Y-98276571D01*
X163492514Y-98662285D02*
X163578228Y-98705142D01*
X163749657Y-98705142D01*
X163835371Y-98662285D01*
X163878228Y-98576571D01*
X163878228Y-98233714D01*
X163835371Y-98148000D01*
X163749657Y-98105142D01*
X163578228Y-98105142D01*
X163492514Y-98148000D01*
X163449657Y-98233714D01*
X163449657Y-98319428D01*
X163878228Y-98405142D01*
X163149657Y-98105142D02*
X162935371Y-98705142D01*
X162721085Y-98105142D01*
X161221085Y-98705142D02*
X161735371Y-98705142D01*
X161478228Y-98705142D02*
X161478228Y-97805142D01*
X161563942Y-97933714D01*
X161649657Y-98019428D01*
X161735371Y-98062285D01*
X160835371Y-98619428D02*
X160792514Y-98662285D01*
X160835371Y-98705142D01*
X160878228Y-98662285D01*
X160835371Y-98619428D01*
X160835371Y-98705142D01*
X160449657Y-97890857D02*
X160406800Y-97848000D01*
X160321085Y-97805142D01*
X160106800Y-97805142D01*
X160021085Y-97848000D01*
X159978228Y-97890857D01*
X159935371Y-97976571D01*
X159935371Y-98062285D01*
X159978228Y-98190857D01*
X160492514Y-98705142D01*
X159935371Y-98705142D01*
D11*
X182117771Y-98570171D02*
X182117771Y-97070171D01*
X181617771Y-98141600D01*
X181117771Y-97070171D01*
X181117771Y-98570171D01*
X179689200Y-97070171D02*
X180403485Y-97070171D01*
X180474914Y-97784457D01*
X180403485Y-97713028D01*
X180260628Y-97641600D01*
X179903485Y-97641600D01*
X179760628Y-97713028D01*
X179689200Y-97784457D01*
X179617771Y-97927314D01*
X179617771Y-98284457D01*
X179689200Y-98427314D01*
X179760628Y-98498742D01*
X179903485Y-98570171D01*
X180260628Y-98570171D01*
X180403485Y-98498742D01*
X180474914Y-98427314D01*
X179046342Y-98498742D02*
X178832057Y-98570171D01*
X178474914Y-98570171D01*
X178332057Y-98498742D01*
X178260628Y-98427314D01*
X178189200Y-98284457D01*
X178189200Y-98141600D01*
X178260628Y-97998742D01*
X178332057Y-97927314D01*
X178474914Y-97855885D01*
X178760628Y-97784457D01*
X178903485Y-97713028D01*
X178974914Y-97641600D01*
X179046342Y-97498742D01*
X179046342Y-97355885D01*
X178974914Y-97213028D01*
X178903485Y-97141600D01*
X178760628Y-97070171D01*
X178403485Y-97070171D01*
X178189200Y-97141600D01*
X177760628Y-97570171D02*
X177189200Y-97570171D01*
X177546342Y-97070171D02*
X177546342Y-98355885D01*
X177474914Y-98498742D01*
X177332057Y-98570171D01*
X177189200Y-98570171D01*
X176046342Y-98570171D02*
X176046342Y-97784457D01*
X176117771Y-97641600D01*
X176260628Y-97570171D01*
X176546342Y-97570171D01*
X176689200Y-97641600D01*
X176046342Y-98498742D02*
X176189200Y-98570171D01*
X176546342Y-98570171D01*
X176689200Y-98498742D01*
X176760628Y-98355885D01*
X176760628Y-98213028D01*
X176689200Y-98070171D01*
X176546342Y-97998742D01*
X176189200Y-97998742D01*
X176046342Y-97927314D01*
X174689200Y-98498742D02*
X174832057Y-98570171D01*
X175117771Y-98570171D01*
X175260628Y-98498742D01*
X175332057Y-98427314D01*
X175403485Y-98284457D01*
X175403485Y-97855885D01*
X175332057Y-97713028D01*
X175260628Y-97641600D01*
X175117771Y-97570171D01*
X174832057Y-97570171D01*
X174689200Y-97641600D01*
X174046342Y-98570171D02*
X174046342Y-97070171D01*
X173903485Y-97998742D02*
X173474914Y-98570171D01*
X173474914Y-97570171D02*
X174046342Y-98141600D01*
X172903485Y-98498742D02*
X172689200Y-98570171D01*
X172332057Y-98570171D01*
X172189200Y-98498742D01*
X172117771Y-98427314D01*
X172046342Y-98284457D01*
X172046342Y-98141600D01*
X172117771Y-97998742D01*
X172189200Y-97927314D01*
X172332057Y-97855885D01*
X172617771Y-97784457D01*
X172760628Y-97713028D01*
X172832057Y-97641600D01*
X172903485Y-97498742D01*
X172903485Y-97355885D01*
X172832057Y-97213028D01*
X172760628Y-97141600D01*
X172617771Y-97070171D01*
X172260628Y-97070171D01*
X172046342Y-97141600D01*
X171403485Y-98570171D02*
X171403485Y-97570171D01*
X171403485Y-97070171D02*
X171474914Y-97141600D01*
X171403485Y-97213028D01*
X171332057Y-97141600D01*
X171403485Y-97070171D01*
X171403485Y-97213028D01*
X170046342Y-98570171D02*
X170046342Y-97070171D01*
X170046342Y-98498742D02*
X170189200Y-98570171D01*
X170474914Y-98570171D01*
X170617771Y-98498742D01*
X170689200Y-98427314D01*
X170760628Y-98284457D01*
X170760628Y-97855885D01*
X170689200Y-97713028D01*
X170617771Y-97641600D01*
X170474914Y-97570171D01*
X170189200Y-97570171D01*
X170046342Y-97641600D01*
X168760628Y-98498742D02*
X168903485Y-98570171D01*
X169189200Y-98570171D01*
X169332057Y-98498742D01*
X169403485Y-98355885D01*
X169403485Y-97784457D01*
X169332057Y-97641600D01*
X169189200Y-97570171D01*
X168903485Y-97570171D01*
X168760628Y-97641600D01*
X168689200Y-97784457D01*
X168689200Y-97927314D01*
X169403485Y-98070171D01*
X167546342Y-97784457D02*
X167332057Y-97855885D01*
X167260628Y-97927314D01*
X167189200Y-98070171D01*
X167189200Y-98284457D01*
X167260628Y-98427314D01*
X167332057Y-98498742D01*
X167474914Y-98570171D01*
X168046342Y-98570171D01*
X168046342Y-97070171D01*
X167546342Y-97070171D01*
X167403485Y-97141600D01*
X167332057Y-97213028D01*
X167260628Y-97355885D01*
X167260628Y-97498742D01*
X167332057Y-97641600D01*
X167403485Y-97713028D01*
X167546342Y-97784457D01*
X168046342Y-97784457D01*
X166046342Y-97784457D02*
X165832057Y-97855885D01*
X165760628Y-97927314D01*
X165689200Y-98070171D01*
X165689200Y-98284457D01*
X165760628Y-98427314D01*
X165832057Y-98498742D01*
X165974914Y-98570171D01*
X166546342Y-98570171D01*
X166546342Y-97070171D01*
X166046342Y-97070171D01*
X165903485Y-97141600D01*
X165832057Y-97213028D01*
X165760628Y-97355885D01*
X165760628Y-97498742D01*
X165832057Y-97641600D01*
X165903485Y-97713028D01*
X166046342Y-97784457D01*
X166546342Y-97784457D01*
D12*
G04 #@! TO.C,J4*
X141774000Y-56288400D02*
X140414000Y-56288400D01*
X146974000Y-93368400D02*
X146974000Y-93938400D01*
X146974000Y-90828400D02*
X146974000Y-91848400D01*
X146974000Y-88288400D02*
X146974000Y-89308400D01*
X146974000Y-85748400D02*
X146974000Y-86768400D01*
X146974000Y-83208400D02*
X146974000Y-84228400D01*
X146974000Y-80668400D02*
X146974000Y-81688400D01*
X146974000Y-78128400D02*
X146974000Y-79148400D01*
X146974000Y-75588400D02*
X146974000Y-76608400D01*
X146974000Y-73048400D02*
X146974000Y-74068400D01*
X146974000Y-70508400D02*
X146974000Y-71528400D01*
X146974000Y-67968400D02*
X146974000Y-68988400D01*
X146974000Y-65428400D02*
X146974000Y-66448400D01*
X146974000Y-62888400D02*
X146974000Y-63908400D01*
X146974000Y-60348400D02*
X146974000Y-61368400D01*
X146974000Y-57808400D02*
X146974000Y-58828400D01*
X146974000Y-55718400D02*
X146974000Y-56288400D01*
X146974000Y-93938400D02*
X141774000Y-93938400D01*
X141774000Y-93368400D02*
X141774000Y-93938400D01*
X141774000Y-90828400D02*
X141774000Y-91848400D01*
X141774000Y-88288400D02*
X141774000Y-89308400D01*
X141774000Y-85748400D02*
X141774000Y-86768400D01*
X141774000Y-83208400D02*
X141774000Y-84228400D01*
X141774000Y-80668400D02*
X141774000Y-81688400D01*
X141774000Y-78128400D02*
X141774000Y-79148400D01*
X141774000Y-75588400D02*
X141774000Y-76608400D01*
X141774000Y-73048400D02*
X141774000Y-74068400D01*
X141774000Y-70508400D02*
X141774000Y-71528400D01*
X141774000Y-67968400D02*
X141774000Y-68988400D01*
X141774000Y-65428400D02*
X141774000Y-66448400D01*
X141774000Y-62888400D02*
X141774000Y-63908400D01*
X141774000Y-60348400D02*
X141774000Y-61368400D01*
X141774000Y-57808400D02*
X141774000Y-58828400D01*
X141774000Y-55718400D02*
X141774000Y-56288400D01*
X146974000Y-55718400D02*
X141774000Y-55718400D01*
D13*
G04 #@! TO.C,G1*
G36*
X163017019Y-74586772D02*
X162827766Y-74640373D01*
X162651840Y-74728180D01*
X162495752Y-74849541D01*
X162488465Y-74856595D01*
X162417214Y-74932845D01*
X162355526Y-75010854D01*
X162309820Y-75081432D01*
X162286515Y-75135390D01*
X162284834Y-75148096D01*
X162276177Y-75178858D01*
X162267018Y-75184000D01*
X162245177Y-75204259D01*
X162226743Y-75261560D01*
X162212543Y-75350692D01*
X162203408Y-75466443D01*
X162200167Y-75603599D01*
X162200167Y-75603968D01*
X162200803Y-75714441D01*
X162203940Y-75793704D01*
X162211426Y-75852873D01*
X162225107Y-75903066D01*
X162246830Y-75955399D01*
X162264806Y-75993095D01*
X162315119Y-76094861D01*
X162354498Y-76168039D01*
X162389825Y-76222442D01*
X162427981Y-76267884D01*
X162475847Y-76314179D01*
X162513339Y-76347544D01*
X162635517Y-76444593D01*
X162753095Y-76513744D01*
X162882187Y-76564022D01*
X162919834Y-76575174D01*
X163001153Y-76593050D01*
X163096441Y-76606565D01*
X163194255Y-76614996D01*
X163283150Y-76617619D01*
X163351683Y-76613710D01*
X163385500Y-76604637D01*
X163422896Y-76590102D01*
X163486040Y-76572597D01*
X163538959Y-76560627D01*
X163603950Y-76544494D01*
X163648108Y-76528167D01*
X163660667Y-76517641D01*
X163678701Y-76500036D01*
X163723342Y-76479196D01*
X163736232Y-76474678D01*
X163788707Y-76450949D01*
X163820790Y-76424570D01*
X163823164Y-76420120D01*
X163845037Y-76393442D01*
X163855060Y-76390500D01*
X163883299Y-76375910D01*
X163924488Y-76340764D01*
X163965688Y-76298003D01*
X163993958Y-76260566D01*
X163999334Y-76246226D01*
X164016126Y-76221307D01*
X164029045Y-76214295D01*
X164056190Y-76187548D01*
X164091738Y-76130199D01*
X164131094Y-76051933D01*
X164169667Y-75962438D01*
X164202861Y-75871400D01*
X164221126Y-75809261D01*
X164246076Y-75685150D01*
X164251493Y-75571765D01*
X164237994Y-75447157D01*
X164232247Y-75414431D01*
X164219291Y-75350266D01*
X164204537Y-75296404D01*
X164183301Y-75239874D01*
X164150897Y-75167707D01*
X164118798Y-75100397D01*
X164074585Y-75029269D01*
X164007339Y-74944514D01*
X163927873Y-74857931D01*
X163846999Y-74781321D01*
X163777084Y-74727473D01*
X163599632Y-74637727D01*
X163409463Y-74584796D01*
X163213088Y-74568029D01*
X163017019Y-74586772D01*
X163017019Y-74586772D01*
G37*
X163017019Y-74586772D02*
X162827766Y-74640373D01*
X162651840Y-74728180D01*
X162495752Y-74849541D01*
X162488465Y-74856595D01*
X162417214Y-74932845D01*
X162355526Y-75010854D01*
X162309820Y-75081432D01*
X162286515Y-75135390D01*
X162284834Y-75148096D01*
X162276177Y-75178858D01*
X162267018Y-75184000D01*
X162245177Y-75204259D01*
X162226743Y-75261560D01*
X162212543Y-75350692D01*
X162203408Y-75466443D01*
X162200167Y-75603599D01*
X162200167Y-75603968D01*
X162200803Y-75714441D01*
X162203940Y-75793704D01*
X162211426Y-75852873D01*
X162225107Y-75903066D01*
X162246830Y-75955399D01*
X162264806Y-75993095D01*
X162315119Y-76094861D01*
X162354498Y-76168039D01*
X162389825Y-76222442D01*
X162427981Y-76267884D01*
X162475847Y-76314179D01*
X162513339Y-76347544D01*
X162635517Y-76444593D01*
X162753095Y-76513744D01*
X162882187Y-76564022D01*
X162919834Y-76575174D01*
X163001153Y-76593050D01*
X163096441Y-76606565D01*
X163194255Y-76614996D01*
X163283150Y-76617619D01*
X163351683Y-76613710D01*
X163385500Y-76604637D01*
X163422896Y-76590102D01*
X163486040Y-76572597D01*
X163538959Y-76560627D01*
X163603950Y-76544494D01*
X163648108Y-76528167D01*
X163660667Y-76517641D01*
X163678701Y-76500036D01*
X163723342Y-76479196D01*
X163736232Y-76474678D01*
X163788707Y-76450949D01*
X163820790Y-76424570D01*
X163823164Y-76420120D01*
X163845037Y-76393442D01*
X163855060Y-76390500D01*
X163883299Y-76375910D01*
X163924488Y-76340764D01*
X163965688Y-76298003D01*
X163993958Y-76260566D01*
X163999334Y-76246226D01*
X164016126Y-76221307D01*
X164029045Y-76214295D01*
X164056190Y-76187548D01*
X164091738Y-76130199D01*
X164131094Y-76051933D01*
X164169667Y-75962438D01*
X164202861Y-75871400D01*
X164221126Y-75809261D01*
X164246076Y-75685150D01*
X164251493Y-75571765D01*
X164237994Y-75447157D01*
X164232247Y-75414431D01*
X164219291Y-75350266D01*
X164204537Y-75296404D01*
X164183301Y-75239874D01*
X164150897Y-75167707D01*
X164118798Y-75100397D01*
X164074585Y-75029269D01*
X164007339Y-74944514D01*
X163927873Y-74857931D01*
X163846999Y-74781321D01*
X163777084Y-74727473D01*
X163599632Y-74637727D01*
X163409463Y-74584796D01*
X163213088Y-74568029D01*
X163017019Y-74586772D01*
G36*
X165287662Y-76106407D02*
X165218464Y-76113038D01*
X165164785Y-76127132D01*
X165113257Y-76151179D01*
X165101562Y-76157667D01*
X164966979Y-76254087D01*
X164869973Y-76369971D01*
X164810656Y-76505067D01*
X164789143Y-76659127D01*
X164802754Y-76816938D01*
X164817639Y-76892015D01*
X164835082Y-76946067D01*
X164862495Y-76992189D01*
X164907288Y-77043479D01*
X164962062Y-77098455D01*
X165029738Y-77163017D01*
X165081465Y-77204096D01*
X165130180Y-77229156D01*
X165188819Y-77245663D01*
X165231910Y-77254155D01*
X165321886Y-77269563D01*
X165387418Y-77275870D01*
X165445462Y-77272818D01*
X165512974Y-77260150D01*
X165559566Y-77249163D01*
X165623551Y-77226091D01*
X165695523Y-77188895D01*
X165765205Y-77144474D01*
X165822324Y-77099729D01*
X165856603Y-77061558D01*
X165862000Y-77046074D01*
X165876077Y-77019560D01*
X165909625Y-76982781D01*
X165930370Y-76960292D01*
X165944044Y-76933162D01*
X165952103Y-76892685D01*
X165956003Y-76830157D01*
X165957200Y-76736870D01*
X165957250Y-76698003D01*
X165956454Y-76591096D01*
X165953080Y-76517043D01*
X165945649Y-76466380D01*
X165932683Y-76429642D01*
X165912704Y-76397365D01*
X165909625Y-76393154D01*
X165878811Y-76348955D01*
X165862688Y-76320940D01*
X165862000Y-76318236D01*
X165845603Y-76291527D01*
X165803137Y-76251242D01*
X165744694Y-76205816D01*
X165680366Y-76163686D01*
X165669939Y-76157667D01*
X165617176Y-76131235D01*
X165565047Y-76115274D01*
X165500182Y-76107295D01*
X165409210Y-76104808D01*
X165385750Y-76104750D01*
X165287662Y-76106407D01*
X165287662Y-76106407D01*
G37*
X165287662Y-76106407D02*
X165218464Y-76113038D01*
X165164785Y-76127132D01*
X165113257Y-76151179D01*
X165101562Y-76157667D01*
X164966979Y-76254087D01*
X164869973Y-76369971D01*
X164810656Y-76505067D01*
X164789143Y-76659127D01*
X164802754Y-76816938D01*
X164817639Y-76892015D01*
X164835082Y-76946067D01*
X164862495Y-76992189D01*
X164907288Y-77043479D01*
X164962062Y-77098455D01*
X165029738Y-77163017D01*
X165081465Y-77204096D01*
X165130180Y-77229156D01*
X165188819Y-77245663D01*
X165231910Y-77254155D01*
X165321886Y-77269563D01*
X165387418Y-77275870D01*
X165445462Y-77272818D01*
X165512974Y-77260150D01*
X165559566Y-77249163D01*
X165623551Y-77226091D01*
X165695523Y-77188895D01*
X165765205Y-77144474D01*
X165822324Y-77099729D01*
X165856603Y-77061558D01*
X165862000Y-77046074D01*
X165876077Y-77019560D01*
X165909625Y-76982781D01*
X165930370Y-76960292D01*
X165944044Y-76933162D01*
X165952103Y-76892685D01*
X165956003Y-76830157D01*
X165957200Y-76736870D01*
X165957250Y-76698003D01*
X165956454Y-76591096D01*
X165953080Y-76517043D01*
X165945649Y-76466380D01*
X165932683Y-76429642D01*
X165912704Y-76397365D01*
X165909625Y-76393154D01*
X165878811Y-76348955D01*
X165862688Y-76320940D01*
X165862000Y-76318236D01*
X165845603Y-76291527D01*
X165803137Y-76251242D01*
X165744694Y-76205816D01*
X165680366Y-76163686D01*
X165669939Y-76157667D01*
X165617176Y-76131235D01*
X165565047Y-76115274D01*
X165500182Y-76107295D01*
X165409210Y-76104808D01*
X165385750Y-76104750D01*
X165287662Y-76106407D01*
G36*
X167964934Y-74529292D02*
X167862392Y-74531859D01*
X167776132Y-74535951D01*
X167714524Y-74541555D01*
X167687338Y-74547732D01*
X167649363Y-74563276D01*
X167584241Y-74585346D01*
X167505668Y-74609316D01*
X167501073Y-74610642D01*
X167352490Y-74663193D01*
X167185280Y-74739391D01*
X167026167Y-74825230D01*
X166958629Y-74870562D01*
X166877476Y-74934379D01*
X166789862Y-75009924D01*
X166702937Y-75090438D01*
X166623856Y-75169163D01*
X166559768Y-75239340D01*
X166517828Y-75294211D01*
X166506491Y-75316292D01*
X166488421Y-75347519D01*
X166477622Y-75353334D01*
X166459701Y-75370830D01*
X166433962Y-75414903D01*
X166422917Y-75438000D01*
X166396016Y-75489419D01*
X166373113Y-75519464D01*
X166366786Y-75522667D01*
X166350755Y-75539813D01*
X166348834Y-75553773D01*
X166339005Y-75591986D01*
X166314864Y-75645401D01*
X166310017Y-75654315D01*
X166284005Y-75710512D01*
X166253714Y-75789985D01*
X166226831Y-75871917D01*
X166164845Y-76141872D01*
X166141526Y-76411959D01*
X166156969Y-76686865D01*
X166211267Y-76971277D01*
X166251777Y-77114536D01*
X166282754Y-77214156D01*
X166146461Y-77278551D01*
X166079399Y-77312997D01*
X166030746Y-77343253D01*
X166010292Y-77363171D01*
X166010167Y-77364140D01*
X165993433Y-77383795D01*
X165983476Y-77385334D01*
X165953757Y-77401826D01*
X165910316Y-77444475D01*
X165861046Y-77503037D01*
X165813841Y-77567270D01*
X165776593Y-77626929D01*
X165757196Y-77671774D01*
X165756037Y-77680487D01*
X165746400Y-77721239D01*
X165723265Y-77774584D01*
X165722031Y-77776917D01*
X165691012Y-77867028D01*
X165677013Y-77978084D01*
X165680867Y-78091915D01*
X165703145Y-78189667D01*
X165727510Y-78260517D01*
X165746010Y-78325114D01*
X165749990Y-78343079D01*
X165770523Y-78386382D01*
X165816118Y-78448969D01*
X165880153Y-78522047D01*
X165901438Y-78544162D01*
X165995493Y-78637231D01*
X166067214Y-78701559D01*
X166121419Y-78740883D01*
X166162927Y-78758941D01*
X166181221Y-78761167D01*
X166223401Y-78769051D01*
X166281650Y-78788466D01*
X166292652Y-78792917D01*
X166368106Y-78812286D01*
X166466058Y-78821399D01*
X166569853Y-78820286D01*
X166662835Y-78808977D01*
X166719250Y-78792152D01*
X166774780Y-78771314D01*
X166818852Y-78762122D01*
X166878037Y-78743881D01*
X166951592Y-78696610D01*
X167032063Y-78627553D01*
X167112001Y-78543954D01*
X167183951Y-78453058D01*
X167240464Y-78362111D01*
X167250043Y-78342904D01*
X167275222Y-78290962D01*
X167297613Y-78258520D01*
X167325830Y-78244168D01*
X167368485Y-78246499D01*
X167434191Y-78264101D01*
X167531562Y-78295567D01*
X167534167Y-78296418D01*
X167688490Y-78334894D01*
X167866992Y-78360053D01*
X168053232Y-78370489D01*
X168230766Y-78364794D01*
X168277471Y-78360021D01*
X168440829Y-78334667D01*
X168596649Y-78299983D01*
X168733707Y-78258916D01*
X168840777Y-78214414D01*
X168849382Y-78209899D01*
X168906471Y-78183456D01*
X168952546Y-78169266D01*
X168960507Y-78168500D01*
X168990212Y-78159386D01*
X168994667Y-78150548D01*
X169012174Y-78131683D01*
X169056193Y-78105483D01*
X169078087Y-78094979D01*
X169132268Y-78065322D01*
X169167581Y-78036311D01*
X169172673Y-78028264D01*
X169199044Y-78001853D01*
X169211754Y-77999167D01*
X169238882Y-77984622D01*
X169287711Y-77945435D01*
X169351513Y-77888280D01*
X169423558Y-77819830D01*
X169497116Y-77746758D01*
X169565458Y-77675738D01*
X169621854Y-77613442D01*
X169659576Y-77566544D01*
X169672000Y-77542769D01*
X169682352Y-77521838D01*
X169709311Y-77475756D01*
X169741886Y-77422786D01*
X169851169Y-77219685D01*
X169928917Y-77006695D01*
X169977053Y-76776476D01*
X169997500Y-76521689D01*
X169998526Y-76443417D01*
X169997445Y-76314487D01*
X169993290Y-76215317D01*
X169984633Y-76133362D01*
X169970049Y-76056079D01*
X169948112Y-75970928D01*
X169942609Y-75951470D01*
X169847938Y-75689640D01*
X169719296Y-75441807D01*
X169640140Y-75321584D01*
X169586118Y-75249515D01*
X169526625Y-75175781D01*
X169468375Y-75108025D01*
X169418080Y-75053890D01*
X169382454Y-75021018D01*
X169370574Y-75014667D01*
X169349491Y-75001496D01*
X169309772Y-74968253D01*
X169289528Y-74949791D01*
X169229565Y-74900265D01*
X169167902Y-74858749D01*
X169154998Y-74851674D01*
X169105499Y-74820794D01*
X169073968Y-74791110D01*
X169072990Y-74789549D01*
X169043667Y-74763599D01*
X169030657Y-74760536D01*
X168995455Y-74751253D01*
X168944932Y-74728941D01*
X168942137Y-74727497D01*
X168856647Y-74687285D01*
X168756062Y-74646389D01*
X168655864Y-74610564D01*
X168571534Y-74585568D01*
X168544642Y-74579695D01*
X168490189Y-74565880D01*
X168456417Y-74549875D01*
X168453434Y-74546601D01*
X168428953Y-74539760D01*
X168370539Y-74534518D01*
X168286561Y-74530863D01*
X168185388Y-74528782D01*
X168075389Y-74528262D01*
X167964934Y-74529292D01*
X167964934Y-74529292D01*
G37*
X167964934Y-74529292D02*
X167862392Y-74531859D01*
X167776132Y-74535951D01*
X167714524Y-74541555D01*
X167687338Y-74547732D01*
X167649363Y-74563276D01*
X167584241Y-74585346D01*
X167505668Y-74609316D01*
X167501073Y-74610642D01*
X167352490Y-74663193D01*
X167185280Y-74739391D01*
X167026167Y-74825230D01*
X166958629Y-74870562D01*
X166877476Y-74934379D01*
X166789862Y-75009924D01*
X166702937Y-75090438D01*
X166623856Y-75169163D01*
X166559768Y-75239340D01*
X166517828Y-75294211D01*
X166506491Y-75316292D01*
X166488421Y-75347519D01*
X166477622Y-75353334D01*
X166459701Y-75370830D01*
X166433962Y-75414903D01*
X166422917Y-75438000D01*
X166396016Y-75489419D01*
X166373113Y-75519464D01*
X166366786Y-75522667D01*
X166350755Y-75539813D01*
X166348834Y-75553773D01*
X166339005Y-75591986D01*
X166314864Y-75645401D01*
X166310017Y-75654315D01*
X166284005Y-75710512D01*
X166253714Y-75789985D01*
X166226831Y-75871917D01*
X166164845Y-76141872D01*
X166141526Y-76411959D01*
X166156969Y-76686865D01*
X166211267Y-76971277D01*
X166251777Y-77114536D01*
X166282754Y-77214156D01*
X166146461Y-77278551D01*
X166079399Y-77312997D01*
X166030746Y-77343253D01*
X166010292Y-77363171D01*
X166010167Y-77364140D01*
X165993433Y-77383795D01*
X165983476Y-77385334D01*
X165953757Y-77401826D01*
X165910316Y-77444475D01*
X165861046Y-77503037D01*
X165813841Y-77567270D01*
X165776593Y-77626929D01*
X165757196Y-77671774D01*
X165756037Y-77680487D01*
X165746400Y-77721239D01*
X165723265Y-77774584D01*
X165722031Y-77776917D01*
X165691012Y-77867028D01*
X165677013Y-77978084D01*
X165680867Y-78091915D01*
X165703145Y-78189667D01*
X165727510Y-78260517D01*
X165746010Y-78325114D01*
X165749990Y-78343079D01*
X165770523Y-78386382D01*
X165816118Y-78448969D01*
X165880153Y-78522047D01*
X165901438Y-78544162D01*
X165995493Y-78637231D01*
X166067214Y-78701559D01*
X166121419Y-78740883D01*
X166162927Y-78758941D01*
X166181221Y-78761167D01*
X166223401Y-78769051D01*
X166281650Y-78788466D01*
X166292652Y-78792917D01*
X166368106Y-78812286D01*
X166466058Y-78821399D01*
X166569853Y-78820286D01*
X166662835Y-78808977D01*
X166719250Y-78792152D01*
X166774780Y-78771314D01*
X166818852Y-78762122D01*
X166878037Y-78743881D01*
X166951592Y-78696610D01*
X167032063Y-78627553D01*
X167112001Y-78543954D01*
X167183951Y-78453058D01*
X167240464Y-78362111D01*
X167250043Y-78342904D01*
X167275222Y-78290962D01*
X167297613Y-78258520D01*
X167325830Y-78244168D01*
X167368485Y-78246499D01*
X167434191Y-78264101D01*
X167531562Y-78295567D01*
X167534167Y-78296418D01*
X167688490Y-78334894D01*
X167866992Y-78360053D01*
X168053232Y-78370489D01*
X168230766Y-78364794D01*
X168277471Y-78360021D01*
X168440829Y-78334667D01*
X168596649Y-78299983D01*
X168733707Y-78258916D01*
X168840777Y-78214414D01*
X168849382Y-78209899D01*
X168906471Y-78183456D01*
X168952546Y-78169266D01*
X168960507Y-78168500D01*
X168990212Y-78159386D01*
X168994667Y-78150548D01*
X169012174Y-78131683D01*
X169056193Y-78105483D01*
X169078087Y-78094979D01*
X169132268Y-78065322D01*
X169167581Y-78036311D01*
X169172673Y-78028264D01*
X169199044Y-78001853D01*
X169211754Y-77999167D01*
X169238882Y-77984622D01*
X169287711Y-77945435D01*
X169351513Y-77888280D01*
X169423558Y-77819830D01*
X169497116Y-77746758D01*
X169565458Y-77675738D01*
X169621854Y-77613442D01*
X169659576Y-77566544D01*
X169672000Y-77542769D01*
X169682352Y-77521838D01*
X169709311Y-77475756D01*
X169741886Y-77422786D01*
X169851169Y-77219685D01*
X169928917Y-77006695D01*
X169977053Y-76776476D01*
X169997500Y-76521689D01*
X169998526Y-76443417D01*
X169997445Y-76314487D01*
X169993290Y-76215317D01*
X169984633Y-76133362D01*
X169970049Y-76056079D01*
X169948112Y-75970928D01*
X169942609Y-75951470D01*
X169847938Y-75689640D01*
X169719296Y-75441807D01*
X169640140Y-75321584D01*
X169586118Y-75249515D01*
X169526625Y-75175781D01*
X169468375Y-75108025D01*
X169418080Y-75053890D01*
X169382454Y-75021018D01*
X169370574Y-75014667D01*
X169349491Y-75001496D01*
X169309772Y-74968253D01*
X169289528Y-74949791D01*
X169229565Y-74900265D01*
X169167902Y-74858749D01*
X169154998Y-74851674D01*
X169105499Y-74820794D01*
X169073968Y-74791110D01*
X169072990Y-74789549D01*
X169043667Y-74763599D01*
X169030657Y-74760536D01*
X168995455Y-74751253D01*
X168944932Y-74728941D01*
X168942137Y-74727497D01*
X168856647Y-74687285D01*
X168756062Y-74646389D01*
X168655864Y-74610564D01*
X168571534Y-74585568D01*
X168544642Y-74579695D01*
X168490189Y-74565880D01*
X168456417Y-74549875D01*
X168453434Y-74546601D01*
X168428953Y-74539760D01*
X168370539Y-74534518D01*
X168286561Y-74530863D01*
X168185388Y-74528782D01*
X168075389Y-74528262D01*
X167964934Y-74529292D01*
G36*
X160198795Y-77307921D02*
X160081470Y-77330956D01*
X160029941Y-77349142D01*
X159860889Y-77443242D01*
X159719763Y-77566312D01*
X159673770Y-77619540D01*
X159586343Y-77743212D01*
X159528060Y-77865514D01*
X159495033Y-77998593D01*
X159483374Y-78154598D01*
X159483562Y-78213715D01*
X159487614Y-78313522D01*
X159497981Y-78388361D01*
X159518392Y-78455515D01*
X159552064Y-78531215D01*
X159596741Y-78621400D01*
X159634092Y-78687711D01*
X159672984Y-78741751D01*
X159722286Y-78795124D01*
X159790864Y-78859434D01*
X159829500Y-78894247D01*
X159891644Y-78936008D01*
X159981425Y-78979246D01*
X160084754Y-79018288D01*
X160187545Y-79047463D01*
X160231667Y-79056154D01*
X160316082Y-79069174D01*
X160375785Y-79074876D01*
X160427840Y-79072801D01*
X160489309Y-79062490D01*
X160559750Y-79047338D01*
X160747187Y-78985991D01*
X160910261Y-78891947D01*
X161046117Y-78768975D01*
X161151900Y-78620840D01*
X161224754Y-78451309D01*
X161261823Y-78264151D01*
X161264592Y-78117517D01*
X161234274Y-77931626D01*
X161165873Y-77760275D01*
X161062307Y-77607477D01*
X160926496Y-77477243D01*
X160761359Y-77373585D01*
X160703993Y-77347187D01*
X160601099Y-77317576D01*
X160473004Y-77301189D01*
X160334105Y-77297984D01*
X160198795Y-77307921D01*
X160198795Y-77307921D01*
G37*
X160198795Y-77307921D02*
X160081470Y-77330956D01*
X160029941Y-77349142D01*
X159860889Y-77443242D01*
X159719763Y-77566312D01*
X159673770Y-77619540D01*
X159586343Y-77743212D01*
X159528060Y-77865514D01*
X159495033Y-77998593D01*
X159483374Y-78154598D01*
X159483562Y-78213715D01*
X159487614Y-78313522D01*
X159497981Y-78388361D01*
X159518392Y-78455515D01*
X159552064Y-78531215D01*
X159596741Y-78621400D01*
X159634092Y-78687711D01*
X159672984Y-78741751D01*
X159722286Y-78795124D01*
X159790864Y-78859434D01*
X159829500Y-78894247D01*
X159891644Y-78936008D01*
X159981425Y-78979246D01*
X160084754Y-79018288D01*
X160187545Y-79047463D01*
X160231667Y-79056154D01*
X160316082Y-79069174D01*
X160375785Y-79074876D01*
X160427840Y-79072801D01*
X160489309Y-79062490D01*
X160559750Y-79047338D01*
X160747187Y-78985991D01*
X160910261Y-78891947D01*
X161046117Y-78768975D01*
X161151900Y-78620840D01*
X161224754Y-78451309D01*
X161261823Y-78264151D01*
X161264592Y-78117517D01*
X161234274Y-77931626D01*
X161165873Y-77760275D01*
X161062307Y-77607477D01*
X160926496Y-77477243D01*
X160761359Y-77373585D01*
X160703993Y-77347187D01*
X160601099Y-77317576D01*
X160473004Y-77301189D01*
X160334105Y-77297984D01*
X160198795Y-77307921D01*
G36*
X163377753Y-76998444D02*
X163258415Y-77017040D01*
X163146524Y-77042074D01*
X163055197Y-77071220D01*
X163012585Y-77091562D01*
X162961795Y-77118145D01*
X162923950Y-77131090D01*
X162920683Y-77131334D01*
X162876934Y-77148102D01*
X162807708Y-77198267D01*
X162713269Y-77281618D01*
X162626175Y-77365664D01*
X162497327Y-77518034D01*
X162393620Y-77691038D01*
X162321980Y-77872336D01*
X162305434Y-77936979D01*
X162288989Y-78056342D01*
X162284510Y-78195954D01*
X162291123Y-78342060D01*
X162307960Y-78480905D01*
X162334148Y-78598734D01*
X162350252Y-78644927D01*
X162456631Y-78854980D01*
X162590198Y-79034073D01*
X162752699Y-79183746D01*
X162945877Y-79305541D01*
X163171477Y-79400998D01*
X163226611Y-79418919D01*
X163272597Y-79426220D01*
X163349344Y-79431522D01*
X163445321Y-79434734D01*
X163548999Y-79435766D01*
X163648849Y-79434530D01*
X163733339Y-79430935D01*
X163790942Y-79424891D01*
X163798250Y-79423373D01*
X163903346Y-79388481D01*
X164025753Y-79332976D01*
X164151059Y-79264274D01*
X164264851Y-79189790D01*
X164292337Y-79169180D01*
X164444980Y-79024742D01*
X164567458Y-78855034D01*
X164658486Y-78665738D01*
X164716783Y-78462534D01*
X164741063Y-78251104D01*
X164730045Y-78037127D01*
X164682444Y-77826286D01*
X164627508Y-77685404D01*
X164565629Y-77573491D01*
X164485566Y-77459193D01*
X164397490Y-77355378D01*
X164311569Y-77274911D01*
X164290662Y-77259279D01*
X164231533Y-77216163D01*
X164182842Y-77177764D01*
X164166892Y-77163688D01*
X164128884Y-77137413D01*
X164107585Y-77131334D01*
X164073587Y-77122208D01*
X164020528Y-77099467D01*
X164003527Y-77091005D01*
X163884900Y-77044658D01*
X163733599Y-77009436D01*
X163586296Y-76989866D01*
X163491419Y-76988611D01*
X163377753Y-76998444D01*
X163377753Y-76998444D01*
G37*
X163377753Y-76998444D02*
X163258415Y-77017040D01*
X163146524Y-77042074D01*
X163055197Y-77071220D01*
X163012585Y-77091562D01*
X162961795Y-77118145D01*
X162923950Y-77131090D01*
X162920683Y-77131334D01*
X162876934Y-77148102D01*
X162807708Y-77198267D01*
X162713269Y-77281618D01*
X162626175Y-77365664D01*
X162497327Y-77518034D01*
X162393620Y-77691038D01*
X162321980Y-77872336D01*
X162305434Y-77936979D01*
X162288989Y-78056342D01*
X162284510Y-78195954D01*
X162291123Y-78342060D01*
X162307960Y-78480905D01*
X162334148Y-78598734D01*
X162350252Y-78644927D01*
X162456631Y-78854980D01*
X162590198Y-79034073D01*
X162752699Y-79183746D01*
X162945877Y-79305541D01*
X163171477Y-79400998D01*
X163226611Y-79418919D01*
X163272597Y-79426220D01*
X163349344Y-79431522D01*
X163445321Y-79434734D01*
X163548999Y-79435766D01*
X163648849Y-79434530D01*
X163733339Y-79430935D01*
X163790942Y-79424891D01*
X163798250Y-79423373D01*
X163903346Y-79388481D01*
X164025753Y-79332976D01*
X164151059Y-79264274D01*
X164264851Y-79189790D01*
X164292337Y-79169180D01*
X164444980Y-79024742D01*
X164567458Y-78855034D01*
X164658486Y-78665738D01*
X164716783Y-78462534D01*
X164741063Y-78251104D01*
X164730045Y-78037127D01*
X164682444Y-77826286D01*
X164627508Y-77685404D01*
X164565629Y-77573491D01*
X164485566Y-77459193D01*
X164397490Y-77355378D01*
X164311569Y-77274911D01*
X164290662Y-77259279D01*
X164231533Y-77216163D01*
X164182842Y-77177764D01*
X164166892Y-77163688D01*
X164128884Y-77137413D01*
X164107585Y-77131334D01*
X164073587Y-77122208D01*
X164020528Y-77099467D01*
X164003527Y-77091005D01*
X163884900Y-77044658D01*
X163733599Y-77009436D01*
X163586296Y-76989866D01*
X163491419Y-76988611D01*
X163377753Y-76998444D01*
G36*
X171070689Y-77771018D02*
X170961123Y-77783591D01*
X170856845Y-77802025D01*
X170768550Y-77824265D01*
X170706940Y-77848258D01*
X170690476Y-77859344D01*
X170647395Y-77886363D01*
X170619443Y-77893334D01*
X170571892Y-77909091D01*
X170506357Y-77951602D01*
X170430217Y-78013727D01*
X170350850Y-78088325D01*
X170275634Y-78168254D01*
X170211947Y-78246374D01*
X170167169Y-78315545D01*
X170154683Y-78343125D01*
X170134057Y-78384759D01*
X170115389Y-78401334D01*
X170100396Y-78419914D01*
X170085853Y-78466024D01*
X170082881Y-78480709D01*
X170063492Y-78553673D01*
X170036321Y-78621186D01*
X170035078Y-78623584D01*
X170012316Y-78695782D01*
X170000316Y-78797635D01*
X169998793Y-78917928D01*
X170007460Y-79045450D01*
X170026033Y-79168988D01*
X170051519Y-79269167D01*
X170077559Y-79345297D01*
X170100381Y-79404491D01*
X170115846Y-79436201D01*
X170117932Y-79438500D01*
X170134930Y-79463252D01*
X170158821Y-79511864D01*
X170165958Y-79528459D01*
X170191680Y-79578307D01*
X170215564Y-79605894D01*
X170221254Y-79607834D01*
X170242572Y-79624122D01*
X170243500Y-79630628D01*
X170260948Y-79668515D01*
X170308165Y-79720680D01*
X170377466Y-79781674D01*
X170461165Y-79846049D01*
X170551574Y-79908356D01*
X170641009Y-79963148D01*
X170721781Y-80004974D01*
X170786206Y-80028388D01*
X170809005Y-80031486D01*
X170852304Y-80038659D01*
X170913478Y-80056119D01*
X170931417Y-80062306D01*
X171000280Y-80077796D01*
X171095530Y-80087497D01*
X171201540Y-80090794D01*
X171302680Y-80087070D01*
X171365334Y-80079409D01*
X171413824Y-80064868D01*
X171438359Y-80050541D01*
X171474061Y-80035050D01*
X171507381Y-80031167D01*
X171580023Y-80016738D01*
X171672320Y-79977355D01*
X171774895Y-79918875D01*
X171878373Y-79847154D01*
X171973377Y-79768050D01*
X172042667Y-79696814D01*
X172126217Y-79596113D01*
X172180947Y-79523211D01*
X172208216Y-79476216D01*
X172212000Y-79460866D01*
X172222796Y-79427276D01*
X172247384Y-79383009D01*
X172283136Y-79302999D01*
X172309769Y-79192270D01*
X172326343Y-79061639D01*
X172331919Y-78921923D01*
X172325557Y-78783938D01*
X172309167Y-78671702D01*
X172259459Y-78494412D01*
X172185534Y-78336490D01*
X172082742Y-78191093D01*
X171946433Y-78051381D01*
X171812556Y-77940959D01*
X171763822Y-77909343D01*
X171725284Y-77893696D01*
X171721237Y-77893334D01*
X171683231Y-77881890D01*
X171643870Y-77859445D01*
X171584374Y-77831507D01*
X171494677Y-77805827D01*
X171386912Y-77784811D01*
X171273212Y-77770869D01*
X171174842Y-77766358D01*
X171070689Y-77771018D01*
X171070689Y-77771018D01*
G37*
X171070689Y-77771018D02*
X170961123Y-77783591D01*
X170856845Y-77802025D01*
X170768550Y-77824265D01*
X170706940Y-77848258D01*
X170690476Y-77859344D01*
X170647395Y-77886363D01*
X170619443Y-77893334D01*
X170571892Y-77909091D01*
X170506357Y-77951602D01*
X170430217Y-78013727D01*
X170350850Y-78088325D01*
X170275634Y-78168254D01*
X170211947Y-78246374D01*
X170167169Y-78315545D01*
X170154683Y-78343125D01*
X170134057Y-78384759D01*
X170115389Y-78401334D01*
X170100396Y-78419914D01*
X170085853Y-78466024D01*
X170082881Y-78480709D01*
X170063492Y-78553673D01*
X170036321Y-78621186D01*
X170035078Y-78623584D01*
X170012316Y-78695782D01*
X170000316Y-78797635D01*
X169998793Y-78917928D01*
X170007460Y-79045450D01*
X170026033Y-79168988D01*
X170051519Y-79269167D01*
X170077559Y-79345297D01*
X170100381Y-79404491D01*
X170115846Y-79436201D01*
X170117932Y-79438500D01*
X170134930Y-79463252D01*
X170158821Y-79511864D01*
X170165958Y-79528459D01*
X170191680Y-79578307D01*
X170215564Y-79605894D01*
X170221254Y-79607834D01*
X170242572Y-79624122D01*
X170243500Y-79630628D01*
X170260948Y-79668515D01*
X170308165Y-79720680D01*
X170377466Y-79781674D01*
X170461165Y-79846049D01*
X170551574Y-79908356D01*
X170641009Y-79963148D01*
X170721781Y-80004974D01*
X170786206Y-80028388D01*
X170809005Y-80031486D01*
X170852304Y-80038659D01*
X170913478Y-80056119D01*
X170931417Y-80062306D01*
X171000280Y-80077796D01*
X171095530Y-80087497D01*
X171201540Y-80090794D01*
X171302680Y-80087070D01*
X171365334Y-80079409D01*
X171413824Y-80064868D01*
X171438359Y-80050541D01*
X171474061Y-80035050D01*
X171507381Y-80031167D01*
X171580023Y-80016738D01*
X171672320Y-79977355D01*
X171774895Y-79918875D01*
X171878373Y-79847154D01*
X171973377Y-79768050D01*
X172042667Y-79696814D01*
X172126217Y-79596113D01*
X172180947Y-79523211D01*
X172208216Y-79476216D01*
X172212000Y-79460866D01*
X172222796Y-79427276D01*
X172247384Y-79383009D01*
X172283136Y-79302999D01*
X172309769Y-79192270D01*
X172326343Y-79061639D01*
X172331919Y-78921923D01*
X172325557Y-78783938D01*
X172309167Y-78671702D01*
X172259459Y-78494412D01*
X172185534Y-78336490D01*
X172082742Y-78191093D01*
X171946433Y-78051381D01*
X171812556Y-77940959D01*
X171763822Y-77909343D01*
X171725284Y-77893696D01*
X171721237Y-77893334D01*
X171683231Y-77881890D01*
X171643870Y-77859445D01*
X171584374Y-77831507D01*
X171494677Y-77805827D01*
X171386912Y-77784811D01*
X171273212Y-77770869D01*
X171174842Y-77766358D01*
X171070689Y-77771018D01*
G36*
X165340654Y-79057919D02*
X165259164Y-79074943D01*
X165169353Y-79101053D01*
X165080464Y-79132570D01*
X165001741Y-79165817D01*
X164942425Y-79197115D01*
X164911759Y-79222785D01*
X164909500Y-79229507D01*
X164893187Y-79247340D01*
X164887326Y-79248000D01*
X164861734Y-79262295D01*
X164818005Y-79298778D01*
X164765854Y-79347843D01*
X164714992Y-79399886D01*
X164675135Y-79445301D01*
X164655996Y-79474484D01*
X164655500Y-79477234D01*
X164641009Y-79505999D01*
X164625475Y-79521736D01*
X164604151Y-79552766D01*
X164575087Y-79612154D01*
X164543951Y-79688105D01*
X164538479Y-79702855D01*
X164513240Y-79775994D01*
X164497331Y-79837231D01*
X164489165Y-79899619D01*
X164487156Y-79976211D01*
X164489717Y-80080059D01*
X164490389Y-80098569D01*
X164495452Y-80207700D01*
X164502873Y-80287192D01*
X164515257Y-80349738D01*
X164535209Y-80408033D01*
X164565334Y-80474770D01*
X164569270Y-80482943D01*
X164616732Y-80564280D01*
X164681655Y-80652691D01*
X164757340Y-80741354D01*
X164837087Y-80823444D01*
X164914194Y-80892137D01*
X164981961Y-80940609D01*
X165033687Y-80962037D01*
X165040162Y-80962500D01*
X165075875Y-80971968D01*
X165129934Y-80995596D01*
X165147862Y-81004834D01*
X165187251Y-81022898D01*
X165231528Y-81034925D01*
X165289851Y-81041979D01*
X165371375Y-81045123D01*
X165485259Y-81045419D01*
X165496799Y-81045346D01*
X165610816Y-81043961D01*
X165693010Y-81040482D01*
X165753890Y-81033224D01*
X165803964Y-81020503D01*
X165853740Y-81000634D01*
X165893750Y-80981709D01*
X165982363Y-80937564D01*
X166046395Y-80901276D01*
X166099357Y-80863150D01*
X166154758Y-80813489D01*
X166224176Y-80744550D01*
X166344418Y-80604543D01*
X166423671Y-80468578D01*
X166456459Y-80369834D01*
X166472641Y-80300744D01*
X166492330Y-80220737D01*
X166497472Y-80200500D01*
X166511683Y-80093316D01*
X166507980Y-79968758D01*
X166487390Y-79847313D01*
X166478161Y-79814825D01*
X166458875Y-79747641D01*
X166444786Y-79688689D01*
X166424550Y-79633548D01*
X166401719Y-79600242D01*
X166375717Y-79564579D01*
X166370000Y-79546006D01*
X166354857Y-79511214D01*
X166314583Y-79457406D01*
X166256916Y-79392247D01*
X166189592Y-79323402D01*
X166120348Y-79258537D01*
X166056918Y-79205317D01*
X166007041Y-79171409D01*
X165983709Y-79163254D01*
X165948746Y-79152872D01*
X165898918Y-79127671D01*
X165893750Y-79124581D01*
X165807790Y-79088360D01*
X165693232Y-79062659D01*
X165562852Y-79049017D01*
X165429422Y-79048974D01*
X165340654Y-79057919D01*
X165340654Y-79057919D01*
G37*
X165340654Y-79057919D02*
X165259164Y-79074943D01*
X165169353Y-79101053D01*
X165080464Y-79132570D01*
X165001741Y-79165817D01*
X164942425Y-79197115D01*
X164911759Y-79222785D01*
X164909500Y-79229507D01*
X164893187Y-79247340D01*
X164887326Y-79248000D01*
X164861734Y-79262295D01*
X164818005Y-79298778D01*
X164765854Y-79347843D01*
X164714992Y-79399886D01*
X164675135Y-79445301D01*
X164655996Y-79474484D01*
X164655500Y-79477234D01*
X164641009Y-79505999D01*
X164625475Y-79521736D01*
X164604151Y-79552766D01*
X164575087Y-79612154D01*
X164543951Y-79688105D01*
X164538479Y-79702855D01*
X164513240Y-79775994D01*
X164497331Y-79837231D01*
X164489165Y-79899619D01*
X164487156Y-79976211D01*
X164489717Y-80080059D01*
X164490389Y-80098569D01*
X164495452Y-80207700D01*
X164502873Y-80287192D01*
X164515257Y-80349738D01*
X164535209Y-80408033D01*
X164565334Y-80474770D01*
X164569270Y-80482943D01*
X164616732Y-80564280D01*
X164681655Y-80652691D01*
X164757340Y-80741354D01*
X164837087Y-80823444D01*
X164914194Y-80892137D01*
X164981961Y-80940609D01*
X165033687Y-80962037D01*
X165040162Y-80962500D01*
X165075875Y-80971968D01*
X165129934Y-80995596D01*
X165147862Y-81004834D01*
X165187251Y-81022898D01*
X165231528Y-81034925D01*
X165289851Y-81041979D01*
X165371375Y-81045123D01*
X165485259Y-81045419D01*
X165496799Y-81045346D01*
X165610816Y-81043961D01*
X165693010Y-81040482D01*
X165753890Y-81033224D01*
X165803964Y-81020503D01*
X165853740Y-81000634D01*
X165893750Y-80981709D01*
X165982363Y-80937564D01*
X166046395Y-80901276D01*
X166099357Y-80863150D01*
X166154758Y-80813489D01*
X166224176Y-80744550D01*
X166344418Y-80604543D01*
X166423671Y-80468578D01*
X166456459Y-80369834D01*
X166472641Y-80300744D01*
X166492330Y-80220737D01*
X166497472Y-80200500D01*
X166511683Y-80093316D01*
X166507980Y-79968758D01*
X166487390Y-79847313D01*
X166478161Y-79814825D01*
X166458875Y-79747641D01*
X166444786Y-79688689D01*
X166424550Y-79633548D01*
X166401719Y-79600242D01*
X166375717Y-79564579D01*
X166370000Y-79546006D01*
X166354857Y-79511214D01*
X166314583Y-79457406D01*
X166256916Y-79392247D01*
X166189592Y-79323402D01*
X166120348Y-79258537D01*
X166056918Y-79205317D01*
X166007041Y-79171409D01*
X165983709Y-79163254D01*
X165948746Y-79152872D01*
X165898918Y-79127671D01*
X165893750Y-79124581D01*
X165807790Y-79088360D01*
X165693232Y-79062659D01*
X165562852Y-79049017D01*
X165429422Y-79048974D01*
X165340654Y-79057919D01*
G36*
X161989349Y-79298727D02*
X161889563Y-79310522D01*
X161880390Y-79311827D01*
X161790087Y-79327040D01*
X161711134Y-79344407D01*
X161656530Y-79360927D01*
X161645304Y-79366108D01*
X161591422Y-79394663D01*
X161528844Y-79425216D01*
X161527752Y-79425724D01*
X161465126Y-79465810D01*
X161388301Y-79530979D01*
X161306998Y-79611387D01*
X161230937Y-79697190D01*
X161169839Y-79778544D01*
X161153354Y-79804888D01*
X161101762Y-79915076D01*
X161058069Y-80048354D01*
X161027405Y-80185786D01*
X161014897Y-80308438D01*
X161014834Y-80316330D01*
X161020603Y-80400150D01*
X161035370Y-80496783D01*
X161047254Y-80550595D01*
X161118099Y-80747147D01*
X161221285Y-80920439D01*
X161352563Y-81067636D01*
X161507681Y-81185905D01*
X161682389Y-81272411D01*
X161872436Y-81324321D01*
X162073572Y-81338800D01*
X162210818Y-81326399D01*
X162292710Y-81308535D01*
X162383859Y-81280658D01*
X162474259Y-81246861D01*
X162553908Y-81211237D01*
X162612799Y-81177879D01*
X162640931Y-81150878D01*
X162641139Y-81150356D01*
X162665461Y-81133311D01*
X162677436Y-81131834D01*
X162709668Y-81115074D01*
X162729334Y-81089500D01*
X162758934Y-81055822D01*
X162781231Y-81047167D01*
X162813176Y-81032077D01*
X162818717Y-81022435D01*
X162831575Y-81023033D01*
X162853637Y-81054660D01*
X162861482Y-81070060D01*
X162918042Y-81155418D01*
X163002015Y-81241644D01*
X163100557Y-81316510D01*
X163150911Y-81345672D01*
X163233281Y-81374435D01*
X163341271Y-81393776D01*
X163458976Y-81402494D01*
X163570487Y-81399389D01*
X163657715Y-81383936D01*
X163795127Y-81320746D01*
X163917617Y-81222309D01*
X164017818Y-81095032D01*
X164045062Y-81047167D01*
X164069534Y-80993260D01*
X164084489Y-80938149D01*
X164092077Y-80868952D01*
X164094445Y-80772788D01*
X164094482Y-80750834D01*
X164092983Y-80650481D01*
X164086986Y-80579091D01*
X164074061Y-80523345D01*
X164051778Y-80469922D01*
X164038487Y-80443917D01*
X163963176Y-80331063D01*
X163863891Y-80238068D01*
X163731664Y-80156605D01*
X163726088Y-80153736D01*
X163592155Y-80106714D01*
X163444961Y-80091100D01*
X163298830Y-80107086D01*
X163184417Y-80146501D01*
X163078584Y-80197949D01*
X163072760Y-80141016D01*
X163060146Y-80086118D01*
X163033900Y-80008328D01*
X162999600Y-79922479D01*
X162962821Y-79843403D01*
X162955861Y-79830084D01*
X162928867Y-79778548D01*
X162904836Y-79731607D01*
X162874217Y-79686848D01*
X162845230Y-79663479D01*
X162817497Y-79640462D01*
X162814000Y-79628649D01*
X162798314Y-79598856D01*
X162760812Y-79559675D01*
X162715830Y-79523746D01*
X162677701Y-79503710D01*
X162671125Y-79502669D01*
X162646522Y-79487961D01*
X162644667Y-79479753D01*
X162626947Y-79458404D01*
X162582713Y-79432255D01*
X162565292Y-79424458D01*
X162512062Y-79399008D01*
X162477752Y-79376545D01*
X162473688Y-79371979D01*
X162448711Y-79360179D01*
X162391777Y-79344560D01*
X162312782Y-79327633D01*
X162264274Y-79318807D01*
X162157336Y-79302517D01*
X162072150Y-79295941D01*
X161989349Y-79298727D01*
X161989349Y-79298727D01*
G37*
X161989349Y-79298727D02*
X161889563Y-79310522D01*
X161880390Y-79311827D01*
X161790087Y-79327040D01*
X161711134Y-79344407D01*
X161656530Y-79360927D01*
X161645304Y-79366108D01*
X161591422Y-79394663D01*
X161528844Y-79425216D01*
X161527752Y-79425724D01*
X161465126Y-79465810D01*
X161388301Y-79530979D01*
X161306998Y-79611387D01*
X161230937Y-79697190D01*
X161169839Y-79778544D01*
X161153354Y-79804888D01*
X161101762Y-79915076D01*
X161058069Y-80048354D01*
X161027405Y-80185786D01*
X161014897Y-80308438D01*
X161014834Y-80316330D01*
X161020603Y-80400150D01*
X161035370Y-80496783D01*
X161047254Y-80550595D01*
X161118099Y-80747147D01*
X161221285Y-80920439D01*
X161352563Y-81067636D01*
X161507681Y-81185905D01*
X161682389Y-81272411D01*
X161872436Y-81324321D01*
X162073572Y-81338800D01*
X162210818Y-81326399D01*
X162292710Y-81308535D01*
X162383859Y-81280658D01*
X162474259Y-81246861D01*
X162553908Y-81211237D01*
X162612799Y-81177879D01*
X162640931Y-81150878D01*
X162641139Y-81150356D01*
X162665461Y-81133311D01*
X162677436Y-81131834D01*
X162709668Y-81115074D01*
X162729334Y-81089500D01*
X162758934Y-81055822D01*
X162781231Y-81047167D01*
X162813176Y-81032077D01*
X162818717Y-81022435D01*
X162831575Y-81023033D01*
X162853637Y-81054660D01*
X162861482Y-81070060D01*
X162918042Y-81155418D01*
X163002015Y-81241644D01*
X163100557Y-81316510D01*
X163150911Y-81345672D01*
X163233281Y-81374435D01*
X163341271Y-81393776D01*
X163458976Y-81402494D01*
X163570487Y-81399389D01*
X163657715Y-81383936D01*
X163795127Y-81320746D01*
X163917617Y-81222309D01*
X164017818Y-81095032D01*
X164045062Y-81047167D01*
X164069534Y-80993260D01*
X164084489Y-80938149D01*
X164092077Y-80868952D01*
X164094445Y-80772788D01*
X164094482Y-80750834D01*
X164092983Y-80650481D01*
X164086986Y-80579091D01*
X164074061Y-80523345D01*
X164051778Y-80469922D01*
X164038487Y-80443917D01*
X163963176Y-80331063D01*
X163863891Y-80238068D01*
X163731664Y-80156605D01*
X163726088Y-80153736D01*
X163592155Y-80106714D01*
X163444961Y-80091100D01*
X163298830Y-80107086D01*
X163184417Y-80146501D01*
X163078584Y-80197949D01*
X163072760Y-80141016D01*
X163060146Y-80086118D01*
X163033900Y-80008328D01*
X162999600Y-79922479D01*
X162962821Y-79843403D01*
X162955861Y-79830084D01*
X162928867Y-79778548D01*
X162904836Y-79731607D01*
X162874217Y-79686848D01*
X162845230Y-79663479D01*
X162817497Y-79640462D01*
X162814000Y-79628649D01*
X162798314Y-79598856D01*
X162760812Y-79559675D01*
X162715830Y-79523746D01*
X162677701Y-79503710D01*
X162671125Y-79502669D01*
X162646522Y-79487961D01*
X162644667Y-79479753D01*
X162626947Y-79458404D01*
X162582713Y-79432255D01*
X162565292Y-79424458D01*
X162512062Y-79399008D01*
X162477752Y-79376545D01*
X162473688Y-79371979D01*
X162448711Y-79360179D01*
X162391777Y-79344560D01*
X162312782Y-79327633D01*
X162264274Y-79318807D01*
X162157336Y-79302517D01*
X162072150Y-79295941D01*
X161989349Y-79298727D01*
G36*
X168234633Y-78803306D02*
X168004634Y-78858211D01*
X167939281Y-78881177D01*
X167847096Y-78921393D01*
X167745649Y-78973936D01*
X167648379Y-79031094D01*
X167568726Y-79085154D01*
X167534167Y-79113653D01*
X167498182Y-79147023D01*
X167448989Y-79192260D01*
X167437090Y-79203156D01*
X167392357Y-79249304D01*
X167362240Y-79289848D01*
X167358379Y-79297790D01*
X167335961Y-79327733D01*
X167322641Y-79332667D01*
X167297924Y-79349820D01*
X167279267Y-79380292D01*
X167257005Y-79423290D01*
X167220475Y-79486734D01*
X167185365Y-79544334D01*
X167147270Y-79610191D01*
X167120590Y-79665857D01*
X167111658Y-79696037D01*
X167103152Y-79735367D01*
X167082449Y-79795683D01*
X167068500Y-79830083D01*
X167050404Y-79879218D01*
X167038171Y-79933189D01*
X167030754Y-80001468D01*
X167027102Y-80093527D01*
X167026167Y-80212393D01*
X167027141Y-80335533D01*
X167031027Y-80428153D01*
X167039270Y-80502041D01*
X167053313Y-80568986D01*
X167074603Y-80640775D01*
X167081083Y-80660430D01*
X167110460Y-80741820D01*
X167139116Y-80810152D01*
X167161812Y-80853179D01*
X167165750Y-80858334D01*
X167190240Y-80896139D01*
X167195500Y-80915481D01*
X167206844Y-80947148D01*
X167235207Y-80996552D01*
X167272094Y-81051408D01*
X167309005Y-81099431D01*
X167337442Y-81128336D01*
X167345167Y-81131834D01*
X167363778Y-81148374D01*
X167364834Y-81156252D01*
X167381956Y-81191690D01*
X167428421Y-81242427D01*
X167496874Y-81302657D01*
X167579961Y-81366574D01*
X167670327Y-81428370D01*
X167760619Y-81482238D01*
X167809334Y-81507218D01*
X167921061Y-81558795D01*
X168008399Y-81594154D01*
X168084207Y-81617195D01*
X168161345Y-81631819D01*
X168252672Y-81641925D01*
X168253834Y-81642028D01*
X168352594Y-81650337D01*
X168427617Y-81654682D01*
X168494239Y-81654998D01*
X168567793Y-81651219D01*
X168663615Y-81643281D01*
X168698334Y-81640139D01*
X168790244Y-81627591D01*
X168877937Y-81608676D01*
X168941750Y-81587746D01*
X169143423Y-81488663D01*
X169308923Y-81387250D01*
X169444370Y-81279248D01*
X169555881Y-81160402D01*
X169556000Y-81160254D01*
X169601534Y-81104790D01*
X169636751Y-81063528D01*
X169652177Y-81047167D01*
X169676050Y-81014743D01*
X169709452Y-80952077D01*
X169748204Y-80868977D01*
X169788126Y-80775253D01*
X169825041Y-80680714D01*
X169854768Y-80595170D01*
X169873098Y-80528584D01*
X169902441Y-80287919D01*
X169891415Y-80047962D01*
X169841609Y-79814012D01*
X169754613Y-79591369D01*
X169632017Y-79385333D01*
X169475412Y-79201204D01*
X169474574Y-79200375D01*
X169410611Y-79138881D01*
X169357095Y-79090661D01*
X169321497Y-79062282D01*
X169312045Y-79057500D01*
X169283151Y-79044275D01*
X169266054Y-79030085D01*
X169234077Y-79008249D01*
X169175217Y-78975315D01*
X169101330Y-78937255D01*
X169024269Y-78900044D01*
X168955890Y-78869655D01*
X168920584Y-78855999D01*
X168701320Y-78801976D01*
X168469766Y-78784486D01*
X168234633Y-78803306D01*
X168234633Y-78803306D01*
G37*
X168234633Y-78803306D02*
X168004634Y-78858211D01*
X167939281Y-78881177D01*
X167847096Y-78921393D01*
X167745649Y-78973936D01*
X167648379Y-79031094D01*
X167568726Y-79085154D01*
X167534167Y-79113653D01*
X167498182Y-79147023D01*
X167448989Y-79192260D01*
X167437090Y-79203156D01*
X167392357Y-79249304D01*
X167362240Y-79289848D01*
X167358379Y-79297790D01*
X167335961Y-79327733D01*
X167322641Y-79332667D01*
X167297924Y-79349820D01*
X167279267Y-79380292D01*
X167257005Y-79423290D01*
X167220475Y-79486734D01*
X167185365Y-79544334D01*
X167147270Y-79610191D01*
X167120590Y-79665857D01*
X167111658Y-79696037D01*
X167103152Y-79735367D01*
X167082449Y-79795683D01*
X167068500Y-79830083D01*
X167050404Y-79879218D01*
X167038171Y-79933189D01*
X167030754Y-80001468D01*
X167027102Y-80093527D01*
X167026167Y-80212393D01*
X167027141Y-80335533D01*
X167031027Y-80428153D01*
X167039270Y-80502041D01*
X167053313Y-80568986D01*
X167074603Y-80640775D01*
X167081083Y-80660430D01*
X167110460Y-80741820D01*
X167139116Y-80810152D01*
X167161812Y-80853179D01*
X167165750Y-80858334D01*
X167190240Y-80896139D01*
X167195500Y-80915481D01*
X167206844Y-80947148D01*
X167235207Y-80996552D01*
X167272094Y-81051408D01*
X167309005Y-81099431D01*
X167337442Y-81128336D01*
X167345167Y-81131834D01*
X167363778Y-81148374D01*
X167364834Y-81156252D01*
X167381956Y-81191690D01*
X167428421Y-81242427D01*
X167496874Y-81302657D01*
X167579961Y-81366574D01*
X167670327Y-81428370D01*
X167760619Y-81482238D01*
X167809334Y-81507218D01*
X167921061Y-81558795D01*
X168008399Y-81594154D01*
X168084207Y-81617195D01*
X168161345Y-81631819D01*
X168252672Y-81641925D01*
X168253834Y-81642028D01*
X168352594Y-81650337D01*
X168427617Y-81654682D01*
X168494239Y-81654998D01*
X168567793Y-81651219D01*
X168663615Y-81643281D01*
X168698334Y-81640139D01*
X168790244Y-81627591D01*
X168877937Y-81608676D01*
X168941750Y-81587746D01*
X169143423Y-81488663D01*
X169308923Y-81387250D01*
X169444370Y-81279248D01*
X169555881Y-81160402D01*
X169556000Y-81160254D01*
X169601534Y-81104790D01*
X169636751Y-81063528D01*
X169652177Y-81047167D01*
X169676050Y-81014743D01*
X169709452Y-80952077D01*
X169748204Y-80868977D01*
X169788126Y-80775253D01*
X169825041Y-80680714D01*
X169854768Y-80595170D01*
X169873098Y-80528584D01*
X169902441Y-80287919D01*
X169891415Y-80047962D01*
X169841609Y-79814012D01*
X169754613Y-79591369D01*
X169632017Y-79385333D01*
X169475412Y-79201204D01*
X169474574Y-79200375D01*
X169410611Y-79138881D01*
X169357095Y-79090661D01*
X169321497Y-79062282D01*
X169312045Y-79057500D01*
X169283151Y-79044275D01*
X169266054Y-79030085D01*
X169234077Y-79008249D01*
X169175217Y-78975315D01*
X169101330Y-78937255D01*
X169024269Y-78900044D01*
X168955890Y-78869655D01*
X168920584Y-78855999D01*
X168701320Y-78801976D01*
X168469766Y-78784486D01*
X168234633Y-78803306D01*
G36*
X159742385Y-80312885D02*
X159598913Y-80329120D01*
X159476157Y-80357678D01*
X159415894Y-80382930D01*
X159341741Y-80423270D01*
X159262426Y-80472695D01*
X159186677Y-80525198D01*
X159123221Y-80574775D01*
X159080787Y-80615420D01*
X159067762Y-80638657D01*
X159051330Y-80670541D01*
X159037871Y-80680990D01*
X159015245Y-80707055D01*
X158981424Y-80761274D01*
X158942732Y-80833261D01*
X158932038Y-80854874D01*
X158898613Y-80925784D01*
X158876735Y-80982094D01*
X158863961Y-81036409D01*
X158857849Y-81101333D01*
X158855959Y-81189469D01*
X158855834Y-81248250D01*
X158856548Y-81353730D01*
X158860243Y-81429307D01*
X158869253Y-81487405D01*
X158885906Y-81540449D01*
X158912536Y-81600864D01*
X158928029Y-81633015D01*
X159013684Y-81774295D01*
X159125093Y-81906565D01*
X159250662Y-82017278D01*
X159332381Y-82070623D01*
X159492517Y-82138896D01*
X159669161Y-82177788D01*
X159848884Y-82185596D01*
X160018254Y-82160618D01*
X160025934Y-82158554D01*
X160141187Y-82119731D01*
X160251822Y-82070027D01*
X160340958Y-82017229D01*
X160355122Y-82006668D01*
X160413725Y-81955719D01*
X160476174Y-81893638D01*
X160534685Y-81829228D01*
X160581472Y-81771286D01*
X160608750Y-81728614D01*
X160612641Y-81715584D01*
X160625535Y-81685943D01*
X160645726Y-81659554D01*
X160663689Y-81623042D01*
X160683756Y-81556295D01*
X160702645Y-81471070D01*
X160709868Y-81429926D01*
X160724573Y-81328278D01*
X160730273Y-81249447D01*
X160726930Y-81174876D01*
X160714505Y-81086009D01*
X160709089Y-81054292D01*
X160691464Y-80967398D01*
X160672116Y-80894078D01*
X160654372Y-80846339D01*
X160649041Y-80837753D01*
X160619596Y-80792686D01*
X160596047Y-80745542D01*
X160571939Y-80704135D01*
X160549621Y-80687334D01*
X160528898Y-80671027D01*
X160528000Y-80664539D01*
X160513211Y-80634504D01*
X160477529Y-80592171D01*
X160433982Y-80550569D01*
X160395601Y-80522728D01*
X160381462Y-80518000D01*
X160359588Y-80504898D01*
X160358667Y-80499783D01*
X160340379Y-80478249D01*
X160292155Y-80447379D01*
X160223959Y-80411985D01*
X160145755Y-80376881D01*
X160067505Y-80346881D01*
X160001914Y-80327426D01*
X159882612Y-80311982D01*
X159742385Y-80312885D01*
X159742385Y-80312885D01*
G37*
X159742385Y-80312885D02*
X159598913Y-80329120D01*
X159476157Y-80357678D01*
X159415894Y-80382930D01*
X159341741Y-80423270D01*
X159262426Y-80472695D01*
X159186677Y-80525198D01*
X159123221Y-80574775D01*
X159080787Y-80615420D01*
X159067762Y-80638657D01*
X159051330Y-80670541D01*
X159037871Y-80680990D01*
X159015245Y-80707055D01*
X158981424Y-80761274D01*
X158942732Y-80833261D01*
X158932038Y-80854874D01*
X158898613Y-80925784D01*
X158876735Y-80982094D01*
X158863961Y-81036409D01*
X158857849Y-81101333D01*
X158855959Y-81189469D01*
X158855834Y-81248250D01*
X158856548Y-81353730D01*
X158860243Y-81429307D01*
X158869253Y-81487405D01*
X158885906Y-81540449D01*
X158912536Y-81600864D01*
X158928029Y-81633015D01*
X159013684Y-81774295D01*
X159125093Y-81906565D01*
X159250662Y-82017278D01*
X159332381Y-82070623D01*
X159492517Y-82138896D01*
X159669161Y-82177788D01*
X159848884Y-82185596D01*
X160018254Y-82160618D01*
X160025934Y-82158554D01*
X160141187Y-82119731D01*
X160251822Y-82070027D01*
X160340958Y-82017229D01*
X160355122Y-82006668D01*
X160413725Y-81955719D01*
X160476174Y-81893638D01*
X160534685Y-81829228D01*
X160581472Y-81771286D01*
X160608750Y-81728614D01*
X160612641Y-81715584D01*
X160625535Y-81685943D01*
X160645726Y-81659554D01*
X160663689Y-81623042D01*
X160683756Y-81556295D01*
X160702645Y-81471070D01*
X160709868Y-81429926D01*
X160724573Y-81328278D01*
X160730273Y-81249447D01*
X160726930Y-81174876D01*
X160714505Y-81086009D01*
X160709089Y-81054292D01*
X160691464Y-80967398D01*
X160672116Y-80894078D01*
X160654372Y-80846339D01*
X160649041Y-80837753D01*
X160619596Y-80792686D01*
X160596047Y-80745542D01*
X160571939Y-80704135D01*
X160549621Y-80687334D01*
X160528898Y-80671027D01*
X160528000Y-80664539D01*
X160513211Y-80634504D01*
X160477529Y-80592171D01*
X160433982Y-80550569D01*
X160395601Y-80522728D01*
X160381462Y-80518000D01*
X160359588Y-80504898D01*
X160358667Y-80499783D01*
X160340379Y-80478249D01*
X160292155Y-80447379D01*
X160223959Y-80411985D01*
X160145755Y-80376881D01*
X160067505Y-80346881D01*
X160001914Y-80327426D01*
X159882612Y-80311982D01*
X159742385Y-80312885D01*
G36*
X170602515Y-80688434D02*
X170515776Y-80692255D01*
X170453498Y-80699889D01*
X170406761Y-80712347D01*
X170373382Y-80727080D01*
X170308969Y-80759652D01*
X170250757Y-80788014D01*
X170243500Y-80791418D01*
X170111210Y-80872660D01*
X169984426Y-80988446D01*
X169892267Y-81101541D01*
X169805289Y-81257898D01*
X169749119Y-81435154D01*
X169724849Y-81624055D01*
X169733570Y-81815349D01*
X169776375Y-81999783D01*
X169783788Y-82020834D01*
X169816582Y-82097757D01*
X169857243Y-82175371D01*
X169899789Y-82244120D01*
X169938235Y-82294452D01*
X169966602Y-82316812D01*
X169969351Y-82317167D01*
X169987232Y-82334326D01*
X169989500Y-82348917D01*
X170001004Y-82377084D01*
X170010807Y-82380667D01*
X170038158Y-82395265D01*
X170075581Y-82430695D01*
X170078124Y-82433584D01*
X170116480Y-82470062D01*
X170146812Y-82486433D01*
X170148076Y-82486500D01*
X170180728Y-82499572D01*
X170213051Y-82523619D01*
X170287804Y-82569969D01*
X170393335Y-82607357D01*
X170518806Y-82634584D01*
X170653379Y-82650454D01*
X170786217Y-82653768D01*
X170906483Y-82643329D01*
X171003338Y-82617940D01*
X171016084Y-82612342D01*
X171073606Y-82587576D01*
X171117086Y-82573161D01*
X171126269Y-82571722D01*
X171164793Y-82558070D01*
X171223567Y-82522748D01*
X171294210Y-82472537D01*
X171368346Y-82414217D01*
X171437594Y-82354569D01*
X171493577Y-82300372D01*
X171527917Y-82258408D01*
X171534667Y-82241218D01*
X171549002Y-82210788D01*
X171577000Y-82179584D01*
X171609272Y-82138865D01*
X171620052Y-82107511D01*
X171629327Y-82068337D01*
X171651709Y-82010669D01*
X171661667Y-81989084D01*
X171685079Y-81914102D01*
X171700103Y-81811688D01*
X171706741Y-81694188D01*
X171704991Y-81573947D01*
X171694855Y-81463311D01*
X171676331Y-81374629D01*
X171661667Y-81337972D01*
X171635143Y-81282844D01*
X171620404Y-81241257D01*
X171619334Y-81233590D01*
X171603505Y-81185776D01*
X171560947Y-81120334D01*
X171499051Y-81044667D01*
X171425211Y-80966176D01*
X171346817Y-80892262D01*
X171271263Y-80830327D01*
X171205940Y-80787773D01*
X171158333Y-80772000D01*
X171125212Y-80761683D01*
X171075130Y-80736219D01*
X171064220Y-80729746D01*
X171029445Y-80711829D01*
X170988775Y-80699724D01*
X170933454Y-80692348D01*
X170854725Y-80688613D01*
X170743834Y-80687436D01*
X170722632Y-80687413D01*
X170602515Y-80688434D01*
X170602515Y-80688434D01*
G37*
X170602515Y-80688434D02*
X170515776Y-80692255D01*
X170453498Y-80699889D01*
X170406761Y-80712347D01*
X170373382Y-80727080D01*
X170308969Y-80759652D01*
X170250757Y-80788014D01*
X170243500Y-80791418D01*
X170111210Y-80872660D01*
X169984426Y-80988446D01*
X169892267Y-81101541D01*
X169805289Y-81257898D01*
X169749119Y-81435154D01*
X169724849Y-81624055D01*
X169733570Y-81815349D01*
X169776375Y-81999783D01*
X169783788Y-82020834D01*
X169816582Y-82097757D01*
X169857243Y-82175371D01*
X169899789Y-82244120D01*
X169938235Y-82294452D01*
X169966602Y-82316812D01*
X169969351Y-82317167D01*
X169987232Y-82334326D01*
X169989500Y-82348917D01*
X170001004Y-82377084D01*
X170010807Y-82380667D01*
X170038158Y-82395265D01*
X170075581Y-82430695D01*
X170078124Y-82433584D01*
X170116480Y-82470062D01*
X170146812Y-82486433D01*
X170148076Y-82486500D01*
X170180728Y-82499572D01*
X170213051Y-82523619D01*
X170287804Y-82569969D01*
X170393335Y-82607357D01*
X170518806Y-82634584D01*
X170653379Y-82650454D01*
X170786217Y-82653768D01*
X170906483Y-82643329D01*
X171003338Y-82617940D01*
X171016084Y-82612342D01*
X171073606Y-82587576D01*
X171117086Y-82573161D01*
X171126269Y-82571722D01*
X171164793Y-82558070D01*
X171223567Y-82522748D01*
X171294210Y-82472537D01*
X171368346Y-82414217D01*
X171437594Y-82354569D01*
X171493577Y-82300372D01*
X171527917Y-82258408D01*
X171534667Y-82241218D01*
X171549002Y-82210788D01*
X171577000Y-82179584D01*
X171609272Y-82138865D01*
X171620052Y-82107511D01*
X171629327Y-82068337D01*
X171651709Y-82010669D01*
X171661667Y-81989084D01*
X171685079Y-81914102D01*
X171700103Y-81811688D01*
X171706741Y-81694188D01*
X171704991Y-81573947D01*
X171694855Y-81463311D01*
X171676331Y-81374629D01*
X171661667Y-81337972D01*
X171635143Y-81282844D01*
X171620404Y-81241257D01*
X171619334Y-81233590D01*
X171603505Y-81185776D01*
X171560947Y-81120334D01*
X171499051Y-81044667D01*
X171425211Y-80966176D01*
X171346817Y-80892262D01*
X171271263Y-80830327D01*
X171205940Y-80787773D01*
X171158333Y-80772000D01*
X171125212Y-80761683D01*
X171075130Y-80736219D01*
X171064220Y-80729746D01*
X171029445Y-80711829D01*
X170988775Y-80699724D01*
X170933454Y-80692348D01*
X170854725Y-80688613D01*
X170743834Y-80687436D01*
X170722632Y-80687413D01*
X170602515Y-80688434D01*
G36*
X167930480Y-82185476D02*
X167826438Y-82204081D01*
X167744120Y-82235010D01*
X167712720Y-82256568D01*
X167676274Y-82285512D01*
X167655473Y-82296000D01*
X167624954Y-82312776D01*
X167582073Y-82356259D01*
X167535086Y-82416184D01*
X167492250Y-82482286D01*
X167468215Y-82528834D01*
X167449009Y-82597562D01*
X167436909Y-82691512D01*
X167432761Y-82794035D01*
X167437413Y-82888485D01*
X167447081Y-82943613D01*
X167498078Y-83061214D01*
X167582108Y-83173199D01*
X167690314Y-83267853D01*
X167694313Y-83270627D01*
X167747606Y-83304631D01*
X167795458Y-83325657D01*
X167851741Y-83337388D01*
X167930328Y-83343505D01*
X167975975Y-83345382D01*
X168066414Y-83346721D01*
X168146190Y-83344471D01*
X168201585Y-83339121D01*
X168211500Y-83336957D01*
X168321108Y-83286840D01*
X168425947Y-83205023D01*
X168515806Y-83101789D01*
X168580478Y-82987420D01*
X168593541Y-82952167D01*
X168614550Y-82856381D01*
X168622078Y-82751792D01*
X168615985Y-82654778D01*
X168596694Y-82582903D01*
X168568526Y-82522875D01*
X168548960Y-82481209D01*
X168477583Y-82375524D01*
X168374887Y-82286339D01*
X168250872Y-82220951D01*
X168153292Y-82192565D01*
X168043635Y-82181027D01*
X167930480Y-82185476D01*
X167930480Y-82185476D01*
G37*
X167930480Y-82185476D02*
X167826438Y-82204081D01*
X167744120Y-82235010D01*
X167712720Y-82256568D01*
X167676274Y-82285512D01*
X167655473Y-82296000D01*
X167624954Y-82312776D01*
X167582073Y-82356259D01*
X167535086Y-82416184D01*
X167492250Y-82482286D01*
X167468215Y-82528834D01*
X167449009Y-82597562D01*
X167436909Y-82691512D01*
X167432761Y-82794035D01*
X167437413Y-82888485D01*
X167447081Y-82943613D01*
X167498078Y-83061214D01*
X167582108Y-83173199D01*
X167690314Y-83267853D01*
X167694313Y-83270627D01*
X167747606Y-83304631D01*
X167795458Y-83325657D01*
X167851741Y-83337388D01*
X167930328Y-83343505D01*
X167975975Y-83345382D01*
X168066414Y-83346721D01*
X168146190Y-83344471D01*
X168201585Y-83339121D01*
X168211500Y-83336957D01*
X168321108Y-83286840D01*
X168425947Y-83205023D01*
X168515806Y-83101789D01*
X168580478Y-82987420D01*
X168593541Y-82952167D01*
X168614550Y-82856381D01*
X168622078Y-82751792D01*
X168615985Y-82654778D01*
X168596694Y-82582903D01*
X168568526Y-82522875D01*
X168548960Y-82481209D01*
X168477583Y-82375524D01*
X168374887Y-82286339D01*
X168250872Y-82220951D01*
X168153292Y-82192565D01*
X168043635Y-82181027D01*
X167930480Y-82185476D01*
G36*
X162257976Y-81620780D02*
X162185449Y-81627239D01*
X162119090Y-81639933D01*
X162046881Y-81659939D01*
X162046279Y-81660121D01*
X161966107Y-81685689D01*
X161897946Y-81709590D01*
X161855482Y-81727002D01*
X161853309Y-81728128D01*
X161682445Y-81826636D01*
X161545606Y-81921104D01*
X161435672Y-82017459D01*
X161345525Y-82121624D01*
X161298080Y-82190167D01*
X161258329Y-82249869D01*
X161223980Y-82297322D01*
X161210663Y-82313387D01*
X161187617Y-82350215D01*
X161184037Y-82366304D01*
X161174760Y-82401109D01*
X161152440Y-82451526D01*
X161150774Y-82454750D01*
X161107278Y-82567939D01*
X161076300Y-82710454D01*
X161058829Y-82870885D01*
X161055856Y-83037824D01*
X161068373Y-83199862D01*
X161079890Y-83271091D01*
X161136066Y-83462449D01*
X161226826Y-83651287D01*
X161345299Y-83826501D01*
X161484613Y-83976990D01*
X161551432Y-84033040D01*
X161612067Y-84079772D01*
X161661260Y-84118038D01*
X161685727Y-84137436D01*
X161729819Y-84164447D01*
X161801859Y-84199286D01*
X161889542Y-84236666D01*
X161980567Y-84271302D01*
X162052000Y-84294821D01*
X162129084Y-84311690D01*
X162230605Y-84325815D01*
X162342963Y-84336180D01*
X162452555Y-84341765D01*
X162545776Y-84341555D01*
X162602334Y-84335991D01*
X162751533Y-84298333D01*
X162910302Y-84243592D01*
X163061237Y-84178487D01*
X163184417Y-84111331D01*
X163226931Y-84077973D01*
X163287972Y-84022099D01*
X163359298Y-83952192D01*
X163432666Y-83876734D01*
X163499836Y-83804209D01*
X163552564Y-83743097D01*
X163582610Y-83701883D01*
X163583082Y-83701029D01*
X163615315Y-83639127D01*
X163640531Y-83587167D01*
X163665206Y-83533547D01*
X163696202Y-83466420D01*
X163703992Y-83449584D01*
X163736216Y-83352346D01*
X163759585Y-83225304D01*
X163773026Y-83080265D01*
X163775464Y-82929036D01*
X163765825Y-82783425D01*
X163765132Y-82777542D01*
X163751017Y-82678699D01*
X163732319Y-82593316D01*
X163705081Y-82509976D01*
X163665345Y-82417265D01*
X163609155Y-82303767D01*
X163584372Y-82256068D01*
X163540448Y-82189584D01*
X163473445Y-82108141D01*
X163393632Y-82022850D01*
X163311282Y-81944827D01*
X163251406Y-81895799D01*
X163168135Y-81837488D01*
X163082711Y-81783764D01*
X163004591Y-81739986D01*
X162943228Y-81711509D01*
X162911751Y-81703334D01*
X162875621Y-81694345D01*
X162822352Y-81672208D01*
X162811961Y-81667123D01*
X162763191Y-81649517D01*
X162693049Y-81636745D01*
X162594419Y-81627877D01*
X162469613Y-81622273D01*
X162348691Y-81619483D01*
X162257976Y-81620780D01*
X162257976Y-81620780D01*
G37*
X162257976Y-81620780D02*
X162185449Y-81627239D01*
X162119090Y-81639933D01*
X162046881Y-81659939D01*
X162046279Y-81660121D01*
X161966107Y-81685689D01*
X161897946Y-81709590D01*
X161855482Y-81727002D01*
X161853309Y-81728128D01*
X161682445Y-81826636D01*
X161545606Y-81921104D01*
X161435672Y-82017459D01*
X161345525Y-82121624D01*
X161298080Y-82190167D01*
X161258329Y-82249869D01*
X161223980Y-82297322D01*
X161210663Y-82313387D01*
X161187617Y-82350215D01*
X161184037Y-82366304D01*
X161174760Y-82401109D01*
X161152440Y-82451526D01*
X161150774Y-82454750D01*
X161107278Y-82567939D01*
X161076300Y-82710454D01*
X161058829Y-82870885D01*
X161055856Y-83037824D01*
X161068373Y-83199862D01*
X161079890Y-83271091D01*
X161136066Y-83462449D01*
X161226826Y-83651287D01*
X161345299Y-83826501D01*
X161484613Y-83976990D01*
X161551432Y-84033040D01*
X161612067Y-84079772D01*
X161661260Y-84118038D01*
X161685727Y-84137436D01*
X161729819Y-84164447D01*
X161801859Y-84199286D01*
X161889542Y-84236666D01*
X161980567Y-84271302D01*
X162052000Y-84294821D01*
X162129084Y-84311690D01*
X162230605Y-84325815D01*
X162342963Y-84336180D01*
X162452555Y-84341765D01*
X162545776Y-84341555D01*
X162602334Y-84335991D01*
X162751533Y-84298333D01*
X162910302Y-84243592D01*
X163061237Y-84178487D01*
X163184417Y-84111331D01*
X163226931Y-84077973D01*
X163287972Y-84022099D01*
X163359298Y-83952192D01*
X163432666Y-83876734D01*
X163499836Y-83804209D01*
X163552564Y-83743097D01*
X163582610Y-83701883D01*
X163583082Y-83701029D01*
X163615315Y-83639127D01*
X163640531Y-83587167D01*
X163665206Y-83533547D01*
X163696202Y-83466420D01*
X163703992Y-83449584D01*
X163736216Y-83352346D01*
X163759585Y-83225304D01*
X163773026Y-83080265D01*
X163775464Y-82929036D01*
X163765825Y-82783425D01*
X163765132Y-82777542D01*
X163751017Y-82678699D01*
X163732319Y-82593316D01*
X163705081Y-82509976D01*
X163665345Y-82417265D01*
X163609155Y-82303767D01*
X163584372Y-82256068D01*
X163540448Y-82189584D01*
X163473445Y-82108141D01*
X163393632Y-82022850D01*
X163311282Y-81944827D01*
X163251406Y-81895799D01*
X163168135Y-81837488D01*
X163082711Y-81783764D01*
X163004591Y-81739986D01*
X162943228Y-81711509D01*
X162911751Y-81703334D01*
X162875621Y-81694345D01*
X162822352Y-81672208D01*
X162811961Y-81667123D01*
X162763191Y-81649517D01*
X162693049Y-81636745D01*
X162594419Y-81627877D01*
X162469613Y-81622273D01*
X162348691Y-81619483D01*
X162257976Y-81620780D01*
G36*
X168999441Y-83179673D02*
X168834066Y-83242574D01*
X168684681Y-83340141D01*
X168559924Y-83467679D01*
X168509911Y-83535695D01*
X168467563Y-83600810D01*
X168446330Y-83640084D01*
X168420485Y-83696810D01*
X168399531Y-83740338D01*
X168391717Y-83776127D01*
X168385506Y-83843451D01*
X168381678Y-83931522D01*
X168380834Y-83998986D01*
X168382300Y-84107120D01*
X168387701Y-84183541D01*
X168398538Y-84238801D01*
X168416315Y-84283451D01*
X168423167Y-84296250D01*
X168449971Y-84348584D01*
X168464590Y-84386102D01*
X168465500Y-84391902D01*
X168480813Y-84427723D01*
X168521517Y-84481714D01*
X168579766Y-84545827D01*
X168647712Y-84612017D01*
X168717505Y-84672240D01*
X168781299Y-84718449D01*
X168788108Y-84722628D01*
X168874569Y-84762545D01*
X168985356Y-84797413D01*
X169102464Y-84822687D01*
X169207888Y-84833822D01*
X169228853Y-84833899D01*
X169303227Y-84827066D01*
X169393454Y-84811771D01*
X169449750Y-84798928D01*
X169518085Y-84779400D01*
X169568219Y-84761636D01*
X169587334Y-84751065D01*
X169611591Y-84732445D01*
X169658285Y-84705267D01*
X169670884Y-84698668D01*
X169748736Y-84645188D01*
X169827858Y-84568097D01*
X169900906Y-84477427D01*
X169960541Y-84383210D01*
X169999420Y-84295477D01*
X170010667Y-84234389D01*
X170018416Y-84189417D01*
X170031834Y-84169250D01*
X170041807Y-84143280D01*
X170049251Y-84086162D01*
X170052854Y-84009068D01*
X170053000Y-83989334D01*
X170050488Y-83909175D01*
X170043825Y-83846379D01*
X170034326Y-83812115D01*
X170031834Y-83809417D01*
X170015843Y-83780434D01*
X170010667Y-83741236D01*
X170000059Y-83690610D01*
X169973151Y-83624911D01*
X169956014Y-83592877D01*
X169913176Y-83528858D01*
X169859100Y-83460507D01*
X169801766Y-83396470D01*
X169749156Y-83345396D01*
X169709247Y-83315930D01*
X169696795Y-83312000D01*
X169673402Y-83299339D01*
X169672000Y-83293084D01*
X169653876Y-83276414D01*
X169606062Y-83249960D01*
X169538403Y-83219087D01*
X169529125Y-83215220D01*
X169353210Y-83164371D01*
X169174569Y-83153064D01*
X168999441Y-83179673D01*
X168999441Y-83179673D01*
G37*
X168999441Y-83179673D02*
X168834066Y-83242574D01*
X168684681Y-83340141D01*
X168559924Y-83467679D01*
X168509911Y-83535695D01*
X168467563Y-83600810D01*
X168446330Y-83640084D01*
X168420485Y-83696810D01*
X168399531Y-83740338D01*
X168391717Y-83776127D01*
X168385506Y-83843451D01*
X168381678Y-83931522D01*
X168380834Y-83998986D01*
X168382300Y-84107120D01*
X168387701Y-84183541D01*
X168398538Y-84238801D01*
X168416315Y-84283451D01*
X168423167Y-84296250D01*
X168449971Y-84348584D01*
X168464590Y-84386102D01*
X168465500Y-84391902D01*
X168480813Y-84427723D01*
X168521517Y-84481714D01*
X168579766Y-84545827D01*
X168647712Y-84612017D01*
X168717505Y-84672240D01*
X168781299Y-84718449D01*
X168788108Y-84722628D01*
X168874569Y-84762545D01*
X168985356Y-84797413D01*
X169102464Y-84822687D01*
X169207888Y-84833822D01*
X169228853Y-84833899D01*
X169303227Y-84827066D01*
X169393454Y-84811771D01*
X169449750Y-84798928D01*
X169518085Y-84779400D01*
X169568219Y-84761636D01*
X169587334Y-84751065D01*
X169611591Y-84732445D01*
X169658285Y-84705267D01*
X169670884Y-84698668D01*
X169748736Y-84645188D01*
X169827858Y-84568097D01*
X169900906Y-84477427D01*
X169960541Y-84383210D01*
X169999420Y-84295477D01*
X170010667Y-84234389D01*
X170018416Y-84189417D01*
X170031834Y-84169250D01*
X170041807Y-84143280D01*
X170049251Y-84086162D01*
X170052854Y-84009068D01*
X170053000Y-83989334D01*
X170050488Y-83909175D01*
X170043825Y-83846379D01*
X170034326Y-83812115D01*
X170031834Y-83809417D01*
X170015843Y-83780434D01*
X170010667Y-83741236D01*
X170000059Y-83690610D01*
X169973151Y-83624911D01*
X169956014Y-83592877D01*
X169913176Y-83528858D01*
X169859100Y-83460507D01*
X169801766Y-83396470D01*
X169749156Y-83345396D01*
X169709247Y-83315930D01*
X169696795Y-83312000D01*
X169673402Y-83299339D01*
X169672000Y-83293084D01*
X169653876Y-83276414D01*
X169606062Y-83249960D01*
X169538403Y-83219087D01*
X169529125Y-83215220D01*
X169353210Y-83164371D01*
X169174569Y-83153064D01*
X168999441Y-83179673D01*
G36*
X174869728Y-82889132D02*
X174544061Y-82889236D01*
X174258008Y-82889415D01*
X174008850Y-82889728D01*
X173793868Y-82890234D01*
X173610344Y-82890989D01*
X173455558Y-82892054D01*
X173326791Y-82893484D01*
X173221324Y-82895340D01*
X173136439Y-82897679D01*
X173069415Y-82900559D01*
X173017535Y-82904039D01*
X172978078Y-82908176D01*
X172948327Y-82913030D01*
X172925562Y-82918657D01*
X172907064Y-82925117D01*
X172892314Y-82931465D01*
X172831398Y-82956435D01*
X172783491Y-82971412D01*
X172770399Y-82973334D01*
X172735166Y-82988194D01*
X172704506Y-83015667D01*
X172668468Y-83047671D01*
X172643391Y-83058000D01*
X172611236Y-83074585D01*
X172563185Y-83118969D01*
X172505844Y-83183092D01*
X172445823Y-83258896D01*
X172389729Y-83338324D01*
X172344168Y-83413316D01*
X172330979Y-83439000D01*
X172264917Y-83576584D01*
X172264917Y-85482514D01*
X172336767Y-85628443D01*
X172397956Y-85731957D01*
X172476752Y-85835536D01*
X172563738Y-85928791D01*
X172649497Y-86001333D01*
X172705190Y-86034902D01*
X172774105Y-86068979D01*
X172836417Y-86102169D01*
X172851172Y-86108874D01*
X172871791Y-86114702D01*
X172901179Y-86119718D01*
X172942242Y-86123991D01*
X172997883Y-86127587D01*
X173071008Y-86130574D01*
X173164522Y-86133019D01*
X173281328Y-86134988D01*
X173424332Y-86136550D01*
X173596439Y-86137772D01*
X173800553Y-86138720D01*
X174039580Y-86139462D01*
X174316423Y-86140065D01*
X174487417Y-86140365D01*
X174744430Y-86140674D01*
X174990212Y-86140748D01*
X175221312Y-86140599D01*
X175434282Y-86140241D01*
X175625672Y-86139685D01*
X175792035Y-86138944D01*
X175929921Y-86138031D01*
X176035881Y-86136959D01*
X176106466Y-86135739D01*
X176138228Y-86134384D01*
X176138417Y-86134360D01*
X176194472Y-86119817D01*
X176266133Y-86092219D01*
X176340486Y-86057713D01*
X176404616Y-86022446D01*
X176445609Y-85992567D01*
X176451677Y-85985235D01*
X176478784Y-85960481D01*
X176489243Y-85957834D01*
X176513578Y-85943378D01*
X176555789Y-85905853D01*
X176596978Y-85863719D01*
X176688802Y-85751520D01*
X176757291Y-85635166D01*
X176804583Y-85507217D01*
X176832815Y-85360232D01*
X176844127Y-85186769D01*
X176842726Y-85072747D01*
X176127755Y-85072747D01*
X176124105Y-85186997D01*
X176110908Y-85268410D01*
X176084985Y-85325997D01*
X176043160Y-85368773D01*
X176017236Y-85386245D01*
X176002320Y-85394658D01*
X175985119Y-85401875D01*
X175962465Y-85407987D01*
X175931189Y-85413086D01*
X175888122Y-85417264D01*
X175830095Y-85420613D01*
X175753939Y-85423225D01*
X175656485Y-85425191D01*
X175534563Y-85426605D01*
X175385005Y-85427557D01*
X175204642Y-85428140D01*
X174990305Y-85428446D01*
X174738825Y-85428566D01*
X174557587Y-85428588D01*
X174311275Y-85428315D01*
X174078557Y-85427500D01*
X173862911Y-85426188D01*
X173667810Y-85424425D01*
X173496731Y-85422257D01*
X173353150Y-85419730D01*
X173240542Y-85416891D01*
X173162383Y-85413784D01*
X173122149Y-85410457D01*
X173118253Y-85409533D01*
X173066095Y-85380349D01*
X173021625Y-85345208D01*
X173001703Y-85323471D01*
X172988262Y-85297549D01*
X172980038Y-85259242D01*
X172975768Y-85200345D01*
X172974186Y-85112659D01*
X172974000Y-85036259D01*
X172974000Y-84772500D01*
X176043789Y-84772500D01*
X176085732Y-84841292D01*
X176109809Y-84893482D01*
X176122995Y-84959280D01*
X176127643Y-85051650D01*
X176127755Y-85072747D01*
X176842726Y-85072747D01*
X176841969Y-85011165D01*
X176834467Y-84866144D01*
X176822435Y-84752714D01*
X176802995Y-84660166D01*
X176773266Y-84577789D01*
X176730368Y-84494875D01*
X176682305Y-84417368D01*
X176563473Y-84272278D01*
X176415267Y-84157546D01*
X176238124Y-84073472D01*
X176139262Y-84043137D01*
X176109795Y-84036763D01*
X176072146Y-84031254D01*
X176023287Y-84026550D01*
X175960189Y-84022590D01*
X175879822Y-84019314D01*
X175779157Y-84016664D01*
X175655166Y-84014577D01*
X175504820Y-84012995D01*
X175325089Y-84011857D01*
X175112944Y-84011103D01*
X174865357Y-84010673D01*
X174579298Y-84010507D01*
X174493553Y-84010500D01*
X172974000Y-84010500D01*
X172974000Y-83884680D01*
X172977660Y-83804479D01*
X172991617Y-83750014D01*
X173020337Y-83705095D01*
X173025077Y-83699472D01*
X173076154Y-83640084D01*
X174921371Y-83629500D01*
X176766588Y-83618917D01*
X176807044Y-83568947D01*
X176824676Y-83541688D01*
X176836397Y-83506022D01*
X176843347Y-83453421D01*
X176846668Y-83375360D01*
X176847500Y-83266465D01*
X176846760Y-83156571D01*
X176843650Y-83079942D01*
X176836841Y-83027523D01*
X176825002Y-82990259D01*
X176806801Y-82959094D01*
X176801187Y-82951310D01*
X176754873Y-82888667D01*
X174869728Y-82889132D01*
X174869728Y-82889132D01*
G37*
X174869728Y-82889132D02*
X174544061Y-82889236D01*
X174258008Y-82889415D01*
X174008850Y-82889728D01*
X173793868Y-82890234D01*
X173610344Y-82890989D01*
X173455558Y-82892054D01*
X173326791Y-82893484D01*
X173221324Y-82895340D01*
X173136439Y-82897679D01*
X173069415Y-82900559D01*
X173017535Y-82904039D01*
X172978078Y-82908176D01*
X172948327Y-82913030D01*
X172925562Y-82918657D01*
X172907064Y-82925117D01*
X172892314Y-82931465D01*
X172831398Y-82956435D01*
X172783491Y-82971412D01*
X172770399Y-82973334D01*
X172735166Y-82988194D01*
X172704506Y-83015667D01*
X172668468Y-83047671D01*
X172643391Y-83058000D01*
X172611236Y-83074585D01*
X172563185Y-83118969D01*
X172505844Y-83183092D01*
X172445823Y-83258896D01*
X172389729Y-83338324D01*
X172344168Y-83413316D01*
X172330979Y-83439000D01*
X172264917Y-83576584D01*
X172264917Y-85482514D01*
X172336767Y-85628443D01*
X172397956Y-85731957D01*
X172476752Y-85835536D01*
X172563738Y-85928791D01*
X172649497Y-86001333D01*
X172705190Y-86034902D01*
X172774105Y-86068979D01*
X172836417Y-86102169D01*
X172851172Y-86108874D01*
X172871791Y-86114702D01*
X172901179Y-86119718D01*
X172942242Y-86123991D01*
X172997883Y-86127587D01*
X173071008Y-86130574D01*
X173164522Y-86133019D01*
X173281328Y-86134988D01*
X173424332Y-86136550D01*
X173596439Y-86137772D01*
X173800553Y-86138720D01*
X174039580Y-86139462D01*
X174316423Y-86140065D01*
X174487417Y-86140365D01*
X174744430Y-86140674D01*
X174990212Y-86140748D01*
X175221312Y-86140599D01*
X175434282Y-86140241D01*
X175625672Y-86139685D01*
X175792035Y-86138944D01*
X175929921Y-86138031D01*
X176035881Y-86136959D01*
X176106466Y-86135739D01*
X176138228Y-86134384D01*
X176138417Y-86134360D01*
X176194472Y-86119817D01*
X176266133Y-86092219D01*
X176340486Y-86057713D01*
X176404616Y-86022446D01*
X176445609Y-85992567D01*
X176451677Y-85985235D01*
X176478784Y-85960481D01*
X176489243Y-85957834D01*
X176513578Y-85943378D01*
X176555789Y-85905853D01*
X176596978Y-85863719D01*
X176688802Y-85751520D01*
X176757291Y-85635166D01*
X176804583Y-85507217D01*
X176832815Y-85360232D01*
X176844127Y-85186769D01*
X176842726Y-85072747D01*
X176127755Y-85072747D01*
X176124105Y-85186997D01*
X176110908Y-85268410D01*
X176084985Y-85325997D01*
X176043160Y-85368773D01*
X176017236Y-85386245D01*
X176002320Y-85394658D01*
X175985119Y-85401875D01*
X175962465Y-85407987D01*
X175931189Y-85413086D01*
X175888122Y-85417264D01*
X175830095Y-85420613D01*
X175753939Y-85423225D01*
X175656485Y-85425191D01*
X175534563Y-85426605D01*
X175385005Y-85427557D01*
X175204642Y-85428140D01*
X174990305Y-85428446D01*
X174738825Y-85428566D01*
X174557587Y-85428588D01*
X174311275Y-85428315D01*
X174078557Y-85427500D01*
X173862911Y-85426188D01*
X173667810Y-85424425D01*
X173496731Y-85422257D01*
X173353150Y-85419730D01*
X173240542Y-85416891D01*
X173162383Y-85413784D01*
X173122149Y-85410457D01*
X173118253Y-85409533D01*
X173066095Y-85380349D01*
X173021625Y-85345208D01*
X173001703Y-85323471D01*
X172988262Y-85297549D01*
X172980038Y-85259242D01*
X172975768Y-85200345D01*
X172974186Y-85112659D01*
X172974000Y-85036259D01*
X172974000Y-84772500D01*
X176043789Y-84772500D01*
X176085732Y-84841292D01*
X176109809Y-84893482D01*
X176122995Y-84959280D01*
X176127643Y-85051650D01*
X176127755Y-85072747D01*
X176842726Y-85072747D01*
X176841969Y-85011165D01*
X176834467Y-84866144D01*
X176822435Y-84752714D01*
X176802995Y-84660166D01*
X176773266Y-84577789D01*
X176730368Y-84494875D01*
X176682305Y-84417368D01*
X176563473Y-84272278D01*
X176415267Y-84157546D01*
X176238124Y-84073472D01*
X176139262Y-84043137D01*
X176109795Y-84036763D01*
X176072146Y-84031254D01*
X176023287Y-84026550D01*
X175960189Y-84022590D01*
X175879822Y-84019314D01*
X175779157Y-84016664D01*
X175655166Y-84014577D01*
X175504820Y-84012995D01*
X175325089Y-84011857D01*
X175112944Y-84011103D01*
X174865357Y-84010673D01*
X174579298Y-84010507D01*
X174493553Y-84010500D01*
X172974000Y-84010500D01*
X172974000Y-83884680D01*
X172977660Y-83804479D01*
X172991617Y-83750014D01*
X173020337Y-83705095D01*
X173025077Y-83699472D01*
X173076154Y-83640084D01*
X174921371Y-83629500D01*
X176766588Y-83618917D01*
X176807044Y-83568947D01*
X176824676Y-83541688D01*
X176836397Y-83506022D01*
X176843347Y-83453421D01*
X176846668Y-83375360D01*
X176847500Y-83266465D01*
X176846760Y-83156571D01*
X176843650Y-83079942D01*
X176836841Y-83027523D01*
X176825002Y-82990259D01*
X176806801Y-82959094D01*
X176801187Y-82951310D01*
X176754873Y-82888667D01*
X174869728Y-82889132D01*
G36*
X177852096Y-82042913D02*
X177781293Y-82046353D01*
X177733337Y-82054115D01*
X177698490Y-82067892D01*
X177667014Y-82089376D01*
X177662417Y-82093018D01*
X177598917Y-82143826D01*
X177598917Y-84113274D01*
X177599017Y-84457787D01*
X177599337Y-84762220D01*
X177599909Y-85028827D01*
X177600763Y-85259860D01*
X177601931Y-85457573D01*
X177603443Y-85624219D01*
X177605330Y-85762051D01*
X177607623Y-85873322D01*
X177610354Y-85960286D01*
X177613553Y-86025196D01*
X177617251Y-86070304D01*
X177621480Y-86097864D01*
X177626269Y-86110129D01*
X177626373Y-86110236D01*
X177661238Y-86124150D01*
X177728315Y-86134884D01*
X177817593Y-86142289D01*
X177919059Y-86146217D01*
X178022700Y-86146517D01*
X178118506Y-86143042D01*
X178196463Y-86135641D01*
X178246560Y-86124166D01*
X178255084Y-86119600D01*
X178265959Y-86110018D01*
X178274878Y-86096188D01*
X178282105Y-86073980D01*
X178287901Y-86039268D01*
X178292529Y-85987922D01*
X178296252Y-85915814D01*
X178299332Y-85818816D01*
X178302032Y-85692800D01*
X178304614Y-85533636D01*
X178307341Y-85337198D01*
X178308000Y-85287516D01*
X178318584Y-84486750D01*
X180027064Y-84481333D01*
X181735544Y-84475917D01*
X181741564Y-85279338D01*
X181743503Y-85496269D01*
X181745849Y-85674220D01*
X181748739Y-85816546D01*
X181752306Y-85926599D01*
X181756686Y-86007731D01*
X181762015Y-86063297D01*
X181768427Y-86096650D01*
X181775040Y-86110255D01*
X181806667Y-86121522D01*
X181870693Y-86130843D01*
X181957213Y-86137933D01*
X182056324Y-86142508D01*
X182158125Y-86144281D01*
X182252711Y-86142968D01*
X182330180Y-86138283D01*
X182380629Y-86129942D01*
X182386492Y-86127858D01*
X182433766Y-86094012D01*
X182455611Y-86065640D01*
X182459934Y-86041271D01*
X182463663Y-85984717D01*
X182466810Y-85894901D01*
X182469382Y-85770742D01*
X182471390Y-85611164D01*
X182472842Y-85415087D01*
X182473749Y-85181432D01*
X182474120Y-84909121D01*
X182473963Y-84597075D01*
X182473289Y-84244216D01*
X182472870Y-84088895D01*
X182467250Y-82154898D01*
X182403750Y-82099118D01*
X182373539Y-82074701D01*
X182343072Y-82058654D01*
X182302890Y-82049194D01*
X182243533Y-82044535D01*
X182155540Y-82042896D01*
X182104364Y-82042669D01*
X182001219Y-82042805D01*
X181930974Y-82045175D01*
X181884197Y-82051679D01*
X181851454Y-82064215D01*
X181823315Y-82084684D01*
X181802739Y-82103409D01*
X181737000Y-82164818D01*
X181737000Y-83735584D01*
X178318584Y-83724750D01*
X178313039Y-82926969D01*
X178307494Y-82129189D01*
X178246271Y-82085594D01*
X178212904Y-82065758D01*
X178173293Y-82052942D01*
X178117777Y-82045703D01*
X178036697Y-82042595D01*
X177955483Y-82042105D01*
X177852096Y-82042913D01*
X177852096Y-82042913D01*
G37*
X177852096Y-82042913D02*
X177781293Y-82046353D01*
X177733337Y-82054115D01*
X177698490Y-82067892D01*
X177667014Y-82089376D01*
X177662417Y-82093018D01*
X177598917Y-82143826D01*
X177598917Y-84113274D01*
X177599017Y-84457787D01*
X177599337Y-84762220D01*
X177599909Y-85028827D01*
X177600763Y-85259860D01*
X177601931Y-85457573D01*
X177603443Y-85624219D01*
X177605330Y-85762051D01*
X177607623Y-85873322D01*
X177610354Y-85960286D01*
X177613553Y-86025196D01*
X177617251Y-86070304D01*
X177621480Y-86097864D01*
X177626269Y-86110129D01*
X177626373Y-86110236D01*
X177661238Y-86124150D01*
X177728315Y-86134884D01*
X177817593Y-86142289D01*
X177919059Y-86146217D01*
X178022700Y-86146517D01*
X178118506Y-86143042D01*
X178196463Y-86135641D01*
X178246560Y-86124166D01*
X178255084Y-86119600D01*
X178265959Y-86110018D01*
X178274878Y-86096188D01*
X178282105Y-86073980D01*
X178287901Y-86039268D01*
X178292529Y-85987922D01*
X178296252Y-85915814D01*
X178299332Y-85818816D01*
X178302032Y-85692800D01*
X178304614Y-85533636D01*
X178307341Y-85337198D01*
X178308000Y-85287516D01*
X178318584Y-84486750D01*
X180027064Y-84481333D01*
X181735544Y-84475917D01*
X181741564Y-85279338D01*
X181743503Y-85496269D01*
X181745849Y-85674220D01*
X181748739Y-85816546D01*
X181752306Y-85926599D01*
X181756686Y-86007731D01*
X181762015Y-86063297D01*
X181768427Y-86096650D01*
X181775040Y-86110255D01*
X181806667Y-86121522D01*
X181870693Y-86130843D01*
X181957213Y-86137933D01*
X182056324Y-86142508D01*
X182158125Y-86144281D01*
X182252711Y-86142968D01*
X182330180Y-86138283D01*
X182380629Y-86129942D01*
X182386492Y-86127858D01*
X182433766Y-86094012D01*
X182455611Y-86065640D01*
X182459934Y-86041271D01*
X182463663Y-85984717D01*
X182466810Y-85894901D01*
X182469382Y-85770742D01*
X182471390Y-85611164D01*
X182472842Y-85415087D01*
X182473749Y-85181432D01*
X182474120Y-84909121D01*
X182473963Y-84597075D01*
X182473289Y-84244216D01*
X182472870Y-84088895D01*
X182467250Y-82154898D01*
X182403750Y-82099118D01*
X182373539Y-82074701D01*
X182343072Y-82058654D01*
X182302890Y-82049194D01*
X182243533Y-82044535D01*
X182155540Y-82042896D01*
X182104364Y-82042669D01*
X182001219Y-82042805D01*
X181930974Y-82045175D01*
X181884197Y-82051679D01*
X181851454Y-82064215D01*
X181823315Y-82084684D01*
X181802739Y-82103409D01*
X181737000Y-82164818D01*
X181737000Y-83735584D01*
X178318584Y-83724750D01*
X178313039Y-82926969D01*
X178307494Y-82129189D01*
X178246271Y-82085594D01*
X178212904Y-82065758D01*
X178173293Y-82052942D01*
X178117777Y-82045703D01*
X178036697Y-82042595D01*
X177955483Y-82042105D01*
X177852096Y-82042913D01*
G36*
X164265705Y-81350845D02*
X164222500Y-81377095D01*
X164193003Y-81421484D01*
X164189449Y-81449148D01*
X164186155Y-81516150D01*
X164183120Y-81619494D01*
X164180344Y-81756186D01*
X164177827Y-81923231D01*
X164175571Y-82117634D01*
X164173574Y-82336400D01*
X164171836Y-82576534D01*
X164170359Y-82835041D01*
X164169142Y-83108927D01*
X164168185Y-83395195D01*
X164167489Y-83690852D01*
X164167053Y-83992902D01*
X164166878Y-84298351D01*
X164166963Y-84604203D01*
X164167309Y-84907464D01*
X164167917Y-85205139D01*
X164168785Y-85494232D01*
X164169915Y-85771750D01*
X164171306Y-86034696D01*
X164172959Y-86280076D01*
X164174873Y-86504895D01*
X164177049Y-86706158D01*
X164179487Y-86880871D01*
X164182187Y-87026038D01*
X164185150Y-87138664D01*
X164188374Y-87215754D01*
X164191861Y-87254314D01*
X164192751Y-87257534D01*
X164229839Y-87302540D01*
X164280577Y-87332613D01*
X164325002Y-87347525D01*
X164346237Y-87353532D01*
X164346451Y-87353492D01*
X164365031Y-87345620D01*
X164393944Y-87333845D01*
X164440862Y-87302425D01*
X164473319Y-87266977D01*
X164478154Y-87257294D01*
X164482513Y-87241357D01*
X164486420Y-87217069D01*
X164489899Y-87182333D01*
X164492975Y-87135052D01*
X164495671Y-87073129D01*
X164498014Y-86994468D01*
X164500025Y-86896971D01*
X164501731Y-86778542D01*
X164503156Y-86637084D01*
X164504322Y-86470499D01*
X164505257Y-86276691D01*
X164505982Y-86053563D01*
X164506523Y-85799018D01*
X164506905Y-85510959D01*
X164507150Y-85187290D01*
X164507285Y-84825913D01*
X164507333Y-84424732D01*
X164507334Y-84336965D01*
X164507334Y-81455515D01*
X164455428Y-81399508D01*
X164391339Y-81353642D01*
X164333720Y-81343824D01*
X164265705Y-81350845D01*
X164265705Y-81350845D01*
G37*
X164265705Y-81350845D02*
X164222500Y-81377095D01*
X164193003Y-81421484D01*
X164189449Y-81449148D01*
X164186155Y-81516150D01*
X164183120Y-81619494D01*
X164180344Y-81756186D01*
X164177827Y-81923231D01*
X164175571Y-82117634D01*
X164173574Y-82336400D01*
X164171836Y-82576534D01*
X164170359Y-82835041D01*
X164169142Y-83108927D01*
X164168185Y-83395195D01*
X164167489Y-83690852D01*
X164167053Y-83992902D01*
X164166878Y-84298351D01*
X164166963Y-84604203D01*
X164167309Y-84907464D01*
X164167917Y-85205139D01*
X164168785Y-85494232D01*
X164169915Y-85771750D01*
X164171306Y-86034696D01*
X164172959Y-86280076D01*
X164174873Y-86504895D01*
X164177049Y-86706158D01*
X164179487Y-86880871D01*
X164182187Y-87026038D01*
X164185150Y-87138664D01*
X164188374Y-87215754D01*
X164191861Y-87254314D01*
X164192751Y-87257534D01*
X164229839Y-87302540D01*
X164280577Y-87332613D01*
X164325002Y-87347525D01*
X164346237Y-87353532D01*
X164346451Y-87353492D01*
X164365031Y-87345620D01*
X164393944Y-87333845D01*
X164440862Y-87302425D01*
X164473319Y-87266977D01*
X164478154Y-87257294D01*
X164482513Y-87241357D01*
X164486420Y-87217069D01*
X164489899Y-87182333D01*
X164492975Y-87135052D01*
X164495671Y-87073129D01*
X164498014Y-86994468D01*
X164500025Y-86896971D01*
X164501731Y-86778542D01*
X164503156Y-86637084D01*
X164504322Y-86470499D01*
X164505257Y-86276691D01*
X164505982Y-86053563D01*
X164506523Y-85799018D01*
X164506905Y-85510959D01*
X164507150Y-85187290D01*
X164507285Y-84825913D01*
X164507333Y-84424732D01*
X164507334Y-84336965D01*
X164507334Y-81455515D01*
X164455428Y-81399508D01*
X164391339Y-81353642D01*
X164333720Y-81343824D01*
X164265705Y-81350845D01*
G36*
X164847257Y-81365771D02*
X164829544Y-81376450D01*
X164782500Y-81409401D01*
X164782500Y-84336503D01*
X164782522Y-84747746D01*
X164782604Y-85118747D01*
X164782772Y-85451598D01*
X164783054Y-85748389D01*
X164783474Y-86011212D01*
X164784060Y-86242159D01*
X164784836Y-86443321D01*
X164785831Y-86616789D01*
X164787069Y-86764654D01*
X164788576Y-86889008D01*
X164790380Y-86991943D01*
X164792506Y-87075549D01*
X164794980Y-87141918D01*
X164797829Y-87193141D01*
X164801079Y-87231310D01*
X164804755Y-87258516D01*
X164808885Y-87276851D01*
X164813493Y-87288405D01*
X164818608Y-87295270D01*
X164819542Y-87296133D01*
X164890603Y-87337707D01*
X164964132Y-87337605D01*
X165004267Y-87321571D01*
X165052606Y-87291698D01*
X165082748Y-87264496D01*
X165083318Y-87263636D01*
X165085238Y-87239817D01*
X165087096Y-87176112D01*
X165088880Y-87074967D01*
X165090576Y-86938831D01*
X165092170Y-86770148D01*
X165093648Y-86571367D01*
X165094997Y-86344935D01*
X165096203Y-86093298D01*
X165097252Y-85818903D01*
X165098132Y-85524197D01*
X165098827Y-85211628D01*
X165099325Y-84883642D01*
X165099612Y-84542686D01*
X165099676Y-84333292D01*
X165099714Y-83924549D01*
X165099710Y-83556022D01*
X165099636Y-83225595D01*
X165099460Y-82931151D01*
X165099153Y-82670573D01*
X165098684Y-82441744D01*
X165098023Y-82242548D01*
X165097140Y-82070868D01*
X165096005Y-81924587D01*
X165094588Y-81801587D01*
X165092858Y-81699754D01*
X165090786Y-81616968D01*
X165088341Y-81551115D01*
X165085492Y-81500076D01*
X165082211Y-81461736D01*
X165078466Y-81433977D01*
X165074228Y-81414683D01*
X165069466Y-81401736D01*
X165064150Y-81393020D01*
X165058251Y-81386419D01*
X165057667Y-81385834D01*
X164997164Y-81352182D01*
X164921081Y-81345250D01*
X164847257Y-81365771D01*
X164847257Y-81365771D01*
G37*
X164847257Y-81365771D02*
X164829544Y-81376450D01*
X164782500Y-81409401D01*
X164782500Y-84336503D01*
X164782522Y-84747746D01*
X164782604Y-85118747D01*
X164782772Y-85451598D01*
X164783054Y-85748389D01*
X164783474Y-86011212D01*
X164784060Y-86242159D01*
X164784836Y-86443321D01*
X164785831Y-86616789D01*
X164787069Y-86764654D01*
X164788576Y-86889008D01*
X164790380Y-86991943D01*
X164792506Y-87075549D01*
X164794980Y-87141918D01*
X164797829Y-87193141D01*
X164801079Y-87231310D01*
X164804755Y-87258516D01*
X164808885Y-87276851D01*
X164813493Y-87288405D01*
X164818608Y-87295270D01*
X164819542Y-87296133D01*
X164890603Y-87337707D01*
X164964132Y-87337605D01*
X165004267Y-87321571D01*
X165052606Y-87291698D01*
X165082748Y-87264496D01*
X165083318Y-87263636D01*
X165085238Y-87239817D01*
X165087096Y-87176112D01*
X165088880Y-87074967D01*
X165090576Y-86938831D01*
X165092170Y-86770148D01*
X165093648Y-86571367D01*
X165094997Y-86344935D01*
X165096203Y-86093298D01*
X165097252Y-85818903D01*
X165098132Y-85524197D01*
X165098827Y-85211628D01*
X165099325Y-84883642D01*
X165099612Y-84542686D01*
X165099676Y-84333292D01*
X165099714Y-83924549D01*
X165099710Y-83556022D01*
X165099636Y-83225595D01*
X165099460Y-82931151D01*
X165099153Y-82670573D01*
X165098684Y-82441744D01*
X165098023Y-82242548D01*
X165097140Y-82070868D01*
X165096005Y-81924587D01*
X165094588Y-81801587D01*
X165092858Y-81699754D01*
X165090786Y-81616968D01*
X165088341Y-81551115D01*
X165085492Y-81500076D01*
X165082211Y-81461736D01*
X165078466Y-81433977D01*
X165074228Y-81414683D01*
X165069466Y-81401736D01*
X165064150Y-81393020D01*
X165058251Y-81386419D01*
X165057667Y-81385834D01*
X164997164Y-81352182D01*
X164921081Y-81345250D01*
X164847257Y-81365771D01*
G36*
X165470004Y-81366450D02*
X165423105Y-81406945D01*
X165416231Y-81420922D01*
X165413955Y-81447727D01*
X165411798Y-81513871D01*
X165409763Y-81616366D01*
X165407853Y-81752224D01*
X165406073Y-81918458D01*
X165404425Y-82112081D01*
X165402913Y-82330104D01*
X165401541Y-82569541D01*
X165400312Y-82827404D01*
X165399229Y-83100704D01*
X165398296Y-83386455D01*
X165397517Y-83681669D01*
X165396894Y-83983359D01*
X165396431Y-84288536D01*
X165396132Y-84594214D01*
X165396000Y-84897405D01*
X165396039Y-85195120D01*
X165396252Y-85484374D01*
X165396642Y-85762177D01*
X165397213Y-86025543D01*
X165397969Y-86271483D01*
X165398913Y-86497011D01*
X165400047Y-86699139D01*
X165401377Y-86874879D01*
X165402905Y-87021244D01*
X165404634Y-87135246D01*
X165406569Y-87213897D01*
X165408712Y-87254210D01*
X165409482Y-87258635D01*
X165436513Y-87290523D01*
X165484473Y-87324682D01*
X165534451Y-87349077D01*
X165559324Y-87353986D01*
X165588334Y-87344130D01*
X165634358Y-87321615D01*
X165634459Y-87321560D01*
X165692667Y-87289981D01*
X165692667Y-81368030D01*
X165629167Y-81354084D01*
X165542173Y-81347736D01*
X165470004Y-81366450D01*
X165470004Y-81366450D01*
G37*
X165470004Y-81366450D02*
X165423105Y-81406945D01*
X165416231Y-81420922D01*
X165413955Y-81447727D01*
X165411798Y-81513871D01*
X165409763Y-81616366D01*
X165407853Y-81752224D01*
X165406073Y-81918458D01*
X165404425Y-82112081D01*
X165402913Y-82330104D01*
X165401541Y-82569541D01*
X165400312Y-82827404D01*
X165399229Y-83100704D01*
X165398296Y-83386455D01*
X165397517Y-83681669D01*
X165396894Y-83983359D01*
X165396431Y-84288536D01*
X165396132Y-84594214D01*
X165396000Y-84897405D01*
X165396039Y-85195120D01*
X165396252Y-85484374D01*
X165396642Y-85762177D01*
X165397213Y-86025543D01*
X165397969Y-86271483D01*
X165398913Y-86497011D01*
X165400047Y-86699139D01*
X165401377Y-86874879D01*
X165402905Y-87021244D01*
X165404634Y-87135246D01*
X165406569Y-87213897D01*
X165408712Y-87254210D01*
X165409482Y-87258635D01*
X165436513Y-87290523D01*
X165484473Y-87324682D01*
X165534451Y-87349077D01*
X165559324Y-87353986D01*
X165588334Y-87344130D01*
X165634358Y-87321615D01*
X165634459Y-87321560D01*
X165692667Y-87289981D01*
X165692667Y-81368030D01*
X165629167Y-81354084D01*
X165542173Y-81347736D01*
X165470004Y-81366450D01*
G36*
X166064357Y-81363721D02*
X166027101Y-81381598D01*
X166023069Y-81392513D01*
X166019394Y-81418068D01*
X166016056Y-81460131D01*
X166013031Y-81520571D01*
X166010298Y-81601255D01*
X166007837Y-81704052D01*
X166005624Y-81830829D01*
X166003638Y-81983454D01*
X166001859Y-82163796D01*
X166000263Y-82373722D01*
X165998830Y-82615101D01*
X165997538Y-82889799D01*
X165996365Y-83199687D01*
X165995290Y-83546630D01*
X165994290Y-83932498D01*
X165993507Y-84281431D01*
X165992863Y-84627858D01*
X165992414Y-84963321D01*
X165992153Y-85285309D01*
X165992076Y-85591313D01*
X165992179Y-85878824D01*
X165992454Y-86145332D01*
X165992898Y-86388328D01*
X165993506Y-86605301D01*
X165994272Y-86793743D01*
X165995190Y-86951143D01*
X165996257Y-87074993D01*
X165997466Y-87162782D01*
X165998813Y-87212001D01*
X165999536Y-87221359D01*
X166026399Y-87283665D01*
X166077656Y-87321901D01*
X166137671Y-87347436D01*
X166181101Y-87350112D01*
X166226579Y-87330558D01*
X166232417Y-87327130D01*
X166272777Y-87298247D01*
X166290301Y-87280750D01*
X166292684Y-87256694D01*
X166294862Y-87193258D01*
X166296839Y-87093396D01*
X166298617Y-86960061D01*
X166300198Y-86796208D01*
X166301583Y-86604789D01*
X166302777Y-86388758D01*
X166303780Y-86151069D01*
X166304595Y-85894674D01*
X166305225Y-85622528D01*
X166305671Y-85337583D01*
X166305935Y-85042794D01*
X166306021Y-84741113D01*
X166305930Y-84435494D01*
X166305665Y-84128891D01*
X166305228Y-83824258D01*
X166304621Y-83524546D01*
X166303846Y-83232711D01*
X166302906Y-82951705D01*
X166301803Y-82684482D01*
X166300539Y-82433996D01*
X166299116Y-82203199D01*
X166297538Y-81995046D01*
X166295805Y-81812489D01*
X166293920Y-81658483D01*
X166291886Y-81535980D01*
X166289705Y-81447934D01*
X166287379Y-81397299D01*
X166285782Y-81385834D01*
X166252359Y-81366023D01*
X166193624Y-81355560D01*
X166125612Y-81354705D01*
X166064357Y-81363721D01*
X166064357Y-81363721D01*
G37*
X166064357Y-81363721D02*
X166027101Y-81381598D01*
X166023069Y-81392513D01*
X166019394Y-81418068D01*
X166016056Y-81460131D01*
X166013031Y-81520571D01*
X166010298Y-81601255D01*
X166007837Y-81704052D01*
X166005624Y-81830829D01*
X166003638Y-81983454D01*
X166001859Y-82163796D01*
X166000263Y-82373722D01*
X165998830Y-82615101D01*
X165997538Y-82889799D01*
X165996365Y-83199687D01*
X165995290Y-83546630D01*
X165994290Y-83932498D01*
X165993507Y-84281431D01*
X165992863Y-84627858D01*
X165992414Y-84963321D01*
X165992153Y-85285309D01*
X165992076Y-85591313D01*
X165992179Y-85878824D01*
X165992454Y-86145332D01*
X165992898Y-86388328D01*
X165993506Y-86605301D01*
X165994272Y-86793743D01*
X165995190Y-86951143D01*
X165996257Y-87074993D01*
X165997466Y-87162782D01*
X165998813Y-87212001D01*
X165999536Y-87221359D01*
X166026399Y-87283665D01*
X166077656Y-87321901D01*
X166137671Y-87347436D01*
X166181101Y-87350112D01*
X166226579Y-87330558D01*
X166232417Y-87327130D01*
X166272777Y-87298247D01*
X166290301Y-87280750D01*
X166292684Y-87256694D01*
X166294862Y-87193258D01*
X166296839Y-87093396D01*
X166298617Y-86960061D01*
X166300198Y-86796208D01*
X166301583Y-86604789D01*
X166302777Y-86388758D01*
X166303780Y-86151069D01*
X166304595Y-85894674D01*
X166305225Y-85622528D01*
X166305671Y-85337583D01*
X166305935Y-85042794D01*
X166306021Y-84741113D01*
X166305930Y-84435494D01*
X166305665Y-84128891D01*
X166305228Y-83824258D01*
X166304621Y-83524546D01*
X166303846Y-83232711D01*
X166302906Y-82951705D01*
X166301803Y-82684482D01*
X166300539Y-82433996D01*
X166299116Y-82203199D01*
X166297538Y-81995046D01*
X166295805Y-81812489D01*
X166293920Y-81658483D01*
X166291886Y-81535980D01*
X166289705Y-81447934D01*
X166287379Y-81397299D01*
X166285782Y-81385834D01*
X166252359Y-81366023D01*
X166193624Y-81355560D01*
X166125612Y-81354705D01*
X166064357Y-81363721D01*
G36*
X166750130Y-81348054D02*
X166686964Y-81367140D01*
X166671044Y-81376450D01*
X166624000Y-81409401D01*
X166624000Y-87270789D01*
X166692792Y-87312732D01*
X166741071Y-87341356D01*
X166772215Y-87350858D01*
X166806052Y-87342751D01*
X166848374Y-87324609D01*
X166897707Y-87294755D01*
X166927150Y-87261657D01*
X166927749Y-87260206D01*
X166929402Y-87235081D01*
X166930998Y-87170094D01*
X166932525Y-87067714D01*
X166933972Y-86930413D01*
X166935328Y-86760661D01*
X166936580Y-86560929D01*
X166937717Y-86333687D01*
X166938728Y-86081406D01*
X166939600Y-85806557D01*
X166940322Y-85511610D01*
X166940883Y-85199036D01*
X166941270Y-84871305D01*
X166941472Y-84530889D01*
X166941500Y-84346044D01*
X166941486Y-83934837D01*
X166941408Y-83563856D01*
X166941217Y-83230990D01*
X166940861Y-82934132D01*
X166940289Y-82671174D01*
X166939452Y-82440006D01*
X166938297Y-82238520D01*
X166936774Y-82064607D01*
X166934833Y-81916160D01*
X166932422Y-81791069D01*
X166929491Y-81687227D01*
X166925989Y-81602523D01*
X166921865Y-81534851D01*
X166917068Y-81482101D01*
X166911548Y-81442165D01*
X166905254Y-81412934D01*
X166898134Y-81392300D01*
X166890138Y-81378155D01*
X166881216Y-81368389D01*
X166871316Y-81360894D01*
X166869540Y-81359699D01*
X166818034Y-81344979D01*
X166750130Y-81348054D01*
X166750130Y-81348054D01*
G37*
X166750130Y-81348054D02*
X166686964Y-81367140D01*
X166671044Y-81376450D01*
X166624000Y-81409401D01*
X166624000Y-87270789D01*
X166692792Y-87312732D01*
X166741071Y-87341356D01*
X166772215Y-87350858D01*
X166806052Y-87342751D01*
X166848374Y-87324609D01*
X166897707Y-87294755D01*
X166927150Y-87261657D01*
X166927749Y-87260206D01*
X166929402Y-87235081D01*
X166930998Y-87170094D01*
X166932525Y-87067714D01*
X166933972Y-86930413D01*
X166935328Y-86760661D01*
X166936580Y-86560929D01*
X166937717Y-86333687D01*
X166938728Y-86081406D01*
X166939600Y-85806557D01*
X166940322Y-85511610D01*
X166940883Y-85199036D01*
X166941270Y-84871305D01*
X166941472Y-84530889D01*
X166941500Y-84346044D01*
X166941486Y-83934837D01*
X166941408Y-83563856D01*
X166941217Y-83230990D01*
X166940861Y-82934132D01*
X166940289Y-82671174D01*
X166939452Y-82440006D01*
X166938297Y-82238520D01*
X166936774Y-82064607D01*
X166934833Y-81916160D01*
X166932422Y-81791069D01*
X166929491Y-81687227D01*
X166925989Y-81602523D01*
X166921865Y-81534851D01*
X166917068Y-81482101D01*
X166911548Y-81442165D01*
X166905254Y-81412934D01*
X166898134Y-81392300D01*
X166890138Y-81378155D01*
X166881216Y-81368389D01*
X166871316Y-81360894D01*
X166869540Y-81359699D01*
X166818034Y-81344979D01*
X166750130Y-81348054D01*
G36*
X165138395Y-87841906D02*
X164918954Y-87842854D01*
X164710923Y-87844317D01*
X164518778Y-87846298D01*
X164346999Y-87848798D01*
X164200064Y-87851820D01*
X164082450Y-87855366D01*
X163998637Y-87859439D01*
X163957000Y-87863364D01*
X163861190Y-87884839D01*
X163761474Y-87917274D01*
X163705451Y-87941249D01*
X163593352Y-88012125D01*
X163478492Y-88111111D01*
X163372683Y-88226571D01*
X163287741Y-88346870D01*
X163279979Y-88360250D01*
X163208080Y-88487250D01*
X163206832Y-88910584D01*
X163206650Y-89055695D01*
X163207484Y-89165113D01*
X163209938Y-89245473D01*
X163214620Y-89303414D01*
X163222136Y-89345571D01*
X163233092Y-89378583D01*
X163248094Y-89409087D01*
X163253209Y-89418270D01*
X163282072Y-89474868D01*
X163298989Y-89518632D01*
X163300834Y-89529216D01*
X163317029Y-89560210D01*
X163343167Y-89582246D01*
X163376232Y-89610231D01*
X163385500Y-89628125D01*
X163401175Y-89655352D01*
X163442197Y-89699376D01*
X163499560Y-89752253D01*
X163564260Y-89806038D01*
X163627291Y-89852787D01*
X163671250Y-89880210D01*
X163739630Y-89913966D01*
X163805022Y-89941250D01*
X163819417Y-89946202D01*
X163851323Y-89949830D01*
X163922528Y-89953534D01*
X164030001Y-89957255D01*
X164170707Y-89960935D01*
X164341615Y-89964514D01*
X164539690Y-89967933D01*
X164761900Y-89971132D01*
X165005212Y-89974053D01*
X165266592Y-89976636D01*
X165459834Y-89978221D01*
X167036750Y-89990084D01*
X167036750Y-90142508D01*
X167032535Y-90238550D01*
X167020461Y-90301882D01*
X167009243Y-90322425D01*
X166996541Y-90327555D01*
X166967698Y-90332159D01*
X166920368Y-90336284D01*
X166852204Y-90339982D01*
X166760857Y-90343303D01*
X166643980Y-90346296D01*
X166499227Y-90349011D01*
X166324249Y-90351498D01*
X166116700Y-90353808D01*
X165874232Y-90355990D01*
X165594498Y-90358094D01*
X165275151Y-90360170D01*
X165220659Y-90360500D01*
X164950665Y-90362331D01*
X164692433Y-90364488D01*
X164449156Y-90366921D01*
X164224028Y-90369577D01*
X164020242Y-90372408D01*
X163840991Y-90375361D01*
X163689467Y-90378387D01*
X163568866Y-90381435D01*
X163482378Y-90384454D01*
X163433199Y-90387393D01*
X163423062Y-90389024D01*
X163376552Y-90429614D01*
X163344912Y-90500429D01*
X163327091Y-90605044D01*
X163322000Y-90733603D01*
X163324119Y-90839101D01*
X163331878Y-90915684D01*
X163347386Y-90976623D01*
X163368552Y-91026684D01*
X163415103Y-91122500D01*
X165252385Y-91122500D01*
X165527221Y-91122300D01*
X165789608Y-91121720D01*
X166036505Y-91120789D01*
X166264869Y-91119537D01*
X166471659Y-91117993D01*
X166653834Y-91116186D01*
X166808352Y-91114146D01*
X166932170Y-91111903D01*
X167022248Y-91109486D01*
X167075544Y-91106923D01*
X167089667Y-91104721D01*
X167107911Y-91088217D01*
X167153963Y-91067235D01*
X167179625Y-91058332D01*
X167322515Y-90993263D01*
X167459010Y-90894823D01*
X167579452Y-90771851D01*
X167674183Y-90633182D01*
X167699398Y-90582750D01*
X167721050Y-90533150D01*
X167738868Y-90486113D01*
X167753225Y-90437023D01*
X167764492Y-90381269D01*
X167773043Y-90314236D01*
X167779250Y-90231311D01*
X167783486Y-90127879D01*
X167786122Y-89999329D01*
X167787531Y-89841045D01*
X167788087Y-89648414D01*
X167788167Y-89483220D01*
X167787942Y-89265054D01*
X167787829Y-89238667D01*
X167050614Y-89238667D01*
X164018470Y-89238667D01*
X163967237Y-89180459D01*
X163943750Y-89150257D01*
X163928716Y-89117396D01*
X163920233Y-89071868D01*
X163916403Y-89003665D01*
X163915336Y-88907173D01*
X163915439Y-88809831D01*
X163918006Y-88745191D01*
X163925340Y-88703623D01*
X163939739Y-88675497D01*
X163963504Y-88651182D01*
X163979791Y-88637298D01*
X164044915Y-88582500D01*
X165487916Y-88582971D01*
X165770411Y-88583101D01*
X166013642Y-88583349D01*
X166220675Y-88583799D01*
X166394580Y-88584535D01*
X166538425Y-88585643D01*
X166655278Y-88587206D01*
X166748208Y-88589307D01*
X166820282Y-88592033D01*
X166874569Y-88595466D01*
X166914138Y-88599692D01*
X166942056Y-88604793D01*
X166961393Y-88610856D01*
X166975215Y-88617963D01*
X166983834Y-88624049D01*
X167005129Y-88642231D01*
X167020010Y-88663538D01*
X167029866Y-88695589D01*
X167036091Y-88746003D01*
X167040076Y-88822397D01*
X167043213Y-88932390D01*
X167043682Y-88951661D01*
X167050614Y-89238667D01*
X167787829Y-89238667D01*
X167787165Y-89084943D01*
X167785684Y-88938613D01*
X167783347Y-88821786D01*
X167780004Y-88730188D01*
X167775501Y-88659542D01*
X167769688Y-88605572D01*
X167762412Y-88564003D01*
X167754457Y-88533561D01*
X167721098Y-88428829D01*
X167695869Y-88359803D01*
X167676511Y-88321153D01*
X167660765Y-88307544D01*
X167658599Y-88307334D01*
X167641401Y-88290510D01*
X167640000Y-88280211D01*
X167625861Y-88253751D01*
X167588763Y-88207119D01*
X167536683Y-88149041D01*
X167477600Y-88088239D01*
X167419491Y-88033440D01*
X167395476Y-88012807D01*
X167314218Y-87961267D01*
X167206232Y-87914185D01*
X167087088Y-87877769D01*
X167024433Y-87864865D01*
X166975062Y-87860289D01*
X166887839Y-87856204D01*
X166767242Y-87852613D01*
X166617749Y-87849517D01*
X166443839Y-87846919D01*
X166249989Y-87844821D01*
X166040679Y-87843225D01*
X165820386Y-87842133D01*
X165593589Y-87841548D01*
X165364766Y-87841472D01*
X165138395Y-87841906D01*
X165138395Y-87841906D01*
G37*
X165138395Y-87841906D02*
X164918954Y-87842854D01*
X164710923Y-87844317D01*
X164518778Y-87846298D01*
X164346999Y-87848798D01*
X164200064Y-87851820D01*
X164082450Y-87855366D01*
X163998637Y-87859439D01*
X163957000Y-87863364D01*
X163861190Y-87884839D01*
X163761474Y-87917274D01*
X163705451Y-87941249D01*
X163593352Y-88012125D01*
X163478492Y-88111111D01*
X163372683Y-88226571D01*
X163287741Y-88346870D01*
X163279979Y-88360250D01*
X163208080Y-88487250D01*
X163206832Y-88910584D01*
X163206650Y-89055695D01*
X163207484Y-89165113D01*
X163209938Y-89245473D01*
X163214620Y-89303414D01*
X163222136Y-89345571D01*
X163233092Y-89378583D01*
X163248094Y-89409087D01*
X163253209Y-89418270D01*
X163282072Y-89474868D01*
X163298989Y-89518632D01*
X163300834Y-89529216D01*
X163317029Y-89560210D01*
X163343167Y-89582246D01*
X163376232Y-89610231D01*
X163385500Y-89628125D01*
X163401175Y-89655352D01*
X163442197Y-89699376D01*
X163499560Y-89752253D01*
X163564260Y-89806038D01*
X163627291Y-89852787D01*
X163671250Y-89880210D01*
X163739630Y-89913966D01*
X163805022Y-89941250D01*
X163819417Y-89946202D01*
X163851323Y-89949830D01*
X163922528Y-89953534D01*
X164030001Y-89957255D01*
X164170707Y-89960935D01*
X164341615Y-89964514D01*
X164539690Y-89967933D01*
X164761900Y-89971132D01*
X165005212Y-89974053D01*
X165266592Y-89976636D01*
X165459834Y-89978221D01*
X167036750Y-89990084D01*
X167036750Y-90142508D01*
X167032535Y-90238550D01*
X167020461Y-90301882D01*
X167009243Y-90322425D01*
X166996541Y-90327555D01*
X166967698Y-90332159D01*
X166920368Y-90336284D01*
X166852204Y-90339982D01*
X166760857Y-90343303D01*
X166643980Y-90346296D01*
X166499227Y-90349011D01*
X166324249Y-90351498D01*
X166116700Y-90353808D01*
X165874232Y-90355990D01*
X165594498Y-90358094D01*
X165275151Y-90360170D01*
X165220659Y-90360500D01*
X164950665Y-90362331D01*
X164692433Y-90364488D01*
X164449156Y-90366921D01*
X164224028Y-90369577D01*
X164020242Y-90372408D01*
X163840991Y-90375361D01*
X163689467Y-90378387D01*
X163568866Y-90381435D01*
X163482378Y-90384454D01*
X163433199Y-90387393D01*
X163423062Y-90389024D01*
X163376552Y-90429614D01*
X163344912Y-90500429D01*
X163327091Y-90605044D01*
X163322000Y-90733603D01*
X163324119Y-90839101D01*
X163331878Y-90915684D01*
X163347386Y-90976623D01*
X163368552Y-91026684D01*
X163415103Y-91122500D01*
X165252385Y-91122500D01*
X165527221Y-91122300D01*
X165789608Y-91121720D01*
X166036505Y-91120789D01*
X166264869Y-91119537D01*
X166471659Y-91117993D01*
X166653834Y-91116186D01*
X166808352Y-91114146D01*
X166932170Y-91111903D01*
X167022248Y-91109486D01*
X167075544Y-91106923D01*
X167089667Y-91104721D01*
X167107911Y-91088217D01*
X167153963Y-91067235D01*
X167179625Y-91058332D01*
X167322515Y-90993263D01*
X167459010Y-90894823D01*
X167579452Y-90771851D01*
X167674183Y-90633182D01*
X167699398Y-90582750D01*
X167721050Y-90533150D01*
X167738868Y-90486113D01*
X167753225Y-90437023D01*
X167764492Y-90381269D01*
X167773043Y-90314236D01*
X167779250Y-90231311D01*
X167783486Y-90127879D01*
X167786122Y-89999329D01*
X167787531Y-89841045D01*
X167788087Y-89648414D01*
X167788167Y-89483220D01*
X167787942Y-89265054D01*
X167787829Y-89238667D01*
X167050614Y-89238667D01*
X164018470Y-89238667D01*
X163967237Y-89180459D01*
X163943750Y-89150257D01*
X163928716Y-89117396D01*
X163920233Y-89071868D01*
X163916403Y-89003665D01*
X163915336Y-88907173D01*
X163915439Y-88809831D01*
X163918006Y-88745191D01*
X163925340Y-88703623D01*
X163939739Y-88675497D01*
X163963504Y-88651182D01*
X163979791Y-88637298D01*
X164044915Y-88582500D01*
X165487916Y-88582971D01*
X165770411Y-88583101D01*
X166013642Y-88583349D01*
X166220675Y-88583799D01*
X166394580Y-88584535D01*
X166538425Y-88585643D01*
X166655278Y-88587206D01*
X166748208Y-88589307D01*
X166820282Y-88592033D01*
X166874569Y-88595466D01*
X166914138Y-88599692D01*
X166942056Y-88604793D01*
X166961393Y-88610856D01*
X166975215Y-88617963D01*
X166983834Y-88624049D01*
X167005129Y-88642231D01*
X167020010Y-88663538D01*
X167029866Y-88695589D01*
X167036091Y-88746003D01*
X167040076Y-88822397D01*
X167043213Y-88932390D01*
X167043682Y-88951661D01*
X167050614Y-89238667D01*
X167787829Y-89238667D01*
X167787165Y-89084943D01*
X167785684Y-88938613D01*
X167783347Y-88821786D01*
X167780004Y-88730188D01*
X167775501Y-88659542D01*
X167769688Y-88605572D01*
X167762412Y-88564003D01*
X167754457Y-88533561D01*
X167721098Y-88428829D01*
X167695869Y-88359803D01*
X167676511Y-88321153D01*
X167660765Y-88307544D01*
X167658599Y-88307334D01*
X167641401Y-88290510D01*
X167640000Y-88280211D01*
X167625861Y-88253751D01*
X167588763Y-88207119D01*
X167536683Y-88149041D01*
X167477600Y-88088239D01*
X167419491Y-88033440D01*
X167395476Y-88012807D01*
X167314218Y-87961267D01*
X167206232Y-87914185D01*
X167087088Y-87877769D01*
X167024433Y-87864865D01*
X166975062Y-87860289D01*
X166887839Y-87856204D01*
X166767242Y-87852613D01*
X166617749Y-87849517D01*
X166443839Y-87846919D01*
X166249989Y-87844821D01*
X166040679Y-87843225D01*
X165820386Y-87842133D01*
X165593589Y-87841548D01*
X165364766Y-87841472D01*
X165138395Y-87841906D01*
G36*
X171901800Y-87016802D02*
X171823082Y-87019433D01*
X171770693Y-87025150D01*
X171736636Y-87035041D01*
X171712914Y-87050195D01*
X171704000Y-87058500D01*
X171693168Y-87070795D01*
X171684358Y-87086635D01*
X171677364Y-87110198D01*
X171671975Y-87145661D01*
X171667984Y-87197201D01*
X171665180Y-87268995D01*
X171663356Y-87365222D01*
X171662303Y-87490058D01*
X171661811Y-87647680D01*
X171661671Y-87842266D01*
X171661667Y-87905167D01*
X171661195Y-88087708D01*
X171659849Y-88255101D01*
X171657730Y-88402900D01*
X171654942Y-88526659D01*
X171651586Y-88621931D01*
X171647767Y-88684270D01*
X171643586Y-88709228D01*
X171643092Y-88709500D01*
X171615507Y-88695019D01*
X171598167Y-88677750D01*
X171562681Y-88650880D01*
X171543698Y-88646000D01*
X171513630Y-88637392D01*
X171455001Y-88614180D01*
X171377315Y-88580282D01*
X171318748Y-88553265D01*
X171154777Y-88476266D01*
X171025141Y-88416022D01*
X170926062Y-88370864D01*
X170853762Y-88339119D01*
X170804465Y-88319117D01*
X170774392Y-88309187D01*
X170762789Y-88307334D01*
X170727266Y-88292487D01*
X170709632Y-88276144D01*
X170671668Y-88250762D01*
X170615307Y-88232134D01*
X170612544Y-88231596D01*
X170556839Y-88214517D01*
X170519110Y-88191374D01*
X170517959Y-88190063D01*
X170481661Y-88165843D01*
X170427246Y-88147186D01*
X170361399Y-88123560D01*
X170309438Y-88092908D01*
X170263148Y-88064267D01*
X170227653Y-88053334D01*
X170189692Y-88044097D01*
X170134454Y-88021164D01*
X170119382Y-88013690D01*
X169979286Y-87944089D01*
X169866588Y-87894315D01*
X169773211Y-87861094D01*
X169695570Y-87841986D01*
X169644937Y-87836428D01*
X169558578Y-87831404D01*
X169443097Y-87827107D01*
X169305100Y-87823732D01*
X169151192Y-87821471D01*
X168987978Y-87820518D01*
X168962373Y-87820500D01*
X168782439Y-87820698D01*
X168640015Y-87821471D01*
X168530275Y-87823091D01*
X168448398Y-87825827D01*
X168389559Y-87829951D01*
X168348936Y-87835731D01*
X168321705Y-87843440D01*
X168303043Y-87853348D01*
X168297123Y-87857803D01*
X168265947Y-87891577D01*
X168265200Y-87929451D01*
X168273232Y-87953433D01*
X168310073Y-88005113D01*
X168353996Y-88033836D01*
X168405757Y-88055077D01*
X168477116Y-88086443D01*
X168529000Y-88110185D01*
X168611319Y-88148159D01*
X168694641Y-88185974D01*
X168735375Y-88204146D01*
X168815852Y-88239911D01*
X168900063Y-88277707D01*
X168915292Y-88284594D01*
X168987906Y-88316162D01*
X169057945Y-88344575D01*
X169074042Y-88350662D01*
X169120075Y-88372404D01*
X169142430Y-88392404D01*
X169142834Y-88394568D01*
X169160102Y-88410893D01*
X169175895Y-88413167D01*
X169211831Y-88421573D01*
X169271645Y-88443402D01*
X169329353Y-88468118D01*
X169419935Y-88509494D01*
X169517896Y-88554288D01*
X169566167Y-88576382D01*
X169631518Y-88606014D01*
X169723395Y-88647285D01*
X169829600Y-88694732D01*
X169937935Y-88742891D01*
X169937938Y-88742893D01*
X170039483Y-88788273D01*
X170132234Y-88830387D01*
X170206526Y-88864801D01*
X170252698Y-88887086D01*
X170255438Y-88888499D01*
X170309170Y-88911331D01*
X170351731Y-88921034D01*
X170352034Y-88921036D01*
X170394396Y-88936309D01*
X170411705Y-88951556D01*
X170449489Y-88977432D01*
X170504255Y-88996648D01*
X170570102Y-89020274D01*
X170622063Y-89050925D01*
X170668353Y-89079567D01*
X170703848Y-89090500D01*
X170741952Y-89099566D01*
X170797375Y-89122061D01*
X170812119Y-89129204D01*
X170922016Y-89182498D01*
X171033838Y-89233411D01*
X171130117Y-89274052D01*
X171149242Y-89281505D01*
X171235223Y-89324219D01*
X171295054Y-89374517D01*
X171321607Y-89426035D01*
X171322296Y-89435995D01*
X171302016Y-89500716D01*
X171250710Y-89554993D01*
X171180262Y-89586725D01*
X171125504Y-89606253D01*
X171089038Y-89631611D01*
X171051692Y-89657802D01*
X171032249Y-89662000D01*
X170994356Y-89671532D01*
X170939336Y-89695227D01*
X170923716Y-89703279D01*
X170865203Y-89732994D01*
X170785082Y-89771590D01*
X170700464Y-89810828D01*
X170698584Y-89811681D01*
X170611448Y-89851494D01*
X170503987Y-89901082D01*
X170394158Y-89952145D01*
X170349334Y-89973118D01*
X170249642Y-90019759D01*
X170149630Y-90066354D01*
X170064660Y-90105753D01*
X170031834Y-90120880D01*
X169952690Y-90158064D01*
X169875878Y-90195502D01*
X169838452Y-90214498D01*
X169782115Y-90240156D01*
X169737907Y-90253924D01*
X169730566Y-90254667D01*
X169693265Y-90267704D01*
X169650834Y-90297000D01*
X169606637Y-90327448D01*
X169572414Y-90339334D01*
X169535878Y-90348657D01*
X169481334Y-90371878D01*
X169464527Y-90380350D01*
X169399732Y-90412820D01*
X169318744Y-90451461D01*
X169269834Y-90473968D01*
X169198600Y-90506504D01*
X169104429Y-90549992D01*
X169002675Y-90597327D01*
X168952334Y-90620883D01*
X168847197Y-90669983D01*
X168736459Y-90721356D01*
X168638081Y-90766681D01*
X168603084Y-90782679D01*
X168517132Y-90821996D01*
X168433692Y-90860445D01*
X168370701Y-90889760D01*
X168370250Y-90889971D01*
X168309114Y-90917305D01*
X168259128Y-90937278D01*
X168248542Y-90940809D01*
X168222605Y-90962107D01*
X168212168Y-91011559D01*
X168211500Y-91037169D01*
X168211500Y-91122500D01*
X168973500Y-91122500D01*
X169201562Y-91121950D01*
X169388084Y-91120283D01*
X169533846Y-91117478D01*
X169639628Y-91113511D01*
X169706210Y-91108359D01*
X169734372Y-91102000D01*
X169735500Y-91100253D01*
X169753262Y-91079014D01*
X169797586Y-91053186D01*
X169814875Y-91045590D01*
X169875012Y-91020196D01*
X169950380Y-90986722D01*
X170046476Y-90942645D01*
X170168793Y-90885438D01*
X170322827Y-90812577D01*
X170349334Y-90799986D01*
X170489915Y-90733417D01*
X170638449Y-90663484D01*
X170781913Y-90596295D01*
X170907286Y-90537955D01*
X170963167Y-90512149D01*
X171015296Y-90486450D01*
X171047834Y-90468447D01*
X171077479Y-90452772D01*
X171137711Y-90422656D01*
X171220899Y-90381856D01*
X171319410Y-90334133D01*
X171365334Y-90312058D01*
X171651084Y-90175030D01*
X171661758Y-90611723D01*
X171665832Y-90745427D01*
X171671031Y-90866240D01*
X171676935Y-90967201D01*
X171683121Y-91041345D01*
X171689167Y-91081710D01*
X171690481Y-91085459D01*
X171701955Y-91100156D01*
X171724111Y-91110411D01*
X171763664Y-91116995D01*
X171827327Y-91120684D01*
X171921814Y-91122251D01*
X172011755Y-91122500D01*
X172130982Y-91122143D01*
X172214605Y-91120473D01*
X172269350Y-91116589D01*
X172301945Y-91109594D01*
X172319118Y-91098586D01*
X172327595Y-91082668D01*
X172328417Y-91080167D01*
X172347420Y-91045959D01*
X172361594Y-91037834D01*
X172364949Y-91016957D01*
X172368042Y-90955486D01*
X172370858Y-90855159D01*
X172373377Y-90717715D01*
X172375583Y-90544892D01*
X172377458Y-90338427D01*
X172378985Y-90100061D01*
X172380145Y-89831530D01*
X172380923Y-89534574D01*
X172381299Y-89210930D01*
X172381334Y-89073023D01*
X172381334Y-87108213D01*
X172332345Y-87062190D01*
X172308666Y-87043013D01*
X172280415Y-87030030D01*
X172239370Y-87022051D01*
X172177309Y-87017883D01*
X172086010Y-87016335D01*
X172014845Y-87016167D01*
X171901800Y-87016802D01*
X171901800Y-87016802D01*
G37*
X171901800Y-87016802D02*
X171823082Y-87019433D01*
X171770693Y-87025150D01*
X171736636Y-87035041D01*
X171712914Y-87050195D01*
X171704000Y-87058500D01*
X171693168Y-87070795D01*
X171684358Y-87086635D01*
X171677364Y-87110198D01*
X171671975Y-87145661D01*
X171667984Y-87197201D01*
X171665180Y-87268995D01*
X171663356Y-87365222D01*
X171662303Y-87490058D01*
X171661811Y-87647680D01*
X171661671Y-87842266D01*
X171661667Y-87905167D01*
X171661195Y-88087708D01*
X171659849Y-88255101D01*
X171657730Y-88402900D01*
X171654942Y-88526659D01*
X171651586Y-88621931D01*
X171647767Y-88684270D01*
X171643586Y-88709228D01*
X171643092Y-88709500D01*
X171615507Y-88695019D01*
X171598167Y-88677750D01*
X171562681Y-88650880D01*
X171543698Y-88646000D01*
X171513630Y-88637392D01*
X171455001Y-88614180D01*
X171377315Y-88580282D01*
X171318748Y-88553265D01*
X171154777Y-88476266D01*
X171025141Y-88416022D01*
X170926062Y-88370864D01*
X170853762Y-88339119D01*
X170804465Y-88319117D01*
X170774392Y-88309187D01*
X170762789Y-88307334D01*
X170727266Y-88292487D01*
X170709632Y-88276144D01*
X170671668Y-88250762D01*
X170615307Y-88232134D01*
X170612544Y-88231596D01*
X170556839Y-88214517D01*
X170519110Y-88191374D01*
X170517959Y-88190063D01*
X170481661Y-88165843D01*
X170427246Y-88147186D01*
X170361399Y-88123560D01*
X170309438Y-88092908D01*
X170263148Y-88064267D01*
X170227653Y-88053334D01*
X170189692Y-88044097D01*
X170134454Y-88021164D01*
X170119382Y-88013690D01*
X169979286Y-87944089D01*
X169866588Y-87894315D01*
X169773211Y-87861094D01*
X169695570Y-87841986D01*
X169644937Y-87836428D01*
X169558578Y-87831404D01*
X169443097Y-87827107D01*
X169305100Y-87823732D01*
X169151192Y-87821471D01*
X168987978Y-87820518D01*
X168962373Y-87820500D01*
X168782439Y-87820698D01*
X168640015Y-87821471D01*
X168530275Y-87823091D01*
X168448398Y-87825827D01*
X168389559Y-87829951D01*
X168348936Y-87835731D01*
X168321705Y-87843440D01*
X168303043Y-87853348D01*
X168297123Y-87857803D01*
X168265947Y-87891577D01*
X168265200Y-87929451D01*
X168273232Y-87953433D01*
X168310073Y-88005113D01*
X168353996Y-88033836D01*
X168405757Y-88055077D01*
X168477116Y-88086443D01*
X168529000Y-88110185D01*
X168611319Y-88148159D01*
X168694641Y-88185974D01*
X168735375Y-88204146D01*
X168815852Y-88239911D01*
X168900063Y-88277707D01*
X168915292Y-88284594D01*
X168987906Y-88316162D01*
X169057945Y-88344575D01*
X169074042Y-88350662D01*
X169120075Y-88372404D01*
X169142430Y-88392404D01*
X169142834Y-88394568D01*
X169160102Y-88410893D01*
X169175895Y-88413167D01*
X169211831Y-88421573D01*
X169271645Y-88443402D01*
X169329353Y-88468118D01*
X169419935Y-88509494D01*
X169517896Y-88554288D01*
X169566167Y-88576382D01*
X169631518Y-88606014D01*
X169723395Y-88647285D01*
X169829600Y-88694732D01*
X169937935Y-88742891D01*
X169937938Y-88742893D01*
X170039483Y-88788273D01*
X170132234Y-88830387D01*
X170206526Y-88864801D01*
X170252698Y-88887086D01*
X170255438Y-88888499D01*
X170309170Y-88911331D01*
X170351731Y-88921034D01*
X170352034Y-88921036D01*
X170394396Y-88936309D01*
X170411705Y-88951556D01*
X170449489Y-88977432D01*
X170504255Y-88996648D01*
X170570102Y-89020274D01*
X170622063Y-89050925D01*
X170668353Y-89079567D01*
X170703848Y-89090500D01*
X170741952Y-89099566D01*
X170797375Y-89122061D01*
X170812119Y-89129204D01*
X170922016Y-89182498D01*
X171033838Y-89233411D01*
X171130117Y-89274052D01*
X171149242Y-89281505D01*
X171235223Y-89324219D01*
X171295054Y-89374517D01*
X171321607Y-89426035D01*
X171322296Y-89435995D01*
X171302016Y-89500716D01*
X171250710Y-89554993D01*
X171180262Y-89586725D01*
X171125504Y-89606253D01*
X171089038Y-89631611D01*
X171051692Y-89657802D01*
X171032249Y-89662000D01*
X170994356Y-89671532D01*
X170939336Y-89695227D01*
X170923716Y-89703279D01*
X170865203Y-89732994D01*
X170785082Y-89771590D01*
X170700464Y-89810828D01*
X170698584Y-89811681D01*
X170611448Y-89851494D01*
X170503987Y-89901082D01*
X170394158Y-89952145D01*
X170349334Y-89973118D01*
X170249642Y-90019759D01*
X170149630Y-90066354D01*
X170064660Y-90105753D01*
X170031834Y-90120880D01*
X169952690Y-90158064D01*
X169875878Y-90195502D01*
X169838452Y-90214498D01*
X169782115Y-90240156D01*
X169737907Y-90253924D01*
X169730566Y-90254667D01*
X169693265Y-90267704D01*
X169650834Y-90297000D01*
X169606637Y-90327448D01*
X169572414Y-90339334D01*
X169535878Y-90348657D01*
X169481334Y-90371878D01*
X169464527Y-90380350D01*
X169399732Y-90412820D01*
X169318744Y-90451461D01*
X169269834Y-90473968D01*
X169198600Y-90506504D01*
X169104429Y-90549992D01*
X169002675Y-90597327D01*
X168952334Y-90620883D01*
X168847197Y-90669983D01*
X168736459Y-90721356D01*
X168638081Y-90766681D01*
X168603084Y-90782679D01*
X168517132Y-90821996D01*
X168433692Y-90860445D01*
X168370701Y-90889760D01*
X168370250Y-90889971D01*
X168309114Y-90917305D01*
X168259128Y-90937278D01*
X168248542Y-90940809D01*
X168222605Y-90962107D01*
X168212168Y-91011559D01*
X168211500Y-91037169D01*
X168211500Y-91122500D01*
X168973500Y-91122500D01*
X169201562Y-91121950D01*
X169388084Y-91120283D01*
X169533846Y-91117478D01*
X169639628Y-91113511D01*
X169706210Y-91108359D01*
X169734372Y-91102000D01*
X169735500Y-91100253D01*
X169753262Y-91079014D01*
X169797586Y-91053186D01*
X169814875Y-91045590D01*
X169875012Y-91020196D01*
X169950380Y-90986722D01*
X170046476Y-90942645D01*
X170168793Y-90885438D01*
X170322827Y-90812577D01*
X170349334Y-90799986D01*
X170489915Y-90733417D01*
X170638449Y-90663484D01*
X170781913Y-90596295D01*
X170907286Y-90537955D01*
X170963167Y-90512149D01*
X171015296Y-90486450D01*
X171047834Y-90468447D01*
X171077479Y-90452772D01*
X171137711Y-90422656D01*
X171220899Y-90381856D01*
X171319410Y-90334133D01*
X171365334Y-90312058D01*
X171651084Y-90175030D01*
X171661758Y-90611723D01*
X171665832Y-90745427D01*
X171671031Y-90866240D01*
X171676935Y-90967201D01*
X171683121Y-91041345D01*
X171689167Y-91081710D01*
X171690481Y-91085459D01*
X171701955Y-91100156D01*
X171724111Y-91110411D01*
X171763664Y-91116995D01*
X171827327Y-91120684D01*
X171921814Y-91122251D01*
X172011755Y-91122500D01*
X172130982Y-91122143D01*
X172214605Y-91120473D01*
X172269350Y-91116589D01*
X172301945Y-91109594D01*
X172319118Y-91098586D01*
X172327595Y-91082668D01*
X172328417Y-91080167D01*
X172347420Y-91045959D01*
X172361594Y-91037834D01*
X172364949Y-91016957D01*
X172368042Y-90955486D01*
X172370858Y-90855159D01*
X172373377Y-90717715D01*
X172375583Y-90544892D01*
X172377458Y-90338427D01*
X172378985Y-90100061D01*
X172380145Y-89831530D01*
X172380923Y-89534574D01*
X172381299Y-89210930D01*
X172381334Y-89073023D01*
X172381334Y-87108213D01*
X172332345Y-87062190D01*
X172308666Y-87043013D01*
X172280415Y-87030030D01*
X172239370Y-87022051D01*
X172177309Y-87017883D01*
X172086010Y-87016335D01*
X172014845Y-87016167D01*
X171901800Y-87016802D01*
G36*
X175513210Y-87841175D02*
X175270716Y-87841701D01*
X175035600Y-87842621D01*
X174811687Y-87843937D01*
X174602800Y-87845652D01*
X174412764Y-87847766D01*
X174245401Y-87850282D01*
X174104537Y-87853201D01*
X173993994Y-87856524D01*
X173917598Y-87860254D01*
X173884167Y-87863448D01*
X173801521Y-87881454D01*
X173713002Y-87908727D01*
X173631456Y-87940446D01*
X173569728Y-87971788D01*
X173545500Y-87990568D01*
X173522695Y-88009377D01*
X173479314Y-88041210D01*
X173466409Y-88050301D01*
X173389232Y-88119061D01*
X173309518Y-88214756D01*
X173236941Y-88323789D01*
X173181180Y-88432563D01*
X173165864Y-88472619D01*
X173154987Y-88506851D01*
X173146079Y-88541704D01*
X173138944Y-88581616D01*
X173133387Y-88631028D01*
X173129214Y-88694380D01*
X173126230Y-88776110D01*
X173124240Y-88880660D01*
X173123049Y-89012467D01*
X173122462Y-89175972D01*
X173122285Y-89375614D01*
X173122285Y-89465541D01*
X173122457Y-89696329D01*
X173123262Y-89889222D01*
X173125236Y-90048657D01*
X173128915Y-90179073D01*
X173134834Y-90284906D01*
X173143530Y-90370596D01*
X173155539Y-90440578D01*
X173171397Y-90499293D01*
X173191640Y-90551177D01*
X173216804Y-90600667D01*
X173247425Y-90652203D01*
X173269936Y-90687998D01*
X173324055Y-90760925D01*
X173393778Y-90837455D01*
X173470949Y-90910479D01*
X173547410Y-90972890D01*
X173615004Y-91017578D01*
X173665574Y-91037435D01*
X173671403Y-91037834D01*
X173701862Y-91047477D01*
X173751853Y-91071488D01*
X173767750Y-91080167D01*
X173782882Y-91088101D01*
X173800020Y-91094973D01*
X173822130Y-91100856D01*
X173852176Y-91105822D01*
X173893124Y-91109944D01*
X173947937Y-91113296D01*
X174019582Y-91115950D01*
X174111023Y-91117979D01*
X174225224Y-91119457D01*
X174365151Y-91120456D01*
X174533768Y-91121049D01*
X174734040Y-91121310D01*
X174968932Y-91121310D01*
X175241409Y-91121124D01*
X175424686Y-91120953D01*
X175721725Y-91120621D01*
X175979369Y-91120199D01*
X176200554Y-91119613D01*
X176388218Y-91118791D01*
X176545299Y-91117660D01*
X176674734Y-91116147D01*
X176779461Y-91114179D01*
X176862417Y-91111684D01*
X176926540Y-91108588D01*
X176974766Y-91104819D01*
X177010035Y-91100304D01*
X177035283Y-91094970D01*
X177053447Y-91088744D01*
X177067466Y-91081554D01*
X177069750Y-91080167D01*
X177120045Y-91053119D01*
X177157772Y-91039635D01*
X177160163Y-91039381D01*
X177212602Y-91021655D01*
X177282805Y-90977827D01*
X177362154Y-90914903D01*
X177442033Y-90839889D01*
X177513824Y-90759793D01*
X177530931Y-90737902D01*
X177598057Y-90640893D01*
X177647738Y-90547081D01*
X177681986Y-90447968D01*
X177702815Y-90335052D01*
X177712236Y-90199834D01*
X177712258Y-90059871D01*
X176994963Y-90059871D01*
X176990046Y-90174142D01*
X176974520Y-90254086D01*
X176945693Y-90306967D01*
X176900870Y-90340044D01*
X176889099Y-90345183D01*
X176863207Y-90347209D01*
X176798488Y-90349023D01*
X176698445Y-90350606D01*
X176566585Y-90351936D01*
X176406411Y-90352993D01*
X176221430Y-90353759D01*
X176015147Y-90354212D01*
X175791065Y-90354332D01*
X175552691Y-90354100D01*
X175394672Y-90353758D01*
X173931260Y-90349917D01*
X173886881Y-90297000D01*
X173868311Y-90271359D01*
X173856025Y-90241434D01*
X173848979Y-90198803D01*
X173846127Y-90135043D01*
X173846423Y-90041732D01*
X173847460Y-89979500D01*
X173852417Y-89714917D01*
X175334084Y-89709332D01*
X175622055Y-89708309D01*
X175870726Y-89707607D01*
X176083130Y-89707285D01*
X176262300Y-89707402D01*
X176411268Y-89708018D01*
X176533068Y-89709194D01*
X176630732Y-89710987D01*
X176707293Y-89713459D01*
X176765784Y-89716667D01*
X176809238Y-89720673D01*
X176840686Y-89725535D01*
X176863163Y-89731313D01*
X176879701Y-89738067D01*
X176882946Y-89739744D01*
X176932607Y-89773750D01*
X176965645Y-89818235D01*
X176985019Y-89881658D01*
X176993689Y-89972476D01*
X176994963Y-90059871D01*
X177712258Y-90059871D01*
X177712263Y-90033815D01*
X177710787Y-89978272D01*
X177705734Y-89848150D01*
X177698991Y-89750883D01*
X177689273Y-89676998D01*
X177675299Y-89617018D01*
X177655786Y-89561468D01*
X177653644Y-89556189D01*
X177581871Y-89419050D01*
X177478716Y-89284955D01*
X177339750Y-89148364D01*
X177301003Y-89114954D01*
X177270001Y-89095380D01*
X177215074Y-89065919D01*
X177174003Y-89045507D01*
X177069750Y-88995250D01*
X175461084Y-88984667D01*
X173852417Y-88974084D01*
X173846228Y-88846129D01*
X173845091Y-88769566D01*
X173853523Y-88718960D01*
X173875519Y-88678306D01*
X173893778Y-88655629D01*
X173947516Y-88593084D01*
X175782806Y-88587444D01*
X177618095Y-88581805D01*
X177666714Y-88536130D01*
X177687079Y-88514332D01*
X177700803Y-88488762D01*
X177709187Y-88451174D01*
X177713532Y-88393326D01*
X177715140Y-88306972D01*
X177715334Y-88228169D01*
X177713717Y-88123839D01*
X177709311Y-88032484D01*
X177702785Y-87963814D01*
X177694807Y-87927540D01*
X177694614Y-87927168D01*
X177660832Y-87893354D01*
X177608100Y-87865523D01*
X177606789Y-87865060D01*
X177574013Y-87860977D01*
X177502728Y-87857269D01*
X177396760Y-87853938D01*
X177259932Y-87850985D01*
X177096068Y-87848412D01*
X176908992Y-87846220D01*
X176702527Y-87844412D01*
X176480497Y-87842988D01*
X176246727Y-87841951D01*
X176005040Y-87841302D01*
X175759259Y-87841043D01*
X175513210Y-87841175D01*
X175513210Y-87841175D01*
G37*
X175513210Y-87841175D02*
X175270716Y-87841701D01*
X175035600Y-87842621D01*
X174811687Y-87843937D01*
X174602800Y-87845652D01*
X174412764Y-87847766D01*
X174245401Y-87850282D01*
X174104537Y-87853201D01*
X173993994Y-87856524D01*
X173917598Y-87860254D01*
X173884167Y-87863448D01*
X173801521Y-87881454D01*
X173713002Y-87908727D01*
X173631456Y-87940446D01*
X173569728Y-87971788D01*
X173545500Y-87990568D01*
X173522695Y-88009377D01*
X173479314Y-88041210D01*
X173466409Y-88050301D01*
X173389232Y-88119061D01*
X173309518Y-88214756D01*
X173236941Y-88323789D01*
X173181180Y-88432563D01*
X173165864Y-88472619D01*
X173154987Y-88506851D01*
X173146079Y-88541704D01*
X173138944Y-88581616D01*
X173133387Y-88631028D01*
X173129214Y-88694380D01*
X173126230Y-88776110D01*
X173124240Y-88880660D01*
X173123049Y-89012467D01*
X173122462Y-89175972D01*
X173122285Y-89375614D01*
X173122285Y-89465541D01*
X173122457Y-89696329D01*
X173123262Y-89889222D01*
X173125236Y-90048657D01*
X173128915Y-90179073D01*
X173134834Y-90284906D01*
X173143530Y-90370596D01*
X173155539Y-90440578D01*
X173171397Y-90499293D01*
X173191640Y-90551177D01*
X173216804Y-90600667D01*
X173247425Y-90652203D01*
X173269936Y-90687998D01*
X173324055Y-90760925D01*
X173393778Y-90837455D01*
X173470949Y-90910479D01*
X173547410Y-90972890D01*
X173615004Y-91017578D01*
X173665574Y-91037435D01*
X173671403Y-91037834D01*
X173701862Y-91047477D01*
X173751853Y-91071488D01*
X173767750Y-91080167D01*
X173782882Y-91088101D01*
X173800020Y-91094973D01*
X173822130Y-91100856D01*
X173852176Y-91105822D01*
X173893124Y-91109944D01*
X173947937Y-91113296D01*
X174019582Y-91115950D01*
X174111023Y-91117979D01*
X174225224Y-91119457D01*
X174365151Y-91120456D01*
X174533768Y-91121049D01*
X174734040Y-91121310D01*
X174968932Y-91121310D01*
X175241409Y-91121124D01*
X175424686Y-91120953D01*
X175721725Y-91120621D01*
X175979369Y-91120199D01*
X176200554Y-91119613D01*
X176388218Y-91118791D01*
X176545299Y-91117660D01*
X176674734Y-91116147D01*
X176779461Y-91114179D01*
X176862417Y-91111684D01*
X176926540Y-91108588D01*
X176974766Y-91104819D01*
X177010035Y-91100304D01*
X177035283Y-91094970D01*
X177053447Y-91088744D01*
X177067466Y-91081554D01*
X177069750Y-91080167D01*
X177120045Y-91053119D01*
X177157772Y-91039635D01*
X177160163Y-91039381D01*
X177212602Y-91021655D01*
X177282805Y-90977827D01*
X177362154Y-90914903D01*
X177442033Y-90839889D01*
X177513824Y-90759793D01*
X177530931Y-90737902D01*
X177598057Y-90640893D01*
X177647738Y-90547081D01*
X177681986Y-90447968D01*
X177702815Y-90335052D01*
X177712236Y-90199834D01*
X177712258Y-90059871D01*
X176994963Y-90059871D01*
X176990046Y-90174142D01*
X176974520Y-90254086D01*
X176945693Y-90306967D01*
X176900870Y-90340044D01*
X176889099Y-90345183D01*
X176863207Y-90347209D01*
X176798488Y-90349023D01*
X176698445Y-90350606D01*
X176566585Y-90351936D01*
X176406411Y-90352993D01*
X176221430Y-90353759D01*
X176015147Y-90354212D01*
X175791065Y-90354332D01*
X175552691Y-90354100D01*
X175394672Y-90353758D01*
X173931260Y-90349917D01*
X173886881Y-90297000D01*
X173868311Y-90271359D01*
X173856025Y-90241434D01*
X173848979Y-90198803D01*
X173846127Y-90135043D01*
X173846423Y-90041732D01*
X173847460Y-89979500D01*
X173852417Y-89714917D01*
X175334084Y-89709332D01*
X175622055Y-89708309D01*
X175870726Y-89707607D01*
X176083130Y-89707285D01*
X176262300Y-89707402D01*
X176411268Y-89708018D01*
X176533068Y-89709194D01*
X176630732Y-89710987D01*
X176707293Y-89713459D01*
X176765784Y-89716667D01*
X176809238Y-89720673D01*
X176840686Y-89725535D01*
X176863163Y-89731313D01*
X176879701Y-89738067D01*
X176882946Y-89739744D01*
X176932607Y-89773750D01*
X176965645Y-89818235D01*
X176985019Y-89881658D01*
X176993689Y-89972476D01*
X176994963Y-90059871D01*
X177712258Y-90059871D01*
X177712263Y-90033815D01*
X177710787Y-89978272D01*
X177705734Y-89848150D01*
X177698991Y-89750883D01*
X177689273Y-89676998D01*
X177675299Y-89617018D01*
X177655786Y-89561468D01*
X177653644Y-89556189D01*
X177581871Y-89419050D01*
X177478716Y-89284955D01*
X177339750Y-89148364D01*
X177301003Y-89114954D01*
X177270001Y-89095380D01*
X177215074Y-89065919D01*
X177174003Y-89045507D01*
X177069750Y-88995250D01*
X175461084Y-88984667D01*
X173852417Y-88974084D01*
X173846228Y-88846129D01*
X173845091Y-88769566D01*
X173853523Y-88718960D01*
X173875519Y-88678306D01*
X173893778Y-88655629D01*
X173947516Y-88593084D01*
X175782806Y-88587444D01*
X177618095Y-88581805D01*
X177666714Y-88536130D01*
X177687079Y-88514332D01*
X177700803Y-88488762D01*
X177709187Y-88451174D01*
X177713532Y-88393326D01*
X177715140Y-88306972D01*
X177715334Y-88228169D01*
X177713717Y-88123839D01*
X177709311Y-88032484D01*
X177702785Y-87963814D01*
X177694807Y-87927540D01*
X177694614Y-87927168D01*
X177660832Y-87893354D01*
X177608100Y-87865523D01*
X177606789Y-87865060D01*
X177574013Y-87860977D01*
X177502728Y-87857269D01*
X177396760Y-87853938D01*
X177259932Y-87850985D01*
X177096068Y-87848412D01*
X176908992Y-87846220D01*
X176702527Y-87844412D01*
X176480497Y-87842988D01*
X176246727Y-87841951D01*
X176005040Y-87841302D01*
X175759259Y-87841043D01*
X175513210Y-87841175D01*
G36*
X182008319Y-87017062D02*
X181931402Y-87020518D01*
X181879639Y-87027691D01*
X181844452Y-87039737D01*
X181818720Y-87056620D01*
X181768750Y-87097073D01*
X181758167Y-88660518D01*
X181747584Y-90223962D01*
X181689184Y-90286939D01*
X181630784Y-90349917D01*
X179962050Y-90360500D01*
X179653967Y-90362451D01*
X179385397Y-90364236D01*
X179153525Y-90366006D01*
X178955530Y-90367913D01*
X178788596Y-90370110D01*
X178649903Y-90372749D01*
X178536636Y-90375982D01*
X178445975Y-90379960D01*
X178375102Y-90384836D01*
X178321199Y-90390763D01*
X178281450Y-90397891D01*
X178253035Y-90406374D01*
X178233136Y-90416363D01*
X178218936Y-90428011D01*
X178207617Y-90441468D01*
X178197200Y-90455750D01*
X178191261Y-90483980D01*
X178186314Y-90545697D01*
X178182847Y-90632059D01*
X178181347Y-90734223D01*
X178181325Y-90743937D01*
X178181869Y-90857244D01*
X178184584Y-90936691D01*
X178190613Y-90990737D01*
X178201097Y-91027842D01*
X178217176Y-91056468D01*
X178224870Y-91066729D01*
X178268740Y-91122500D01*
X180002870Y-91122500D01*
X180269716Y-91122289D01*
X180524025Y-91121675D01*
X180762664Y-91120692D01*
X180982503Y-91119370D01*
X181180412Y-91117744D01*
X181353260Y-91115843D01*
X181497915Y-91113702D01*
X181611247Y-91111351D01*
X181690126Y-91108823D01*
X181731420Y-91106149D01*
X181737000Y-91104721D01*
X181755243Y-91088214D01*
X181801293Y-91067221D01*
X181826959Y-91058311D01*
X181924656Y-91017134D01*
X182033077Y-90955903D01*
X182134200Y-90885640D01*
X182194486Y-90833570D01*
X182246356Y-90777700D01*
X182296786Y-90711950D01*
X182353107Y-90626114D01*
X182403750Y-90542200D01*
X182467250Y-90434584D01*
X182473033Y-88746204D01*
X182478815Y-87057825D01*
X182424030Y-87036996D01*
X182381476Y-87028712D01*
X182307420Y-87021990D01*
X182212683Y-87017568D01*
X182118967Y-87016167D01*
X182008319Y-87017062D01*
X182008319Y-87017062D01*
G37*
X182008319Y-87017062D02*
X181931402Y-87020518D01*
X181879639Y-87027691D01*
X181844452Y-87039737D01*
X181818720Y-87056620D01*
X181768750Y-87097073D01*
X181758167Y-88660518D01*
X181747584Y-90223962D01*
X181689184Y-90286939D01*
X181630784Y-90349917D01*
X179962050Y-90360500D01*
X179653967Y-90362451D01*
X179385397Y-90364236D01*
X179153525Y-90366006D01*
X178955530Y-90367913D01*
X178788596Y-90370110D01*
X178649903Y-90372749D01*
X178536636Y-90375982D01*
X178445975Y-90379960D01*
X178375102Y-90384836D01*
X178321199Y-90390763D01*
X178281450Y-90397891D01*
X178253035Y-90406374D01*
X178233136Y-90416363D01*
X178218936Y-90428011D01*
X178207617Y-90441468D01*
X178197200Y-90455750D01*
X178191261Y-90483980D01*
X178186314Y-90545697D01*
X178182847Y-90632059D01*
X178181347Y-90734223D01*
X178181325Y-90743937D01*
X178181869Y-90857244D01*
X178184584Y-90936691D01*
X178190613Y-90990737D01*
X178201097Y-91027842D01*
X178217176Y-91056468D01*
X178224870Y-91066729D01*
X178268740Y-91122500D01*
X180002870Y-91122500D01*
X180269716Y-91122289D01*
X180524025Y-91121675D01*
X180762664Y-91120692D01*
X180982503Y-91119370D01*
X181180412Y-91117744D01*
X181353260Y-91115843D01*
X181497915Y-91113702D01*
X181611247Y-91111351D01*
X181690126Y-91108823D01*
X181731420Y-91106149D01*
X181737000Y-91104721D01*
X181755243Y-91088214D01*
X181801293Y-91067221D01*
X181826959Y-91058311D01*
X181924656Y-91017134D01*
X182033077Y-90955903D01*
X182134200Y-90885640D01*
X182194486Y-90833570D01*
X182246356Y-90777700D01*
X182296786Y-90711950D01*
X182353107Y-90626114D01*
X182403750Y-90542200D01*
X182467250Y-90434584D01*
X182473033Y-88746204D01*
X182478815Y-87057825D01*
X182424030Y-87036996D01*
X182381476Y-87028712D01*
X182307420Y-87021990D01*
X182212683Y-87017568D01*
X182118967Y-87016167D01*
X182008319Y-87017062D01*
G04 #@! TD*
M02*
