G04 #@! TF.GenerationSoftware,KiCad,Pcbnew,5.0.2-bee76a0~70~ubuntu18.04.1*
G04 #@! TF.CreationDate,2019-05-05T14:27:43+09:00*
G04 #@! TF.ProjectId,M5StackSideBB,4d355374-6163-46b5-9369-646542422e6b,rev?*
G04 #@! TF.SameCoordinates,Original*
G04 #@! TF.FileFunction,Legend,Top*
G04 #@! TF.FilePolarity,Positive*
%FSLAX46Y46*%
G04 Gerber Fmt 4.6, Leading zero omitted, Abs format (unit mm)*
G04 Created by KiCad (PCBNEW 5.0.2-bee76a0~70~ubuntu18.04.1) date 2019年05月05日 14時27分43秒*
%MOMM*%
%LPD*%
G01*
G04 APERTURE LIST*
%ADD10C,0.250000*%
%ADD11C,0.500000*%
%ADD12C,0.200000*%
%ADD13C,0.010000*%
G04 APERTURE END LIST*
D10*
X162974756Y-96079060D02*
X163593803Y-96079060D01*
X163260470Y-96460013D01*
X163403327Y-96460013D01*
X163498565Y-96507632D01*
X163546184Y-96555251D01*
X163593803Y-96650489D01*
X163593803Y-96888584D01*
X163546184Y-96983822D01*
X163498565Y-97031441D01*
X163403327Y-97079060D01*
X163117613Y-97079060D01*
X163022375Y-97031441D01*
X162974756Y-96983822D01*
X164450946Y-96412394D02*
X164450946Y-97079060D01*
X164212851Y-96031441D02*
X163974756Y-96745727D01*
X164593803Y-96745727D01*
X163285870Y-98735140D02*
X163285870Y-97735140D01*
X163762060Y-98735140D02*
X163762060Y-97735140D01*
X164333489Y-98735140D01*
X164333489Y-97735140D01*
X168735380Y-96104460D02*
X168830619Y-96104460D01*
X168925857Y-96152080D01*
X168973476Y-96199699D01*
X169021095Y-96294937D01*
X169068714Y-96485413D01*
X169068714Y-96723508D01*
X169021095Y-96913984D01*
X168973476Y-97009222D01*
X168925857Y-97056841D01*
X168830619Y-97104460D01*
X168735380Y-97104460D01*
X168640142Y-97056841D01*
X168592523Y-97009222D01*
X168544904Y-96913984D01*
X168497285Y-96723508D01*
X168497285Y-96485413D01*
X168544904Y-96294937D01*
X168592523Y-96199699D01*
X168640142Y-96152080D01*
X168735380Y-96104460D01*
X167949666Y-98755460D02*
X167949666Y-97755460D01*
X168283000Y-98469746D01*
X168616333Y-97755460D01*
X168616333Y-98755460D01*
X169092523Y-98755460D02*
X169092523Y-97755460D01*
X169663952Y-98755460D02*
X169235380Y-98184032D01*
X169663952Y-97755460D02*
X169092523Y-98326889D01*
X166103323Y-97058740D02*
X165531895Y-97058740D01*
X165817609Y-97058740D02*
X165817609Y-96058740D01*
X165722371Y-96201598D01*
X165627133Y-96296836D01*
X165531895Y-96344455D01*
X167008085Y-96058740D02*
X166531895Y-96058740D01*
X166484276Y-96534931D01*
X166531895Y-96487312D01*
X166627133Y-96439693D01*
X166865228Y-96439693D01*
X166960466Y-96487312D01*
X167008085Y-96534931D01*
X167055704Y-96630169D01*
X167055704Y-96868264D01*
X167008085Y-96963502D01*
X166960466Y-97011121D01*
X166865228Y-97058740D01*
X166627133Y-97058740D01*
X166531895Y-97011121D01*
X166484276Y-96963502D01*
X165867238Y-97508468D02*
X166001925Y-97643155D01*
X166035597Y-97744170D01*
X166035597Y-97878857D01*
X165934581Y-98047216D01*
X165698879Y-98282918D01*
X165530520Y-98383933D01*
X165395833Y-98383933D01*
X165294818Y-98350261D01*
X165160131Y-98215574D01*
X165126459Y-98114559D01*
X165126459Y-97979872D01*
X165227475Y-97811513D01*
X165463177Y-97575811D01*
X165631536Y-97474796D01*
X165766223Y-97474796D01*
X165867238Y-97508468D01*
X166473329Y-98114559D02*
X165900910Y-98686979D01*
X165867238Y-98787994D01*
X165867238Y-98855338D01*
X165900910Y-98956353D01*
X166035597Y-99091040D01*
X166136612Y-99124712D01*
X166203955Y-99124712D01*
X166304971Y-99091040D01*
X166877390Y-98518620D01*
X167113093Y-98754322D02*
X167517154Y-99158383D01*
X166608016Y-99663460D02*
X167315123Y-98956353D01*
X171147763Y-97094300D02*
X170576335Y-97094300D01*
X170862049Y-97094300D02*
X170862049Y-96094300D01*
X170766811Y-96237158D01*
X170671573Y-96332396D01*
X170576335Y-96380015D01*
X171528716Y-96189539D02*
X171576335Y-96141920D01*
X171671573Y-96094300D01*
X171909668Y-96094300D01*
X172004906Y-96141920D01*
X172052525Y-96189539D01*
X172100144Y-96284777D01*
X172100144Y-96380015D01*
X172052525Y-96522872D01*
X171481097Y-97094300D01*
X172100144Y-97094300D01*
X173687763Y-97094300D02*
X173116335Y-97094300D01*
X173402049Y-97094300D02*
X173402049Y-96094300D01*
X173306811Y-96237158D01*
X173211573Y-96332396D01*
X173116335Y-96380015D01*
X174021097Y-96094300D02*
X174640144Y-96094300D01*
X174306811Y-96475253D01*
X174449668Y-96475253D01*
X174544906Y-96522872D01*
X174592525Y-96570491D01*
X174640144Y-96665729D01*
X174640144Y-96903824D01*
X174592525Y-96999062D01*
X174544906Y-97046681D01*
X174449668Y-97094300D01*
X174163954Y-97094300D01*
X174068716Y-97046681D01*
X174021097Y-96999062D01*
X172973478Y-97745300D02*
X173211573Y-98745300D01*
X173402049Y-98031015D01*
X173592525Y-98745300D01*
X173830620Y-97745300D01*
X174163954Y-98697681D02*
X174306811Y-98745300D01*
X174544906Y-98745300D01*
X174640144Y-98697681D01*
X174687763Y-98650062D01*
X174735382Y-98554824D01*
X174735382Y-98459586D01*
X174687763Y-98364348D01*
X174640144Y-98316729D01*
X174544906Y-98269110D01*
X174354430Y-98221491D01*
X174259192Y-98173872D01*
X174211573Y-98126253D01*
X174163954Y-98031015D01*
X174163954Y-97935777D01*
X174211573Y-97840539D01*
X174259192Y-97792920D01*
X174354430Y-97745300D01*
X174592525Y-97745300D01*
X174735382Y-97792920D01*
X170552525Y-98697681D02*
X170695382Y-98745300D01*
X170933478Y-98745300D01*
X171028716Y-98697681D01*
X171076335Y-98650062D01*
X171123954Y-98554824D01*
X171123954Y-98459586D01*
X171076335Y-98364348D01*
X171028716Y-98316729D01*
X170933478Y-98269110D01*
X170743001Y-98221491D01*
X170647763Y-98173872D01*
X170600144Y-98126253D01*
X170552525Y-98031015D01*
X170552525Y-97935777D01*
X170600144Y-97840539D01*
X170647763Y-97792920D01*
X170743001Y-97745300D01*
X170981097Y-97745300D01*
X171123954Y-97792920D01*
X171552525Y-98745300D02*
X171552525Y-97745300D01*
X172123954Y-98745300D02*
X171695382Y-98173872D01*
X172123954Y-97745300D02*
X171552525Y-98316729D01*
X155595059Y-96054777D02*
X156595059Y-96054777D01*
X156118868Y-96054777D02*
X156118868Y-96626205D01*
X155595059Y-96626205D02*
X156595059Y-96626205D01*
X155595059Y-97102396D02*
X156595059Y-97102396D01*
X156595059Y-97483348D01*
X156547440Y-97578586D01*
X156499820Y-97626205D01*
X156404582Y-97673824D01*
X156261725Y-97673824D01*
X156166487Y-97626205D01*
X156118868Y-97578586D01*
X156071249Y-97483348D01*
X156071249Y-97102396D01*
X156595059Y-98007158D02*
X155595059Y-98245253D01*
X156309344Y-98435729D01*
X155595059Y-98626205D01*
X156595059Y-98864300D01*
X155595059Y-99816681D02*
X156071249Y-99483348D01*
X155595059Y-99245253D02*
X156595059Y-99245253D01*
X156595059Y-99626205D01*
X156547440Y-99721443D01*
X156499820Y-99769062D01*
X156404582Y-99816681D01*
X156261725Y-99816681D01*
X156166487Y-99769062D01*
X156118868Y-99721443D01*
X156071249Y-99626205D01*
X156071249Y-99245253D01*
X126122609Y-88031580D02*
X125789276Y-87555390D01*
X125551180Y-88031580D02*
X125551180Y-87031580D01*
X125932133Y-87031580D01*
X126027371Y-87079200D01*
X126074990Y-87126819D01*
X126122609Y-87222057D01*
X126122609Y-87364914D01*
X126074990Y-87460152D01*
X126027371Y-87507771D01*
X125932133Y-87555390D01*
X125551180Y-87555390D01*
X126932133Y-87983961D02*
X126836895Y-88031580D01*
X126646419Y-88031580D01*
X126551180Y-87983961D01*
X126503561Y-87888723D01*
X126503561Y-87507771D01*
X126551180Y-87412533D01*
X126646419Y-87364914D01*
X126836895Y-87364914D01*
X126932133Y-87412533D01*
X126979752Y-87507771D01*
X126979752Y-87603009D01*
X126503561Y-87698247D01*
X127313085Y-87364914D02*
X127551180Y-88031580D01*
X127789276Y-87364914D01*
X128884514Y-87126819D02*
X128932133Y-87079200D01*
X129027371Y-87031580D01*
X129265466Y-87031580D01*
X129360704Y-87079200D01*
X129408323Y-87126819D01*
X129455942Y-87222057D01*
X129455942Y-87317295D01*
X129408323Y-87460152D01*
X128836895Y-88031580D01*
X129455942Y-88031580D01*
X130074990Y-87031580D02*
X130170228Y-87031580D01*
X130265466Y-87079200D01*
X130313085Y-87126819D01*
X130360704Y-87222057D01*
X130408323Y-87412533D01*
X130408323Y-87650628D01*
X130360704Y-87841104D01*
X130313085Y-87936342D01*
X130265466Y-87983961D01*
X130170228Y-88031580D01*
X130074990Y-88031580D01*
X129979752Y-87983961D01*
X129932133Y-87936342D01*
X129884514Y-87841104D01*
X129836895Y-87650628D01*
X129836895Y-87412533D01*
X129884514Y-87222057D01*
X129932133Y-87126819D01*
X129979752Y-87079200D01*
X130074990Y-87031580D01*
X131360704Y-88031580D02*
X130789276Y-88031580D01*
X131074990Y-88031580D02*
X131074990Y-87031580D01*
X130979752Y-87174438D01*
X130884514Y-87269676D01*
X130789276Y-87317295D01*
X131836895Y-88031580D02*
X132027371Y-88031580D01*
X132122609Y-87983961D01*
X132170228Y-87936342D01*
X132265466Y-87793485D01*
X132313085Y-87603009D01*
X132313085Y-87222057D01*
X132265466Y-87126819D01*
X132217847Y-87079200D01*
X132122609Y-87031580D01*
X131932133Y-87031580D01*
X131836895Y-87079200D01*
X131789276Y-87126819D01*
X131741657Y-87222057D01*
X131741657Y-87460152D01*
X131789276Y-87555390D01*
X131836895Y-87603009D01*
X131932133Y-87650628D01*
X132122609Y-87650628D01*
X132217847Y-87603009D01*
X132265466Y-87555390D01*
X132313085Y-87460152D01*
X132741657Y-87936342D02*
X132789276Y-87983961D01*
X132741657Y-88031580D01*
X132694038Y-87983961D01*
X132741657Y-87936342D01*
X132741657Y-88031580D01*
X133408323Y-87031580D02*
X133503561Y-87031580D01*
X133598800Y-87079200D01*
X133646419Y-87126819D01*
X133694038Y-87222057D01*
X133741657Y-87412533D01*
X133741657Y-87650628D01*
X133694038Y-87841104D01*
X133646419Y-87936342D01*
X133598800Y-87983961D01*
X133503561Y-88031580D01*
X133408323Y-88031580D01*
X133313085Y-87983961D01*
X133265466Y-87936342D01*
X133217847Y-87841104D01*
X133170228Y-87650628D01*
X133170228Y-87412533D01*
X133217847Y-87222057D01*
X133265466Y-87126819D01*
X133313085Y-87079200D01*
X133408323Y-87031580D01*
X134646419Y-87031580D02*
X134170228Y-87031580D01*
X134122609Y-87507771D01*
X134170228Y-87460152D01*
X134265466Y-87412533D01*
X134503561Y-87412533D01*
X134598800Y-87460152D01*
X134646419Y-87507771D01*
X134694038Y-87603009D01*
X134694038Y-87841104D01*
X134646419Y-87936342D01*
X134598800Y-87983961D01*
X134503561Y-88031580D01*
X134265466Y-88031580D01*
X134170228Y-87983961D01*
X134122609Y-87936342D01*
D11*
X102430038Y-87975961D02*
X102430038Y-85975961D01*
X103096704Y-87404533D01*
X103763371Y-85975961D01*
X103763371Y-87975961D01*
X105668133Y-85975961D02*
X104715752Y-85975961D01*
X104620514Y-86928342D01*
X104715752Y-86833104D01*
X104906228Y-86737866D01*
X105382419Y-86737866D01*
X105572895Y-86833104D01*
X105668133Y-86928342D01*
X105763371Y-87118819D01*
X105763371Y-87595009D01*
X105668133Y-87785485D01*
X105572895Y-87880723D01*
X105382419Y-87975961D01*
X104906228Y-87975961D01*
X104715752Y-87880723D01*
X104620514Y-87785485D01*
X106525276Y-87880723D02*
X106810990Y-87975961D01*
X107287180Y-87975961D01*
X107477657Y-87880723D01*
X107572895Y-87785485D01*
X107668133Y-87595009D01*
X107668133Y-87404533D01*
X107572895Y-87214057D01*
X107477657Y-87118819D01*
X107287180Y-87023580D01*
X106906228Y-86928342D01*
X106715752Y-86833104D01*
X106620514Y-86737866D01*
X106525276Y-86547390D01*
X106525276Y-86356914D01*
X106620514Y-86166438D01*
X106715752Y-86071200D01*
X106906228Y-85975961D01*
X107382419Y-85975961D01*
X107668133Y-86071200D01*
X108239561Y-86642628D02*
X109001466Y-86642628D01*
X108525276Y-85975961D02*
X108525276Y-87690247D01*
X108620514Y-87880723D01*
X108810990Y-87975961D01*
X109001466Y-87975961D01*
X110525276Y-87975961D02*
X110525276Y-86928342D01*
X110430038Y-86737866D01*
X110239561Y-86642628D01*
X109858609Y-86642628D01*
X109668133Y-86737866D01*
X110525276Y-87880723D02*
X110334800Y-87975961D01*
X109858609Y-87975961D01*
X109668133Y-87880723D01*
X109572895Y-87690247D01*
X109572895Y-87499771D01*
X109668133Y-87309295D01*
X109858609Y-87214057D01*
X110334800Y-87214057D01*
X110525276Y-87118819D01*
X112334800Y-87880723D02*
X112144323Y-87975961D01*
X111763371Y-87975961D01*
X111572895Y-87880723D01*
X111477657Y-87785485D01*
X111382419Y-87595009D01*
X111382419Y-87023580D01*
X111477657Y-86833104D01*
X111572895Y-86737866D01*
X111763371Y-86642628D01*
X112144323Y-86642628D01*
X112334800Y-86737866D01*
X113191942Y-87975961D02*
X113191942Y-85975961D01*
X113382419Y-87214057D02*
X113953847Y-87975961D01*
X113953847Y-86642628D02*
X113191942Y-87404533D01*
X114715752Y-87880723D02*
X115001466Y-87975961D01*
X115477657Y-87975961D01*
X115668133Y-87880723D01*
X115763371Y-87785485D01*
X115858609Y-87595009D01*
X115858609Y-87404533D01*
X115763371Y-87214057D01*
X115668133Y-87118819D01*
X115477657Y-87023580D01*
X115096704Y-86928342D01*
X114906228Y-86833104D01*
X114810990Y-86737866D01*
X114715752Y-86547390D01*
X114715752Y-86356914D01*
X114810990Y-86166438D01*
X114906228Y-86071200D01*
X115096704Y-85975961D01*
X115572895Y-85975961D01*
X115858609Y-86071200D01*
X116715752Y-87975961D02*
X116715752Y-86642628D01*
X116715752Y-85975961D02*
X116620514Y-86071200D01*
X116715752Y-86166438D01*
X116810990Y-86071200D01*
X116715752Y-85975961D01*
X116715752Y-86166438D01*
X118525276Y-87975961D02*
X118525276Y-85975961D01*
X118525276Y-87880723D02*
X118334800Y-87975961D01*
X117953847Y-87975961D01*
X117763371Y-87880723D01*
X117668133Y-87785485D01*
X117572895Y-87595009D01*
X117572895Y-87023580D01*
X117668133Y-86833104D01*
X117763371Y-86737866D01*
X117953847Y-86642628D01*
X118334800Y-86642628D01*
X118525276Y-86737866D01*
X120239561Y-87880723D02*
X120049085Y-87975961D01*
X119668133Y-87975961D01*
X119477657Y-87880723D01*
X119382419Y-87690247D01*
X119382419Y-86928342D01*
X119477657Y-86737866D01*
X119668133Y-86642628D01*
X120049085Y-86642628D01*
X120239561Y-86737866D01*
X120334799Y-86928342D01*
X120334799Y-87118819D01*
X119382419Y-87309295D01*
X121858609Y-86928342D02*
X122144323Y-87023580D01*
X122239561Y-87118819D01*
X122334799Y-87309295D01*
X122334799Y-87595009D01*
X122239561Y-87785485D01*
X122144323Y-87880723D01*
X121953847Y-87975961D01*
X121191942Y-87975961D01*
X121191942Y-85975961D01*
X121858609Y-85975961D01*
X122049085Y-86071200D01*
X122144323Y-86166438D01*
X122239561Y-86356914D01*
X122239561Y-86547390D01*
X122144323Y-86737866D01*
X122049085Y-86833104D01*
X121858609Y-86928342D01*
X121191942Y-86928342D01*
X123858609Y-86928342D02*
X124144323Y-87023580D01*
X124239561Y-87118819D01*
X124334799Y-87309295D01*
X124334799Y-87595009D01*
X124239561Y-87785485D01*
X124144323Y-87880723D01*
X123953847Y-87975961D01*
X123191942Y-87975961D01*
X123191942Y-85975961D01*
X123858609Y-85975961D01*
X124049085Y-86071200D01*
X124144323Y-86166438D01*
X124239561Y-86356914D01*
X124239561Y-86547390D01*
X124144323Y-86737866D01*
X124049085Y-86833104D01*
X123858609Y-86928342D01*
X123191942Y-86928342D01*
D10*
X102335561Y-90063580D02*
X102335561Y-89063580D01*
X102764133Y-90063580D02*
X102764133Y-89539771D01*
X102716514Y-89444533D01*
X102621276Y-89396914D01*
X102478419Y-89396914D01*
X102383180Y-89444533D01*
X102335561Y-89492152D01*
X103097466Y-89396914D02*
X103478419Y-89396914D01*
X103240323Y-89063580D02*
X103240323Y-89920723D01*
X103287942Y-90015961D01*
X103383180Y-90063580D01*
X103478419Y-90063580D01*
X103668895Y-89396914D02*
X104049847Y-89396914D01*
X103811752Y-89063580D02*
X103811752Y-89920723D01*
X103859371Y-90015961D01*
X103954609Y-90063580D01*
X104049847Y-90063580D01*
X104383180Y-89396914D02*
X104383180Y-90396914D01*
X104383180Y-89444533D02*
X104478419Y-89396914D01*
X104668895Y-89396914D01*
X104764133Y-89444533D01*
X104811752Y-89492152D01*
X104859371Y-89587390D01*
X104859371Y-89873104D01*
X104811752Y-89968342D01*
X104764133Y-90015961D01*
X104668895Y-90063580D01*
X104478419Y-90063580D01*
X104383180Y-90015961D01*
X105240323Y-90015961D02*
X105335561Y-90063580D01*
X105526038Y-90063580D01*
X105621276Y-90015961D01*
X105668895Y-89920723D01*
X105668895Y-89873104D01*
X105621276Y-89777866D01*
X105526038Y-89730247D01*
X105383180Y-89730247D01*
X105287942Y-89682628D01*
X105240323Y-89587390D01*
X105240323Y-89539771D01*
X105287942Y-89444533D01*
X105383180Y-89396914D01*
X105526038Y-89396914D01*
X105621276Y-89444533D01*
X106097466Y-89968342D02*
X106145085Y-90015961D01*
X106097466Y-90063580D01*
X106049847Y-90015961D01*
X106097466Y-89968342D01*
X106097466Y-90063580D01*
X106097466Y-89444533D02*
X106145085Y-89492152D01*
X106097466Y-89539771D01*
X106049847Y-89492152D01*
X106097466Y-89444533D01*
X106097466Y-89539771D01*
X107287942Y-89015961D02*
X106430799Y-90301676D01*
X108335561Y-89015961D02*
X107478419Y-90301676D01*
X109097466Y-89396914D02*
X109097466Y-90206438D01*
X109049847Y-90301676D01*
X109002228Y-90349295D01*
X108906990Y-90396914D01*
X108764133Y-90396914D01*
X108668895Y-90349295D01*
X109097466Y-90015961D02*
X109002228Y-90063580D01*
X108811752Y-90063580D01*
X108716514Y-90015961D01*
X108668895Y-89968342D01*
X108621276Y-89873104D01*
X108621276Y-89587390D01*
X108668895Y-89492152D01*
X108716514Y-89444533D01*
X108811752Y-89396914D01*
X109002228Y-89396914D01*
X109097466Y-89444533D01*
X109573657Y-90063580D02*
X109573657Y-89396914D01*
X109573657Y-89063580D02*
X109526038Y-89111200D01*
X109573657Y-89158819D01*
X109621276Y-89111200D01*
X109573657Y-89063580D01*
X109573657Y-89158819D01*
X109906990Y-89396914D02*
X110287942Y-89396914D01*
X110049847Y-89063580D02*
X110049847Y-89920723D01*
X110097466Y-90015961D01*
X110192704Y-90063580D01*
X110287942Y-90063580D01*
X110621276Y-90063580D02*
X110621276Y-89063580D01*
X111049847Y-90063580D02*
X111049847Y-89539771D01*
X111002228Y-89444533D01*
X110906990Y-89396914D01*
X110764133Y-89396914D01*
X110668895Y-89444533D01*
X110621276Y-89492152D01*
X111954609Y-89396914D02*
X111954609Y-90063580D01*
X111526038Y-89396914D02*
X111526038Y-89920723D01*
X111573657Y-90015961D01*
X111668895Y-90063580D01*
X111811752Y-90063580D01*
X111906990Y-90015961D01*
X111954609Y-89968342D01*
X112430799Y-90063580D02*
X112430799Y-89063580D01*
X112430799Y-89444533D02*
X112526038Y-89396914D01*
X112716514Y-89396914D01*
X112811752Y-89444533D01*
X112859371Y-89492152D01*
X112906990Y-89587390D01*
X112906990Y-89873104D01*
X112859371Y-89968342D01*
X112811752Y-90015961D01*
X112716514Y-90063580D01*
X112526038Y-90063580D01*
X112430799Y-90015961D01*
X113335561Y-89968342D02*
X113383180Y-90015961D01*
X113335561Y-90063580D01*
X113287942Y-90015961D01*
X113335561Y-89968342D01*
X113335561Y-90063580D01*
X114240323Y-90015961D02*
X114145085Y-90063580D01*
X113954609Y-90063580D01*
X113859371Y-90015961D01*
X113811752Y-89968342D01*
X113764133Y-89873104D01*
X113764133Y-89587390D01*
X113811752Y-89492152D01*
X113859371Y-89444533D01*
X113954609Y-89396914D01*
X114145085Y-89396914D01*
X114240323Y-89444533D01*
X114811752Y-90063580D02*
X114716514Y-90015961D01*
X114668895Y-89968342D01*
X114621276Y-89873104D01*
X114621276Y-89587390D01*
X114668895Y-89492152D01*
X114716514Y-89444533D01*
X114811752Y-89396914D01*
X114954609Y-89396914D01*
X115049847Y-89444533D01*
X115097466Y-89492152D01*
X115145085Y-89587390D01*
X115145085Y-89873104D01*
X115097466Y-89968342D01*
X115049847Y-90015961D01*
X114954609Y-90063580D01*
X114811752Y-90063580D01*
X115573657Y-90063580D02*
X115573657Y-89396914D01*
X115573657Y-89492152D02*
X115621276Y-89444533D01*
X115716514Y-89396914D01*
X115859371Y-89396914D01*
X115954609Y-89444533D01*
X116002228Y-89539771D01*
X116002228Y-90063580D01*
X116002228Y-89539771D02*
X116049847Y-89444533D01*
X116145085Y-89396914D01*
X116287942Y-89396914D01*
X116383180Y-89444533D01*
X116430799Y-89539771D01*
X116430799Y-90063580D01*
X117621276Y-89015961D02*
X116764133Y-90301676D01*
X118383180Y-90063580D02*
X118383180Y-89539771D01*
X118335561Y-89444533D01*
X118240323Y-89396914D01*
X118049847Y-89396914D01*
X117954609Y-89444533D01*
X118383180Y-90015961D02*
X118287942Y-90063580D01*
X118049847Y-90063580D01*
X117954609Y-90015961D01*
X117906990Y-89920723D01*
X117906990Y-89825485D01*
X117954609Y-89730247D01*
X118049847Y-89682628D01*
X118287942Y-89682628D01*
X118383180Y-89635009D01*
X118811752Y-90015961D02*
X118906990Y-90063580D01*
X119097466Y-90063580D01*
X119192704Y-90015961D01*
X119240323Y-89920723D01*
X119240323Y-89873104D01*
X119192704Y-89777866D01*
X119097466Y-89730247D01*
X118954609Y-89730247D01*
X118859371Y-89682628D01*
X118811752Y-89587390D01*
X118811752Y-89539771D01*
X118859371Y-89444533D01*
X118954609Y-89396914D01*
X119097466Y-89396914D01*
X119192704Y-89444533D01*
X120097466Y-89396914D02*
X120097466Y-90063580D01*
X119668895Y-89396914D02*
X119668895Y-89920723D01*
X119716514Y-90015961D01*
X119811752Y-90063580D01*
X119954609Y-90063580D01*
X120049847Y-90015961D01*
X120097466Y-89968342D01*
X120573657Y-90063580D02*
X120573657Y-89063580D01*
X120668895Y-89682628D02*
X120954609Y-90063580D01*
X120954609Y-89396914D02*
X120573657Y-89777866D01*
X121383180Y-90063580D02*
X121383180Y-89396914D01*
X121383180Y-89063580D02*
X121335561Y-89111200D01*
X121383180Y-89158819D01*
X121430799Y-89111200D01*
X121383180Y-89063580D01*
X121383180Y-89158819D01*
X122287942Y-90063580D02*
X122287942Y-89539771D01*
X122240323Y-89444533D01*
X122145085Y-89396914D01*
X121954609Y-89396914D01*
X121859371Y-89444533D01*
X122287942Y-90015961D02*
X122192704Y-90063580D01*
X121954609Y-90063580D01*
X121859371Y-90015961D01*
X121811752Y-89920723D01*
X121811752Y-89825485D01*
X121859371Y-89730247D01*
X121954609Y-89682628D01*
X122192704Y-89682628D01*
X122287942Y-89635009D01*
X123192704Y-90063580D02*
X123192704Y-89539771D01*
X123145085Y-89444533D01*
X123049847Y-89396914D01*
X122859371Y-89396914D01*
X122764133Y-89444533D01*
X123192704Y-90015961D02*
X123097466Y-90063580D01*
X122859371Y-90063580D01*
X122764133Y-90015961D01*
X122716514Y-89920723D01*
X122716514Y-89825485D01*
X122764133Y-89730247D01*
X122859371Y-89682628D01*
X123097466Y-89682628D01*
X123192704Y-89635009D01*
X124097466Y-90063580D02*
X124097466Y-89539771D01*
X124049847Y-89444533D01*
X123954609Y-89396914D01*
X123764133Y-89396914D01*
X123668895Y-89444533D01*
X124097466Y-90015961D02*
X124002228Y-90063580D01*
X123764133Y-90063580D01*
X123668895Y-90015961D01*
X123621276Y-89920723D01*
X123621276Y-89825485D01*
X123668895Y-89730247D01*
X123764133Y-89682628D01*
X124002228Y-89682628D01*
X124097466Y-89635009D01*
X125287942Y-89015961D02*
X124430799Y-90301676D01*
X125621276Y-90063580D02*
X125621276Y-89063580D01*
X125954609Y-89777866D01*
X126287942Y-89063580D01*
X126287942Y-90063580D01*
X127240323Y-89063580D02*
X126764133Y-89063580D01*
X126716514Y-89539771D01*
X126764133Y-89492152D01*
X126859371Y-89444533D01*
X127097466Y-89444533D01*
X127192704Y-89492152D01*
X127240323Y-89539771D01*
X127287942Y-89635009D01*
X127287942Y-89873104D01*
X127240323Y-89968342D01*
X127192704Y-90015961D01*
X127097466Y-90063580D01*
X126859371Y-90063580D01*
X126764133Y-90015961D01*
X126716514Y-89968342D01*
X127668895Y-90015961D02*
X127811752Y-90063580D01*
X128049847Y-90063580D01*
X128145085Y-90015961D01*
X128192704Y-89968342D01*
X128240323Y-89873104D01*
X128240323Y-89777866D01*
X128192704Y-89682628D01*
X128145085Y-89635009D01*
X128049847Y-89587390D01*
X127859371Y-89539771D01*
X127764133Y-89492152D01*
X127716514Y-89444533D01*
X127668895Y-89349295D01*
X127668895Y-89254057D01*
X127716514Y-89158819D01*
X127764133Y-89111200D01*
X127859371Y-89063580D01*
X128097466Y-89063580D01*
X128240323Y-89111200D01*
X128526038Y-89396914D02*
X128906990Y-89396914D01*
X128668895Y-89063580D02*
X128668895Y-89920723D01*
X128716514Y-90015961D01*
X128811752Y-90063580D01*
X128906990Y-90063580D01*
X129668895Y-90063580D02*
X129668895Y-89539771D01*
X129621276Y-89444533D01*
X129526038Y-89396914D01*
X129335561Y-89396914D01*
X129240323Y-89444533D01*
X129668895Y-90015961D02*
X129573657Y-90063580D01*
X129335561Y-90063580D01*
X129240323Y-90015961D01*
X129192704Y-89920723D01*
X129192704Y-89825485D01*
X129240323Y-89730247D01*
X129335561Y-89682628D01*
X129573657Y-89682628D01*
X129668895Y-89635009D01*
X130573657Y-90015961D02*
X130478419Y-90063580D01*
X130287942Y-90063580D01*
X130192704Y-90015961D01*
X130145085Y-89968342D01*
X130097466Y-89873104D01*
X130097466Y-89587390D01*
X130145085Y-89492152D01*
X130192704Y-89444533D01*
X130287942Y-89396914D01*
X130478419Y-89396914D01*
X130573657Y-89444533D01*
X131002228Y-90063580D02*
X131002228Y-89063580D01*
X131097466Y-89682628D02*
X131383180Y-90063580D01*
X131383180Y-89396914D02*
X131002228Y-89777866D01*
X131764133Y-90015961D02*
X131906990Y-90063580D01*
X132145085Y-90063580D01*
X132240323Y-90015961D01*
X132287942Y-89968342D01*
X132335561Y-89873104D01*
X132335561Y-89777866D01*
X132287942Y-89682628D01*
X132240323Y-89635009D01*
X132145085Y-89587390D01*
X131954609Y-89539771D01*
X131859371Y-89492152D01*
X131811752Y-89444533D01*
X131764133Y-89349295D01*
X131764133Y-89254057D01*
X131811752Y-89158819D01*
X131859371Y-89111200D01*
X131954609Y-89063580D01*
X132192704Y-89063580D01*
X132335561Y-89111200D01*
X132764133Y-90063580D02*
X132764133Y-89396914D01*
X132764133Y-89063580D02*
X132716514Y-89111200D01*
X132764133Y-89158819D01*
X132811752Y-89111200D01*
X132764133Y-89063580D01*
X132764133Y-89158819D01*
X133668895Y-90063580D02*
X133668895Y-89063580D01*
X133668895Y-90015961D02*
X133573657Y-90063580D01*
X133383180Y-90063580D01*
X133287942Y-90015961D01*
X133240323Y-89968342D01*
X133192704Y-89873104D01*
X133192704Y-89587390D01*
X133240323Y-89492152D01*
X133287942Y-89444533D01*
X133383180Y-89396914D01*
X133573657Y-89396914D01*
X133668895Y-89444533D01*
X134526038Y-90015961D02*
X134430799Y-90063580D01*
X134240323Y-90063580D01*
X134145085Y-90015961D01*
X134097466Y-89920723D01*
X134097466Y-89539771D01*
X134145085Y-89444533D01*
X134240323Y-89396914D01*
X134430799Y-89396914D01*
X134526038Y-89444533D01*
X134573657Y-89539771D01*
X134573657Y-89635009D01*
X134097466Y-89730247D01*
X135335561Y-89539771D02*
X135478419Y-89587390D01*
X135526038Y-89635009D01*
X135573657Y-89730247D01*
X135573657Y-89873104D01*
X135526038Y-89968342D01*
X135478419Y-90015961D01*
X135383180Y-90063580D01*
X135002228Y-90063580D01*
X135002228Y-89063580D01*
X135335561Y-89063580D01*
X135430799Y-89111200D01*
X135478419Y-89158819D01*
X135526038Y-89254057D01*
X135526038Y-89349295D01*
X135478419Y-89444533D01*
X135430799Y-89492152D01*
X135335561Y-89539771D01*
X135002228Y-89539771D01*
X136335561Y-89539771D02*
X136478419Y-89587390D01*
X136526038Y-89635009D01*
X136573657Y-89730247D01*
X136573657Y-89873104D01*
X136526038Y-89968342D01*
X136478419Y-90015961D01*
X136383180Y-90063580D01*
X136002228Y-90063580D01*
X136002228Y-89063580D01*
X136335561Y-89063580D01*
X136430799Y-89111200D01*
X136478419Y-89158819D01*
X136526038Y-89254057D01*
X136526038Y-89349295D01*
X136478419Y-89444533D01*
X136430799Y-89492152D01*
X136335561Y-89539771D01*
X136002228Y-89539771D01*
X155948605Y-52142898D02*
X155914933Y-52041883D01*
X155813918Y-51940868D01*
X155679231Y-51873524D01*
X155544544Y-51873524D01*
X155443529Y-51907196D01*
X155275170Y-52008211D01*
X155174155Y-52109226D01*
X155073139Y-52277585D01*
X155039468Y-52378600D01*
X155039468Y-52513287D01*
X155106811Y-52647974D01*
X155174155Y-52715318D01*
X155308842Y-52782661D01*
X155376185Y-52782661D01*
X155611887Y-52546959D01*
X155477200Y-52412272D01*
X155611887Y-53153051D02*
X156318994Y-52445944D01*
X156015948Y-53557112D01*
X156723055Y-52850005D01*
X156352666Y-53893829D02*
X157059773Y-53186722D01*
X157228131Y-53355081D01*
X157295475Y-53489768D01*
X157295475Y-53624455D01*
X157261803Y-53725470D01*
X157160788Y-53893829D01*
X157059773Y-53994844D01*
X156891414Y-54095860D01*
X156790399Y-54129531D01*
X156655712Y-54129531D01*
X156521025Y-54062188D01*
X156352666Y-53893829D01*
X166431933Y-52471580D02*
X166098600Y-51995390D01*
X165860504Y-52471580D02*
X165860504Y-51471580D01*
X166241457Y-51471580D01*
X166336695Y-51519200D01*
X166384314Y-51566819D01*
X166431933Y-51662057D01*
X166431933Y-51804914D01*
X166384314Y-51900152D01*
X166336695Y-51947771D01*
X166241457Y-51995390D01*
X165860504Y-51995390D01*
X167050980Y-51471580D02*
X167146219Y-51471580D01*
X167241457Y-51519200D01*
X167289076Y-51566819D01*
X167336695Y-51662057D01*
X167384314Y-51852533D01*
X167384314Y-52090628D01*
X167336695Y-52281104D01*
X167289076Y-52376342D01*
X167241457Y-52423961D01*
X167146219Y-52471580D01*
X167050980Y-52471580D01*
X166955742Y-52423961D01*
X166908123Y-52376342D01*
X166860504Y-52281104D01*
X166812885Y-52090628D01*
X166812885Y-51852533D01*
X166860504Y-51662057D01*
X166908123Y-51566819D01*
X166955742Y-51519200D01*
X167050980Y-51471580D01*
X168376695Y-51471580D02*
X168948123Y-51471580D01*
X168662409Y-52471580D02*
X168662409Y-51471580D01*
X169471933Y-51471580D02*
X169567171Y-51471580D01*
X169662409Y-51519200D01*
X169710028Y-51566819D01*
X169757647Y-51662057D01*
X169805266Y-51852533D01*
X169805266Y-52090628D01*
X169757647Y-52281104D01*
X169710028Y-52376342D01*
X169662409Y-52423961D01*
X169567171Y-52471580D01*
X169471933Y-52471580D01*
X169376695Y-52423961D01*
X169329076Y-52376342D01*
X169281457Y-52281104D01*
X169233838Y-52090628D01*
X169233838Y-51852533D01*
X169281457Y-51662057D01*
X169329076Y-51566819D01*
X169376695Y-51519200D01*
X169471933Y-51471580D01*
X181397613Y-98699580D02*
X181064280Y-98223390D01*
X180826184Y-98699580D02*
X180826184Y-97699580D01*
X181207137Y-97699580D01*
X181302375Y-97747200D01*
X181349994Y-97794819D01*
X181397613Y-97890057D01*
X181397613Y-98032914D01*
X181349994Y-98128152D01*
X181302375Y-98175771D01*
X181207137Y-98223390D01*
X180826184Y-98223390D01*
X181778565Y-97794819D02*
X181826184Y-97747200D01*
X181921422Y-97699580D01*
X182159518Y-97699580D01*
X182254756Y-97747200D01*
X182302375Y-97794819D01*
X182349994Y-97890057D01*
X182349994Y-97985295D01*
X182302375Y-98128152D01*
X181730946Y-98699580D01*
X182349994Y-98699580D01*
X183342375Y-97699580D02*
X183913803Y-97699580D01*
X183628089Y-98699580D02*
X183628089Y-97699580D01*
X184199518Y-97794819D02*
X184247137Y-97747200D01*
X184342375Y-97699580D01*
X184580470Y-97699580D01*
X184675708Y-97747200D01*
X184723327Y-97794819D01*
X184770946Y-97890057D01*
X184770946Y-97985295D01*
X184723327Y-98128152D01*
X184151899Y-98699580D01*
X184770946Y-98699580D01*
X178303323Y-52471580D02*
X178303323Y-51471580D01*
X178541419Y-51471580D01*
X178684276Y-51519200D01*
X178779514Y-51614438D01*
X178827133Y-51709676D01*
X178874752Y-51900152D01*
X178874752Y-52043009D01*
X178827133Y-52233485D01*
X178779514Y-52328723D01*
X178684276Y-52423961D01*
X178541419Y-52471580D01*
X178303323Y-52471580D01*
X179255704Y-52185866D02*
X179731895Y-52185866D01*
X179160466Y-52471580D02*
X179493800Y-51471580D01*
X179827133Y-52471580D01*
X180889043Y-52471580D02*
X180889043Y-51471580D01*
X181127139Y-51471580D01*
X181269996Y-51519200D01*
X181365234Y-51614438D01*
X181412853Y-51709676D01*
X181460472Y-51900152D01*
X181460472Y-52043009D01*
X181412853Y-52233485D01*
X181365234Y-52328723D01*
X181269996Y-52423961D01*
X181127139Y-52471580D01*
X180889043Y-52471580D01*
X181841424Y-52185866D02*
X182317615Y-52185866D01*
X181746186Y-52471580D02*
X182079520Y-51471580D01*
X182412853Y-52471580D01*
X183366184Y-52231586D02*
X183842375Y-52231586D01*
X183270946Y-52517300D02*
X183604280Y-51517300D01*
X183937613Y-52517300D01*
X184270946Y-52517300D02*
X184270946Y-51517300D01*
X184509041Y-51517300D01*
X184651899Y-51564920D01*
X184747137Y-51660158D01*
X184794756Y-51755396D01*
X184842375Y-51945872D01*
X184842375Y-52088729D01*
X184794756Y-52279205D01*
X184747137Y-52374443D01*
X184651899Y-52469681D01*
X184509041Y-52517300D01*
X184270946Y-52517300D01*
X186017944Y-52226506D02*
X186494135Y-52226506D01*
X185922706Y-52512220D02*
X186256040Y-51512220D01*
X186589373Y-52512220D01*
X186922706Y-52512220D02*
X186922706Y-51512220D01*
X187160801Y-51512220D01*
X187303659Y-51559840D01*
X187398897Y-51655078D01*
X187446516Y-51750316D01*
X187494135Y-51940792D01*
X187494135Y-52083649D01*
X187446516Y-52274125D01*
X187398897Y-52369363D01*
X187303659Y-52464601D01*
X187160801Y-52512220D01*
X186922706Y-52512220D01*
X170452772Y-50974632D02*
X170520116Y-51109319D01*
X170688475Y-51277678D01*
X170789490Y-51311350D01*
X170856833Y-51311350D01*
X170957849Y-51277678D01*
X171025192Y-51210334D01*
X171058864Y-51109319D01*
X171058864Y-51041976D01*
X171025192Y-50940960D01*
X170924177Y-50772602D01*
X170890505Y-50671586D01*
X170890505Y-50604243D01*
X170924177Y-50503228D01*
X170991520Y-50435884D01*
X171092536Y-50402212D01*
X171159879Y-50402212D01*
X171260894Y-50435884D01*
X171429253Y-50604243D01*
X171496597Y-50738930D01*
X171597612Y-52052128D02*
X171530268Y-52052128D01*
X171395581Y-51984785D01*
X171328238Y-51917441D01*
X171260894Y-51782754D01*
X171260894Y-51648067D01*
X171294566Y-51547052D01*
X171395581Y-51378693D01*
X171496597Y-51277678D01*
X171664955Y-51176663D01*
X171765971Y-51142991D01*
X171900658Y-51142991D01*
X172035345Y-51210334D01*
X172102688Y-51277678D01*
X172170032Y-51412365D01*
X172170032Y-51479708D01*
X171833314Y-52422517D02*
X172540421Y-51715411D01*
X172237375Y-52826578D02*
X172338390Y-52119472D01*
X172944482Y-52119472D02*
X172136360Y-52119472D01*
X171254443Y-54163220D02*
X170683015Y-54163220D01*
X170968729Y-54163220D02*
X170968729Y-53163220D01*
X170873491Y-53306078D01*
X170778253Y-53401316D01*
X170683015Y-53448935D01*
X171825872Y-53591792D02*
X171730634Y-53544173D01*
X171683015Y-53496554D01*
X171635396Y-53401316D01*
X171635396Y-53353697D01*
X171683015Y-53258459D01*
X171730634Y-53210840D01*
X171825872Y-53163220D01*
X172016348Y-53163220D01*
X172111586Y-53210840D01*
X172159205Y-53258459D01*
X172206824Y-53353697D01*
X172206824Y-53401316D01*
X172159205Y-53496554D01*
X172111586Y-53544173D01*
X172016348Y-53591792D01*
X171825872Y-53591792D01*
X171730634Y-53639411D01*
X171683015Y-53687030D01*
X171635396Y-53782268D01*
X171635396Y-53972744D01*
X171683015Y-54067982D01*
X171730634Y-54115601D01*
X171825872Y-54163220D01*
X172016348Y-54163220D01*
X172111586Y-54115601D01*
X172159205Y-54067982D01*
X172206824Y-53972744D01*
X172206824Y-53782268D01*
X172159205Y-53687030D01*
X172111586Y-53639411D01*
X172016348Y-53591792D01*
X175632217Y-52512220D02*
X175632217Y-51512220D01*
X175965550Y-52226506D01*
X176298883Y-51512220D01*
X176298883Y-52512220D01*
X176965550Y-51512220D02*
X177156026Y-51512220D01*
X177251264Y-51559840D01*
X177346502Y-51655078D01*
X177394121Y-51845554D01*
X177394121Y-52178887D01*
X177346502Y-52369363D01*
X177251264Y-52464601D01*
X177156026Y-52512220D01*
X176965550Y-52512220D01*
X176870312Y-52464601D01*
X176775074Y-52369363D01*
X176727455Y-52178887D01*
X176727455Y-51845554D01*
X176775074Y-51655078D01*
X176870312Y-51559840D01*
X176965550Y-51512220D01*
X173835083Y-54193700D02*
X173263655Y-54193700D01*
X173549369Y-54193700D02*
X173549369Y-53193700D01*
X173454131Y-53336558D01*
X173358893Y-53431796D01*
X173263655Y-53479415D01*
X174311274Y-54193700D02*
X174501750Y-54193700D01*
X174596988Y-54146081D01*
X174644607Y-54098462D01*
X174739845Y-53955605D01*
X174787464Y-53765129D01*
X174787464Y-53384177D01*
X174739845Y-53288939D01*
X174692226Y-53241320D01*
X174596988Y-53193700D01*
X174406512Y-53193700D01*
X174311274Y-53241320D01*
X174263655Y-53288939D01*
X174216036Y-53384177D01*
X174216036Y-53622272D01*
X174263655Y-53717510D01*
X174311274Y-53765129D01*
X174406512Y-53812748D01*
X174596988Y-53812748D01*
X174692226Y-53765129D01*
X174739845Y-53717510D01*
X174787464Y-53622272D01*
X175727455Y-53258459D02*
X175775074Y-53210840D01*
X175870312Y-53163220D01*
X176108407Y-53163220D01*
X176203645Y-53210840D01*
X176251264Y-53258459D01*
X176298883Y-53353697D01*
X176298883Y-53448935D01*
X176251264Y-53591792D01*
X175679836Y-54163220D01*
X176298883Y-54163220D01*
X176632217Y-53163220D02*
X177251264Y-53163220D01*
X176917931Y-53544173D01*
X177060788Y-53544173D01*
X177156026Y-53591792D01*
X177203645Y-53639411D01*
X177251264Y-53734649D01*
X177251264Y-53972744D01*
X177203645Y-54067982D01*
X177156026Y-54115601D01*
X177060788Y-54163220D01*
X176775074Y-54163220D01*
X176679836Y-54115601D01*
X176632217Y-54067982D01*
X173479531Y-52512220D02*
X173479531Y-51512220D01*
X173812864Y-52226506D01*
X174146198Y-51512220D01*
X174146198Y-52512220D01*
X174622388Y-52512220D02*
X174622388Y-51512220D01*
X163027116Y-50955616D02*
X163094459Y-51090303D01*
X163262818Y-51258661D01*
X163363833Y-51292333D01*
X163431177Y-51292333D01*
X163532192Y-51258661D01*
X163599536Y-51191318D01*
X163633207Y-51090303D01*
X163633207Y-51022959D01*
X163599536Y-50921944D01*
X163498520Y-50753585D01*
X163464849Y-50652570D01*
X163464849Y-50585226D01*
X163498520Y-50484211D01*
X163565864Y-50416868D01*
X163666879Y-50383196D01*
X163734223Y-50383196D01*
X163835238Y-50416868D01*
X164003597Y-50585226D01*
X164070940Y-50719913D01*
X164171955Y-52033112D02*
X164104612Y-52033112D01*
X163969925Y-51965768D01*
X163902581Y-51898425D01*
X163835238Y-51763738D01*
X163835238Y-51629051D01*
X163868910Y-51528035D01*
X163969925Y-51359677D01*
X164070940Y-51258661D01*
X164239299Y-51157646D01*
X164340314Y-51123974D01*
X164475001Y-51123974D01*
X164609688Y-51191318D01*
X164677032Y-51258661D01*
X164744375Y-51393348D01*
X164744375Y-51460692D01*
X164744375Y-52740218D02*
X164407658Y-52403501D01*
X165114764Y-51696394D01*
X160470280Y-50938780D02*
X160537623Y-51073467D01*
X160705982Y-51241825D01*
X160806997Y-51275497D01*
X160874341Y-51275497D01*
X160975356Y-51241825D01*
X161042700Y-51174482D01*
X161076371Y-51073467D01*
X161076371Y-51006123D01*
X161042700Y-50905108D01*
X160941684Y-50736749D01*
X160908013Y-50635734D01*
X160908013Y-50568390D01*
X160941684Y-50467375D01*
X161009028Y-50400032D01*
X161110043Y-50366360D01*
X161177387Y-50366360D01*
X161278402Y-50400032D01*
X161446761Y-50568390D01*
X161514104Y-50703077D01*
X161143715Y-51679558D02*
X161850822Y-50972451D01*
X162019181Y-51140810D01*
X162086524Y-51275497D01*
X162086524Y-51410184D01*
X162052852Y-51511199D01*
X161951837Y-51679558D01*
X161850822Y-51780574D01*
X161682463Y-51881589D01*
X161581448Y-51915261D01*
X161446761Y-51915261D01*
X161312074Y-51847917D01*
X161143715Y-51679558D01*
X162019181Y-52150963D02*
X162355898Y-52487680D01*
X161749807Y-52285650D02*
X162692616Y-51814245D01*
X162221211Y-52757054D01*
X186044279Y-96070109D02*
X186482012Y-96507842D01*
X185976936Y-96541513D01*
X186077951Y-96642529D01*
X186111623Y-96743544D01*
X186111623Y-96810887D01*
X186077951Y-96911903D01*
X185909592Y-97080261D01*
X185808577Y-97113933D01*
X185741233Y-97113933D01*
X185640218Y-97080261D01*
X185438188Y-96878231D01*
X185404516Y-96777216D01*
X185404516Y-96709872D01*
X186684042Y-96709872D02*
X186212638Y-97652681D01*
X187155447Y-97181277D01*
X187323806Y-97349635D02*
X187761538Y-97787368D01*
X187256462Y-97821040D01*
X187357477Y-97922055D01*
X187391149Y-98023070D01*
X187391149Y-98090414D01*
X187357477Y-98191429D01*
X187189119Y-98359788D01*
X187088103Y-98393460D01*
X187020760Y-98393460D01*
X186919745Y-98359788D01*
X186717714Y-98157757D01*
X186684042Y-98056742D01*
X186684042Y-97989399D01*
X163129055Y-53283859D02*
X163176674Y-53236240D01*
X163271912Y-53188620D01*
X163510007Y-53188620D01*
X163605245Y-53236240D01*
X163652864Y-53283859D01*
X163700483Y-53379097D01*
X163700483Y-53474335D01*
X163652864Y-53617192D01*
X163081436Y-54188620D01*
X163700483Y-54188620D01*
X164081436Y-53283859D02*
X164129055Y-53236240D01*
X164224293Y-53188620D01*
X164462388Y-53188620D01*
X164557626Y-53236240D01*
X164605245Y-53283859D01*
X164652864Y-53379097D01*
X164652864Y-53474335D01*
X164605245Y-53617192D01*
X164033817Y-54188620D01*
X164652864Y-54188620D01*
X189014325Y-96313498D02*
X188980653Y-96212483D01*
X188879638Y-96111468D01*
X188744951Y-96044124D01*
X188610264Y-96044124D01*
X188509249Y-96077796D01*
X188340890Y-96178811D01*
X188239875Y-96279826D01*
X188138859Y-96448185D01*
X188105188Y-96549200D01*
X188105188Y-96683887D01*
X188172531Y-96818574D01*
X188239875Y-96885918D01*
X188374562Y-96953261D01*
X188441905Y-96953261D01*
X188677607Y-96717559D01*
X188542920Y-96582872D01*
X188677607Y-97323651D02*
X189384714Y-96616544D01*
X189081668Y-97727712D01*
X189788775Y-97020605D01*
X189418386Y-98064429D02*
X190125493Y-97357322D01*
X190293851Y-97525681D01*
X190361195Y-97660368D01*
X190361195Y-97795055D01*
X190327523Y-97896070D01*
X190226508Y-98064429D01*
X190125493Y-98165444D01*
X189957134Y-98266460D01*
X189856119Y-98300131D01*
X189721432Y-98300131D01*
X189586745Y-98232788D01*
X189418386Y-98064429D01*
D12*
X160589055Y-53283859D02*
X160636674Y-53236240D01*
X160731912Y-53188620D01*
X160970007Y-53188620D01*
X161065245Y-53236240D01*
X161112864Y-53283859D01*
X161160483Y-53379097D01*
X161160483Y-53474335D01*
X161112864Y-53617192D01*
X160541436Y-54188620D01*
X161160483Y-54188620D01*
X162112864Y-54188620D02*
X161541436Y-54188620D01*
X161827150Y-54188620D02*
X161827150Y-53188620D01*
X161731912Y-53331478D01*
X161636674Y-53426716D01*
X161541436Y-53474335D01*
D10*
X185946516Y-53163220D02*
X186565563Y-53163220D01*
X186232230Y-53544173D01*
X186375087Y-53544173D01*
X186470325Y-53591792D01*
X186517944Y-53639411D01*
X186565563Y-53734649D01*
X186565563Y-53972744D01*
X186517944Y-54067982D01*
X186470325Y-54115601D01*
X186375087Y-54163220D01*
X186089373Y-54163220D01*
X185994135Y-54115601D01*
X185946516Y-54067982D01*
X187422706Y-53163220D02*
X187232230Y-53163220D01*
X187136992Y-53210840D01*
X187089373Y-53258459D01*
X186994135Y-53401316D01*
X186946516Y-53591792D01*
X186946516Y-53972744D01*
X186994135Y-54067982D01*
X187041754Y-54115601D01*
X187136992Y-54163220D01*
X187327468Y-54163220D01*
X187422706Y-54115601D01*
X187470325Y-54067982D01*
X187517944Y-53972744D01*
X187517944Y-53734649D01*
X187470325Y-53639411D01*
X187422706Y-53591792D01*
X187327468Y-53544173D01*
X187136992Y-53544173D01*
X187041754Y-53591792D01*
X186994135Y-53639411D01*
X186946516Y-53734649D01*
X158327799Y-51772509D02*
X158765532Y-52210242D01*
X158260456Y-52243913D01*
X158361471Y-52344929D01*
X158395143Y-52445944D01*
X158395143Y-52513287D01*
X158361471Y-52614303D01*
X158193112Y-52782661D01*
X158092097Y-52816333D01*
X158024753Y-52816333D01*
X157923738Y-52782661D01*
X157721708Y-52580631D01*
X157688036Y-52479616D01*
X157688036Y-52412272D01*
X158967562Y-52412272D02*
X158496158Y-53355081D01*
X159438967Y-52883677D01*
X159607326Y-53052035D02*
X160045058Y-53489768D01*
X159539982Y-53523440D01*
X159640997Y-53624455D01*
X159674669Y-53725470D01*
X159674669Y-53792814D01*
X159640997Y-53893829D01*
X159472639Y-54062188D01*
X159371623Y-54095860D01*
X159304280Y-54095860D01*
X159203265Y-54062188D01*
X159001234Y-53860157D01*
X158967562Y-53759142D01*
X158967562Y-53691799D01*
X183294756Y-53168300D02*
X183913803Y-53168300D01*
X183580470Y-53549253D01*
X183723327Y-53549253D01*
X183818565Y-53596872D01*
X183866184Y-53644491D01*
X183913803Y-53739729D01*
X183913803Y-53977824D01*
X183866184Y-54073062D01*
X183818565Y-54120681D01*
X183723327Y-54168300D01*
X183437613Y-54168300D01*
X183342375Y-54120681D01*
X183294756Y-54073062D01*
X184818565Y-53168300D02*
X184342375Y-53168300D01*
X184294756Y-53644491D01*
X184342375Y-53596872D01*
X184437613Y-53549253D01*
X184675708Y-53549253D01*
X184770946Y-53596872D01*
X184818565Y-53644491D01*
X184866184Y-53739729D01*
X184866184Y-53977824D01*
X184818565Y-54073062D01*
X184770946Y-54120681D01*
X184675708Y-54168300D01*
X184437613Y-54168300D01*
X184342375Y-54120681D01*
X184294756Y-54073062D01*
X158080475Y-96699420D02*
X158147818Y-96834107D01*
X158147818Y-96901450D01*
X158114147Y-97002465D01*
X158013131Y-97103481D01*
X157912116Y-97137152D01*
X157844773Y-97137152D01*
X157743757Y-97103481D01*
X157474383Y-96834107D01*
X158181490Y-96127000D01*
X158417192Y-96362702D01*
X158450864Y-96463717D01*
X158450864Y-96531061D01*
X158417192Y-96632076D01*
X158349849Y-96699420D01*
X158248834Y-96733091D01*
X158181490Y-96733091D01*
X158080475Y-96699420D01*
X157844773Y-96463717D01*
X158349849Y-97305511D02*
X158686567Y-97642229D01*
X158080475Y-97440198D02*
X159023284Y-96968794D01*
X158551880Y-97911603D01*
X159393673Y-97339183D02*
X159797734Y-97743244D01*
X158888597Y-98248320D02*
X159595704Y-97541214D01*
X188660053Y-53054216D02*
X188761068Y-52481796D01*
X188255992Y-52650155D02*
X188963098Y-51943048D01*
X189232472Y-52212422D01*
X189266144Y-52313437D01*
X189266144Y-52380781D01*
X189232472Y-52481796D01*
X189131457Y-52582811D01*
X189030442Y-52616483D01*
X188963098Y-52616483D01*
X188862083Y-52582811D01*
X188592709Y-52313437D01*
X188963098Y-53289918D02*
X189030442Y-53424605D01*
X189198801Y-53592964D01*
X189299816Y-53626636D01*
X189367159Y-53626636D01*
X189468175Y-53592964D01*
X189535518Y-53525621D01*
X189569190Y-53424605D01*
X189569190Y-53357262D01*
X189535518Y-53256247D01*
X189434503Y-53087888D01*
X189400831Y-52986872D01*
X189400831Y-52919529D01*
X189434503Y-52818514D01*
X189501847Y-52751170D01*
X189602862Y-52717498D01*
X189670205Y-52717498D01*
X189771221Y-52751170D01*
X189939579Y-52919529D01*
X190006923Y-53054216D01*
X190242625Y-53222575D02*
X190646686Y-53626636D01*
X189737549Y-54131712D02*
X190444656Y-53424605D01*
X160972523Y-96079060D02*
X160496333Y-96079060D01*
X160448714Y-96555251D01*
X160496333Y-96507632D01*
X160591571Y-96460013D01*
X160829666Y-96460013D01*
X160924904Y-96507632D01*
X160972523Y-96555251D01*
X161020142Y-96650489D01*
X161020142Y-96888584D01*
X160972523Y-96983822D01*
X160924904Y-97031441D01*
X160829666Y-97079060D01*
X160591571Y-97079060D01*
X160496333Y-97031441D01*
X160448714Y-96983822D01*
X161305857Y-96079060D02*
X161639190Y-97079060D01*
X161972523Y-96079060D01*
X180817615Y-53217819D02*
X180865234Y-53170200D01*
X180960472Y-53122580D01*
X181198567Y-53122580D01*
X181293805Y-53170200D01*
X181341424Y-53217819D01*
X181389043Y-53313057D01*
X181389043Y-53408295D01*
X181341424Y-53551152D01*
X180769996Y-54122580D01*
X181389043Y-54122580D01*
X182246186Y-53122580D02*
X182055710Y-53122580D01*
X181960472Y-53170200D01*
X181912853Y-53217819D01*
X181817615Y-53360676D01*
X181769996Y-53551152D01*
X181769996Y-53932104D01*
X181817615Y-54027342D01*
X181865234Y-54074961D01*
X181960472Y-54122580D01*
X182150948Y-54122580D01*
X182246186Y-54074961D01*
X182293805Y-54027342D01*
X182341424Y-53932104D01*
X182341424Y-53694009D01*
X182293805Y-53598771D01*
X182246186Y-53551152D01*
X182150948Y-53503533D01*
X181960472Y-53503533D01*
X181865234Y-53551152D01*
X181817615Y-53598771D01*
X181769996Y-53694009D01*
X178282695Y-53217819D02*
X178330314Y-53170200D01*
X178425552Y-53122580D01*
X178663647Y-53122580D01*
X178758885Y-53170200D01*
X178806504Y-53217819D01*
X178854123Y-53313057D01*
X178854123Y-53408295D01*
X178806504Y-53551152D01*
X178235076Y-54122580D01*
X178854123Y-54122580D01*
X179758885Y-53122580D02*
X179282695Y-53122580D01*
X179235076Y-53598771D01*
X179282695Y-53551152D01*
X179377933Y-53503533D01*
X179616028Y-53503533D01*
X179711266Y-53551152D01*
X179758885Y-53598771D01*
X179806504Y-53694009D01*
X179806504Y-53932104D01*
X179758885Y-54027342D01*
X179711266Y-54074961D01*
X179616028Y-54122580D01*
X179377933Y-54122580D01*
X179282695Y-54074961D01*
X179235076Y-54027342D01*
X179196335Y-96089220D02*
X178720144Y-96089220D01*
X178672525Y-96565411D01*
X178720144Y-96517792D01*
X178815382Y-96470173D01*
X179053478Y-96470173D01*
X179148716Y-96517792D01*
X179196335Y-96565411D01*
X179243954Y-96660649D01*
X179243954Y-96898744D01*
X179196335Y-96993982D01*
X179148716Y-97041601D01*
X179053478Y-97089220D01*
X178815382Y-97089220D01*
X178720144Y-97041601D01*
X178672525Y-96993982D01*
X176163005Y-96184459D02*
X176210624Y-96136840D01*
X176305862Y-96089220D01*
X176543958Y-96089220D01*
X176639196Y-96136840D01*
X176686815Y-96184459D01*
X176734434Y-96279697D01*
X176734434Y-96374935D01*
X176686815Y-96517792D01*
X176115386Y-97089220D01*
X176734434Y-97089220D01*
X183913803Y-97048580D02*
X183342375Y-97048580D01*
X183628089Y-97048580D02*
X183628089Y-96048580D01*
X183532851Y-96191438D01*
X183437613Y-96286676D01*
X183342375Y-96334295D01*
X184247137Y-96048580D02*
X184913803Y-96048580D01*
X184485232Y-97048580D01*
X181373803Y-97048580D02*
X180802375Y-97048580D01*
X181088089Y-97048580D02*
X181088089Y-96048580D01*
X180992851Y-96191438D01*
X180897613Y-96286676D01*
X180802375Y-96334295D01*
X182230946Y-96048580D02*
X182040470Y-96048580D01*
X181945232Y-96096200D01*
X181897613Y-96143819D01*
X181802375Y-96286676D01*
X181754756Y-96477152D01*
X181754756Y-96858104D01*
X181802375Y-96953342D01*
X181849994Y-97000961D01*
X181945232Y-97048580D01*
X182135708Y-97048580D01*
X182230946Y-97000961D01*
X182278565Y-96953342D01*
X182326184Y-96858104D01*
X182326184Y-96620009D01*
X182278565Y-96524771D01*
X182230946Y-96477152D01*
X182135708Y-96429533D01*
X181945232Y-96429533D01*
X181849994Y-96477152D01*
X181802375Y-96524771D01*
X181754756Y-96620009D01*
X169444634Y-54163220D02*
X168873205Y-54163220D01*
X169158920Y-54163220D02*
X169158920Y-53163220D01*
X169063681Y-53306078D01*
X168968443Y-53401316D01*
X168873205Y-53448935D01*
X166285586Y-53163220D02*
X166904634Y-53163220D01*
X166571300Y-53544173D01*
X166714158Y-53544173D01*
X166809396Y-53591792D01*
X166857015Y-53639411D01*
X166904634Y-53734649D01*
X166904634Y-53972744D01*
X166857015Y-54067982D01*
X166809396Y-54115601D01*
X166714158Y-54163220D01*
X166428443Y-54163220D01*
X166333205Y-54115601D01*
X166285586Y-54067982D01*
D13*
G04 #@! TO.C,REF\002A\002A*
G36*
X133967804Y-91653656D02*
X134043353Y-92054402D01*
X134600881Y-92284234D01*
X134935305Y-92056828D01*
X135028962Y-91993511D01*
X135113622Y-91936976D01*
X135185335Y-91889807D01*
X135240151Y-91854582D01*
X135274120Y-91833885D01*
X135283370Y-91829422D01*
X135300035Y-91840900D01*
X135335646Y-91872631D01*
X135386211Y-91920563D01*
X135447740Y-91980642D01*
X135516239Y-92048813D01*
X135587719Y-92121025D01*
X135658187Y-92193222D01*
X135723651Y-92261353D01*
X135780120Y-92321363D01*
X135823603Y-92369199D01*
X135850108Y-92400807D01*
X135856445Y-92411385D01*
X135847326Y-92430886D01*
X135821760Y-92473611D01*
X135782437Y-92535378D01*
X135732043Y-92612011D01*
X135673267Y-92699328D01*
X135639208Y-92749132D01*
X135577129Y-92840073D01*
X135521966Y-92922139D01*
X135476394Y-92991243D01*
X135443090Y-93043302D01*
X135424730Y-93074230D01*
X135421971Y-93080730D01*
X135428225Y-93099201D01*
X135445274Y-93142252D01*
X135470543Y-93203829D01*
X135501462Y-93277879D01*
X135535458Y-93358350D01*
X135569958Y-93439187D01*
X135602391Y-93514338D01*
X135630183Y-93577751D01*
X135650763Y-93623373D01*
X135661559Y-93645149D01*
X135662196Y-93646006D01*
X135679147Y-93650164D01*
X135724291Y-93659441D01*
X135792950Y-93672924D01*
X135880442Y-93689701D01*
X135982090Y-93708861D01*
X136041396Y-93719910D01*
X136150012Y-93740590D01*
X136248117Y-93760269D01*
X136330749Y-93777869D01*
X136392944Y-93792313D01*
X136429739Y-93802526D01*
X136437136Y-93805766D01*
X136444380Y-93827697D01*
X136450225Y-93877227D01*
X136454675Y-93948565D01*
X136457733Y-94035919D01*
X136459405Y-94133497D01*
X136459693Y-94235506D01*
X136458601Y-94336155D01*
X136456134Y-94429652D01*
X136452296Y-94510205D01*
X136447090Y-94572022D01*
X136440521Y-94609310D01*
X136436581Y-94617073D01*
X136413028Y-94626378D01*
X136363122Y-94639680D01*
X136293463Y-94655417D01*
X136210653Y-94672026D01*
X136181745Y-94677399D01*
X136042371Y-94702928D01*
X135932276Y-94723488D01*
X135847822Y-94739895D01*
X135785370Y-94752967D01*
X135741284Y-94763521D01*
X135711925Y-94772374D01*
X135693655Y-94780343D01*
X135682838Y-94788245D01*
X135681325Y-94789807D01*
X135666217Y-94814966D01*
X135643169Y-94863930D01*
X135614484Y-94930701D01*
X135582462Y-95009285D01*
X135549405Y-95093687D01*
X135517613Y-95177910D01*
X135489389Y-95255959D01*
X135467033Y-95321839D01*
X135452847Y-95369553D01*
X135449133Y-95393107D01*
X135449442Y-95393932D01*
X135462029Y-95413184D01*
X135490584Y-95455543D01*
X135532107Y-95516601D01*
X135583596Y-95591948D01*
X135642051Y-95677176D01*
X135658698Y-95701395D01*
X135718055Y-95789203D01*
X135770287Y-95869318D01*
X135812548Y-95937142D01*
X135841993Y-95988073D01*
X135855777Y-96017511D01*
X135856445Y-96021128D01*
X135844864Y-96040137D01*
X135812864Y-96077794D01*
X135764558Y-96130053D01*
X135704060Y-96192866D01*
X135635484Y-96262186D01*
X135562944Y-96333965D01*
X135490552Y-96404157D01*
X135422424Y-96468715D01*
X135362672Y-96523590D01*
X135315411Y-96564736D01*
X135284753Y-96588106D01*
X135276272Y-96591922D01*
X135256531Y-96582935D01*
X135216114Y-96558696D01*
X135161603Y-96523289D01*
X135119663Y-96494791D01*
X135043669Y-96442498D01*
X134953674Y-96380925D01*
X134863404Y-96319450D01*
X134814872Y-96286549D01*
X134650602Y-96175439D01*
X134512709Y-96249996D01*
X134449889Y-96282658D01*
X134396469Y-96308046D01*
X134360324Y-96322526D01*
X134351124Y-96324540D01*
X134340061Y-96309664D01*
X134318234Y-96267627D01*
X134287274Y-96202307D01*
X134248810Y-96117580D01*
X134204472Y-96017325D01*
X134155887Y-95905419D01*
X134104686Y-95785739D01*
X134052499Y-95662164D01*
X134000953Y-95538571D01*
X133951680Y-95418837D01*
X133906307Y-95306839D01*
X133866465Y-95206457D01*
X133833782Y-95121566D01*
X133809889Y-95056045D01*
X133796414Y-95013770D01*
X133794246Y-94999252D01*
X133811423Y-94980733D01*
X133849030Y-94950670D01*
X133899206Y-94915312D01*
X133903418Y-94912514D01*
X134033104Y-94808705D01*
X134137674Y-94687595D01*
X134216221Y-94553056D01*
X134267839Y-94408962D01*
X134291622Y-94259185D01*
X134286663Y-94107597D01*
X134252057Y-93958072D01*
X134186897Y-93814480D01*
X134167726Y-93783064D01*
X134068014Y-93656205D01*
X133950217Y-93554335D01*
X133818411Y-93477984D01*
X133676673Y-93427682D01*
X133529082Y-93403959D01*
X133379713Y-93407345D01*
X133232643Y-93438368D01*
X133091951Y-93497560D01*
X132961713Y-93585449D01*
X132921426Y-93621122D01*
X132818895Y-93732786D01*
X132744181Y-93850337D01*
X132692930Y-93982100D01*
X132664386Y-94112587D01*
X132657340Y-94259296D01*
X132680836Y-94406733D01*
X132732489Y-94549914D01*
X132809911Y-94683857D01*
X132910715Y-94803578D01*
X133032516Y-94904094D01*
X133048524Y-94914689D01*
X133099238Y-94949386D01*
X133137790Y-94979450D01*
X133156221Y-94998645D01*
X133156489Y-94999252D01*
X133152532Y-95020016D01*
X133136847Y-95067142D01*
X133111062Y-95136753D01*
X133076809Y-95224973D01*
X133035717Y-95327924D01*
X132989416Y-95441730D01*
X132939536Y-95562515D01*
X132887707Y-95686401D01*
X132835559Y-95809512D01*
X132784722Y-95927971D01*
X132736827Y-96037903D01*
X132693502Y-96135429D01*
X132656378Y-96216673D01*
X132627084Y-96277759D01*
X132607252Y-96314810D01*
X132599266Y-96324540D01*
X132574861Y-96316963D01*
X132529198Y-96296640D01*
X132470150Y-96267205D01*
X132437680Y-96249996D01*
X132299787Y-96175439D01*
X132135517Y-96286549D01*
X132051661Y-96343470D01*
X131959853Y-96406110D01*
X131873820Y-96465091D01*
X131830727Y-96494791D01*
X131770117Y-96535490D01*
X131718795Y-96567743D01*
X131683455Y-96587464D01*
X131671977Y-96591634D01*
X131655270Y-96580387D01*
X131618294Y-96548991D01*
X131564635Y-96500704D01*
X131497878Y-96438788D01*
X131421606Y-96366501D01*
X131373367Y-96320088D01*
X131288973Y-96237167D01*
X131216037Y-96163000D01*
X131157509Y-96100760D01*
X131116337Y-96053621D01*
X131095468Y-96024753D01*
X131093466Y-96018895D01*
X131102757Y-95996612D01*
X131128431Y-95951557D01*
X131167640Y-95888291D01*
X131217537Y-95811375D01*
X131275273Y-95725372D01*
X131291691Y-95701395D01*
X131351517Y-95614250D01*
X131405190Y-95535790D01*
X131449710Y-95470425D01*
X131482075Y-95422564D01*
X131499285Y-95396615D01*
X131500947Y-95393932D01*
X131498461Y-95373252D01*
X131485263Y-95327784D01*
X131463654Y-95263524D01*
X131435936Y-95186467D01*
X131404410Y-95102609D01*
X131371377Y-95017946D01*
X131339139Y-94938472D01*
X131309997Y-94870184D01*
X131286252Y-94819077D01*
X131270205Y-94791147D01*
X131269065Y-94789807D01*
X131259252Y-94781825D01*
X131242679Y-94773931D01*
X131215708Y-94765309D01*
X131174701Y-94755142D01*
X131116020Y-94742611D01*
X131036027Y-94726901D01*
X130931085Y-94707193D01*
X130797555Y-94682672D01*
X130768644Y-94677399D01*
X130682958Y-94660844D01*
X130608258Y-94644649D01*
X130551146Y-94630376D01*
X130518223Y-94619588D01*
X130513809Y-94617073D01*
X130506534Y-94594776D01*
X130500621Y-94544949D01*
X130496074Y-94473384D01*
X130492895Y-94385873D01*
X130491091Y-94288208D01*
X130490663Y-94186181D01*
X130491617Y-94085583D01*
X130493956Y-93992207D01*
X130497684Y-93911845D01*
X130502806Y-93850289D01*
X130509324Y-93813330D01*
X130513254Y-93805766D01*
X130535132Y-93798136D01*
X130584949Y-93785722D01*
X130657743Y-93769602D01*
X130748551Y-93750853D01*
X130852409Y-93730551D01*
X130908994Y-93719910D01*
X131016354Y-93699840D01*
X131112094Y-93681660D01*
X131191534Y-93666279D01*
X131249994Y-93654611D01*
X131282795Y-93647568D01*
X131288194Y-93646006D01*
X131297318Y-93628402D01*
X131316605Y-93585998D01*
X131343485Y-93524852D01*
X131375386Y-93451023D01*
X131409738Y-93370569D01*
X131443969Y-93289548D01*
X131475509Y-93214017D01*
X131501786Y-93150035D01*
X131520229Y-93103660D01*
X131528269Y-93080949D01*
X131528418Y-93079956D01*
X131519305Y-93062041D01*
X131493754Y-93020813D01*
X131454452Y-92960371D01*
X131404083Y-92884811D01*
X131345334Y-92798232D01*
X131311182Y-92748501D01*
X131248950Y-92657316D01*
X131193676Y-92574529D01*
X131148058Y-92504329D01*
X131114792Y-92450904D01*
X131096576Y-92418441D01*
X131093945Y-92411163D01*
X131105254Y-92394225D01*
X131136521Y-92358058D01*
X131183750Y-92306715D01*
X131242948Y-92244247D01*
X131310121Y-92174706D01*
X131381274Y-92102145D01*
X131452414Y-92030615D01*
X131519547Y-91964167D01*
X131578679Y-91906854D01*
X131625815Y-91862727D01*
X131656963Y-91835839D01*
X131667383Y-91829422D01*
X131684349Y-91838445D01*
X131724929Y-91863795D01*
X131785177Y-91902890D01*
X131861147Y-91953151D01*
X131948894Y-92011997D01*
X132015084Y-92056828D01*
X132349508Y-92284234D01*
X132628273Y-92169318D01*
X132907037Y-92054402D01*
X132982586Y-91653656D01*
X133058134Y-91252909D01*
X133892255Y-91252909D01*
X133967804Y-91653656D01*
X133967804Y-91653656D01*
G37*
X133967804Y-91653656D02*
X134043353Y-92054402D01*
X134600881Y-92284234D01*
X134935305Y-92056828D01*
X135028962Y-91993511D01*
X135113622Y-91936976D01*
X135185335Y-91889807D01*
X135240151Y-91854582D01*
X135274120Y-91833885D01*
X135283370Y-91829422D01*
X135300035Y-91840900D01*
X135335646Y-91872631D01*
X135386211Y-91920563D01*
X135447740Y-91980642D01*
X135516239Y-92048813D01*
X135587719Y-92121025D01*
X135658187Y-92193222D01*
X135723651Y-92261353D01*
X135780120Y-92321363D01*
X135823603Y-92369199D01*
X135850108Y-92400807D01*
X135856445Y-92411385D01*
X135847326Y-92430886D01*
X135821760Y-92473611D01*
X135782437Y-92535378D01*
X135732043Y-92612011D01*
X135673267Y-92699328D01*
X135639208Y-92749132D01*
X135577129Y-92840073D01*
X135521966Y-92922139D01*
X135476394Y-92991243D01*
X135443090Y-93043302D01*
X135424730Y-93074230D01*
X135421971Y-93080730D01*
X135428225Y-93099201D01*
X135445274Y-93142252D01*
X135470543Y-93203829D01*
X135501462Y-93277879D01*
X135535458Y-93358350D01*
X135569958Y-93439187D01*
X135602391Y-93514338D01*
X135630183Y-93577751D01*
X135650763Y-93623373D01*
X135661559Y-93645149D01*
X135662196Y-93646006D01*
X135679147Y-93650164D01*
X135724291Y-93659441D01*
X135792950Y-93672924D01*
X135880442Y-93689701D01*
X135982090Y-93708861D01*
X136041396Y-93719910D01*
X136150012Y-93740590D01*
X136248117Y-93760269D01*
X136330749Y-93777869D01*
X136392944Y-93792313D01*
X136429739Y-93802526D01*
X136437136Y-93805766D01*
X136444380Y-93827697D01*
X136450225Y-93877227D01*
X136454675Y-93948565D01*
X136457733Y-94035919D01*
X136459405Y-94133497D01*
X136459693Y-94235506D01*
X136458601Y-94336155D01*
X136456134Y-94429652D01*
X136452296Y-94510205D01*
X136447090Y-94572022D01*
X136440521Y-94609310D01*
X136436581Y-94617073D01*
X136413028Y-94626378D01*
X136363122Y-94639680D01*
X136293463Y-94655417D01*
X136210653Y-94672026D01*
X136181745Y-94677399D01*
X136042371Y-94702928D01*
X135932276Y-94723488D01*
X135847822Y-94739895D01*
X135785370Y-94752967D01*
X135741284Y-94763521D01*
X135711925Y-94772374D01*
X135693655Y-94780343D01*
X135682838Y-94788245D01*
X135681325Y-94789807D01*
X135666217Y-94814966D01*
X135643169Y-94863930D01*
X135614484Y-94930701D01*
X135582462Y-95009285D01*
X135549405Y-95093687D01*
X135517613Y-95177910D01*
X135489389Y-95255959D01*
X135467033Y-95321839D01*
X135452847Y-95369553D01*
X135449133Y-95393107D01*
X135449442Y-95393932D01*
X135462029Y-95413184D01*
X135490584Y-95455543D01*
X135532107Y-95516601D01*
X135583596Y-95591948D01*
X135642051Y-95677176D01*
X135658698Y-95701395D01*
X135718055Y-95789203D01*
X135770287Y-95869318D01*
X135812548Y-95937142D01*
X135841993Y-95988073D01*
X135855777Y-96017511D01*
X135856445Y-96021128D01*
X135844864Y-96040137D01*
X135812864Y-96077794D01*
X135764558Y-96130053D01*
X135704060Y-96192866D01*
X135635484Y-96262186D01*
X135562944Y-96333965D01*
X135490552Y-96404157D01*
X135422424Y-96468715D01*
X135362672Y-96523590D01*
X135315411Y-96564736D01*
X135284753Y-96588106D01*
X135276272Y-96591922D01*
X135256531Y-96582935D01*
X135216114Y-96558696D01*
X135161603Y-96523289D01*
X135119663Y-96494791D01*
X135043669Y-96442498D01*
X134953674Y-96380925D01*
X134863404Y-96319450D01*
X134814872Y-96286549D01*
X134650602Y-96175439D01*
X134512709Y-96249996D01*
X134449889Y-96282658D01*
X134396469Y-96308046D01*
X134360324Y-96322526D01*
X134351124Y-96324540D01*
X134340061Y-96309664D01*
X134318234Y-96267627D01*
X134287274Y-96202307D01*
X134248810Y-96117580D01*
X134204472Y-96017325D01*
X134155887Y-95905419D01*
X134104686Y-95785739D01*
X134052499Y-95662164D01*
X134000953Y-95538571D01*
X133951680Y-95418837D01*
X133906307Y-95306839D01*
X133866465Y-95206457D01*
X133833782Y-95121566D01*
X133809889Y-95056045D01*
X133796414Y-95013770D01*
X133794246Y-94999252D01*
X133811423Y-94980733D01*
X133849030Y-94950670D01*
X133899206Y-94915312D01*
X133903418Y-94912514D01*
X134033104Y-94808705D01*
X134137674Y-94687595D01*
X134216221Y-94553056D01*
X134267839Y-94408962D01*
X134291622Y-94259185D01*
X134286663Y-94107597D01*
X134252057Y-93958072D01*
X134186897Y-93814480D01*
X134167726Y-93783064D01*
X134068014Y-93656205D01*
X133950217Y-93554335D01*
X133818411Y-93477984D01*
X133676673Y-93427682D01*
X133529082Y-93403959D01*
X133379713Y-93407345D01*
X133232643Y-93438368D01*
X133091951Y-93497560D01*
X132961713Y-93585449D01*
X132921426Y-93621122D01*
X132818895Y-93732786D01*
X132744181Y-93850337D01*
X132692930Y-93982100D01*
X132664386Y-94112587D01*
X132657340Y-94259296D01*
X132680836Y-94406733D01*
X132732489Y-94549914D01*
X132809911Y-94683857D01*
X132910715Y-94803578D01*
X133032516Y-94904094D01*
X133048524Y-94914689D01*
X133099238Y-94949386D01*
X133137790Y-94979450D01*
X133156221Y-94998645D01*
X133156489Y-94999252D01*
X133152532Y-95020016D01*
X133136847Y-95067142D01*
X133111062Y-95136753D01*
X133076809Y-95224973D01*
X133035717Y-95327924D01*
X132989416Y-95441730D01*
X132939536Y-95562515D01*
X132887707Y-95686401D01*
X132835559Y-95809512D01*
X132784722Y-95927971D01*
X132736827Y-96037903D01*
X132693502Y-96135429D01*
X132656378Y-96216673D01*
X132627084Y-96277759D01*
X132607252Y-96314810D01*
X132599266Y-96324540D01*
X132574861Y-96316963D01*
X132529198Y-96296640D01*
X132470150Y-96267205D01*
X132437680Y-96249996D01*
X132299787Y-96175439D01*
X132135517Y-96286549D01*
X132051661Y-96343470D01*
X131959853Y-96406110D01*
X131873820Y-96465091D01*
X131830727Y-96494791D01*
X131770117Y-96535490D01*
X131718795Y-96567743D01*
X131683455Y-96587464D01*
X131671977Y-96591634D01*
X131655270Y-96580387D01*
X131618294Y-96548991D01*
X131564635Y-96500704D01*
X131497878Y-96438788D01*
X131421606Y-96366501D01*
X131373367Y-96320088D01*
X131288973Y-96237167D01*
X131216037Y-96163000D01*
X131157509Y-96100760D01*
X131116337Y-96053621D01*
X131095468Y-96024753D01*
X131093466Y-96018895D01*
X131102757Y-95996612D01*
X131128431Y-95951557D01*
X131167640Y-95888291D01*
X131217537Y-95811375D01*
X131275273Y-95725372D01*
X131291691Y-95701395D01*
X131351517Y-95614250D01*
X131405190Y-95535790D01*
X131449710Y-95470425D01*
X131482075Y-95422564D01*
X131499285Y-95396615D01*
X131500947Y-95393932D01*
X131498461Y-95373252D01*
X131485263Y-95327784D01*
X131463654Y-95263524D01*
X131435936Y-95186467D01*
X131404410Y-95102609D01*
X131371377Y-95017946D01*
X131339139Y-94938472D01*
X131309997Y-94870184D01*
X131286252Y-94819077D01*
X131270205Y-94791147D01*
X131269065Y-94789807D01*
X131259252Y-94781825D01*
X131242679Y-94773931D01*
X131215708Y-94765309D01*
X131174701Y-94755142D01*
X131116020Y-94742611D01*
X131036027Y-94726901D01*
X130931085Y-94707193D01*
X130797555Y-94682672D01*
X130768644Y-94677399D01*
X130682958Y-94660844D01*
X130608258Y-94644649D01*
X130551146Y-94630376D01*
X130518223Y-94619588D01*
X130513809Y-94617073D01*
X130506534Y-94594776D01*
X130500621Y-94544949D01*
X130496074Y-94473384D01*
X130492895Y-94385873D01*
X130491091Y-94288208D01*
X130490663Y-94186181D01*
X130491617Y-94085583D01*
X130493956Y-93992207D01*
X130497684Y-93911845D01*
X130502806Y-93850289D01*
X130509324Y-93813330D01*
X130513254Y-93805766D01*
X130535132Y-93798136D01*
X130584949Y-93785722D01*
X130657743Y-93769602D01*
X130748551Y-93750853D01*
X130852409Y-93730551D01*
X130908994Y-93719910D01*
X131016354Y-93699840D01*
X131112094Y-93681660D01*
X131191534Y-93666279D01*
X131249994Y-93654611D01*
X131282795Y-93647568D01*
X131288194Y-93646006D01*
X131297318Y-93628402D01*
X131316605Y-93585998D01*
X131343485Y-93524852D01*
X131375386Y-93451023D01*
X131409738Y-93370569D01*
X131443969Y-93289548D01*
X131475509Y-93214017D01*
X131501786Y-93150035D01*
X131520229Y-93103660D01*
X131528269Y-93080949D01*
X131528418Y-93079956D01*
X131519305Y-93062041D01*
X131493754Y-93020813D01*
X131454452Y-92960371D01*
X131404083Y-92884811D01*
X131345334Y-92798232D01*
X131311182Y-92748501D01*
X131248950Y-92657316D01*
X131193676Y-92574529D01*
X131148058Y-92504329D01*
X131114792Y-92450904D01*
X131096576Y-92418441D01*
X131093945Y-92411163D01*
X131105254Y-92394225D01*
X131136521Y-92358058D01*
X131183750Y-92306715D01*
X131242948Y-92244247D01*
X131310121Y-92174706D01*
X131381274Y-92102145D01*
X131452414Y-92030615D01*
X131519547Y-91964167D01*
X131578679Y-91906854D01*
X131625815Y-91862727D01*
X131656963Y-91835839D01*
X131667383Y-91829422D01*
X131684349Y-91838445D01*
X131724929Y-91863795D01*
X131785177Y-91902890D01*
X131861147Y-91953151D01*
X131948894Y-92011997D01*
X132015084Y-92056828D01*
X132349508Y-92284234D01*
X132628273Y-92169318D01*
X132907037Y-92054402D01*
X132982586Y-91653656D01*
X133058134Y-91252909D01*
X133892255Y-91252909D01*
X133967804Y-91653656D01*
G36*
X135858228Y-97192725D02*
X135915705Y-97210286D01*
X135952712Y-97232475D01*
X135964767Y-97250022D01*
X135961449Y-97270822D01*
X135939919Y-97303499D01*
X135921714Y-97326642D01*
X135884184Y-97368482D01*
X135855988Y-97386085D01*
X135831951Y-97384936D01*
X135760648Y-97366790D01*
X135708282Y-97367614D01*
X135665758Y-97388178D01*
X135651482Y-97400214D01*
X135605787Y-97442563D01*
X135605787Y-97995606D01*
X135421971Y-97995606D01*
X135421971Y-97193501D01*
X135513879Y-97193501D01*
X135569059Y-97195683D01*
X135597528Y-97203431D01*
X135605783Y-97218548D01*
X135605787Y-97218996D01*
X135609685Y-97234829D01*
X135627314Y-97232764D01*
X135651741Y-97221341D01*
X135702190Y-97200085D01*
X135743156Y-97187296D01*
X135795868Y-97184018D01*
X135858228Y-97192725D01*
X135858228Y-97192725D01*
G37*
X135858228Y-97192725D02*
X135915705Y-97210286D01*
X135952712Y-97232475D01*
X135964767Y-97250022D01*
X135961449Y-97270822D01*
X135939919Y-97303499D01*
X135921714Y-97326642D01*
X135884184Y-97368482D01*
X135855988Y-97386085D01*
X135831951Y-97384936D01*
X135760648Y-97366790D01*
X135708282Y-97367614D01*
X135665758Y-97388178D01*
X135651482Y-97400214D01*
X135605787Y-97442563D01*
X135605787Y-97995606D01*
X135421971Y-97995606D01*
X135421971Y-97193501D01*
X135513879Y-97193501D01*
X135569059Y-97195683D01*
X135597528Y-97203431D01*
X135605783Y-97218548D01*
X135605787Y-97218996D01*
X135609685Y-97234829D01*
X135627314Y-97232764D01*
X135651741Y-97221341D01*
X135702190Y-97200085D01*
X135743156Y-97187296D01*
X135795868Y-97184018D01*
X135858228Y-97192725D01*
G36*
X132464797Y-97207306D02*
X132506386Y-97227170D01*
X132546665Y-97255864D01*
X132577350Y-97288889D01*
X132599701Y-97331011D01*
X132614976Y-97386995D01*
X132624432Y-97461608D01*
X132629327Y-97559615D01*
X132630921Y-97685782D01*
X132630946Y-97698994D01*
X132631313Y-97995606D01*
X132447497Y-97995606D01*
X132447497Y-97722161D01*
X132447367Y-97620857D01*
X132446461Y-97547433D01*
X132444013Y-97496351D01*
X132439254Y-97462070D01*
X132431414Y-97439051D01*
X132419725Y-97421753D01*
X132403442Y-97404661D01*
X132346474Y-97367937D01*
X132284285Y-97361122D01*
X132225039Y-97384341D01*
X132204435Y-97401623D01*
X132189310Y-97417871D01*
X132178450Y-97435271D01*
X132171150Y-97459292D01*
X132166703Y-97495402D01*
X132164404Y-97549068D01*
X132163544Y-97625760D01*
X132163418Y-97719123D01*
X132163418Y-97995606D01*
X131979603Y-97995606D01*
X131979603Y-97193501D01*
X132071511Y-97193501D01*
X132126691Y-97195683D01*
X132155160Y-97203431D01*
X132163415Y-97218548D01*
X132163418Y-97218996D01*
X132167248Y-97233800D01*
X132184141Y-97232120D01*
X132217728Y-97215853D01*
X132293903Y-97191920D01*
X132381040Y-97189258D01*
X132464797Y-97207306D01*
X132464797Y-97207306D01*
G37*
X132464797Y-97207306D02*
X132506386Y-97227170D01*
X132546665Y-97255864D01*
X132577350Y-97288889D01*
X132599701Y-97331011D01*
X132614976Y-97386995D01*
X132624432Y-97461608D01*
X132629327Y-97559615D01*
X132630921Y-97685782D01*
X132630946Y-97698994D01*
X132631313Y-97995606D01*
X132447497Y-97995606D01*
X132447497Y-97722161D01*
X132447367Y-97620857D01*
X132446461Y-97547433D01*
X132444013Y-97496351D01*
X132439254Y-97462070D01*
X132431414Y-97439051D01*
X132419725Y-97421753D01*
X132403442Y-97404661D01*
X132346474Y-97367937D01*
X132284285Y-97361122D01*
X132225039Y-97384341D01*
X132204435Y-97401623D01*
X132189310Y-97417871D01*
X132178450Y-97435271D01*
X132171150Y-97459292D01*
X132166703Y-97495402D01*
X132164404Y-97549068D01*
X132163544Y-97625760D01*
X132163418Y-97719123D01*
X132163418Y-97995606D01*
X131979603Y-97995606D01*
X131979603Y-97193501D01*
X132071511Y-97193501D01*
X132126691Y-97195683D01*
X132155160Y-97203431D01*
X132163415Y-97218548D01*
X132163418Y-97218996D01*
X132167248Y-97233800D01*
X132184141Y-97232120D01*
X132217728Y-97215853D01*
X132293903Y-97191920D01*
X132381040Y-97189258D01*
X132464797Y-97207306D01*
G36*
X137025624Y-97190634D02*
X137068414Y-97201029D01*
X137150449Y-97239093D01*
X137220597Y-97297229D01*
X137269145Y-97366932D01*
X137275815Y-97382582D01*
X137284964Y-97423576D01*
X137291369Y-97484218D01*
X137293550Y-97545510D01*
X137293550Y-97661396D01*
X137051247Y-97661396D01*
X136951311Y-97661773D01*
X136880909Y-97664067D01*
X136836153Y-97670018D01*
X136813155Y-97681365D01*
X136808029Y-97699851D01*
X136816888Y-97727216D01*
X136832757Y-97759235D01*
X136877024Y-97812672D01*
X136938539Y-97839295D01*
X137013725Y-97838427D01*
X137098893Y-97809451D01*
X137172499Y-97773691D01*
X137233574Y-97821984D01*
X137294650Y-97870277D01*
X137237191Y-97923365D01*
X137160481Y-97973525D01*
X137066142Y-98003768D01*
X136964667Y-98012231D01*
X136866551Y-97997054D01*
X136850721Y-97991904D01*
X136764487Y-97946871D01*
X136700341Y-97879732D01*
X136656931Y-97788485D01*
X136632904Y-97671124D01*
X136632624Y-97668609D01*
X136630473Y-97540707D01*
X136639169Y-97495077D01*
X136808945Y-97495077D01*
X136824537Y-97502093D01*
X136866869Y-97507468D01*
X136929274Y-97510537D01*
X136968821Y-97511001D01*
X137042568Y-97510710D01*
X137088680Y-97508863D01*
X137112940Y-97503992D01*
X137121134Y-97494635D01*
X137119046Y-97479325D01*
X137117295Y-97473402D01*
X137087400Y-97417748D01*
X137040382Y-97372895D01*
X136998889Y-97353185D01*
X136943766Y-97354375D01*
X136887908Y-97378955D01*
X136841052Y-97419650D01*
X136812934Y-97469188D01*
X136808945Y-97495077D01*
X136639169Y-97495077D01*
X136651914Y-97428213D01*
X136694451Y-97333807D01*
X136755587Y-97260168D01*
X136832825Y-97209973D01*
X136923670Y-97185902D01*
X137025624Y-97190634D01*
X137025624Y-97190634D01*
G37*
X137025624Y-97190634D02*
X137068414Y-97201029D01*
X137150449Y-97239093D01*
X137220597Y-97297229D01*
X137269145Y-97366932D01*
X137275815Y-97382582D01*
X137284964Y-97423576D01*
X137291369Y-97484218D01*
X137293550Y-97545510D01*
X137293550Y-97661396D01*
X137051247Y-97661396D01*
X136951311Y-97661773D01*
X136880909Y-97664067D01*
X136836153Y-97670018D01*
X136813155Y-97681365D01*
X136808029Y-97699851D01*
X136816888Y-97727216D01*
X136832757Y-97759235D01*
X136877024Y-97812672D01*
X136938539Y-97839295D01*
X137013725Y-97838427D01*
X137098893Y-97809451D01*
X137172499Y-97773691D01*
X137233574Y-97821984D01*
X137294650Y-97870277D01*
X137237191Y-97923365D01*
X137160481Y-97973525D01*
X137066142Y-98003768D01*
X136964667Y-98012231D01*
X136866551Y-97997054D01*
X136850721Y-97991904D01*
X136764487Y-97946871D01*
X136700341Y-97879732D01*
X136656931Y-97788485D01*
X136632904Y-97671124D01*
X136632624Y-97668609D01*
X136630473Y-97540707D01*
X136639169Y-97495077D01*
X136808945Y-97495077D01*
X136824537Y-97502093D01*
X136866869Y-97507468D01*
X136929274Y-97510537D01*
X136968821Y-97511001D01*
X137042568Y-97510710D01*
X137088680Y-97508863D01*
X137112940Y-97503992D01*
X137121134Y-97494635D01*
X137119046Y-97479325D01*
X137117295Y-97473402D01*
X137087400Y-97417748D01*
X137040382Y-97372895D01*
X136998889Y-97353185D01*
X136943766Y-97354375D01*
X136887908Y-97378955D01*
X136841052Y-97419650D01*
X136812934Y-97469188D01*
X136808945Y-97495077D01*
X136639169Y-97495077D01*
X136651914Y-97428213D01*
X136694451Y-97333807D01*
X136755587Y-97260168D01*
X136832825Y-97209973D01*
X136923670Y-97185902D01*
X137025624Y-97190634D01*
G36*
X136413416Y-97200499D02*
X136510235Y-97241629D01*
X136540730Y-97261651D01*
X136579705Y-97292420D01*
X136604171Y-97316613D01*
X136608418Y-97324493D01*
X136596424Y-97341979D01*
X136565727Y-97371650D01*
X136541152Y-97392359D01*
X136473886Y-97446416D01*
X136420770Y-97401722D01*
X136379724Y-97372869D01*
X136339703Y-97362909D01*
X136293899Y-97365341D01*
X136221164Y-97383425D01*
X136171096Y-97420961D01*
X136140669Y-97481642D01*
X136126857Y-97569161D01*
X136126853Y-97569216D01*
X136128048Y-97667038D01*
X136146612Y-97738810D01*
X136183644Y-97787675D01*
X136208890Y-97804223D01*
X136275937Y-97824829D01*
X136347549Y-97824842D01*
X136409855Y-97804848D01*
X136424603Y-97795080D01*
X136461590Y-97770127D01*
X136490508Y-97766038D01*
X136521696Y-97784610D01*
X136556176Y-97817967D01*
X136610752Y-97874276D01*
X136550158Y-97924222D01*
X136456538Y-97980593D01*
X136350965Y-98008373D01*
X136240638Y-98006362D01*
X136168183Y-97987942D01*
X136083496Y-97942390D01*
X136015767Y-97870730D01*
X135984997Y-97820146D01*
X135960076Y-97747568D01*
X135947606Y-97655649D01*
X135947510Y-97556028D01*
X135959710Y-97460347D01*
X135984130Y-97380249D01*
X135987976Y-97372036D01*
X136044933Y-97291493D01*
X136122049Y-97232851D01*
X136213230Y-97197327D01*
X136312383Y-97186137D01*
X136413416Y-97200499D01*
X136413416Y-97200499D01*
G37*
X136413416Y-97200499D02*
X136510235Y-97241629D01*
X136540730Y-97261651D01*
X136579705Y-97292420D01*
X136604171Y-97316613D01*
X136608418Y-97324493D01*
X136596424Y-97341979D01*
X136565727Y-97371650D01*
X136541152Y-97392359D01*
X136473886Y-97446416D01*
X136420770Y-97401722D01*
X136379724Y-97372869D01*
X136339703Y-97362909D01*
X136293899Y-97365341D01*
X136221164Y-97383425D01*
X136171096Y-97420961D01*
X136140669Y-97481642D01*
X136126857Y-97569161D01*
X136126853Y-97569216D01*
X136128048Y-97667038D01*
X136146612Y-97738810D01*
X136183644Y-97787675D01*
X136208890Y-97804223D01*
X136275937Y-97824829D01*
X136347549Y-97824842D01*
X136409855Y-97804848D01*
X136424603Y-97795080D01*
X136461590Y-97770127D01*
X136490508Y-97766038D01*
X136521696Y-97784610D01*
X136556176Y-97817967D01*
X136610752Y-97874276D01*
X136550158Y-97924222D01*
X136456538Y-97980593D01*
X136350965Y-98008373D01*
X136240638Y-98006362D01*
X136168183Y-97987942D01*
X136083496Y-97942390D01*
X136015767Y-97870730D01*
X135984997Y-97820146D01*
X135960076Y-97747568D01*
X135947606Y-97655649D01*
X135947510Y-97556028D01*
X135959710Y-97460347D01*
X135984130Y-97380249D01*
X135987976Y-97372036D01*
X136044933Y-97291493D01*
X136122049Y-97232851D01*
X136213230Y-97197327D01*
X136312383Y-97186137D01*
X136413416Y-97200499D01*
G36*
X134786971Y-97453613D02*
X134788550Y-97576169D01*
X134794321Y-97669259D01*
X134805831Y-97736731D01*
X134824630Y-97782435D01*
X134852266Y-97810219D01*
X134890288Y-97823934D01*
X134937366Y-97827438D01*
X134986672Y-97823512D01*
X135024123Y-97809169D01*
X135051268Y-97780558D01*
X135069655Y-97733831D01*
X135080833Y-97665138D01*
X135086351Y-97570630D01*
X135087761Y-97453613D01*
X135087761Y-97193501D01*
X135271576Y-97193501D01*
X135271576Y-97995606D01*
X135179668Y-97995606D01*
X135124262Y-97993361D01*
X135095731Y-97985476D01*
X135087761Y-97970508D01*
X135082960Y-97957177D01*
X135063854Y-97959997D01*
X135025344Y-97978863D01*
X134937079Y-98007967D01*
X134843463Y-98005905D01*
X134753761Y-97974301D01*
X134711044Y-97949337D01*
X134678461Y-97922306D01*
X134654657Y-97888485D01*
X134638279Y-97843148D01*
X134627971Y-97781569D01*
X134622381Y-97699023D01*
X134620152Y-97590785D01*
X134619866Y-97507084D01*
X134619866Y-97193501D01*
X134786971Y-97193501D01*
X134786971Y-97453613D01*
X134786971Y-97453613D01*
G37*
X134786971Y-97453613D02*
X134788550Y-97576169D01*
X134794321Y-97669259D01*
X134805831Y-97736731D01*
X134824630Y-97782435D01*
X134852266Y-97810219D01*
X134890288Y-97823934D01*
X134937366Y-97827438D01*
X134986672Y-97823512D01*
X135024123Y-97809169D01*
X135051268Y-97780558D01*
X135069655Y-97733831D01*
X135080833Y-97665138D01*
X135086351Y-97570630D01*
X135087761Y-97453613D01*
X135087761Y-97193501D01*
X135271576Y-97193501D01*
X135271576Y-97995606D01*
X135179668Y-97995606D01*
X135124262Y-97993361D01*
X135095731Y-97985476D01*
X135087761Y-97970508D01*
X135082960Y-97957177D01*
X135063854Y-97959997D01*
X135025344Y-97978863D01*
X134937079Y-98007967D01*
X134843463Y-98005905D01*
X134753761Y-97974301D01*
X134711044Y-97949337D01*
X134678461Y-97922306D01*
X134654657Y-97888485D01*
X134638279Y-97843148D01*
X134627971Y-97781569D01*
X134622381Y-97699023D01*
X134620152Y-97590785D01*
X134619866Y-97507084D01*
X134619866Y-97193501D01*
X134786971Y-97193501D01*
X134786971Y-97453613D01*
G36*
X134278509Y-97203390D02*
X134363032Y-97249420D01*
X134429161Y-97322086D01*
X134460318Y-97381186D01*
X134473695Y-97433385D01*
X134482362Y-97507799D01*
X134486077Y-97593522D01*
X134484594Y-97679649D01*
X134477671Y-97755273D01*
X134469585Y-97795664D01*
X134442305Y-97850920D01*
X134395060Y-97909610D01*
X134338122Y-97960932D01*
X134281764Y-97994085D01*
X134280390Y-97994611D01*
X134210456Y-98009098D01*
X134127577Y-98009457D01*
X134048817Y-97996268D01*
X134018406Y-97985697D01*
X133940079Y-97941281D01*
X133883983Y-97883087D01*
X133847126Y-97806045D01*
X133826520Y-97705081D01*
X133821858Y-97652196D01*
X133822453Y-97585743D01*
X134001576Y-97585743D01*
X134007610Y-97682710D01*
X134024978Y-97756603D01*
X134052580Y-97803816D01*
X134072244Y-97817317D01*
X134122627Y-97826731D01*
X134182513Y-97823944D01*
X134234289Y-97810396D01*
X134247867Y-97802942D01*
X134283689Y-97759531D01*
X134307333Y-97693094D01*
X134317398Y-97612241D01*
X134312482Y-97525582D01*
X134301495Y-97473429D01*
X134269949Y-97413031D01*
X134220151Y-97375277D01*
X134160177Y-97362223D01*
X134098104Y-97375929D01*
X134050422Y-97409452D01*
X134025365Y-97437111D01*
X134010740Y-97464374D01*
X134003769Y-97501270D01*
X134001673Y-97557830D01*
X134001576Y-97585743D01*
X133822453Y-97585743D01*
X133823122Y-97511074D01*
X133846105Y-97395351D01*
X133890812Y-97305021D01*
X133957245Y-97240080D01*
X134045405Y-97200525D01*
X134064335Y-97195938D01*
X134178106Y-97185170D01*
X134278509Y-97203390D01*
X134278509Y-97203390D01*
G37*
X134278509Y-97203390D02*
X134363032Y-97249420D01*
X134429161Y-97322086D01*
X134460318Y-97381186D01*
X134473695Y-97433385D01*
X134482362Y-97507799D01*
X134486077Y-97593522D01*
X134484594Y-97679649D01*
X134477671Y-97755273D01*
X134469585Y-97795664D01*
X134442305Y-97850920D01*
X134395060Y-97909610D01*
X134338122Y-97960932D01*
X134281764Y-97994085D01*
X134280390Y-97994611D01*
X134210456Y-98009098D01*
X134127577Y-98009457D01*
X134048817Y-97996268D01*
X134018406Y-97985697D01*
X133940079Y-97941281D01*
X133883983Y-97883087D01*
X133847126Y-97806045D01*
X133826520Y-97705081D01*
X133821858Y-97652196D01*
X133822453Y-97585743D01*
X134001576Y-97585743D01*
X134007610Y-97682710D01*
X134024978Y-97756603D01*
X134052580Y-97803816D01*
X134072244Y-97817317D01*
X134122627Y-97826731D01*
X134182513Y-97823944D01*
X134234289Y-97810396D01*
X134247867Y-97802942D01*
X134283689Y-97759531D01*
X134307333Y-97693094D01*
X134317398Y-97612241D01*
X134312482Y-97525582D01*
X134301495Y-97473429D01*
X134269949Y-97413031D01*
X134220151Y-97375277D01*
X134160177Y-97362223D01*
X134098104Y-97375929D01*
X134050422Y-97409452D01*
X134025365Y-97437111D01*
X134010740Y-97464374D01*
X134003769Y-97501270D01*
X134001673Y-97557830D01*
X134001576Y-97585743D01*
X133822453Y-97585743D01*
X133823122Y-97511074D01*
X133846105Y-97395351D01*
X133890812Y-97305021D01*
X133957245Y-97240080D01*
X134045405Y-97200525D01*
X134064335Y-97195938D01*
X134178106Y-97185170D01*
X134278509Y-97203390D01*
G36*
X133485468Y-97190627D02*
X133548748Y-97202628D01*
X133614397Y-97227728D01*
X133621412Y-97230928D01*
X133671196Y-97257106D01*
X133705674Y-97281433D01*
X133716818Y-97297017D01*
X133706206Y-97322433D01*
X133680428Y-97359933D01*
X133668986Y-97373932D01*
X133621832Y-97429034D01*
X133561041Y-97393166D01*
X133503187Y-97369272D01*
X133436340Y-97356500D01*
X133372234Y-97355693D01*
X133322604Y-97367695D01*
X133310694Y-97375185D01*
X133288012Y-97409530D01*
X133285256Y-97449093D01*
X133302228Y-97480000D01*
X133312267Y-97485993D01*
X133342350Y-97493437D01*
X133395229Y-97502186D01*
X133460415Y-97510547D01*
X133472440Y-97511858D01*
X133577137Y-97529968D01*
X133653072Y-97560731D01*
X133703432Y-97606987D01*
X133731404Y-97671577D01*
X133740118Y-97750467D01*
X133728080Y-97840145D01*
X133688991Y-97910566D01*
X133622695Y-97961857D01*
X133529034Y-97994147D01*
X133425063Y-98006887D01*
X133340278Y-98006734D01*
X133271505Y-97995163D01*
X133224537Y-97979189D01*
X133165190Y-97951355D01*
X133110346Y-97919053D01*
X133090853Y-97904835D01*
X133040721Y-97863915D01*
X133161643Y-97741557D01*
X133230383Y-97787047D01*
X133299328Y-97821213D01*
X133372951Y-97839084D01*
X133443723Y-97840969D01*
X133504114Y-97827181D01*
X133546597Y-97798029D01*
X133560314Y-97773432D01*
X133558257Y-97733984D01*
X133524170Y-97703817D01*
X133458148Y-97682986D01*
X133385814Y-97673359D01*
X133274492Y-97654990D01*
X133191792Y-97620334D01*
X133136605Y-97568377D01*
X133107828Y-97498103D01*
X133103841Y-97414787D01*
X133123533Y-97327761D01*
X133168429Y-97261982D01*
X133238931Y-97217148D01*
X133335441Y-97192959D01*
X133406940Y-97188217D01*
X133485468Y-97190627D01*
X133485468Y-97190627D01*
G37*
X133485468Y-97190627D02*
X133548748Y-97202628D01*
X133614397Y-97227728D01*
X133621412Y-97230928D01*
X133671196Y-97257106D01*
X133705674Y-97281433D01*
X133716818Y-97297017D01*
X133706206Y-97322433D01*
X133680428Y-97359933D01*
X133668986Y-97373932D01*
X133621832Y-97429034D01*
X133561041Y-97393166D01*
X133503187Y-97369272D01*
X133436340Y-97356500D01*
X133372234Y-97355693D01*
X133322604Y-97367695D01*
X133310694Y-97375185D01*
X133288012Y-97409530D01*
X133285256Y-97449093D01*
X133302228Y-97480000D01*
X133312267Y-97485993D01*
X133342350Y-97493437D01*
X133395229Y-97502186D01*
X133460415Y-97510547D01*
X133472440Y-97511858D01*
X133577137Y-97529968D01*
X133653072Y-97560731D01*
X133703432Y-97606987D01*
X133731404Y-97671577D01*
X133740118Y-97750467D01*
X133728080Y-97840145D01*
X133688991Y-97910566D01*
X133622695Y-97961857D01*
X133529034Y-97994147D01*
X133425063Y-98006887D01*
X133340278Y-98006734D01*
X133271505Y-97995163D01*
X133224537Y-97979189D01*
X133165190Y-97951355D01*
X133110346Y-97919053D01*
X133090853Y-97904835D01*
X133040721Y-97863915D01*
X133161643Y-97741557D01*
X133230383Y-97787047D01*
X133299328Y-97821213D01*
X133372951Y-97839084D01*
X133443723Y-97840969D01*
X133504114Y-97827181D01*
X133546597Y-97798029D01*
X133560314Y-97773432D01*
X133558257Y-97733984D01*
X133524170Y-97703817D01*
X133458148Y-97682986D01*
X133385814Y-97673359D01*
X133274492Y-97654990D01*
X133191792Y-97620334D01*
X133136605Y-97568377D01*
X133107828Y-97498103D01*
X133103841Y-97414787D01*
X133123533Y-97327761D01*
X133168429Y-97261982D01*
X133238931Y-97217148D01*
X133335441Y-97192959D01*
X133406940Y-97188217D01*
X133485468Y-97190627D01*
G36*
X131663858Y-97212107D02*
X131680510Y-97219946D01*
X131738145Y-97262166D01*
X131792645Y-97323780D01*
X131833339Y-97391623D01*
X131844914Y-97422814D01*
X131855474Y-97478529D01*
X131861771Y-97545861D01*
X131862536Y-97573665D01*
X131862629Y-97661396D01*
X131357690Y-97661396D01*
X131368453Y-97707350D01*
X131394873Y-97761700D01*
X131441062Y-97808671D01*
X131496012Y-97838928D01*
X131531029Y-97845211D01*
X131578517Y-97837586D01*
X131635175Y-97818463D01*
X131654422Y-97809664D01*
X131725599Y-97774116D01*
X131786342Y-97820447D01*
X131821392Y-97851783D01*
X131840042Y-97877647D01*
X131840987Y-97885238D01*
X131824325Y-97903636D01*
X131787810Y-97931595D01*
X131754668Y-97953407D01*
X131665233Y-97992617D01*
X131564969Y-98010365D01*
X131465594Y-98005750D01*
X131386379Y-97981631D01*
X131304720Y-97929964D01*
X131246689Y-97861936D01*
X131210386Y-97773923D01*
X131193912Y-97662296D01*
X131192451Y-97611218D01*
X131198297Y-97494171D01*
X131199015Y-97490766D01*
X131366329Y-97490766D01*
X131370937Y-97501742D01*
X131389876Y-97507795D01*
X131428938Y-97510390D01*
X131493917Y-97510990D01*
X131518937Y-97511001D01*
X131595061Y-97510094D01*
X131643336Y-97506800D01*
X131669300Y-97500261D01*
X131678488Y-97489617D01*
X131678813Y-97486199D01*
X131668327Y-97459036D01*
X131642082Y-97420983D01*
X131630799Y-97407659D01*
X131588912Y-97369976D01*
X131545249Y-97355160D01*
X131521725Y-97353922D01*
X131458083Y-97369409D01*
X131404713Y-97411010D01*
X131370859Y-97471433D01*
X131370259Y-97473402D01*
X131366329Y-97490766D01*
X131199015Y-97490766D01*
X131217739Y-97402008D01*
X131252762Y-97328270D01*
X131295596Y-97275928D01*
X131374788Y-97219172D01*
X131467880Y-97188842D01*
X131566895Y-97186101D01*
X131663858Y-97212107D01*
X131663858Y-97212107D01*
G37*
X131663858Y-97212107D02*
X131680510Y-97219946D01*
X131738145Y-97262166D01*
X131792645Y-97323780D01*
X131833339Y-97391623D01*
X131844914Y-97422814D01*
X131855474Y-97478529D01*
X131861771Y-97545861D01*
X131862536Y-97573665D01*
X131862629Y-97661396D01*
X131357690Y-97661396D01*
X131368453Y-97707350D01*
X131394873Y-97761700D01*
X131441062Y-97808671D01*
X131496012Y-97838928D01*
X131531029Y-97845211D01*
X131578517Y-97837586D01*
X131635175Y-97818463D01*
X131654422Y-97809664D01*
X131725599Y-97774116D01*
X131786342Y-97820447D01*
X131821392Y-97851783D01*
X131840042Y-97877647D01*
X131840987Y-97885238D01*
X131824325Y-97903636D01*
X131787810Y-97931595D01*
X131754668Y-97953407D01*
X131665233Y-97992617D01*
X131564969Y-98010365D01*
X131465594Y-98005750D01*
X131386379Y-97981631D01*
X131304720Y-97929964D01*
X131246689Y-97861936D01*
X131210386Y-97773923D01*
X131193912Y-97662296D01*
X131192451Y-97611218D01*
X131198297Y-97494171D01*
X131199015Y-97490766D01*
X131366329Y-97490766D01*
X131370937Y-97501742D01*
X131389876Y-97507795D01*
X131428938Y-97510390D01*
X131493917Y-97510990D01*
X131518937Y-97511001D01*
X131595061Y-97510094D01*
X131643336Y-97506800D01*
X131669300Y-97500261D01*
X131678488Y-97489617D01*
X131678813Y-97486199D01*
X131668327Y-97459036D01*
X131642082Y-97420983D01*
X131630799Y-97407659D01*
X131588912Y-97369976D01*
X131545249Y-97355160D01*
X131521725Y-97353922D01*
X131458083Y-97369409D01*
X131404713Y-97411010D01*
X131370859Y-97471433D01*
X131370259Y-97473402D01*
X131366329Y-97490766D01*
X131199015Y-97490766D01*
X131217739Y-97402008D01*
X131252762Y-97328270D01*
X131295596Y-97275928D01*
X131374788Y-97219172D01*
X131467880Y-97188842D01*
X131566895Y-97186101D01*
X131663858Y-97212107D01*
G36*
X130093624Y-97202184D02*
X130181045Y-97240834D01*
X130247410Y-97305370D01*
X130292816Y-97395892D01*
X130317358Y-97512498D01*
X130319117Y-97530704D01*
X130320496Y-97659064D01*
X130302624Y-97771576D01*
X130266590Y-97862768D01*
X130247295Y-97892102D01*
X130180085Y-97954186D01*
X130094490Y-97994396D01*
X129998730Y-98011083D01*
X129901027Y-98002597D01*
X129826757Y-97976460D01*
X129762887Y-97932415D01*
X129710686Y-97874667D01*
X129709783Y-97873316D01*
X129688584Y-97837673D01*
X129674807Y-97801832D01*
X129666464Y-97756599D01*
X129661567Y-97692781D01*
X129659409Y-97640448D01*
X129658511Y-97592990D01*
X129825583Y-97592990D01*
X129827216Y-97640234D01*
X129833144Y-97703126D01*
X129843601Y-97743487D01*
X129862459Y-97772202D01*
X129880121Y-97788976D01*
X129942734Y-97824096D01*
X130008248Y-97828790D01*
X130069261Y-97803520D01*
X130099768Y-97775204D01*
X130121751Y-97746669D01*
X130134609Y-97719364D01*
X130140252Y-97683830D01*
X130140591Y-97630604D01*
X130138852Y-97581586D01*
X130135111Y-97511562D01*
X130129181Y-97466144D01*
X130118493Y-97436520D01*
X130100479Y-97413877D01*
X130086203Y-97400935D01*
X130026491Y-97366940D01*
X129962074Y-97365245D01*
X129908059Y-97385381D01*
X129861980Y-97427432D01*
X129834529Y-97496508D01*
X129825583Y-97592990D01*
X129658511Y-97592990D01*
X129657439Y-97536379D01*
X129660804Y-97458548D01*
X129670885Y-97400010D01*
X129689066Y-97353817D01*
X129716730Y-97313022D01*
X129726986Y-97300908D01*
X129791118Y-97240554D01*
X129859906Y-97205300D01*
X129944029Y-97190530D01*
X129985049Y-97189323D01*
X130093624Y-97202184D01*
X130093624Y-97202184D01*
G37*
X130093624Y-97202184D02*
X130181045Y-97240834D01*
X130247410Y-97305370D01*
X130292816Y-97395892D01*
X130317358Y-97512498D01*
X130319117Y-97530704D01*
X130320496Y-97659064D01*
X130302624Y-97771576D01*
X130266590Y-97862768D01*
X130247295Y-97892102D01*
X130180085Y-97954186D01*
X130094490Y-97994396D01*
X129998730Y-98011083D01*
X129901027Y-98002597D01*
X129826757Y-97976460D01*
X129762887Y-97932415D01*
X129710686Y-97874667D01*
X129709783Y-97873316D01*
X129688584Y-97837673D01*
X129674807Y-97801832D01*
X129666464Y-97756599D01*
X129661567Y-97692781D01*
X129659409Y-97640448D01*
X129658511Y-97592990D01*
X129825583Y-97592990D01*
X129827216Y-97640234D01*
X129833144Y-97703126D01*
X129843601Y-97743487D01*
X129862459Y-97772202D01*
X129880121Y-97788976D01*
X129942734Y-97824096D01*
X130008248Y-97828790D01*
X130069261Y-97803520D01*
X130099768Y-97775204D01*
X130121751Y-97746669D01*
X130134609Y-97719364D01*
X130140252Y-97683830D01*
X130140591Y-97630604D01*
X130138852Y-97581586D01*
X130135111Y-97511562D01*
X130129181Y-97466144D01*
X130118493Y-97436520D01*
X130100479Y-97413877D01*
X130086203Y-97400935D01*
X130026491Y-97366940D01*
X129962074Y-97365245D01*
X129908059Y-97385381D01*
X129861980Y-97427432D01*
X129834529Y-97496508D01*
X129825583Y-97592990D01*
X129658511Y-97592990D01*
X129657439Y-97536379D01*
X129660804Y-97458548D01*
X129670885Y-97400010D01*
X129689066Y-97353817D01*
X129716730Y-97313022D01*
X129726986Y-97300908D01*
X129791118Y-97240554D01*
X129859906Y-97205300D01*
X129944029Y-97190530D01*
X129985049Y-97189323D01*
X130093624Y-97202184D01*
G36*
X136168033Y-98451158D02*
X136247908Y-98471925D01*
X136314802Y-98514785D01*
X136347191Y-98546803D01*
X136400285Y-98622493D01*
X136430713Y-98710296D01*
X136441167Y-98818230D01*
X136441220Y-98826955D01*
X136441313Y-98914685D01*
X135936374Y-98914685D01*
X135947138Y-98960639D01*
X135966572Y-99002258D01*
X136000585Y-99045624D01*
X136007700Y-99052547D01*
X136068843Y-99090015D01*
X136138569Y-99096369D01*
X136218827Y-99071718D01*
X136232432Y-99065080D01*
X136274159Y-99044899D01*
X136302108Y-99033401D01*
X136306985Y-99032338D01*
X136324008Y-99042663D01*
X136356473Y-99067925D01*
X136372954Y-99081730D01*
X136407104Y-99113441D01*
X136418318Y-99134379D01*
X136410535Y-99153640D01*
X136406375Y-99158907D01*
X136378197Y-99181958D01*
X136331702Y-99209972D01*
X136299274Y-99226326D01*
X136207225Y-99255139D01*
X136105316Y-99264475D01*
X136008803Y-99253412D01*
X135981774Y-99245492D01*
X135898116Y-99200661D01*
X135836106Y-99131678D01*
X135795385Y-99037874D01*
X135775595Y-98918578D01*
X135773422Y-98856198D01*
X135779766Y-98765378D01*
X135939997Y-98765378D01*
X135955495Y-98772092D01*
X135997152Y-98777360D01*
X136057716Y-98780469D01*
X136098747Y-98781001D01*
X136172551Y-98780488D01*
X136219133Y-98778086D01*
X136244688Y-98772502D01*
X136255409Y-98762441D01*
X136257497Y-98747843D01*
X136243171Y-98702876D01*
X136207102Y-98658433D01*
X136159655Y-98624322D01*
X136112189Y-98610368D01*
X136047719Y-98622746D01*
X135991910Y-98658532D01*
X135953214Y-98710113D01*
X135939997Y-98765378D01*
X135779766Y-98765378D01*
X135782661Y-98723946D01*
X135811176Y-98618578D01*
X135859569Y-98539258D01*
X135928444Y-98485151D01*
X136018405Y-98455423D01*
X136067140Y-98449698D01*
X136168033Y-98451158D01*
X136168033Y-98451158D01*
G37*
X136168033Y-98451158D02*
X136247908Y-98471925D01*
X136314802Y-98514785D01*
X136347191Y-98546803D01*
X136400285Y-98622493D01*
X136430713Y-98710296D01*
X136441167Y-98818230D01*
X136441220Y-98826955D01*
X136441313Y-98914685D01*
X135936374Y-98914685D01*
X135947138Y-98960639D01*
X135966572Y-99002258D01*
X136000585Y-99045624D01*
X136007700Y-99052547D01*
X136068843Y-99090015D01*
X136138569Y-99096369D01*
X136218827Y-99071718D01*
X136232432Y-99065080D01*
X136274159Y-99044899D01*
X136302108Y-99033401D01*
X136306985Y-99032338D01*
X136324008Y-99042663D01*
X136356473Y-99067925D01*
X136372954Y-99081730D01*
X136407104Y-99113441D01*
X136418318Y-99134379D01*
X136410535Y-99153640D01*
X136406375Y-99158907D01*
X136378197Y-99181958D01*
X136331702Y-99209972D01*
X136299274Y-99226326D01*
X136207225Y-99255139D01*
X136105316Y-99264475D01*
X136008803Y-99253412D01*
X135981774Y-99245492D01*
X135898116Y-99200661D01*
X135836106Y-99131678D01*
X135795385Y-99037874D01*
X135775595Y-98918578D01*
X135773422Y-98856198D01*
X135779766Y-98765378D01*
X135939997Y-98765378D01*
X135955495Y-98772092D01*
X135997152Y-98777360D01*
X136057716Y-98780469D01*
X136098747Y-98781001D01*
X136172551Y-98780488D01*
X136219133Y-98778086D01*
X136244688Y-98772502D01*
X136255409Y-98762441D01*
X136257497Y-98747843D01*
X136243171Y-98702876D01*
X136207102Y-98658433D01*
X136159655Y-98624322D01*
X136112189Y-98610368D01*
X136047719Y-98622746D01*
X135991910Y-98658532D01*
X135953214Y-98710113D01*
X135939997Y-98765378D01*
X135779766Y-98765378D01*
X135782661Y-98723946D01*
X135811176Y-98618578D01*
X135859569Y-98539258D01*
X135928444Y-98485151D01*
X136018405Y-98455423D01*
X136067140Y-98449698D01*
X136168033Y-98451158D01*
G36*
X135640007Y-98446527D02*
X135704248Y-98459192D01*
X135740820Y-98477944D01*
X135779293Y-98509097D01*
X135724557Y-98578207D01*
X135690809Y-98620059D01*
X135667893Y-98640478D01*
X135645119Y-98643597D01*
X135611796Y-98633552D01*
X135596154Y-98627869D01*
X135532382Y-98619484D01*
X135473980Y-98637458D01*
X135431104Y-98678062D01*
X135424139Y-98691009D01*
X135416553Y-98725304D01*
X135410699Y-98788507D01*
X135406851Y-98876140D01*
X135405283Y-98983720D01*
X135405261Y-98999024D01*
X135405261Y-99265606D01*
X135221445Y-99265606D01*
X135221445Y-98446790D01*
X135313353Y-98446790D01*
X135366347Y-98448174D01*
X135393955Y-98454332D01*
X135404164Y-98468274D01*
X135405261Y-98481424D01*
X135405261Y-98516058D01*
X135449290Y-98481424D01*
X135499777Y-98457796D01*
X135567600Y-98446113D01*
X135640007Y-98446527D01*
X135640007Y-98446527D01*
G37*
X135640007Y-98446527D02*
X135704248Y-98459192D01*
X135740820Y-98477944D01*
X135779293Y-98509097D01*
X135724557Y-98578207D01*
X135690809Y-98620059D01*
X135667893Y-98640478D01*
X135645119Y-98643597D01*
X135611796Y-98633552D01*
X135596154Y-98627869D01*
X135532382Y-98619484D01*
X135473980Y-98637458D01*
X135431104Y-98678062D01*
X135424139Y-98691009D01*
X135416553Y-98725304D01*
X135410699Y-98788507D01*
X135406851Y-98876140D01*
X135405283Y-98983720D01*
X135405261Y-98999024D01*
X135405261Y-99265606D01*
X135221445Y-99265606D01*
X135221445Y-98446790D01*
X135313353Y-98446790D01*
X135366347Y-98448174D01*
X135393955Y-98454332D01*
X135404164Y-98468274D01*
X135405261Y-98481424D01*
X135405261Y-98516058D01*
X135449290Y-98481424D01*
X135499777Y-98457796D01*
X135567600Y-98446113D01*
X135640007Y-98446527D01*
G36*
X134846832Y-98451753D02*
X134917267Y-98468860D01*
X134937627Y-98477924D01*
X134977093Y-98501663D01*
X135007381Y-98528401D01*
X135029792Y-98562779D01*
X135045626Y-98609440D01*
X135056183Y-98673026D01*
X135062764Y-98758179D01*
X135066668Y-98869542D01*
X135068150Y-98943929D01*
X135073605Y-99265606D01*
X134980420Y-99265606D01*
X134923887Y-99263236D01*
X134894762Y-99255135D01*
X134887234Y-99241531D01*
X134883260Y-99226821D01*
X134865492Y-99229634D01*
X134841280Y-99241428D01*
X134780668Y-99259507D01*
X134702769Y-99264379D01*
X134620835Y-99256410D01*
X134548121Y-99235969D01*
X134541599Y-99233131D01*
X134475142Y-99186445D01*
X134431331Y-99121544D01*
X134411172Y-99045680D01*
X134412712Y-99018424D01*
X134577185Y-99018424D01*
X134591677Y-99055104D01*
X134634645Y-99081389D01*
X134703969Y-99095497D01*
X134741017Y-99097370D01*
X134802759Y-99092574D01*
X134843800Y-99073938D01*
X134853813Y-99065080D01*
X134880940Y-99016886D01*
X134887234Y-98973172D01*
X134887234Y-98914685D01*
X134805770Y-98914685D01*
X134711074Y-98919512D01*
X134644653Y-98934693D01*
X134602686Y-98961280D01*
X134593289Y-98973132D01*
X134577185Y-99018424D01*
X134412712Y-99018424D01*
X134415669Y-98966106D01*
X134445825Y-98890075D01*
X134486971Y-98838692D01*
X134511892Y-98816477D01*
X134536288Y-98801878D01*
X134568031Y-98792977D01*
X134614992Y-98787855D01*
X134685044Y-98784595D01*
X134712830Y-98783657D01*
X134887234Y-98777959D01*
X134886978Y-98725171D01*
X134880224Y-98669683D01*
X134855804Y-98636132D01*
X134806470Y-98614698D01*
X134805146Y-98614316D01*
X134735200Y-98605888D01*
X134666754Y-98616896D01*
X134615887Y-98643665D01*
X134595477Y-98656883D01*
X134573494Y-98655054D01*
X134539666Y-98635904D01*
X134519801Y-98622388D01*
X134480946Y-98593512D01*
X134456878Y-98571866D01*
X134453016Y-98565669D01*
X134468919Y-98533599D01*
X134515905Y-98495299D01*
X134536313Y-98482377D01*
X134594983Y-98460121D01*
X134674052Y-98447512D01*
X134761881Y-98444680D01*
X134846832Y-98451753D01*
X134846832Y-98451753D01*
G37*
X134846832Y-98451753D02*
X134917267Y-98468860D01*
X134937627Y-98477924D01*
X134977093Y-98501663D01*
X135007381Y-98528401D01*
X135029792Y-98562779D01*
X135045626Y-98609440D01*
X135056183Y-98673026D01*
X135062764Y-98758179D01*
X135066668Y-98869542D01*
X135068150Y-98943929D01*
X135073605Y-99265606D01*
X134980420Y-99265606D01*
X134923887Y-99263236D01*
X134894762Y-99255135D01*
X134887234Y-99241531D01*
X134883260Y-99226821D01*
X134865492Y-99229634D01*
X134841280Y-99241428D01*
X134780668Y-99259507D01*
X134702769Y-99264379D01*
X134620835Y-99256410D01*
X134548121Y-99235969D01*
X134541599Y-99233131D01*
X134475142Y-99186445D01*
X134431331Y-99121544D01*
X134411172Y-99045680D01*
X134412712Y-99018424D01*
X134577185Y-99018424D01*
X134591677Y-99055104D01*
X134634645Y-99081389D01*
X134703969Y-99095497D01*
X134741017Y-99097370D01*
X134802759Y-99092574D01*
X134843800Y-99073938D01*
X134853813Y-99065080D01*
X134880940Y-99016886D01*
X134887234Y-98973172D01*
X134887234Y-98914685D01*
X134805770Y-98914685D01*
X134711074Y-98919512D01*
X134644653Y-98934693D01*
X134602686Y-98961280D01*
X134593289Y-98973132D01*
X134577185Y-99018424D01*
X134412712Y-99018424D01*
X134415669Y-98966106D01*
X134445825Y-98890075D01*
X134486971Y-98838692D01*
X134511892Y-98816477D01*
X134536288Y-98801878D01*
X134568031Y-98792977D01*
X134614992Y-98787855D01*
X134685044Y-98784595D01*
X134712830Y-98783657D01*
X134887234Y-98777959D01*
X134886978Y-98725171D01*
X134880224Y-98669683D01*
X134855804Y-98636132D01*
X134806470Y-98614698D01*
X134805146Y-98614316D01*
X134735200Y-98605888D01*
X134666754Y-98616896D01*
X134615887Y-98643665D01*
X134595477Y-98656883D01*
X134573494Y-98655054D01*
X134539666Y-98635904D01*
X134519801Y-98622388D01*
X134480946Y-98593512D01*
X134456878Y-98571866D01*
X134453016Y-98565669D01*
X134468919Y-98533599D01*
X134515905Y-98495299D01*
X134536313Y-98482377D01*
X134594983Y-98460121D01*
X134674052Y-98447512D01*
X134761881Y-98444680D01*
X134846832Y-98451753D01*
G36*
X133840970Y-98450184D02*
X133907060Y-98455146D01*
X133993466Y-98714159D01*
X134079871Y-98973172D01*
X134106964Y-98881264D01*
X134123268Y-98824464D01*
X134144715Y-98747705D01*
X134167875Y-98663331D01*
X134180120Y-98618073D01*
X134226184Y-98446790D01*
X134416227Y-98446790D01*
X134359422Y-98626429D01*
X134331447Y-98714784D01*
X134297653Y-98821361D01*
X134262360Y-98932534D01*
X134230853Y-99031659D01*
X134159090Y-99257251D01*
X134004126Y-99267333D01*
X133962110Y-99128608D01*
X133936199Y-99042431D01*
X133907923Y-98947427D01*
X133883209Y-98863521D01*
X133882234Y-98860182D01*
X133863775Y-98803328D01*
X133847489Y-98764536D01*
X133836082Y-98749867D01*
X133833738Y-98751563D01*
X133825511Y-98774305D01*
X133809878Y-98823020D01*
X133788744Y-98891582D01*
X133764010Y-98973865D01*
X133750627Y-99019126D01*
X133678151Y-99265606D01*
X133524335Y-99265606D01*
X133401371Y-98877086D01*
X133366828Y-98768102D01*
X133335361Y-98669128D01*
X133308456Y-98584816D01*
X133287599Y-98519814D01*
X133274278Y-98478772D01*
X133270228Y-98466781D01*
X133273434Y-98454503D01*
X133298605Y-98449126D01*
X133350986Y-98449664D01*
X133359185Y-98450070D01*
X133456322Y-98455146D01*
X133519940Y-98689093D01*
X133543324Y-98774413D01*
X133564221Y-98849415D01*
X133580791Y-98907587D01*
X133591194Y-98942417D01*
X133593116Y-98948096D01*
X133601081Y-98941566D01*
X133617144Y-98907734D01*
X133639461Y-98851207D01*
X133666185Y-98776590D01*
X133688777Y-98709187D01*
X133774881Y-98445223D01*
X133840970Y-98450184D01*
X133840970Y-98450184D01*
G37*
X133840970Y-98450184D02*
X133907060Y-98455146D01*
X133993466Y-98714159D01*
X134079871Y-98973172D01*
X134106964Y-98881264D01*
X134123268Y-98824464D01*
X134144715Y-98747705D01*
X134167875Y-98663331D01*
X134180120Y-98618073D01*
X134226184Y-98446790D01*
X134416227Y-98446790D01*
X134359422Y-98626429D01*
X134331447Y-98714784D01*
X134297653Y-98821361D01*
X134262360Y-98932534D01*
X134230853Y-99031659D01*
X134159090Y-99257251D01*
X134004126Y-99267333D01*
X133962110Y-99128608D01*
X133936199Y-99042431D01*
X133907923Y-98947427D01*
X133883209Y-98863521D01*
X133882234Y-98860182D01*
X133863775Y-98803328D01*
X133847489Y-98764536D01*
X133836082Y-98749867D01*
X133833738Y-98751563D01*
X133825511Y-98774305D01*
X133809878Y-98823020D01*
X133788744Y-98891582D01*
X133764010Y-98973865D01*
X133750627Y-99019126D01*
X133678151Y-99265606D01*
X133524335Y-99265606D01*
X133401371Y-98877086D01*
X133366828Y-98768102D01*
X133335361Y-98669128D01*
X133308456Y-98584816D01*
X133287599Y-98519814D01*
X133274278Y-98478772D01*
X133270228Y-98466781D01*
X133273434Y-98454503D01*
X133298605Y-98449126D01*
X133350986Y-98449664D01*
X133359185Y-98450070D01*
X133456322Y-98455146D01*
X133519940Y-98689093D01*
X133543324Y-98774413D01*
X133564221Y-98849415D01*
X133580791Y-98907587D01*
X133591194Y-98942417D01*
X133593116Y-98948096D01*
X133601081Y-98941566D01*
X133617144Y-98907734D01*
X133639461Y-98851207D01*
X133666185Y-98776590D01*
X133688777Y-98709187D01*
X133774881Y-98445223D01*
X133840970Y-98450184D01*
G36*
X133199471Y-99265606D02*
X133107563Y-99265606D01*
X133054217Y-99264042D01*
X133026433Y-99257565D01*
X133016430Y-99243498D01*
X133015655Y-99233986D01*
X133013968Y-99214912D01*
X133003330Y-99211254D01*
X132975375Y-99223012D01*
X132953635Y-99233986D01*
X132870172Y-99259991D01*
X132779444Y-99261496D01*
X132705682Y-99242101D01*
X132636994Y-99195245D01*
X132584634Y-99126084D01*
X132555962Y-99044507D01*
X132555232Y-99039946D01*
X132550972Y-98990181D01*
X132548854Y-98918739D01*
X132549024Y-98864706D01*
X132731560Y-98864706D01*
X132735789Y-98936521D01*
X132745408Y-98995714D01*
X132758430Y-99029140D01*
X132807696Y-99074820D01*
X132866190Y-99091195D01*
X132926511Y-99077953D01*
X132978057Y-99038453D01*
X132997578Y-99011887D01*
X133008992Y-98980186D01*
X133014338Y-98933912D01*
X133015655Y-98864408D01*
X133013298Y-98795579D01*
X133007073Y-98735106D01*
X132998248Y-98694636D01*
X132996777Y-98691009D01*
X132961187Y-98647882D01*
X132909240Y-98624204D01*
X132851118Y-98620381D01*
X132797000Y-98636818D01*
X132757066Y-98673920D01*
X132752923Y-98681302D01*
X132739956Y-98726319D01*
X132732892Y-98791047D01*
X132731560Y-98864706D01*
X132549024Y-98864706D01*
X132549111Y-98837310D01*
X132550312Y-98793485D01*
X132558485Y-98685068D01*
X132575470Y-98603668D01*
X132603727Y-98543492D01*
X132645712Y-98498746D01*
X132686472Y-98472480D01*
X132743421Y-98454015D01*
X132814251Y-98447682D01*
X132886781Y-98452840D01*
X132948826Y-98468849D01*
X132981608Y-98488000D01*
X133015655Y-98518812D01*
X133015655Y-98129290D01*
X133199471Y-98129290D01*
X133199471Y-99265606D01*
X133199471Y-99265606D01*
G37*
X133199471Y-99265606D02*
X133107563Y-99265606D01*
X133054217Y-99264042D01*
X133026433Y-99257565D01*
X133016430Y-99243498D01*
X133015655Y-99233986D01*
X133013968Y-99214912D01*
X133003330Y-99211254D01*
X132975375Y-99223012D01*
X132953635Y-99233986D01*
X132870172Y-99259991D01*
X132779444Y-99261496D01*
X132705682Y-99242101D01*
X132636994Y-99195245D01*
X132584634Y-99126084D01*
X132555962Y-99044507D01*
X132555232Y-99039946D01*
X132550972Y-98990181D01*
X132548854Y-98918739D01*
X132549024Y-98864706D01*
X132731560Y-98864706D01*
X132735789Y-98936521D01*
X132745408Y-98995714D01*
X132758430Y-99029140D01*
X132807696Y-99074820D01*
X132866190Y-99091195D01*
X132926511Y-99077953D01*
X132978057Y-99038453D01*
X132997578Y-99011887D01*
X133008992Y-98980186D01*
X133014338Y-98933912D01*
X133015655Y-98864408D01*
X133013298Y-98795579D01*
X133007073Y-98735106D01*
X132998248Y-98694636D01*
X132996777Y-98691009D01*
X132961187Y-98647882D01*
X132909240Y-98624204D01*
X132851118Y-98620381D01*
X132797000Y-98636818D01*
X132757066Y-98673920D01*
X132752923Y-98681302D01*
X132739956Y-98726319D01*
X132732892Y-98791047D01*
X132731560Y-98864706D01*
X132549024Y-98864706D01*
X132549111Y-98837310D01*
X132550312Y-98793485D01*
X132558485Y-98685068D01*
X132575470Y-98603668D01*
X132603727Y-98543492D01*
X132645712Y-98498746D01*
X132686472Y-98472480D01*
X132743421Y-98454015D01*
X132814251Y-98447682D01*
X132886781Y-98452840D01*
X132948826Y-98468849D01*
X132981608Y-98488000D01*
X133015655Y-98518812D01*
X133015655Y-98129290D01*
X133199471Y-98129290D01*
X133199471Y-99265606D01*
G36*
X132146721Y-98448566D02*
X132171728Y-98456062D01*
X132179790Y-98472531D01*
X132180129Y-98479966D01*
X132181576Y-98500674D01*
X132191538Y-98503925D01*
X132218452Y-98489728D01*
X132234438Y-98480028D01*
X132284873Y-98459255D01*
X132345112Y-98448984D01*
X132408274Y-98448194D01*
X132467477Y-98455866D01*
X132515842Y-98470978D01*
X132546486Y-98492512D01*
X132552529Y-98519446D01*
X132549479Y-98526740D01*
X132527246Y-98557017D01*
X132492770Y-98594255D01*
X132486534Y-98600275D01*
X132453673Y-98627955D01*
X132425320Y-98636898D01*
X132385667Y-98630656D01*
X132369782Y-98626509D01*
X132320349Y-98616547D01*
X132285592Y-98621027D01*
X132256240Y-98636826D01*
X132229353Y-98658029D01*
X132209550Y-98684694D01*
X132195788Y-98721907D01*
X132187024Y-98774753D01*
X132182214Y-98848317D01*
X132180314Y-98947685D01*
X132180129Y-99007681D01*
X132180129Y-99265606D01*
X132013024Y-99265606D01*
X132013024Y-98446790D01*
X132096576Y-98446790D01*
X132146721Y-98448566D01*
X132146721Y-98448566D01*
G37*
X132146721Y-98448566D02*
X132171728Y-98456062D01*
X132179790Y-98472531D01*
X132180129Y-98479966D01*
X132181576Y-98500674D01*
X132191538Y-98503925D01*
X132218452Y-98489728D01*
X132234438Y-98480028D01*
X132284873Y-98459255D01*
X132345112Y-98448984D01*
X132408274Y-98448194D01*
X132467477Y-98455866D01*
X132515842Y-98470978D01*
X132546486Y-98492512D01*
X132552529Y-98519446D01*
X132549479Y-98526740D01*
X132527246Y-98557017D01*
X132492770Y-98594255D01*
X132486534Y-98600275D01*
X132453673Y-98627955D01*
X132425320Y-98636898D01*
X132385667Y-98630656D01*
X132369782Y-98626509D01*
X132320349Y-98616547D01*
X132285592Y-98621027D01*
X132256240Y-98636826D01*
X132229353Y-98658029D01*
X132209550Y-98684694D01*
X132195788Y-98721907D01*
X132187024Y-98774753D01*
X132182214Y-98848317D01*
X132180314Y-98947685D01*
X132180129Y-99007681D01*
X132180129Y-99265606D01*
X132013024Y-99265606D01*
X132013024Y-98446790D01*
X132096576Y-98446790D01*
X132146721Y-98448566D01*
G36*
X131627297Y-98453264D02*
X131705910Y-98474240D01*
X131765756Y-98512260D01*
X131807987Y-98562058D01*
X131821115Y-98583310D01*
X131830808Y-98605572D01*
X131837584Y-98634050D01*
X131841963Y-98673951D01*
X131844464Y-98730481D01*
X131845608Y-98808847D01*
X131845912Y-98914256D01*
X131845918Y-98942222D01*
X131845918Y-99265606D01*
X131765708Y-99265606D01*
X131714546Y-99262023D01*
X131676717Y-99252946D01*
X131667239Y-99247348D01*
X131641328Y-99237686D01*
X131614864Y-99247348D01*
X131571292Y-99259410D01*
X131508000Y-99264265D01*
X131437850Y-99262158D01*
X131373700Y-99253336D01*
X131336247Y-99242017D01*
X131263773Y-99195492D01*
X131218480Y-99130926D01*
X131198118Y-99045080D01*
X131197928Y-99042876D01*
X131199715Y-99004793D01*
X131361313Y-99004793D01*
X131375441Y-99048110D01*
X131398452Y-99072488D01*
X131444644Y-99090925D01*
X131505615Y-99098285D01*
X131567789Y-99094663D01*
X131617591Y-99080154D01*
X131631543Y-99070845D01*
X131655925Y-99027833D01*
X131662103Y-98978937D01*
X131662103Y-98914685D01*
X131569658Y-98914685D01*
X131481835Y-98921446D01*
X131415258Y-98940600D01*
X131373842Y-98970456D01*
X131361313Y-99004793D01*
X131199715Y-99004793D01*
X131202330Y-98949084D01*
X131233264Y-98874927D01*
X131291421Y-98818847D01*
X131299460Y-98813745D01*
X131334003Y-98797135D01*
X131376758Y-98787076D01*
X131436526Y-98782187D01*
X131507530Y-98781063D01*
X131662103Y-98781001D01*
X131662103Y-98716205D01*
X131655546Y-98665930D01*
X131638815Y-98632249D01*
X131636856Y-98630456D01*
X131599623Y-98615722D01*
X131543420Y-98610011D01*
X131481307Y-98612817D01*
X131426350Y-98623636D01*
X131393739Y-98639862D01*
X131376068Y-98652860D01*
X131357409Y-98655342D01*
X131331659Y-98644693D01*
X131292713Y-98618298D01*
X131234470Y-98573545D01*
X131229124Y-98569353D01*
X131231863Y-98553840D01*
X131254716Y-98528040D01*
X131289449Y-98499369D01*
X131327830Y-98475246D01*
X131339888Y-98469550D01*
X131383874Y-98458183D01*
X131448327Y-98450075D01*
X131520337Y-98446823D01*
X131523704Y-98446816D01*
X131627297Y-98453264D01*
X131627297Y-98453264D01*
G37*
X131627297Y-98453264D02*
X131705910Y-98474240D01*
X131765756Y-98512260D01*
X131807987Y-98562058D01*
X131821115Y-98583310D01*
X131830808Y-98605572D01*
X131837584Y-98634050D01*
X131841963Y-98673951D01*
X131844464Y-98730481D01*
X131845608Y-98808847D01*
X131845912Y-98914256D01*
X131845918Y-98942222D01*
X131845918Y-99265606D01*
X131765708Y-99265606D01*
X131714546Y-99262023D01*
X131676717Y-99252946D01*
X131667239Y-99247348D01*
X131641328Y-99237686D01*
X131614864Y-99247348D01*
X131571292Y-99259410D01*
X131508000Y-99264265D01*
X131437850Y-99262158D01*
X131373700Y-99253336D01*
X131336247Y-99242017D01*
X131263773Y-99195492D01*
X131218480Y-99130926D01*
X131198118Y-99045080D01*
X131197928Y-99042876D01*
X131199715Y-99004793D01*
X131361313Y-99004793D01*
X131375441Y-99048110D01*
X131398452Y-99072488D01*
X131444644Y-99090925D01*
X131505615Y-99098285D01*
X131567789Y-99094663D01*
X131617591Y-99080154D01*
X131631543Y-99070845D01*
X131655925Y-99027833D01*
X131662103Y-98978937D01*
X131662103Y-98914685D01*
X131569658Y-98914685D01*
X131481835Y-98921446D01*
X131415258Y-98940600D01*
X131373842Y-98970456D01*
X131361313Y-99004793D01*
X131199715Y-99004793D01*
X131202330Y-98949084D01*
X131233264Y-98874927D01*
X131291421Y-98818847D01*
X131299460Y-98813745D01*
X131334003Y-98797135D01*
X131376758Y-98787076D01*
X131436526Y-98782187D01*
X131507530Y-98781063D01*
X131662103Y-98781001D01*
X131662103Y-98716205D01*
X131655546Y-98665930D01*
X131638815Y-98632249D01*
X131636856Y-98630456D01*
X131599623Y-98615722D01*
X131543420Y-98610011D01*
X131481307Y-98612817D01*
X131426350Y-98623636D01*
X131393739Y-98639862D01*
X131376068Y-98652860D01*
X131357409Y-98655342D01*
X131331659Y-98644693D01*
X131292713Y-98618298D01*
X131234470Y-98573545D01*
X131229124Y-98569353D01*
X131231863Y-98553840D01*
X131254716Y-98528040D01*
X131289449Y-98499369D01*
X131327830Y-98475246D01*
X131339888Y-98469550D01*
X131383874Y-98458183D01*
X131448327Y-98450075D01*
X131520337Y-98446823D01*
X131523704Y-98446816D01*
X131627297Y-98453264D01*
G36*
X130930200Y-97207548D02*
X130965432Y-97224954D01*
X131008880Y-97255286D01*
X131040546Y-97288363D01*
X131062234Y-97329897D01*
X131075743Y-97385602D01*
X131082878Y-97461191D01*
X131085440Y-97562376D01*
X131085590Y-97605877D01*
X131085152Y-97701215D01*
X131083336Y-97769351D01*
X131079385Y-97816498D01*
X131072542Y-97848870D01*
X131062051Y-97872680D01*
X131051136Y-97888923D01*
X130981459Y-97958032D01*
X130899406Y-97999601D01*
X130810890Y-98012103D01*
X130721821Y-97994014D01*
X130693603Y-97981222D01*
X130626050Y-97946011D01*
X130626050Y-98497780D01*
X130675352Y-98472285D01*
X130740313Y-98452560D01*
X130820160Y-98447507D01*
X130899892Y-98456836D01*
X130960105Y-98477794D01*
X131010048Y-98517707D01*
X131052721Y-98574821D01*
X131055930Y-98580685D01*
X131069462Y-98608307D01*
X131079345Y-98636148D01*
X131086149Y-98669874D01*
X131090441Y-98715151D01*
X131092791Y-98777642D01*
X131093768Y-98863015D01*
X131093945Y-98959090D01*
X131093945Y-99265606D01*
X130910129Y-99265606D01*
X130910129Y-98700419D01*
X130858715Y-98657157D01*
X130805306Y-98622552D01*
X130754728Y-98616260D01*
X130703870Y-98632452D01*
X130676765Y-98648307D01*
X130656591Y-98670890D01*
X130642243Y-98705020D01*
X130632616Y-98755514D01*
X130626603Y-98827191D01*
X130623100Y-98924868D01*
X130621866Y-98989882D01*
X130617695Y-99257251D01*
X130529965Y-99262302D01*
X130442234Y-99267353D01*
X130442234Y-97608181D01*
X130626050Y-97608181D01*
X130630736Y-97700680D01*
X130646528Y-97764889D01*
X130676023Y-97804839D01*
X130721820Y-97824560D01*
X130768090Y-97828501D01*
X130820468Y-97823972D01*
X130855230Y-97806149D01*
X130876968Y-97782599D01*
X130894080Y-97757269D01*
X130904267Y-97729049D01*
X130908800Y-97689511D01*
X130908949Y-97630222D01*
X130907424Y-97580578D01*
X130903921Y-97505790D01*
X130898707Y-97456691D01*
X130889927Y-97425547D01*
X130875726Y-97404625D01*
X130862324Y-97392532D01*
X130806327Y-97366161D01*
X130740051Y-97361902D01*
X130701996Y-97370986D01*
X130664317Y-97403276D01*
X130639359Y-97466086D01*
X130627262Y-97558974D01*
X130626050Y-97608181D01*
X130442234Y-97608181D01*
X130442234Y-97193501D01*
X130534142Y-97193501D01*
X130589323Y-97195683D01*
X130617792Y-97203431D01*
X130626046Y-97218548D01*
X130626050Y-97218996D01*
X130629880Y-97233800D01*
X130646773Y-97232119D01*
X130680359Y-97215852D01*
X130758618Y-97190967D01*
X130846667Y-97188351D01*
X130930200Y-97207548D01*
X130930200Y-97207548D01*
G37*
X130930200Y-97207548D02*
X130965432Y-97224954D01*
X131008880Y-97255286D01*
X131040546Y-97288363D01*
X131062234Y-97329897D01*
X131075743Y-97385602D01*
X131082878Y-97461191D01*
X131085440Y-97562376D01*
X131085590Y-97605877D01*
X131085152Y-97701215D01*
X131083336Y-97769351D01*
X131079385Y-97816498D01*
X131072542Y-97848870D01*
X131062051Y-97872680D01*
X131051136Y-97888923D01*
X130981459Y-97958032D01*
X130899406Y-97999601D01*
X130810890Y-98012103D01*
X130721821Y-97994014D01*
X130693603Y-97981222D01*
X130626050Y-97946011D01*
X130626050Y-98497780D01*
X130675352Y-98472285D01*
X130740313Y-98452560D01*
X130820160Y-98447507D01*
X130899892Y-98456836D01*
X130960105Y-98477794D01*
X131010048Y-98517707D01*
X131052721Y-98574821D01*
X131055930Y-98580685D01*
X131069462Y-98608307D01*
X131079345Y-98636148D01*
X131086149Y-98669874D01*
X131090441Y-98715151D01*
X131092791Y-98777642D01*
X131093768Y-98863015D01*
X131093945Y-98959090D01*
X131093945Y-99265606D01*
X130910129Y-99265606D01*
X130910129Y-98700419D01*
X130858715Y-98657157D01*
X130805306Y-98622552D01*
X130754728Y-98616260D01*
X130703870Y-98632452D01*
X130676765Y-98648307D01*
X130656591Y-98670890D01*
X130642243Y-98705020D01*
X130632616Y-98755514D01*
X130626603Y-98827191D01*
X130623100Y-98924868D01*
X130621866Y-98989882D01*
X130617695Y-99257251D01*
X130529965Y-99262302D01*
X130442234Y-99267353D01*
X130442234Y-97608181D01*
X130626050Y-97608181D01*
X130630736Y-97700680D01*
X130646528Y-97764889D01*
X130676023Y-97804839D01*
X130721820Y-97824560D01*
X130768090Y-97828501D01*
X130820468Y-97823972D01*
X130855230Y-97806149D01*
X130876968Y-97782599D01*
X130894080Y-97757269D01*
X130904267Y-97729049D01*
X130908800Y-97689511D01*
X130908949Y-97630222D01*
X130907424Y-97580578D01*
X130903921Y-97505790D01*
X130898707Y-97456691D01*
X130889927Y-97425547D01*
X130875726Y-97404625D01*
X130862324Y-97392532D01*
X130806327Y-97366161D01*
X130740051Y-97361902D01*
X130701996Y-97370986D01*
X130664317Y-97403276D01*
X130639359Y-97466086D01*
X130627262Y-97558974D01*
X130626050Y-97608181D01*
X130442234Y-97608181D01*
X130442234Y-97193501D01*
X130534142Y-97193501D01*
X130589323Y-97195683D01*
X130617792Y-97203431D01*
X130626046Y-97218548D01*
X130626050Y-97218996D01*
X130629880Y-97233800D01*
X130646773Y-97232119D01*
X130680359Y-97215852D01*
X130758618Y-97190967D01*
X130846667Y-97188351D01*
X130930200Y-97207548D01*
G04 #@! TD*
M02*
