M48
;DRILL file {KiCad 5.0.1-33cea8e~68~ubuntu18.04.1} date 2018年11月09日 15時53分46秒
;FORMAT={-:-/ absolute / inch / decimal}
FMAT,2
INCH,TZ
T1C0.0157
T2C0.0394
%
G90
G05
M72
T1
X5.352Y-2.018
X5.4168Y-3.6033
X5.5368Y-3.0959
X5.5369Y-3.396
X5.556Y-3.596
X5.5562Y-2.9015
X5.5728Y-2.246
X5.578Y-3.2902
X5.6251Y-3.3937
X5.6256Y-3.096
X5.6608Y-2.5204
X5.6635Y-2.7545
X5.6722Y-2.4471
X5.6722Y-2.8356
X5.6747Y-2.6424
X5.6841Y-3.1463
X5.6844Y-3.2314
X5.6844Y-3.3493
X5.7716Y-2.446
X5.7936Y-3.596
X5.8565Y-2.246
X5.8565Y-2.3468
X5.884Y-2.897
X5.8859Y-3.0956
X5.8939Y-2.707
X5.8973Y-2.5817
X5.9085Y-2.4487
X5.9149Y-2.6527
X5.9182Y-2.9466
X5.976Y-2.126
X6.013Y-2.452
X6.182Y-2.546
X6.453Y-2.968
X7.158Y-2.071
T2
X6.149Y-2.2075
X6.249Y-2.2075
X6.349Y-2.2075
X6.449Y-2.2075
X6.549Y-2.2075
X6.649Y-2.2075
X6.749Y-2.2075
X6.849Y-2.2075
X6.949Y-2.2075
X7.049Y-2.2075
X7.149Y-2.2075
X6.149Y-3.7075
X6.249Y-3.7075
X6.349Y-3.7075
X6.449Y-3.7075
X6.549Y-3.7075
X6.649Y-3.7075
X6.749Y-3.7075
X6.849Y-3.7075
X6.949Y-3.7075
X7.049Y-3.7075
X7.149Y-3.7075
T0
M30
