G04 #@! TF.GenerationSoftware,KiCad,Pcbnew,5.0.1-33cea8e~68~ubuntu18.04.1*
G04 #@! TF.CreationDate,2018-10-29T17:36:35+09:00*
G04 #@! TF.ProjectId,M5StackSideBB,4D35537461636B5369646542422E6B69,rev?*
G04 #@! TF.SameCoordinates,Original*
G04 #@! TF.FileFunction,Soldermask,Top*
G04 #@! TF.FilePolarity,Negative*
%FSLAX46Y46*%
G04 Gerber Fmt 4.6, Leading zero omitted, Abs format (unit mm)*
G04 Created by KiCad (PCBNEW 5.0.1-33cea8e~68~ubuntu18.04.1) date 2018年10月29日 17時36分35秒*
%MOMM*%
%LPD*%
G01*
G04 APERTURE LIST*
%ADD10C,0.100000*%
G04 APERTURE END LIST*
D10*
G36*
X103409122Y-95246115D02*
X103525041Y-95269173D01*
X103852620Y-95404861D01*
X104143511Y-95599228D01*
X104147436Y-95601851D01*
X104398149Y-95852564D01*
X104398151Y-95852567D01*
X104595139Y-96147380D01*
X104730827Y-96474959D01*
X104800000Y-96822716D01*
X104800000Y-97177284D01*
X104730827Y-97525041D01*
X104595139Y-97852620D01*
X104400772Y-98143511D01*
X104398149Y-98147436D01*
X104147436Y-98398149D01*
X104147433Y-98398151D01*
X103852620Y-98595139D01*
X103525041Y-98730827D01*
X103409122Y-98753885D01*
X103177286Y-98800000D01*
X102822714Y-98800000D01*
X102590878Y-98753885D01*
X102474959Y-98730827D01*
X102147380Y-98595139D01*
X101852567Y-98398151D01*
X101852564Y-98398149D01*
X101601851Y-98147436D01*
X101599228Y-98143511D01*
X101404861Y-97852620D01*
X101269173Y-97525041D01*
X101200000Y-97177284D01*
X101200000Y-96822716D01*
X101269173Y-96474959D01*
X101404861Y-96147380D01*
X101601849Y-95852567D01*
X101601851Y-95852564D01*
X101852564Y-95601851D01*
X101856489Y-95599228D01*
X102147380Y-95404861D01*
X102474959Y-95269173D01*
X102590878Y-95246115D01*
X102822714Y-95200000D01*
X103177286Y-95200000D01*
X103409122Y-95246115D01*
X103409122Y-95246115D01*
G37*
G36*
X147409122Y-95246115D02*
X147525041Y-95269173D01*
X147852620Y-95404861D01*
X148143511Y-95599228D01*
X148147436Y-95601851D01*
X148398149Y-95852564D01*
X148398151Y-95852567D01*
X148595139Y-96147380D01*
X148730827Y-96474959D01*
X148800000Y-96822716D01*
X148800000Y-97177284D01*
X148730827Y-97525041D01*
X148595139Y-97852620D01*
X148400772Y-98143511D01*
X148398149Y-98147436D01*
X148147436Y-98398149D01*
X148147433Y-98398151D01*
X147852620Y-98595139D01*
X147525041Y-98730827D01*
X147409122Y-98753885D01*
X147177286Y-98800000D01*
X146822714Y-98800000D01*
X146590878Y-98753885D01*
X146474959Y-98730827D01*
X146147380Y-98595139D01*
X145852567Y-98398151D01*
X145852564Y-98398149D01*
X145601851Y-98147436D01*
X145599228Y-98143511D01*
X145404861Y-97852620D01*
X145269173Y-97525041D01*
X145200000Y-97177284D01*
X145200000Y-96822716D01*
X145269173Y-96474959D01*
X145404861Y-96147380D01*
X145601849Y-95852567D01*
X145601851Y-95852564D01*
X145852564Y-95601851D01*
X145856489Y-95599228D01*
X146147380Y-95404861D01*
X146474959Y-95269173D01*
X146590878Y-95246115D01*
X146822714Y-95200000D01*
X147177286Y-95200000D01*
X147409122Y-95246115D01*
X147409122Y-95246115D01*
G37*
G36*
X197409122Y-95246115D02*
X197525041Y-95269173D01*
X197852620Y-95404861D01*
X198143511Y-95599228D01*
X198147436Y-95601851D01*
X198398149Y-95852564D01*
X198398151Y-95852567D01*
X198595139Y-96147380D01*
X198730827Y-96474959D01*
X198800000Y-96822716D01*
X198800000Y-97177284D01*
X198730827Y-97525041D01*
X198595139Y-97852620D01*
X198400772Y-98143511D01*
X198398149Y-98147436D01*
X198147436Y-98398149D01*
X198147433Y-98398151D01*
X197852620Y-98595139D01*
X197525041Y-98730827D01*
X197409122Y-98753885D01*
X197177286Y-98800000D01*
X196822714Y-98800000D01*
X196590878Y-98753885D01*
X196474959Y-98730827D01*
X196147380Y-98595139D01*
X195852567Y-98398151D01*
X195852564Y-98398149D01*
X195601851Y-98147436D01*
X195599228Y-98143511D01*
X195404861Y-97852620D01*
X195269173Y-97525041D01*
X195200000Y-97177284D01*
X195200000Y-96822716D01*
X195269173Y-96474959D01*
X195404861Y-96147380D01*
X195601849Y-95852567D01*
X195601851Y-95852564D01*
X195852564Y-95601851D01*
X195856489Y-95599228D01*
X196147380Y-95404861D01*
X196474959Y-95269173D01*
X196590878Y-95246115D01*
X196822714Y-95200000D01*
X197177286Y-95200000D01*
X197409122Y-95246115D01*
X197409122Y-95246115D01*
G37*
G36*
X107379196Y-95749958D02*
X107615780Y-95847954D01*
X107828705Y-95990226D01*
X108009774Y-96171295D01*
X108152046Y-96384220D01*
X108250042Y-96620804D01*
X108300000Y-96871960D01*
X108300000Y-97128040D01*
X108250042Y-97379196D01*
X108152046Y-97615780D01*
X108009774Y-97828705D01*
X107828705Y-98009774D01*
X107615780Y-98152046D01*
X107379196Y-98250042D01*
X107128040Y-98300000D01*
X106871960Y-98300000D01*
X106620804Y-98250042D01*
X106384220Y-98152046D01*
X106171295Y-98009774D01*
X105990226Y-97828705D01*
X105847954Y-97615780D01*
X105749958Y-97379196D01*
X105700000Y-97128040D01*
X105700000Y-96871960D01*
X105749958Y-96620804D01*
X105847954Y-96384220D01*
X105990226Y-96171295D01*
X106171295Y-95990226D01*
X106384220Y-95847954D01*
X106620804Y-95749958D01*
X106871960Y-95700000D01*
X107128040Y-95700000D01*
X107379196Y-95749958D01*
X107379196Y-95749958D01*
G37*
G36*
X143379196Y-95749958D02*
X143615780Y-95847954D01*
X143828705Y-95990226D01*
X144009774Y-96171295D01*
X144152046Y-96384220D01*
X144250042Y-96620804D01*
X144300000Y-96871960D01*
X144300000Y-97128040D01*
X144250042Y-97379196D01*
X144152046Y-97615780D01*
X144009774Y-97828705D01*
X143828705Y-98009774D01*
X143615780Y-98152046D01*
X143379196Y-98250042D01*
X143128040Y-98300000D01*
X142871960Y-98300000D01*
X142620804Y-98250042D01*
X142384220Y-98152046D01*
X142171295Y-98009774D01*
X141990226Y-97828705D01*
X141847954Y-97615780D01*
X141749958Y-97379196D01*
X141700000Y-97128040D01*
X141700000Y-96871960D01*
X141749958Y-96620804D01*
X141847954Y-96384220D01*
X141990226Y-96171295D01*
X142171295Y-95990226D01*
X142384220Y-95847954D01*
X142620804Y-95749958D01*
X142871960Y-95700000D01*
X143128040Y-95700000D01*
X143379196Y-95749958D01*
X143379196Y-95749958D01*
G37*
G36*
X158853707Y-93127597D02*
X158930836Y-93135193D01*
X159062787Y-93175220D01*
X159128763Y-93195233D01*
X159311172Y-93292733D01*
X159471054Y-93423946D01*
X159602267Y-93583828D01*
X159699767Y-93766237D01*
X159699767Y-93766238D01*
X159759807Y-93964164D01*
X159780080Y-94170000D01*
X159759807Y-94375836D01*
X159719780Y-94507787D01*
X159699767Y-94573763D01*
X159602267Y-94756172D01*
X159471054Y-94916054D01*
X159311172Y-95047267D01*
X159128763Y-95144767D01*
X159062787Y-95164780D01*
X158930836Y-95204807D01*
X158853707Y-95212404D01*
X158776580Y-95220000D01*
X158673420Y-95220000D01*
X158596293Y-95212404D01*
X158519164Y-95204807D01*
X158387213Y-95164780D01*
X158321237Y-95144767D01*
X158138828Y-95047267D01*
X157978946Y-94916054D01*
X157847733Y-94756172D01*
X157750233Y-94573763D01*
X157730220Y-94507787D01*
X157690193Y-94375836D01*
X157669920Y-94170000D01*
X157690193Y-93964164D01*
X157750233Y-93766238D01*
X157750233Y-93766237D01*
X157847733Y-93583828D01*
X157978946Y-93423946D01*
X158138828Y-93292733D01*
X158321237Y-93195233D01*
X158387213Y-93175220D01*
X158519164Y-93135193D01*
X158596293Y-93127597D01*
X158673420Y-93120000D01*
X158776580Y-93120000D01*
X158853707Y-93127597D01*
X158853707Y-93127597D01*
G37*
G36*
X161393707Y-93127597D02*
X161470836Y-93135193D01*
X161602787Y-93175220D01*
X161668763Y-93195233D01*
X161851172Y-93292733D01*
X162011054Y-93423946D01*
X162142267Y-93583828D01*
X162239767Y-93766237D01*
X162239767Y-93766238D01*
X162299807Y-93964164D01*
X162320080Y-94170000D01*
X162299807Y-94375836D01*
X162259780Y-94507787D01*
X162239767Y-94573763D01*
X162142267Y-94756172D01*
X162011054Y-94916054D01*
X161851172Y-95047267D01*
X161668763Y-95144767D01*
X161602787Y-95164780D01*
X161470836Y-95204807D01*
X161393707Y-95212404D01*
X161316580Y-95220000D01*
X161213420Y-95220000D01*
X161136293Y-95212404D01*
X161059164Y-95204807D01*
X160927213Y-95164780D01*
X160861237Y-95144767D01*
X160678828Y-95047267D01*
X160518946Y-94916054D01*
X160387733Y-94756172D01*
X160290233Y-94573763D01*
X160270220Y-94507787D01*
X160230193Y-94375836D01*
X160209920Y-94170000D01*
X160230193Y-93964164D01*
X160290233Y-93766238D01*
X160290233Y-93766237D01*
X160387733Y-93583828D01*
X160518946Y-93423946D01*
X160678828Y-93292733D01*
X160861237Y-93195233D01*
X160927213Y-93175220D01*
X161059164Y-93135193D01*
X161136293Y-93127597D01*
X161213420Y-93120000D01*
X161316580Y-93120000D01*
X161393707Y-93127597D01*
X161393707Y-93127597D01*
G37*
G36*
X163933707Y-93127597D02*
X164010836Y-93135193D01*
X164142787Y-93175220D01*
X164208763Y-93195233D01*
X164391172Y-93292733D01*
X164551054Y-93423946D01*
X164682267Y-93583828D01*
X164779767Y-93766237D01*
X164779767Y-93766238D01*
X164839807Y-93964164D01*
X164860080Y-94170000D01*
X164839807Y-94375836D01*
X164799780Y-94507787D01*
X164779767Y-94573763D01*
X164682267Y-94756172D01*
X164551054Y-94916054D01*
X164391172Y-95047267D01*
X164208763Y-95144767D01*
X164142787Y-95164780D01*
X164010836Y-95204807D01*
X163933707Y-95212404D01*
X163856580Y-95220000D01*
X163753420Y-95220000D01*
X163676293Y-95212404D01*
X163599164Y-95204807D01*
X163467213Y-95164780D01*
X163401237Y-95144767D01*
X163218828Y-95047267D01*
X163058946Y-94916054D01*
X162927733Y-94756172D01*
X162830233Y-94573763D01*
X162810220Y-94507787D01*
X162770193Y-94375836D01*
X162749920Y-94170000D01*
X162770193Y-93964164D01*
X162830233Y-93766238D01*
X162830233Y-93766237D01*
X162927733Y-93583828D01*
X163058946Y-93423946D01*
X163218828Y-93292733D01*
X163401237Y-93195233D01*
X163467213Y-93175220D01*
X163599164Y-93135193D01*
X163676293Y-93127597D01*
X163753420Y-93120000D01*
X163856580Y-93120000D01*
X163933707Y-93127597D01*
X163933707Y-93127597D01*
G37*
G36*
X166473707Y-93127597D02*
X166550836Y-93135193D01*
X166682787Y-93175220D01*
X166748763Y-93195233D01*
X166931172Y-93292733D01*
X167091054Y-93423946D01*
X167222267Y-93583828D01*
X167319767Y-93766237D01*
X167319767Y-93766238D01*
X167379807Y-93964164D01*
X167400080Y-94170000D01*
X167379807Y-94375836D01*
X167339780Y-94507787D01*
X167319767Y-94573763D01*
X167222267Y-94756172D01*
X167091054Y-94916054D01*
X166931172Y-95047267D01*
X166748763Y-95144767D01*
X166682787Y-95164780D01*
X166550836Y-95204807D01*
X166473707Y-95212404D01*
X166396580Y-95220000D01*
X166293420Y-95220000D01*
X166216293Y-95212404D01*
X166139164Y-95204807D01*
X166007213Y-95164780D01*
X165941237Y-95144767D01*
X165758828Y-95047267D01*
X165598946Y-94916054D01*
X165467733Y-94756172D01*
X165370233Y-94573763D01*
X165350220Y-94507787D01*
X165310193Y-94375836D01*
X165289920Y-94170000D01*
X165310193Y-93964164D01*
X165370233Y-93766238D01*
X165370233Y-93766237D01*
X165467733Y-93583828D01*
X165598946Y-93423946D01*
X165758828Y-93292733D01*
X165941237Y-93195233D01*
X166007213Y-93175220D01*
X166139164Y-93135193D01*
X166216293Y-93127597D01*
X166293420Y-93120000D01*
X166396580Y-93120000D01*
X166473707Y-93127597D01*
X166473707Y-93127597D01*
G37*
G36*
X169013707Y-93127597D02*
X169090836Y-93135193D01*
X169222787Y-93175220D01*
X169288763Y-93195233D01*
X169471172Y-93292733D01*
X169631054Y-93423946D01*
X169762267Y-93583828D01*
X169859767Y-93766237D01*
X169859767Y-93766238D01*
X169919807Y-93964164D01*
X169940080Y-94170000D01*
X169919807Y-94375836D01*
X169879780Y-94507787D01*
X169859767Y-94573763D01*
X169762267Y-94756172D01*
X169631054Y-94916054D01*
X169471172Y-95047267D01*
X169288763Y-95144767D01*
X169222787Y-95164780D01*
X169090836Y-95204807D01*
X169013707Y-95212404D01*
X168936580Y-95220000D01*
X168833420Y-95220000D01*
X168756293Y-95212404D01*
X168679164Y-95204807D01*
X168547213Y-95164780D01*
X168481237Y-95144767D01*
X168298828Y-95047267D01*
X168138946Y-94916054D01*
X168007733Y-94756172D01*
X167910233Y-94573763D01*
X167890220Y-94507787D01*
X167850193Y-94375836D01*
X167829920Y-94170000D01*
X167850193Y-93964164D01*
X167910233Y-93766238D01*
X167910233Y-93766237D01*
X168007733Y-93583828D01*
X168138946Y-93423946D01*
X168298828Y-93292733D01*
X168481237Y-93195233D01*
X168547213Y-93175220D01*
X168679164Y-93135193D01*
X168756293Y-93127597D01*
X168833420Y-93120000D01*
X168936580Y-93120000D01*
X169013707Y-93127597D01*
X169013707Y-93127597D01*
G37*
G36*
X171553707Y-93127597D02*
X171630836Y-93135193D01*
X171762787Y-93175220D01*
X171828763Y-93195233D01*
X172011172Y-93292733D01*
X172171054Y-93423946D01*
X172302267Y-93583828D01*
X172399767Y-93766237D01*
X172399767Y-93766238D01*
X172459807Y-93964164D01*
X172480080Y-94170000D01*
X172459807Y-94375836D01*
X172419780Y-94507787D01*
X172399767Y-94573763D01*
X172302267Y-94756172D01*
X172171054Y-94916054D01*
X172011172Y-95047267D01*
X171828763Y-95144767D01*
X171762787Y-95164780D01*
X171630836Y-95204807D01*
X171553707Y-95212404D01*
X171476580Y-95220000D01*
X171373420Y-95220000D01*
X171296293Y-95212404D01*
X171219164Y-95204807D01*
X171087213Y-95164780D01*
X171021237Y-95144767D01*
X170838828Y-95047267D01*
X170678946Y-94916054D01*
X170547733Y-94756172D01*
X170450233Y-94573763D01*
X170430220Y-94507787D01*
X170390193Y-94375836D01*
X170369920Y-94170000D01*
X170390193Y-93964164D01*
X170450233Y-93766238D01*
X170450233Y-93766237D01*
X170547733Y-93583828D01*
X170678946Y-93423946D01*
X170838828Y-93292733D01*
X171021237Y-93195233D01*
X171087213Y-93175220D01*
X171219164Y-93135193D01*
X171296293Y-93127597D01*
X171373420Y-93120000D01*
X171476580Y-93120000D01*
X171553707Y-93127597D01*
X171553707Y-93127597D01*
G37*
G36*
X174093707Y-93127597D02*
X174170836Y-93135193D01*
X174302787Y-93175220D01*
X174368763Y-93195233D01*
X174551172Y-93292733D01*
X174711054Y-93423946D01*
X174842267Y-93583828D01*
X174939767Y-93766237D01*
X174939767Y-93766238D01*
X174999807Y-93964164D01*
X175020080Y-94170000D01*
X174999807Y-94375836D01*
X174959780Y-94507787D01*
X174939767Y-94573763D01*
X174842267Y-94756172D01*
X174711054Y-94916054D01*
X174551172Y-95047267D01*
X174368763Y-95144767D01*
X174302787Y-95164780D01*
X174170836Y-95204807D01*
X174093707Y-95212404D01*
X174016580Y-95220000D01*
X173913420Y-95220000D01*
X173836293Y-95212404D01*
X173759164Y-95204807D01*
X173627213Y-95164780D01*
X173561237Y-95144767D01*
X173378828Y-95047267D01*
X173218946Y-94916054D01*
X173087733Y-94756172D01*
X172990233Y-94573763D01*
X172970220Y-94507787D01*
X172930193Y-94375836D01*
X172909920Y-94170000D01*
X172930193Y-93964164D01*
X172990233Y-93766238D01*
X172990233Y-93766237D01*
X173087733Y-93583828D01*
X173218946Y-93423946D01*
X173378828Y-93292733D01*
X173561237Y-93195233D01*
X173627213Y-93175220D01*
X173759164Y-93135193D01*
X173836293Y-93127597D01*
X173913420Y-93120000D01*
X174016580Y-93120000D01*
X174093707Y-93127597D01*
X174093707Y-93127597D01*
G37*
G36*
X176633707Y-93127597D02*
X176710836Y-93135193D01*
X176842787Y-93175220D01*
X176908763Y-93195233D01*
X177091172Y-93292733D01*
X177251054Y-93423946D01*
X177382267Y-93583828D01*
X177479767Y-93766237D01*
X177479767Y-93766238D01*
X177539807Y-93964164D01*
X177560080Y-94170000D01*
X177539807Y-94375836D01*
X177499780Y-94507787D01*
X177479767Y-94573763D01*
X177382267Y-94756172D01*
X177251054Y-94916054D01*
X177091172Y-95047267D01*
X176908763Y-95144767D01*
X176842787Y-95164780D01*
X176710836Y-95204807D01*
X176633707Y-95212404D01*
X176556580Y-95220000D01*
X176453420Y-95220000D01*
X176376293Y-95212404D01*
X176299164Y-95204807D01*
X176167213Y-95164780D01*
X176101237Y-95144767D01*
X175918828Y-95047267D01*
X175758946Y-94916054D01*
X175627733Y-94756172D01*
X175530233Y-94573763D01*
X175510220Y-94507787D01*
X175470193Y-94375836D01*
X175449920Y-94170000D01*
X175470193Y-93964164D01*
X175530233Y-93766238D01*
X175530233Y-93766237D01*
X175627733Y-93583828D01*
X175758946Y-93423946D01*
X175918828Y-93292733D01*
X176101237Y-93195233D01*
X176167213Y-93175220D01*
X176299164Y-93135193D01*
X176376293Y-93127597D01*
X176453420Y-93120000D01*
X176556580Y-93120000D01*
X176633707Y-93127597D01*
X176633707Y-93127597D01*
G37*
G36*
X179173707Y-93127597D02*
X179250836Y-93135193D01*
X179382787Y-93175220D01*
X179448763Y-93195233D01*
X179631172Y-93292733D01*
X179791054Y-93423946D01*
X179922267Y-93583828D01*
X180019767Y-93766237D01*
X180019767Y-93766238D01*
X180079807Y-93964164D01*
X180100080Y-94170000D01*
X180079807Y-94375836D01*
X180039780Y-94507787D01*
X180019767Y-94573763D01*
X179922267Y-94756172D01*
X179791054Y-94916054D01*
X179631172Y-95047267D01*
X179448763Y-95144767D01*
X179382787Y-95164780D01*
X179250836Y-95204807D01*
X179173707Y-95212404D01*
X179096580Y-95220000D01*
X178993420Y-95220000D01*
X178916293Y-95212404D01*
X178839164Y-95204807D01*
X178707213Y-95164780D01*
X178641237Y-95144767D01*
X178458828Y-95047267D01*
X178298946Y-94916054D01*
X178167733Y-94756172D01*
X178070233Y-94573763D01*
X178050220Y-94507787D01*
X178010193Y-94375836D01*
X177989920Y-94170000D01*
X178010193Y-93964164D01*
X178070233Y-93766238D01*
X178070233Y-93766237D01*
X178167733Y-93583828D01*
X178298946Y-93423946D01*
X178458828Y-93292733D01*
X178641237Y-93195233D01*
X178707213Y-93175220D01*
X178839164Y-93135193D01*
X178916293Y-93127597D01*
X178993420Y-93120000D01*
X179096580Y-93120000D01*
X179173707Y-93127597D01*
X179173707Y-93127597D01*
G37*
G36*
X181713707Y-93127597D02*
X181790836Y-93135193D01*
X181922787Y-93175220D01*
X181988763Y-93195233D01*
X182171172Y-93292733D01*
X182331054Y-93423946D01*
X182462267Y-93583828D01*
X182559767Y-93766237D01*
X182559767Y-93766238D01*
X182619807Y-93964164D01*
X182640080Y-94170000D01*
X182619807Y-94375836D01*
X182579780Y-94507787D01*
X182559767Y-94573763D01*
X182462267Y-94756172D01*
X182331054Y-94916054D01*
X182171172Y-95047267D01*
X181988763Y-95144767D01*
X181922787Y-95164780D01*
X181790836Y-95204807D01*
X181713707Y-95212404D01*
X181636580Y-95220000D01*
X181533420Y-95220000D01*
X181456293Y-95212404D01*
X181379164Y-95204807D01*
X181247213Y-95164780D01*
X181181237Y-95144767D01*
X180998828Y-95047267D01*
X180838946Y-94916054D01*
X180707733Y-94756172D01*
X180610233Y-94573763D01*
X180590220Y-94507787D01*
X180550193Y-94375836D01*
X180529920Y-94170000D01*
X180550193Y-93964164D01*
X180610233Y-93766238D01*
X180610233Y-93766237D01*
X180707733Y-93583828D01*
X180838946Y-93423946D01*
X180998828Y-93292733D01*
X181181237Y-93195233D01*
X181247213Y-93175220D01*
X181379164Y-93135193D01*
X181456293Y-93127597D01*
X181533420Y-93120000D01*
X181636580Y-93120000D01*
X181713707Y-93127597D01*
X181713707Y-93127597D01*
G37*
G36*
X157235000Y-95220000D02*
X155135000Y-95220000D01*
X155135000Y-93120000D01*
X157235000Y-93120000D01*
X157235000Y-95220000D01*
X157235000Y-95220000D01*
G37*
G36*
X139974603Y-91703368D02*
X139974606Y-91703369D01*
X139974605Y-91703369D01*
X140149678Y-91775886D01*
X140307239Y-91881166D01*
X140307241Y-91881168D01*
X140316469Y-91887334D01*
X140338080Y-91898885D01*
X140361529Y-91905998D01*
X140385916Y-91908400D01*
X143624000Y-91908400D01*
X143624000Y-93308400D01*
X140426250Y-93308400D01*
X140401864Y-93310802D01*
X140378415Y-93317915D01*
X140356804Y-93329466D01*
X140337862Y-93345012D01*
X140307241Y-93375633D01*
X140234936Y-93423946D01*
X140149678Y-93480914D01*
X140022890Y-93533431D01*
X139974603Y-93553432D01*
X139788750Y-93590400D01*
X139599250Y-93590400D01*
X139413397Y-93553432D01*
X139365110Y-93533431D01*
X139238322Y-93480914D01*
X139153064Y-93423946D01*
X139080759Y-93375633D01*
X138946767Y-93241641D01*
X138841487Y-93084079D01*
X138841486Y-93084078D01*
X138768969Y-92909005D01*
X138768968Y-92909003D01*
X138732000Y-92723150D01*
X138732000Y-92533650D01*
X138768968Y-92347797D01*
X138785397Y-92308134D01*
X138841486Y-92172722D01*
X138946766Y-92015161D01*
X138946767Y-92015159D01*
X139080759Y-91881167D01*
X139238321Y-91775887D01*
X139238322Y-91775886D01*
X139413395Y-91703369D01*
X139413394Y-91703369D01*
X139413397Y-91703368D01*
X139599250Y-91666400D01*
X139788750Y-91666400D01*
X139974603Y-91703368D01*
X139974603Y-91703368D01*
G37*
G36*
X149334603Y-91683368D02*
X149334606Y-91683369D01*
X149334605Y-91683369D01*
X149509678Y-91755886D01*
X149539611Y-91775887D01*
X149667241Y-91861167D01*
X149801233Y-91995159D01*
X149814598Y-92015161D01*
X149906514Y-92152722D01*
X149914798Y-92172722D01*
X149979032Y-92327797D01*
X150016000Y-92513650D01*
X150016000Y-92703150D01*
X149979032Y-92889003D01*
X149979031Y-92889005D01*
X149906514Y-93064078D01*
X149869148Y-93120000D01*
X149801233Y-93221641D01*
X149667241Y-93355633D01*
X149587923Y-93408632D01*
X149509678Y-93460914D01*
X149374266Y-93517003D01*
X149334603Y-93533432D01*
X149148750Y-93570400D01*
X148959250Y-93570400D01*
X148773397Y-93533432D01*
X148733734Y-93517003D01*
X148598322Y-93460914D01*
X148520077Y-93408632D01*
X148440759Y-93355633D01*
X148430138Y-93345012D01*
X148411196Y-93329466D01*
X148389585Y-93317915D01*
X148366136Y-93310802D01*
X148341750Y-93308400D01*
X145124000Y-93308400D01*
X145124000Y-91908400D01*
X148341750Y-91908400D01*
X148366136Y-91905998D01*
X148389585Y-91898885D01*
X148411196Y-91887334D01*
X148430138Y-91871788D01*
X148440759Y-91861167D01*
X148568389Y-91775887D01*
X148598322Y-91755886D01*
X148773395Y-91683369D01*
X148773394Y-91683369D01*
X148773397Y-91683368D01*
X148959250Y-91646400D01*
X149148750Y-91646400D01*
X149334603Y-91683368D01*
X149334603Y-91683368D01*
G37*
G36*
X144521738Y-90705053D02*
X144563598Y-90713379D01*
X144598245Y-90727730D01*
X144681890Y-90762377D01*
X144788354Y-90833514D01*
X144878886Y-90924046D01*
X144895066Y-90948261D01*
X144900656Y-90955073D01*
X144904811Y-90962846D01*
X144950023Y-91030511D01*
X144999021Y-91148803D01*
X145024000Y-91274379D01*
X145024000Y-91402421D01*
X144999021Y-91527997D01*
X144950023Y-91646289D01*
X144904811Y-91713954D01*
X144900656Y-91721728D01*
X144895066Y-91728539D01*
X144878886Y-91752754D01*
X144788354Y-91843286D01*
X144681890Y-91914423D01*
X144598245Y-91949070D01*
X144563598Y-91963421D01*
X144521738Y-91971747D01*
X144438021Y-91988400D01*
X144309979Y-91988400D01*
X144226262Y-91971747D01*
X144184402Y-91963421D01*
X144149755Y-91949070D01*
X144066110Y-91914423D01*
X143959646Y-91843286D01*
X143869114Y-91752754D01*
X143852934Y-91728539D01*
X143847344Y-91721727D01*
X143843189Y-91713954D01*
X143797977Y-91646289D01*
X143748979Y-91527997D01*
X143724000Y-91402421D01*
X143724000Y-91274379D01*
X143748979Y-91148803D01*
X143797977Y-91030511D01*
X143843189Y-90962846D01*
X143847344Y-90955072D01*
X143852934Y-90948261D01*
X143869114Y-90924046D01*
X143959646Y-90833514D01*
X144066110Y-90762377D01*
X144149755Y-90727730D01*
X144184402Y-90713379D01*
X144226262Y-90705053D01*
X144309979Y-90688400D01*
X144438021Y-90688400D01*
X144521738Y-90705053D01*
X144521738Y-90705053D01*
G37*
G36*
X149334603Y-89153368D02*
X149334606Y-89153369D01*
X149334605Y-89153369D01*
X149509678Y-89225886D01*
X149509679Y-89225887D01*
X149667241Y-89331167D01*
X149801233Y-89465159D01*
X149801234Y-89465161D01*
X149906514Y-89622722D01*
X149962603Y-89758134D01*
X149979032Y-89797797D01*
X150016000Y-89983650D01*
X150016000Y-90173150D01*
X149979032Y-90359003D01*
X149979031Y-90359005D01*
X149906514Y-90534078D01*
X149906513Y-90534079D01*
X149801233Y-90691641D01*
X149667241Y-90825633D01*
X149655449Y-90833512D01*
X149509678Y-90930914D01*
X149374266Y-90987003D01*
X149334603Y-91003432D01*
X149148750Y-91040400D01*
X148959250Y-91040400D01*
X148773397Y-91003432D01*
X148733734Y-90987003D01*
X148598322Y-90930914D01*
X148452551Y-90833512D01*
X148440759Y-90825633D01*
X148420138Y-90805012D01*
X148401196Y-90789466D01*
X148379585Y-90777915D01*
X148356136Y-90770802D01*
X148331750Y-90768400D01*
X145124000Y-90768400D01*
X145124000Y-89368400D01*
X148351750Y-89368400D01*
X148376136Y-89365998D01*
X148399585Y-89358885D01*
X148421196Y-89347334D01*
X148440138Y-89331788D01*
X148440759Y-89331167D01*
X148598321Y-89225887D01*
X148598322Y-89225886D01*
X148773395Y-89153369D01*
X148773394Y-89153369D01*
X148773397Y-89153368D01*
X148959250Y-89116400D01*
X149148750Y-89116400D01*
X149334603Y-89153368D01*
X149334603Y-89153368D01*
G37*
G36*
X139974603Y-89123368D02*
X139974606Y-89123369D01*
X139974605Y-89123369D01*
X140149678Y-89195886D01*
X140194577Y-89225887D01*
X140307241Y-89301167D01*
X140337862Y-89331788D01*
X140356804Y-89347334D01*
X140378415Y-89358885D01*
X140401864Y-89365998D01*
X140426250Y-89368400D01*
X143624000Y-89368400D01*
X143624000Y-90768400D01*
X140385916Y-90768400D01*
X140361530Y-90770802D01*
X140338081Y-90777915D01*
X140316469Y-90789466D01*
X140307241Y-90795632D01*
X140307239Y-90795634D01*
X140149678Y-90900914D01*
X140004642Y-90960989D01*
X139974603Y-90973432D01*
X139788750Y-91010400D01*
X139599250Y-91010400D01*
X139413397Y-90973432D01*
X139373734Y-90957003D01*
X139238322Y-90900914D01*
X139137449Y-90833512D01*
X139080759Y-90795633D01*
X138946767Y-90661641D01*
X138841487Y-90504079D01*
X138841486Y-90504078D01*
X138768969Y-90329005D01*
X138768968Y-90329003D01*
X138732000Y-90143150D01*
X138732000Y-89953650D01*
X138768968Y-89767797D01*
X138829060Y-89622722D01*
X138841486Y-89592722D01*
X138946766Y-89435161D01*
X138946767Y-89435159D01*
X139080759Y-89301167D01*
X139193423Y-89225887D01*
X139238322Y-89195886D01*
X139413395Y-89123369D01*
X139413394Y-89123369D01*
X139413397Y-89123368D01*
X139599250Y-89086400D01*
X139788750Y-89086400D01*
X139974603Y-89123368D01*
X139974603Y-89123368D01*
G37*
G36*
X144521738Y-88165053D02*
X144563598Y-88173379D01*
X144598245Y-88187730D01*
X144681890Y-88222377D01*
X144788354Y-88293514D01*
X144878886Y-88384046D01*
X144895066Y-88408261D01*
X144900656Y-88415073D01*
X144904811Y-88422846D01*
X144950023Y-88490511D01*
X144999021Y-88608803D01*
X145024000Y-88734379D01*
X145024000Y-88862421D01*
X144999021Y-88987997D01*
X144950023Y-89106289D01*
X144904811Y-89173954D01*
X144900656Y-89181728D01*
X144895066Y-89188539D01*
X144878886Y-89212754D01*
X144788354Y-89303286D01*
X144681890Y-89374423D01*
X144598245Y-89409070D01*
X144563598Y-89423421D01*
X144521738Y-89431747D01*
X144438021Y-89448400D01*
X144309979Y-89448400D01*
X144226262Y-89431747D01*
X144184402Y-89423421D01*
X144149755Y-89409070D01*
X144066110Y-89374423D01*
X143959646Y-89303286D01*
X143869114Y-89212754D01*
X143852934Y-89188539D01*
X143847344Y-89181727D01*
X143843189Y-89173954D01*
X143797977Y-89106289D01*
X143748979Y-88987997D01*
X143724000Y-88862421D01*
X143724000Y-88734379D01*
X143748979Y-88608803D01*
X143797977Y-88490511D01*
X143843189Y-88422846D01*
X143847344Y-88415072D01*
X143852934Y-88408261D01*
X143869114Y-88384046D01*
X143959646Y-88293514D01*
X144066110Y-88222377D01*
X144149755Y-88187730D01*
X144184402Y-88173379D01*
X144226262Y-88165053D01*
X144309979Y-88148400D01*
X144438021Y-88148400D01*
X144521738Y-88165053D01*
X144521738Y-88165053D01*
G37*
G36*
X139974603Y-86603368D02*
X139974606Y-86603369D01*
X139974605Y-86603369D01*
X140149678Y-86675886D01*
X140149679Y-86675887D01*
X140307241Y-86781167D01*
X140317862Y-86791788D01*
X140336804Y-86807334D01*
X140358415Y-86818885D01*
X140381864Y-86825998D01*
X140406250Y-86828400D01*
X143624000Y-86828400D01*
X143624000Y-88228400D01*
X140406250Y-88228400D01*
X140381864Y-88230802D01*
X140358415Y-88237915D01*
X140336804Y-88249466D01*
X140317862Y-88265012D01*
X140307241Y-88275633D01*
X140280483Y-88293512D01*
X140149678Y-88380914D01*
X140067210Y-88415073D01*
X139974603Y-88453432D01*
X139788750Y-88490400D01*
X139599250Y-88490400D01*
X139413397Y-88453432D01*
X139320790Y-88415073D01*
X139238322Y-88380914D01*
X139107517Y-88293512D01*
X139080759Y-88275633D01*
X138946767Y-88141641D01*
X138841487Y-87984079D01*
X138841486Y-87984078D01*
X138768969Y-87809005D01*
X138768968Y-87809003D01*
X138732000Y-87623150D01*
X138732000Y-87433650D01*
X138768968Y-87247797D01*
X138785397Y-87208134D01*
X138841486Y-87072722D01*
X138946766Y-86915161D01*
X138946767Y-86915159D01*
X139080759Y-86781167D01*
X139238321Y-86675887D01*
X139238322Y-86675886D01*
X139413395Y-86603369D01*
X139413394Y-86603369D01*
X139413397Y-86603368D01*
X139599250Y-86566400D01*
X139788750Y-86566400D01*
X139974603Y-86603368D01*
X139974603Y-86603368D01*
G37*
G36*
X149334603Y-86593368D02*
X149374266Y-86609797D01*
X149509678Y-86665886D01*
X149524645Y-86675887D01*
X149667241Y-86771167D01*
X149801233Y-86905159D01*
X149801234Y-86905161D01*
X149906514Y-87062722D01*
X149910656Y-87072722D01*
X149979032Y-87237797D01*
X150016000Y-87423650D01*
X150016000Y-87613150D01*
X149979032Y-87799003D01*
X149979031Y-87799005D01*
X149906514Y-87974078D01*
X149906513Y-87974079D01*
X149801233Y-88131641D01*
X149667241Y-88265633D01*
X149625517Y-88293512D01*
X149509678Y-88370914D01*
X149403070Y-88415072D01*
X149334603Y-88443432D01*
X149148750Y-88480400D01*
X148959250Y-88480400D01*
X148773397Y-88443432D01*
X148704930Y-88415072D01*
X148598322Y-88370914D01*
X148482483Y-88293512D01*
X148440759Y-88265633D01*
X148440138Y-88265012D01*
X148421196Y-88249466D01*
X148399585Y-88237915D01*
X148376136Y-88230802D01*
X148351750Y-88228400D01*
X145124000Y-88228400D01*
X145124000Y-86828400D01*
X148331750Y-86828400D01*
X148356136Y-86825998D01*
X148379585Y-86818885D01*
X148401196Y-86807334D01*
X148420138Y-86791788D01*
X148440759Y-86771167D01*
X148583355Y-86675887D01*
X148598322Y-86665886D01*
X148733734Y-86609797D01*
X148773397Y-86593368D01*
X148959250Y-86556400D01*
X149148750Y-86556400D01*
X149334603Y-86593368D01*
X149334603Y-86593368D01*
G37*
G36*
X139974603Y-84073368D02*
X139974606Y-84073369D01*
X139974605Y-84073369D01*
X140149678Y-84145886D01*
X140149679Y-84145887D01*
X140307241Y-84251167D01*
X140307862Y-84251788D01*
X140326804Y-84267334D01*
X140348415Y-84278885D01*
X140371864Y-84285998D01*
X140396250Y-84288400D01*
X143624000Y-84288400D01*
X143624000Y-85688400D01*
X140416250Y-85688400D01*
X140391864Y-85690802D01*
X140368415Y-85697915D01*
X140346804Y-85709466D01*
X140327862Y-85725012D01*
X140307241Y-85745633D01*
X140227923Y-85798632D01*
X140149678Y-85850914D01*
X140014266Y-85907003D01*
X139974603Y-85923432D01*
X139788750Y-85960400D01*
X139599250Y-85960400D01*
X139413397Y-85923432D01*
X139373734Y-85907003D01*
X139238322Y-85850914D01*
X139160077Y-85798632D01*
X139080759Y-85745633D01*
X138946767Y-85611641D01*
X138841487Y-85454079D01*
X138841486Y-85454078D01*
X138768969Y-85279005D01*
X138768968Y-85279003D01*
X138732000Y-85093150D01*
X138732000Y-84903650D01*
X138768968Y-84717797D01*
X138785397Y-84678134D01*
X138841486Y-84542722D01*
X138946766Y-84385161D01*
X138946767Y-84385159D01*
X139080759Y-84251167D01*
X139238321Y-84145887D01*
X139238322Y-84145886D01*
X139413395Y-84073369D01*
X139413394Y-84073369D01*
X139413397Y-84073368D01*
X139599250Y-84036400D01*
X139788750Y-84036400D01*
X139974603Y-84073368D01*
X139974603Y-84073368D01*
G37*
G36*
X149334603Y-84063368D02*
X149374266Y-84079797D01*
X149509678Y-84135886D01*
X149524645Y-84145887D01*
X149667241Y-84241167D01*
X149801233Y-84375159D01*
X149801234Y-84375161D01*
X149906514Y-84532722D01*
X149910656Y-84542722D01*
X149979032Y-84707797D01*
X150016000Y-84893650D01*
X150016000Y-85083150D01*
X149979032Y-85269003D01*
X149979031Y-85269005D01*
X149906514Y-85444078D01*
X149906513Y-85444079D01*
X149801233Y-85601641D01*
X149667241Y-85735633D01*
X149587923Y-85788632D01*
X149509678Y-85840914D01*
X149374266Y-85897003D01*
X149334603Y-85913432D01*
X149148750Y-85950400D01*
X148959250Y-85950400D01*
X148773397Y-85913432D01*
X148733734Y-85897003D01*
X148598322Y-85840914D01*
X148520077Y-85788632D01*
X148440759Y-85735633D01*
X148430138Y-85725012D01*
X148411196Y-85709466D01*
X148389585Y-85697915D01*
X148366136Y-85690802D01*
X148341750Y-85688400D01*
X145124000Y-85688400D01*
X145124000Y-84288400D01*
X148341750Y-84288400D01*
X148366136Y-84285998D01*
X148389585Y-84278885D01*
X148411196Y-84267334D01*
X148430138Y-84251788D01*
X148440759Y-84241167D01*
X148583355Y-84145887D01*
X148598322Y-84135886D01*
X148733734Y-84079797D01*
X148773397Y-84063368D01*
X148959250Y-84026400D01*
X149148750Y-84026400D01*
X149334603Y-84063368D01*
X149334603Y-84063368D01*
G37*
G36*
X149334603Y-81513368D02*
X149334606Y-81513369D01*
X149334605Y-81513369D01*
X149509678Y-81585886D01*
X149509679Y-81585887D01*
X149667241Y-81691167D01*
X149801233Y-81825159D01*
X149801234Y-81825161D01*
X149906514Y-81982722D01*
X149962603Y-82118134D01*
X149979032Y-82157797D01*
X150016000Y-82343650D01*
X150016000Y-82533150D01*
X149979032Y-82719003D01*
X149979031Y-82719005D01*
X149906514Y-82894078D01*
X149906513Y-82894079D01*
X149801233Y-83051641D01*
X149667241Y-83185633D01*
X149587923Y-83238632D01*
X149509678Y-83290914D01*
X149374266Y-83347003D01*
X149334603Y-83363432D01*
X149148750Y-83400400D01*
X148959250Y-83400400D01*
X148773397Y-83363432D01*
X148733734Y-83347003D01*
X148598322Y-83290914D01*
X148520077Y-83238632D01*
X148440759Y-83185633D01*
X148440138Y-83185012D01*
X148421196Y-83169466D01*
X148399585Y-83157915D01*
X148376136Y-83150802D01*
X148351750Y-83148400D01*
X145124000Y-83148400D01*
X145124000Y-81748400D01*
X148331750Y-81748400D01*
X148356136Y-81745998D01*
X148379585Y-81738885D01*
X148401196Y-81727334D01*
X148420138Y-81711788D01*
X148440759Y-81691167D01*
X148598321Y-81585887D01*
X148598322Y-81585886D01*
X148773395Y-81513369D01*
X148773394Y-81513369D01*
X148773397Y-81513368D01*
X148959250Y-81476400D01*
X149148750Y-81476400D01*
X149334603Y-81513368D01*
X149334603Y-81513368D01*
G37*
G36*
X139974603Y-81503368D02*
X140014266Y-81519797D01*
X140149678Y-81575886D01*
X140164645Y-81585887D01*
X140307241Y-81681167D01*
X140337862Y-81711788D01*
X140356804Y-81727334D01*
X140378415Y-81738885D01*
X140401864Y-81745998D01*
X140426250Y-81748400D01*
X143624000Y-81748400D01*
X143624000Y-83148400D01*
X140385916Y-83148400D01*
X140361530Y-83150802D01*
X140338081Y-83157915D01*
X140316469Y-83169466D01*
X140307241Y-83175632D01*
X140307239Y-83175634D01*
X140149678Y-83280914D01*
X140004642Y-83340989D01*
X139974603Y-83353432D01*
X139788750Y-83390400D01*
X139599250Y-83390400D01*
X139413397Y-83353432D01*
X139373734Y-83337003D01*
X139238322Y-83280914D01*
X139160077Y-83228632D01*
X139080759Y-83175633D01*
X138946767Y-83041641D01*
X138841487Y-82884079D01*
X138841486Y-82884078D01*
X138768969Y-82709005D01*
X138768968Y-82709003D01*
X138732000Y-82523150D01*
X138732000Y-82333650D01*
X138768968Y-82147797D01*
X138837344Y-81982722D01*
X138841486Y-81972722D01*
X138946766Y-81815161D01*
X138946767Y-81815159D01*
X139080759Y-81681167D01*
X139223355Y-81585887D01*
X139238322Y-81575886D01*
X139373734Y-81519797D01*
X139413397Y-81503368D01*
X139599250Y-81466400D01*
X139788750Y-81466400D01*
X139974603Y-81503368D01*
X139974603Y-81503368D01*
G37*
G36*
X149334603Y-78973368D02*
X149334606Y-78973369D01*
X149334605Y-78973369D01*
X149509678Y-79045886D01*
X149509679Y-79045887D01*
X149667241Y-79151167D01*
X149801233Y-79285159D01*
X149801234Y-79285161D01*
X149906514Y-79442722D01*
X149962603Y-79578134D01*
X149979032Y-79617797D01*
X150016000Y-79803650D01*
X150016000Y-79993150D01*
X149979032Y-80179003D01*
X149979031Y-80179005D01*
X149906514Y-80354078D01*
X149906513Y-80354079D01*
X149801233Y-80511641D01*
X149667241Y-80645633D01*
X149587923Y-80698632D01*
X149509678Y-80750914D01*
X149374266Y-80807003D01*
X149334603Y-80823432D01*
X149148750Y-80860400D01*
X148959250Y-80860400D01*
X148773397Y-80823432D01*
X148733734Y-80807003D01*
X148598322Y-80750914D01*
X148520077Y-80698632D01*
X148440759Y-80645633D01*
X148440138Y-80645012D01*
X148421196Y-80629466D01*
X148399585Y-80617915D01*
X148376136Y-80610802D01*
X148351750Y-80608400D01*
X145124000Y-80608400D01*
X145124000Y-79208400D01*
X148331750Y-79208400D01*
X148356136Y-79205998D01*
X148379585Y-79198885D01*
X148401196Y-79187334D01*
X148420138Y-79171788D01*
X148440759Y-79151167D01*
X148598321Y-79045887D01*
X148598322Y-79045886D01*
X148773395Y-78973369D01*
X148773394Y-78973369D01*
X148773397Y-78973368D01*
X148959250Y-78936400D01*
X149148750Y-78936400D01*
X149334603Y-78973368D01*
X149334603Y-78973368D01*
G37*
G36*
X139974603Y-78963368D02*
X140014266Y-78979797D01*
X140149678Y-79035886D01*
X140164645Y-79045887D01*
X140307241Y-79141167D01*
X140337862Y-79171788D01*
X140356804Y-79187334D01*
X140378415Y-79198885D01*
X140401864Y-79205998D01*
X140426250Y-79208400D01*
X143624000Y-79208400D01*
X143624000Y-80608400D01*
X140385916Y-80608400D01*
X140361530Y-80610802D01*
X140338081Y-80617915D01*
X140316469Y-80629466D01*
X140307241Y-80635632D01*
X140307239Y-80635634D01*
X140149678Y-80740914D01*
X140004642Y-80800989D01*
X139974603Y-80813432D01*
X139788750Y-80850400D01*
X139599250Y-80850400D01*
X139413397Y-80813432D01*
X139373734Y-80797003D01*
X139238322Y-80740914D01*
X139160077Y-80688632D01*
X139080759Y-80635633D01*
X138946767Y-80501641D01*
X138841487Y-80344079D01*
X138841486Y-80344078D01*
X138768969Y-80169005D01*
X138768968Y-80169003D01*
X138732000Y-79983150D01*
X138732000Y-79793650D01*
X138768968Y-79607797D01*
X138837344Y-79442722D01*
X138841486Y-79432722D01*
X138946766Y-79275161D01*
X138946767Y-79275159D01*
X139080759Y-79141167D01*
X139223355Y-79045887D01*
X139238322Y-79035886D01*
X139373734Y-78979797D01*
X139413397Y-78963368D01*
X139599250Y-78926400D01*
X139788750Y-78926400D01*
X139974603Y-78963368D01*
X139974603Y-78963368D01*
G37*
G36*
X139974603Y-76433368D02*
X139974606Y-76433369D01*
X139974605Y-76433369D01*
X140149678Y-76505886D01*
X140149679Y-76505887D01*
X140307241Y-76611167D01*
X140327862Y-76631788D01*
X140346804Y-76647334D01*
X140368415Y-76658885D01*
X140391864Y-76665998D01*
X140416250Y-76668400D01*
X143624000Y-76668400D01*
X143624000Y-78068400D01*
X140396250Y-78068400D01*
X140371864Y-78070802D01*
X140348415Y-78077915D01*
X140326804Y-78089466D01*
X140307862Y-78105012D01*
X140307241Y-78105633D01*
X140227923Y-78158632D01*
X140149678Y-78210914D01*
X140014266Y-78267003D01*
X139974603Y-78283432D01*
X139788750Y-78320400D01*
X139599250Y-78320400D01*
X139413397Y-78283432D01*
X139373734Y-78267003D01*
X139238322Y-78210914D01*
X139160077Y-78158632D01*
X139080759Y-78105633D01*
X138946767Y-77971641D01*
X138841487Y-77814079D01*
X138841486Y-77814078D01*
X138768969Y-77639005D01*
X138768968Y-77639003D01*
X138732000Y-77453150D01*
X138732000Y-77263650D01*
X138768968Y-77077797D01*
X138785397Y-77038134D01*
X138841486Y-76902722D01*
X138946766Y-76745161D01*
X138946767Y-76745159D01*
X139080759Y-76611167D01*
X139238321Y-76505887D01*
X139238322Y-76505886D01*
X139413395Y-76433369D01*
X139413394Y-76433369D01*
X139413397Y-76433368D01*
X139599250Y-76396400D01*
X139788750Y-76396400D01*
X139974603Y-76433368D01*
X139974603Y-76433368D01*
G37*
G36*
X149334603Y-76433368D02*
X149334606Y-76433369D01*
X149334605Y-76433369D01*
X149509678Y-76505886D01*
X149509679Y-76505887D01*
X149667241Y-76611167D01*
X149801233Y-76745159D01*
X149801234Y-76745161D01*
X149906514Y-76902722D01*
X149962603Y-77038134D01*
X149979032Y-77077797D01*
X150016000Y-77263650D01*
X150016000Y-77453150D01*
X149979032Y-77639003D01*
X149979031Y-77639005D01*
X149906514Y-77814078D01*
X149906513Y-77814079D01*
X149801233Y-77971641D01*
X149667241Y-78105633D01*
X149587923Y-78158632D01*
X149509678Y-78210914D01*
X149374266Y-78267003D01*
X149334603Y-78283432D01*
X149148750Y-78320400D01*
X148959250Y-78320400D01*
X148773397Y-78283432D01*
X148733734Y-78267003D01*
X148598322Y-78210914D01*
X148520077Y-78158632D01*
X148440759Y-78105633D01*
X148440138Y-78105012D01*
X148421196Y-78089466D01*
X148399585Y-78077915D01*
X148376136Y-78070802D01*
X148351750Y-78068400D01*
X145124000Y-78068400D01*
X145124000Y-76668400D01*
X148331750Y-76668400D01*
X148356136Y-76665998D01*
X148379585Y-76658885D01*
X148401196Y-76647334D01*
X148420138Y-76631788D01*
X148440759Y-76611167D01*
X148598321Y-76505887D01*
X148598322Y-76505886D01*
X148773395Y-76433369D01*
X148773394Y-76433369D01*
X148773397Y-76433368D01*
X148959250Y-76396400D01*
X149148750Y-76396400D01*
X149334603Y-76433368D01*
X149334603Y-76433368D01*
G37*
G36*
X139974603Y-73913368D02*
X139974606Y-73913369D01*
X139974605Y-73913369D01*
X140149678Y-73985886D01*
X140149679Y-73985887D01*
X140307241Y-74091167D01*
X140307862Y-74091788D01*
X140326804Y-74107334D01*
X140348415Y-74118885D01*
X140371864Y-74125998D01*
X140396250Y-74128400D01*
X143624000Y-74128400D01*
X143624000Y-75528400D01*
X140416250Y-75528400D01*
X140391864Y-75530802D01*
X140368415Y-75537915D01*
X140346804Y-75549466D01*
X140327862Y-75565012D01*
X140307241Y-75585633D01*
X140227923Y-75638632D01*
X140149678Y-75690914D01*
X140014266Y-75747003D01*
X139974603Y-75763432D01*
X139788750Y-75800400D01*
X139599250Y-75800400D01*
X139413397Y-75763432D01*
X139373734Y-75747003D01*
X139238322Y-75690914D01*
X139160077Y-75638632D01*
X139080759Y-75585633D01*
X138946767Y-75451641D01*
X138841487Y-75294079D01*
X138841486Y-75294078D01*
X138768969Y-75119005D01*
X138768968Y-75119003D01*
X138732000Y-74933150D01*
X138732000Y-74743650D01*
X138768968Y-74557797D01*
X138785397Y-74518134D01*
X138841486Y-74382722D01*
X138946766Y-74225161D01*
X138946767Y-74225159D01*
X139080759Y-74091167D01*
X139238321Y-73985887D01*
X139238322Y-73985886D01*
X139413395Y-73913369D01*
X139413394Y-73913369D01*
X139413397Y-73913368D01*
X139599250Y-73876400D01*
X139788750Y-73876400D01*
X139974603Y-73913368D01*
X139974603Y-73913368D01*
G37*
G36*
X149334603Y-73913368D02*
X149334606Y-73913369D01*
X149334605Y-73913369D01*
X149509678Y-73985886D01*
X149509679Y-73985887D01*
X149667241Y-74091167D01*
X149801233Y-74225159D01*
X149801234Y-74225161D01*
X149906514Y-74382722D01*
X149962603Y-74518134D01*
X149979032Y-74557797D01*
X150016000Y-74743650D01*
X150016000Y-74933150D01*
X149979032Y-75119003D01*
X149979031Y-75119005D01*
X149906514Y-75294078D01*
X149906513Y-75294079D01*
X149801233Y-75451641D01*
X149667241Y-75585633D01*
X149587923Y-75638632D01*
X149509678Y-75690914D01*
X149374266Y-75747003D01*
X149334603Y-75763432D01*
X149148750Y-75800400D01*
X148959250Y-75800400D01*
X148773397Y-75763432D01*
X148733734Y-75747003D01*
X148598322Y-75690914D01*
X148520077Y-75638632D01*
X148440759Y-75585633D01*
X148420138Y-75565012D01*
X148401196Y-75549466D01*
X148379585Y-75537915D01*
X148356136Y-75530802D01*
X148331750Y-75528400D01*
X145124000Y-75528400D01*
X145124000Y-74128400D01*
X148351750Y-74128400D01*
X148376136Y-74125998D01*
X148399585Y-74118885D01*
X148421196Y-74107334D01*
X148440138Y-74091788D01*
X148440759Y-74091167D01*
X148598321Y-73985887D01*
X148598322Y-73985886D01*
X148773395Y-73913369D01*
X148773394Y-73913369D01*
X148773397Y-73913368D01*
X148959250Y-73876400D01*
X149148750Y-73876400D01*
X149334603Y-73913368D01*
X149334603Y-73913368D01*
G37*
G36*
X149334603Y-71353368D02*
X149334606Y-71353369D01*
X149334605Y-71353369D01*
X149509678Y-71425886D01*
X149509679Y-71425887D01*
X149667241Y-71531167D01*
X149801233Y-71665159D01*
X149801234Y-71665161D01*
X149906514Y-71822722D01*
X149962603Y-71958134D01*
X149979032Y-71997797D01*
X150016000Y-72183650D01*
X150016000Y-72373150D01*
X149979032Y-72559003D01*
X149979031Y-72559005D01*
X149906514Y-72734078D01*
X149906513Y-72734079D01*
X149801233Y-72891641D01*
X149667241Y-73025633D01*
X149587923Y-73078632D01*
X149509678Y-73130914D01*
X149374266Y-73187003D01*
X149334603Y-73203432D01*
X149148750Y-73240400D01*
X148959250Y-73240400D01*
X148773397Y-73203432D01*
X148733734Y-73187003D01*
X148598322Y-73130914D01*
X148520077Y-73078632D01*
X148440759Y-73025633D01*
X148440138Y-73025012D01*
X148421196Y-73009466D01*
X148399585Y-72997915D01*
X148376136Y-72990802D01*
X148351750Y-72988400D01*
X145124000Y-72988400D01*
X145124000Y-71588400D01*
X148331750Y-71588400D01*
X148356136Y-71585998D01*
X148379585Y-71578885D01*
X148401196Y-71567334D01*
X148420138Y-71551788D01*
X148440759Y-71531167D01*
X148598321Y-71425887D01*
X148598322Y-71425886D01*
X148773395Y-71353369D01*
X148773394Y-71353369D01*
X148773397Y-71353368D01*
X148959250Y-71316400D01*
X149148750Y-71316400D01*
X149334603Y-71353368D01*
X149334603Y-71353368D01*
G37*
G36*
X139974603Y-71343368D02*
X140014266Y-71359797D01*
X140149678Y-71415886D01*
X140164645Y-71425887D01*
X140307241Y-71521167D01*
X140337862Y-71551788D01*
X140356804Y-71567334D01*
X140378415Y-71578885D01*
X140401864Y-71585998D01*
X140426250Y-71588400D01*
X143624000Y-71588400D01*
X143624000Y-72988400D01*
X140385916Y-72988400D01*
X140361530Y-72990802D01*
X140338081Y-72997915D01*
X140316469Y-73009466D01*
X140307241Y-73015632D01*
X140307239Y-73015634D01*
X140149678Y-73120914D01*
X140004642Y-73180989D01*
X139974603Y-73193432D01*
X139788750Y-73230400D01*
X139599250Y-73230400D01*
X139413397Y-73193432D01*
X139373734Y-73177003D01*
X139238322Y-73120914D01*
X139160077Y-73068632D01*
X139080759Y-73015633D01*
X138946767Y-72881641D01*
X138841487Y-72724079D01*
X138841486Y-72724078D01*
X138768969Y-72549005D01*
X138768968Y-72549003D01*
X138732000Y-72363150D01*
X138732000Y-72173650D01*
X138768968Y-71987797D01*
X138837344Y-71822722D01*
X138841486Y-71812722D01*
X138946766Y-71655161D01*
X138946767Y-71655159D01*
X139080759Y-71521167D01*
X139223355Y-71425887D01*
X139238322Y-71415886D01*
X139373734Y-71359797D01*
X139413397Y-71343368D01*
X139599250Y-71306400D01*
X139788750Y-71306400D01*
X139974603Y-71343368D01*
X139974603Y-71343368D01*
G37*
G36*
X139974603Y-68833368D02*
X139974606Y-68833369D01*
X139974605Y-68833369D01*
X140149678Y-68905886D01*
X140149679Y-68905887D01*
X140307241Y-69011167D01*
X140307862Y-69011788D01*
X140326804Y-69027334D01*
X140348415Y-69038885D01*
X140371864Y-69045998D01*
X140396250Y-69048400D01*
X143624000Y-69048400D01*
X143624000Y-70448400D01*
X140416250Y-70448400D01*
X140391864Y-70450802D01*
X140368415Y-70457915D01*
X140346804Y-70469466D01*
X140327862Y-70485012D01*
X140307241Y-70505633D01*
X140227923Y-70558632D01*
X140149678Y-70610914D01*
X140014266Y-70667003D01*
X139974603Y-70683432D01*
X139788750Y-70720400D01*
X139599250Y-70720400D01*
X139413397Y-70683432D01*
X139373734Y-70667003D01*
X139238322Y-70610914D01*
X139160077Y-70558632D01*
X139080759Y-70505633D01*
X138946767Y-70371641D01*
X138841487Y-70214079D01*
X138841486Y-70214078D01*
X138768969Y-70039005D01*
X138768968Y-70039003D01*
X138732000Y-69853150D01*
X138732000Y-69663650D01*
X138768968Y-69477797D01*
X138785397Y-69438134D01*
X138841486Y-69302722D01*
X138946766Y-69145161D01*
X138946767Y-69145159D01*
X139080759Y-69011167D01*
X139238321Y-68905887D01*
X139238322Y-68905886D01*
X139413395Y-68833369D01*
X139413394Y-68833369D01*
X139413397Y-68833368D01*
X139599250Y-68796400D01*
X139788750Y-68796400D01*
X139974603Y-68833368D01*
X139974603Y-68833368D01*
G37*
G36*
X149334603Y-68823368D02*
X149374266Y-68839797D01*
X149509678Y-68895886D01*
X149524645Y-68905887D01*
X149667241Y-69001167D01*
X149801233Y-69135159D01*
X149801234Y-69135161D01*
X149906514Y-69292722D01*
X149910656Y-69302722D01*
X149979032Y-69467797D01*
X150016000Y-69653650D01*
X150016000Y-69843150D01*
X149979032Y-70029003D01*
X149979031Y-70029005D01*
X149906514Y-70204078D01*
X149906513Y-70204079D01*
X149801233Y-70361641D01*
X149667241Y-70495633D01*
X149587923Y-70548632D01*
X149509678Y-70600914D01*
X149374266Y-70657003D01*
X149334603Y-70673432D01*
X149148750Y-70710400D01*
X148959250Y-70710400D01*
X148773397Y-70673432D01*
X148733734Y-70657003D01*
X148598322Y-70600914D01*
X148520077Y-70548632D01*
X148440759Y-70495633D01*
X148430138Y-70485012D01*
X148411196Y-70469466D01*
X148389585Y-70457915D01*
X148366136Y-70450802D01*
X148341750Y-70448400D01*
X145124000Y-70448400D01*
X145124000Y-69048400D01*
X148341750Y-69048400D01*
X148366136Y-69045998D01*
X148389585Y-69038885D01*
X148411196Y-69027334D01*
X148430138Y-69011788D01*
X148440759Y-69001167D01*
X148583355Y-68905887D01*
X148598322Y-68895886D01*
X148733734Y-68839797D01*
X148773397Y-68823368D01*
X148959250Y-68786400D01*
X149148750Y-68786400D01*
X149334603Y-68823368D01*
X149334603Y-68823368D01*
G37*
G36*
X149334603Y-66273368D02*
X149334606Y-66273369D01*
X149334605Y-66273369D01*
X149509678Y-66345886D01*
X149509679Y-66345887D01*
X149667241Y-66451167D01*
X149801233Y-66585159D01*
X149801234Y-66585161D01*
X149906514Y-66742722D01*
X149962603Y-66878134D01*
X149979032Y-66917797D01*
X150016000Y-67103650D01*
X150016000Y-67293150D01*
X149979032Y-67479003D01*
X149979031Y-67479005D01*
X149906514Y-67654078D01*
X149906513Y-67654079D01*
X149801233Y-67811641D01*
X149667241Y-67945633D01*
X149587923Y-67998632D01*
X149509678Y-68050914D01*
X149382890Y-68103431D01*
X149334603Y-68123432D01*
X149148750Y-68160400D01*
X148959250Y-68160400D01*
X148773397Y-68123432D01*
X148725110Y-68103431D01*
X148598322Y-68050914D01*
X148520077Y-67998632D01*
X148440759Y-67945633D01*
X148440138Y-67945012D01*
X148421196Y-67929466D01*
X148399585Y-67917915D01*
X148376136Y-67910802D01*
X148351750Y-67908400D01*
X145124000Y-67908400D01*
X145124000Y-66508400D01*
X148331750Y-66508400D01*
X148356136Y-66505998D01*
X148379585Y-66498885D01*
X148401196Y-66487334D01*
X148420138Y-66471788D01*
X148440759Y-66451167D01*
X148598321Y-66345887D01*
X148598322Y-66345886D01*
X148773395Y-66273369D01*
X148773394Y-66273369D01*
X148773397Y-66273368D01*
X148959250Y-66236400D01*
X149148750Y-66236400D01*
X149334603Y-66273368D01*
X149334603Y-66273368D01*
G37*
G36*
X139974603Y-66253368D02*
X139974606Y-66253369D01*
X139974605Y-66253369D01*
X140149678Y-66325886D01*
X140179611Y-66345887D01*
X140307241Y-66431167D01*
X140347862Y-66471788D01*
X140366804Y-66487334D01*
X140388415Y-66498885D01*
X140411864Y-66505998D01*
X140436250Y-66508400D01*
X143624000Y-66508400D01*
X143624000Y-67908400D01*
X140370950Y-67908400D01*
X140346564Y-67910802D01*
X140323115Y-67917915D01*
X140301508Y-67929463D01*
X140149678Y-68030914D01*
X140004642Y-68090989D01*
X139974603Y-68103432D01*
X139788750Y-68140400D01*
X139599250Y-68140400D01*
X139413397Y-68103432D01*
X139373734Y-68087003D01*
X139238322Y-68030914D01*
X139160077Y-67978632D01*
X139080759Y-67925633D01*
X138946767Y-67791641D01*
X138893768Y-67712323D01*
X138841486Y-67634078D01*
X138768969Y-67459005D01*
X138768968Y-67459003D01*
X138732000Y-67273150D01*
X138732000Y-67083650D01*
X138768968Y-66897797D01*
X138833202Y-66742722D01*
X138841486Y-66722722D01*
X138933402Y-66585161D01*
X138946767Y-66565159D01*
X139080759Y-66431167D01*
X139208389Y-66345887D01*
X139238322Y-66325886D01*
X139413395Y-66253369D01*
X139413394Y-66253369D01*
X139413397Y-66253368D01*
X139599250Y-66216400D01*
X139788750Y-66216400D01*
X139974603Y-66253368D01*
X139974603Y-66253368D01*
G37*
G36*
X149334603Y-63733368D02*
X149334606Y-63733369D01*
X149334605Y-63733369D01*
X149509678Y-63805886D01*
X149509679Y-63805887D01*
X149667241Y-63911167D01*
X149801233Y-64045159D01*
X149801234Y-64045161D01*
X149906514Y-64202722D01*
X149962603Y-64338134D01*
X149979032Y-64377797D01*
X150016000Y-64563650D01*
X150016000Y-64753150D01*
X149979032Y-64939003D01*
X149979031Y-64939005D01*
X149906514Y-65114078D01*
X149906513Y-65114079D01*
X149801233Y-65271641D01*
X149667241Y-65405633D01*
X149587923Y-65458632D01*
X149509678Y-65510914D01*
X149374266Y-65567003D01*
X149334603Y-65583432D01*
X149148750Y-65620400D01*
X148959250Y-65620400D01*
X148773397Y-65583432D01*
X148733734Y-65567003D01*
X148598322Y-65510914D01*
X148520077Y-65458632D01*
X148440759Y-65405633D01*
X148440138Y-65405012D01*
X148421196Y-65389466D01*
X148399585Y-65377915D01*
X148376136Y-65370802D01*
X148351750Y-65368400D01*
X145124000Y-65368400D01*
X145124000Y-63968400D01*
X148331750Y-63968400D01*
X148356136Y-63965998D01*
X148379585Y-63958885D01*
X148401196Y-63947334D01*
X148420138Y-63931788D01*
X148440759Y-63911167D01*
X148598321Y-63805887D01*
X148598322Y-63805886D01*
X148773395Y-63733369D01*
X148773394Y-63733369D01*
X148773397Y-63733368D01*
X148959250Y-63696400D01*
X149148750Y-63696400D01*
X149334603Y-63733368D01*
X149334603Y-63733368D01*
G37*
G36*
X139974603Y-63723368D02*
X140014266Y-63739797D01*
X140149678Y-63795886D01*
X140164645Y-63805887D01*
X140307241Y-63901167D01*
X140337862Y-63931788D01*
X140356804Y-63947334D01*
X140378415Y-63958885D01*
X140401864Y-63965998D01*
X140426250Y-63968400D01*
X143624000Y-63968400D01*
X143624000Y-65368400D01*
X140385916Y-65368400D01*
X140361530Y-65370802D01*
X140338081Y-65377915D01*
X140316469Y-65389466D01*
X140307241Y-65395632D01*
X140307239Y-65395634D01*
X140149678Y-65500914D01*
X140004642Y-65560989D01*
X139974603Y-65573432D01*
X139788750Y-65610400D01*
X139599250Y-65610400D01*
X139413397Y-65573432D01*
X139373734Y-65557003D01*
X139238322Y-65500914D01*
X139160077Y-65448632D01*
X139080759Y-65395633D01*
X138946767Y-65261641D01*
X138841487Y-65104079D01*
X138841486Y-65104078D01*
X138768969Y-64929005D01*
X138768968Y-64929003D01*
X138732000Y-64743150D01*
X138732000Y-64553650D01*
X138768968Y-64367797D01*
X138837344Y-64202722D01*
X138841486Y-64192722D01*
X138946766Y-64035161D01*
X138946767Y-64035159D01*
X139080759Y-63901167D01*
X139223355Y-63805887D01*
X139238322Y-63795886D01*
X139373734Y-63739797D01*
X139413397Y-63723368D01*
X139599250Y-63686400D01*
X139788750Y-63686400D01*
X139974603Y-63723368D01*
X139974603Y-63723368D01*
G37*
G36*
X139974603Y-61213368D02*
X139974606Y-61213369D01*
X139974605Y-61213369D01*
X140149678Y-61285886D01*
X140149679Y-61285887D01*
X140307241Y-61391167D01*
X140307862Y-61391788D01*
X140326804Y-61407334D01*
X140348415Y-61418885D01*
X140371864Y-61425998D01*
X140396250Y-61428400D01*
X143624000Y-61428400D01*
X143624000Y-62828400D01*
X140416250Y-62828400D01*
X140391864Y-62830802D01*
X140368415Y-62837915D01*
X140346804Y-62849466D01*
X140327862Y-62865012D01*
X140307241Y-62885633D01*
X140227923Y-62938632D01*
X140149678Y-62990914D01*
X140014266Y-63047003D01*
X139974603Y-63063432D01*
X139788750Y-63100400D01*
X139599250Y-63100400D01*
X139413397Y-63063432D01*
X139373734Y-63047003D01*
X139238322Y-62990914D01*
X139160077Y-62938632D01*
X139080759Y-62885633D01*
X138946767Y-62751641D01*
X138841487Y-62594079D01*
X138841486Y-62594078D01*
X138768969Y-62419005D01*
X138768968Y-62419003D01*
X138732000Y-62233150D01*
X138732000Y-62043650D01*
X138768968Y-61857797D01*
X138785397Y-61818134D01*
X138841486Y-61682722D01*
X138946766Y-61525161D01*
X138946767Y-61525159D01*
X139080759Y-61391167D01*
X139238321Y-61285887D01*
X139238322Y-61285886D01*
X139413395Y-61213369D01*
X139413394Y-61213369D01*
X139413397Y-61213368D01*
X139599250Y-61176400D01*
X139788750Y-61176400D01*
X139974603Y-61213368D01*
X139974603Y-61213368D01*
G37*
G36*
X149334603Y-61213368D02*
X149334606Y-61213369D01*
X149334605Y-61213369D01*
X149509678Y-61285886D01*
X149509679Y-61285887D01*
X149667241Y-61391167D01*
X149801233Y-61525159D01*
X149801234Y-61525161D01*
X149906514Y-61682722D01*
X149962603Y-61818134D01*
X149979032Y-61857797D01*
X150016000Y-62043650D01*
X150016000Y-62233150D01*
X149979032Y-62419003D01*
X149979031Y-62419005D01*
X149906514Y-62594078D01*
X149906513Y-62594079D01*
X149801233Y-62751641D01*
X149667241Y-62885633D01*
X149587923Y-62938632D01*
X149509678Y-62990914D01*
X149374266Y-63047003D01*
X149334603Y-63063432D01*
X149148750Y-63100400D01*
X148959250Y-63100400D01*
X148773397Y-63063432D01*
X148733734Y-63047003D01*
X148598322Y-62990914D01*
X148520077Y-62938632D01*
X148440759Y-62885633D01*
X148420138Y-62865012D01*
X148401196Y-62849466D01*
X148379585Y-62837915D01*
X148356136Y-62830802D01*
X148331750Y-62828400D01*
X145124000Y-62828400D01*
X145124000Y-61428400D01*
X148351750Y-61428400D01*
X148376136Y-61425998D01*
X148399585Y-61418885D01*
X148421196Y-61407334D01*
X148440138Y-61391788D01*
X148440759Y-61391167D01*
X148598321Y-61285887D01*
X148598322Y-61285886D01*
X148773395Y-61213369D01*
X148773394Y-61213369D01*
X148773397Y-61213368D01*
X148959250Y-61176400D01*
X149148750Y-61176400D01*
X149334603Y-61213368D01*
X149334603Y-61213368D01*
G37*
G36*
X144504577Y-60221639D02*
X144563598Y-60233379D01*
X144598245Y-60247730D01*
X144681890Y-60282377D01*
X144788354Y-60353514D01*
X144878886Y-60444046D01*
X144895066Y-60468261D01*
X144900656Y-60475073D01*
X144904811Y-60482846D01*
X144950023Y-60550511D01*
X144999021Y-60668803D01*
X145024000Y-60794379D01*
X145024000Y-60922421D01*
X144999021Y-61047997D01*
X144950023Y-61166289D01*
X144904811Y-61233954D01*
X144900656Y-61241728D01*
X144895066Y-61248539D01*
X144878886Y-61272754D01*
X144788354Y-61363286D01*
X144681890Y-61434423D01*
X144598245Y-61469070D01*
X144563598Y-61483421D01*
X144521738Y-61491747D01*
X144438021Y-61508400D01*
X144309979Y-61508400D01*
X144226262Y-61491747D01*
X144184402Y-61483421D01*
X144149755Y-61469070D01*
X144066110Y-61434423D01*
X143959646Y-61363286D01*
X143869114Y-61272754D01*
X143852934Y-61248539D01*
X143847344Y-61241727D01*
X143843189Y-61233954D01*
X143797977Y-61166289D01*
X143748979Y-61047997D01*
X143724000Y-60922421D01*
X143724000Y-60794379D01*
X143748979Y-60668803D01*
X143797977Y-60550511D01*
X143843189Y-60482846D01*
X143847344Y-60475072D01*
X143852934Y-60468261D01*
X143869114Y-60444046D01*
X143959646Y-60353514D01*
X144066110Y-60282377D01*
X144149755Y-60247730D01*
X144184402Y-60233379D01*
X144243423Y-60221639D01*
X144309979Y-60208400D01*
X144438021Y-60208400D01*
X144504577Y-60221639D01*
X144504577Y-60221639D01*
G37*
G36*
X149334603Y-58683368D02*
X149334606Y-58683369D01*
X149334605Y-58683369D01*
X149509678Y-58755886D01*
X149509679Y-58755887D01*
X149667241Y-58861167D01*
X149801233Y-58995159D01*
X149801234Y-58995161D01*
X149906514Y-59152722D01*
X149962603Y-59288134D01*
X149979032Y-59327797D01*
X150016000Y-59513650D01*
X150016000Y-59703150D01*
X149979032Y-59889003D01*
X149979031Y-59889005D01*
X149906514Y-60064078D01*
X149906513Y-60064079D01*
X149801233Y-60221641D01*
X149667241Y-60355633D01*
X149587923Y-60408632D01*
X149509678Y-60460914D01*
X149374266Y-60517003D01*
X149334603Y-60533432D01*
X149148750Y-60570400D01*
X148959250Y-60570400D01*
X148773397Y-60533432D01*
X148733734Y-60517003D01*
X148598322Y-60460914D01*
X148520077Y-60408632D01*
X148440759Y-60355633D01*
X148410138Y-60325012D01*
X148391196Y-60309466D01*
X148369585Y-60297915D01*
X148346136Y-60290802D01*
X148321750Y-60288400D01*
X145124000Y-60288400D01*
X145124000Y-58888400D01*
X148362084Y-58888400D01*
X148386470Y-58885998D01*
X148409919Y-58878885D01*
X148431531Y-58867334D01*
X148440759Y-58861168D01*
X148440761Y-58861166D01*
X148598322Y-58755886D01*
X148773395Y-58683369D01*
X148773394Y-58683369D01*
X148773397Y-58683368D01*
X148959250Y-58646400D01*
X149148750Y-58646400D01*
X149334603Y-58683368D01*
X149334603Y-58683368D01*
G37*
G36*
X139974603Y-58653368D02*
X139974606Y-58653369D01*
X139974605Y-58653369D01*
X140149678Y-58725886D01*
X140194577Y-58755887D01*
X140307241Y-58831167D01*
X140327862Y-58851788D01*
X140346804Y-58867334D01*
X140368415Y-58878885D01*
X140391864Y-58885998D01*
X140416250Y-58888400D01*
X143624000Y-58888400D01*
X143624000Y-60288400D01*
X140396250Y-60288400D01*
X140371864Y-60290802D01*
X140348415Y-60297915D01*
X140326804Y-60309466D01*
X140307862Y-60325012D01*
X140307241Y-60325633D01*
X140227923Y-60378632D01*
X140149678Y-60430914D01*
X140043070Y-60475072D01*
X139974603Y-60503432D01*
X139788750Y-60540400D01*
X139599250Y-60540400D01*
X139413397Y-60503432D01*
X139344930Y-60475072D01*
X139238322Y-60430914D01*
X139160077Y-60378632D01*
X139080759Y-60325633D01*
X138946767Y-60191641D01*
X138841487Y-60034079D01*
X138841486Y-60034078D01*
X138768969Y-59859005D01*
X138768968Y-59859003D01*
X138732000Y-59673150D01*
X138732000Y-59483650D01*
X138768968Y-59297797D01*
X138829060Y-59152722D01*
X138841486Y-59122722D01*
X138926722Y-58995159D01*
X138946767Y-58965159D01*
X139080759Y-58831167D01*
X139193423Y-58755887D01*
X139238322Y-58725886D01*
X139413395Y-58653369D01*
X139413394Y-58653369D01*
X139413397Y-58653368D01*
X139599250Y-58616400D01*
X139788750Y-58616400D01*
X139974603Y-58653368D01*
X139974603Y-58653368D01*
G37*
G36*
X144521738Y-57685053D02*
X144563598Y-57693379D01*
X144598245Y-57707730D01*
X144681890Y-57742377D01*
X144788354Y-57813514D01*
X144878886Y-57904046D01*
X144895066Y-57928261D01*
X144900656Y-57935073D01*
X144904811Y-57942846D01*
X144950023Y-58010511D01*
X144999021Y-58128803D01*
X145024000Y-58254379D01*
X145024000Y-58382421D01*
X144999021Y-58507997D01*
X144950023Y-58626289D01*
X144904811Y-58693954D01*
X144900656Y-58701728D01*
X144895066Y-58708539D01*
X144878886Y-58732754D01*
X144788354Y-58823286D01*
X144681890Y-58894423D01*
X144598245Y-58929070D01*
X144563598Y-58943421D01*
X144521738Y-58951747D01*
X144438021Y-58968400D01*
X144309979Y-58968400D01*
X144226262Y-58951747D01*
X144184402Y-58943421D01*
X144149755Y-58929070D01*
X144066110Y-58894423D01*
X143959646Y-58823286D01*
X143869114Y-58732754D01*
X143852934Y-58708539D01*
X143847344Y-58701727D01*
X143843189Y-58693954D01*
X143797977Y-58626289D01*
X143748979Y-58507997D01*
X143724000Y-58382421D01*
X143724000Y-58254379D01*
X143748979Y-58128803D01*
X143797977Y-58010511D01*
X143843189Y-57942846D01*
X143847344Y-57935072D01*
X143852934Y-57928261D01*
X143869114Y-57904046D01*
X143959646Y-57813514D01*
X144066110Y-57742377D01*
X144149755Y-57707730D01*
X144184402Y-57693379D01*
X144226262Y-57685053D01*
X144309979Y-57668400D01*
X144438021Y-57668400D01*
X144521738Y-57685053D01*
X144521738Y-57685053D01*
G37*
G36*
X149334603Y-56123368D02*
X149334606Y-56123369D01*
X149334605Y-56123369D01*
X149509678Y-56195886D01*
X149509679Y-56195887D01*
X149667241Y-56301167D01*
X149801233Y-56435159D01*
X149801234Y-56435161D01*
X149906514Y-56592722D01*
X149962603Y-56728134D01*
X149979032Y-56767797D01*
X150016000Y-56953650D01*
X150016000Y-57143150D01*
X149979032Y-57329003D01*
X149979031Y-57329005D01*
X149906514Y-57504078D01*
X149906513Y-57504079D01*
X149801233Y-57661641D01*
X149667241Y-57795633D01*
X149640483Y-57813512D01*
X149509678Y-57900914D01*
X149427210Y-57935073D01*
X149334603Y-57973432D01*
X149148750Y-58010400D01*
X148959250Y-58010400D01*
X148773397Y-57973432D01*
X148680790Y-57935073D01*
X148598322Y-57900914D01*
X148467517Y-57813512D01*
X148440759Y-57795633D01*
X148430138Y-57785012D01*
X148411196Y-57769466D01*
X148389585Y-57757915D01*
X148366136Y-57750802D01*
X148341750Y-57748400D01*
X145124000Y-57748400D01*
X145124000Y-56348400D01*
X148341750Y-56348400D01*
X148366136Y-56345998D01*
X148389585Y-56338885D01*
X148411196Y-56327334D01*
X148430138Y-56311788D01*
X148440759Y-56301167D01*
X148598321Y-56195887D01*
X148598322Y-56195886D01*
X148773395Y-56123369D01*
X148773394Y-56123369D01*
X148773397Y-56123368D01*
X148959250Y-56086400D01*
X149148750Y-56086400D01*
X149334603Y-56123368D01*
X149334603Y-56123368D01*
G37*
G36*
X139974603Y-56123368D02*
X139974606Y-56123369D01*
X139974605Y-56123369D01*
X140149678Y-56195886D01*
X140149679Y-56195887D01*
X140307241Y-56301167D01*
X140317862Y-56311788D01*
X140336804Y-56327334D01*
X140358415Y-56338885D01*
X140381864Y-56345998D01*
X140406250Y-56348400D01*
X143624000Y-56348400D01*
X143624000Y-57748400D01*
X140406250Y-57748400D01*
X140381864Y-57750802D01*
X140358415Y-57757915D01*
X140336804Y-57769466D01*
X140317862Y-57785012D01*
X140307241Y-57795633D01*
X140280483Y-57813512D01*
X140149678Y-57900914D01*
X140067210Y-57935073D01*
X139974603Y-57973432D01*
X139788750Y-58010400D01*
X139599250Y-58010400D01*
X139413397Y-57973432D01*
X139320790Y-57935073D01*
X139238322Y-57900914D01*
X139107517Y-57813512D01*
X139080759Y-57795633D01*
X138946767Y-57661641D01*
X138841487Y-57504079D01*
X138841486Y-57504078D01*
X138768969Y-57329005D01*
X138768968Y-57329003D01*
X138732000Y-57143150D01*
X138732000Y-56953650D01*
X138768968Y-56767797D01*
X138785397Y-56728134D01*
X138841486Y-56592722D01*
X138946766Y-56435161D01*
X138946767Y-56435159D01*
X139080759Y-56301167D01*
X139238321Y-56195887D01*
X139238322Y-56195886D01*
X139413395Y-56123369D01*
X139413394Y-56123369D01*
X139413397Y-56123368D01*
X139599250Y-56086400D01*
X139788750Y-56086400D01*
X139974603Y-56123368D01*
X139974603Y-56123368D01*
G37*
G36*
X174093707Y-55027596D02*
X174170836Y-55035193D01*
X174302787Y-55075220D01*
X174368763Y-55095233D01*
X174551172Y-55192733D01*
X174711054Y-55323946D01*
X174842267Y-55483828D01*
X174939767Y-55666237D01*
X174939767Y-55666238D01*
X174999807Y-55864164D01*
X175020080Y-56070000D01*
X174999807Y-56275836D01*
X174977795Y-56348400D01*
X174939767Y-56473763D01*
X174842267Y-56656172D01*
X174711054Y-56816054D01*
X174551172Y-56947267D01*
X174368763Y-57044767D01*
X174302787Y-57064780D01*
X174170836Y-57104807D01*
X174093707Y-57112404D01*
X174016580Y-57120000D01*
X173913420Y-57120000D01*
X173836293Y-57112404D01*
X173759164Y-57104807D01*
X173627213Y-57064780D01*
X173561237Y-57044767D01*
X173378828Y-56947267D01*
X173218946Y-56816054D01*
X173087733Y-56656172D01*
X172990233Y-56473763D01*
X172952205Y-56348400D01*
X172930193Y-56275836D01*
X172909920Y-56070000D01*
X172930193Y-55864164D01*
X172990233Y-55666238D01*
X172990233Y-55666237D01*
X173087733Y-55483828D01*
X173218946Y-55323946D01*
X173378828Y-55192733D01*
X173561237Y-55095233D01*
X173627213Y-55075220D01*
X173759164Y-55035193D01*
X173836293Y-55027596D01*
X173913420Y-55020000D01*
X174016580Y-55020000D01*
X174093707Y-55027596D01*
X174093707Y-55027596D01*
G37*
G36*
X182635000Y-57120000D02*
X180535000Y-57120000D01*
X180535000Y-55020000D01*
X182635000Y-55020000D01*
X182635000Y-57120000D01*
X182635000Y-57120000D01*
G37*
G36*
X176633707Y-55027596D02*
X176710836Y-55035193D01*
X176842787Y-55075220D01*
X176908763Y-55095233D01*
X177091172Y-55192733D01*
X177251054Y-55323946D01*
X177382267Y-55483828D01*
X177479767Y-55666237D01*
X177479767Y-55666238D01*
X177539807Y-55864164D01*
X177560080Y-56070000D01*
X177539807Y-56275836D01*
X177517795Y-56348400D01*
X177479767Y-56473763D01*
X177382267Y-56656172D01*
X177251054Y-56816054D01*
X177091172Y-56947267D01*
X176908763Y-57044767D01*
X176842787Y-57064780D01*
X176710836Y-57104807D01*
X176633707Y-57112404D01*
X176556580Y-57120000D01*
X176453420Y-57120000D01*
X176376293Y-57112404D01*
X176299164Y-57104807D01*
X176167213Y-57064780D01*
X176101237Y-57044767D01*
X175918828Y-56947267D01*
X175758946Y-56816054D01*
X175627733Y-56656172D01*
X175530233Y-56473763D01*
X175492205Y-56348400D01*
X175470193Y-56275836D01*
X175449920Y-56070000D01*
X175470193Y-55864164D01*
X175530233Y-55666238D01*
X175530233Y-55666237D01*
X175627733Y-55483828D01*
X175758946Y-55323946D01*
X175918828Y-55192733D01*
X176101237Y-55095233D01*
X176167213Y-55075220D01*
X176299164Y-55035193D01*
X176376293Y-55027596D01*
X176453420Y-55020000D01*
X176556580Y-55020000D01*
X176633707Y-55027596D01*
X176633707Y-55027596D01*
G37*
G36*
X156313707Y-55027596D02*
X156390836Y-55035193D01*
X156522787Y-55075220D01*
X156588763Y-55095233D01*
X156771172Y-55192733D01*
X156931054Y-55323946D01*
X157062267Y-55483828D01*
X157159767Y-55666237D01*
X157159767Y-55666238D01*
X157219807Y-55864164D01*
X157240080Y-56070000D01*
X157219807Y-56275836D01*
X157197795Y-56348400D01*
X157159767Y-56473763D01*
X157062267Y-56656172D01*
X156931054Y-56816054D01*
X156771172Y-56947267D01*
X156588763Y-57044767D01*
X156522787Y-57064780D01*
X156390836Y-57104807D01*
X156313707Y-57112404D01*
X156236580Y-57120000D01*
X156133420Y-57120000D01*
X156056293Y-57112404D01*
X155979164Y-57104807D01*
X155847213Y-57064780D01*
X155781237Y-57044767D01*
X155598828Y-56947267D01*
X155438946Y-56816054D01*
X155307733Y-56656172D01*
X155210233Y-56473763D01*
X155172205Y-56348400D01*
X155150193Y-56275836D01*
X155129920Y-56070000D01*
X155150193Y-55864164D01*
X155210233Y-55666238D01*
X155210233Y-55666237D01*
X155307733Y-55483828D01*
X155438946Y-55323946D01*
X155598828Y-55192733D01*
X155781237Y-55095233D01*
X155847213Y-55075220D01*
X155979164Y-55035193D01*
X156056293Y-55027596D01*
X156133420Y-55020000D01*
X156236580Y-55020000D01*
X156313707Y-55027596D01*
X156313707Y-55027596D01*
G37*
G36*
X158853707Y-55027596D02*
X158930836Y-55035193D01*
X159062787Y-55075220D01*
X159128763Y-55095233D01*
X159311172Y-55192733D01*
X159471054Y-55323946D01*
X159602267Y-55483828D01*
X159699767Y-55666237D01*
X159699767Y-55666238D01*
X159759807Y-55864164D01*
X159780080Y-56070000D01*
X159759807Y-56275836D01*
X159737795Y-56348400D01*
X159699767Y-56473763D01*
X159602267Y-56656172D01*
X159471054Y-56816054D01*
X159311172Y-56947267D01*
X159128763Y-57044767D01*
X159062787Y-57064780D01*
X158930836Y-57104807D01*
X158853707Y-57112404D01*
X158776580Y-57120000D01*
X158673420Y-57120000D01*
X158596293Y-57112404D01*
X158519164Y-57104807D01*
X158387213Y-57064780D01*
X158321237Y-57044767D01*
X158138828Y-56947267D01*
X157978946Y-56816054D01*
X157847733Y-56656172D01*
X157750233Y-56473763D01*
X157712205Y-56348400D01*
X157690193Y-56275836D01*
X157669920Y-56070000D01*
X157690193Y-55864164D01*
X157750233Y-55666238D01*
X157750233Y-55666237D01*
X157847733Y-55483828D01*
X157978946Y-55323946D01*
X158138828Y-55192733D01*
X158321237Y-55095233D01*
X158387213Y-55075220D01*
X158519164Y-55035193D01*
X158596293Y-55027596D01*
X158673420Y-55020000D01*
X158776580Y-55020000D01*
X158853707Y-55027596D01*
X158853707Y-55027596D01*
G37*
G36*
X161393707Y-55027596D02*
X161470836Y-55035193D01*
X161602787Y-55075220D01*
X161668763Y-55095233D01*
X161851172Y-55192733D01*
X162011054Y-55323946D01*
X162142267Y-55483828D01*
X162239767Y-55666237D01*
X162239767Y-55666238D01*
X162299807Y-55864164D01*
X162320080Y-56070000D01*
X162299807Y-56275836D01*
X162277795Y-56348400D01*
X162239767Y-56473763D01*
X162142267Y-56656172D01*
X162011054Y-56816054D01*
X161851172Y-56947267D01*
X161668763Y-57044767D01*
X161602787Y-57064780D01*
X161470836Y-57104807D01*
X161393707Y-57112404D01*
X161316580Y-57120000D01*
X161213420Y-57120000D01*
X161136293Y-57112404D01*
X161059164Y-57104807D01*
X160927213Y-57064780D01*
X160861237Y-57044767D01*
X160678828Y-56947267D01*
X160518946Y-56816054D01*
X160387733Y-56656172D01*
X160290233Y-56473763D01*
X160252205Y-56348400D01*
X160230193Y-56275836D01*
X160209920Y-56070000D01*
X160230193Y-55864164D01*
X160290233Y-55666238D01*
X160290233Y-55666237D01*
X160387733Y-55483828D01*
X160518946Y-55323946D01*
X160678828Y-55192733D01*
X160861237Y-55095233D01*
X160927213Y-55075220D01*
X161059164Y-55035193D01*
X161136293Y-55027596D01*
X161213420Y-55020000D01*
X161316580Y-55020000D01*
X161393707Y-55027596D01*
X161393707Y-55027596D01*
G37*
G36*
X163933707Y-55027596D02*
X164010836Y-55035193D01*
X164142787Y-55075220D01*
X164208763Y-55095233D01*
X164391172Y-55192733D01*
X164551054Y-55323946D01*
X164682267Y-55483828D01*
X164779767Y-55666237D01*
X164779767Y-55666238D01*
X164839807Y-55864164D01*
X164860080Y-56070000D01*
X164839807Y-56275836D01*
X164817795Y-56348400D01*
X164779767Y-56473763D01*
X164682267Y-56656172D01*
X164551054Y-56816054D01*
X164391172Y-56947267D01*
X164208763Y-57044767D01*
X164142787Y-57064780D01*
X164010836Y-57104807D01*
X163933707Y-57112404D01*
X163856580Y-57120000D01*
X163753420Y-57120000D01*
X163676293Y-57112404D01*
X163599164Y-57104807D01*
X163467213Y-57064780D01*
X163401237Y-57044767D01*
X163218828Y-56947267D01*
X163058946Y-56816054D01*
X162927733Y-56656172D01*
X162830233Y-56473763D01*
X162792205Y-56348400D01*
X162770193Y-56275836D01*
X162749920Y-56070000D01*
X162770193Y-55864164D01*
X162830233Y-55666238D01*
X162830233Y-55666237D01*
X162927733Y-55483828D01*
X163058946Y-55323946D01*
X163218828Y-55192733D01*
X163401237Y-55095233D01*
X163467213Y-55075220D01*
X163599164Y-55035193D01*
X163676293Y-55027596D01*
X163753420Y-55020000D01*
X163856580Y-55020000D01*
X163933707Y-55027596D01*
X163933707Y-55027596D01*
G37*
G36*
X169013707Y-55027596D02*
X169090836Y-55035193D01*
X169222787Y-55075220D01*
X169288763Y-55095233D01*
X169471172Y-55192733D01*
X169631054Y-55323946D01*
X169762267Y-55483828D01*
X169859767Y-55666237D01*
X169859767Y-55666238D01*
X169919807Y-55864164D01*
X169940080Y-56070000D01*
X169919807Y-56275836D01*
X169897795Y-56348400D01*
X169859767Y-56473763D01*
X169762267Y-56656172D01*
X169631054Y-56816054D01*
X169471172Y-56947267D01*
X169288763Y-57044767D01*
X169222787Y-57064780D01*
X169090836Y-57104807D01*
X169013707Y-57112404D01*
X168936580Y-57120000D01*
X168833420Y-57120000D01*
X168756293Y-57112404D01*
X168679164Y-57104807D01*
X168547213Y-57064780D01*
X168481237Y-57044767D01*
X168298828Y-56947267D01*
X168138946Y-56816054D01*
X168007733Y-56656172D01*
X167910233Y-56473763D01*
X167872205Y-56348400D01*
X167850193Y-56275836D01*
X167829920Y-56070000D01*
X167850193Y-55864164D01*
X167910233Y-55666238D01*
X167910233Y-55666237D01*
X168007733Y-55483828D01*
X168138946Y-55323946D01*
X168298828Y-55192733D01*
X168481237Y-55095233D01*
X168547213Y-55075220D01*
X168679164Y-55035193D01*
X168756293Y-55027596D01*
X168833420Y-55020000D01*
X168936580Y-55020000D01*
X169013707Y-55027596D01*
X169013707Y-55027596D01*
G37*
G36*
X171553707Y-55027596D02*
X171630836Y-55035193D01*
X171762787Y-55075220D01*
X171828763Y-55095233D01*
X172011172Y-55192733D01*
X172171054Y-55323946D01*
X172302267Y-55483828D01*
X172399767Y-55666237D01*
X172399767Y-55666238D01*
X172459807Y-55864164D01*
X172480080Y-56070000D01*
X172459807Y-56275836D01*
X172437795Y-56348400D01*
X172399767Y-56473763D01*
X172302267Y-56656172D01*
X172171054Y-56816054D01*
X172011172Y-56947267D01*
X171828763Y-57044767D01*
X171762787Y-57064780D01*
X171630836Y-57104807D01*
X171553707Y-57112404D01*
X171476580Y-57120000D01*
X171373420Y-57120000D01*
X171296293Y-57112404D01*
X171219164Y-57104807D01*
X171087213Y-57064780D01*
X171021237Y-57044767D01*
X170838828Y-56947267D01*
X170678946Y-56816054D01*
X170547733Y-56656172D01*
X170450233Y-56473763D01*
X170412205Y-56348400D01*
X170390193Y-56275836D01*
X170369920Y-56070000D01*
X170390193Y-55864164D01*
X170450233Y-55666238D01*
X170450233Y-55666237D01*
X170547733Y-55483828D01*
X170678946Y-55323946D01*
X170838828Y-55192733D01*
X171021237Y-55095233D01*
X171087213Y-55075220D01*
X171219164Y-55035193D01*
X171296293Y-55027596D01*
X171373420Y-55020000D01*
X171476580Y-55020000D01*
X171553707Y-55027596D01*
X171553707Y-55027596D01*
G37*
G36*
X166473707Y-55027596D02*
X166550836Y-55035193D01*
X166682787Y-55075220D01*
X166748763Y-55095233D01*
X166931172Y-55192733D01*
X167091054Y-55323946D01*
X167222267Y-55483828D01*
X167319767Y-55666237D01*
X167319767Y-55666238D01*
X167379807Y-55864164D01*
X167400080Y-56070000D01*
X167379807Y-56275836D01*
X167357795Y-56348400D01*
X167319767Y-56473763D01*
X167222267Y-56656172D01*
X167091054Y-56816054D01*
X166931172Y-56947267D01*
X166748763Y-57044767D01*
X166682787Y-57064780D01*
X166550836Y-57104807D01*
X166473707Y-57112404D01*
X166396580Y-57120000D01*
X166293420Y-57120000D01*
X166216293Y-57112404D01*
X166139164Y-57104807D01*
X166007213Y-57064780D01*
X165941237Y-57044767D01*
X165758828Y-56947267D01*
X165598946Y-56816054D01*
X165467733Y-56656172D01*
X165370233Y-56473763D01*
X165332205Y-56348400D01*
X165310193Y-56275836D01*
X165289920Y-56070000D01*
X165310193Y-55864164D01*
X165370233Y-55666238D01*
X165370233Y-55666237D01*
X165467733Y-55483828D01*
X165598946Y-55323946D01*
X165758828Y-55192733D01*
X165941237Y-55095233D01*
X166007213Y-55075220D01*
X166139164Y-55035193D01*
X166216293Y-55027596D01*
X166293420Y-55020000D01*
X166396580Y-55020000D01*
X166473707Y-55027596D01*
X166473707Y-55027596D01*
G37*
G36*
X179173707Y-55027596D02*
X179250836Y-55035193D01*
X179382787Y-55075220D01*
X179448763Y-55095233D01*
X179631172Y-55192733D01*
X179791054Y-55323946D01*
X179922267Y-55483828D01*
X180019767Y-55666237D01*
X180019767Y-55666238D01*
X180079807Y-55864164D01*
X180100080Y-56070000D01*
X180079807Y-56275836D01*
X180057795Y-56348400D01*
X180019767Y-56473763D01*
X179922267Y-56656172D01*
X179791054Y-56816054D01*
X179631172Y-56947267D01*
X179448763Y-57044767D01*
X179382787Y-57064780D01*
X179250836Y-57104807D01*
X179173707Y-57112404D01*
X179096580Y-57120000D01*
X178993420Y-57120000D01*
X178916293Y-57112404D01*
X178839164Y-57104807D01*
X178707213Y-57064780D01*
X178641237Y-57044767D01*
X178458828Y-56947267D01*
X178298946Y-56816054D01*
X178167733Y-56656172D01*
X178070233Y-56473763D01*
X178032205Y-56348400D01*
X178010193Y-56275836D01*
X177989920Y-56070000D01*
X178010193Y-55864164D01*
X178070233Y-55666238D01*
X178070233Y-55666237D01*
X178167733Y-55483828D01*
X178298946Y-55323946D01*
X178458828Y-55192733D01*
X178641237Y-55095233D01*
X178707213Y-55075220D01*
X178839164Y-55035193D01*
X178916293Y-55027596D01*
X178993420Y-55020000D01*
X179096580Y-55020000D01*
X179173707Y-55027596D01*
X179173707Y-55027596D01*
G37*
G36*
X103409122Y-51246115D02*
X103525041Y-51269173D01*
X103852620Y-51404861D01*
X104143511Y-51599228D01*
X104147436Y-51601851D01*
X104398149Y-51852564D01*
X104398151Y-51852567D01*
X104595139Y-52147380D01*
X104730827Y-52474959D01*
X104800000Y-52822716D01*
X104800000Y-53177284D01*
X104730827Y-53525041D01*
X104595139Y-53852620D01*
X104400772Y-54143511D01*
X104398149Y-54147436D01*
X104147436Y-54398149D01*
X104147433Y-54398151D01*
X103852620Y-54595139D01*
X103525041Y-54730827D01*
X103409122Y-54753885D01*
X103177286Y-54800000D01*
X102822714Y-54800000D01*
X102590878Y-54753885D01*
X102474959Y-54730827D01*
X102147380Y-54595139D01*
X101852567Y-54398151D01*
X101852564Y-54398149D01*
X101601851Y-54147436D01*
X101599228Y-54143511D01*
X101404861Y-53852620D01*
X101269173Y-53525041D01*
X101200000Y-53177284D01*
X101200000Y-52822716D01*
X101269173Y-52474959D01*
X101404861Y-52147380D01*
X101601849Y-51852567D01*
X101601851Y-51852564D01*
X101852564Y-51601851D01*
X101856489Y-51599228D01*
X102147380Y-51404861D01*
X102474959Y-51269173D01*
X102590878Y-51246115D01*
X102822714Y-51200000D01*
X103177286Y-51200000D01*
X103409122Y-51246115D01*
X103409122Y-51246115D01*
G37*
G36*
X147409122Y-51246115D02*
X147525041Y-51269173D01*
X147852620Y-51404861D01*
X148143511Y-51599228D01*
X148147436Y-51601851D01*
X148398149Y-51852564D01*
X148398151Y-51852567D01*
X148595139Y-52147380D01*
X148730827Y-52474959D01*
X148800000Y-52822716D01*
X148800000Y-53177284D01*
X148730827Y-53525041D01*
X148595139Y-53852620D01*
X148400772Y-54143511D01*
X148398149Y-54147436D01*
X148147436Y-54398149D01*
X148147433Y-54398151D01*
X147852620Y-54595139D01*
X147525041Y-54730827D01*
X147409122Y-54753885D01*
X147177286Y-54800000D01*
X146822714Y-54800000D01*
X146590878Y-54753885D01*
X146474959Y-54730827D01*
X146147380Y-54595139D01*
X145852567Y-54398151D01*
X145852564Y-54398149D01*
X145601851Y-54147436D01*
X145599228Y-54143511D01*
X145404861Y-53852620D01*
X145269173Y-53525041D01*
X145200000Y-53177284D01*
X145200000Y-52822716D01*
X145269173Y-52474959D01*
X145404861Y-52147380D01*
X145601849Y-51852567D01*
X145601851Y-51852564D01*
X145852564Y-51601851D01*
X145856489Y-51599228D01*
X146147380Y-51404861D01*
X146474959Y-51269173D01*
X146590878Y-51246115D01*
X146822714Y-51200000D01*
X147177286Y-51200000D01*
X147409122Y-51246115D01*
X147409122Y-51246115D01*
G37*
G36*
X197409122Y-51246115D02*
X197525041Y-51269173D01*
X197852620Y-51404861D01*
X198143511Y-51599228D01*
X198147436Y-51601851D01*
X198398149Y-51852564D01*
X198398151Y-51852567D01*
X198595139Y-52147380D01*
X198730827Y-52474959D01*
X198800000Y-52822716D01*
X198800000Y-53177284D01*
X198730827Y-53525041D01*
X198595139Y-53852620D01*
X198400772Y-54143511D01*
X198398149Y-54147436D01*
X198147436Y-54398149D01*
X198147433Y-54398151D01*
X197852620Y-54595139D01*
X197525041Y-54730827D01*
X197409122Y-54753885D01*
X197177286Y-54800000D01*
X196822714Y-54800000D01*
X196590878Y-54753885D01*
X196474959Y-54730827D01*
X196147380Y-54595139D01*
X195852567Y-54398151D01*
X195852564Y-54398149D01*
X195601851Y-54147436D01*
X195599228Y-54143511D01*
X195404861Y-53852620D01*
X195269173Y-53525041D01*
X195200000Y-53177284D01*
X195200000Y-52822716D01*
X195269173Y-52474959D01*
X195404861Y-52147380D01*
X195601849Y-51852567D01*
X195601851Y-51852564D01*
X195852564Y-51601851D01*
X195856489Y-51599228D01*
X196147380Y-51404861D01*
X196474959Y-51269173D01*
X196590878Y-51246115D01*
X196822714Y-51200000D01*
X197177286Y-51200000D01*
X197409122Y-51246115D01*
X197409122Y-51246115D01*
G37*
G36*
X107379196Y-51749958D02*
X107615780Y-51847954D01*
X107828705Y-51990226D01*
X108009774Y-52171295D01*
X108152046Y-52384220D01*
X108250042Y-52620804D01*
X108300000Y-52871960D01*
X108300000Y-53128040D01*
X108250042Y-53379196D01*
X108152046Y-53615780D01*
X108009774Y-53828705D01*
X107828705Y-54009774D01*
X107615780Y-54152046D01*
X107379196Y-54250042D01*
X107128040Y-54300000D01*
X106871960Y-54300000D01*
X106620804Y-54250042D01*
X106384220Y-54152046D01*
X106171295Y-54009774D01*
X105990226Y-53828705D01*
X105847954Y-53615780D01*
X105749958Y-53379196D01*
X105700000Y-53128040D01*
X105700000Y-52871960D01*
X105749958Y-52620804D01*
X105847954Y-52384220D01*
X105990226Y-52171295D01*
X106171295Y-51990226D01*
X106384220Y-51847954D01*
X106620804Y-51749958D01*
X106871960Y-51700000D01*
X107128040Y-51700000D01*
X107379196Y-51749958D01*
X107379196Y-51749958D01*
G37*
G36*
X143379196Y-51749958D02*
X143615780Y-51847954D01*
X143828705Y-51990226D01*
X144009774Y-52171295D01*
X144152046Y-52384220D01*
X144250042Y-52620804D01*
X144300000Y-52871960D01*
X144300000Y-53128040D01*
X144250042Y-53379196D01*
X144152046Y-53615780D01*
X144009774Y-53828705D01*
X143828705Y-54009774D01*
X143615780Y-54152046D01*
X143379196Y-54250042D01*
X143128040Y-54300000D01*
X142871960Y-54300000D01*
X142620804Y-54250042D01*
X142384220Y-54152046D01*
X142171295Y-54009774D01*
X141990226Y-53828705D01*
X141847954Y-53615780D01*
X141749958Y-53379196D01*
X141700000Y-53128040D01*
X141700000Y-52871960D01*
X141749958Y-52620804D01*
X141847954Y-52384220D01*
X141990226Y-52171295D01*
X142171295Y-51990226D01*
X142384220Y-51847954D01*
X142620804Y-51749958D01*
X142871960Y-51700000D01*
X143128040Y-51700000D01*
X143379196Y-51749958D01*
X143379196Y-51749958D01*
G37*
M02*
