G04 #@! TF.GenerationSoftware,KiCad,Pcbnew,5.0.2-bee76a0~70~ubuntu18.04.1*
G04 #@! TF.CreationDate,2018-12-02T18:05:12+09:00*
G04 #@! TF.ProjectId,M5StackSideBB,4d355374-6163-46b5-9369-646542422e6b,rev?*
G04 #@! TF.SameCoordinates,Original*
G04 #@! TF.FileFunction,Legend,Bot*
G04 #@! TF.FilePolarity,Positive*
%FSLAX46Y46*%
G04 Gerber Fmt 4.6, Leading zero omitted, Abs format (unit mm)*
G04 Created by KiCad (PCBNEW 5.0.2-bee76a0~70~ubuntu18.04.1) date 2018年12月02日 18時05分12秒*
%MOMM*%
%LPD*%
G01*
G04 APERTURE LIST*
%ADD10C,0.250000*%
%ADD11C,0.300000*%
%ADD12C,0.625000*%
%ADD13C,0.120000*%
%ADD14C,0.010000*%
G04 APERTURE END LIST*
D10*
X192520441Y-90795100D02*
X192520441Y-89795100D01*
X192049013Y-90795100D02*
X192049013Y-90271291D01*
X192101394Y-90176053D01*
X192206156Y-90128434D01*
X192363299Y-90128434D01*
X192468060Y-90176053D01*
X192520441Y-90223672D01*
X191682346Y-90128434D02*
X191263299Y-90128434D01*
X191525203Y-89795100D02*
X191525203Y-90652243D01*
X191472822Y-90747481D01*
X191368060Y-90795100D01*
X191263299Y-90795100D01*
X191053775Y-90128434D02*
X190634727Y-90128434D01*
X190896632Y-89795100D02*
X190896632Y-90652243D01*
X190844251Y-90747481D01*
X190739489Y-90795100D01*
X190634727Y-90795100D01*
X190268060Y-90128434D02*
X190268060Y-91128434D01*
X190268060Y-90176053D02*
X190163299Y-90128434D01*
X189953775Y-90128434D01*
X189849013Y-90176053D01*
X189796632Y-90223672D01*
X189744251Y-90318910D01*
X189744251Y-90604624D01*
X189796632Y-90699862D01*
X189849013Y-90747481D01*
X189953775Y-90795100D01*
X190163299Y-90795100D01*
X190268060Y-90747481D01*
X189325203Y-90747481D02*
X189220441Y-90795100D01*
X189010918Y-90795100D01*
X188906156Y-90747481D01*
X188853775Y-90652243D01*
X188853775Y-90604624D01*
X188906156Y-90509386D01*
X189010918Y-90461767D01*
X189168060Y-90461767D01*
X189272822Y-90414148D01*
X189325203Y-90318910D01*
X189325203Y-90271291D01*
X189272822Y-90176053D01*
X189168060Y-90128434D01*
X189010918Y-90128434D01*
X188906156Y-90176053D01*
X188382346Y-90699862D02*
X188329965Y-90747481D01*
X188382346Y-90795100D01*
X188434727Y-90747481D01*
X188382346Y-90699862D01*
X188382346Y-90795100D01*
X188382346Y-90176053D02*
X188329965Y-90223672D01*
X188382346Y-90271291D01*
X188434727Y-90223672D01*
X188382346Y-90176053D01*
X188382346Y-90271291D01*
X187072822Y-89747481D02*
X188015680Y-91033196D01*
X185920441Y-89747481D02*
X186863299Y-91033196D01*
X185082346Y-90128434D02*
X185082346Y-90937958D01*
X185134727Y-91033196D01*
X185187108Y-91080815D01*
X185291870Y-91128434D01*
X185449013Y-91128434D01*
X185553775Y-91080815D01*
X185082346Y-90747481D02*
X185187108Y-90795100D01*
X185396632Y-90795100D01*
X185501394Y-90747481D01*
X185553775Y-90699862D01*
X185606156Y-90604624D01*
X185606156Y-90318910D01*
X185553775Y-90223672D01*
X185501394Y-90176053D01*
X185396632Y-90128434D01*
X185187108Y-90128434D01*
X185082346Y-90176053D01*
X184558537Y-90795100D02*
X184558537Y-90128434D01*
X184558537Y-89795100D02*
X184610918Y-89842720D01*
X184558537Y-89890339D01*
X184506156Y-89842720D01*
X184558537Y-89795100D01*
X184558537Y-89890339D01*
X184191870Y-90128434D02*
X183772822Y-90128434D01*
X184034727Y-89795100D02*
X184034727Y-90652243D01*
X183982346Y-90747481D01*
X183877584Y-90795100D01*
X183772822Y-90795100D01*
X183406156Y-90795100D02*
X183406156Y-89795100D01*
X182934727Y-90795100D02*
X182934727Y-90271291D01*
X182987108Y-90176053D01*
X183091870Y-90128434D01*
X183249013Y-90128434D01*
X183353775Y-90176053D01*
X183406156Y-90223672D01*
X181939489Y-90128434D02*
X181939489Y-90795100D01*
X182410918Y-90128434D02*
X182410918Y-90652243D01*
X182358537Y-90747481D01*
X182253775Y-90795100D01*
X182096632Y-90795100D01*
X181991870Y-90747481D01*
X181939489Y-90699862D01*
X181415680Y-90795100D02*
X181415680Y-89795100D01*
X181415680Y-90176053D02*
X181310918Y-90128434D01*
X181101394Y-90128434D01*
X180996632Y-90176053D01*
X180944251Y-90223672D01*
X180891870Y-90318910D01*
X180891870Y-90604624D01*
X180944251Y-90699862D01*
X180996632Y-90747481D01*
X181101394Y-90795100D01*
X181310918Y-90795100D01*
X181415680Y-90747481D01*
X180420441Y-90699862D02*
X180368060Y-90747481D01*
X180420441Y-90795100D01*
X180472822Y-90747481D01*
X180420441Y-90699862D01*
X180420441Y-90795100D01*
X179425203Y-90747481D02*
X179529965Y-90795100D01*
X179739489Y-90795100D01*
X179844251Y-90747481D01*
X179896632Y-90699862D01*
X179949013Y-90604624D01*
X179949013Y-90318910D01*
X179896632Y-90223672D01*
X179844251Y-90176053D01*
X179739489Y-90128434D01*
X179529965Y-90128434D01*
X179425203Y-90176053D01*
X178796632Y-90795100D02*
X178901394Y-90747481D01*
X178953775Y-90699862D01*
X179006156Y-90604624D01*
X179006156Y-90318910D01*
X178953775Y-90223672D01*
X178901394Y-90176053D01*
X178796632Y-90128434D01*
X178639489Y-90128434D01*
X178534727Y-90176053D01*
X178482346Y-90223672D01*
X178429965Y-90318910D01*
X178429965Y-90604624D01*
X178482346Y-90699862D01*
X178534727Y-90747481D01*
X178639489Y-90795100D01*
X178796632Y-90795100D01*
X177958537Y-90795100D02*
X177958537Y-90128434D01*
X177958537Y-90223672D02*
X177906156Y-90176053D01*
X177801394Y-90128434D01*
X177644251Y-90128434D01*
X177539489Y-90176053D01*
X177487108Y-90271291D01*
X177487108Y-90795100D01*
X177487108Y-90271291D02*
X177434727Y-90176053D01*
X177329965Y-90128434D01*
X177172822Y-90128434D01*
X177068060Y-90176053D01*
X177015680Y-90271291D01*
X177015680Y-90795100D01*
X175706156Y-89747481D02*
X176649013Y-91033196D01*
X174868060Y-90795100D02*
X174868060Y-90271291D01*
X174920441Y-90176053D01*
X175025203Y-90128434D01*
X175234727Y-90128434D01*
X175339489Y-90176053D01*
X174868060Y-90747481D02*
X174972822Y-90795100D01*
X175234727Y-90795100D01*
X175339489Y-90747481D01*
X175391870Y-90652243D01*
X175391870Y-90557005D01*
X175339489Y-90461767D01*
X175234727Y-90414148D01*
X174972822Y-90414148D01*
X174868060Y-90366529D01*
X174396632Y-90747481D02*
X174291870Y-90795100D01*
X174082346Y-90795100D01*
X173977584Y-90747481D01*
X173925203Y-90652243D01*
X173925203Y-90604624D01*
X173977584Y-90509386D01*
X174082346Y-90461767D01*
X174239489Y-90461767D01*
X174344251Y-90414148D01*
X174396632Y-90318910D01*
X174396632Y-90271291D01*
X174344251Y-90176053D01*
X174239489Y-90128434D01*
X174082346Y-90128434D01*
X173977584Y-90176053D01*
X172982346Y-90128434D02*
X172982346Y-90795100D01*
X173453775Y-90128434D02*
X173453775Y-90652243D01*
X173401394Y-90747481D01*
X173296632Y-90795100D01*
X173139489Y-90795100D01*
X173034727Y-90747481D01*
X172982346Y-90699862D01*
X172458537Y-90795100D02*
X172458537Y-89795100D01*
X172353775Y-90414148D02*
X172039489Y-90795100D01*
X172039489Y-90128434D02*
X172458537Y-90509386D01*
X171568060Y-90795100D02*
X171568060Y-90128434D01*
X171568060Y-89795100D02*
X171620441Y-89842720D01*
X171568060Y-89890339D01*
X171515680Y-89842720D01*
X171568060Y-89795100D01*
X171568060Y-89890339D01*
X170572822Y-90795100D02*
X170572822Y-90271291D01*
X170625203Y-90176053D01*
X170729965Y-90128434D01*
X170939489Y-90128434D01*
X171044251Y-90176053D01*
X170572822Y-90747481D02*
X170677584Y-90795100D01*
X170939489Y-90795100D01*
X171044251Y-90747481D01*
X171096632Y-90652243D01*
X171096632Y-90557005D01*
X171044251Y-90461767D01*
X170939489Y-90414148D01*
X170677584Y-90414148D01*
X170572822Y-90366529D01*
X169577584Y-90795100D02*
X169577584Y-90271291D01*
X169629965Y-90176053D01*
X169734727Y-90128434D01*
X169944251Y-90128434D01*
X170049013Y-90176053D01*
X169577584Y-90747481D02*
X169682346Y-90795100D01*
X169944251Y-90795100D01*
X170049013Y-90747481D01*
X170101394Y-90652243D01*
X170101394Y-90557005D01*
X170049013Y-90461767D01*
X169944251Y-90414148D01*
X169682346Y-90414148D01*
X169577584Y-90366529D01*
X168582346Y-90795100D02*
X168582346Y-90271291D01*
X168634727Y-90176053D01*
X168739489Y-90128434D01*
X168949013Y-90128434D01*
X169053775Y-90176053D01*
X168582346Y-90747481D02*
X168687108Y-90795100D01*
X168949013Y-90795100D01*
X169053775Y-90747481D01*
X169106156Y-90652243D01*
X169106156Y-90557005D01*
X169053775Y-90461767D01*
X168949013Y-90414148D01*
X168687108Y-90414148D01*
X168582346Y-90366529D01*
X167272822Y-89747481D02*
X168215680Y-91033196D01*
X166906156Y-90795100D02*
X166906156Y-89795100D01*
X166539489Y-90509386D01*
X166172822Y-89795100D01*
X166172822Y-90795100D01*
X165125203Y-89795100D02*
X165649013Y-89795100D01*
X165701394Y-90271291D01*
X165649013Y-90223672D01*
X165544251Y-90176053D01*
X165282346Y-90176053D01*
X165177584Y-90223672D01*
X165125203Y-90271291D01*
X165072822Y-90366529D01*
X165072822Y-90604624D01*
X165125203Y-90699862D01*
X165177584Y-90747481D01*
X165282346Y-90795100D01*
X165544251Y-90795100D01*
X165649013Y-90747481D01*
X165701394Y-90699862D01*
X164653775Y-90747481D02*
X164496632Y-90795100D01*
X164234727Y-90795100D01*
X164129965Y-90747481D01*
X164077584Y-90699862D01*
X164025203Y-90604624D01*
X164025203Y-90509386D01*
X164077584Y-90414148D01*
X164129965Y-90366529D01*
X164234727Y-90318910D01*
X164444251Y-90271291D01*
X164549013Y-90223672D01*
X164601394Y-90176053D01*
X164653775Y-90080815D01*
X164653775Y-89985577D01*
X164601394Y-89890339D01*
X164549013Y-89842720D01*
X164444251Y-89795100D01*
X164182346Y-89795100D01*
X164025203Y-89842720D01*
X163710918Y-90128434D02*
X163291870Y-90128434D01*
X163553775Y-89795100D02*
X163553775Y-90652243D01*
X163501394Y-90747481D01*
X163396632Y-90795100D01*
X163291870Y-90795100D01*
X162453775Y-90795100D02*
X162453775Y-90271291D01*
X162506156Y-90176053D01*
X162610918Y-90128434D01*
X162820441Y-90128434D01*
X162925203Y-90176053D01*
X162453775Y-90747481D02*
X162558537Y-90795100D01*
X162820441Y-90795100D01*
X162925203Y-90747481D01*
X162977584Y-90652243D01*
X162977584Y-90557005D01*
X162925203Y-90461767D01*
X162820441Y-90414148D01*
X162558537Y-90414148D01*
X162453775Y-90366529D01*
X161458537Y-90747481D02*
X161563299Y-90795100D01*
X161772822Y-90795100D01*
X161877584Y-90747481D01*
X161929965Y-90699862D01*
X161982346Y-90604624D01*
X161982346Y-90318910D01*
X161929965Y-90223672D01*
X161877584Y-90176053D01*
X161772822Y-90128434D01*
X161563299Y-90128434D01*
X161458537Y-90176053D01*
X160987108Y-90795100D02*
X160987108Y-89795100D01*
X160882346Y-90414148D02*
X160568060Y-90795100D01*
X160568060Y-90128434D02*
X160987108Y-90509386D01*
X160149013Y-90747481D02*
X159991870Y-90795100D01*
X159729965Y-90795100D01*
X159625203Y-90747481D01*
X159572822Y-90699862D01*
X159520441Y-90604624D01*
X159520441Y-90509386D01*
X159572822Y-90414148D01*
X159625203Y-90366529D01*
X159729965Y-90318910D01*
X159939489Y-90271291D01*
X160044251Y-90223672D01*
X160096632Y-90176053D01*
X160149013Y-90080815D01*
X160149013Y-89985577D01*
X160096632Y-89890339D01*
X160044251Y-89842720D01*
X159939489Y-89795100D01*
X159677584Y-89795100D01*
X159520441Y-89842720D01*
X159049013Y-90795100D02*
X159049013Y-90128434D01*
X159049013Y-89795100D02*
X159101394Y-89842720D01*
X159049013Y-89890339D01*
X158996632Y-89842720D01*
X159049013Y-89795100D01*
X159049013Y-89890339D01*
X158053775Y-90795100D02*
X158053775Y-89795100D01*
X158053775Y-90747481D02*
X158158537Y-90795100D01*
X158368060Y-90795100D01*
X158472822Y-90747481D01*
X158525203Y-90699862D01*
X158577584Y-90604624D01*
X158577584Y-90318910D01*
X158525203Y-90223672D01*
X158472822Y-90176053D01*
X158368060Y-90128434D01*
X158158537Y-90128434D01*
X158053775Y-90176053D01*
X157110918Y-90747481D02*
X157215680Y-90795100D01*
X157425203Y-90795100D01*
X157529965Y-90747481D01*
X157582346Y-90652243D01*
X157582346Y-90271291D01*
X157529965Y-90176053D01*
X157425203Y-90128434D01*
X157215680Y-90128434D01*
X157110918Y-90176053D01*
X157058537Y-90271291D01*
X157058537Y-90366529D01*
X157582346Y-90461767D01*
X156220441Y-90271291D02*
X156063299Y-90318910D01*
X156010918Y-90366529D01*
X155958537Y-90461767D01*
X155958537Y-90604624D01*
X156010918Y-90699862D01*
X156063299Y-90747481D01*
X156168060Y-90795100D01*
X156587108Y-90795100D01*
X156587108Y-89795100D01*
X156220441Y-89795100D01*
X156115680Y-89842720D01*
X156063299Y-89890339D01*
X156010918Y-89985577D01*
X156010918Y-90080815D01*
X156063299Y-90176053D01*
X156115680Y-90223672D01*
X156220441Y-90271291D01*
X156587108Y-90271291D01*
X155120441Y-90271291D02*
X154963299Y-90318910D01*
X154910918Y-90366529D01*
X154858537Y-90461767D01*
X154858537Y-90604624D01*
X154910918Y-90699862D01*
X154963299Y-90747481D01*
X155068060Y-90795100D01*
X155487108Y-90795100D01*
X155487108Y-89795100D01*
X155120441Y-89795100D01*
X155015680Y-89842720D01*
X154963299Y-89890339D01*
X154910918Y-89985577D01*
X154910918Y-90080815D01*
X154963299Y-90176053D01*
X155015680Y-90223672D01*
X155120441Y-90271291D01*
X155487108Y-90271291D01*
D11*
X165202908Y-88431937D02*
X165602908Y-87860508D01*
X165888622Y-88431937D02*
X165888622Y-87231937D01*
X165431480Y-87231937D01*
X165317194Y-87289080D01*
X165260051Y-87346222D01*
X165202908Y-87460508D01*
X165202908Y-87631937D01*
X165260051Y-87746222D01*
X165317194Y-87803365D01*
X165431480Y-87860508D01*
X165888622Y-87860508D01*
X164231480Y-88374794D02*
X164345765Y-88431937D01*
X164574337Y-88431937D01*
X164688622Y-88374794D01*
X164745765Y-88260508D01*
X164745765Y-87803365D01*
X164688622Y-87689080D01*
X164574337Y-87631937D01*
X164345765Y-87631937D01*
X164231480Y-87689080D01*
X164174337Y-87803365D01*
X164174337Y-87917651D01*
X164745765Y-88031937D01*
X163774337Y-87631937D02*
X163488622Y-88431937D01*
X163202908Y-87631937D01*
X161888622Y-87346222D02*
X161831480Y-87289080D01*
X161717194Y-87231937D01*
X161431480Y-87231937D01*
X161317194Y-87289080D01*
X161260051Y-87346222D01*
X161202908Y-87460508D01*
X161202908Y-87574794D01*
X161260051Y-87746222D01*
X161945765Y-88431937D01*
X161202908Y-88431937D01*
X160460051Y-87231937D02*
X160345765Y-87231937D01*
X160231480Y-87289080D01*
X160174337Y-87346222D01*
X160117194Y-87460508D01*
X160060051Y-87689080D01*
X160060051Y-87974794D01*
X160117194Y-88203365D01*
X160174337Y-88317651D01*
X160231480Y-88374794D01*
X160345765Y-88431937D01*
X160460051Y-88431937D01*
X160574337Y-88374794D01*
X160631480Y-88317651D01*
X160688622Y-88203365D01*
X160745765Y-87974794D01*
X160745765Y-87689080D01*
X160688622Y-87460508D01*
X160631480Y-87346222D01*
X160574337Y-87289080D01*
X160460051Y-87231937D01*
X158917194Y-88431937D02*
X159602908Y-88431937D01*
X159260051Y-88431937D02*
X159260051Y-87231937D01*
X159374337Y-87403365D01*
X159488622Y-87517651D01*
X159602908Y-87574794D01*
X158231480Y-87746222D02*
X158345765Y-87689080D01*
X158402908Y-87631937D01*
X158460051Y-87517651D01*
X158460051Y-87460508D01*
X158402908Y-87346222D01*
X158345765Y-87289080D01*
X158231480Y-87231937D01*
X158002908Y-87231937D01*
X157888622Y-87289080D01*
X157831480Y-87346222D01*
X157774337Y-87460508D01*
X157774337Y-87517651D01*
X157831480Y-87631937D01*
X157888622Y-87689080D01*
X158002908Y-87746222D01*
X158231480Y-87746222D01*
X158345765Y-87803365D01*
X158402908Y-87860508D01*
X158460051Y-87974794D01*
X158460051Y-88203365D01*
X158402908Y-88317651D01*
X158345765Y-88374794D01*
X158231480Y-88431937D01*
X158002908Y-88431937D01*
X157888622Y-88374794D01*
X157831480Y-88317651D01*
X157774337Y-88203365D01*
X157774337Y-87974794D01*
X157831480Y-87860508D01*
X157888622Y-87803365D01*
X158002908Y-87746222D01*
X157260051Y-88317651D02*
X157202908Y-88374794D01*
X157260051Y-88431937D01*
X157317194Y-88374794D01*
X157260051Y-88317651D01*
X157260051Y-88431937D01*
X156060051Y-88431937D02*
X156745765Y-88431937D01*
X156402908Y-88431937D02*
X156402908Y-87231937D01*
X156517194Y-87403365D01*
X156631480Y-87517651D01*
X156745765Y-87574794D01*
X155602908Y-87346222D02*
X155545765Y-87289080D01*
X155431480Y-87231937D01*
X155145765Y-87231937D01*
X155031480Y-87289080D01*
X154974337Y-87346222D01*
X154917194Y-87460508D01*
X154917194Y-87574794D01*
X154974337Y-87746222D01*
X155660051Y-88431937D01*
X154917194Y-88431937D01*
D12*
X195159672Y-88349472D02*
X195159672Y-85849472D01*
X194326339Y-87635186D01*
X193493005Y-85849472D01*
X193493005Y-88349472D01*
X191112053Y-85849472D02*
X192302529Y-85849472D01*
X192421577Y-87039948D01*
X192302529Y-86920900D01*
X192064434Y-86801853D01*
X191469196Y-86801853D01*
X191231100Y-86920900D01*
X191112053Y-87039948D01*
X190993005Y-87278043D01*
X190993005Y-87873281D01*
X191112053Y-88111377D01*
X191231100Y-88230424D01*
X191469196Y-88349472D01*
X192064434Y-88349472D01*
X192302529Y-88230424D01*
X192421577Y-88111377D01*
X190040624Y-88230424D02*
X189683481Y-88349472D01*
X189088243Y-88349472D01*
X188850148Y-88230424D01*
X188731100Y-88111377D01*
X188612053Y-87873281D01*
X188612053Y-87635186D01*
X188731100Y-87397091D01*
X188850148Y-87278043D01*
X189088243Y-87158996D01*
X189564434Y-87039948D01*
X189802529Y-86920900D01*
X189921577Y-86801853D01*
X190040624Y-86563758D01*
X190040624Y-86325662D01*
X189921577Y-86087567D01*
X189802529Y-85968520D01*
X189564434Y-85849472D01*
X188969196Y-85849472D01*
X188612053Y-85968520D01*
X187897767Y-86682805D02*
X186945386Y-86682805D01*
X187540624Y-85849472D02*
X187540624Y-87992329D01*
X187421577Y-88230424D01*
X187183481Y-88349472D01*
X186945386Y-88349472D01*
X185040624Y-88349472D02*
X185040624Y-87039948D01*
X185159672Y-86801853D01*
X185397767Y-86682805D01*
X185873958Y-86682805D01*
X186112053Y-86801853D01*
X185040624Y-88230424D02*
X185278720Y-88349472D01*
X185873958Y-88349472D01*
X186112053Y-88230424D01*
X186231100Y-87992329D01*
X186231100Y-87754234D01*
X186112053Y-87516139D01*
X185873958Y-87397091D01*
X185278720Y-87397091D01*
X185040624Y-87278043D01*
X182778720Y-88230424D02*
X183016815Y-88349472D01*
X183493005Y-88349472D01*
X183731100Y-88230424D01*
X183850148Y-88111377D01*
X183969196Y-87873281D01*
X183969196Y-87158996D01*
X183850148Y-86920900D01*
X183731100Y-86801853D01*
X183493005Y-86682805D01*
X183016815Y-86682805D01*
X182778720Y-86801853D01*
X181707291Y-88349472D02*
X181707291Y-85849472D01*
X181469196Y-87397091D02*
X180754910Y-88349472D01*
X180754910Y-86682805D02*
X181707291Y-87635186D01*
X179802529Y-88230424D02*
X179445386Y-88349472D01*
X178850148Y-88349472D01*
X178612053Y-88230424D01*
X178493005Y-88111377D01*
X178373958Y-87873281D01*
X178373958Y-87635186D01*
X178493005Y-87397091D01*
X178612053Y-87278043D01*
X178850148Y-87158996D01*
X179326339Y-87039948D01*
X179564434Y-86920900D01*
X179683481Y-86801853D01*
X179802529Y-86563758D01*
X179802529Y-86325662D01*
X179683481Y-86087567D01*
X179564434Y-85968520D01*
X179326339Y-85849472D01*
X178731100Y-85849472D01*
X178373958Y-85968520D01*
X177302529Y-88349472D02*
X177302529Y-86682805D01*
X177302529Y-85849472D02*
X177421577Y-85968520D01*
X177302529Y-86087567D01*
X177183481Y-85968520D01*
X177302529Y-85849472D01*
X177302529Y-86087567D01*
X175040624Y-88349472D02*
X175040624Y-85849472D01*
X175040624Y-88230424D02*
X175278720Y-88349472D01*
X175754910Y-88349472D01*
X175993005Y-88230424D01*
X176112053Y-88111377D01*
X176231100Y-87873281D01*
X176231100Y-87158996D01*
X176112053Y-86920900D01*
X175993005Y-86801853D01*
X175754910Y-86682805D01*
X175278720Y-86682805D01*
X175040624Y-86801853D01*
X172897767Y-88230424D02*
X173135862Y-88349472D01*
X173612053Y-88349472D01*
X173850148Y-88230424D01*
X173969196Y-87992329D01*
X173969196Y-87039948D01*
X173850148Y-86801853D01*
X173612053Y-86682805D01*
X173135862Y-86682805D01*
X172897767Y-86801853D01*
X172778720Y-87039948D01*
X172778720Y-87278043D01*
X173969196Y-87516139D01*
X170873958Y-87039948D02*
X170516815Y-87158996D01*
X170397767Y-87278043D01*
X170278720Y-87516139D01*
X170278720Y-87873281D01*
X170397767Y-88111377D01*
X170516815Y-88230424D01*
X170754910Y-88349472D01*
X171707291Y-88349472D01*
X171707291Y-85849472D01*
X170873958Y-85849472D01*
X170635862Y-85968520D01*
X170516815Y-86087567D01*
X170397767Y-86325662D01*
X170397767Y-86563758D01*
X170516815Y-86801853D01*
X170635862Y-86920900D01*
X170873958Y-87039948D01*
X171707291Y-87039948D01*
X168373958Y-87039948D02*
X168016815Y-87158996D01*
X167897767Y-87278043D01*
X167778720Y-87516139D01*
X167778720Y-87873281D01*
X167897767Y-88111377D01*
X168016815Y-88230424D01*
X168254910Y-88349472D01*
X169207291Y-88349472D01*
X169207291Y-85849472D01*
X168373958Y-85849472D01*
X168135862Y-85968520D01*
X168016815Y-86087567D01*
X167897767Y-86325662D01*
X167897767Y-86563758D01*
X168016815Y-86801853D01*
X168135862Y-86920900D01*
X168373958Y-87039948D01*
X169207291Y-87039948D01*
D13*
G04 #@! TO.C,J4*
X141474000Y-56288400D02*
X140114000Y-56288400D01*
X146674000Y-93368400D02*
X146674000Y-93938400D01*
X146674000Y-90828400D02*
X146674000Y-91848400D01*
X146674000Y-88288400D02*
X146674000Y-89308400D01*
X146674000Y-85748400D02*
X146674000Y-86768400D01*
X146674000Y-83208400D02*
X146674000Y-84228400D01*
X146674000Y-80668400D02*
X146674000Y-81688400D01*
X146674000Y-78128400D02*
X146674000Y-79148400D01*
X146674000Y-75588400D02*
X146674000Y-76608400D01*
X146674000Y-73048400D02*
X146674000Y-74068400D01*
X146674000Y-70508400D02*
X146674000Y-71528400D01*
X146674000Y-67968400D02*
X146674000Y-68988400D01*
X146674000Y-65428400D02*
X146674000Y-66448400D01*
X146674000Y-62888400D02*
X146674000Y-63908400D01*
X146674000Y-60348400D02*
X146674000Y-61368400D01*
X146674000Y-57808400D02*
X146674000Y-58828400D01*
X146674000Y-55718400D02*
X146674000Y-56288400D01*
X146674000Y-93938400D02*
X141474000Y-93938400D01*
X141474000Y-93368400D02*
X141474000Y-93938400D01*
X141474000Y-90828400D02*
X141474000Y-91848400D01*
X141474000Y-88288400D02*
X141474000Y-89308400D01*
X141474000Y-85748400D02*
X141474000Y-86768400D01*
X141474000Y-83208400D02*
X141474000Y-84228400D01*
X141474000Y-80668400D02*
X141474000Y-81688400D01*
X141474000Y-78128400D02*
X141474000Y-79148400D01*
X141474000Y-75588400D02*
X141474000Y-76608400D01*
X141474000Y-73048400D02*
X141474000Y-74068400D01*
X141474000Y-70508400D02*
X141474000Y-71528400D01*
X141474000Y-67968400D02*
X141474000Y-68988400D01*
X141474000Y-65428400D02*
X141474000Y-66448400D01*
X141474000Y-62888400D02*
X141474000Y-63908400D01*
X141474000Y-60348400D02*
X141474000Y-61368400D01*
X141474000Y-57808400D02*
X141474000Y-58828400D01*
X141474000Y-55718400D02*
X141474000Y-56288400D01*
X146674000Y-55718400D02*
X141474000Y-55718400D01*
D14*
G04 #@! TO.C,REF\002A\002A*
G36*
X188120250Y-92720948D02*
X188041706Y-92721378D01*
X187984862Y-92722542D01*
X187946055Y-92724807D01*
X187921622Y-92728540D01*
X187907898Y-92734106D01*
X187901220Y-92741873D01*
X187897924Y-92752205D01*
X187897604Y-92753543D01*
X187892598Y-92777679D01*
X187883331Y-92825301D01*
X187870768Y-92891341D01*
X187855873Y-92970728D01*
X187839609Y-93058396D01*
X187839041Y-93061475D01*
X187822750Y-93147389D01*
X187807508Y-93223296D01*
X187794299Y-93284645D01*
X187784106Y-93326882D01*
X187777912Y-93345455D01*
X187777617Y-93345784D01*
X187759372Y-93354853D01*
X187721755Y-93369967D01*
X187672889Y-93387862D01*
X187672617Y-93387958D01*
X187611067Y-93411093D01*
X187538503Y-93440565D01*
X187470103Y-93470197D01*
X187466866Y-93471662D01*
X187355458Y-93522226D01*
X187108761Y-93353760D01*
X187033083Y-93302403D01*
X186964529Y-93256489D01*
X186907072Y-93218630D01*
X186864684Y-93191437D01*
X186841335Y-93177521D01*
X186839118Y-93176489D01*
X186822150Y-93181084D01*
X186790459Y-93203255D01*
X186742808Y-93244047D01*
X186677962Y-93304505D01*
X186611763Y-93368827D01*
X186547946Y-93432212D01*
X186490831Y-93490051D01*
X186443855Y-93538775D01*
X186410457Y-93574810D01*
X186394075Y-93594584D01*
X186393466Y-93595602D01*
X186391655Y-93609172D01*
X186398477Y-93631333D01*
X186415620Y-93665078D01*
X186444767Y-93713400D01*
X186487605Y-93779292D01*
X186544712Y-93864117D01*
X186595394Y-93938777D01*
X186640699Y-94005740D01*
X186678010Y-94061116D01*
X186704708Y-94101020D01*
X186718175Y-94121562D01*
X186719023Y-94122956D01*
X186717379Y-94142638D01*
X186704915Y-94180893D01*
X186684112Y-94230489D01*
X186676698Y-94246328D01*
X186644346Y-94316890D01*
X186609832Y-94396953D01*
X186581795Y-94466229D01*
X186561592Y-94517645D01*
X186545545Y-94556719D01*
X186536272Y-94577141D01*
X186535119Y-94578714D01*
X186518064Y-94581321D01*
X186477862Y-94588463D01*
X186419858Y-94599123D01*
X186349397Y-94612285D01*
X186271825Y-94626933D01*
X186192488Y-94642049D01*
X186116729Y-94656618D01*
X186049896Y-94669622D01*
X185997332Y-94680045D01*
X185964384Y-94686870D01*
X185956303Y-94688799D01*
X185947955Y-94693562D01*
X185941654Y-94704318D01*
X185937115Y-94724698D01*
X185934056Y-94758334D01*
X185932193Y-94808855D01*
X185931242Y-94879892D01*
X185930920Y-94975076D01*
X185930903Y-95014092D01*
X185930903Y-95331399D01*
X186007103Y-95346439D01*
X186049497Y-95354595D01*
X186112760Y-95366499D01*
X186189198Y-95380716D01*
X186271117Y-95395810D01*
X186293760Y-95399955D01*
X186369354Y-95414653D01*
X186435207Y-95429105D01*
X186485794Y-95441975D01*
X186515586Y-95451922D01*
X186520548Y-95454887D01*
X186532734Y-95475883D01*
X186550207Y-95516567D01*
X186569583Y-95568922D01*
X186573426Y-95580200D01*
X186598821Y-95650123D01*
X186630343Y-95729018D01*
X186661191Y-95799866D01*
X186661343Y-95800195D01*
X186712713Y-95911333D01*
X186543761Y-96159853D01*
X186374808Y-96408372D01*
X186591731Y-96625658D01*
X186657341Y-96690326D01*
X186717181Y-96747333D01*
X186767893Y-96793633D01*
X186806114Y-96826184D01*
X186828485Y-96841943D01*
X186831694Y-96842943D01*
X186850534Y-96835069D01*
X186888980Y-96813178D01*
X186942830Y-96779867D01*
X187007884Y-96737731D01*
X187078220Y-96690543D01*
X187149605Y-96642410D01*
X187213252Y-96600528D01*
X187265119Y-96567471D01*
X187301165Y-96545818D01*
X187317293Y-96538143D01*
X187336971Y-96544637D01*
X187374285Y-96561750D01*
X187421539Y-96585926D01*
X187426548Y-96588613D01*
X187490183Y-96620527D01*
X187533819Y-96636179D01*
X187560958Y-96636345D01*
X187575103Y-96621804D01*
X187575185Y-96621600D01*
X187582255Y-96604379D01*
X187599118Y-96563499D01*
X187624465Y-96502125D01*
X187656989Y-96423419D01*
X187695382Y-96330547D01*
X187738338Y-96226672D01*
X187779938Y-96126102D01*
X187825656Y-96015116D01*
X187867634Y-95912303D01*
X187904612Y-95820815D01*
X187935333Y-95743801D01*
X187958538Y-95684415D01*
X187972970Y-95645809D01*
X187977417Y-95631400D01*
X187966264Y-95614872D01*
X187937091Y-95588530D01*
X187898189Y-95559487D01*
X187787403Y-95467639D01*
X187700809Y-95362359D01*
X187639444Y-95245866D01*
X187604345Y-95120376D01*
X187596552Y-94988107D01*
X187602217Y-94927057D01*
X187633082Y-94800395D01*
X187686240Y-94688541D01*
X187758393Y-94592601D01*
X187846243Y-94513676D01*
X187946495Y-94452870D01*
X188055850Y-94411287D01*
X188171013Y-94390028D01*
X188288685Y-94390199D01*
X188405570Y-94412901D01*
X188518371Y-94459238D01*
X188623791Y-94530313D01*
X188667792Y-94570511D01*
X188752181Y-94673729D01*
X188810938Y-94786525D01*
X188844456Y-94905610D01*
X188853125Y-95027695D01*
X188837337Y-95149493D01*
X188797482Y-95267716D01*
X188733953Y-95379075D01*
X188647139Y-95480284D01*
X188550131Y-95559487D01*
X188509723Y-95589762D01*
X188481178Y-95615819D01*
X188470903Y-95631425D01*
X188476283Y-95648443D01*
X188491585Y-95689100D01*
X188515548Y-95750242D01*
X188546916Y-95828719D01*
X188584428Y-95921380D01*
X188626827Y-96025072D01*
X188668497Y-96126126D01*
X188714470Y-96237207D01*
X188757053Y-96340141D01*
X188794939Y-96431765D01*
X188826820Y-96508916D01*
X188851389Y-96568431D01*
X188867340Y-96607144D01*
X188873250Y-96621600D01*
X188887212Y-96636285D01*
X188914220Y-96636242D01*
X188957747Y-96620699D01*
X189021270Y-96588884D01*
X189021772Y-96588613D01*
X189069600Y-96563923D01*
X189108263Y-96545938D01*
X189130065Y-96538214D01*
X189131027Y-96538143D01*
X189147439Y-96545978D01*
X189183673Y-96567765D01*
X189235686Y-96600928D01*
X189299435Y-96642891D01*
X189370100Y-96690543D01*
X189442044Y-96738791D01*
X189506886Y-96780751D01*
X189560425Y-96813827D01*
X189598463Y-96835421D01*
X189616627Y-96842943D01*
X189633352Y-96833057D01*
X189666980Y-96805426D01*
X189714150Y-96763095D01*
X189771502Y-96709105D01*
X189835676Y-96646499D01*
X189856663Y-96625583D01*
X190073661Y-96408223D01*
X189908492Y-96165820D01*
X189858296Y-96091381D01*
X189814241Y-96024572D01*
X189778798Y-95969265D01*
X189754441Y-95929329D01*
X189743638Y-95908636D01*
X189743322Y-95907163D01*
X189749017Y-95887658D01*
X189764334Y-95848422D01*
X189786623Y-95796030D01*
X189802267Y-95760955D01*
X189831519Y-95693801D01*
X189859066Y-95625958D01*
X189880423Y-95568634D01*
X189886225Y-95551172D01*
X189902708Y-95504538D01*
X189918820Y-95468505D01*
X189927670Y-95454887D01*
X189947200Y-95446552D01*
X189989826Y-95434737D01*
X190050015Y-95420781D01*
X190122238Y-95406022D01*
X190154560Y-95399955D01*
X190236638Y-95384873D01*
X190315365Y-95370269D01*
X190383051Y-95357580D01*
X190432000Y-95348242D01*
X190441217Y-95346439D01*
X190517417Y-95331399D01*
X190517417Y-95014092D01*
X190517246Y-94909754D01*
X190516544Y-94830813D01*
X190515026Y-94773638D01*
X190512411Y-94734599D01*
X190508414Y-94710065D01*
X190502751Y-94696405D01*
X190495140Y-94689989D01*
X190492017Y-94688799D01*
X190473182Y-94684580D01*
X190431572Y-94676162D01*
X190372530Y-94664561D01*
X190301403Y-94650795D01*
X190223535Y-94635880D01*
X190144273Y-94620832D01*
X190068962Y-94606669D01*
X190002947Y-94594406D01*
X189951573Y-94585061D01*
X189920185Y-94579650D01*
X189913201Y-94578714D01*
X189906875Y-94566196D01*
X189892870Y-94532846D01*
X189873805Y-94484977D01*
X189866526Y-94466229D01*
X189837164Y-94393795D01*
X189802589Y-94313770D01*
X189771623Y-94246328D01*
X189748837Y-94194759D01*
X189733678Y-94152385D01*
X189728618Y-94126434D01*
X189729424Y-94122956D01*
X189740119Y-94106536D01*
X189764540Y-94070017D01*
X189800065Y-94017287D01*
X189844073Y-93952235D01*
X189893943Y-93878751D01*
X189903804Y-93864245D01*
X189961668Y-93778304D01*
X190004204Y-93712861D01*
X190033106Y-93664904D01*
X190050070Y-93631420D01*
X190056793Y-93609395D01*
X190054970Y-93595817D01*
X190054924Y-93595731D01*
X190040574Y-93577897D01*
X190008837Y-93543417D01*
X189963150Y-93495868D01*
X189906956Y-93438822D01*
X189843692Y-93375855D01*
X189836558Y-93368827D01*
X189756830Y-93291620D01*
X189695303Y-93234930D01*
X189650739Y-93197710D01*
X189621903Y-93178915D01*
X189609202Y-93176489D01*
X189590666Y-93187071D01*
X189552199Y-93211516D01*
X189497774Y-93247212D01*
X189431362Y-93291547D01*
X189356935Y-93341911D01*
X189339559Y-93353760D01*
X189092863Y-93522226D01*
X188981454Y-93471662D01*
X188913703Y-93442195D01*
X188840977Y-93412559D01*
X188778457Y-93388930D01*
X188775703Y-93387958D01*
X188726800Y-93370057D01*
X188689103Y-93354920D01*
X188670735Y-93345810D01*
X188670704Y-93345784D01*
X188664875Y-93329317D01*
X188654968Y-93288819D01*
X188641965Y-93228842D01*
X188626851Y-93153940D01*
X188610608Y-93068664D01*
X188609279Y-93061475D01*
X188592985Y-92973614D01*
X188578027Y-92893860D01*
X188565369Y-92827281D01*
X188555974Y-92778947D01*
X188550806Y-92753925D01*
X188550716Y-92753543D01*
X188547571Y-92742899D01*
X188541456Y-92734862D01*
X188528707Y-92729067D01*
X188505660Y-92725147D01*
X188468651Y-92722735D01*
X188414016Y-92721465D01*
X188338093Y-92720971D01*
X188237216Y-92720886D01*
X188224160Y-92720886D01*
X188120250Y-92720948D01*
X188120250Y-92720948D01*
G37*
X188120250Y-92720948D02*
X188041706Y-92721378D01*
X187984862Y-92722542D01*
X187946055Y-92724807D01*
X187921622Y-92728540D01*
X187907898Y-92734106D01*
X187901220Y-92741873D01*
X187897924Y-92752205D01*
X187897604Y-92753543D01*
X187892598Y-92777679D01*
X187883331Y-92825301D01*
X187870768Y-92891341D01*
X187855873Y-92970728D01*
X187839609Y-93058396D01*
X187839041Y-93061475D01*
X187822750Y-93147389D01*
X187807508Y-93223296D01*
X187794299Y-93284645D01*
X187784106Y-93326882D01*
X187777912Y-93345455D01*
X187777617Y-93345784D01*
X187759372Y-93354853D01*
X187721755Y-93369967D01*
X187672889Y-93387862D01*
X187672617Y-93387958D01*
X187611067Y-93411093D01*
X187538503Y-93440565D01*
X187470103Y-93470197D01*
X187466866Y-93471662D01*
X187355458Y-93522226D01*
X187108761Y-93353760D01*
X187033083Y-93302403D01*
X186964529Y-93256489D01*
X186907072Y-93218630D01*
X186864684Y-93191437D01*
X186841335Y-93177521D01*
X186839118Y-93176489D01*
X186822150Y-93181084D01*
X186790459Y-93203255D01*
X186742808Y-93244047D01*
X186677962Y-93304505D01*
X186611763Y-93368827D01*
X186547946Y-93432212D01*
X186490831Y-93490051D01*
X186443855Y-93538775D01*
X186410457Y-93574810D01*
X186394075Y-93594584D01*
X186393466Y-93595602D01*
X186391655Y-93609172D01*
X186398477Y-93631333D01*
X186415620Y-93665078D01*
X186444767Y-93713400D01*
X186487605Y-93779292D01*
X186544712Y-93864117D01*
X186595394Y-93938777D01*
X186640699Y-94005740D01*
X186678010Y-94061116D01*
X186704708Y-94101020D01*
X186718175Y-94121562D01*
X186719023Y-94122956D01*
X186717379Y-94142638D01*
X186704915Y-94180893D01*
X186684112Y-94230489D01*
X186676698Y-94246328D01*
X186644346Y-94316890D01*
X186609832Y-94396953D01*
X186581795Y-94466229D01*
X186561592Y-94517645D01*
X186545545Y-94556719D01*
X186536272Y-94577141D01*
X186535119Y-94578714D01*
X186518064Y-94581321D01*
X186477862Y-94588463D01*
X186419858Y-94599123D01*
X186349397Y-94612285D01*
X186271825Y-94626933D01*
X186192488Y-94642049D01*
X186116729Y-94656618D01*
X186049896Y-94669622D01*
X185997332Y-94680045D01*
X185964384Y-94686870D01*
X185956303Y-94688799D01*
X185947955Y-94693562D01*
X185941654Y-94704318D01*
X185937115Y-94724698D01*
X185934056Y-94758334D01*
X185932193Y-94808855D01*
X185931242Y-94879892D01*
X185930920Y-94975076D01*
X185930903Y-95014092D01*
X185930903Y-95331399D01*
X186007103Y-95346439D01*
X186049497Y-95354595D01*
X186112760Y-95366499D01*
X186189198Y-95380716D01*
X186271117Y-95395810D01*
X186293760Y-95399955D01*
X186369354Y-95414653D01*
X186435207Y-95429105D01*
X186485794Y-95441975D01*
X186515586Y-95451922D01*
X186520548Y-95454887D01*
X186532734Y-95475883D01*
X186550207Y-95516567D01*
X186569583Y-95568922D01*
X186573426Y-95580200D01*
X186598821Y-95650123D01*
X186630343Y-95729018D01*
X186661191Y-95799866D01*
X186661343Y-95800195D01*
X186712713Y-95911333D01*
X186543761Y-96159853D01*
X186374808Y-96408372D01*
X186591731Y-96625658D01*
X186657341Y-96690326D01*
X186717181Y-96747333D01*
X186767893Y-96793633D01*
X186806114Y-96826184D01*
X186828485Y-96841943D01*
X186831694Y-96842943D01*
X186850534Y-96835069D01*
X186888980Y-96813178D01*
X186942830Y-96779867D01*
X187007884Y-96737731D01*
X187078220Y-96690543D01*
X187149605Y-96642410D01*
X187213252Y-96600528D01*
X187265119Y-96567471D01*
X187301165Y-96545818D01*
X187317293Y-96538143D01*
X187336971Y-96544637D01*
X187374285Y-96561750D01*
X187421539Y-96585926D01*
X187426548Y-96588613D01*
X187490183Y-96620527D01*
X187533819Y-96636179D01*
X187560958Y-96636345D01*
X187575103Y-96621804D01*
X187575185Y-96621600D01*
X187582255Y-96604379D01*
X187599118Y-96563499D01*
X187624465Y-96502125D01*
X187656989Y-96423419D01*
X187695382Y-96330547D01*
X187738338Y-96226672D01*
X187779938Y-96126102D01*
X187825656Y-96015116D01*
X187867634Y-95912303D01*
X187904612Y-95820815D01*
X187935333Y-95743801D01*
X187958538Y-95684415D01*
X187972970Y-95645809D01*
X187977417Y-95631400D01*
X187966264Y-95614872D01*
X187937091Y-95588530D01*
X187898189Y-95559487D01*
X187787403Y-95467639D01*
X187700809Y-95362359D01*
X187639444Y-95245866D01*
X187604345Y-95120376D01*
X187596552Y-94988107D01*
X187602217Y-94927057D01*
X187633082Y-94800395D01*
X187686240Y-94688541D01*
X187758393Y-94592601D01*
X187846243Y-94513676D01*
X187946495Y-94452870D01*
X188055850Y-94411287D01*
X188171013Y-94390028D01*
X188288685Y-94390199D01*
X188405570Y-94412901D01*
X188518371Y-94459238D01*
X188623791Y-94530313D01*
X188667792Y-94570511D01*
X188752181Y-94673729D01*
X188810938Y-94786525D01*
X188844456Y-94905610D01*
X188853125Y-95027695D01*
X188837337Y-95149493D01*
X188797482Y-95267716D01*
X188733953Y-95379075D01*
X188647139Y-95480284D01*
X188550131Y-95559487D01*
X188509723Y-95589762D01*
X188481178Y-95615819D01*
X188470903Y-95631425D01*
X188476283Y-95648443D01*
X188491585Y-95689100D01*
X188515548Y-95750242D01*
X188546916Y-95828719D01*
X188584428Y-95921380D01*
X188626827Y-96025072D01*
X188668497Y-96126126D01*
X188714470Y-96237207D01*
X188757053Y-96340141D01*
X188794939Y-96431765D01*
X188826820Y-96508916D01*
X188851389Y-96568431D01*
X188867340Y-96607144D01*
X188873250Y-96621600D01*
X188887212Y-96636285D01*
X188914220Y-96636242D01*
X188957747Y-96620699D01*
X189021270Y-96588884D01*
X189021772Y-96588613D01*
X189069600Y-96563923D01*
X189108263Y-96545938D01*
X189130065Y-96538214D01*
X189131027Y-96538143D01*
X189147439Y-96545978D01*
X189183673Y-96567765D01*
X189235686Y-96600928D01*
X189299435Y-96642891D01*
X189370100Y-96690543D01*
X189442044Y-96738791D01*
X189506886Y-96780751D01*
X189560425Y-96813827D01*
X189598463Y-96835421D01*
X189616627Y-96842943D01*
X189633352Y-96833057D01*
X189666980Y-96805426D01*
X189714150Y-96763095D01*
X189771502Y-96709105D01*
X189835676Y-96646499D01*
X189856663Y-96625583D01*
X190073661Y-96408223D01*
X189908492Y-96165820D01*
X189858296Y-96091381D01*
X189814241Y-96024572D01*
X189778798Y-95969265D01*
X189754441Y-95929329D01*
X189743638Y-95908636D01*
X189743322Y-95907163D01*
X189749017Y-95887658D01*
X189764334Y-95848422D01*
X189786623Y-95796030D01*
X189802267Y-95760955D01*
X189831519Y-95693801D01*
X189859066Y-95625958D01*
X189880423Y-95568634D01*
X189886225Y-95551172D01*
X189902708Y-95504538D01*
X189918820Y-95468505D01*
X189927670Y-95454887D01*
X189947200Y-95446552D01*
X189989826Y-95434737D01*
X190050015Y-95420781D01*
X190122238Y-95406022D01*
X190154560Y-95399955D01*
X190236638Y-95384873D01*
X190315365Y-95370269D01*
X190383051Y-95357580D01*
X190432000Y-95348242D01*
X190441217Y-95346439D01*
X190517417Y-95331399D01*
X190517417Y-95014092D01*
X190517246Y-94909754D01*
X190516544Y-94830813D01*
X190515026Y-94773638D01*
X190512411Y-94734599D01*
X190508414Y-94710065D01*
X190502751Y-94696405D01*
X190495140Y-94689989D01*
X190492017Y-94688799D01*
X190473182Y-94684580D01*
X190431572Y-94676162D01*
X190372530Y-94664561D01*
X190301403Y-94650795D01*
X190223535Y-94635880D01*
X190144273Y-94620832D01*
X190068962Y-94606669D01*
X190002947Y-94594406D01*
X189951573Y-94585061D01*
X189920185Y-94579650D01*
X189913201Y-94578714D01*
X189906875Y-94566196D01*
X189892870Y-94532846D01*
X189873805Y-94484977D01*
X189866526Y-94466229D01*
X189837164Y-94393795D01*
X189802589Y-94313770D01*
X189771623Y-94246328D01*
X189748837Y-94194759D01*
X189733678Y-94152385D01*
X189728618Y-94126434D01*
X189729424Y-94122956D01*
X189740119Y-94106536D01*
X189764540Y-94070017D01*
X189800065Y-94017287D01*
X189844073Y-93952235D01*
X189893943Y-93878751D01*
X189903804Y-93864245D01*
X189961668Y-93778304D01*
X190004204Y-93712861D01*
X190033106Y-93664904D01*
X190050070Y-93631420D01*
X190056793Y-93609395D01*
X190054970Y-93595817D01*
X190054924Y-93595731D01*
X190040574Y-93577897D01*
X190008837Y-93543417D01*
X189963150Y-93495868D01*
X189906956Y-93438822D01*
X189843692Y-93375855D01*
X189836558Y-93368827D01*
X189756830Y-93291620D01*
X189695303Y-93234930D01*
X189650739Y-93197710D01*
X189621903Y-93178915D01*
X189609202Y-93176489D01*
X189590666Y-93187071D01*
X189552199Y-93211516D01*
X189497774Y-93247212D01*
X189431362Y-93291547D01*
X189356935Y-93341911D01*
X189339559Y-93353760D01*
X189092863Y-93522226D01*
X188981454Y-93471662D01*
X188913703Y-93442195D01*
X188840977Y-93412559D01*
X188778457Y-93388930D01*
X188775703Y-93387958D01*
X188726800Y-93370057D01*
X188689103Y-93354920D01*
X188670735Y-93345810D01*
X188670704Y-93345784D01*
X188664875Y-93329317D01*
X188654968Y-93288819D01*
X188641965Y-93228842D01*
X188626851Y-93153940D01*
X188610608Y-93068664D01*
X188609279Y-93061475D01*
X188592985Y-92973614D01*
X188578027Y-92893860D01*
X188565369Y-92827281D01*
X188555974Y-92778947D01*
X188550806Y-92753925D01*
X188550716Y-92753543D01*
X188547571Y-92742899D01*
X188541456Y-92734862D01*
X188528707Y-92729067D01*
X188505660Y-92725147D01*
X188468651Y-92722735D01*
X188414016Y-92721465D01*
X188338093Y-92720971D01*
X188237216Y-92720886D01*
X188224160Y-92720886D01*
X188120250Y-92720948D01*
G36*
X185070565Y-97445566D02*
X185013139Y-97483097D01*
X184985441Y-97516696D01*
X184963498Y-97577664D01*
X184961755Y-97625908D01*
X184965703Y-97690416D01*
X185114474Y-97755534D01*
X185186811Y-97788802D01*
X185234076Y-97815564D01*
X185258653Y-97838744D01*
X185262923Y-97861267D01*
X185249271Y-97886055D01*
X185234217Y-97902486D01*
X185190414Y-97928835D01*
X185142771Y-97930681D01*
X185099015Y-97910146D01*
X185066871Y-97869352D01*
X185061122Y-97854947D01*
X185033584Y-97809956D01*
X185001902Y-97790782D01*
X184958446Y-97774379D01*
X184958446Y-97836566D01*
X184962288Y-97878883D01*
X184977337Y-97914569D01*
X185008880Y-97955543D01*
X185013568Y-97960867D01*
X185048654Y-97997320D01*
X185078813Y-98016883D01*
X185116545Y-98025883D01*
X185147825Y-98028830D01*
X185203775Y-98029565D01*
X185243605Y-98020260D01*
X185268452Y-98006446D01*
X185307504Y-97976067D01*
X185334535Y-97943213D01*
X185351643Y-97901894D01*
X185360922Y-97846121D01*
X185364467Y-97769905D01*
X185364750Y-97731222D01*
X185363788Y-97684847D01*
X185276153Y-97684847D01*
X185275137Y-97709726D01*
X185272604Y-97713800D01*
X185255886Y-97708265D01*
X185219911Y-97693617D01*
X185171829Y-97672790D01*
X185161774Y-97668314D01*
X185101008Y-97637414D01*
X185067528Y-97610257D01*
X185060170Y-97584820D01*
X185077769Y-97559081D01*
X185092304Y-97547709D01*
X185144750Y-97524964D01*
X185193838Y-97528722D01*
X185234933Y-97556484D01*
X185263402Y-97605752D01*
X185272529Y-97644857D01*
X185276153Y-97684847D01*
X185363788Y-97684847D01*
X185362875Y-97640849D01*
X185355964Y-97573984D01*
X185342276Y-97525295D01*
X185320064Y-97489449D01*
X185287586Y-97461113D01*
X185273427Y-97451955D01*
X185209107Y-97428107D01*
X185138687Y-97426606D01*
X185070565Y-97445566D01*
X185070565Y-97445566D01*
G37*
X185070565Y-97445566D02*
X185013139Y-97483097D01*
X184985441Y-97516696D01*
X184963498Y-97577664D01*
X184961755Y-97625908D01*
X184965703Y-97690416D01*
X185114474Y-97755534D01*
X185186811Y-97788802D01*
X185234076Y-97815564D01*
X185258653Y-97838744D01*
X185262923Y-97861267D01*
X185249271Y-97886055D01*
X185234217Y-97902486D01*
X185190414Y-97928835D01*
X185142771Y-97930681D01*
X185099015Y-97910146D01*
X185066871Y-97869352D01*
X185061122Y-97854947D01*
X185033584Y-97809956D01*
X185001902Y-97790782D01*
X184958446Y-97774379D01*
X184958446Y-97836566D01*
X184962288Y-97878883D01*
X184977337Y-97914569D01*
X185008880Y-97955543D01*
X185013568Y-97960867D01*
X185048654Y-97997320D01*
X185078813Y-98016883D01*
X185116545Y-98025883D01*
X185147825Y-98028830D01*
X185203775Y-98029565D01*
X185243605Y-98020260D01*
X185268452Y-98006446D01*
X185307504Y-97976067D01*
X185334535Y-97943213D01*
X185351643Y-97901894D01*
X185360922Y-97846121D01*
X185364467Y-97769905D01*
X185364750Y-97731222D01*
X185363788Y-97684847D01*
X185276153Y-97684847D01*
X185275137Y-97709726D01*
X185272604Y-97713800D01*
X185255886Y-97708265D01*
X185219911Y-97693617D01*
X185171829Y-97672790D01*
X185161774Y-97668314D01*
X185101008Y-97637414D01*
X185067528Y-97610257D01*
X185060170Y-97584820D01*
X185077769Y-97559081D01*
X185092304Y-97547709D01*
X185144750Y-97524964D01*
X185193838Y-97528722D01*
X185234933Y-97556484D01*
X185263402Y-97605752D01*
X185272529Y-97644857D01*
X185276153Y-97684847D01*
X185363788Y-97684847D01*
X185362875Y-97640849D01*
X185355964Y-97573984D01*
X185342276Y-97525295D01*
X185320064Y-97489449D01*
X185287586Y-97461113D01*
X185273427Y-97451955D01*
X185209107Y-97428107D01*
X185138687Y-97426606D01*
X185070565Y-97445566D01*
G36*
X185571560Y-97437352D02*
X185554212Y-97444934D01*
X185512804Y-97477728D01*
X185477395Y-97525147D01*
X185455496Y-97575751D01*
X185451931Y-97600698D01*
X185463881Y-97635527D01*
X185490093Y-97653957D01*
X185518196Y-97665116D01*
X185531065Y-97667172D01*
X185537331Y-97652249D01*
X185549704Y-97619775D01*
X185555132Y-97605102D01*
X185585570Y-97554344D01*
X185629640Y-97529027D01*
X185686150Y-97529806D01*
X185690335Y-97530803D01*
X185720505Y-97545107D01*
X185742684Y-97572993D01*
X185757833Y-97617887D01*
X185766910Y-97683215D01*
X185770874Y-97772404D01*
X185771246Y-97819861D01*
X185771430Y-97894671D01*
X185772638Y-97945669D01*
X185775851Y-97978071D01*
X185782051Y-97997095D01*
X185792220Y-98007956D01*
X185807341Y-98015872D01*
X185808214Y-98016270D01*
X185837332Y-98028581D01*
X185851757Y-98033114D01*
X185853974Y-98019409D01*
X185855871Y-97981525D01*
X185857313Y-97924315D01*
X185858162Y-97852627D01*
X185858331Y-97800165D01*
X185857468Y-97698647D01*
X185854090Y-97621632D01*
X185847018Y-97564623D01*
X185835072Y-97523126D01*
X185817070Y-97492643D01*
X185791833Y-97468680D01*
X185766913Y-97451955D01*
X185706989Y-97429697D01*
X185637249Y-97424676D01*
X185571560Y-97437352D01*
X185571560Y-97437352D01*
G37*
X185571560Y-97437352D02*
X185554212Y-97444934D01*
X185512804Y-97477728D01*
X185477395Y-97525147D01*
X185455496Y-97575751D01*
X185451931Y-97600698D01*
X185463881Y-97635527D01*
X185490093Y-97653957D01*
X185518196Y-97665116D01*
X185531065Y-97667172D01*
X185537331Y-97652249D01*
X185549704Y-97619775D01*
X185555132Y-97605102D01*
X185585570Y-97554344D01*
X185629640Y-97529027D01*
X185686150Y-97529806D01*
X185690335Y-97530803D01*
X185720505Y-97545107D01*
X185742684Y-97572993D01*
X185757833Y-97617887D01*
X185766910Y-97683215D01*
X185770874Y-97772404D01*
X185771246Y-97819861D01*
X185771430Y-97894671D01*
X185772638Y-97945669D01*
X185775851Y-97978071D01*
X185782051Y-97997095D01*
X185792220Y-98007956D01*
X185807341Y-98015872D01*
X185808214Y-98016270D01*
X185837332Y-98028581D01*
X185851757Y-98033114D01*
X185853974Y-98019409D01*
X185855871Y-97981525D01*
X185857313Y-97924315D01*
X185858162Y-97852627D01*
X185858331Y-97800165D01*
X185857468Y-97698647D01*
X185854090Y-97621632D01*
X185847018Y-97564623D01*
X185835072Y-97523126D01*
X185817070Y-97492643D01*
X185791833Y-97468680D01*
X185766913Y-97451955D01*
X185706989Y-97429697D01*
X185637249Y-97424676D01*
X185571560Y-97437352D01*
G36*
X186079284Y-97434935D02*
X186037493Y-97453944D01*
X186004691Y-97476978D01*
X185980657Y-97502733D01*
X185964063Y-97535958D01*
X185953583Y-97581400D01*
X185947889Y-97643807D01*
X185945653Y-97727927D01*
X185945417Y-97783321D01*
X185945417Y-97999426D01*
X185982386Y-98016270D01*
X186011504Y-98028581D01*
X186025929Y-98033114D01*
X186028688Y-98019625D01*
X186030878Y-97983253D01*
X186032218Y-97930142D01*
X186032503Y-97887972D01*
X186033726Y-97827047D01*
X186037024Y-97778715D01*
X186041839Y-97749118D01*
X186045664Y-97742829D01*
X186071377Y-97749252D01*
X186111742Y-97765725D01*
X186158481Y-97788058D01*
X186203315Y-97812057D01*
X186237967Y-97833530D01*
X186254158Y-97848285D01*
X186254222Y-97848445D01*
X186252830Y-97875752D01*
X186240342Y-97901819D01*
X186218417Y-97922992D01*
X186186417Y-97930074D01*
X186159068Y-97929249D01*
X186120334Y-97928642D01*
X186100002Y-97937716D01*
X186087791Y-97961692D01*
X186086251Y-97966213D01*
X186080957Y-98000406D01*
X186095113Y-98021168D01*
X186132012Y-98031062D01*
X186171871Y-98032892D01*
X186243598Y-98019327D01*
X186280728Y-97999955D01*
X186326584Y-97954445D01*
X186350904Y-97898583D01*
X186353087Y-97839557D01*
X186332531Y-97784553D01*
X186301611Y-97750086D01*
X186270740Y-97730789D01*
X186222218Y-97706359D01*
X186165675Y-97681585D01*
X186156250Y-97677799D01*
X186094141Y-97650391D01*
X186058338Y-97626234D01*
X186046823Y-97602219D01*
X186057580Y-97575235D01*
X186076046Y-97554143D01*
X186119691Y-97528172D01*
X186167714Y-97526224D01*
X186211754Y-97546237D01*
X186243451Y-97586151D01*
X186247611Y-97596448D01*
X186271833Y-97634324D01*
X186307195Y-97662442D01*
X186351817Y-97685517D01*
X186351817Y-97620085D01*
X186349191Y-97580106D01*
X186337930Y-97548597D01*
X186312961Y-97514978D01*
X186288991Y-97489084D01*
X186251719Y-97452417D01*
X186222759Y-97432721D01*
X186191655Y-97424820D01*
X186156447Y-97423514D01*
X186079284Y-97434935D01*
X186079284Y-97434935D01*
G37*
X186079284Y-97434935D02*
X186037493Y-97453944D01*
X186004691Y-97476978D01*
X185980657Y-97502733D01*
X185964063Y-97535958D01*
X185953583Y-97581400D01*
X185947889Y-97643807D01*
X185945653Y-97727927D01*
X185945417Y-97783321D01*
X185945417Y-97999426D01*
X185982386Y-98016270D01*
X186011504Y-98028581D01*
X186025929Y-98033114D01*
X186028688Y-98019625D01*
X186030878Y-97983253D01*
X186032218Y-97930142D01*
X186032503Y-97887972D01*
X186033726Y-97827047D01*
X186037024Y-97778715D01*
X186041839Y-97749118D01*
X186045664Y-97742829D01*
X186071377Y-97749252D01*
X186111742Y-97765725D01*
X186158481Y-97788058D01*
X186203315Y-97812057D01*
X186237967Y-97833530D01*
X186254158Y-97848285D01*
X186254222Y-97848445D01*
X186252830Y-97875752D01*
X186240342Y-97901819D01*
X186218417Y-97922992D01*
X186186417Y-97930074D01*
X186159068Y-97929249D01*
X186120334Y-97928642D01*
X186100002Y-97937716D01*
X186087791Y-97961692D01*
X186086251Y-97966213D01*
X186080957Y-98000406D01*
X186095113Y-98021168D01*
X186132012Y-98031062D01*
X186171871Y-98032892D01*
X186243598Y-98019327D01*
X186280728Y-97999955D01*
X186326584Y-97954445D01*
X186350904Y-97898583D01*
X186353087Y-97839557D01*
X186332531Y-97784553D01*
X186301611Y-97750086D01*
X186270740Y-97730789D01*
X186222218Y-97706359D01*
X186165675Y-97681585D01*
X186156250Y-97677799D01*
X186094141Y-97650391D01*
X186058338Y-97626234D01*
X186046823Y-97602219D01*
X186057580Y-97575235D01*
X186076046Y-97554143D01*
X186119691Y-97528172D01*
X186167714Y-97526224D01*
X186211754Y-97546237D01*
X186243451Y-97586151D01*
X186247611Y-97596448D01*
X186271833Y-97634324D01*
X186307195Y-97662442D01*
X186351817Y-97685517D01*
X186351817Y-97620085D01*
X186349191Y-97580106D01*
X186337930Y-97548597D01*
X186312961Y-97514978D01*
X186288991Y-97489084D01*
X186251719Y-97452417D01*
X186222759Y-97432721D01*
X186191655Y-97424820D01*
X186156447Y-97423514D01*
X186079284Y-97434935D01*
G36*
X186444327Y-97437263D02*
X186442112Y-97475450D01*
X186440376Y-97533486D01*
X186439261Y-97606780D01*
X186438903Y-97683655D01*
X186438903Y-97943796D01*
X186484834Y-97989727D01*
X186516485Y-98018029D01*
X186544270Y-98029493D01*
X186582245Y-98028768D01*
X186597320Y-98026921D01*
X186644434Y-98021548D01*
X186683404Y-98018469D01*
X186692903Y-98018185D01*
X186724927Y-98020045D01*
X186770728Y-98024714D01*
X186788486Y-98026921D01*
X186832103Y-98030335D01*
X186861415Y-98022920D01*
X186890480Y-98000027D01*
X186900972Y-97989727D01*
X186946903Y-97943796D01*
X186946903Y-97457202D01*
X186909934Y-97440358D01*
X186878101Y-97427882D01*
X186859477Y-97423514D01*
X186854702Y-97437318D01*
X186850239Y-97475886D01*
X186846385Y-97534956D01*
X186843438Y-97610263D01*
X186842017Y-97673886D01*
X186838046Y-97924257D01*
X186803401Y-97929156D01*
X186771892Y-97925731D01*
X186756452Y-97914641D01*
X186752137Y-97893908D01*
X186748452Y-97849745D01*
X186745691Y-97787746D01*
X186744148Y-97713509D01*
X186743925Y-97675306D01*
X186743703Y-97455383D01*
X186697994Y-97439449D01*
X186665642Y-97428615D01*
X186648045Y-97423562D01*
X186647537Y-97423514D01*
X186645772Y-97437248D01*
X186643831Y-97475330D01*
X186641878Y-97533082D01*
X186640076Y-97605827D01*
X186638817Y-97673886D01*
X186634846Y-97924257D01*
X186547760Y-97924257D01*
X186543764Y-97695840D01*
X186539768Y-97467422D01*
X186497313Y-97445468D01*
X186465968Y-97430393D01*
X186447416Y-97423551D01*
X186446881Y-97423514D01*
X186444327Y-97437263D01*
X186444327Y-97437263D01*
G37*
X186444327Y-97437263D02*
X186442112Y-97475450D01*
X186440376Y-97533486D01*
X186439261Y-97606780D01*
X186438903Y-97683655D01*
X186438903Y-97943796D01*
X186484834Y-97989727D01*
X186516485Y-98018029D01*
X186544270Y-98029493D01*
X186582245Y-98028768D01*
X186597320Y-98026921D01*
X186644434Y-98021548D01*
X186683404Y-98018469D01*
X186692903Y-98018185D01*
X186724927Y-98020045D01*
X186770728Y-98024714D01*
X186788486Y-98026921D01*
X186832103Y-98030335D01*
X186861415Y-98022920D01*
X186890480Y-98000027D01*
X186900972Y-97989727D01*
X186946903Y-97943796D01*
X186946903Y-97457202D01*
X186909934Y-97440358D01*
X186878101Y-97427882D01*
X186859477Y-97423514D01*
X186854702Y-97437318D01*
X186850239Y-97475886D01*
X186846385Y-97534956D01*
X186843438Y-97610263D01*
X186842017Y-97673886D01*
X186838046Y-97924257D01*
X186803401Y-97929156D01*
X186771892Y-97925731D01*
X186756452Y-97914641D01*
X186752137Y-97893908D01*
X186748452Y-97849745D01*
X186745691Y-97787746D01*
X186744148Y-97713509D01*
X186743925Y-97675306D01*
X186743703Y-97455383D01*
X186697994Y-97439449D01*
X186665642Y-97428615D01*
X186648045Y-97423562D01*
X186647537Y-97423514D01*
X186645772Y-97437248D01*
X186643831Y-97475330D01*
X186641878Y-97533082D01*
X186640076Y-97605827D01*
X186638817Y-97673886D01*
X186634846Y-97924257D01*
X186547760Y-97924257D01*
X186543764Y-97695840D01*
X186539768Y-97467422D01*
X186497313Y-97445468D01*
X186465968Y-97430393D01*
X186447416Y-97423551D01*
X186446881Y-97423514D01*
X186444327Y-97437263D01*
G36*
X187034043Y-97543958D02*
X187034227Y-97652437D01*
X187034941Y-97735887D01*
X187036485Y-97798304D01*
X187039159Y-97843685D01*
X187043266Y-97876029D01*
X187049105Y-97899333D01*
X187056978Y-97917595D01*
X187062939Y-97928018D01*
X187112305Y-97984545D01*
X187174896Y-98019977D01*
X187244147Y-98032690D01*
X187313492Y-98021063D01*
X187354785Y-98000168D01*
X187398135Y-97964022D01*
X187427679Y-97919876D01*
X187445505Y-97862062D01*
X187453697Y-97784913D01*
X187454858Y-97728314D01*
X187454702Y-97724247D01*
X187353303Y-97724247D01*
X187352684Y-97789150D01*
X187349846Y-97832114D01*
X187343320Y-97860222D01*
X187331637Y-97880553D01*
X187317677Y-97895888D01*
X187270795Y-97925490D01*
X187220459Y-97928019D01*
X187172884Y-97903305D01*
X187169181Y-97899956D01*
X187153377Y-97882535D01*
X187143467Y-97861809D01*
X187138102Y-97830962D01*
X187135932Y-97783177D01*
X187135589Y-97730348D01*
X187136333Y-97663981D01*
X187139412Y-97619706D01*
X187146099Y-97590609D01*
X187157664Y-97569773D01*
X187167147Y-97558707D01*
X187211200Y-97530798D01*
X187261936Y-97527443D01*
X187310364Y-97548759D01*
X187319710Y-97556673D01*
X187335620Y-97574247D01*
X187345550Y-97595187D01*
X187350882Y-97626382D01*
X187352997Y-97674722D01*
X187353303Y-97724247D01*
X187454702Y-97724247D01*
X187451350Y-97637168D01*
X187439434Y-97568686D01*
X187417025Y-97517200D01*
X187382036Y-97477043D01*
X187354785Y-97456461D01*
X187305253Y-97434225D01*
X187247844Y-97423904D01*
X187194478Y-97426667D01*
X187164617Y-97437812D01*
X187152899Y-97440983D01*
X187145123Y-97429157D01*
X187139695Y-97397466D01*
X187135589Y-97349193D01*
X187131093Y-97295429D01*
X187124847Y-97263082D01*
X187113484Y-97244585D01*
X187093632Y-97232370D01*
X187081160Y-97226962D01*
X187033989Y-97207201D01*
X187034043Y-97543958D01*
X187034043Y-97543958D01*
G37*
X187034043Y-97543958D02*
X187034227Y-97652437D01*
X187034941Y-97735887D01*
X187036485Y-97798304D01*
X187039159Y-97843685D01*
X187043266Y-97876029D01*
X187049105Y-97899333D01*
X187056978Y-97917595D01*
X187062939Y-97928018D01*
X187112305Y-97984545D01*
X187174896Y-98019977D01*
X187244147Y-98032690D01*
X187313492Y-98021063D01*
X187354785Y-98000168D01*
X187398135Y-97964022D01*
X187427679Y-97919876D01*
X187445505Y-97862062D01*
X187453697Y-97784913D01*
X187454858Y-97728314D01*
X187454702Y-97724247D01*
X187353303Y-97724247D01*
X187352684Y-97789150D01*
X187349846Y-97832114D01*
X187343320Y-97860222D01*
X187331637Y-97880553D01*
X187317677Y-97895888D01*
X187270795Y-97925490D01*
X187220459Y-97928019D01*
X187172884Y-97903305D01*
X187169181Y-97899956D01*
X187153377Y-97882535D01*
X187143467Y-97861809D01*
X187138102Y-97830962D01*
X187135932Y-97783177D01*
X187135589Y-97730348D01*
X187136333Y-97663981D01*
X187139412Y-97619706D01*
X187146099Y-97590609D01*
X187157664Y-97569773D01*
X187167147Y-97558707D01*
X187211200Y-97530798D01*
X187261936Y-97527443D01*
X187310364Y-97548759D01*
X187319710Y-97556673D01*
X187335620Y-97574247D01*
X187345550Y-97595187D01*
X187350882Y-97626382D01*
X187352997Y-97674722D01*
X187353303Y-97724247D01*
X187454702Y-97724247D01*
X187451350Y-97637168D01*
X187439434Y-97568686D01*
X187417025Y-97517200D01*
X187382036Y-97477043D01*
X187354785Y-97456461D01*
X187305253Y-97434225D01*
X187247844Y-97423904D01*
X187194478Y-97426667D01*
X187164617Y-97437812D01*
X187152899Y-97440983D01*
X187145123Y-97429157D01*
X187139695Y-97397466D01*
X187135589Y-97349193D01*
X187131093Y-97295429D01*
X187124847Y-97263082D01*
X187113484Y-97244585D01*
X187093632Y-97232370D01*
X187081160Y-97226962D01*
X187033989Y-97207201D01*
X187034043Y-97543958D01*
G36*
X187694234Y-97428355D02*
X187628302Y-97452684D01*
X187574887Y-97495717D01*
X187553996Y-97526009D01*
X187531221Y-97581594D01*
X187531694Y-97621786D01*
X187555598Y-97648817D01*
X187564443Y-97653413D01*
X187602630Y-97667744D01*
X187622132Y-97664072D01*
X187628738Y-97640007D01*
X187629074Y-97626714D01*
X187641168Y-97577810D01*
X187672689Y-97543599D01*
X187716501Y-97527076D01*
X187765465Y-97531234D01*
X187805266Y-97552827D01*
X187818710Y-97565144D01*
X187828239Y-97580087D01*
X187834675Y-97602675D01*
X187838843Y-97637928D01*
X187841563Y-97690866D01*
X187843658Y-97766507D01*
X187844200Y-97790457D01*
X187846179Y-97872390D01*
X187848429Y-97930055D01*
X187851803Y-97968208D01*
X187857154Y-97991604D01*
X187865336Y-98004998D01*
X187877201Y-98013145D01*
X187884798Y-98016744D01*
X187917058Y-98029052D01*
X187936049Y-98033114D01*
X187942324Y-98019548D01*
X187946154Y-97978534D01*
X187947560Y-97909599D01*
X187946562Y-97812269D01*
X187946252Y-97797257D01*
X187944059Y-97708459D01*
X187941467Y-97643619D01*
X187937778Y-97597667D01*
X187932296Y-97565535D01*
X187924325Y-97542153D01*
X187913167Y-97522452D01*
X187907330Y-97514010D01*
X187873864Y-97476657D01*
X187836433Y-97447603D01*
X187831851Y-97445067D01*
X187764734Y-97425043D01*
X187694234Y-97428355D01*
X187694234Y-97428355D01*
G37*
X187694234Y-97428355D02*
X187628302Y-97452684D01*
X187574887Y-97495717D01*
X187553996Y-97526009D01*
X187531221Y-97581594D01*
X187531694Y-97621786D01*
X187555598Y-97648817D01*
X187564443Y-97653413D01*
X187602630Y-97667744D01*
X187622132Y-97664072D01*
X187628738Y-97640007D01*
X187629074Y-97626714D01*
X187641168Y-97577810D01*
X187672689Y-97543599D01*
X187716501Y-97527076D01*
X187765465Y-97531234D01*
X187805266Y-97552827D01*
X187818710Y-97565144D01*
X187828239Y-97580087D01*
X187834675Y-97602675D01*
X187838843Y-97637928D01*
X187841563Y-97690866D01*
X187843658Y-97766507D01*
X187844200Y-97790457D01*
X187846179Y-97872390D01*
X187848429Y-97930055D01*
X187851803Y-97968208D01*
X187857154Y-97991604D01*
X187865336Y-98004998D01*
X187877201Y-98013145D01*
X187884798Y-98016744D01*
X187917058Y-98029052D01*
X187936049Y-98033114D01*
X187942324Y-98019548D01*
X187946154Y-97978534D01*
X187947560Y-97909599D01*
X187946562Y-97812269D01*
X187946252Y-97797257D01*
X187944059Y-97708459D01*
X187941467Y-97643619D01*
X187937778Y-97597667D01*
X187932296Y-97565535D01*
X187924325Y-97542153D01*
X187913167Y-97522452D01*
X187907330Y-97514010D01*
X187873864Y-97476657D01*
X187836433Y-97447603D01*
X187831851Y-97445067D01*
X187764734Y-97425043D01*
X187694234Y-97428355D01*
G36*
X188184416Y-97429568D02*
X188127544Y-97450687D01*
X188126893Y-97451093D01*
X188091720Y-97476980D01*
X188065753Y-97507233D01*
X188047490Y-97546658D01*
X188035428Y-97600062D01*
X188028064Y-97672251D01*
X188023896Y-97768032D01*
X188023531Y-97781678D01*
X188018284Y-97987442D01*
X188062444Y-98010278D01*
X188094397Y-98025710D01*
X188113690Y-98033023D01*
X188114582Y-98033114D01*
X188117921Y-98019622D01*
X188120573Y-97983226D01*
X188122204Y-97930052D01*
X188122560Y-97886993D01*
X188122568Y-97817241D01*
X188125757Y-97773437D01*
X188136872Y-97752544D01*
X188160659Y-97751525D01*
X188201864Y-97767341D01*
X188264074Y-97796415D01*
X188309819Y-97820563D01*
X188333347Y-97841513D01*
X188340264Y-97864347D01*
X188340274Y-97865477D01*
X188328861Y-97904812D01*
X188295068Y-97926062D01*
X188243351Y-97929139D01*
X188206099Y-97928606D01*
X188186457Y-97939335D01*
X188174208Y-97965105D01*
X188167158Y-97997937D01*
X188177318Y-98016566D01*
X188181143Y-98019232D01*
X188217159Y-98029940D01*
X188267594Y-98031456D01*
X188319534Y-98024359D01*
X188356338Y-98011388D01*
X188407222Y-97968185D01*
X188436146Y-97908046D01*
X188441874Y-97861062D01*
X188437503Y-97818682D01*
X188421685Y-97784088D01*
X188390363Y-97753363D01*
X188339482Y-97722590D01*
X188264984Y-97687852D01*
X188260446Y-97685888D01*
X188193339Y-97654887D01*
X188151928Y-97629462D01*
X188134179Y-97606614D01*
X188138053Y-97583345D01*
X188161517Y-97556656D01*
X188168533Y-97550514D01*
X188215530Y-97526700D01*
X188264227Y-97527703D01*
X188306638Y-97551051D01*
X188334776Y-97594275D01*
X188337391Y-97602760D01*
X188362852Y-97643908D01*
X188395159Y-97663728D01*
X188441874Y-97683370D01*
X188441874Y-97632550D01*
X188427664Y-97558682D01*
X188385485Y-97490927D01*
X188363536Y-97468261D01*
X188313643Y-97439169D01*
X188250193Y-97426000D01*
X188184416Y-97429568D01*
X188184416Y-97429568D01*
G37*
X188184416Y-97429568D02*
X188127544Y-97450687D01*
X188126893Y-97451093D01*
X188091720Y-97476980D01*
X188065753Y-97507233D01*
X188047490Y-97546658D01*
X188035428Y-97600062D01*
X188028064Y-97672251D01*
X188023896Y-97768032D01*
X188023531Y-97781678D01*
X188018284Y-97987442D01*
X188062444Y-98010278D01*
X188094397Y-98025710D01*
X188113690Y-98033023D01*
X188114582Y-98033114D01*
X188117921Y-98019622D01*
X188120573Y-97983226D01*
X188122204Y-97930052D01*
X188122560Y-97886993D01*
X188122568Y-97817241D01*
X188125757Y-97773437D01*
X188136872Y-97752544D01*
X188160659Y-97751525D01*
X188201864Y-97767341D01*
X188264074Y-97796415D01*
X188309819Y-97820563D01*
X188333347Y-97841513D01*
X188340264Y-97864347D01*
X188340274Y-97865477D01*
X188328861Y-97904812D01*
X188295068Y-97926062D01*
X188243351Y-97929139D01*
X188206099Y-97928606D01*
X188186457Y-97939335D01*
X188174208Y-97965105D01*
X188167158Y-97997937D01*
X188177318Y-98016566D01*
X188181143Y-98019232D01*
X188217159Y-98029940D01*
X188267594Y-98031456D01*
X188319534Y-98024359D01*
X188356338Y-98011388D01*
X188407222Y-97968185D01*
X188436146Y-97908046D01*
X188441874Y-97861062D01*
X188437503Y-97818682D01*
X188421685Y-97784088D01*
X188390363Y-97753363D01*
X188339482Y-97722590D01*
X188264984Y-97687852D01*
X188260446Y-97685888D01*
X188193339Y-97654887D01*
X188151928Y-97629462D01*
X188134179Y-97606614D01*
X188138053Y-97583345D01*
X188161517Y-97556656D01*
X188168533Y-97550514D01*
X188215530Y-97526700D01*
X188264227Y-97527703D01*
X188306638Y-97551051D01*
X188334776Y-97594275D01*
X188337391Y-97602760D01*
X188362852Y-97643908D01*
X188395159Y-97663728D01*
X188441874Y-97683370D01*
X188441874Y-97632550D01*
X188427664Y-97558682D01*
X188385485Y-97490927D01*
X188363536Y-97468261D01*
X188313643Y-97439169D01*
X188250193Y-97426000D01*
X188184416Y-97429568D01*
G36*
X188848274Y-97329889D02*
X188844021Y-97389213D01*
X188839135Y-97424172D01*
X188832365Y-97439420D01*
X188822458Y-97439615D01*
X188819246Y-97437795D01*
X188776516Y-97424615D01*
X188720933Y-97425385D01*
X188664423Y-97438933D01*
X188629078Y-97456461D01*
X188592839Y-97484461D01*
X188566347Y-97516149D01*
X188548161Y-97556413D01*
X188536838Y-97610143D01*
X188530938Y-97682226D01*
X188529017Y-97777551D01*
X188528983Y-97795837D01*
X188528960Y-98001246D01*
X188574669Y-98017180D01*
X188607133Y-98028020D01*
X188624945Y-98033068D01*
X188625469Y-98033114D01*
X188627223Y-98019428D01*
X188628716Y-97981676D01*
X188629834Y-97924824D01*
X188630463Y-97853834D01*
X188630560Y-97810673D01*
X188630762Y-97725573D01*
X188631802Y-97664581D01*
X188634329Y-97622777D01*
X188638996Y-97595242D01*
X188646453Y-97577056D01*
X188657349Y-97563298D01*
X188664153Y-97556673D01*
X188710888Y-97529975D01*
X188761888Y-97527975D01*
X188808159Y-97550555D01*
X188816716Y-97558707D01*
X188829267Y-97574036D01*
X188837972Y-97592218D01*
X188843529Y-97618509D01*
X188846634Y-97658162D01*
X188847984Y-97716432D01*
X188848274Y-97796773D01*
X188848274Y-98001246D01*
X188893983Y-98017180D01*
X188926447Y-98028020D01*
X188944259Y-98033068D01*
X188944783Y-98033114D01*
X188946123Y-98019223D01*
X188947332Y-97980039D01*
X188948359Y-97919300D01*
X188949158Y-97840741D01*
X188949679Y-97748098D01*
X188949874Y-97645109D01*
X188949874Y-97247942D01*
X188902703Y-97228044D01*
X188855531Y-97208147D01*
X188848274Y-97329889D01*
X188848274Y-97329889D01*
G37*
X188848274Y-97329889D02*
X188844021Y-97389213D01*
X188839135Y-97424172D01*
X188832365Y-97439420D01*
X188822458Y-97439615D01*
X188819246Y-97437795D01*
X188776516Y-97424615D01*
X188720933Y-97425385D01*
X188664423Y-97438933D01*
X188629078Y-97456461D01*
X188592839Y-97484461D01*
X188566347Y-97516149D01*
X188548161Y-97556413D01*
X188536838Y-97610143D01*
X188530938Y-97682226D01*
X188529017Y-97777551D01*
X188528983Y-97795837D01*
X188528960Y-98001246D01*
X188574669Y-98017180D01*
X188607133Y-98028020D01*
X188624945Y-98033068D01*
X188625469Y-98033114D01*
X188627223Y-98019428D01*
X188628716Y-97981676D01*
X188629834Y-97924824D01*
X188630463Y-97853834D01*
X188630560Y-97810673D01*
X188630762Y-97725573D01*
X188631802Y-97664581D01*
X188634329Y-97622777D01*
X188638996Y-97595242D01*
X188646453Y-97577056D01*
X188657349Y-97563298D01*
X188664153Y-97556673D01*
X188710888Y-97529975D01*
X188761888Y-97527975D01*
X188808159Y-97550555D01*
X188816716Y-97558707D01*
X188829267Y-97574036D01*
X188837972Y-97592218D01*
X188843529Y-97618509D01*
X188846634Y-97658162D01*
X188847984Y-97716432D01*
X188848274Y-97796773D01*
X188848274Y-98001246D01*
X188893983Y-98017180D01*
X188926447Y-98028020D01*
X188944259Y-98033068D01*
X188944783Y-98033114D01*
X188946123Y-98019223D01*
X188947332Y-97980039D01*
X188948359Y-97919300D01*
X188949158Y-97840741D01*
X188949679Y-97748098D01*
X188949874Y-97645109D01*
X188949874Y-97247942D01*
X188902703Y-97228044D01*
X188855531Y-97208147D01*
X188848274Y-97329889D01*
G36*
X190055857Y-97409839D02*
X189998633Y-97448335D01*
X189954411Y-97503935D01*
X189927993Y-97574686D01*
X189922650Y-97626762D01*
X189923257Y-97648493D01*
X189928338Y-97665131D01*
X189942305Y-97680037D01*
X189969571Y-97696573D01*
X190014548Y-97718098D01*
X190081649Y-97747974D01*
X190081989Y-97748124D01*
X190143753Y-97776413D01*
X190194401Y-97801533D01*
X190228756Y-97820779D01*
X190241642Y-97831448D01*
X190241646Y-97831534D01*
X190230288Y-97854766D01*
X190203729Y-97880374D01*
X190173237Y-97898821D01*
X190157790Y-97902486D01*
X190115645Y-97889812D01*
X190079352Y-97858071D01*
X190061643Y-97823172D01*
X190044608Y-97797445D01*
X190011238Y-97768146D01*
X189972011Y-97742835D01*
X189937404Y-97729071D01*
X189930167Y-97728314D01*
X189922021Y-97740760D01*
X189921530Y-97772572D01*
X189927517Y-97815466D01*
X189938803Y-97861158D01*
X189954210Y-97901361D01*
X189954989Y-97902922D01*
X190001356Y-97967662D01*
X190061449Y-98011697D01*
X190129695Y-98033311D01*
X190200522Y-98030785D01*
X190268356Y-98002404D01*
X190271372Y-98000408D01*
X190324733Y-97952048D01*
X190359820Y-97888952D01*
X190379238Y-97805987D01*
X190381844Y-97782678D01*
X190386459Y-97672655D01*
X190380927Y-97621348D01*
X190241646Y-97621348D01*
X190239836Y-97653353D01*
X190229938Y-97662693D01*
X190205262Y-97655705D01*
X190166365Y-97639187D01*
X190122885Y-97618481D01*
X190121804Y-97617933D01*
X190084951Y-97598549D01*
X190070160Y-97585613D01*
X190073807Y-97572051D01*
X190089165Y-97554232D01*
X190128237Y-97528445D01*
X190170314Y-97526550D01*
X190208057Y-97545317D01*
X190234126Y-97581515D01*
X190241646Y-97621348D01*
X190380927Y-97621348D01*
X190376966Y-97584627D01*
X190352610Y-97514812D01*
X190318704Y-97465902D01*
X190257507Y-97416478D01*
X190190097Y-97391959D01*
X190121280Y-97390397D01*
X190055857Y-97409839D01*
X190055857Y-97409839D01*
G37*
X190055857Y-97409839D02*
X189998633Y-97448335D01*
X189954411Y-97503935D01*
X189927993Y-97574686D01*
X189922650Y-97626762D01*
X189923257Y-97648493D01*
X189928338Y-97665131D01*
X189942305Y-97680037D01*
X189969571Y-97696573D01*
X190014548Y-97718098D01*
X190081649Y-97747974D01*
X190081989Y-97748124D01*
X190143753Y-97776413D01*
X190194401Y-97801533D01*
X190228756Y-97820779D01*
X190241642Y-97831448D01*
X190241646Y-97831534D01*
X190230288Y-97854766D01*
X190203729Y-97880374D01*
X190173237Y-97898821D01*
X190157790Y-97902486D01*
X190115645Y-97889812D01*
X190079352Y-97858071D01*
X190061643Y-97823172D01*
X190044608Y-97797445D01*
X190011238Y-97768146D01*
X189972011Y-97742835D01*
X189937404Y-97729071D01*
X189930167Y-97728314D01*
X189922021Y-97740760D01*
X189921530Y-97772572D01*
X189927517Y-97815466D01*
X189938803Y-97861158D01*
X189954210Y-97901361D01*
X189954989Y-97902922D01*
X190001356Y-97967662D01*
X190061449Y-98011697D01*
X190129695Y-98033311D01*
X190200522Y-98030785D01*
X190268356Y-98002404D01*
X190271372Y-98000408D01*
X190324733Y-97952048D01*
X190359820Y-97888952D01*
X190379238Y-97805987D01*
X190381844Y-97782678D01*
X190386459Y-97672655D01*
X190380927Y-97621348D01*
X190241646Y-97621348D01*
X190239836Y-97653353D01*
X190229938Y-97662693D01*
X190205262Y-97655705D01*
X190166365Y-97639187D01*
X190122885Y-97618481D01*
X190121804Y-97617933D01*
X190084951Y-97598549D01*
X190070160Y-97585613D01*
X190073807Y-97572051D01*
X190089165Y-97554232D01*
X190128237Y-97528445D01*
X190170314Y-97526550D01*
X190208057Y-97545317D01*
X190234126Y-97581515D01*
X190241646Y-97621348D01*
X190380927Y-97621348D01*
X190376966Y-97584627D01*
X190352610Y-97514812D01*
X190318704Y-97465902D01*
X190257507Y-97416478D01*
X190190097Y-97391959D01*
X190121280Y-97390397D01*
X190055857Y-97409839D01*
G36*
X191183045Y-97400562D02*
X191115015Y-97436333D01*
X191064809Y-97493901D01*
X191046975Y-97530912D01*
X191033097Y-97586482D01*
X191025993Y-97656696D01*
X191025320Y-97733327D01*
X191030733Y-97808152D01*
X191041890Y-97872942D01*
X191058446Y-97919473D01*
X191063534Y-97927487D01*
X191123805Y-97987307D01*
X191195391Y-98023135D01*
X191273068Y-98033620D01*
X191351612Y-98017410D01*
X191373471Y-98007692D01*
X191416038Y-97977743D01*
X191453397Y-97938033D01*
X191456928Y-97932997D01*
X191471279Y-97908724D01*
X191480766Y-97882778D01*
X191486370Y-97848622D01*
X191489074Y-97799719D01*
X191489861Y-97729535D01*
X191489874Y-97713800D01*
X191489838Y-97708792D01*
X191344731Y-97708792D01*
X191343887Y-97775030D01*
X191340564Y-97818986D01*
X191333577Y-97847379D01*
X191321744Y-97866925D01*
X191315703Y-97873457D01*
X191280974Y-97898280D01*
X191247257Y-97897148D01*
X191213165Y-97875616D01*
X191192831Y-97852629D01*
X191180789Y-97819078D01*
X191174026Y-97766169D01*
X191173562Y-97759999D01*
X191172408Y-97664113D01*
X191184472Y-97592899D01*
X191209590Y-97546794D01*
X191247600Y-97526235D01*
X191261168Y-97525114D01*
X191296796Y-97530752D01*
X191321166Y-97550286D01*
X191336067Y-97587642D01*
X191343285Y-97646750D01*
X191344731Y-97708792D01*
X191489838Y-97708792D01*
X191489334Y-97639013D01*
X191487064Y-97586759D01*
X191482092Y-97550549D01*
X191473447Y-97523899D01*
X191460155Y-97500322D01*
X191457217Y-97495938D01*
X191407847Y-97436849D01*
X191354051Y-97402547D01*
X191288558Y-97388931D01*
X191266318Y-97388265D01*
X191183045Y-97400562D01*
X191183045Y-97400562D01*
G37*
X191183045Y-97400562D02*
X191115015Y-97436333D01*
X191064809Y-97493901D01*
X191046975Y-97530912D01*
X191033097Y-97586482D01*
X191025993Y-97656696D01*
X191025320Y-97733327D01*
X191030733Y-97808152D01*
X191041890Y-97872942D01*
X191058446Y-97919473D01*
X191063534Y-97927487D01*
X191123805Y-97987307D01*
X191195391Y-98023135D01*
X191273068Y-98033620D01*
X191351612Y-98017410D01*
X191373471Y-98007692D01*
X191416038Y-97977743D01*
X191453397Y-97938033D01*
X191456928Y-97932997D01*
X191471279Y-97908724D01*
X191480766Y-97882778D01*
X191486370Y-97848622D01*
X191489074Y-97799719D01*
X191489861Y-97729535D01*
X191489874Y-97713800D01*
X191489838Y-97708792D01*
X191344731Y-97708792D01*
X191343887Y-97775030D01*
X191340564Y-97818986D01*
X191333577Y-97847379D01*
X191321744Y-97866925D01*
X191315703Y-97873457D01*
X191280974Y-97898280D01*
X191247257Y-97897148D01*
X191213165Y-97875616D01*
X191192831Y-97852629D01*
X191180789Y-97819078D01*
X191174026Y-97766169D01*
X191173562Y-97759999D01*
X191172408Y-97664113D01*
X191184472Y-97592899D01*
X191209590Y-97546794D01*
X191247600Y-97526235D01*
X191261168Y-97525114D01*
X191296796Y-97530752D01*
X191321166Y-97550286D01*
X191336067Y-97587642D01*
X191343285Y-97646750D01*
X191344731Y-97708792D01*
X191489838Y-97708792D01*
X191489334Y-97639013D01*
X191487064Y-97586759D01*
X191482092Y-97550549D01*
X191473447Y-97523899D01*
X191460155Y-97500322D01*
X191457217Y-97495938D01*
X191407847Y-97436849D01*
X191354051Y-97402547D01*
X191288558Y-97388931D01*
X191266318Y-97388265D01*
X191183045Y-97400562D01*
G36*
X189508067Y-97406380D02*
X189461488Y-97433323D01*
X189429103Y-97460066D01*
X189405418Y-97488084D01*
X189389101Y-97522348D01*
X189378821Y-97567827D01*
X189373246Y-97629492D01*
X189371044Y-97712311D01*
X189370789Y-97771846D01*
X189370789Y-97990991D01*
X189432474Y-98018644D01*
X189494160Y-98046297D01*
X189501417Y-97806270D01*
X189504416Y-97716628D01*
X189507562Y-97651562D01*
X189511459Y-97606626D01*
X189516713Y-97577370D01*
X189523929Y-97559348D01*
X189533710Y-97548111D01*
X189536848Y-97545679D01*
X189584399Y-97526683D01*
X189632463Y-97534200D01*
X189661074Y-97554143D01*
X189672713Y-97568275D01*
X189680769Y-97586820D01*
X189685889Y-97614934D01*
X189688719Y-97657773D01*
X189689904Y-97720495D01*
X189690103Y-97785861D01*
X189690142Y-97867868D01*
X189691546Y-97925916D01*
X189696246Y-97965065D01*
X189706173Y-97990380D01*
X189723257Y-98006923D01*
X189749428Y-98019756D01*
X189784385Y-98033091D01*
X189822564Y-98047607D01*
X189818019Y-97789989D01*
X189816189Y-97697119D01*
X189814048Y-97628489D01*
X189810979Y-97579311D01*
X189806366Y-97544798D01*
X189799592Y-97520162D01*
X189790041Y-97500616D01*
X189778526Y-97483370D01*
X189722970Y-97428280D01*
X189655180Y-97396422D01*
X189581447Y-97388791D01*
X189508067Y-97406380D01*
X189508067Y-97406380D01*
G37*
X189508067Y-97406380D02*
X189461488Y-97433323D01*
X189429103Y-97460066D01*
X189405418Y-97488084D01*
X189389101Y-97522348D01*
X189378821Y-97567827D01*
X189373246Y-97629492D01*
X189371044Y-97712311D01*
X189370789Y-97771846D01*
X189370789Y-97990991D01*
X189432474Y-98018644D01*
X189494160Y-98046297D01*
X189501417Y-97806270D01*
X189504416Y-97716628D01*
X189507562Y-97651562D01*
X189511459Y-97606626D01*
X189516713Y-97577370D01*
X189523929Y-97559348D01*
X189533710Y-97548111D01*
X189536848Y-97545679D01*
X189584399Y-97526683D01*
X189632463Y-97534200D01*
X189661074Y-97554143D01*
X189672713Y-97568275D01*
X189680769Y-97586820D01*
X189685889Y-97614934D01*
X189688719Y-97657773D01*
X189689904Y-97720495D01*
X189690103Y-97785861D01*
X189690142Y-97867868D01*
X189691546Y-97925916D01*
X189696246Y-97965065D01*
X189706173Y-97990380D01*
X189723257Y-98006923D01*
X189749428Y-98019756D01*
X189784385Y-98033091D01*
X189822564Y-98047607D01*
X189818019Y-97789989D01*
X189816189Y-97697119D01*
X189814048Y-97628489D01*
X189810979Y-97579311D01*
X189806366Y-97544798D01*
X189799592Y-97520162D01*
X189790041Y-97500616D01*
X189778526Y-97483370D01*
X189722970Y-97428280D01*
X189655180Y-97396422D01*
X189581447Y-97388791D01*
X189508067Y-97406380D01*
G36*
X190624416Y-97398518D02*
X190568959Y-97426168D01*
X190520012Y-97477080D01*
X190506531Y-97495938D01*
X190491846Y-97520615D01*
X190482318Y-97547416D01*
X190476867Y-97583187D01*
X190474413Y-97634769D01*
X190473874Y-97702867D01*
X190476308Y-97796188D01*
X190484766Y-97866257D01*
X190500986Y-97918531D01*
X190526706Y-97958469D01*
X190563663Y-97991529D01*
X190566378Y-97993486D01*
X190602800Y-98013508D01*
X190646658Y-98023415D01*
X190702436Y-98025857D01*
X190793112Y-98025857D01*
X190793150Y-98113883D01*
X190793994Y-98162908D01*
X190799136Y-98191665D01*
X190812573Y-98208911D01*
X190838302Y-98223408D01*
X190844481Y-98226369D01*
X190873396Y-98240248D01*
X190895784Y-98249014D01*
X190912431Y-98249771D01*
X190924124Y-98239623D01*
X190931650Y-98215673D01*
X190935794Y-98175026D01*
X190937345Y-98114786D01*
X190937089Y-98032055D01*
X190935811Y-97923939D01*
X190935412Y-97891600D01*
X190933975Y-97780124D01*
X190932688Y-97707203D01*
X190793189Y-97707203D01*
X190792405Y-97769099D01*
X190788920Y-97809597D01*
X190781036Y-97836308D01*
X190767055Y-97856844D01*
X190757563Y-97866860D01*
X190718756Y-97896167D01*
X190684397Y-97898552D01*
X190648944Y-97874350D01*
X190648046Y-97873457D01*
X190633621Y-97854753D01*
X190624847Y-97829332D01*
X190620421Y-97790184D01*
X190619042Y-97730297D01*
X190619017Y-97717030D01*
X190622348Y-97634501D01*
X190633191Y-97577291D01*
X190652820Y-97542366D01*
X190682510Y-97526694D01*
X190699669Y-97525114D01*
X190740394Y-97532526D01*
X190768328Y-97556930D01*
X190785143Y-97601580D01*
X190792510Y-97669730D01*
X190793189Y-97707203D01*
X190932688Y-97707203D01*
X190932452Y-97693845D01*
X190930483Y-97628933D01*
X190927710Y-97581558D01*
X190923772Y-97547890D01*
X190918311Y-97524098D01*
X190910968Y-97506353D01*
X190901383Y-97490824D01*
X190897273Y-97484981D01*
X190842755Y-97429785D01*
X190773824Y-97398490D01*
X190694088Y-97389765D01*
X190624416Y-97398518D01*
X190624416Y-97398518D01*
G37*
X190624416Y-97398518D02*
X190568959Y-97426168D01*
X190520012Y-97477080D01*
X190506531Y-97495938D01*
X190491846Y-97520615D01*
X190482318Y-97547416D01*
X190476867Y-97583187D01*
X190474413Y-97634769D01*
X190473874Y-97702867D01*
X190476308Y-97796188D01*
X190484766Y-97866257D01*
X190500986Y-97918531D01*
X190526706Y-97958469D01*
X190563663Y-97991529D01*
X190566378Y-97993486D01*
X190602800Y-98013508D01*
X190646658Y-98023415D01*
X190702436Y-98025857D01*
X190793112Y-98025857D01*
X190793150Y-98113883D01*
X190793994Y-98162908D01*
X190799136Y-98191665D01*
X190812573Y-98208911D01*
X190838302Y-98223408D01*
X190844481Y-98226369D01*
X190873396Y-98240248D01*
X190895784Y-98249014D01*
X190912431Y-98249771D01*
X190924124Y-98239623D01*
X190931650Y-98215673D01*
X190935794Y-98175026D01*
X190937345Y-98114786D01*
X190937089Y-98032055D01*
X190935811Y-97923939D01*
X190935412Y-97891600D01*
X190933975Y-97780124D01*
X190932688Y-97707203D01*
X190793189Y-97707203D01*
X190792405Y-97769099D01*
X190788920Y-97809597D01*
X190781036Y-97836308D01*
X190767055Y-97856844D01*
X190757563Y-97866860D01*
X190718756Y-97896167D01*
X190684397Y-97898552D01*
X190648944Y-97874350D01*
X190648046Y-97873457D01*
X190633621Y-97854753D01*
X190624847Y-97829332D01*
X190620421Y-97790184D01*
X190619042Y-97730297D01*
X190619017Y-97717030D01*
X190622348Y-97634501D01*
X190633191Y-97577291D01*
X190652820Y-97542366D01*
X190682510Y-97526694D01*
X190699669Y-97525114D01*
X190740394Y-97532526D01*
X190768328Y-97556930D01*
X190785143Y-97601580D01*
X190792510Y-97669730D01*
X190793189Y-97707203D01*
X190932688Y-97707203D01*
X190932452Y-97693845D01*
X190930483Y-97628933D01*
X190927710Y-97581558D01*
X190923772Y-97547890D01*
X190918311Y-97524098D01*
X190910968Y-97506353D01*
X190901383Y-97490824D01*
X190897273Y-97484981D01*
X190842755Y-97429785D01*
X190773824Y-97398490D01*
X190694088Y-97389765D01*
X190624416Y-97398518D01*
G04 #@! TD*
M02*
