G04 #@! TF.GenerationSoftware,KiCad,Pcbnew,5.0.2-bee76a0~70~ubuntu18.04.1*
G04 #@! TF.CreationDate,2019-03-15T07:27:36+09:00*
G04 #@! TF.ProjectId,M5StackSideBB,4d355374-6163-46b5-9369-646542422e6b,rev?*
G04 #@! TF.SameCoordinates,Original*
G04 #@! TF.FileFunction,Copper,L1,Top*
G04 #@! TF.FilePolarity,Positive*
%FSLAX46Y46*%
G04 Gerber Fmt 4.6, Leading zero omitted, Abs format (unit mm)*
G04 Created by KiCad (PCBNEW 5.0.2-bee76a0~70~ubuntu18.04.1) date 2019年03月15日 07時27分36秒*
%MOMM*%
%LPD*%
G01*
G04 APERTURE LIST*
G04 #@! TA.AperFunction,ComponentPad*
%ADD10O,1.700000X1.700000*%
G04 #@! TD*
G04 #@! TA.AperFunction,ComponentPad*
%ADD11R,1.700000X1.700000*%
G04 #@! TD*
G04 #@! TA.AperFunction,BGAPad,CuDef*
%ADD12C,1.524000*%
G04 #@! TD*
G04 #@! TA.AperFunction,BGAPad,CuDef*
%ADD13C,1.700000*%
G04 #@! TD*
G04 #@! TA.AperFunction,ViaPad*
%ADD14C,0.800000*%
G04 #@! TD*
G04 #@! TA.AperFunction,Conductor*
%ADD15C,0.250000*%
G04 #@! TD*
G04 #@! TA.AperFunction,Conductor*
%ADD16C,0.254000*%
G04 #@! TD*
G04 APERTURE END LIST*
D10*
G04 #@! TO.P,J1,14*
G04 #@! TO.N,RST*
X189205000Y-56070000D03*
G04 #@! TO.P,J1,13*
G04 #@! TO.N,G36*
X186665000Y-56070000D03*
G04 #@! TO.P,J1,12*
G04 #@! TO.N,G35*
X184125000Y-56070000D03*
G04 #@! TO.P,J1,11*
G04 #@! TO.N,G26*
X181585000Y-56070000D03*
G04 #@! TO.P,J1,10*
G04 #@! TO.N,G25*
X179045000Y-56070000D03*
G04 #@! TO.P,J1,9*
G04 #@! TO.N,G23*
X176505000Y-56070000D03*
G04 #@! TO.P,J1,8*
G04 #@! TO.N,G19*
X173965000Y-56070000D03*
G04 #@! TO.P,J1,7*
G04 #@! TO.N,G18*
X171425000Y-56070000D03*
G04 #@! TO.P,J1,6*
G04 #@! TO.N,G1*
X168885000Y-56070000D03*
G04 #@! TO.P,J1,5*
G04 #@! TO.N,G3*
X166345000Y-56070000D03*
G04 #@! TO.P,J1,4*
G04 #@! TO.N,G22*
X163805000Y-56070000D03*
G04 #@! TO.P,J1,3*
G04 #@! TO.N,G21*
X161265000Y-56070000D03*
G04 #@! TO.P,J1,2*
G04 #@! TO.N,+3V3*
X158725000Y-56070000D03*
D11*
G04 #@! TO.P,J1,1*
G04 #@! TO.N,GND*
X156185000Y-56070000D03*
G04 #@! TD*
G04 #@! TO.P,J2,1*
G04 #@! TO.N,HPWR*
X156185000Y-94170000D03*
D10*
G04 #@! TO.P,J2,2*
G04 #@! TO.N,+BATT*
X158725000Y-94170000D03*
G04 #@! TO.P,J2,3*
G04 #@! TO.N,+5V*
X161265000Y-94170000D03*
G04 #@! TO.P,J2,4*
G04 #@! TO.N,G34*
X163805000Y-94170000D03*
G04 #@! TO.P,J2,5*
G04 #@! TO.N,G15*
X166345000Y-94170000D03*
G04 #@! TO.P,J2,6*
G04 #@! TO.N,G0*
X168885000Y-94170000D03*
G04 #@! TO.P,J2,7*
G04 #@! TO.N,G12*
X171425000Y-94170000D03*
G04 #@! TO.P,J2,8*
G04 #@! TO.N,G13*
X173965000Y-94170000D03*
G04 #@! TO.P,J2,9*
G04 #@! TO.N,G2*
X176505000Y-94170000D03*
G04 #@! TO.P,J2,10*
G04 #@! TO.N,G5*
X179045000Y-94170000D03*
G04 #@! TO.P,J2,11*
G04 #@! TO.N,G16*
X181585000Y-94170000D03*
G04 #@! TO.P,J2,12*
G04 #@! TO.N,G17*
X184125000Y-94170000D03*
G04 #@! TO.P,J2,13*
G04 #@! TO.N,+3V3*
X186665000Y-94170000D03*
G04 #@! TO.P,J2,14*
G04 #@! TO.N,GND*
X189205000Y-94170000D03*
G04 #@! TD*
D12*
G04 #@! TO.P,J3,1*
G04 #@! TO.N,G35*
X139394000Y-57048400D03*
G04 #@! TO.P,J3,3*
G04 #@! TO.N,G36*
X139394000Y-59578400D03*
D13*
G04 #@! TO.P,J3,5*
G04 #@! TO.N,RST*
X139394000Y-62138400D03*
D12*
G04 #@! TO.P,J3,7*
G04 #@! TO.N,G25*
X139394000Y-64648400D03*
G04 #@! TO.P,J3,9*
G04 #@! TO.N,G26*
X139394000Y-67178400D03*
G04 #@! TO.P,J3,11*
G04 #@! TO.N,+3V3*
X139394000Y-69758400D03*
G04 #@! TO.P,J3,13*
G04 #@! TO.N,G1*
X139394000Y-72268400D03*
G04 #@! TO.P,J3,15*
G04 #@! TO.N,G17*
X139394000Y-74838400D03*
G04 #@! TO.P,J3,17*
G04 #@! TO.N,G22*
X139394000Y-77358400D03*
G04 #@! TO.P,J3,19*
G04 #@! TO.N,G5*
X139394000Y-79888400D03*
G04 #@! TO.P,J3,21*
G04 #@! TO.N,G13*
X139394000Y-82428400D03*
G04 #@! TO.P,J3,23*
G04 #@! TO.N,G0*
X139394000Y-84998400D03*
D13*
G04 #@! TO.P,J3,25*
G04 #@! TO.N,G34*
X139394000Y-87528400D03*
D12*
G04 #@! TO.P,J3,27*
G04 #@! TO.N,+5V*
X139394000Y-90048400D03*
G04 #@! TO.P,J3,29*
G04 #@! TO.N,+BATT*
X139394000Y-92628400D03*
G04 #@! TO.P,J3,2*
G04 #@! TO.N,GND*
X148754000Y-57048400D03*
G04 #@! TO.P,J3,4*
X148754000Y-59608400D03*
D13*
G04 #@! TO.P,J3,6*
X148754000Y-62138400D03*
D12*
G04 #@! TO.P,J3,8*
G04 #@! TO.N,G23*
X148754000Y-64658400D03*
G04 #@! TO.P,J3,10*
G04 #@! TO.N,G19*
X148754000Y-67198400D03*
G04 #@! TO.P,J3,12*
G04 #@! TO.N,G18*
X148754000Y-69748400D03*
G04 #@! TO.P,J3,14*
G04 #@! TO.N,G3*
X148754000Y-72278400D03*
G04 #@! TO.P,J3,16*
G04 #@! TO.N,G16*
X148754000Y-74838400D03*
G04 #@! TO.P,J3,18*
G04 #@! TO.N,G21*
X148754000Y-77358400D03*
G04 #@! TO.P,J3,20*
G04 #@! TO.N,G2*
X148754000Y-79898400D03*
G04 #@! TO.P,J3,22*
G04 #@! TO.N,G12*
X148754000Y-82438400D03*
G04 #@! TO.P,J3,24*
G04 #@! TO.N,G15*
X148754000Y-84988400D03*
D13*
G04 #@! TO.P,J3,26*
G04 #@! TO.N,HPWR*
X148754000Y-87518400D03*
D12*
G04 #@! TO.P,J3,28*
X148754000Y-90078400D03*
G04 #@! TO.P,J3,30*
X148754000Y-92608400D03*
G04 #@! TD*
D14*
G04 #@! TO.N,GND*
X171155360Y-72679560D03*
X161086800Y-72760840D03*
X188158120Y-59049920D03*
X105338880Y-54899560D03*
X105338880Y-94914720D03*
X140522960Y-98308160D03*
X149656800Y-96814640D03*
X144881600Y-54747200D03*
X151688800Y-53340000D03*
X155651200Y-50698400D03*
X182930800Y-92354400D03*
X180086000Y-92405200D03*
X162755047Y-92413353D03*
X150520400Y-91389200D03*
X150926800Y-87172800D03*
X156006800Y-85801200D03*
X160070800Y-92659200D03*
X154931847Y-87130153D03*
X152552400Y-94234000D03*
X137210800Y-63403480D03*
X137261600Y-86309200D03*
X158038800Y-58420000D03*
X159979553Y-60513153D03*
X150637547Y-70830747D03*
X153720800Y-70866000D03*
X162052000Y-63652400D03*
X168910000Y-58623200D03*
X152298400Y-63804800D03*
X151521353Y-68971353D03*
X155651200Y-68935600D03*
X177647600Y-92405200D03*
X150266400Y-77266800D03*
G04 #@! TO.N,G19*
X150141200Y-67125700D03*
G04 #@! TO.N,G18*
X144780000Y-69748400D03*
G04 #@! TO.N,G3*
X150205200Y-72288400D03*
G04 #@! TO.N,G16*
X150126200Y-74838400D03*
G04 #@! TO.N,G21*
X145166300Y-76257100D03*
G04 #@! TO.N,G2*
X150317200Y-79903400D03*
G04 #@! TO.N,G12*
X150418800Y-82438400D03*
G04 #@! TO.N,G15*
X150418800Y-84988400D03*
G04 #@! TO.N,HPWR*
X148754000Y-87518400D03*
G04 #@! TO.N,+BATT*
X143379300Y-92608400D03*
G04 #@! TO.N,+5V*
X143900500Y-90068400D03*
G04 #@! TO.N,G34*
X139394000Y-87528400D03*
G04 #@! TO.N,G0*
X142936500Y-83900900D03*
G04 #@! TO.N,G13*
X142969000Y-81328400D03*
X142969000Y-81328400D03*
G04 #@! TO.N,G5*
X143752900Y-79908400D03*
G04 #@! TO.N,G22*
X140739000Y-78480900D03*
G04 #@! TO.N,G17*
X143732400Y-74828400D03*
G04 #@! TO.N,G1*
X143449300Y-71157200D03*
G04 #@! TO.N,G26*
X141173500Y-66084400D03*
G04 #@! TO.N,G25*
X143725300Y-64668400D03*
G04 #@! TO.N,RST*
X139394000Y-62138400D03*
G04 #@! TO.N,G36*
X141186800Y-58474900D03*
G04 #@! TO.N,G35*
X143742300Y-56651000D03*
G04 #@! TO.N,+3V3*
X143242300Y-69748400D03*
G04 #@! TD*
D15*
G04 #@! TO.N,GND*
X156185000Y-56070000D02*
X155009700Y-56070000D01*
X149054000Y-57048400D02*
X154031300Y-57048400D01*
X154031300Y-57048400D02*
X155009700Y-56070000D01*
X148754000Y-57048400D02*
X149054000Y-57048400D01*
X147826500Y-57048400D02*
X148754000Y-57048400D01*
X147826500Y-59588400D02*
X148754000Y-59588400D01*
X147826500Y-57048400D02*
X147826500Y-59588400D01*
X146599000Y-62128400D02*
X146899000Y-62128400D01*
X148754000Y-59608400D02*
X148754000Y-62128400D01*
X148754000Y-59588400D02*
X148754000Y-59608400D01*
X146899000Y-62128400D02*
X148754000Y-62128400D01*
X148754000Y-59588400D02*
X149034000Y-59588400D01*
X148754000Y-62128400D02*
X149044000Y-62128400D01*
X148754000Y-62138400D02*
X148754000Y-62128400D01*
X171155360Y-72679560D02*
X161168080Y-72679560D01*
X161168080Y-72679560D02*
X161086800Y-72760840D01*
X144774000Y-62128400D02*
X143498920Y-63403480D01*
X146599000Y-62128400D02*
X144774000Y-62128400D01*
X113842800Y-63403480D02*
X105338880Y-54899560D01*
X143498920Y-63403480D02*
X138719560Y-63403480D01*
X105338880Y-94914720D02*
X137129520Y-94914720D01*
X137129520Y-94914720D02*
X140522960Y-98308160D01*
X137210800Y-63403480D02*
X137210800Y-55880000D01*
X137210800Y-63403480D02*
X113842800Y-63403480D01*
X138719560Y-63403480D02*
X137210800Y-63403480D01*
X137210800Y-55880000D02*
X138343600Y-54747200D01*
X138343600Y-54747200D02*
X144881600Y-54747200D01*
X151688800Y-53340000D02*
X153009600Y-53340000D01*
X153009600Y-53340000D02*
X155651200Y-50698400D01*
X189205000Y-94170000D02*
X187389400Y-92354400D01*
X187389400Y-92354400D02*
X182930800Y-92354400D01*
X182930800Y-92354400D02*
X180136800Y-92354400D01*
X180136800Y-92354400D02*
X180086000Y-92405200D01*
X162755047Y-92413353D02*
X161730894Y-91389200D01*
X161730894Y-91389200D02*
X150520400Y-91389200D01*
X150926800Y-87172800D02*
X152298400Y-85801200D01*
X152298400Y-85801200D02*
X156006800Y-85801200D01*
X150520400Y-91389200D02*
X158800800Y-91389200D01*
X158800800Y-91389200D02*
X160070800Y-92659200D01*
X150520400Y-91389200D02*
X154779447Y-87130153D01*
X154779447Y-87130153D02*
X154931847Y-87130153D01*
X137160000Y-63403480D02*
X137210800Y-63403480D01*
X137160000Y-63403480D02*
X136479280Y-63403480D01*
X138719560Y-63403480D02*
X137160000Y-63403480D01*
X137210800Y-63403480D02*
X137210800Y-86258400D01*
X137210800Y-86258400D02*
X137261600Y-86309200D01*
X158038800Y-58420000D02*
X159979553Y-60360753D01*
X159979553Y-60360753D02*
X159979553Y-60513153D01*
X150637547Y-70830747D02*
X153685547Y-70830747D01*
X153685547Y-70830747D02*
X153720800Y-70866000D01*
X162052000Y-63652400D02*
X163880800Y-63652400D01*
X163880800Y-63652400D02*
X168910000Y-58623200D01*
X158038800Y-58420000D02*
X152654000Y-63804800D01*
X152654000Y-63804800D02*
X152298400Y-63804800D01*
X155615447Y-68971353D02*
X155651200Y-68935600D01*
X151521353Y-68971353D02*
X155615447Y-68971353D01*
G04 #@! TO.N,G23*
X176505000Y-56070000D02*
X174874300Y-54439300D01*
X174874300Y-54439300D02*
X166311200Y-54439300D01*
X166311200Y-54439300D02*
X165075000Y-55675500D01*
X165075000Y-55675500D02*
X165075000Y-56481800D01*
X165075000Y-56481800D02*
X156893400Y-64663400D01*
X156893400Y-64663400D02*
X148749000Y-64663400D01*
X148749000Y-64663400D02*
X148754000Y-64658400D01*
G04 #@! TO.N,G19*
X150141200Y-67125700D02*
X162101400Y-67125700D01*
X162101400Y-67125700D02*
X172789700Y-56437400D01*
X172789700Y-56437400D02*
X172789700Y-56070000D01*
X173965000Y-56070000D02*
X172789700Y-56070000D01*
X148754000Y-67198400D02*
X148826700Y-67125700D01*
X148826700Y-67125700D02*
X150141200Y-67125700D01*
G04 #@! TO.N,G18*
X149054000Y-69748400D02*
X161962100Y-69748400D01*
X161962100Y-69748400D02*
X175180300Y-56530200D01*
X175180300Y-56530200D02*
X175180300Y-55502500D01*
X175180300Y-55502500D02*
X174572500Y-54894700D01*
X174572500Y-54894700D02*
X172600300Y-54894700D01*
X172600300Y-54894700D02*
X171425000Y-56070000D01*
X149054000Y-69748400D02*
X148754000Y-69748400D01*
X148754000Y-69748400D02*
X144780000Y-69748400D01*
G04 #@! TO.N,G3*
X148799000Y-72288400D02*
X150205200Y-72288400D01*
X148744000Y-72288400D02*
X148799000Y-72288400D01*
X148744000Y-72288400D02*
X148754000Y-72278400D01*
G04 #@! TO.N,G16*
X150126200Y-74838400D02*
X148754000Y-74838400D01*
X180409700Y-94170000D02*
X180409700Y-93802700D01*
X180409700Y-93802700D02*
X161445400Y-74838400D01*
X161445400Y-74838400D02*
X150126200Y-74838400D01*
X181585000Y-94170000D02*
X180409700Y-94170000D01*
G04 #@! TO.N,G21*
X144698700Y-77368400D02*
X144698700Y-76724700D01*
X144698700Y-76724700D02*
X145166300Y-76257100D01*
X146599000Y-77368400D02*
X144698700Y-77368400D01*
X146599000Y-77368400D02*
X148744000Y-77368400D01*
X148744000Y-77368400D02*
X148754000Y-77358400D01*
X148744000Y-77368400D02*
X148799000Y-77368400D01*
G04 #@! TO.N,G2*
X161430400Y-79903400D02*
X175329700Y-93802700D01*
X175329700Y-93802700D02*
X175329700Y-94170000D01*
X176505000Y-94170000D02*
X175329700Y-94170000D01*
X148754000Y-79898400D02*
X148749000Y-79903400D01*
X150317200Y-79903400D02*
X161430400Y-79903400D01*
X148749000Y-79903400D02*
X150317200Y-79903400D01*
G04 #@! TO.N,G12*
X171425000Y-94170000D02*
X170249700Y-94170000D01*
X158885400Y-82438400D02*
X170249700Y-93802700D01*
X170249700Y-93802700D02*
X170249700Y-94170000D01*
X149054000Y-82438400D02*
X148809000Y-82438400D01*
X148809000Y-82438400D02*
X148799000Y-82448400D01*
X148799000Y-82448400D02*
X148744000Y-82448400D01*
X148744000Y-82448400D02*
X148754000Y-82438400D01*
X150418800Y-82438400D02*
X158885400Y-82438400D01*
X149054000Y-82438400D02*
X150418800Y-82438400D01*
G04 #@! TO.N,G15*
X156355400Y-84988400D02*
X165169700Y-93802700D01*
X165169700Y-93802700D02*
X165169700Y-94170000D01*
X166345000Y-94170000D02*
X165169700Y-94170000D01*
X150418800Y-84988400D02*
X156355400Y-84988400D01*
X150418800Y-84988400D02*
X148754000Y-84988400D01*
G04 #@! TO.N,HPWR*
X148754000Y-90078400D02*
X148754000Y-92608400D01*
X148744000Y-90068400D02*
X148754000Y-90078400D01*
X148771500Y-90068400D02*
X148799000Y-90068400D01*
X148744000Y-90068400D02*
X148771500Y-90068400D01*
X148771500Y-87528400D02*
X148744000Y-87528400D01*
X149054000Y-87518400D02*
X148809000Y-87518400D01*
X148809000Y-87518400D02*
X148799000Y-87528400D01*
X148799000Y-87528400D02*
X148771500Y-87528400D01*
X148771500Y-90068400D02*
X148771500Y-87528400D01*
X149054000Y-92608400D02*
X148754000Y-92608400D01*
X148744000Y-87528400D02*
X148754000Y-87518400D01*
X155723400Y-92608400D02*
X156185000Y-93070000D01*
X156185000Y-93070000D02*
X156185000Y-94170000D01*
X148754000Y-92608400D02*
X155723400Y-92608400D01*
G04 #@! TO.N,+BATT*
X139694000Y-92628400D02*
X139694000Y-92618400D01*
X139694000Y-92618400D02*
X139404000Y-92618400D01*
X139404000Y-92618400D02*
X139394000Y-92628400D01*
X139414000Y-92608400D02*
X139394000Y-92628400D01*
X143379300Y-92608400D02*
X139414000Y-92608400D01*
G04 #@! TO.N,+5V*
X139414000Y-90068400D02*
X139394000Y-90048400D01*
X143900500Y-90068400D02*
X139414000Y-90068400D01*
G04 #@! TO.N,G0*
X141849000Y-84988400D02*
X142936500Y-83900900D01*
X142936500Y-83900900D02*
X157807900Y-83900900D01*
X157807900Y-83900900D02*
X167709700Y-93802700D01*
X167709700Y-93802700D02*
X167709700Y-94170000D01*
X168885000Y-94170000D02*
X167709700Y-94170000D01*
X141549000Y-84988400D02*
X141849000Y-84988400D01*
X140564000Y-84988400D02*
X139949000Y-84988400D01*
X139949000Y-84988400D02*
X139939000Y-84998400D01*
X139939000Y-84998400D02*
X139394000Y-84998400D01*
X140564000Y-84988400D02*
X141549000Y-84988400D01*
G04 #@! TO.N,G13*
X141849000Y-82448400D02*
X142969000Y-81328400D01*
X142969000Y-81328400D02*
X160315400Y-81328400D01*
X160315400Y-81328400D02*
X172789700Y-93802700D01*
X172789700Y-93802700D02*
X172789700Y-94170000D01*
X173965000Y-94170000D02*
X172789700Y-94170000D01*
X141699000Y-82448400D02*
X141849000Y-82448400D01*
X139394000Y-82428400D02*
X139929000Y-82428400D01*
X139929000Y-82428400D02*
X139949000Y-82448400D01*
X139949000Y-82448400D02*
X141549000Y-82448400D01*
X141549000Y-82448400D02*
X141699000Y-82448400D01*
X141699000Y-82448400D02*
X141680000Y-82467400D01*
G04 #@! TO.N,G5*
X141849000Y-79908400D02*
X143752900Y-79908400D01*
X141549000Y-79908400D02*
X141849000Y-79908400D01*
X139394000Y-79888400D02*
X139929000Y-79888400D01*
X139929000Y-79888400D02*
X139949000Y-79908400D01*
X139949000Y-79908400D02*
X141549000Y-79908400D01*
X179045000Y-94170000D02*
X177869700Y-94170000D01*
X177869700Y-93802700D02*
X177869700Y-94170000D01*
X162826600Y-78759600D02*
X177869700Y-93802700D01*
X144901700Y-78759600D02*
X162826600Y-78759600D01*
X143752900Y-79908400D02*
X144901700Y-78759600D01*
G04 #@! TO.N,G22*
X140749000Y-77368400D02*
X140739000Y-77378400D01*
X140739000Y-77378400D02*
X140739000Y-78480900D01*
X139394000Y-77358400D02*
X139939000Y-77358400D01*
X139939000Y-77358400D02*
X139949000Y-77368400D01*
X139949000Y-77368400D02*
X140749000Y-77368400D01*
G04 #@! TO.N,G17*
X143449300Y-74828400D02*
X143732400Y-74828400D01*
X141549000Y-74828400D02*
X143449300Y-74828400D01*
X140656000Y-74828400D02*
X141549000Y-74828400D01*
X139394000Y-74838400D02*
X139939000Y-74838400D01*
X139939000Y-74838400D02*
X139949000Y-74828400D01*
X139949000Y-74828400D02*
X140656000Y-74828400D01*
G04 #@! TO.N,G1*
X143449300Y-71157200D02*
X143449300Y-72288400D01*
X167709700Y-56070000D02*
X167709700Y-56437300D01*
X167709700Y-56437300D02*
X158347000Y-65800000D01*
X158347000Y-65800000D02*
X145403200Y-65800000D01*
X145403200Y-65800000D02*
X143967300Y-67235900D01*
X143967300Y-67235900D02*
X143967300Y-70639200D01*
X143967300Y-70639200D02*
X143449300Y-71157200D01*
X168885000Y-56070000D02*
X167709700Y-56070000D01*
X141549000Y-72288400D02*
X143449300Y-72288400D01*
X139694000Y-72278400D02*
X139694000Y-72288400D01*
X139694000Y-72288400D02*
X141549000Y-72288400D01*
X139694000Y-72268400D02*
X139694000Y-72278400D01*
X139694000Y-72278400D02*
X139404000Y-72278400D01*
X139404000Y-72278400D02*
X139394000Y-72268400D01*
G04 #@! TO.N,G26*
X140749000Y-67208400D02*
X141173500Y-66783900D01*
X141173500Y-66783900D02*
X141173500Y-66084400D01*
X139394000Y-67178400D02*
X139919000Y-67178400D01*
X139919000Y-67178400D02*
X139949000Y-67208400D01*
X139949000Y-67208400D02*
X140749000Y-67208400D01*
G04 #@! TO.N,G25*
X141549000Y-64668400D02*
X143725300Y-64668400D01*
X139394000Y-64648400D02*
X139929000Y-64648400D01*
X139929000Y-64648400D02*
X139949000Y-64668400D01*
X139949000Y-64668400D02*
X141549000Y-64668400D01*
G04 #@! TO.N,G36*
X140749000Y-59588400D02*
X141186700Y-59150700D01*
X141186700Y-59150700D02*
X141186700Y-58474900D01*
X141186700Y-58474900D02*
X141186800Y-58474900D01*
X139394000Y-59578400D02*
X139939000Y-59578400D01*
X139939000Y-59578400D02*
X139949000Y-59588400D01*
X139949000Y-59588400D02*
X140749000Y-59588400D01*
G04 #@! TO.N,G35*
X141549000Y-57048400D02*
X143449300Y-57048400D01*
X143449300Y-57048400D02*
X143449300Y-56944000D01*
X143449300Y-56944000D02*
X143742300Y-56651000D01*
X139394000Y-57048400D02*
X141549000Y-57048400D01*
X143742300Y-56651000D02*
X144614900Y-55778400D01*
X182044291Y-53989291D02*
X183275001Y-55220001D01*
X183275001Y-55220001D02*
X184125000Y-56070000D01*
X155980707Y-53989291D02*
X182044291Y-53989291D01*
X154191598Y-55778400D02*
X155980707Y-53989291D01*
X144614900Y-55778400D02*
X154191598Y-55778400D01*
G04 #@! TO.N,+3V3*
X158725000Y-56070000D02*
X157549700Y-56070000D01*
X143449300Y-69748400D02*
X143449300Y-66797700D01*
X143449300Y-66797700D02*
X144556800Y-65690200D01*
X144556800Y-65690200D02*
X144556800Y-64144800D01*
X144556800Y-64144800D02*
X145241000Y-63460600D01*
X145241000Y-63460600D02*
X150967100Y-63460600D01*
X150967100Y-63460600D02*
X157549700Y-56878000D01*
X157549700Y-56878000D02*
X157549700Y-56070000D01*
X139394000Y-69758400D02*
X139939000Y-69758400D01*
X139939000Y-69758400D02*
X139949000Y-69748400D01*
X139949000Y-69748400D02*
X141549000Y-69748400D01*
X143449300Y-69748400D02*
X143242300Y-69748400D01*
X141549000Y-69748400D02*
X143242300Y-69748400D01*
G04 #@! TD*
D16*
G04 #@! TO.N,GND*
G36*
X147643175Y-50847265D02*
X147444569Y-50765000D01*
X146555431Y-50765000D01*
X145733974Y-51105259D01*
X145105259Y-51733974D01*
X144765000Y-52555431D01*
X144765000Y-53444569D01*
X145105259Y-54266026D01*
X145733974Y-54894741D01*
X146032513Y-55018400D01*
X144689748Y-55018400D01*
X144614900Y-55003512D01*
X144540052Y-55018400D01*
X144540048Y-55018400D01*
X144366505Y-55052920D01*
X144318362Y-55062496D01*
X144179616Y-55155204D01*
X144066971Y-55230471D01*
X144024571Y-55293927D01*
X143702498Y-55616000D01*
X143536426Y-55616000D01*
X143156020Y-55773569D01*
X142864869Y-56064720D01*
X142772218Y-56288400D01*
X140591300Y-56288400D01*
X140578320Y-56257063D01*
X140185337Y-55864080D01*
X139671881Y-55651400D01*
X139116119Y-55651400D01*
X138602663Y-55864080D01*
X138209680Y-56257063D01*
X137997000Y-56770519D01*
X137997000Y-57326281D01*
X138209680Y-57839737D01*
X138602663Y-58232720D01*
X138797442Y-58313400D01*
X138602663Y-58394080D01*
X138209680Y-58787063D01*
X137997000Y-59300519D01*
X137997000Y-59856281D01*
X138209680Y-60369737D01*
X138602663Y-60762720D01*
X138718678Y-60810775D01*
X138552815Y-60879478D01*
X138135078Y-61297215D01*
X137909000Y-61843015D01*
X137909000Y-62433785D01*
X138135078Y-62979585D01*
X138552815Y-63397322D01*
X138658323Y-63441025D01*
X138602663Y-63464080D01*
X138209680Y-63857063D01*
X137997000Y-64370519D01*
X137997000Y-64926281D01*
X138209680Y-65439737D01*
X138602663Y-65832720D01*
X138797442Y-65913400D01*
X138602663Y-65994080D01*
X138209680Y-66387063D01*
X137997000Y-66900519D01*
X137997000Y-67456281D01*
X138209680Y-67969737D01*
X138602663Y-68362720D01*
X138857798Y-68468400D01*
X138602663Y-68574080D01*
X138209680Y-68967063D01*
X137997000Y-69480519D01*
X137997000Y-70036281D01*
X138209680Y-70549737D01*
X138602663Y-70942720D01*
X138773300Y-71013400D01*
X138602663Y-71084080D01*
X138209680Y-71477063D01*
X137997000Y-71990519D01*
X137997000Y-72546281D01*
X138209680Y-73059737D01*
X138602663Y-73452720D01*
X138845727Y-73553400D01*
X138602663Y-73654080D01*
X138209680Y-74047063D01*
X137997000Y-74560519D01*
X137997000Y-75116281D01*
X138209680Y-75629737D01*
X138602663Y-76022720D01*
X138785371Y-76098400D01*
X138602663Y-76174080D01*
X138209680Y-76567063D01*
X137997000Y-77080519D01*
X137997000Y-77636281D01*
X138209680Y-78149737D01*
X138602663Y-78542720D01*
X138797442Y-78623400D01*
X138602663Y-78704080D01*
X138209680Y-79097063D01*
X137997000Y-79610519D01*
X137997000Y-80166281D01*
X138209680Y-80679737D01*
X138602663Y-81072720D01*
X138809513Y-81158400D01*
X138602663Y-81244080D01*
X138209680Y-81637063D01*
X137997000Y-82150519D01*
X137997000Y-82706281D01*
X138209680Y-83219737D01*
X138602663Y-83612720D01*
X138845727Y-83713400D01*
X138602663Y-83814080D01*
X138209680Y-84207063D01*
X137997000Y-84720519D01*
X137997000Y-85276281D01*
X138209680Y-85789737D01*
X138602663Y-86182720D01*
X138682465Y-86215775D01*
X138552815Y-86269478D01*
X138135078Y-86687215D01*
X137909000Y-87233015D01*
X137909000Y-87823785D01*
X138135078Y-88369585D01*
X138552815Y-88787322D01*
X138670394Y-88836025D01*
X138602663Y-88864080D01*
X138209680Y-89257063D01*
X137997000Y-89770519D01*
X137997000Y-90326281D01*
X138209680Y-90839737D01*
X138602663Y-91232720D01*
X138857798Y-91338400D01*
X138602663Y-91444080D01*
X138209680Y-91837063D01*
X137997000Y-92350519D01*
X137997000Y-92906281D01*
X138209680Y-93419737D01*
X138602663Y-93812720D01*
X139116119Y-94025400D01*
X139671881Y-94025400D01*
X140185337Y-93812720D01*
X140578320Y-93419737D01*
X140599584Y-93368400D01*
X142675589Y-93368400D01*
X142793020Y-93485831D01*
X143173426Y-93643400D01*
X143585174Y-93643400D01*
X143965580Y-93485831D01*
X144256731Y-93194680D01*
X144414300Y-92814274D01*
X144414300Y-92402526D01*
X144403450Y-92376333D01*
X144688603Y-92258218D01*
X144993818Y-91953003D01*
X145159000Y-91554220D01*
X145159000Y-91122580D01*
X144993818Y-90723797D01*
X144820919Y-90550898D01*
X144935500Y-90274274D01*
X144935500Y-89862526D01*
X144820919Y-89585902D01*
X144993818Y-89413003D01*
X145159000Y-89014220D01*
X145159000Y-88582580D01*
X144993818Y-88183797D01*
X144688603Y-87878582D01*
X144289820Y-87713400D01*
X143858180Y-87713400D01*
X143459397Y-87878582D01*
X143154182Y-88183797D01*
X142989000Y-88582580D01*
X142989000Y-89014220D01*
X143110854Y-89308400D01*
X140599584Y-89308400D01*
X140578320Y-89257063D01*
X140185337Y-88864080D01*
X140117606Y-88836025D01*
X140235185Y-88787322D01*
X140652922Y-88369585D01*
X140879000Y-87823785D01*
X140879000Y-87233015D01*
X140652922Y-86687215D01*
X140235185Y-86269478D01*
X140105535Y-86215775D01*
X140185337Y-86182720D01*
X140578320Y-85789737D01*
X140595442Y-85748400D01*
X141774153Y-85748400D01*
X141849000Y-85763288D01*
X141923847Y-85748400D01*
X141923852Y-85748400D01*
X142145537Y-85704304D01*
X142396929Y-85536329D01*
X142439331Y-85472870D01*
X142976302Y-84935900D01*
X143142374Y-84935900D01*
X143522780Y-84778331D01*
X143640211Y-84660900D01*
X147377553Y-84660900D01*
X147357000Y-84710519D01*
X147357000Y-85266281D01*
X147569680Y-85779737D01*
X147962663Y-86172720D01*
X148042465Y-86205775D01*
X147912815Y-86259478D01*
X147495078Y-86677215D01*
X147269000Y-87223015D01*
X147269000Y-87813785D01*
X147495078Y-88359585D01*
X147912815Y-88777322D01*
X148011500Y-88818199D01*
X148011500Y-88873851D01*
X147962663Y-88894080D01*
X147569680Y-89287063D01*
X147357000Y-89800519D01*
X147357000Y-90356281D01*
X147569680Y-90869737D01*
X147962663Y-91262720D01*
X147994000Y-91275700D01*
X147994001Y-91411100D01*
X147962663Y-91424080D01*
X147569680Y-91817063D01*
X147357000Y-92330519D01*
X147357000Y-92886281D01*
X147569680Y-93399737D01*
X147962663Y-93792720D01*
X148476119Y-94005400D01*
X149031881Y-94005400D01*
X149545337Y-93792720D01*
X149938320Y-93399737D01*
X149951300Y-93368400D01*
X154687560Y-93368400D01*
X154687560Y-95020000D01*
X154736843Y-95267765D01*
X154877191Y-95477809D01*
X155087235Y-95618157D01*
X155335000Y-95667440D01*
X157035000Y-95667440D01*
X157282765Y-95618157D01*
X157492809Y-95477809D01*
X157633157Y-95267765D01*
X157642184Y-95222381D01*
X157654375Y-95240625D01*
X158145582Y-95568839D01*
X158578744Y-95655000D01*
X158871256Y-95655000D01*
X159304418Y-95568839D01*
X159795625Y-95240625D01*
X159995000Y-94942239D01*
X160194375Y-95240625D01*
X160685582Y-95568839D01*
X161118744Y-95655000D01*
X161411256Y-95655000D01*
X161844418Y-95568839D01*
X162335625Y-95240625D01*
X162535000Y-94942239D01*
X162734375Y-95240625D01*
X163225582Y-95568839D01*
X163658744Y-95655000D01*
X163951256Y-95655000D01*
X164384418Y-95568839D01*
X164875625Y-95240625D01*
X165075000Y-94942239D01*
X165274375Y-95240625D01*
X165765582Y-95568839D01*
X166198744Y-95655000D01*
X166491256Y-95655000D01*
X166924418Y-95568839D01*
X167415625Y-95240625D01*
X167615000Y-94942239D01*
X167814375Y-95240625D01*
X168305582Y-95568839D01*
X168738744Y-95655000D01*
X169031256Y-95655000D01*
X169464418Y-95568839D01*
X169955625Y-95240625D01*
X170155000Y-94942239D01*
X170354375Y-95240625D01*
X170845582Y-95568839D01*
X171278744Y-95655000D01*
X171571256Y-95655000D01*
X172004418Y-95568839D01*
X172495625Y-95240625D01*
X172695000Y-94942239D01*
X172894375Y-95240625D01*
X173385582Y-95568839D01*
X173818744Y-95655000D01*
X174111256Y-95655000D01*
X174544418Y-95568839D01*
X175035625Y-95240625D01*
X175235000Y-94942239D01*
X175434375Y-95240625D01*
X175925582Y-95568839D01*
X176358744Y-95655000D01*
X176651256Y-95655000D01*
X177084418Y-95568839D01*
X177575625Y-95240625D01*
X177775000Y-94942239D01*
X177974375Y-95240625D01*
X178465582Y-95568839D01*
X178898744Y-95655000D01*
X179191256Y-95655000D01*
X179624418Y-95568839D01*
X180115625Y-95240625D01*
X180315000Y-94942239D01*
X180514375Y-95240625D01*
X181005582Y-95568839D01*
X181438744Y-95655000D01*
X181731256Y-95655000D01*
X182164418Y-95568839D01*
X182655625Y-95240625D01*
X182855000Y-94942239D01*
X183054375Y-95240625D01*
X183545582Y-95568839D01*
X183978744Y-95655000D01*
X184271256Y-95655000D01*
X184704418Y-95568839D01*
X185195625Y-95240625D01*
X185395000Y-94942239D01*
X185594375Y-95240625D01*
X186085582Y-95568839D01*
X186518744Y-95655000D01*
X186811256Y-95655000D01*
X187244418Y-95568839D01*
X187735625Y-95240625D01*
X187948843Y-94921522D01*
X188009817Y-95051358D01*
X188438076Y-95441645D01*
X188848110Y-95611476D01*
X189078000Y-95490155D01*
X189078000Y-94297000D01*
X189332000Y-94297000D01*
X189332000Y-95490155D01*
X189561890Y-95611476D01*
X189971924Y-95441645D01*
X190400183Y-95051358D01*
X190646486Y-94526892D01*
X190525819Y-94297000D01*
X189332000Y-94297000D01*
X189078000Y-94297000D01*
X189058000Y-94297000D01*
X189058000Y-94043000D01*
X189078000Y-94043000D01*
X189078000Y-92849845D01*
X189332000Y-92849845D01*
X189332000Y-94043000D01*
X190525819Y-94043000D01*
X190646486Y-93813108D01*
X190400183Y-93288642D01*
X189971924Y-92898355D01*
X189561890Y-92728524D01*
X189332000Y-92849845D01*
X189078000Y-92849845D01*
X188848110Y-92728524D01*
X188438076Y-92898355D01*
X188009817Y-93288642D01*
X187948843Y-93418478D01*
X187735625Y-93099375D01*
X187244418Y-92771161D01*
X186811256Y-92685000D01*
X186518744Y-92685000D01*
X186085582Y-92771161D01*
X185594375Y-93099375D01*
X185395000Y-93397761D01*
X185195625Y-93099375D01*
X184704418Y-92771161D01*
X184271256Y-92685000D01*
X183978744Y-92685000D01*
X183545582Y-92771161D01*
X183054375Y-93099375D01*
X182855000Y-93397761D01*
X182655625Y-93099375D01*
X182164418Y-92771161D01*
X181731256Y-92685000D01*
X181438744Y-92685000D01*
X181005582Y-92771161D01*
X180674311Y-92992509D01*
X162035731Y-74353930D01*
X161993329Y-74290471D01*
X161741937Y-74122496D01*
X161520252Y-74078400D01*
X161520247Y-74078400D01*
X161445400Y-74063512D01*
X161370553Y-74078400D01*
X150829911Y-74078400D01*
X150712480Y-73960969D01*
X150332074Y-73803400D01*
X149920326Y-73803400D01*
X149760754Y-73869497D01*
X149545337Y-73654080D01*
X149314345Y-73558400D01*
X149545337Y-73462720D01*
X149776821Y-73231236D01*
X149999326Y-73323400D01*
X150411074Y-73323400D01*
X150791480Y-73165831D01*
X151082631Y-72874680D01*
X151240200Y-72494274D01*
X151240200Y-72082526D01*
X151082631Y-71702120D01*
X150791480Y-71410969D01*
X150411074Y-71253400D01*
X149999326Y-71253400D01*
X149790963Y-71339706D01*
X149545337Y-71094080D01*
X149350558Y-71013400D01*
X149545337Y-70932720D01*
X149938320Y-70539737D01*
X149951300Y-70508400D01*
X161887253Y-70508400D01*
X161962100Y-70523288D01*
X162036947Y-70508400D01*
X162036952Y-70508400D01*
X162258637Y-70464304D01*
X162510029Y-70296329D01*
X162552431Y-70232870D01*
X175560442Y-57224860D01*
X175925582Y-57468839D01*
X176358744Y-57555000D01*
X176651256Y-57555000D01*
X177084418Y-57468839D01*
X177575625Y-57140625D01*
X177775000Y-56842239D01*
X177974375Y-57140625D01*
X178465582Y-57468839D01*
X178898744Y-57555000D01*
X179191256Y-57555000D01*
X179624418Y-57468839D01*
X180115625Y-57140625D01*
X180315000Y-56842239D01*
X180514375Y-57140625D01*
X181005582Y-57468839D01*
X181438744Y-57555000D01*
X181731256Y-57555000D01*
X182164418Y-57468839D01*
X182655625Y-57140625D01*
X182855000Y-56842239D01*
X183054375Y-57140625D01*
X183545582Y-57468839D01*
X183978744Y-57555000D01*
X184271256Y-57555000D01*
X184704418Y-57468839D01*
X185195625Y-57140625D01*
X185395000Y-56842239D01*
X185594375Y-57140625D01*
X186085582Y-57468839D01*
X186518744Y-57555000D01*
X186811256Y-57555000D01*
X187244418Y-57468839D01*
X187735625Y-57140625D01*
X187935000Y-56842239D01*
X188134375Y-57140625D01*
X188625582Y-57468839D01*
X189058744Y-57555000D01*
X189351256Y-57555000D01*
X189784418Y-57468839D01*
X190275625Y-57140625D01*
X190603839Y-56649418D01*
X190719092Y-56070000D01*
X190603839Y-55490582D01*
X190275625Y-54999375D01*
X189784418Y-54671161D01*
X189351256Y-54585000D01*
X189058744Y-54585000D01*
X188625582Y-54671161D01*
X188134375Y-54999375D01*
X187935000Y-55297761D01*
X187735625Y-54999375D01*
X187244418Y-54671161D01*
X186811256Y-54585000D01*
X186518744Y-54585000D01*
X186085582Y-54671161D01*
X185594375Y-54999375D01*
X185395000Y-55297761D01*
X185195625Y-54999375D01*
X184704418Y-54671161D01*
X184271256Y-54585000D01*
X183978744Y-54585000D01*
X183758593Y-54628791D01*
X182634622Y-53504821D01*
X182592220Y-53441362D01*
X182340828Y-53273387D01*
X182119143Y-53229291D01*
X182119138Y-53229291D01*
X182044291Y-53214403D01*
X181969444Y-53229291D01*
X156055553Y-53229291D01*
X155980706Y-53214403D01*
X155905859Y-53229291D01*
X155905855Y-53229291D01*
X155684170Y-53273387D01*
X155432778Y-53441362D01*
X155390378Y-53504818D01*
X153876797Y-55018400D01*
X147967487Y-55018400D01*
X148266026Y-54894741D01*
X148894741Y-54266026D01*
X149235000Y-53444569D01*
X149235000Y-52555431D01*
X149152736Y-52356827D01*
X149448510Y-52652602D01*
X149488119Y-52711881D01*
X149547398Y-52751490D01*
X149547399Y-52751491D01*
X149722971Y-52868805D01*
X150000000Y-52923909D01*
X150069926Y-52910000D01*
X152930076Y-52910000D01*
X153000000Y-52923909D01*
X153069924Y-52910000D01*
X153069926Y-52910000D01*
X153277028Y-52868805D01*
X153511881Y-52711881D01*
X153551494Y-52652596D01*
X155494092Y-50710000D01*
X197505910Y-50710000D01*
X197643175Y-50847265D01*
X197444569Y-50765000D01*
X196555431Y-50765000D01*
X195733974Y-51105259D01*
X195105259Y-51733974D01*
X194765000Y-52555431D01*
X194765000Y-53444569D01*
X195105259Y-54266026D01*
X195733974Y-54894741D01*
X196555431Y-55235000D01*
X197444569Y-55235000D01*
X198266026Y-54894741D01*
X198894741Y-54266026D01*
X199235000Y-53444569D01*
X199235000Y-52555431D01*
X199152736Y-52356827D01*
X199290000Y-52494092D01*
X199290001Y-97505907D01*
X199152736Y-97643173D01*
X199235000Y-97444569D01*
X199235000Y-96555431D01*
X198894741Y-95733974D01*
X198266026Y-95105259D01*
X197444569Y-94765000D01*
X196555431Y-94765000D01*
X195733974Y-95105259D01*
X195105259Y-95733974D01*
X194765000Y-96555431D01*
X194765000Y-97444569D01*
X195105259Y-98266026D01*
X195733974Y-98894741D01*
X196555431Y-99235000D01*
X197444569Y-99235000D01*
X197643175Y-99152735D01*
X197505910Y-99290000D01*
X155494092Y-99290000D01*
X153551494Y-97347404D01*
X153511881Y-97288119D01*
X153277028Y-97131195D01*
X153069926Y-97090000D01*
X153069924Y-97090000D01*
X153000000Y-97076091D01*
X152930076Y-97090000D01*
X150069926Y-97090000D01*
X150000000Y-97076091D01*
X149722971Y-97131195D01*
X149547399Y-97248509D01*
X149488119Y-97288119D01*
X149448510Y-97347398D01*
X149152736Y-97643173D01*
X149235000Y-97444569D01*
X149235000Y-96555431D01*
X148894741Y-95733974D01*
X148266026Y-95105259D01*
X147444569Y-94765000D01*
X146555431Y-94765000D01*
X145733974Y-95105259D01*
X145105259Y-95733974D01*
X144765000Y-96555431D01*
X144765000Y-97444569D01*
X145105259Y-98266026D01*
X145733974Y-98894741D01*
X146555431Y-99235000D01*
X147444569Y-99235000D01*
X147643175Y-99152735D01*
X147505910Y-99290000D01*
X102494092Y-99290000D01*
X102356827Y-99152736D01*
X102555431Y-99235000D01*
X103444569Y-99235000D01*
X104266026Y-98894741D01*
X104894741Y-98266026D01*
X105235000Y-97444569D01*
X105235000Y-96654887D01*
X105265000Y-96654887D01*
X105265000Y-97345113D01*
X105529138Y-97982799D01*
X106017201Y-98470862D01*
X106654887Y-98735000D01*
X107345113Y-98735000D01*
X107982799Y-98470862D01*
X108470862Y-97982799D01*
X108735000Y-97345113D01*
X108735000Y-96654887D01*
X141265000Y-96654887D01*
X141265000Y-97345113D01*
X141529138Y-97982799D01*
X142017201Y-98470862D01*
X142654887Y-98735000D01*
X143345113Y-98735000D01*
X143982799Y-98470862D01*
X144470862Y-97982799D01*
X144735000Y-97345113D01*
X144735000Y-96654887D01*
X144470862Y-96017201D01*
X143982799Y-95529138D01*
X143345113Y-95265000D01*
X142654887Y-95265000D01*
X142017201Y-95529138D01*
X141529138Y-96017201D01*
X141265000Y-96654887D01*
X108735000Y-96654887D01*
X108470862Y-96017201D01*
X107982799Y-95529138D01*
X107345113Y-95265000D01*
X106654887Y-95265000D01*
X106017201Y-95529138D01*
X105529138Y-96017201D01*
X105265000Y-96654887D01*
X105235000Y-96654887D01*
X105235000Y-96555431D01*
X104894741Y-95733974D01*
X104266026Y-95105259D01*
X103444569Y-94765000D01*
X102555431Y-94765000D01*
X101733974Y-95105259D01*
X101105259Y-95733974D01*
X100765000Y-96555431D01*
X100765000Y-97444569D01*
X100847265Y-97643175D01*
X100710000Y-97505910D01*
X100710000Y-52494090D01*
X100847265Y-52356825D01*
X100765000Y-52555431D01*
X100765000Y-53444569D01*
X101105259Y-54266026D01*
X101733974Y-54894741D01*
X102555431Y-55235000D01*
X103444569Y-55235000D01*
X104266026Y-54894741D01*
X104894741Y-54266026D01*
X105235000Y-53444569D01*
X105235000Y-52654887D01*
X105265000Y-52654887D01*
X105265000Y-53345113D01*
X105529138Y-53982799D01*
X106017201Y-54470862D01*
X106654887Y-54735000D01*
X107345113Y-54735000D01*
X107982799Y-54470862D01*
X108470862Y-53982799D01*
X108735000Y-53345113D01*
X108735000Y-52654887D01*
X141265000Y-52654887D01*
X141265000Y-53345113D01*
X141529138Y-53982799D01*
X142017201Y-54470862D01*
X142654887Y-54735000D01*
X143345113Y-54735000D01*
X143982799Y-54470862D01*
X144470862Y-53982799D01*
X144735000Y-53345113D01*
X144735000Y-52654887D01*
X144470862Y-52017201D01*
X143982799Y-51529138D01*
X143345113Y-51265000D01*
X142654887Y-51265000D01*
X142017201Y-51529138D01*
X141529138Y-52017201D01*
X141265000Y-52654887D01*
X108735000Y-52654887D01*
X108470862Y-52017201D01*
X107982799Y-51529138D01*
X107345113Y-51265000D01*
X106654887Y-51265000D01*
X106017201Y-51529138D01*
X105529138Y-52017201D01*
X105265000Y-52654887D01*
X105235000Y-52654887D01*
X105235000Y-52555431D01*
X104894741Y-51733974D01*
X104266026Y-51105259D01*
X103444569Y-50765000D01*
X102555431Y-50765000D01*
X102356827Y-50847264D01*
X102494092Y-50710000D01*
X147505910Y-50710000D01*
X147643175Y-50847265D01*
X147643175Y-50847265D01*
G37*
X147643175Y-50847265D02*
X147444569Y-50765000D01*
X146555431Y-50765000D01*
X145733974Y-51105259D01*
X145105259Y-51733974D01*
X144765000Y-52555431D01*
X144765000Y-53444569D01*
X145105259Y-54266026D01*
X145733974Y-54894741D01*
X146032513Y-55018400D01*
X144689748Y-55018400D01*
X144614900Y-55003512D01*
X144540052Y-55018400D01*
X144540048Y-55018400D01*
X144366505Y-55052920D01*
X144318362Y-55062496D01*
X144179616Y-55155204D01*
X144066971Y-55230471D01*
X144024571Y-55293927D01*
X143702498Y-55616000D01*
X143536426Y-55616000D01*
X143156020Y-55773569D01*
X142864869Y-56064720D01*
X142772218Y-56288400D01*
X140591300Y-56288400D01*
X140578320Y-56257063D01*
X140185337Y-55864080D01*
X139671881Y-55651400D01*
X139116119Y-55651400D01*
X138602663Y-55864080D01*
X138209680Y-56257063D01*
X137997000Y-56770519D01*
X137997000Y-57326281D01*
X138209680Y-57839737D01*
X138602663Y-58232720D01*
X138797442Y-58313400D01*
X138602663Y-58394080D01*
X138209680Y-58787063D01*
X137997000Y-59300519D01*
X137997000Y-59856281D01*
X138209680Y-60369737D01*
X138602663Y-60762720D01*
X138718678Y-60810775D01*
X138552815Y-60879478D01*
X138135078Y-61297215D01*
X137909000Y-61843015D01*
X137909000Y-62433785D01*
X138135078Y-62979585D01*
X138552815Y-63397322D01*
X138658323Y-63441025D01*
X138602663Y-63464080D01*
X138209680Y-63857063D01*
X137997000Y-64370519D01*
X137997000Y-64926281D01*
X138209680Y-65439737D01*
X138602663Y-65832720D01*
X138797442Y-65913400D01*
X138602663Y-65994080D01*
X138209680Y-66387063D01*
X137997000Y-66900519D01*
X137997000Y-67456281D01*
X138209680Y-67969737D01*
X138602663Y-68362720D01*
X138857798Y-68468400D01*
X138602663Y-68574080D01*
X138209680Y-68967063D01*
X137997000Y-69480519D01*
X137997000Y-70036281D01*
X138209680Y-70549737D01*
X138602663Y-70942720D01*
X138773300Y-71013400D01*
X138602663Y-71084080D01*
X138209680Y-71477063D01*
X137997000Y-71990519D01*
X137997000Y-72546281D01*
X138209680Y-73059737D01*
X138602663Y-73452720D01*
X138845727Y-73553400D01*
X138602663Y-73654080D01*
X138209680Y-74047063D01*
X137997000Y-74560519D01*
X137997000Y-75116281D01*
X138209680Y-75629737D01*
X138602663Y-76022720D01*
X138785371Y-76098400D01*
X138602663Y-76174080D01*
X138209680Y-76567063D01*
X137997000Y-77080519D01*
X137997000Y-77636281D01*
X138209680Y-78149737D01*
X138602663Y-78542720D01*
X138797442Y-78623400D01*
X138602663Y-78704080D01*
X138209680Y-79097063D01*
X137997000Y-79610519D01*
X137997000Y-80166281D01*
X138209680Y-80679737D01*
X138602663Y-81072720D01*
X138809513Y-81158400D01*
X138602663Y-81244080D01*
X138209680Y-81637063D01*
X137997000Y-82150519D01*
X137997000Y-82706281D01*
X138209680Y-83219737D01*
X138602663Y-83612720D01*
X138845727Y-83713400D01*
X138602663Y-83814080D01*
X138209680Y-84207063D01*
X137997000Y-84720519D01*
X137997000Y-85276281D01*
X138209680Y-85789737D01*
X138602663Y-86182720D01*
X138682465Y-86215775D01*
X138552815Y-86269478D01*
X138135078Y-86687215D01*
X137909000Y-87233015D01*
X137909000Y-87823785D01*
X138135078Y-88369585D01*
X138552815Y-88787322D01*
X138670394Y-88836025D01*
X138602663Y-88864080D01*
X138209680Y-89257063D01*
X137997000Y-89770519D01*
X137997000Y-90326281D01*
X138209680Y-90839737D01*
X138602663Y-91232720D01*
X138857798Y-91338400D01*
X138602663Y-91444080D01*
X138209680Y-91837063D01*
X137997000Y-92350519D01*
X137997000Y-92906281D01*
X138209680Y-93419737D01*
X138602663Y-93812720D01*
X139116119Y-94025400D01*
X139671881Y-94025400D01*
X140185337Y-93812720D01*
X140578320Y-93419737D01*
X140599584Y-93368400D01*
X142675589Y-93368400D01*
X142793020Y-93485831D01*
X143173426Y-93643400D01*
X143585174Y-93643400D01*
X143965580Y-93485831D01*
X144256731Y-93194680D01*
X144414300Y-92814274D01*
X144414300Y-92402526D01*
X144403450Y-92376333D01*
X144688603Y-92258218D01*
X144993818Y-91953003D01*
X145159000Y-91554220D01*
X145159000Y-91122580D01*
X144993818Y-90723797D01*
X144820919Y-90550898D01*
X144935500Y-90274274D01*
X144935500Y-89862526D01*
X144820919Y-89585902D01*
X144993818Y-89413003D01*
X145159000Y-89014220D01*
X145159000Y-88582580D01*
X144993818Y-88183797D01*
X144688603Y-87878582D01*
X144289820Y-87713400D01*
X143858180Y-87713400D01*
X143459397Y-87878582D01*
X143154182Y-88183797D01*
X142989000Y-88582580D01*
X142989000Y-89014220D01*
X143110854Y-89308400D01*
X140599584Y-89308400D01*
X140578320Y-89257063D01*
X140185337Y-88864080D01*
X140117606Y-88836025D01*
X140235185Y-88787322D01*
X140652922Y-88369585D01*
X140879000Y-87823785D01*
X140879000Y-87233015D01*
X140652922Y-86687215D01*
X140235185Y-86269478D01*
X140105535Y-86215775D01*
X140185337Y-86182720D01*
X140578320Y-85789737D01*
X140595442Y-85748400D01*
X141774153Y-85748400D01*
X141849000Y-85763288D01*
X141923847Y-85748400D01*
X141923852Y-85748400D01*
X142145537Y-85704304D01*
X142396929Y-85536329D01*
X142439331Y-85472870D01*
X142976302Y-84935900D01*
X143142374Y-84935900D01*
X143522780Y-84778331D01*
X143640211Y-84660900D01*
X147377553Y-84660900D01*
X147357000Y-84710519D01*
X147357000Y-85266281D01*
X147569680Y-85779737D01*
X147962663Y-86172720D01*
X148042465Y-86205775D01*
X147912815Y-86259478D01*
X147495078Y-86677215D01*
X147269000Y-87223015D01*
X147269000Y-87813785D01*
X147495078Y-88359585D01*
X147912815Y-88777322D01*
X148011500Y-88818199D01*
X148011500Y-88873851D01*
X147962663Y-88894080D01*
X147569680Y-89287063D01*
X147357000Y-89800519D01*
X147357000Y-90356281D01*
X147569680Y-90869737D01*
X147962663Y-91262720D01*
X147994000Y-91275700D01*
X147994001Y-91411100D01*
X147962663Y-91424080D01*
X147569680Y-91817063D01*
X147357000Y-92330519D01*
X147357000Y-92886281D01*
X147569680Y-93399737D01*
X147962663Y-93792720D01*
X148476119Y-94005400D01*
X149031881Y-94005400D01*
X149545337Y-93792720D01*
X149938320Y-93399737D01*
X149951300Y-93368400D01*
X154687560Y-93368400D01*
X154687560Y-95020000D01*
X154736843Y-95267765D01*
X154877191Y-95477809D01*
X155087235Y-95618157D01*
X155335000Y-95667440D01*
X157035000Y-95667440D01*
X157282765Y-95618157D01*
X157492809Y-95477809D01*
X157633157Y-95267765D01*
X157642184Y-95222381D01*
X157654375Y-95240625D01*
X158145582Y-95568839D01*
X158578744Y-95655000D01*
X158871256Y-95655000D01*
X159304418Y-95568839D01*
X159795625Y-95240625D01*
X159995000Y-94942239D01*
X160194375Y-95240625D01*
X160685582Y-95568839D01*
X161118744Y-95655000D01*
X161411256Y-95655000D01*
X161844418Y-95568839D01*
X162335625Y-95240625D01*
X162535000Y-94942239D01*
X162734375Y-95240625D01*
X163225582Y-95568839D01*
X163658744Y-95655000D01*
X163951256Y-95655000D01*
X164384418Y-95568839D01*
X164875625Y-95240625D01*
X165075000Y-94942239D01*
X165274375Y-95240625D01*
X165765582Y-95568839D01*
X166198744Y-95655000D01*
X166491256Y-95655000D01*
X166924418Y-95568839D01*
X167415625Y-95240625D01*
X167615000Y-94942239D01*
X167814375Y-95240625D01*
X168305582Y-95568839D01*
X168738744Y-95655000D01*
X169031256Y-95655000D01*
X169464418Y-95568839D01*
X169955625Y-95240625D01*
X170155000Y-94942239D01*
X170354375Y-95240625D01*
X170845582Y-95568839D01*
X171278744Y-95655000D01*
X171571256Y-95655000D01*
X172004418Y-95568839D01*
X172495625Y-95240625D01*
X172695000Y-94942239D01*
X172894375Y-95240625D01*
X173385582Y-95568839D01*
X173818744Y-95655000D01*
X174111256Y-95655000D01*
X174544418Y-95568839D01*
X175035625Y-95240625D01*
X175235000Y-94942239D01*
X175434375Y-95240625D01*
X175925582Y-95568839D01*
X176358744Y-95655000D01*
X176651256Y-95655000D01*
X177084418Y-95568839D01*
X177575625Y-95240625D01*
X177775000Y-94942239D01*
X177974375Y-95240625D01*
X178465582Y-95568839D01*
X178898744Y-95655000D01*
X179191256Y-95655000D01*
X179624418Y-95568839D01*
X180115625Y-95240625D01*
X180315000Y-94942239D01*
X180514375Y-95240625D01*
X181005582Y-95568839D01*
X181438744Y-95655000D01*
X181731256Y-95655000D01*
X182164418Y-95568839D01*
X182655625Y-95240625D01*
X182855000Y-94942239D01*
X183054375Y-95240625D01*
X183545582Y-95568839D01*
X183978744Y-95655000D01*
X184271256Y-95655000D01*
X184704418Y-95568839D01*
X185195625Y-95240625D01*
X185395000Y-94942239D01*
X185594375Y-95240625D01*
X186085582Y-95568839D01*
X186518744Y-95655000D01*
X186811256Y-95655000D01*
X187244418Y-95568839D01*
X187735625Y-95240625D01*
X187948843Y-94921522D01*
X188009817Y-95051358D01*
X188438076Y-95441645D01*
X188848110Y-95611476D01*
X189078000Y-95490155D01*
X189078000Y-94297000D01*
X189332000Y-94297000D01*
X189332000Y-95490155D01*
X189561890Y-95611476D01*
X189971924Y-95441645D01*
X190400183Y-95051358D01*
X190646486Y-94526892D01*
X190525819Y-94297000D01*
X189332000Y-94297000D01*
X189078000Y-94297000D01*
X189058000Y-94297000D01*
X189058000Y-94043000D01*
X189078000Y-94043000D01*
X189078000Y-92849845D01*
X189332000Y-92849845D01*
X189332000Y-94043000D01*
X190525819Y-94043000D01*
X190646486Y-93813108D01*
X190400183Y-93288642D01*
X189971924Y-92898355D01*
X189561890Y-92728524D01*
X189332000Y-92849845D01*
X189078000Y-92849845D01*
X188848110Y-92728524D01*
X188438076Y-92898355D01*
X188009817Y-93288642D01*
X187948843Y-93418478D01*
X187735625Y-93099375D01*
X187244418Y-92771161D01*
X186811256Y-92685000D01*
X186518744Y-92685000D01*
X186085582Y-92771161D01*
X185594375Y-93099375D01*
X185395000Y-93397761D01*
X185195625Y-93099375D01*
X184704418Y-92771161D01*
X184271256Y-92685000D01*
X183978744Y-92685000D01*
X183545582Y-92771161D01*
X183054375Y-93099375D01*
X182855000Y-93397761D01*
X182655625Y-93099375D01*
X182164418Y-92771161D01*
X181731256Y-92685000D01*
X181438744Y-92685000D01*
X181005582Y-92771161D01*
X180674311Y-92992509D01*
X162035731Y-74353930D01*
X161993329Y-74290471D01*
X161741937Y-74122496D01*
X161520252Y-74078400D01*
X161520247Y-74078400D01*
X161445400Y-74063512D01*
X161370553Y-74078400D01*
X150829911Y-74078400D01*
X150712480Y-73960969D01*
X150332074Y-73803400D01*
X149920326Y-73803400D01*
X149760754Y-73869497D01*
X149545337Y-73654080D01*
X149314345Y-73558400D01*
X149545337Y-73462720D01*
X149776821Y-73231236D01*
X149999326Y-73323400D01*
X150411074Y-73323400D01*
X150791480Y-73165831D01*
X151082631Y-72874680D01*
X151240200Y-72494274D01*
X151240200Y-72082526D01*
X151082631Y-71702120D01*
X150791480Y-71410969D01*
X150411074Y-71253400D01*
X149999326Y-71253400D01*
X149790963Y-71339706D01*
X149545337Y-71094080D01*
X149350558Y-71013400D01*
X149545337Y-70932720D01*
X149938320Y-70539737D01*
X149951300Y-70508400D01*
X161887253Y-70508400D01*
X161962100Y-70523288D01*
X162036947Y-70508400D01*
X162036952Y-70508400D01*
X162258637Y-70464304D01*
X162510029Y-70296329D01*
X162552431Y-70232870D01*
X175560442Y-57224860D01*
X175925582Y-57468839D01*
X176358744Y-57555000D01*
X176651256Y-57555000D01*
X177084418Y-57468839D01*
X177575625Y-57140625D01*
X177775000Y-56842239D01*
X177974375Y-57140625D01*
X178465582Y-57468839D01*
X178898744Y-57555000D01*
X179191256Y-57555000D01*
X179624418Y-57468839D01*
X180115625Y-57140625D01*
X180315000Y-56842239D01*
X180514375Y-57140625D01*
X181005582Y-57468839D01*
X181438744Y-57555000D01*
X181731256Y-57555000D01*
X182164418Y-57468839D01*
X182655625Y-57140625D01*
X182855000Y-56842239D01*
X183054375Y-57140625D01*
X183545582Y-57468839D01*
X183978744Y-57555000D01*
X184271256Y-57555000D01*
X184704418Y-57468839D01*
X185195625Y-57140625D01*
X185395000Y-56842239D01*
X185594375Y-57140625D01*
X186085582Y-57468839D01*
X186518744Y-57555000D01*
X186811256Y-57555000D01*
X187244418Y-57468839D01*
X187735625Y-57140625D01*
X187935000Y-56842239D01*
X188134375Y-57140625D01*
X188625582Y-57468839D01*
X189058744Y-57555000D01*
X189351256Y-57555000D01*
X189784418Y-57468839D01*
X190275625Y-57140625D01*
X190603839Y-56649418D01*
X190719092Y-56070000D01*
X190603839Y-55490582D01*
X190275625Y-54999375D01*
X189784418Y-54671161D01*
X189351256Y-54585000D01*
X189058744Y-54585000D01*
X188625582Y-54671161D01*
X188134375Y-54999375D01*
X187935000Y-55297761D01*
X187735625Y-54999375D01*
X187244418Y-54671161D01*
X186811256Y-54585000D01*
X186518744Y-54585000D01*
X186085582Y-54671161D01*
X185594375Y-54999375D01*
X185395000Y-55297761D01*
X185195625Y-54999375D01*
X184704418Y-54671161D01*
X184271256Y-54585000D01*
X183978744Y-54585000D01*
X183758593Y-54628791D01*
X182634622Y-53504821D01*
X182592220Y-53441362D01*
X182340828Y-53273387D01*
X182119143Y-53229291D01*
X182119138Y-53229291D01*
X182044291Y-53214403D01*
X181969444Y-53229291D01*
X156055553Y-53229291D01*
X155980706Y-53214403D01*
X155905859Y-53229291D01*
X155905855Y-53229291D01*
X155684170Y-53273387D01*
X155432778Y-53441362D01*
X155390378Y-53504818D01*
X153876797Y-55018400D01*
X147967487Y-55018400D01*
X148266026Y-54894741D01*
X148894741Y-54266026D01*
X149235000Y-53444569D01*
X149235000Y-52555431D01*
X149152736Y-52356827D01*
X149448510Y-52652602D01*
X149488119Y-52711881D01*
X149547398Y-52751490D01*
X149547399Y-52751491D01*
X149722971Y-52868805D01*
X150000000Y-52923909D01*
X150069926Y-52910000D01*
X152930076Y-52910000D01*
X153000000Y-52923909D01*
X153069924Y-52910000D01*
X153069926Y-52910000D01*
X153277028Y-52868805D01*
X153511881Y-52711881D01*
X153551494Y-52652596D01*
X155494092Y-50710000D01*
X197505910Y-50710000D01*
X197643175Y-50847265D01*
X197444569Y-50765000D01*
X196555431Y-50765000D01*
X195733974Y-51105259D01*
X195105259Y-51733974D01*
X194765000Y-52555431D01*
X194765000Y-53444569D01*
X195105259Y-54266026D01*
X195733974Y-54894741D01*
X196555431Y-55235000D01*
X197444569Y-55235000D01*
X198266026Y-54894741D01*
X198894741Y-54266026D01*
X199235000Y-53444569D01*
X199235000Y-52555431D01*
X199152736Y-52356827D01*
X199290000Y-52494092D01*
X199290001Y-97505907D01*
X199152736Y-97643173D01*
X199235000Y-97444569D01*
X199235000Y-96555431D01*
X198894741Y-95733974D01*
X198266026Y-95105259D01*
X197444569Y-94765000D01*
X196555431Y-94765000D01*
X195733974Y-95105259D01*
X195105259Y-95733974D01*
X194765000Y-96555431D01*
X194765000Y-97444569D01*
X195105259Y-98266026D01*
X195733974Y-98894741D01*
X196555431Y-99235000D01*
X197444569Y-99235000D01*
X197643175Y-99152735D01*
X197505910Y-99290000D01*
X155494092Y-99290000D01*
X153551494Y-97347404D01*
X153511881Y-97288119D01*
X153277028Y-97131195D01*
X153069926Y-97090000D01*
X153069924Y-97090000D01*
X153000000Y-97076091D01*
X152930076Y-97090000D01*
X150069926Y-97090000D01*
X150000000Y-97076091D01*
X149722971Y-97131195D01*
X149547399Y-97248509D01*
X149488119Y-97288119D01*
X149448510Y-97347398D01*
X149152736Y-97643173D01*
X149235000Y-97444569D01*
X149235000Y-96555431D01*
X148894741Y-95733974D01*
X148266026Y-95105259D01*
X147444569Y-94765000D01*
X146555431Y-94765000D01*
X145733974Y-95105259D01*
X145105259Y-95733974D01*
X144765000Y-96555431D01*
X144765000Y-97444569D01*
X145105259Y-98266026D01*
X145733974Y-98894741D01*
X146555431Y-99235000D01*
X147444569Y-99235000D01*
X147643175Y-99152735D01*
X147505910Y-99290000D01*
X102494092Y-99290000D01*
X102356827Y-99152736D01*
X102555431Y-99235000D01*
X103444569Y-99235000D01*
X104266026Y-98894741D01*
X104894741Y-98266026D01*
X105235000Y-97444569D01*
X105235000Y-96654887D01*
X105265000Y-96654887D01*
X105265000Y-97345113D01*
X105529138Y-97982799D01*
X106017201Y-98470862D01*
X106654887Y-98735000D01*
X107345113Y-98735000D01*
X107982799Y-98470862D01*
X108470862Y-97982799D01*
X108735000Y-97345113D01*
X108735000Y-96654887D01*
X141265000Y-96654887D01*
X141265000Y-97345113D01*
X141529138Y-97982799D01*
X142017201Y-98470862D01*
X142654887Y-98735000D01*
X143345113Y-98735000D01*
X143982799Y-98470862D01*
X144470862Y-97982799D01*
X144735000Y-97345113D01*
X144735000Y-96654887D01*
X144470862Y-96017201D01*
X143982799Y-95529138D01*
X143345113Y-95265000D01*
X142654887Y-95265000D01*
X142017201Y-95529138D01*
X141529138Y-96017201D01*
X141265000Y-96654887D01*
X108735000Y-96654887D01*
X108470862Y-96017201D01*
X107982799Y-95529138D01*
X107345113Y-95265000D01*
X106654887Y-95265000D01*
X106017201Y-95529138D01*
X105529138Y-96017201D01*
X105265000Y-96654887D01*
X105235000Y-96654887D01*
X105235000Y-96555431D01*
X104894741Y-95733974D01*
X104266026Y-95105259D01*
X103444569Y-94765000D01*
X102555431Y-94765000D01*
X101733974Y-95105259D01*
X101105259Y-95733974D01*
X100765000Y-96555431D01*
X100765000Y-97444569D01*
X100847265Y-97643175D01*
X100710000Y-97505910D01*
X100710000Y-52494090D01*
X100847265Y-52356825D01*
X100765000Y-52555431D01*
X100765000Y-53444569D01*
X101105259Y-54266026D01*
X101733974Y-54894741D01*
X102555431Y-55235000D01*
X103444569Y-55235000D01*
X104266026Y-54894741D01*
X104894741Y-54266026D01*
X105235000Y-53444569D01*
X105235000Y-52654887D01*
X105265000Y-52654887D01*
X105265000Y-53345113D01*
X105529138Y-53982799D01*
X106017201Y-54470862D01*
X106654887Y-54735000D01*
X107345113Y-54735000D01*
X107982799Y-54470862D01*
X108470862Y-53982799D01*
X108735000Y-53345113D01*
X108735000Y-52654887D01*
X141265000Y-52654887D01*
X141265000Y-53345113D01*
X141529138Y-53982799D01*
X142017201Y-54470862D01*
X142654887Y-54735000D01*
X143345113Y-54735000D01*
X143982799Y-54470862D01*
X144470862Y-53982799D01*
X144735000Y-53345113D01*
X144735000Y-52654887D01*
X144470862Y-52017201D01*
X143982799Y-51529138D01*
X143345113Y-51265000D01*
X142654887Y-51265000D01*
X142017201Y-51529138D01*
X141529138Y-52017201D01*
X141265000Y-52654887D01*
X108735000Y-52654887D01*
X108470862Y-52017201D01*
X107982799Y-51529138D01*
X107345113Y-51265000D01*
X106654887Y-51265000D01*
X106017201Y-51529138D01*
X105529138Y-52017201D01*
X105265000Y-52654887D01*
X105235000Y-52654887D01*
X105235000Y-52555431D01*
X104894741Y-51733974D01*
X104266026Y-51105259D01*
X103444569Y-50765000D01*
X102555431Y-50765000D01*
X102356827Y-50847264D01*
X102494092Y-50710000D01*
X147505910Y-50710000D01*
X147643175Y-50847265D01*
G36*
X163128337Y-92836138D02*
X162734375Y-93099375D01*
X162535000Y-93397761D01*
X162335625Y-93099375D01*
X161844418Y-92771161D01*
X161411256Y-92685000D01*
X161118744Y-92685000D01*
X160685582Y-92771161D01*
X160194375Y-93099375D01*
X159995000Y-93397761D01*
X159795625Y-93099375D01*
X159304418Y-92771161D01*
X158871256Y-92685000D01*
X158578744Y-92685000D01*
X158145582Y-92771161D01*
X157654375Y-93099375D01*
X157642184Y-93117619D01*
X157633157Y-93072235D01*
X157492809Y-92862191D01*
X157282765Y-92721843D01*
X157035000Y-92672560D01*
X156833483Y-92672560D01*
X156732929Y-92522071D01*
X156669470Y-92479669D01*
X156313731Y-92123930D01*
X156271329Y-92060471D01*
X156019937Y-91892496D01*
X155798252Y-91848400D01*
X155798247Y-91848400D01*
X155723400Y-91833512D01*
X155648553Y-91848400D01*
X149951300Y-91848400D01*
X149938320Y-91817063D01*
X149545337Y-91424080D01*
X149514000Y-91411100D01*
X149514000Y-91275700D01*
X149545337Y-91262720D01*
X149938320Y-90869737D01*
X150151000Y-90356281D01*
X150151000Y-89800519D01*
X149938320Y-89287063D01*
X149545337Y-88894080D01*
X149531500Y-88888349D01*
X149531500Y-88803701D01*
X149595185Y-88777322D01*
X150012922Y-88359585D01*
X150239000Y-87813785D01*
X150239000Y-87223015D01*
X150012922Y-86677215D01*
X149595185Y-86259478D01*
X149465535Y-86205775D01*
X149545337Y-86172720D01*
X149846454Y-85871603D01*
X150212926Y-86023400D01*
X150624674Y-86023400D01*
X151005080Y-85865831D01*
X151122511Y-85748400D01*
X156040599Y-85748400D01*
X163128337Y-92836138D01*
X163128337Y-92836138D01*
G37*
X163128337Y-92836138D02*
X162734375Y-93099375D01*
X162535000Y-93397761D01*
X162335625Y-93099375D01*
X161844418Y-92771161D01*
X161411256Y-92685000D01*
X161118744Y-92685000D01*
X160685582Y-92771161D01*
X160194375Y-93099375D01*
X159995000Y-93397761D01*
X159795625Y-93099375D01*
X159304418Y-92771161D01*
X158871256Y-92685000D01*
X158578744Y-92685000D01*
X158145582Y-92771161D01*
X157654375Y-93099375D01*
X157642184Y-93117619D01*
X157633157Y-93072235D01*
X157492809Y-92862191D01*
X157282765Y-92721843D01*
X157035000Y-92672560D01*
X156833483Y-92672560D01*
X156732929Y-92522071D01*
X156669470Y-92479669D01*
X156313731Y-92123930D01*
X156271329Y-92060471D01*
X156019937Y-91892496D01*
X155798252Y-91848400D01*
X155798247Y-91848400D01*
X155723400Y-91833512D01*
X155648553Y-91848400D01*
X149951300Y-91848400D01*
X149938320Y-91817063D01*
X149545337Y-91424080D01*
X149514000Y-91411100D01*
X149514000Y-91275700D01*
X149545337Y-91262720D01*
X149938320Y-90869737D01*
X150151000Y-90356281D01*
X150151000Y-89800519D01*
X149938320Y-89287063D01*
X149545337Y-88894080D01*
X149531500Y-88888349D01*
X149531500Y-88803701D01*
X149595185Y-88777322D01*
X150012922Y-88359585D01*
X150239000Y-87813785D01*
X150239000Y-87223015D01*
X150012922Y-86677215D01*
X149595185Y-86259478D01*
X149465535Y-86205775D01*
X149545337Y-86172720D01*
X149846454Y-85871603D01*
X150212926Y-86023400D01*
X150624674Y-86023400D01*
X151005080Y-85865831D01*
X151122511Y-85748400D01*
X156040599Y-85748400D01*
X163128337Y-92836138D01*
G36*
X178368336Y-92836138D02*
X178134311Y-92992509D01*
X163416931Y-78275130D01*
X163374529Y-78211671D01*
X163123137Y-78043696D01*
X162901452Y-77999600D01*
X162901447Y-77999600D01*
X162826600Y-77984712D01*
X162751753Y-77999600D01*
X150000509Y-77999600D01*
X150151000Y-77636281D01*
X150151000Y-77080519D01*
X149938320Y-76567063D01*
X149545337Y-76174080D01*
X149362629Y-76098400D01*
X149545337Y-76022720D01*
X149760754Y-75807303D01*
X149920326Y-75873400D01*
X150332074Y-75873400D01*
X150712480Y-75715831D01*
X150829911Y-75598400D01*
X161130599Y-75598400D01*
X178368336Y-92836138D01*
X178368336Y-92836138D01*
G37*
X178368336Y-92836138D02*
X178134311Y-92992509D01*
X163416931Y-78275130D01*
X163374529Y-78211671D01*
X163123137Y-78043696D01*
X162901452Y-77999600D01*
X162901447Y-77999600D01*
X162826600Y-77984712D01*
X162751753Y-77999600D01*
X150000509Y-77999600D01*
X150151000Y-77636281D01*
X150151000Y-77080519D01*
X149938320Y-76567063D01*
X149545337Y-76174080D01*
X149362629Y-76098400D01*
X149545337Y-76022720D01*
X149760754Y-75807303D01*
X149920326Y-75873400D01*
X150332074Y-75873400D01*
X150712480Y-75715831D01*
X150829911Y-75598400D01*
X161130599Y-75598400D01*
X178368336Y-92836138D01*
G36*
X173254467Y-57381231D02*
X161647299Y-68988400D01*
X149951300Y-68988400D01*
X149938320Y-68957063D01*
X149545337Y-68564080D01*
X149326416Y-68473400D01*
X149545337Y-68382720D01*
X149816554Y-68111503D01*
X149935326Y-68160700D01*
X150347074Y-68160700D01*
X150727480Y-68003131D01*
X150844911Y-67885700D01*
X162026553Y-67885700D01*
X162101400Y-67900588D01*
X162176247Y-67885700D01*
X162176252Y-67885700D01*
X162397937Y-67841604D01*
X162649329Y-67673629D01*
X162691731Y-67610170D01*
X173054371Y-57247531D01*
X173254467Y-57381231D01*
X173254467Y-57381231D01*
G37*
X173254467Y-57381231D02*
X161647299Y-68988400D01*
X149951300Y-68988400D01*
X149938320Y-68957063D01*
X149545337Y-68564080D01*
X149326416Y-68473400D01*
X149545337Y-68382720D01*
X149816554Y-68111503D01*
X149935326Y-68160700D01*
X150347074Y-68160700D01*
X150727480Y-68003131D01*
X150844911Y-67885700D01*
X162026553Y-67885700D01*
X162101400Y-67900588D01*
X162176247Y-67885700D01*
X162176252Y-67885700D01*
X162397937Y-67841604D01*
X162649329Y-67673629D01*
X162691731Y-67610170D01*
X173054371Y-57247531D01*
X173254467Y-57381231D01*
G36*
X170354375Y-57140625D02*
X170748396Y-57403902D01*
X161786599Y-66365700D01*
X158868333Y-66365700D01*
X158894929Y-66347929D01*
X158937331Y-66284470D01*
X167974312Y-57247491D01*
X168305582Y-57468839D01*
X168738744Y-57555000D01*
X169031256Y-57555000D01*
X169464418Y-57468839D01*
X169955625Y-57140625D01*
X170155000Y-56842239D01*
X170354375Y-57140625D01*
X170354375Y-57140625D01*
G37*
X170354375Y-57140625D02*
X170748396Y-57403902D01*
X161786599Y-66365700D01*
X158868333Y-66365700D01*
X158894929Y-66347929D01*
X158937331Y-66284470D01*
X167974312Y-57247491D01*
X168305582Y-57468839D01*
X168738744Y-57555000D01*
X169031256Y-57555000D01*
X169464418Y-57468839D01*
X169955625Y-57140625D01*
X170155000Y-56842239D01*
X170354375Y-57140625D01*
G36*
X154700000Y-56355750D02*
X154700000Y-57046309D01*
X154796673Y-57279698D01*
X154975301Y-57458327D01*
X155208690Y-57555000D01*
X155797898Y-57555000D01*
X150652299Y-62700600D01*
X150129747Y-62700600D01*
X150250718Y-62367121D01*
X150224315Y-61776942D01*
X150049259Y-61354320D01*
X149797958Y-61274047D01*
X148933605Y-62138400D01*
X148947748Y-62152543D01*
X148768143Y-62332148D01*
X148754000Y-62318005D01*
X148739858Y-62332148D01*
X148560253Y-62152543D01*
X148574395Y-62138400D01*
X147710042Y-61274047D01*
X147458741Y-61354320D01*
X147257282Y-61909679D01*
X147283685Y-62499858D01*
X147366835Y-62700600D01*
X145315847Y-62700600D01*
X145241000Y-62685712D01*
X145166153Y-62700600D01*
X145166148Y-62700600D01*
X144944463Y-62744696D01*
X144693071Y-62912671D01*
X144650671Y-62976127D01*
X144072328Y-63554471D01*
X144008872Y-63596871D01*
X143972912Y-63650689D01*
X143931174Y-63633400D01*
X143519426Y-63633400D01*
X143139020Y-63790969D01*
X143021589Y-63908400D01*
X140599584Y-63908400D01*
X140578320Y-63857063D01*
X140185337Y-63464080D01*
X140129677Y-63441025D01*
X140235185Y-63397322D01*
X140652922Y-62979585D01*
X140879000Y-62433785D01*
X140879000Y-61843015D01*
X140652922Y-61297215D01*
X140235185Y-60879478D01*
X140069322Y-60810775D01*
X140185337Y-60762720D01*
X140305477Y-60642580D01*
X142989000Y-60642580D01*
X142989000Y-61074220D01*
X143154182Y-61473003D01*
X143459397Y-61778218D01*
X143858180Y-61943400D01*
X144289820Y-61943400D01*
X144688603Y-61778218D01*
X144993818Y-61473003D01*
X145150623Y-61094442D01*
X147889647Y-61094442D01*
X148754000Y-61958795D01*
X149618353Y-61094442D01*
X149538080Y-60843141D01*
X149486925Y-60824584D01*
X149554608Y-60588613D01*
X148754000Y-59788005D01*
X147953392Y-60588613D01*
X148020400Y-60822231D01*
X147969920Y-60843141D01*
X147889647Y-61094442D01*
X145150623Y-61094442D01*
X145159000Y-61074220D01*
X145159000Y-60642580D01*
X144993818Y-60243797D01*
X144688603Y-59938582D01*
X144289820Y-59773400D01*
X143858180Y-59773400D01*
X143459397Y-59938582D01*
X143154182Y-60243797D01*
X142989000Y-60642580D01*
X140305477Y-60642580D01*
X140578320Y-60369737D01*
X140587158Y-60348400D01*
X140674153Y-60348400D01*
X140749000Y-60363288D01*
X140823847Y-60348400D01*
X140823852Y-60348400D01*
X141045537Y-60304304D01*
X141296929Y-60136329D01*
X141339331Y-60072870D01*
X141671170Y-59741031D01*
X141734629Y-59698629D01*
X141902604Y-59447237D01*
X141946700Y-59225552D01*
X141946700Y-59225548D01*
X141958330Y-59167081D01*
X142064231Y-59061180D01*
X142221800Y-58680774D01*
X142221800Y-58269026D01*
X142064231Y-57888620D01*
X141984011Y-57808400D01*
X143110854Y-57808400D01*
X142989000Y-58102580D01*
X142989000Y-58534220D01*
X143154182Y-58933003D01*
X143459397Y-59238218D01*
X143858180Y-59403400D01*
X144289820Y-59403400D01*
X144296333Y-59400702D01*
X147344856Y-59400702D01*
X147372638Y-59955768D01*
X147531603Y-60339543D01*
X147773787Y-60409008D01*
X148574395Y-59608400D01*
X148933605Y-59608400D01*
X149734213Y-60409008D01*
X149976397Y-60339543D01*
X150163144Y-59816098D01*
X150135362Y-59261032D01*
X149976397Y-58877257D01*
X149734213Y-58807792D01*
X148933605Y-59608400D01*
X148574395Y-59608400D01*
X147773787Y-58807792D01*
X147531603Y-58877257D01*
X147344856Y-59400702D01*
X144296333Y-59400702D01*
X144688603Y-59238218D01*
X144993818Y-58933003D01*
X145159000Y-58534220D01*
X145159000Y-58102580D01*
X145128362Y-58028613D01*
X147953392Y-58028613D01*
X148022857Y-58270797D01*
X148172285Y-58324108D01*
X148022857Y-58386003D01*
X147953392Y-58628187D01*
X148754000Y-59428795D01*
X149554608Y-58628187D01*
X149485143Y-58386003D01*
X149335715Y-58332692D01*
X149485143Y-58270797D01*
X149554608Y-58028613D01*
X148754000Y-57228005D01*
X147953392Y-58028613D01*
X145128362Y-58028613D01*
X144993818Y-57703797D01*
X144688603Y-57398582D01*
X144525846Y-57331165D01*
X144619731Y-57237280D01*
X144777300Y-56856874D01*
X144777300Y-56690802D01*
X144929702Y-56538400D01*
X147452707Y-56538400D01*
X147344856Y-56840702D01*
X147372638Y-57395768D01*
X147531603Y-57779543D01*
X147773787Y-57849008D01*
X148574395Y-57048400D01*
X148560253Y-57034258D01*
X148739858Y-56854653D01*
X148754000Y-56868795D01*
X148768143Y-56854653D01*
X148947748Y-57034258D01*
X148933605Y-57048400D01*
X149734213Y-57849008D01*
X149976397Y-57779543D01*
X150163144Y-57256098D01*
X150135362Y-56701032D01*
X150067998Y-56538400D01*
X154116751Y-56538400D01*
X154191598Y-56553288D01*
X154266445Y-56538400D01*
X154266450Y-56538400D01*
X154488135Y-56494304D01*
X154709071Y-56346679D01*
X154700000Y-56355750D01*
X154700000Y-56355750D01*
G37*
X154700000Y-56355750D02*
X154700000Y-57046309D01*
X154796673Y-57279698D01*
X154975301Y-57458327D01*
X155208690Y-57555000D01*
X155797898Y-57555000D01*
X150652299Y-62700600D01*
X150129747Y-62700600D01*
X150250718Y-62367121D01*
X150224315Y-61776942D01*
X150049259Y-61354320D01*
X149797958Y-61274047D01*
X148933605Y-62138400D01*
X148947748Y-62152543D01*
X148768143Y-62332148D01*
X148754000Y-62318005D01*
X148739858Y-62332148D01*
X148560253Y-62152543D01*
X148574395Y-62138400D01*
X147710042Y-61274047D01*
X147458741Y-61354320D01*
X147257282Y-61909679D01*
X147283685Y-62499858D01*
X147366835Y-62700600D01*
X145315847Y-62700600D01*
X145241000Y-62685712D01*
X145166153Y-62700600D01*
X145166148Y-62700600D01*
X144944463Y-62744696D01*
X144693071Y-62912671D01*
X144650671Y-62976127D01*
X144072328Y-63554471D01*
X144008872Y-63596871D01*
X143972912Y-63650689D01*
X143931174Y-63633400D01*
X143519426Y-63633400D01*
X143139020Y-63790969D01*
X143021589Y-63908400D01*
X140599584Y-63908400D01*
X140578320Y-63857063D01*
X140185337Y-63464080D01*
X140129677Y-63441025D01*
X140235185Y-63397322D01*
X140652922Y-62979585D01*
X140879000Y-62433785D01*
X140879000Y-61843015D01*
X140652922Y-61297215D01*
X140235185Y-60879478D01*
X140069322Y-60810775D01*
X140185337Y-60762720D01*
X140305477Y-60642580D01*
X142989000Y-60642580D01*
X142989000Y-61074220D01*
X143154182Y-61473003D01*
X143459397Y-61778218D01*
X143858180Y-61943400D01*
X144289820Y-61943400D01*
X144688603Y-61778218D01*
X144993818Y-61473003D01*
X145150623Y-61094442D01*
X147889647Y-61094442D01*
X148754000Y-61958795D01*
X149618353Y-61094442D01*
X149538080Y-60843141D01*
X149486925Y-60824584D01*
X149554608Y-60588613D01*
X148754000Y-59788005D01*
X147953392Y-60588613D01*
X148020400Y-60822231D01*
X147969920Y-60843141D01*
X147889647Y-61094442D01*
X145150623Y-61094442D01*
X145159000Y-61074220D01*
X145159000Y-60642580D01*
X144993818Y-60243797D01*
X144688603Y-59938582D01*
X144289820Y-59773400D01*
X143858180Y-59773400D01*
X143459397Y-59938582D01*
X143154182Y-60243797D01*
X142989000Y-60642580D01*
X140305477Y-60642580D01*
X140578320Y-60369737D01*
X140587158Y-60348400D01*
X140674153Y-60348400D01*
X140749000Y-60363288D01*
X140823847Y-60348400D01*
X140823852Y-60348400D01*
X141045537Y-60304304D01*
X141296929Y-60136329D01*
X141339331Y-60072870D01*
X141671170Y-59741031D01*
X141734629Y-59698629D01*
X141902604Y-59447237D01*
X141946700Y-59225552D01*
X141946700Y-59225548D01*
X141958330Y-59167081D01*
X142064231Y-59061180D01*
X142221800Y-58680774D01*
X142221800Y-58269026D01*
X142064231Y-57888620D01*
X141984011Y-57808400D01*
X143110854Y-57808400D01*
X142989000Y-58102580D01*
X142989000Y-58534220D01*
X143154182Y-58933003D01*
X143459397Y-59238218D01*
X143858180Y-59403400D01*
X144289820Y-59403400D01*
X144296333Y-59400702D01*
X147344856Y-59400702D01*
X147372638Y-59955768D01*
X147531603Y-60339543D01*
X147773787Y-60409008D01*
X148574395Y-59608400D01*
X148933605Y-59608400D01*
X149734213Y-60409008D01*
X149976397Y-60339543D01*
X150163144Y-59816098D01*
X150135362Y-59261032D01*
X149976397Y-58877257D01*
X149734213Y-58807792D01*
X148933605Y-59608400D01*
X148574395Y-59608400D01*
X147773787Y-58807792D01*
X147531603Y-58877257D01*
X147344856Y-59400702D01*
X144296333Y-59400702D01*
X144688603Y-59238218D01*
X144993818Y-58933003D01*
X145159000Y-58534220D01*
X145159000Y-58102580D01*
X145128362Y-58028613D01*
X147953392Y-58028613D01*
X148022857Y-58270797D01*
X148172285Y-58324108D01*
X148022857Y-58386003D01*
X147953392Y-58628187D01*
X148754000Y-59428795D01*
X149554608Y-58628187D01*
X149485143Y-58386003D01*
X149335715Y-58332692D01*
X149485143Y-58270797D01*
X149554608Y-58028613D01*
X148754000Y-57228005D01*
X147953392Y-58028613D01*
X145128362Y-58028613D01*
X144993818Y-57703797D01*
X144688603Y-57398582D01*
X144525846Y-57331165D01*
X144619731Y-57237280D01*
X144777300Y-56856874D01*
X144777300Y-56690802D01*
X144929702Y-56538400D01*
X147452707Y-56538400D01*
X147344856Y-56840702D01*
X147372638Y-57395768D01*
X147531603Y-57779543D01*
X147773787Y-57849008D01*
X148574395Y-57048400D01*
X148560253Y-57034258D01*
X148739858Y-56854653D01*
X148754000Y-56868795D01*
X148768143Y-56854653D01*
X148947748Y-57034258D01*
X148933605Y-57048400D01*
X149734213Y-57849008D01*
X149976397Y-57779543D01*
X150163144Y-57256098D01*
X150135362Y-56701032D01*
X150067998Y-56538400D01*
X154116751Y-56538400D01*
X154191598Y-56553288D01*
X154266445Y-56538400D01*
X154266450Y-56538400D01*
X154488135Y-56494304D01*
X154709071Y-56346679D01*
X154700000Y-56355750D01*
G36*
X162734375Y-57140625D02*
X163098244Y-57383754D01*
X156578599Y-63903400D01*
X151599101Y-63903400D01*
X158034173Y-57468329D01*
X158089496Y-57431363D01*
X158145582Y-57468839D01*
X158578744Y-57555000D01*
X158871256Y-57555000D01*
X159304418Y-57468839D01*
X159795625Y-57140625D01*
X159995000Y-56842239D01*
X160194375Y-57140625D01*
X160685582Y-57468839D01*
X161118744Y-57555000D01*
X161411256Y-57555000D01*
X161844418Y-57468839D01*
X162335625Y-57140625D01*
X162535000Y-56842239D01*
X162734375Y-57140625D01*
X162734375Y-57140625D01*
G37*
X162734375Y-57140625D02*
X163098244Y-57383754D01*
X156578599Y-63903400D01*
X151599101Y-63903400D01*
X158034173Y-57468329D01*
X158089496Y-57431363D01*
X158145582Y-57468839D01*
X158578744Y-57555000D01*
X158871256Y-57555000D01*
X159304418Y-57468839D01*
X159795625Y-57140625D01*
X159995000Y-56842239D01*
X160194375Y-57140625D01*
X160685582Y-57468839D01*
X161118744Y-57555000D01*
X161411256Y-57555000D01*
X161844418Y-57468839D01*
X162335625Y-57140625D01*
X162535000Y-56842239D01*
X162734375Y-57140625D01*
G36*
X154759877Y-56295873D02*
X154781929Y-56262870D01*
X154847797Y-56197002D01*
X154858748Y-56197002D01*
X154759877Y-56295873D01*
X154759877Y-56295873D01*
G37*
X154759877Y-56295873D02*
X154781929Y-56262870D01*
X154847797Y-56197002D01*
X154858748Y-56197002D01*
X154759877Y-56295873D01*
G36*
X156312000Y-55943000D02*
X156332000Y-55943000D01*
X156332000Y-56197000D01*
X156312000Y-56197000D01*
X156312000Y-56217000D01*
X156058000Y-56217000D01*
X156058000Y-56197000D01*
X156038000Y-56197000D01*
X156038000Y-55943000D01*
X156058000Y-55943000D01*
X156058000Y-55923000D01*
X156312000Y-55923000D01*
X156312000Y-55943000D01*
X156312000Y-55943000D01*
G37*
X156312000Y-55943000D02*
X156332000Y-55943000D01*
X156332000Y-56197000D01*
X156312000Y-56197000D01*
X156312000Y-56217000D01*
X156058000Y-56217000D01*
X156058000Y-56197000D01*
X156038000Y-56197000D01*
X156038000Y-55943000D01*
X156058000Y-55943000D01*
X156058000Y-55923000D01*
X156312000Y-55923000D01*
X156312000Y-55943000D01*
G04 #@! TD*
M02*
