M48
METRIC,TZ
T1C0.400
T2C1.000
%
G90
G05
T1
X139031Y-91338
X140259Y-53899
X140564Y-81335
X140840Y-65999
X141213Y-83717
X141218Y-86260
X141375Y-91217
X143058Y-78622
X143147Y-66027
X143179Y-71039
X144105Y-77212
X144273Y-70016
X144318Y-75109
X144564Y-81870
X144564Y-85071
X145577Y-78638
X147210Y-68580
X147219Y-66027
X147219Y-73699
X147371Y-88745
X149054Y-57048
X149054Y-59608
X149054Y-62138
X150513Y-64657
X151144Y-74988
X152552Y-56896
X152959Y-59284
X155397Y-52426
X156820Y-59690
X157429Y-62078
X161747Y-67869
X163271Y-62281
X165913Y-65481
T2
X156185Y-94170
X158725Y-94170
X161265Y-94170
X163805Y-94170
X166345Y-94170
X168885Y-94170
X171425Y-94170
X173965Y-94170
X176505Y-94170
X179045Y-94170
X181585Y-94170
X156185Y-56070
X158725Y-56070
X161265Y-56070
X163805Y-56070
X166345Y-56070
X168885Y-56070
X171425Y-56070
X173965Y-56070
X176505Y-56070
X179045Y-56070
X181585Y-56070
T0
M30
