G04 #@! TF.GenerationSoftware,KiCad,Pcbnew,5.0.2-bee76a0~70~ubuntu18.04.1*
G04 #@! TF.CreationDate,2018-12-02T18:05:12+09:00*
G04 #@! TF.ProjectId,M5StackSideBB,4d355374-6163-46b5-9369-646542422e6b,rev?*
G04 #@! TF.SameCoordinates,Original*
G04 #@! TF.FileFunction,Paste,Top*
G04 #@! TF.FilePolarity,Positive*
%FSLAX46Y46*%
G04 Gerber Fmt 4.6, Leading zero omitted, Abs format (unit mm)*
G04 Created by KiCad (PCBNEW 5.0.2-bee76a0~70~ubuntu18.04.1) date 2018年12月02日 18時05分12秒*
%MOMM*%
%LPD*%
G01*
G04 APERTURE LIST*
%ADD10R,3.150000X1.000000*%
%ADD11C,1.524000*%
G04 APERTURE END LIST*
D10*
G04 #@! TO.C,J3*
X141549000Y-57048400D03*
X146599000Y-57048400D03*
X141549000Y-59588400D03*
X146599000Y-59588400D03*
X141549000Y-62128400D03*
X146599000Y-62128400D03*
X141549000Y-64668400D03*
X146599000Y-64668400D03*
X141549000Y-67208400D03*
X146599000Y-67208400D03*
X141549000Y-69748400D03*
X146599000Y-69748400D03*
X141549000Y-72288400D03*
X146599000Y-72288400D03*
X141549000Y-74828400D03*
X146599000Y-74828400D03*
X141549000Y-77368400D03*
X146599000Y-77368400D03*
X141549000Y-79908400D03*
X146599000Y-79908400D03*
X141549000Y-82448400D03*
X146599000Y-82448400D03*
X141549000Y-84988400D03*
X146599000Y-84988400D03*
X141549000Y-87528400D03*
X146599000Y-87528400D03*
X141549000Y-90068400D03*
X146599000Y-90068400D03*
X141549000Y-92608400D03*
X146599000Y-92608400D03*
D11*
X139394000Y-57048400D03*
X139394000Y-59578400D03*
X139394000Y-64648400D03*
X139394000Y-67178400D03*
X139394000Y-69758400D03*
X139394000Y-72268400D03*
X139394000Y-74838400D03*
X139394000Y-77358400D03*
X139394000Y-79888400D03*
X139394000Y-82428400D03*
X139394000Y-84998400D03*
X139394000Y-90048400D03*
X139394000Y-92628400D03*
X148754000Y-57048400D03*
X148754000Y-59608400D03*
X148754000Y-64658400D03*
X148754000Y-67198400D03*
X148754000Y-69748400D03*
X148754000Y-72278400D03*
X148754000Y-74838400D03*
X148754000Y-77358400D03*
X148754000Y-79898400D03*
X148754000Y-82438400D03*
X148754000Y-84988400D03*
X148754000Y-90078400D03*
X148754000Y-92608400D03*
G04 #@! TD*
M02*
